<?xml version="1.0" encoding="UTF-8"?>
<svg version="1.1" xmlns="http://www.w3.org/2000/svg" width="1024" height="1024" viewBox="200 200 640 620">
  <style>
    .logo-shape { fill: #000000; stroke: #000000; }
    @media (prefers-color-scheme: dark) {
    .logo-shape { fill: #ffffff; stroke: #ffffff; }
    }
  </style>
  <path
    d="M0 0
        C20.7135414 17.08818174 35.34031094 40.12750877 39.53662109 66.86328125
        C48.30991695 125.31167016 21.43686566 174.90453328 -10.88476562 218.74560547
        C-93.80752485 322.23865911 -106.89055208 342.38814977 -113.46337891 366.86328125
        C-121.87146591 351.89495923 -127.7199467 331.15568596 -120.83447266 315.95703125
        C-104.58427108 290.84443378 -96.38169175 280.69910542 -87.94970703 270.64941406
        C-13.95167229 180.15076892 14.34996876 138.72375012 13.97412109 91.48828125
        C13.80434298 67.35649841 8.05136079 47.83195175 -6.46337891 30.86328125
        C-23.78790438 11.916766 -46.84818703 4.26822612 -69.29931641 2.66015625
        C-93.69787372 2.20972135 -117.69070567 9.74682979 -135.46337891 26.86328125
        C-147.31724389 40.49724882 -150.14558084 54.68321663 -152.02587891 72.11328125
        C-153.47302851 84.94187634 -153.94776435 87.89787816 -154.46337891 90.86328125
        C-141.93507897 82.78196346 -130.42545216 73.98797391 -119.46337891 63.86328125
        C-89.50570312 42.037229 -88.86052734 41.71117676 -88.19580078 41.37524414
        C-75.5675689 35.29863461 -61.20658319 34.2329324 -47.90869141 38.7265625
        C-35.45463981 44.19759156 -26.48026137 54.41119874 -21.46337891 66.86328125
        C-14.48466767 89.1286933 -20.8285943 113.51769237 -31.13525391 133.671875
        C-41.78475788 153.39956822 -56.60752368 172.68071596 -72.80029297 188.19921875
        C-172.31917499 292.91615762 -173.17599496 293.96820237 -174.03369141 295.01953125
        C-197.35264883 323.829497 -219.44227921 361.25916505 -216.46337891 399.86328125
        C-213.39022932 427.03821077 -202.77433072 450.497234 -183.46337891 469.86328125
        C-167.67061553 486.15354861 -148.76324854 495.89325817 -129.46337891 501.86328125
        C-125.31384766 455.11353027 -125.16431641 454.3637793 -125.01025391 453.59130859
        C-118.53504065 421.97218276 -102.27894898 392.47095405 -79.92480469 369.39404297
        C-17.66549943 300.21481993 73.01262481 279.81876691 152.11083984 262.96484375
        C241.99619572 239.73819103 264.07845586 229.6911892 285.63818359 218.03125
        C301.73665283 209.28578125 302.79215332 208.70828125 303.87963867 208.11328125
        C306.53662109 206.86328125 306.53662109 206.86328125 309.53662109 206.86328125
        C321.17823172 241.78811312 307.1892114 288.93318594 292.53662109 320.86328125
        C289.79024829 326.34897196 286.75692207 331.64390455 283.53662109 336.86328125
        C287.82662109 336.86328125 292.11662109 336.86328125 296.53662109 336.86328125
        C298.46294684 341.67909562 298.7252411 344.64633496 298.34912109 349.61328125
        C295.70966898 383.13940313 282.9501718 412.36923461 263.53662109 436.86328125
        C218.43404212 494.6367397 147.53741323 522.71988571 79.86434174 531.12282944
        C46.57129918 535.15800207 12.79881108 534.17393436 -20.67803383 534.12041998
        C-115.10344336 534.19964697 -115.10344336 534.19964697 -136.46337891 527.86328125
        C-162.81564323 520.43030041 -183.48699768 507.21374391 -201.46337891 489.86328125
        C-225.41301752 467.13512051 -237.96680331 438.60363158 -242.46337891 409.86328125
        C-246.60010123 380.50998068 -239.22980904 352.90960539 -227.46337891 328.86328125
        C-220.22864304 314.18814507 -213.5595711 302.80108403 -205.46337891 291.86328125
        C-78.35068378 154.84585321 -73.95045373 149.25870141 -69.68212891 143.50146484
        C-61.36380655 132.32548295 -57.61832547 125.55658922 -54.08837891 118.23828125
        C-48.61339575 106.62327601 -45.88687437 97.74109194 -46.02587891 87.73828125
        C-46.24138239 78.69788787 -47.27638562 73.28326622 -51.95947266 68.2578125
        C-56.61553867 64.11263653 -60.6692565 63.49826626 -66.65869141 63.59375
        C-81.87244806 65.05579625 -93.24383453 76.31812713 -103.74072266 86.3359375
        C-118.11543558 100.03619883 -134.00405292 110.49037993 -151.46337891 119.86328125
        C-188.99181344 139.50777733 -188.99181344 139.50777733 -203.46337891 137.86328125
        C-204.46337891 136.86328125 -204.46337891 136.86328125 -204.77587891 133.42578125
        C-204.58186282 124.97861944 -200.3711536 118.53842069 -195.71337891 111.80078125
        C-185.21745481 96.5149273 -178.9648296 80.42350267 -177.96337891 61.80078125
        C-176.85025883 41.26726831 -168.68019995 24.33770191 -155.46337891 8.86328125
        C-140.12492208 -7.91750952 -120.63221225 -16.48426437 -101.46337891 -21.13671875
        C-65.72943224 -29.92890412 -27.20582873 -21.61077819 0 0 Z M277.70068359 252.06640625
        C237.5627839 270.84134779 194.97826025 280.99882379 151.73095703 289.80371094
        C78.73189 304.67232786 2.86226022 325.02503462 -52.46337891 377.86328125
        C-83.26943012 407.59695048 -102.47450999 447.43159782 -103.54052734 486.70556641
        C-103.48143469 504.47560639 -103.47254154 505.15908804 -103.46337891 505.86328125
        C48.98938881 506.86273174 48.98938881 506.86273174 50.41172791 506.79840851
        C116.50465238 503.73021167 185.36890025 482.70732988 232.43115234 433.8984375
        C253.4509003 408.76142811 265.25540767 387.60827865 269.53662109 366.86328125
        C269.20662109 365.87328125 268.87662109 364.88328125 268.53662109 363.86328125
        C254.01662109 364.19328125 239.49662109 364.52328125 224.53662109 364.86328125
        C226.47467724 360.98716895 227.10076585 360.19179482 230.41162109 357.86328125
        C261.37244647 334.43212861 277.07516894 297.55597972 284.05615234 260.4140625
        C284.53836317 256.85040686 284.62421531 253.45464428 284.53662109 249.86328125
        Z"
    class="logo-shape"
    stroke-width="15"
    stroke-linejoin="round"
    stroke-linecap="round"
    transform="translate(487.46337890625,256.13671875)" />
</svg>
