<?xml version="1.0" encoding="UTF-8"?>
<svg version="1.1" xmlns="http://www.w3.org/2000/svg" viewBox="200 200 640 620" width="640" height="620">
  <!-- floating animation: 10s still → 3 cycles of bobbing (1.8s each), repeat -->
  <g>
    <animateTransform
      attributeName="transform"
      type="translate"
      values="0,0; 0,0; 0,-8; 0,0; 0,-8; 0,0; 0,-8; 0,0"
      keyTimes="0.000000; 0.649351; 0.707792; 0.766234; 0.824675; 0.883117; 0.941558; 1.000000"
      keySplines="0 0 1 1; 0.5 0 0.5 1; 0.5 0 0.5 1; 0.5 0 0.5 1; 0.5 0 0.5 1; 0.5 0 0.5 1; 0.5 0 0.5 1"
      dur="15.4s"
      repeatCount="indefinite"
      calcMode="spline"
    />

    <!-- body -->
    <path
      d="M0 0
        C19.5727 16.7077 31.694 39.4918 33.9375 65.1875
        C34.2483 68.7468 34.5336 77.6772 34.4414 74.1055
        C35.3284 108.461 20.7228 141.122 1.3125 168.688
        C-5.88395 178.98 -12.1939 187.385 -18.6875 195.688
        C-117.884 309.753 -127.903 324.625 -136.688 340.688
        C-145.984 357.74 -151.229 373.839 -154.688 390.688
        C-159.889 420.158 -154.646 450.48 -139.688 473.688
        C-130.828 484.996 -129.138 487.158 -128.688 490.688
        C-128.003 496.049 -146.936 485.86 -141.886 487.789
        C-162.872 479.77 -181.351 468.137 -197.688 452.688
        C-214.286 432.749 -214.884 431.811 -215.5 430.844
        C-229.272 408.287 -233.515 380.931 -227.848 355.086
        C-220.957 327.486 -206.224 303.7 -188.688 281.688
        C-147.292 235.169 -144.935 232.879 -142.188 230.75
        C-80.4324 169.193 -78.6908 167.534 -76.5 165.438
        C-59.2641 144.552 -48.9109 133.056 -52.6875 137.938
        C-35.7197 116.006 -21.9713 91.7633 -24.9609 63.0625
        C-26.4511 54.9648 -30.6331 49.1579 -36.8438 43.9141
        C-43.5075 39.481 -51.0195 40.0666 -58.6875 40.6875
        C-70.1326 43.2181 -78.1196 49.8792 -86.1008 58.0808
        C-97.7104 69.9591 -111.568 78.7846 -125.638 87.4277
        C-142.065 97.6106 -154.944 104.08 -168.312 110.062
        C-174.557 112.83 -178.525 114.388 -182.688 115.688
        C-182.688 110.888 -181.993 110.537 -178.75 107.25
        C-171.175 99.1168 -165.266 90.2501 -160.25 80.375
        C-155.541 70.8385 -154.46 63.8139 -154.25 55.4375
        C-153.495 37.9004 -147.572 20.2698 -134.688 7.6875
        C-118.97 -5.41176 -113.353 -9.26387 -106.688 -12.375
        C-69.8744 -29.0972 -29.4707 -23.1467 0 0
        Z"
      fill="#8DB7D0"
      transform="translate(484.6875,268.3125)"
    />

    <!-- wing (upper) -->
    <path
      d="M0 0
        C0.99 0.33 1.98 0.66 3 1
        C3.50273592 33.32978676 -0.1782821 64.23857643 -18 92
        C-18.54527344 92.88171875 -19.09054687 93.7634375 -19.65234375 94.671875
        C-24.01408702 101.19965404 -29.37357603 106.6774807 -34.875 112.25
        C-35.9894751 113.38550293 -35.9894751 113.38550293 -37.12646484 114.54394531
        C-54.23500166 131.5070838 -77.49478148 141.78198121 -100.125 149.125
        C-101.04595459 149.42543213 -101.96690918 149.72586426 -102.91577148 150.03540039
        C-121.99194699 156.01143688 -141.5908025 160.10136666 -161.1875 163.9375
        C-163.38191 164.37185905 -165.57624474 164.80659852 -167.77050781 165.24169922
        C-179.84201212 167.62865029 -191.92546077 169.94705022 -204.02108765 172.20825195
        C-254.77553552 181.69800017 -306.53049762 191.5980273 -353 215
        C-353.78842285 215.38752441 -354.5768457 215.77504883 -355.38916016 216.17431641
        C-380.52985125 228.55944866 -404.34890627 246.55449383 -420.30078125 269.83984375
        C-422 272 -422 272 -425 273
        C-432.4807795 258.03844099 -424.16714295 229.81400699 -419.25 214.6875
        C-410.92457114 190.63833318 -397.33387924 171.41890069 -380 153
        C-361.06655762 136.2889209 -361.06655762 136.2889209 -360.11425781 135.56347656
        C-325.18813978 109.11045849 -285.2103014 92.96660275 -243.36181641 80.96679688
        C-207.46448896 70.34199233 -179.66475383 64.13512513 -151.96337891 57.89355469
        C-57.23331851 35.62872491 -57.23331851 35.62872491 -4 3
        Z"
      fill="#8CB7D0"
      transform="translate(790,477)"
    >
      <!-- rotates -3° around lower-left root (-425, 273) during flap -->
      <animateTransform
        attributeName="transform"
        type="rotate"
        additive="sum"
        values="0 -425 273; 0 -425 273; -3 -425 273; 0 -425 273; -3 -425 273; 0 -425 273; -3 -425 273; 0 -425 273; -3 -425 273; 0 -425 273; -3 -425 273; 0 -425 273; -3 -425 273; 0 -425 273"
        keyTimes="0.000000; 0.649351; 0.678571; 0.707792; 0.737013; 0.766234; 0.795455; 0.824675; 0.853896; 0.883117; 0.912338; 0.941558; 0.970779; 1.000000"
        keySplines="0 0 1 1; 0.5 0 0.5 1; 0.5 0 0.5 1; 0.5 0 0.5 1; 0.5 0 0.5 1; 0.5 0 0.5 1; 0.5 0 0.5 1; 0.5 0 0.5 1; 0.5 0 0.5 1; 0.5 0 0.5 1; 0.5 0 0.5 1; 0.5 0 0.5 1; 0.5 0 0.5 1"
        dur="15.4s"
        repeatCount="indefinite"
        calcMode="spline"
      />
    </path>

    <!-- wing (lower) -->
    <path
      d="M0 0
        C0.66 0.33 1.32 0.66 2 1
        C0.76786494 10.7099599 -1.81378767 19.7863669 -5 29
        C-5.61294922 30.79050781 -5.61294922 30.79050781 -6.23828125 32.6171875
        C-14.32385196 54.41722181 -27.61978044 72.85715266 -43.58447266 89.51708984
        C-44.86555551 90.8591556 -46.12733217 92.21958521 -47.38671875 93.58203125
        C-58.55706587 105.32132645 -72.19290338 114.629147 -86 123
        C-87.05832031 123.65226563 -88.11664062 124.30453125 -89.20703125 124.9765625
        C-138.76343451 154.48701853 -199.25625268 164.36761193 -256 168
        C-257.03453308 168.07098404 -257.03453308 168.07098404 -258.08996582 168.1434021
        C-276.81558315 169.39387259 -295.600971 169.19681341 -314.35842514 169.18847656
        C-317.14264869 169.18749377 -319.92686671 169.1884829 -322.71109009 169.18969727
        C-349.51749529 169.19405644 -376.24716366 168.86745873 -403 167
        C-403.33 166.01 -403.66 165.02 -404 164
        C-390.66935201 141.73781786 -367.25938037 125.3304604 -345 113
        C-344.27345215 112.59297852 -343.5469043 112.18595703 -342.79833984 111.76660156
        C-332.26027757 105.90151613 -321.64205858 101.03747566 -310.32348633 96.89233398
        C-307.59626236 95.84494472 -304.92021539 94.69613531 -302.234375 93.546875
        C-296.15544756 90.9970295 -289.99639207 88.96116136 -283.6875 87.0625
        C-282.5521582 86.71896484 -281.41681641 86.37542969 -280.24707031 86.02148438
        C-241.25049447 74.33882818 -201.12895296 67.38246254 -161.12744141 60.11425781
        C-73.57278168 45.808027 -73.57278168 45.808027 0 0
        Z"
      fill="#8DB7D0"
      transform="translate(779,597)"
    >
      <!-- rotates -2° around lower-left root (-404, 164) during flap -->
      <animateTransform
        attributeName="transform"
        type="rotate"
        additive="sum"
        values="0 -404 164; 0 -404 164; -2 -404 164; 0 -404 164; -2 -404 164; 0 -404 164; -2 -404 164; 0 -404 164; -2 -404 164; 0 -404 164; -2 -404 164; 0 -404 164; -2 -404 164; 0 -404 164"
        keyTimes="0.000000; 0.649351; 0.678571; 0.707792; 0.737013; 0.766234; 0.795455; 0.824675; 0.853896; 0.883117; 0.912338; 0.941558; 0.970779; 1.000000"
        keySplines="0 0 1 1; 0.5 0 0.5 1; 0.5 0 0.5 1; 0.5 0 0.5 1; 0.5 0 0.5 1; 0.5 0 0.5 1; 0.5 0 0.5 1; 0.5 0 0.5 1; 0.5 0 0.5 1; 0.5 0 0.5 1; 0.5 0 0.5 1; 0.5 0 0.5 1; 0.5 0 0.5 1"
        dur="15.4s"
        repeatCount="indefinite"
        calcMode="spline"
      />
    </path>

  </g>
</svg>
