<svg version="1.1" viewBox="0.0 0.0 440.9422572178478 334.8582677165354" fill="none" stroke="none" stroke-linecap="square" stroke-miterlimit="10" xmlns:xlink="http://www.w3.org/1999/xlink" xmlns="http://www.w3.org/2000/svg"><clipPath id="p.0"><path d="m0 0l440.94226 0l0 334.85828l-440.94226 0l0 -334.85828z" clip-rule="nonzero"/></clipPath><g clip-path="url(#p.0)"><path fill="#000000" fill-opacity="0.0" d="m0 0l440.94226 0l0 334.85828l-440.94226 0z" fill-rule="evenodd"/><path fill="#ffffff" d="m48.774426 193.49203l0 0c0 -71.292564 75.639206 -129.08661 168.94489 -129.08661l0 0c93.30568 0 168.94487 57.794044 168.94487 129.08661l0 0c0 71.29257 -75.63919 129.08661 -168.94487 129.08661l0 0c-93.30569 0 -168.94489 -57.794037 -168.94489 -129.08661z" fill-rule="evenodd"/><path stroke="#616161" stroke-width="8.0" stroke-linejoin="round" stroke-linecap="butt" d="m48.774426 193.49203l0 0c0 -71.292564 75.639206 -129.08661 168.94489 -129.08661l0 0c93.30568 0 168.94487 57.794044 168.94487 129.08661l0 0c0 71.29257 -75.63919 129.08661 -168.94487 129.08661l0 0c-93.30569 0 -168.94489 -57.794037 -168.94489 -129.08661z" fill-rule="evenodd"/><path fill="#000000" fill-opacity="0.0" d="m117.83276 297.66714l-54.3937 -40.75592" fill-rule="evenodd"/><path stroke="#616161" stroke-width="8.0" stroke-linejoin="round" stroke-linecap="butt" d="m117.832756 297.66714l-15.980354 -11.973724" fill-rule="evenodd"/><path fill="#616161" stroke="#616161" stroke-width="8.0" stroke-linecap="butt" d="m109.77582 275.11868l-36.977333 -11.194641l21.1305 32.344147z" fill-rule="evenodd"/><path fill="#f4cccc" d="m5.9999943 219.04703l0 0c0 -6.831009 5.5376196 -12.368622 12.36862 -12.368622l62.758827 0c3.2803574 0 6.4263687 1.3031158 8.745934 3.6226807c2.3195648 2.3195648 3.6226807 5.465576 3.6226807 8.745941l0 27.987167c0 6.831009 -5.5376205 12.368607 -12.368614 12.368607l-62.758827 0c-6.8310003 0 -12.36862 -5.5375977 -12.36862 -12.368607z" fill-rule="evenodd"/><path stroke="#f4cccc" stroke-width="1.0" stroke-linejoin="round" stroke-linecap="butt" d="m5.9999943 219.04703l0 0c0 -6.831009 5.5376196 -12.368622 12.36862 -12.368622l62.758827 0c3.2803574 0 6.4263687 1.3031158 8.745934 3.6226807c2.3195648 2.3195648 3.6226807 5.465576 3.6226807 8.745941l0 27.987167c0 6.831009 -5.5376205 12.368607 -12.368614 12.368607l-62.758827 0c-6.8310003 0 -12.36862 -5.5375977 -12.36862 -12.368607z" fill-rule="evenodd"/><path fill="#000000" d="m33.586895 234.67812l0 5.5625l-1.8750019 0l0 -14.21875l5.234377 0q2.34375 0 3.65625 1.1875q1.328125 1.1875 1.328125 3.15625q0 2.078125 -1.296875 3.203125q-1.296875 1.109375 -3.703125 1.109375l-3.34375 0zm0 -1.53125l3.359375 0q1.515625 0 2.3125 -0.703125q0.796875 -0.71875 0.796875 -2.0625q0 -1.265625 -0.796875 -2.015625q-0.796875 -0.765625 -2.203125 -0.796875l-3.46875 0l0 5.578125zm12.4140625 7.09375l-1.796875 0l0 -15.0l1.796875 0l0 15.0zm9.416016 0q-0.15625 -0.3125 -0.25 -1.109375q-1.265625 1.3125 -3.015625 1.3125q-1.5625 0 -2.5625 -0.890625q-1.0 -0.890625 -1.0 -2.25q0 -1.640625 1.25 -2.546875q1.265625 -0.921875 3.53125 -0.921875l1.765625 0l0 -0.828125q0 -0.953125 -0.578125 -1.515625q-0.5625 -0.5625 -1.65625 -0.5625q-0.96875 0 -1.625 0.5q-0.65625 0.484375 -0.65625 1.171875l-1.8125 0q0 -0.78125 0.5625 -1.515625q0.5625 -0.75 1.515625 -1.171875q0.96875 -0.4375 2.125 -0.4375q1.828125 0 2.859375 0.921875q1.03125 0.90625 1.078125 2.515625l0 4.859375q0 1.453125 0.359375 2.3125l0 0.15625l-1.890625 0zm-3.0 -1.375q0.859375 0 1.609375 -0.4375q0.765625 -0.4375 1.109375 -1.140625l0 -2.171875l-1.421875 0q-3.3125 0 -3.3125 1.9375q0 0.859375 0.5625 1.34375q0.5625 0.46875 1.453125 0.46875zm9.066406 -9.1875l0.0625 1.328125q1.203125 -1.53125 3.1562538 -1.53125q3.359375 0 3.375 3.78125l0 6.984375l-1.796875 0l0 -7.0q-0.015625 -1.140625 -0.53125 -1.6875q-0.5 -0.546875 -1.59375 -0.546875q-0.8750038 0 -1.5468788 0.46875q-0.65625 0.46875 -1.03125 1.234375l0 7.53125l-1.796875 0l0 -10.5625l1.703125 0z" fill-rule="nonzero"/><path fill="#000000" fill-opacity="0.0" d="m379.4234 153.9023l8.314972 52.34645" fill-rule="evenodd"/><path stroke="#616161" stroke-width="8.0" stroke-linejoin="round" stroke-linecap="butt" d="m379.4234 153.9023l0.78482056 4.9407806" fill-rule="evenodd"/><path fill="#616161" stroke="#616161" stroke-width="8.0" stroke-linecap="butt" d="m367.15796 160.91605l18.745667 33.782288l7.354828 -37.928207z" fill-rule="evenodd"/><path fill="#d9ead3" d="m342.85825 216.35323l0 0c0 -6.831009 5.537628 -12.368622 12.368622 -12.368622l62.75882 0c3.280365 0 6.4263916 1.3031158 8.745941 3.6226807c2.31958 2.3195648 3.6226807 5.465576 3.6226807 8.745941l0 27.987167c0 6.8309937 -5.5375977 12.368622 -12.368622 12.368622l-62.75882 0c-6.8309937 0 -12.368622 -5.537628 -12.368622 -12.368622z" fill-rule="evenodd"/><path stroke="#d9ead3" stroke-width="1.0" stroke-linejoin="round" stroke-linecap="butt" d="m342.85825 216.35323l0 0c0 -6.831009 5.537628 -12.368622 12.368622 -12.368622l62.75882 0c3.280365 0 6.4263916 1.3031158 8.745941 3.6226807c2.31958 2.3195648 3.6226807 5.465576 3.6226807 8.745941l0 27.987167c0 6.8309937 -5.5375977 12.368622 -12.368622 12.368622l-62.75882 0c-6.8309937 0 -12.368622 -5.537628 -12.368622 -12.368622z" fill-rule="evenodd"/><path fill="#000000" d="m384.8856 219.26555l-5.96875 0l0 6.28125l-1.875 0l0 -14.21875l8.796875 0l0 1.546875l-6.921875 0l0 4.859375l5.96875 0l0 1.53125zm4.8828125 6.28125l-1.796875 0l0 -10.5625l1.796875 0l0 10.5625zm-1.953125 -13.375q0 -0.4375 0.265625 -0.734375q0.28125 -0.3125 0.796875 -0.3125q0.53125 0 0.796875 0.3125q0.28125 0.296875 0.28125 0.734375q0 0.4375 -0.28125 0.734375q-0.265625 0.296875 -0.796875 0.296875q-0.515625 0 -0.796875 -0.296875q-0.265625 -0.296875 -0.265625 -0.734375zm7.2910156 0.25l0 2.5625l1.984375 0l0 1.390625l-1.984375 0l0 6.546875q0 0.640625 0.265625 0.96875q0.265625 0.3125 0.90625 0.3125q0.3125 0 0.859375 -0.125l0 1.46875q-0.71875 0.203125 -1.390625 0.203125q-1.203125 0 -1.828125 -0.734375q-0.609375 -0.734375 -0.609375 -2.09375l0 -6.546875l-1.921875 0l0 -1.390625l1.921875 0l0 -2.5625l1.796875 0z" fill-rule="nonzero"/><path fill="#000000" d="m361.83676 238.9843l0.046875 1.171875q1.171875 -1.375 3.140625 -1.375q2.21875 0 3.015625 1.703125q0.53125 -0.765625 1.375 -1.234375q0.84375 -0.46875 2.0 -0.46875q3.46875 0 3.53125 3.6875l0 7.078125l-1.8125 0l0 -6.96875q0 -1.140625 -0.515625 -1.703125q-0.515625 -0.5625 -1.734375 -0.5625q-1.0 0 -1.671875 0.609375q-0.65625 0.59375 -0.765625 1.609375l0 7.015625l-1.8125 0l0 -6.921875q0 -2.3125 -2.265625 -2.3125q-1.78125 0 -2.421875 1.515625l0 7.71875l-1.8125 0l0 -10.5625l1.703125 0zm15.357422 5.1875q0 -1.5625 0.609375 -2.796875q0.609375 -1.25 1.6875 -1.921875q1.09375 -0.671875 2.5 -0.671875q2.15625 0 3.484375 1.5q1.34375 1.484375 1.34375 3.96875l0 0.125q0 1.546875 -0.59375 2.78125q-0.59375 1.21875 -1.703125 1.90625q-1.09375 0.6875 -2.515625 0.6875q-2.140625 0 -3.484375 -1.5q-1.328125 -1.5 -1.328125 -3.953125l0 -0.125zm1.8125 0.203125q0 1.765625 0.8125 2.828125q0.828125 1.0625 2.1875 1.0625q1.375 0 2.1875 -1.078125q0.8125 -1.078125 0.8125 -3.015625q0 -1.75 -0.828125 -2.828125q-0.828125 -1.078125 -2.1875 -1.078125q-1.34375 0 -2.171875 1.0625q-0.8125 1.0625 -0.8125 3.046875zm9.625 -0.203125q0 -2.421875 1.15625 -3.90625q1.15625 -1.484375 3.015625 -1.484375q1.859375 0 2.9375 1.265625l0 -5.5l1.8125 0l0 15.0l-1.65625 0l-0.09375 -1.140625q-1.078125 1.34375 -3.015625 1.34375q-1.828125 0 -3.0 -1.5q-1.15625 -1.515625 -1.15625 -3.9375l0 -0.140625zm1.8125 0.203125q0 1.796875 0.734375 2.8125q0.75 1.015625 2.0625 1.015625q1.71875 0 2.5 -1.53125l0 -4.859375q-0.796875 -1.5 -2.484375 -1.5q-1.328125 0 -2.078125 1.03125q-0.734375 1.03125 -0.734375 3.03125zm14.294922 5.375q-2.140625 0 -3.5 -1.40625q-1.34375 -1.421875 -1.34375 -3.78125l0 -0.34375q0 -1.5625 0.59375 -2.796875q0.609375 -1.234375 1.6875 -1.9375q1.078125 -0.703125 2.34375 -0.703125q2.0625 0 3.203125 1.359375q1.140625 1.359375 1.140625 3.890625l0 0.75l-7.15625 0q0.03125 1.5625 0.90625 2.53125q0.875 0.953125 2.21875 0.953125q0.96875 0 1.625 -0.390625q0.671875 -0.390625 1.171875 -1.03125l1.09375 0.859375q-1.328125 2.046875 -3.984375 2.046875zm-0.21875 -9.484375q-1.09375 0 -1.84375 0.796875q-0.734375 0.796875 -0.90625 2.234375l5.28125 0l0 -0.140625q-0.078125 -1.375 -0.75 -2.125q-0.65625 -0.765625 -1.78125 -0.765625zm8.392578 9.28125l-1.796875 0l0 -15.0l1.796875 0l0 15.0z" fill-rule="nonzero"/><path fill="#000000" fill-opacity="0.0" d="m117.83222 89.36712c3.0435486 -1.5010376 12.8148575 -6.7542267 18.2613 -9.006218c5.446457 -2.2519913 12.014511 -3.7547684 14.417404 -4.505722" fill-rule="evenodd"/><path stroke="#616161" stroke-width="8.0" stroke-linejoin="round" stroke-linecap="butt" d="m117.83223 89.36712c0.19021606 -0.093811035 0.4067154 -0.20228577 0.6468048 -0.32376862" fill-rule="evenodd"/><path fill="#616161" stroke="#616161" stroke-width="8.0" stroke-linecap="butt" d="m123.50974 101.26211l28.540047 -26.040512l-38.601463 1.6029968z" fill-rule="evenodd"/><path fill="#cfe2f3" d="m173.97127 55.701954l0 0c0 -6.8310013 5.537613 -12.368622 12.368622 -12.368622l80.77455 0c3.280365 0 6.4263916 1.3031197 8.745941 3.6226845c2.31958 2.3195686 3.6226807 5.4655724 3.6226807 8.745937l0 27.987171c0 6.8310013 -5.5375977 12.368614 -12.368622 12.368614l-80.77455 0c-6.831009 0 -12.368622 -5.537613 -12.368622 -12.368614z" fill-rule="evenodd"/><path stroke="#cfe2f3" stroke-width="1.0" stroke-linejoin="round" stroke-linecap="butt" d="m173.97127 55.701954l0 0c0 -6.8310013 5.537613 -12.368622 12.368622 -12.368622l80.77455 0c3.280365 0 6.4263916 1.3031197 8.745941 3.6226845c2.31958 2.3195686 3.6226807 5.4655724 3.6226807 8.745937l0 27.987171c0 6.8310013 -5.5375977 12.368614 -12.368622 12.368614l-80.77455 0c-6.831009 0 -12.368622 -5.537613 -12.368622 -12.368614z" fill-rule="evenodd"/><path fill="#000000" d="m207.97229 60.37991q-0.265625 2.265625 -1.671875 3.5q-1.390625 1.2187538 -3.71875 1.2187538q-2.515625 0 -4.046875 -1.8125038q-1.515625 -1.8125 -1.515625 -4.84375l0 -1.359375q0 -1.984375 0.703125 -3.484375q0.71875 -1.5 2.015625 -2.3125q1.296875 -0.8125 3.015625 -0.8125q2.265625 0 3.625 1.265625q1.375 1.265625 1.59375 3.5l-1.890625 0q-0.234375 -1.6875 -1.0625 -2.453125q-0.8125 -0.765625 -2.265625 -0.765625q-1.796875 0 -2.828125 1.328125q-1.015625 1.328125 -1.015625 3.78125l0 1.375q0 2.3125 0.96875 3.6875q0.96875 1.359375 2.703125 1.359375q1.5625 0 2.390625 -0.703125q0.84375 -0.703125 1.109375 -2.46875l1.890625 0zm1.7988281 -0.859375q0 -1.5625 0.609375 -2.796875q0.609375 -1.25 1.6875 -1.921875q1.09375 -0.671875 2.5 -0.671875q2.15625 0 3.484375 1.5q1.34375 1.484375 1.34375 3.96875l0 0.125q0 1.546875 -0.59375 2.78125q-0.59375 1.21875 -1.703125 1.9062538q-1.09375 0.6875 -2.515625 0.6875q-2.140625 0 -3.484375 -1.5000038q-1.328125 -1.5 -1.328125 -3.953125l0 -0.125zm1.8125 0.203125q0 1.765625 0.8125 2.828125q0.828125 1.0625 2.1875 1.0625q1.375 0 2.1875 -1.078125q0.8125 -1.078125 0.8125 -3.015625q0 -1.75 -0.828125 -2.828125q-0.828125 -1.078125 -2.1875 -1.078125q-1.34375 0 -2.171875 1.0625q-0.8125 1.0625 -0.8125 3.046875zm12.03125 5.171879l-1.796875 0l0 -15.000004l1.796875 0l0 15.000004zm4.8535156 0l-1.796875 0l0 -15.000004l1.796875 0l0 15.000004zm7.2753906 0.203125q-2.140625 0 -3.5 -1.4062538q-1.34375 -1.421875 -1.34375 -3.78125l0 -0.34375q0 -1.5625 0.59375 -2.796875q0.609375 -1.234375 1.6875 -1.9375q1.078125 -0.703125 2.34375 -0.703125q2.0625 0 3.203125 1.359375q1.140625 1.359375 1.140625 3.890625l0 0.75l-7.15625 0q0.03125 1.5625 0.90625 2.53125q0.875 0.953125 2.21875 0.953125q0.96875 0 1.625 -0.390625q0.671875 -0.390625 1.171875 -1.03125l1.09375 0.859375q-1.328125 2.0468788 -3.984375 2.0468788zm-0.21875 -9.484379q-1.09375 0 -1.84375 0.796875q-0.734375 0.796875 -0.90625 2.234375l5.28125 0l0 -0.140625q-0.078125 -1.375 -0.75 -2.125q-0.65625 -0.765625 -1.78125 -0.765625zm10.673813 8.0q0.96875 0 1.6875 -0.578125q0.71875 -0.59375 0.796875 -1.46875l1.71875 0q-0.0625 0.90625 -0.640625 1.734375q-0.5625 0.8125038 -1.53125 1.3125038q-0.953125 0.484375 -2.03125 0.484375q-2.15625 0 -3.4375 -1.4375038q-1.2656097 -1.453125 -1.2656097 -3.953125l0 -0.296875q0 -1.546875 0.56248474 -2.75q0.5625 -1.203125 1.625 -1.859375q1.0625 -0.671875 2.5 -0.671875q1.78125 0 2.953125 1.0625q1.1875 1.0625 1.265625 2.765625l-1.71875 0q-0.078125 -1.015625 -0.78125 -1.671875q-0.6875 -0.671875 -1.71875 -0.671875q-1.375 0 -2.140625 1.0q-0.75 0.984375 -0.75 2.859375l0 0.34375q0 1.828125 0.75 2.8125q0.75 0.984375 2.15625 0.984375zm8.671875 -11.84375l0 2.5625l1.9843903 0l0 1.390625l-1.9843903 0l0 6.546875q0 0.640625 0.265625 0.96875q0.265625 0.3125 0.90626526 0.3125q0.3125 0 0.859375 -0.125l0 1.4687538q-0.71875 0.203125 -1.3906403 0.203125q-1.203125 0 -1.828125 -0.734375q-0.609375 -0.7343788 -0.609375 -2.0937538l0 -6.546875l-1.921875 0l0 -1.390625l1.921875 0l0 -2.5625l1.796875 0z" fill-rule="nonzero"/><path fill="#000000" d="m207.86389 83.52054q0 -2.421875 1.15625 -3.90625q1.15625 -1.484375 3.015625 -1.484375q1.859375 0 2.9375 1.265625l0 -5.5l1.8125 0l0 15.0l-1.65625 0l-0.09375 -1.140625q-1.078125 1.34375 -3.015625 1.34375q-1.828125 0 -3.0 -1.5q-1.15625 -1.515625 -1.15625 -3.9375l0 -0.140625zm1.8125 0.203125q0 1.796875 0.734375 2.8125q0.75 1.015625 2.0625 1.015625q1.71875 0 2.5 -1.53125l0 -4.859375q-0.796875 -1.5 -2.484375 -1.5q-1.328125 0 -2.078125 1.03125q-0.734375 1.03125 -0.734375 3.03125zm16.435547 5.171875q-0.15625 -0.3125 -0.25 -1.109375q-1.265625 1.3125 -3.015625 1.3125q-1.5625 0 -2.5625 -0.890625q-1.0 -0.890625 -1.0 -2.25q0 -1.640625 1.25 -2.546875q1.265625 -0.921875 3.53125 -0.921875l1.765625 0l0 -0.828125q0 -0.953125 -0.578125 -1.515625q-0.5625 -0.5625 -1.65625 -0.5625q-0.96875 0 -1.625 0.5q-0.65625 0.484375 -0.65625 1.171875l-1.8125 0q0 -0.78125 0.5625 -1.515625q0.5625 -0.75 1.515625 -1.171875q0.96875 -0.4375 2.125 -0.4375q1.828125 0 2.859375 0.921875q1.03125 0.90625 1.078125 2.515625l0 4.859375q0 1.453125 0.359375 2.3125l0 0.15625l-1.890625 0zm-3.0 -1.375q0.859375 0 1.609375 -0.4375q0.765625 -0.4375 1.109375 -1.140625l0 -2.171875l-1.421875 0q-3.3125 0 -3.3125 1.9375q0 0.859375 0.5625 1.34375q0.5625 0.46875 1.453125 0.46875zm9.800781 -11.75l0 2.5625l1.984375 0l0 1.390625l-1.984375 0l0 6.546875q0 0.640625 0.265625 0.96875q0.265625 0.3125 0.90625 0.3125q0.3125 0 0.859375 -0.125l0 1.46875q-0.71875 0.203125 -1.390625 0.203125q-1.203125 0 -1.828125 -0.734375q-0.609375 -0.734375 -0.609375 -2.09375l0 -6.546875l-1.921875 0l0 -1.390625l1.921875 0l0 -2.5625l1.796875 0zm10.611313 13.125q-0.15625 -0.3125 -0.25 -1.109375q-1.265625 1.3125 -3.0156097 1.3125q-1.5625 0 -2.5625 -0.890625q-1.0 -0.890625 -1.0 -2.25q0 -1.640625 1.25 -2.546875q1.265625 -0.921875 3.53125 -0.921875l1.7656097 0l0 -0.828125q0 -0.953125 -0.578125 -1.515625q-0.5625 -0.5625 -1.6562347 -0.5625q-0.96875 0 -1.625 0.5q-0.65625 0.484375 -0.65625 1.171875l-1.8125 0q0 -0.78125 0.5625 -1.515625q0.5625 -0.75 1.515625 -1.171875q0.96875 -0.4375 2.125 -0.4375q1.8281097 0 2.8593597 0.921875q1.03125 0.90625 1.078125 2.515625l0 4.859375q0 1.453125 0.359375 2.3125l0 0.15625l-1.890625 0zm-2.9999847 -1.375q0.859375 0 1.6093597 -0.4375q0.765625 -0.4375 1.109375 -1.140625l0 -2.171875l-1.421875 0q-3.3124847 0 -3.3124847 1.9375q0 0.859375 0.5625 1.34375q0.5625 0.46875 1.453125 0.46875z" fill-rule="nonzero"/><path fill="#000000" fill-opacity="0.0" d="m67.043304 5.999227l302.26773 0l0 42.01575l-302.26773 0z" fill-rule="evenodd"/><path fill="#000000" d="m101.1731 19.6536l4.34375 10.828125l4.328125 -10.828125l2.265625 0l0 13.265623l-1.75 0l0 -5.171873l0.171875 -5.5625l-4.359375 10.734373l-1.34375 0l-4.34375 -10.718748l0.171875 5.546875l0 5.171873l-1.734375 0l0 -13.265623l2.25 0zm13.319031 8.25q0 -1.453125 0.5625 -2.609375q0.578125 -1.15625 1.59375 -1.78125q1.015625 -0.625 2.3125 -0.625q2.015625 0 3.25 1.390625q1.25 1.390625 1.25 3.703125l0 0.125q0 1.4375 -0.546875 2.578125q-0.546875 1.140625 -1.578125 1.7812481q-1.015625 0.640625 -2.359375 0.640625q-2.0 0 -3.25 -1.3906231q-1.234375 -1.40625 -1.234375 -3.703125l0 -0.109375zm1.6875 0.203125q0 1.640625 0.765625 2.640625q0.765625 0.984375 2.03125 0.984375q1.296875 0 2.046875 -1.0q0.75 -1.015625 0.75 -2.828125q0 -1.625 -0.765625 -2.625q-0.765625 -1.015625 -2.046875 -1.015625q-1.25 0 -2.015625 1.0q-0.765625 0.984375 -0.765625 2.84375zm8.983643 -0.203125q0 -2.265625 1.078125 -3.640625q1.078125 -1.375 2.8125076 -1.375q1.734375 0 2.75 1.171875l0 -5.140625l1.6875 0l0 13.999998l-1.546875 0l-0.09375 -1.0624981q-1.0 1.2499981 -2.8125 1.2499981q-1.7031326 0 -2.7968826 -1.4062481q-1.078125 -1.40625 -1.078125 -3.65625l0 -0.140625zm1.6875 0.203125q0 1.671875 0.6875 2.625q0.7031326 0.9375 1.9218826 0.9375q1.609375 0 2.34375 -1.4375l0 -4.53125q-0.765625 -1.390625 -2.328125 -1.390625q-1.234375 0 -1.9375076 0.953125q-0.6875 0.953125 -0.6875 2.84375zm13.333977 4.999998q-2.0 0 -3.265625 -1.3124981q-1.25 -1.328125 -1.25 -3.53125l0 -0.3125q0 -1.46875 0.5625 -2.609375q0.5625 -1.15625 1.5625 -1.796875q1.015625 -0.65625 2.1875 -0.65625q1.921875 0 2.984375 1.265625q1.0625 1.265625 1.0625 3.625l0 0.6875l-6.671875 0q0.03125 1.46875 0.84375 2.375q0.828125 0.890625 2.078125 0.890625q0.890625 0 1.515625 -0.359375q0.625 -0.375 1.078125 -0.96875l1.03125 0.796875q-1.234375 1.9062481 -3.71875 1.9062481zm-0.203125 -8.843748q-1.015625 0 -1.71875 0.75q-0.6875 0.734375 -0.84375 2.078125l4.9375 0l0 -0.125q-0.078125 -1.28125 -0.703125 -1.984375q-0.609375 -0.71875 -1.671875 -0.71875zm7.8369293 8.656248l-1.6875 0l0 -13.999998l1.6875 0l0 13.999998zm6.199295 -4.953123l-4.4375 0l0 -1.375l4.4375 0l0 1.375zm9.990616 0.140625q0 2.25 -1.046875 3.625q-1.03125 1.3749981 -2.78125 1.3749981q-1.875 0 -2.890625 -1.3281231l-0.078125 1.1406231l-1.546875 0l0 -13.999998l1.671875 0l0 5.234375q1.03125 -1.265625 2.8125 -1.265625q1.796875 0 2.828125 1.359375q1.03125 1.34375 1.03125 3.703125l0 0.15625zm-1.6875 -0.203125q0 -1.71875 -0.671875 -2.65625q-0.65625 -0.9375 -1.90625 -0.9375q-1.671875 0 -2.40625 1.546875l0 4.265625q0.78125 1.546875 2.421875 1.546875q1.21875 0 1.890625 -0.9375q0.671875 -0.9375 0.671875 -2.828125zm9.888687 5.015623q-0.140625 -0.296875 -0.234375 -1.0312481q-1.171875 1.2187481 -2.8125 1.2187481q-1.453125 0 -2.390625 -0.828125q-0.921875 -0.8281231 -0.921875 -2.093748q0 -1.53125 1.15625 -2.375q1.171875 -0.859375 3.296875 -0.859375l1.640625 0l0 -0.78125q0 -0.890625 -0.53125 -1.40625q-0.515625 -0.53125 -1.546875 -0.53125q-0.90625 0 -1.515625 0.46875q-0.609375 0.453125 -0.609375 1.09375l-1.703125 0q0 -0.734375 0.515625 -1.421875q0.53125 -0.6875 1.421875 -1.078125q0.90625 -0.40625 1.984375 -0.40625q1.703125 0 2.671875 0.859375q0.96875 0.84375 1.0 2.328125l0 4.53125q0 1.359375 0.34375 2.171873l0 0.140625l-1.765625 0zm-2.796875 -1.2812481q0.796875 0 1.5 -0.40625q0.71875 -0.421875 1.03125 -1.078125l0 -2.015625l-1.3125 0q-3.109375 0 -3.109375 1.8125q0 0.796875 0.53125 1.25q0.53125 0.4375 1.359375 0.4375zm12.601105 -1.328125q0 -0.6875 -0.515625 -1.0625q-0.515625 -0.375 -1.796875 -0.640625q-1.28125 -0.28125 -2.03125 -0.65625q-0.75 -0.390625 -1.109375 -0.921875q-0.359375 -0.53125 -0.359375 -1.265625q0 -1.203125 1.015625 -2.03125q1.03125 -0.84375 2.625 -0.84375q1.671875 0 2.71875 0.859375q1.046875 0.859375 1.046875 2.21875l-1.6875 0q0 -0.703125 -0.59375 -1.203125q-0.59375 -0.5 -1.484375 -0.5q-0.921875 0 -1.4375 0.40625q-0.515625 0.390625 -0.515625 1.046875q0 0.609375 0.484375 0.921875q0.484375 0.3125 1.734375 0.59375q1.265625 0.28125 2.046875 0.671875q0.78125 0.390625 1.15625 0.9375q0.390625 0.546875 0.390625 1.34375q0 1.328125 -1.0625 2.124998q-1.046875 0.796875 -2.734375 0.796875q-1.1875 0 -2.109375 -0.421875q-0.90625 -0.421875 -1.421875 -1.1718731q-0.515625 -0.75 -0.515625 -1.625l1.6875 0q0.046875 0.84375 0.671875 1.34375q0.640625 0.5 1.6875 0.5q0.953125 0 1.53125 -0.390625q0.578125 -0.390625 0.578125 -1.03125zm7.963379 2.796873q-2.0 0 -3.265625 -1.3124981q-1.25 -1.328125 -1.25 -3.53125l0 -0.3125q0 -1.46875 0.5625 -2.609375q0.5625 -1.15625 1.5625 -1.796875q1.015625 -0.65625 2.1875 -0.65625q1.921875 0 2.984375 1.265625q1.0625 1.265625 1.0625 3.625l0 0.6875l-6.671875 0q0.03125 1.46875 0.84375 2.375q0.828125 0.890625 2.078125 0.890625q0.890625 0 1.515625 -0.359375q0.625 -0.375 1.078125 -0.96875l1.03125 0.796875q-1.234375 1.9062481 -3.71875 1.9062481zm-0.203125 -8.843748q-1.015625 0 -1.71875 0.75q-0.6875 0.734375 -0.84375 2.078125l4.9375 0l0 -0.125q-0.078125 -1.28125 -0.703125 -1.984375q-0.609375 -0.71875 -1.671875 -0.71875zm5.586914 3.640625q0 -2.265625 1.078125 -3.640625q1.078125 -1.375 2.8125 -1.375q1.734375 0 2.75 1.171875l0 -5.140625l1.6875 0l0 13.999998l-1.546875 0l-0.09375 -1.0624981q-1.0 1.2499981 -2.8125 1.2499981q-1.703125 0 -2.796875 -1.4062481q-1.078125 -1.40625 -1.078125 -3.65625l0 -0.140625zm1.6875 0.203125q0 1.671875 0.6875 2.625q0.703125 0.9375 1.921875 0.9375q1.609375 0 2.34375 -1.4375l0 -4.53125q-0.765625 -1.390625 -2.328125 -1.390625q-1.234375 0 -1.9375 0.953125q-0.6875 0.953125 -0.6875 2.84375zm18.99936 -0.546875l-3.125 0l0 5.359373l-1.75 0l0 -13.265623l4.390625 0q2.234375 0 3.4375 1.03125q1.21875 1.015625 1.21875 2.953125q0 1.25 -0.671875 2.171875q-0.671875 0.921875 -1.859375 1.375l3.109375 5.624998l0 0.109375l-1.875 0l-2.875 -5.359373zm-3.125 -1.4375l2.6875 0q1.3125 0 2.078125 -0.671875q0.765625 -0.671875 0.765625 -1.8125q0 -1.21875 -0.734375 -1.875q-0.734375 -0.65625 -2.109375 -0.671875l-2.6875 0l0 5.03125zm11.502716 5.359375l6.28125 0l0 1.4374981l-8.03125 0l0 -13.265623l1.75 0l0 11.828125zm14.922791 -10.8125l0 2.390625l1.84375 0l0 1.3125l-1.84375 0l0 6.109375q0 0.59375 0.234375 0.890625q0.25 0.296875 0.84375 0.296875q0.296875 0 0.8125 -0.109375l0 1.3593731q-0.671875 0.1875 -1.296875 0.1875q-1.125 0 -1.703125 -0.6875q-0.578125 -0.6874981 -0.578125 -1.9374981l0 -6.109375l-1.796875 0l0 -1.3125l1.796875 0l0 -2.390625l1.6875 0zm8.578644 3.90625q-0.390625 -0.0625 -0.84375 -0.0625q-1.65625 0 -2.25 1.40625l0 6.999998l-1.671875 0l0 -9.859373l1.640625 0l0.015625 1.140625q0.828125 -1.3125 2.359375 -1.3125q0.484375 0 0.75 0.125l0 1.5625zm7.260803 8.343748q-0.140625 -0.296875 -0.234375 -1.0312481q-1.171875 1.2187481 -2.8125 1.2187481q-1.453125 0 -2.390625 -0.828125q-0.921875 -0.8281231 -0.921875 -2.093748q0 -1.53125 1.15625 -2.375q1.171875 -0.859375 3.296875 -0.859375l1.640625 0l0 -0.78125q0 -0.890625 -0.53125 -1.40625q-0.515625 -0.53125 -1.546875 -0.53125q-0.90625 0 -1.515625 0.46875q-0.609375 0.453125 -0.609375 1.09375l-1.703125 0q0 -0.734375 0.515625 -1.421875q0.53125 -0.6875 1.421875 -1.078125q0.90625 -0.40625 1.984375 -0.40625q1.703125 0 2.671875 0.859375q0.96875 0.84375 1.0 2.328125l0 4.53125q0 1.359375 0.34375 2.171873l0 0.140625l-1.765625 0zm-2.796875 -1.2812481q0.796875 0 1.5 -0.40625q0.71875 -0.421875 1.03125 -1.078125l0 -2.015625l-1.3125 0q-3.109375 0 -3.109375 1.8125q0 0.796875 0.53125 1.25q0.53125 0.4375 1.359375 0.4375zm8.694855 1.2812481l-1.6875 0l0 -9.859373l1.6875 0l0 9.859373zm-1.828125 -12.468748q0 -0.40625 0.25 -0.6875q0.25 -0.296875 0.734375 -0.296875q0.5 0 0.75 0.296875q0.265625 0.28125 0.265625 0.6875q0 0.40625 -0.265625 0.6875q-0.25 0.265625 -0.75 0.265625q-0.484375 0 -0.734375 -0.265625q-0.25 -0.28125 -0.25 -0.6875zm6.121155 2.609375l0.046875 1.234375q1.125 -1.40625 2.953125 -1.40625q3.125 0 3.15625 3.515625l0 6.515623l-1.6875 0l0 -6.515623q-0.015625 -1.078125 -0.5 -1.578125q-0.46875 -0.515625 -1.484375 -0.515625q-0.8125 0 -1.4375 0.4375q-0.609375 0.4375 -0.96875 1.15625l0 7.015623l-1.671875 0l0 -9.859373l1.59375 0zm10.528107 9.859373l-1.6875 0l0 -9.859373l1.6875 0l0 9.859373zm-1.828125 -12.468748q0 -0.40625 0.25 -0.6875q0.25 -0.296875 0.734375 -0.296875q0.5 0 0.75 0.296875q0.265625 0.28125 0.265625 0.6875q0 0.40625 -0.265625 0.6875q-0.25 0.265625 -0.75 0.265625q-0.484375 0 -0.734375 -0.265625q-0.25 -0.28125 -0.25 -0.6875zm6.1211853 2.609375l0.046875 1.234375q1.125 -1.40625 2.953125 -1.40625q3.125 0 3.15625 3.515625l0 6.515623l-1.6875 0l0 -6.515623q-0.015625 -1.078125 -0.5 -1.578125q-0.46875 -0.515625 -1.484375 -0.515625q-0.8125 0 -1.4375 0.4375q-0.609375 0.4375 -0.96875 1.15625l0 7.015623l-1.671875 0l0 -9.859373l1.59375 0zm8.293732 4.84375q0 -2.296875 1.0625 -3.65625q1.0625 -1.359375 2.828125 -1.359375q1.796875 0 2.8125 1.265625l0.078125 -1.09375l1.546875 0l0 9.624998q0 1.90625 -1.140625 3.0q-1.125 1.109375 -3.046875 1.109375q-1.0625 0 -2.09375 -0.453125q-1.015625 -0.453125 -1.546875 -1.25l0.875 -1.0q1.078125 1.328125 2.65625 1.328125q1.21875 0 1.90625 -0.6875q0.6875 -0.6875 0.6875 -1.953125l0 -0.8437481q-1.0 1.1718731 -2.75 1.1718731q-1.734375 0 -2.8125 -1.3906231q-1.0625 -1.40625 -1.0625 -3.8125zm1.6875 0.203125q0 1.65625 0.6875 2.609375q0.6875 0.953125 1.921875 0.953125q1.59375 0 2.328125 -1.453125l0 -4.5q-0.765625 -1.40625 -2.3125 -1.40625q-1.234375 0 -1.9375 0.953125q-0.6875 0.953125 -0.6875 2.84375zm15.632202 4.812498l-1.6875 0l0 -13.999998l1.6875 0l0 13.999998zm2.2461548 -5.015623q0 -1.453125 0.5625 -2.609375q0.578125 -1.15625 1.59375 -1.78125q1.015625 -0.625 2.3125 -0.625q2.015625 0 3.25 1.390625q1.25 1.390625 1.25 3.703125l0 0.125q0 1.4375 -0.546875 2.578125q-0.546875 1.140625 -1.578125 1.7812481q-1.015625 0.640625 -2.359375 0.640625q-2.0 0 -3.25 -1.3906231q-1.234375 -1.40625 -1.234375 -3.703125l0 -0.109375zm1.6875 0.203125q0 1.640625 0.765625 2.640625q0.765625 0.984375 2.03125 0.984375q1.296875 0 2.046875 -1.0q0.75 -1.015625 0.75 -2.828125q0 -1.625 -0.765625 -2.625q-0.765625 -1.015625 -2.046875 -1.015625q-1.25 0 -2.015625 1.0q-0.765625 0.984375 -0.765625 2.84375zm8.952393 -0.203125q0 -1.453125 0.5625 -2.609375q0.578125 -1.15625 1.59375 -1.78125q1.015625 -0.625 2.3125 -0.625q2.015625 0 3.25 1.390625q1.25 1.390625 1.25 3.703125l0 0.125q0 1.4375 -0.546875 2.578125q-0.546875 1.140625 -1.578125 1.7812481q-1.015625 0.640625 -2.359375 0.640625q-2.0 0 -3.25 -1.3906231q-1.234375 -1.40625 -1.234375 -3.703125l0 -0.109375zm1.6875 0.203125q0 1.640625 0.765625 2.640625q0.765625 0.984375 2.03125 0.984375q1.296875 0 2.046875 -1.0q0.75 -1.015625 0.75 -2.828125q0 -1.625 -0.765625 -2.625q-0.765625 -1.015625 -2.046875 -1.015625q-1.25 0 -2.015625 1.0q-0.765625 0.984375 -0.765625 2.84375zm17.718018 0q0 2.25 -1.03125 3.625q-1.015625 1.3749981 -2.78125 1.3749981q-1.796875 0 -2.828125 -1.1406231l0 4.749998l-1.671875 0l0 -13.656248l1.53125 0l0.078125 1.09375q1.03125 -1.265625 2.859375 -1.265625q1.78125 0 2.8125 1.34375q1.03125 1.328125 1.03125 3.71875l0 0.15625zm-1.671875 -0.203125q0 -1.65625 -0.71875 -2.625q-0.703125 -0.96875 -1.953125 -0.96875q-1.53125 0 -2.296875 1.359375l0 4.703125q0.765625 1.359375 2.328125 1.359375q1.203125 0 1.921875 -0.953125q0.71875 -0.96875 0.71875 -2.875z" fill-rule="nonzero"/></g></svg>