<?xml version="1.0" encoding="UTF-8" standalone="no"?>
<svg
   version="1.1"
   width="444.911pt"
   height="230.365pt"
   viewBox="0 0 444.911 230.365"
   id="svg273"
   sodipodi:docname="sinusoid-train-w.svg"
   inkscape:version="1.1.2 (0a00cf5339, 2022-02-04)"
   xmlns:inkscape="http://www.inkscape.org/namespaces/inkscape"
   xmlns:sodipodi="http://sodipodi.sourceforge.net/DTD/sodipodi-0.dtd"
   xmlns="http://www.w3.org/2000/svg"
   xmlns:svg="http://www.w3.org/2000/svg">
  <sodipodi:namedview
     id="namedview275"
     pagecolor="#ffffff"
     bordercolor="#111111"
     borderopacity="1"
     inkscape:pageshadow="0"
     inkscape:pageopacity="0"
     inkscape:pagecheckerboard="1"
     inkscape:document-units="pt"
     showgrid="false"
     inkscape:zoom="2.7527977"
     inkscape:cx="296.60734"
     inkscape:cy="153.48022"
     inkscape:window-width="1846"
     inkscape:window-height="1136"
     inkscape:window-x="0"
     inkscape:window-y="0"
     inkscape:window-maximized="1"
     inkscape:current-layer="g271" />
  <defs
     id="defs203">
    <clipPath
       id="clip_0">
      <path
         transform="matrix(1,0,0,-1,-125.564,512.2)"
         d="M0 0H612V792H0Z"
         id="path200" />
    </clipPath>
  </defs>
  <g
     clip-path="url(#clip_0)"
     id="g271">
    <path
       transform="matrix(1,0,0,-1,12.456993,56.64502)"
       stroke-width="2.49069"
       stroke-linecap="butt"
       stroke-miterlimit="10"
       stroke-linejoin="miter"
       fill="none"
       stroke="#94a3b8"
       stroke-opacity=".12"
       d="M0 0C0 0 3.10275 3.72336 4.29443 5.13919 5.48611 6.55502 7.3972 8.81953 8.58888 10.2044 9.78056 11.58928 11.69167 13.78714 12.88335 15.12042 14.07503 16.45372 15.9861 18.55191 17.17778 19.8139 18.36948 21.07588 20.28056 23.04364 21.47224 24.21606 22.66393 25.38847 24.57503 27.1982 25.76671 28.26395 26.95839 29.32968 28.86946 30.95406 30.06114 31.89728 31.25282 32.8405 33.16391 34.25531 34.35559 35.06215 35.54729 35.86899 37.45837 37.05379 38.65007 37.71254 39.84175 38.37129 41.75284 39.30907 42.94452 39.81012 44.1362 40.31117 46.04727 40.98802 47.23895 41.3238 48.43063 41.65958 50.34174 42.06445 51.53342 42.23018 52.7251 42.39587 54.63618 42.525 55.82788 42.51823 57.01956 42.51149 58.93063 42.36066 60.12231 42.18152 61.314 42.00238 63.2251 41.57602 64.41678 41.22711 65.60846 40.8782 67.51955 40.18037 68.71123 39.66673 69.90291 39.15309 71.81401 38.19576 73.0057 37.52502 74.19739 36.8543 76.10846 35.65057 77.30014 34.83249 78.49182 34.01437 80.40291 32.58197 81.59459 31.62866 82.78627 30.67537 84.69737 29.03625 85.88905 27.9616 87.08073 26.88695 88.9918 25.06355 90.18349 23.8832 91.37518 22.70285 93.28627 20.72284 94.47795 19.45445 95.66963 18.18607 97.58073 16.07947 98.77242 14.74152 99.9641 13.40355 101.87518 11.19926 103.06686 9.81125 104.25854 8.42323 106.16962 6.15501 107.3613 4.73755 108.553 3.3201 110.4641 1.02142 111.65578-.40483 112.84746-1.83112 114.75854-4.12798 115.95023-5.54208 117.1419-6.95622 119.05298-9.2155 120.24466-10.59694 121.43634-11.9784 123.34744-14.17026 124.53912-15.49869 125.73082-16.82712 127.64189-18.9157 128.83359-20.17137 130.02527-21.42708 131.93634-23.3842 133.12802-24.54889 134.3197-25.71358 136.2308-27.5091 137.42249-28.56564 138.61417-29.62221 140.52526-31.2309 141.71694-32.16394 142.90862-33.097 144.81972-34.49477 146.01142-35.29054 147.2031-36.08633 149.11417-37.25261 150.30585-37.89938 151.49753-38.54617 153.40862-39.46414 154.6003-39.95222 155.79198-40.44029 157.70308-41.09488 158.89476-41.41722 160.08644-41.73956 161.99752-42.12338 163.18921-42.2756 164.38089-42.4278 166.29198-42.53477 167.48366-42.51434 168.67534-42.49391 170.58644-42.32104 171.77812-42.12831 172.9698-41.93558 174.88089-41.4874 176.07257-41.12524 177.26425-40.76312 179.17533-40.04451 180.367-39.51817 181.5587-38.99184 183.4698-38.01437 184.66149-37.3317 185.85317-36.64899 187.76425-35.42677 188.95594-34.59761 190.14762-33.76845 192.05869-32.31891 193.25037-31.35553 194.44205-30.39215 196.35315-28.73756 197.54483-27.65408 198.73653-26.5706 200.64762-24.73419 201.8393-23.54648 203.03098-22.35876 204.94208-20.3683 206.13376-19.0937 207.32544-17.8191 209.23651-15.70267 210.42819-14.36003 211.61988-13.01738 213.53096-10.80775 214.72264-9.41676 215.91434-8.02579 217.82543-5.75354 219.01712-4.33466 220.2088-2.91576 222.11988-.61638 223.31156 .8097 224.50324 2.2358 226.41432 4.53119 227.606 5.9437 228.79769 7.3562 230.70879 9.61218 231.90047 10.99013 233.09215 12.36806 235.00324 14.55159 236.19493 15.87498 237.38661 17.19836 239.29769 19.27892 240.48937 20.52823 241.68105 21.77753 243.59215 23.72238 244.78383 24.87912 245.97551 26.03587 247.8866 27.81802 249.07828 28.8654 250.26996 29.9128 252.18103 31.50548 253.37273 32.428 254.5644 33.35052 256.47554 34.73015 257.66719 35.51439 258.85887 36.29863 260.76997 37.44595 261.96165 38.0804 263.15333 38.71484 265.0644 39.61177 266.25608 40.08717 267.44776 40.56256 269.35887 41.19745 270.55055 41.50674 271.74223 41.81604 273.65333 42.17784 274.845 42.31647 276.03669 42.45508 277.94779 42.53986 279.13948 42.50592 280.33116 42.472 282.24223 42.27802 283.4339 42.07188 284.62559 41.86574 286.53669 41.39545 287.72837 41.02016 288.92005 40.64487 290.83116 39.90575 292.02284 39.36699 293.2145 38.82822 295.12559 37.83154 296.31727 37.13704 297.50895 36.44252 299.42005 35.20168 300.61174 34.36143 301.80339 33.5212 303.7145 32.05446 304.90617 31.08107 306.09788 30.10768 308.00895 28.43813 309.20066 27.3459 310.39234 26.2537 312.30339 24.40439 313.49507 23.20909 314.68675 22.01381 316.59785 20.01173 317.78956 18.73103 318.98124 17.45033 320.8923 15.32578 322.08399 13.97853 323.27568 12.63129 325.18675 10.41504 326.37843 9.02098 327.5701 7.62692 329.48124 5.35126 330.6729 3.9311 331.8646 2.51097 333.77568 .21107 334.96736-1.21454 336.15904-2.64018 338.07014-4.93347 339.2618-6.34401 340.4535-7.75452 342.36457-10.00627 343.55628-11.38069 344.74794-12.75513 346.65904-14.93175 347.8507-16.25 349.0424-17.56827 350.9535-19.63919 352.14518-20.88182 353.33686-22.12448 355.24794-24.0574 356.4396-25.20613 357.6313-26.35489 359.54237-28.12317 360.73405-29.16127 361.92576-30.19937 363.83686-31.77592 365.02854-32.68819 366.2202-33.60043 368.1313-34.96338 369.32298-35.73627 370.51466-36.50919 372.42576-37.63644 373.61744-38.25882 374.8091-38.88121 376.7202-39.75943 377.91188-40.22212 379.10359-40.68481 381.01466-41.29771 382.20634-41.5937 383.39805-41.88968 385.3091-42.23029 386.5008-42.35541 387.69248-42.48053 389.60356-42.54323 390.79524-42.49553 391.9869-42.44783 393.898-42.23128 395.0897-42.01154 396.28138-41.79181 398.19245-41.30023 399.38414-40.9118 400.5758-40.52338 402.4869-39.76337 403.6786-39.21193 404.8703-38.66048 406.78138-37.64369 407.97306-36.93721 409.16474-36.23073 411.07585-34.97124 412.26753-34.12009 413.4592-33.26895 415.37028-31.78603 416.56199-30.80275 417.75367-29.81944 419.66474-28.13431 420.8564-27.03319 422.0481-25.93204 425.15089-22.86653 425.15089-22.86653"
       id="path205" />
    <path
       transform="matrix(1,0,0,-1,12.456993,56.64502)"
       stroke-width="2.49069"
       stroke-linecap="butt"
       stroke-miterlimit="10"
       stroke-linejoin="miter"
       fill="none"
       stroke="#94a3b8"
       stroke-opacity=".12"
       d="M0 35.7778C0 35.7778 3.10275 37.67259 4.29443 38.29256 5.48611 38.91252 7.3972 39.78593 8.58888 40.24614 9.78056 40.70631 11.69167 41.31573 12.88335 41.60927 14.07503 41.90282 15.9861 42.2393 17.17778 42.3619 18.36948 42.48448 20.28056 42.54305 21.47224 42.49292 22.66393 42.44281 24.57503 42.22275 25.76671 42.0005 26.95839 41.77827 28.86946 41.28209 30.06114 40.89105 31.25282 40.5 33.16391 39.73596 34.35559 39.18207 35.54729 38.62819 37.45837 37.60756 38.65007 36.89894 39.84175 36.1903 41.75284 34.92795 42.94452 34.07466 44.1362 33.22137 46.04727 31.73424 47.23895 30.74889 48.43063 29.76352 50.34174 28.07547 51.53342 26.97282 52.7251 25.87016 54.63618 24.0055 55.82788 22.80165 57.01956 21.59782 58.93063 19.58388 60.12231 18.29634 61.314 17.00879 63.2251 14.87424 64.41678 13.52176 65.60846 12.1693 67.51955 9.94606 68.71123 8.54866 69.90291 7.15128 71.81401 4.872 73.0057 3.45032 74.19739 2.02866 76.10846-.27272 77.30014-1.6979 78.49182-3.1231 80.40291-5.41362 81.59459-6.82155 82.78627-8.22946 84.69737-10.47522 85.88905-11.84523 87.08073-13.21527 88.9918-15.3837 90.18349-16.69574 91.37518-18.00777 93.28627-20.0669 94.47795-21.3016 95.66963-22.53632 97.58073-24.45573 98.77242-25.59477 99.9641-26.7338 101.87518-28.48419 103.06686-29.51097 104.25854-30.53773 106.16962-32.09532 107.3613-32.99507 108.553-33.89479 110.4641-35.23648 111.65578-35.9958 112.84746-36.75511 114.75854-37.86012 115.95023-38.46774 117.1419-39.07538 119.05298-39.92822 120.24466-40.37524 121.43634-40.82228 123.34744-41.40968 124.53912-41.68971 125.73082-41.96977 127.64189-42.28467 128.83359-42.39368 130.02527-42.50267 131.93634-42.53912 133.12802-42.47542 134.3197-42.4117 136.2308-42.1699 137.42249-41.93433 138.61417-41.69875 140.52526-41.18149 141.71694-40.7775 142.90862-40.37349 144.81972-39.58888 146.01142-39.02248 147.2031-38.45607 149.11417-37.41565 150.30585-36.6952 151.49753-35.97478 153.40862-34.69408 154.6003-33.83006 155.79198-32.96606 157.70308-31.46284 158.89476-30.46796 160.08644-29.47305 161.99752-27.77068 163.18921-26.65945 164.38089-25.54825 166.29198-23.6704 167.48366-22.45909 168.67534-21.24777 170.58644-19.22244 171.77812-17.92911 172.9698-16.6358 174.88089-14.49426 176.07257-13.13766 177.26425-11.78107 179.17533-9.55167 180.367-8.1516 181.5587-6.75151 183.4698-4.46956 184.66149-3.04678 185.85317-1.62402 187.76425 .67801 188.95594 2.10277 190.14762 3.52753 192.05869 5.81609 193.25037 7.22185 194.44205 8.6276 196.35315 10.86848 197.54483 12.23453 198.73653 13.6006 200.64762 15.76094 201.8393 17.06747 203.03098 18.37402 204.94208 20.42363 206.13376 21.65132 207.32544 22.879 209.23651 24.78528 210.42819 25.91592 211.61988 27.04655 213.53096 28.78291 214.72264 29.80032 215.91434 30.81772 217.82543 32.35951 219.01712 33.24873 220.2088 34.13797 222.11988 35.46146 223.31156 36.20924 224.50324 36.95705 226.41432 38.043 227.606 38.63838 228.79769 39.23378 230.70879 40.0662 231.90047 40.50044 233.09215 40.93471 235.00324 41.5014 236.19493 41.76823 237.38661 42.03505 239.29769 42.32811 240.48937 42.42351 241.68105 42.51892 243.59215 42.5332 244.78383 42.45598 245.97551 42.37872 247.8866 42.11575 249.07828 41.86685 250.26996 41.61797 252.18103 41.079 253.37273 40.66202 254.5644 40.24504 256.47554 39.44048 257.66719 38.86156 258.85887 38.28264 260.76997 37.22183 261.96165 36.48953 263.15333 35.7572 265.0644 34.45842 266.25608 33.58351 267.44776 32.70862 269.35887 31.18849 270.55055 30.18378 271.74223 29.17905 273.65333 27.46185 274.845 26.34218 276.03669 25.2225 277.94779 23.33235 279.13948 22.11392 280.33116 20.8955 282.24223 18.85983 283.4339 17.56058 284.62559 16.2613 286.53669 14.11052 287.72837 12.74968 288.92005 11.38884 290.83116 9.15498 292.02284 7.75256 293.2145 6.35013 295.12559 4.0654 296.31727 2.6419 297.50895 1.21844 299.42005-1.08313 300.61174-2.50697 301.80339-3.93082 303.7145-6.21672 304.90617-7.62021 306.09788-9.02371 308.00895-11.26035 309.20066-12.62253 310.39234-13.9847 312.30339-16.13698 313.49507-17.43797 314.68675-18.73894 316.59785-20.77834 317.78956-21.99908 318.98124-23.21985 320.8923-25.1139 322.08399-26.23645 323.27568-27.359 325.18675-29.08167 326.37843-30.08969 327.5701-31.09772 329.48124-32.62344 330.6729-33.50177 331.8646-34.38008 333.77568-35.68419 334.96736-36.42012 336.15904-37.15604 338.07014-38.22282 339.2618-38.80579 340.4535-39.38875 342.36457-40.20041 343.55628-40.6218 344.74794-41.04317 346.65904-41.58946 347.8507-41.84285 349.0424-42.09624 350.9535-42.36653 352.14518-42.44817 353.33686-42.5298 355.24794-42.5222 356.4396-42.4313 357.6313-42.34038 359.54237-42.05519 360.73405-41.79288 361.92576-41.53058 363.83686-40.97069 365.02854-40.54068 366.2202-40.11066 368.1313-39.28476 369.32298-38.69353 370.51466-38.1023 372.42576-37.02316 373.61744-36.27933 374.8091-35.53549 376.7202-34.21805 377.91188-33.33243 379.10359-32.44681 381.01466-30.9106 382.20634-29.89635 383.39805-28.8821 385.3091-27.15027 386.5008-26.02232 387.69248-24.89438 389.60356-22.99217 390.79524-21.76682 391.9869-20.54146 393.898-18.4955 395.0897-17.19075 396.28138-15.88602 398.19245-13.72787 399.38414-12.363 400.5758-10.99814 402.4869-8.75858 403.6786-7.35356 404.8703-5.94853 406.78138-3.6607 407.97306-2.23642 409.16474-.81212 411.07585 1.48895 412.26753 2.9118 413.4592 4.33467 415.37028 6.61769 416.56199 8.01859 417.75367 9.4195 419.66474 11.65044 420.8564 13.00856 422.0481 14.36668 425.15089 17.80711 425.15089 17.80711"
       id="path207" />
    <path
       transform="matrix(1,0,0,-1,12.456993,56.64502)"
       stroke-width="2.49069"
       stroke-linecap="butt"
       stroke-miterlimit="10"
       stroke-linejoin="miter"
       fill="none"
       stroke="#94a3b8"
       stroke-opacity=".12"
       d="M0 38.6611C0 38.6611 3.10275 36.98454 4.29443 36.23843 5.48611 35.49236 7.3972 34.1713 8.58888 33.28377 9.78056 32.39626 11.69167 30.8578 12.88335 29.84184 14.07503 28.82588 15.9861 27.09102 17.17778 25.96135 18.36948 24.8317 20.28056 22.92668 21.47224 21.69998 22.66393 20.47327 24.57503 18.4258 25.76671 17.12006 26.95839 15.8143 28.86946 13.65472 30.06114 12.28903 31.25282 10.92334 33.16391 8.68246 34.35559 7.27698 35.54729 5.87149 37.45837 3.58359 38.65007 2.15921 39.84175 .73482 41.75284-1.56625 42.94452-2.98901 44.1362-4.41179 46.04727-6.69469 47.23895-8.09514 48.43063-9.49557 50.34174-11.7252 51.53342-13.08252 52.7251-14.43985 54.63618-16.58374 55.82788-17.87785 57.01956-19.17197 58.93063-21.19765 60.12231-22.40976 61.314-23.62187 63.2251-25.50157 64.41678-26.61403 65.60846-27.7265 67.51955-29.43138 68.71123-30.42772 69.90291-31.42404 71.81401-32.92941 73.0057-33.79504 74.19739-34.66066 76.10846-35.94453 77.30014-36.66666 78.49182-37.3888 80.40291-38.43166 81.59459-38.99977 82.78627-39.56789 84.69737-40.35547 85.88905-40.76128 87.08073-41.16707 88.9918-41.68712 90.18349-41.92459 91.37518-42.16206 93.28627-42.40721 94.47795-42.47281 95.66963-42.53842 97.58073-42.5046 98.77242-42.39757 99.9641-42.29056 101.87518-41.97954 103.06686-41.70139 104.25854-41.42323 106.16962-40.83807 107.3613-40.39276 108.553-39.94743 110.4641-39.09756 111.65578-38.49173 112.84746-37.88591 114.75854-36.7838 115.95023-36.02628 117.1419-35.26877 119.05298-33.93027 120.24466-33.03206 121.43634-32.13385 123.34744-30.57819 124.53912-29.5525 125.73082-28.52682 127.64189-26.77756 128.83359-25.63953 130.02527-24.50151 131.93634-22.58391 133.12802-21.35028 134.3197-20.11664 136.2308-18.05945 137.42249-16.74829 138.61417-15.43715 140.52526-13.26997 141.71694-11.9004 142.90862-10.53082 144.81972-8.28508 146.01142-6.87733 147.2031-5.4696 149.11417-3.17947 150.30585-1.75436 151.49753-.32924 153.40862 1.97221 154.6003 3.39389 155.79198 4.81557 157.70308 7.09456 158.89476 8.4922 160.08644 9.88983 161.99752 12.11418 163.18921 13.46725 164.38089 14.82034 166.29198 16.95589 167.48366 18.24443 168.67534 19.53299 170.58644 21.5494 171.77812 22.7543 172.9698 23.95921 174.88089 25.8249 176.07257 26.92871 177.26425 28.03255 179.17533 29.72325 180.367 30.70995 181.5587 31.69667 183.4698 33.18547 184.66149 34.04028 185.85317 34.8951 187.76425 36.16058 188.95594 36.87102 190.14762 37.58144 192.05869 38.60507 193.25037 39.16068 194.44205 39.71626 196.35315 40.48271 197.54483 40.87547 198.73653 41.26822 200.64762 41.76736 201.8393 41.99142 203.03098 42.21548 204.94208 42.43834 206.13376 42.49036 207.32544 42.54236 209.23651 42.48705 210.42819 42.36641 211.61988 42.24579 213.53096 41.9125 214.72264 41.62094 215.91434 41.32938 217.82543 40.72331 219.01712 40.26494 220.2088 39.80658 222.11988 38.93558 223.31156 38.31723 224.50324 37.69888 226.41432 36.5775 227.606 35.80829 228.79769 35.03908 230.70879 33.68181 231.90047 32.77316 233.09215 31.86452 235.00324 30.2941 236.19493 29.25923 237.38661 28.22437 239.29769 26.4606 240.48937 25.31448 241.68105 24.16835 243.59215 22.23901 244.78383 20.99863 245.97551 19.75822 247.8866 17.69113 249.07828 16.37457 250.26996 15.05803 252.18103 12.88298 253.37273 11.50981 254.5644 10.13664 256.47554 7.8874 257.66719 6.47768 258.85887 5.06795 260.76997 2.77513 261.96165 1.34949 263.15333-.07613 265.0644-2.37674 266.25608-3.79742 267.44776-5.21814 269.35887-7.49498 270.55055-8.88992 271.74223-10.28488 273.65333-12.50276 274.845-13.85135 276.03669-15.19995 277.94779-17.32712 279.13948-18.60973 280.33116-19.89232 282.24223-21.89786 283.4339-23.09557 284.62559-24.29327 286.53669-26.1468 287.72837-27.24208 288.92005-28.33734 290.83116-30.01286 292.02284-30.9896 293.2145-31.96631 295.12559-33.43799 296.31727-34.28166 297.50895-35.12532 299.42005-36.37175 300.61174-37.0702 301.80339-37.76866 303.7145-38.77266 304.90617-39.31573 306.09788-39.85881 308.00895-40.60487 309.20066-40.98447 310.39234-41.36407 312.30339-41.84113 313.49507-42.05177 314.68675-42.26239 316.59785-42.46416 317.78956-42.50267 318.98124-42.54118 320.8923-42.46365 322.08399-42.32944 323.27568-42.1952 325.18675-41.8402 326.37843-41.5353 327.5701-41.23041 329.48124-40.603 330.6729-40.13194 331.8646-39.66087 333.77568-38.77042 334.96736-38.1401 336.15904-37.50978 338.07014-36.36955 339.2618-35.58899 340.4535-34.80843 342.36457-33.43347 343.55628-32.51428 344.74794-31.5951 346.65904-30.00826 347.8507-28.96402 349.0424-27.91978 350.9535-26.14218 352.14518-24.98813 353.33686-23.83406 355.24794-21.89337 356.4396-20.64632 357.6313-19.39926 359.54237-17.32199 360.73405-16.00021 361.92576-14.67845 363.83686-12.49675 365.02854-11.11987 366.2202-9.74301 368.1313-7.48848 369.32298-6.0767 370.51466-4.66493 372.42576-2.37056 373.61744-.94464 374.8091 .48125 376.7202 2.781 377.91188 4.20036 379.10359 5.6197 381.01466 7.89288 382.20634 9.28505 383.39805 10.67723 385.3091 12.88998 386.5008 14.23415 387.69248 15.57831 389.60356 17.69655 390.79524 18.97304 391.9869 20.24953 393.898 22.2439 395.0897 23.43423 396.28138 24.62457 398.19245 26.46577 399.38414 27.55223 400.5758 28.63867 402.4869 30.29794 403.6786 31.26468 404.8703 32.23141 406.78138 33.6869 407.97306 34.51976 409.16474 35.35262 411.07585 36.58078 412.26753 37.26744 413.4592 37.95412 415.37028 38.93826 416.56199 39.46884 417.75367 39.99942 419.66474 40.72496 420.8564 41.09154 422.0481 41.45808 425.15089 42.1108 425.15089 42.1108"
       id="path209" />
    <path
       transform="matrix(1,0,0,-1,12.456993,56.64502)"
       stroke-width="2.49069"
       stroke-linecap="butt"
       stroke-miterlimit="10"
       stroke-linejoin="miter"
       fill="none"
       stroke="#94a3b8"
       stroke-opacity=".12"
       d="M0 6.00014C0 6.00014 3.10275 2.29344 4.29443 .86743 5.48611-.55855 7.3972-2.85838 8.58888-4.27756 9.78056-5.69672 11.69167-7.96936 12.88335-9.36098 14.07503-10.7526 15.9861-12.96417 17.17778-14.30745 18.36948-15.65073 20.28056-17.76724 21.47224-19.04248 22.66393-20.3177 24.57503-22.30966 25.76671-23.49846 26.95839-24.68727 28.86946-26.52577 30.06114-27.6106 31.25282-28.69543 33.16391-30.3524 34.35559-31.31725 35.54729-32.28207 37.45837-33.73384 38.65007-34.56451 39.84175-35.39522 41.75284-36.62012 42.94452-37.30443 44.1362-37.98875 46.04727-38.96863 47.23895-39.49675 48.43063-40.0249 50.34174-40.74686 51.53342-41.11098 52.7251-41.4751 54.63618-41.92648 55.82788-42.12119 57.01956-42.31587 58.93063-42.49193 60.12231-42.51434 61.314-42.53676 63.2251-42.43314 64.41678-42.28273 65.60846-42.13232 67.51955-41.75092 68.71123-41.4302 69.90291-41.10947 71.81401-40.45749 73.0057-39.97104 74.19739-39.48457 76.10846-38.56902 77.30014-37.92403 78.49182-37.27905 80.40291-36.1163 81.59459-35.32234 82.78627-34.52835 84.69737-33.13309 85.88905-32.20157 87.08073-31.27003 88.9918-29.66377 90.18349-28.60847 91.37518-27.55318 93.28627-25.7592 94.47795-24.59561 95.66963-23.43202 97.58073-21.47679 98.77242-20.222 99.9641-18.96722 101.87518-16.8795 103.06686-15.5519 104.25854-14.22427 106.16962-12.0344 107.3613-10.6534 108.553-9.27242 110.4641-7.01265 111.65578-5.59853 112.84746-4.1844 114.75854-1.88745 115.95023-.46127 117.1419 .96489 119.05298 3.26292 120.24466 4.68048 121.43634 6.09802 123.34744 8.36696 124.53912 9.75543 125.73082 11.1439 127.64189 13.34889 128.83359 14.68767 130.02527 16.02646 131.93634 18.13521 133.12802 19.4045 134.3197 20.67377 136.2308 22.65451 137.42249 23.83585 138.61417 25.01717 140.52526 26.84288 141.71694 27.91881 142.90862 28.9947 144.81972 30.63565 146.01142 31.59041 147.2031 32.54514 149.11417 33.9803 150.30585 34.80003 151.49753 35.61975 153.40862 36.82607 154.6003 37.49843 155.79198 38.17076 157.70308 39.1307 158.89476 39.64598 160.08644 40.16127 161.99752 40.8614 163.18921 41.2122 164.38089 41.563 166.29198 41.99327 167.48366 42.17436 168.67534 42.35547 170.58644 42.5089 171.77812 42.5176 172.9698 42.5263 174.88089 42.40112 176.07257 42.2373 177.26425 42.07349 179.17533 41.67075 180.367 41.33678 181.5587 41.00279 183.4698 40.32938 184.66149 39.83023 185.85317 39.33107 187.76425 38.39627 188.95594 37.73914 190.14762 37.082 192.05869 35.89915 193.25037 35.09395 194.44205 34.28873 196.35315 32.87723 197.54483 31.93555 198.73653 30.99385 200.64762 29.37117 201.8393 28.30678 203.03098 27.24239 204.94208 25.4354 206.13376 24.26405 207.32544 23.09271 209.23651 21.12569 210.42819 19.86449 211.61988 18.6033 213.53096 16.50684 214.72264 15.17427 215.91434 13.8417 217.82543 11.64462 219.01712 10.26021 220.2088 8.8758 222.11988 6.61203 223.31156 5.19629 224.50324 3.78055 226.41432 1.48279 227.606 .05643 228.79769-1.36992 230.70879-3.668 231.90047-5.08401 233.09215-6.50005 235.00324-8.76404 236.19493-10.14928 237.38661-11.53452 239.29769-13.73395 240.48937-15.06787 241.68105-16.40181 243.59215-18.50041 244.78383-19.76329 245.97551-21.0262 247.8866-22.99632 249.07828-24.17 250.26996-25.34367 252.18103-27.15561 253.37273-28.22241 254.5644-29.28923 256.47554-30.91449 257.66719-31.859 258.85887-32.8035 260.76997-34.22118 261.96165-35.02972 263.15333-35.83827 265.0644-37.02612 266.25608-37.6866 267.44776-38.34706 269.35887-39.28725 270.55055-39.79 271.74223-40.29276 273.65333-40.97241 274.845-41.31017 276.03669-41.64792 277.94779-42.05664 279.13948-42.22433 280.33116-42.39203 282.24223-42.52376 283.4339-42.5189 284.62559-42.51404 286.53669-42.36664 287.72837-42.18932 288.92005-42.01196 290.83116-41.58786 292.02284-41.24075 293.2145-40.89365 295.12559-40.19936 296.31727-39.68752 297.50895-39.17564 299.42005-38.22083 300.61174-37.55162 301.80339-36.88243 303.7145-35.68094 304.90617-34.86427 306.09788-34.0476 308.00895-32.61751 309.20066-31.66565 310.39234-30.71378 312.30339-29.0772 313.49507-28.00378 314.68675-26.93039 316.59785-25.10844 317.78956-23.92929 318.98124-22.75012 320.8923-20.77254 322.08399-19.50505 323.27568-18.23758 325.18675-16.1315 326.37843-14.79407 327.5701-13.45667 329.48124-11.2532 330.6729-9.86574 331.8646-8.47827 333.77568-6.2112 334.96736-4.794 336.15904-3.37683 338.07014-1.07794 339.2618 .34839 340.4535 1.77477 342.36457 4.0718 343.55628 5.4863 344.74794 6.90077 346.65904 9.16129 347.8507 10.54309 349.0424 11.92491 350.9535 14.11644 352.14518 15.4455 353.33686 16.77454 355.24794 18.8654 356.4396 20.12207 357.6313 21.37875 359.54237 23.33698 360.73405 24.50282 361.92576 25.66867 363.83686 27.46686 365.02854 28.52477 366.2202 29.58269 368.1313 31.19319 369.32298 32.1276 370.51466 33.06198 372.42576 34.46208 373.61744 35.2594 374.8091 36.0567 376.7202 37.22575 377.91188 37.87408 379.10359 38.52238 381.01466 39.44234 382.20634 39.93211 383.39805 40.4219 385.3091 41.07993 386.5008 41.40425 387.69248 41.72858 389.60356 42.11566 390.79524 42.26976 391.9869 42.42386 393.898 42.53355 395.0897 42.515 396.28138 42.49648 398.19245 42.32692 399.38414 42.1361 400.5758 41.94525 402.4869 41.49986 403.6786 41.13953 404.8703 40.77919 406.78138 40.06345 407.97306 39.53893 409.16474 39.01437 411.07585 38.04001 412.26753 37.35893 413.4592 36.67786 415.37028 35.45778 416.56199 34.63005 417.75367 33.80234 419.66474 32.35509 420.8564 31.39316 422.0481 30.43121 425.15089 27.6969 425.15089 27.6969"
       id="path211" />
    <path
       transform="matrix(1,0,0,-1,12.456993,56.64502)"
       stroke-width="2.49069"
       stroke-linecap="butt"
       stroke-miterlimit="10"
       stroke-linejoin="miter"
       fill="none"
       stroke="#94a3b8"
       stroke-opacity=".12"
       d="M0-32.17822C0-32.17822 3.10275-34.50717 4.29443-35.30223 5.48611-36.09727 7.3972-37.2623 8.58888-37.90846 9.78056-38.55463 11.69167-39.4718 12.88335-39.95937 14.07503-40.44691 15.9861-41.10066 17.17778-41.42241 18.36948-41.74413 20.28056-42.1267 21.47224-42.2782 22.66393-42.4297 24.57503-42.53539 25.76671-42.51434 26.95839-42.49329 28.86946-42.31981 30.06114-42.12637 31.25282-41.93294 33.16391-41.48302 34.35559-41.12006 35.54729-40.75711 37.45837-40.03735 38.65007-39.51038 39.84175-38.9834 41.75284-38.0053 42.94452-37.32195 44.1362-36.63861 46.04727-35.41507 47.23895-34.58527 48.43063-33.75546 50.34174-32.30519 51.53342-31.34126 52.7251-30.37733 54.63618-28.72179 55.82788-27.63785 57.01956-26.55391 58.93063-24.71704 60.12231-23.52896 61.314-22.34088 63.2251-20.34978 64.41678-19.0749 65.60846-17.80003 67.51955-15.68346 68.71123-14.34055 69.90291-12.99763 71.81401-10.78726 73.0057-9.396 74.19739-8.00475 76.10846-5.73213 77.30014-4.31323 78.49182-2.89435 80.40291-.59554 81.59459 .83044 82.78627 2.25645 84.69737 4.55197 85.88905 5.96448 87.08073 7.37698 88.9918 9.63303 90.18349 11.01088 91.37518 12.38872 93.28627 14.57207 94.47795 15.8951 95.66963 17.21812 97.58073 19.29764 98.77242 20.54639 99.9641 21.79517 101.87518 23.73895 103.06686 24.89536 104.25854 26.05176 106.16962 27.83405 107.3613 28.88097 108.553 29.9279 110.4641 31.51909 111.65578 32.44096 112.84746 33.36285 114.75854 34.74178 115.95023 35.52539 117.1419 36.30902 119.05298 37.45491 120.24466 38.08884 121.43634 38.72276 123.34744 39.61946 124.53912 40.09431 125.73082 40.56917 127.64189 41.20271 128.83359 41.51129 130.02527 41.81985 131.93634 42.18051 133.12802 42.31842 134.3197 42.45633 136.2308 42.5399 137.42249 42.50526 138.61417 42.47063 140.52526 42.27547 141.71694 42.0686 142.90862 41.86177 144.81972 41.39014 146.01142 41.01433 147.2031 40.6385 149.11417 39.89935 150.30585 39.35985 151.49753 38.82036 153.40862 37.82132 154.6003 37.126 155.79198 36.4307 157.70308 35.18916 158.89476 34.34846 160.08644 33.50777 161.99752 32.04062 163.18921 31.0668 164.38089 30.09297 166.29198 28.42241 167.48366 27.32967 168.67534 26.23692 170.58644 24.38658 171.77812 23.19093 172.9698 21.99529 174.88089 19.9931 176.07257 18.71222 177.26425 17.43132 179.17533 15.30658 180.367 13.95906 181.5587 12.61154 183.4698 10.39455 184.66149 9.00023 185.85317 7.60593 187.76425 5.32993 188.95594 3.9097 190.14762 2.48946 192.05869 .18958 193.25037-1.23596 194.44205-2.66151 196.35315-4.95444 197.54483-6.36478 198.73653-7.77512 200.64762-10.02647 201.8393-11.4008 203.03098-12.77515 204.94208-14.95213 206.13376-16.27011 207.32544-17.5881 209.23651-19.6579 210.42819-20.90001 211.61988-22.1421 213.53096-24.07405 214.72264-25.22235 215.91434-26.37064 217.82543-28.13844 219.01712-29.17618 220.2088-30.21393 222.11988-31.79008 223.31156-32.70178 224.50324-33.6135 226.41432-34.97493 227.606-35.7473 228.79769-36.51964 230.70879-37.64679 231.90047-38.26857 233.09215-38.89034 235.00324-39.76663 236.19493-40.22859 237.38661-40.69057 239.29769-41.30289 240.48937-41.59824 241.68105-41.89357 243.59215-42.23296 244.78383-42.35735 245.97551-42.48174 247.8866-42.54321 249.07828-42.49489 250.26996-42.44658 252.18103-42.22931 253.37273-42.00894 254.5644-41.78857 256.47554-41.29578 257.66719-40.90662 258.85887-40.51746 260.76997-39.75633 261.96165-39.20415 263.15333-38.65198 265.0644-37.63393 266.25608-36.92682 267.44776-36.21973 269.35887-34.9595 270.55055-34.10776 271.74223-33.256 273.65333-31.77165 274.845-30.78783 276.03669-29.80399 277.94779-28.11835 279.13948-27.01695 280.33116-25.91553 282.24223-24.05258 283.4339-22.84966 284.62559-21.64673 286.53669-19.63387 287.72837-18.34694 288.92005-17.06 290.83116-14.92606 292.02284-13.57433 293.2145-12.22258 295.12559-10.0013 296.31727-8.60446 297.50895-7.20761 299.42005-4.92828 300.61174-3.50679 301.80339-2.0853 303.7145 .21553 304.90617 1.64081 306.09788 3.06609 308.00895 5.35738 309.20066 6.76573 310.39234 8.1741 312.30339 10.42085 313.49507 11.79141 314.68675 13.16196 316.59785 15.33107 317.78956 16.64383 318.98124 17.9566 320.8923 20.01735 322.08399 21.25294 323.27568 22.48856 325.18675 24.40924 326.37843 25.54935 327.5701 26.68945 329.48124 28.44206 330.6729 29.4701 331.8646 30.49811 333.77568 32.05751 334.96736 32.95872 336.15904 33.85991 338.07014 35.20445 339.2618 35.96529 340.4535 36.72614 342.36457 37.83301 343.55628 38.44243 344.74794 39.05186 346.65904 39.9087 347.8507 40.35773 349.0424 40.80673 350.9535 41.39684 352.14518 41.67868 353.33686 41.96053 355.24794 42.27824 356.4396 42.38913 357.6313 42.50003 359.54237 42.53986 360.73405 42.47801 361.92576 42.41617 363.83686 42.1771 365.02854 41.9434 366.2202 41.70972 368.1313 41.19583 369.32298 40.79373 370.51466 40.39162 372.42576 39.6099 373.61744 39.0452 374.8091 38.4805 376.7202 37.44257 377.91188 36.72375 379.10359 36.00493 381.01466 34.72691 382.20634 33.86446 383.39805 33.00197 385.3091 31.50108 386.5008 30.50754 387.69248 29.51398 389.60356 27.81361 390.79524 26.70358 391.9869 25.59355 393.898 23.71732 395.0897 22.50708 396.28138 21.29688 398.19245 19.2737 399.38414 17.98102 400.5758 16.68834 402.4869 14.54648 403.6786 13.19023 404.8703 11.83397 406.78138 9.60562 407.97306 8.2061 409.16474 6.80655 411.07585 4.52571 412.26753 3.10321 413.4592 1.68073 415.37028-.62155 416.56199-2.0463 417.75367-3.47105 419.66474-5.75938 420.8564-7.16542 422.0481-8.57144 425.15089-12.18002 425.15089-12.18002"
       id="path213" />
    <path
       transform="matrix(1,0,0,-1,12.456993,56.64502)"
       d="M4.25226 0C4.25226 2.34846 2.34846 4.25226 0 4.25226-2.34846 4.25226-4.25226 2.34846-4.25226 0-4.25226-2.34846-2.34846-4.25226 0-4.25226 2.34846-4.25226 4.25226-2.34846 4.25226 0ZM0 0"
       fill="#fb923c"
       id="path215" />
    <path
       transform="matrix(1,0,0,-1,12.456993,56.64502)"
       d="M4.25226 0C4.25226 2.34846 2.34846 4.25226 0 4.25226-2.34846 4.25226-4.25226 2.34846-4.25226 0-4.25226-2.34846-2.34846-4.25226 0-4.25226 2.34846-4.25226 4.25226-2.34846 4.25226 0ZM0 0"
       fill="#fb923c"
       id="path217" />
    <path
       transform="matrix(1,0,0,-1,12.456993,56.64502)"
       d="M4.25226 0C4.25226 2.34846 2.34846 4.25226 0 4.25226-2.34846 4.25226-4.25226 2.34846-4.25226 0-4.25226-2.34846-2.34846-4.25226 0-4.25226 2.34846-4.25226 4.25226-2.34846 4.25226 0ZM0 0"
       fill="#fb923c"
       id="path219" />
    <path
       transform="matrix(1,0,0,-1,12.456993,56.64502)"
       d="M4.25226 0C4.25226 2.34846 2.34846 4.25226 0 4.25226-2.34846 4.25226-4.25226 2.34846-4.25226 0-4.25226-2.34846-2.34846-4.25226 0-4.25226 2.34846-4.25226 4.25226-2.34846 4.25226 0ZM0 0"
       fill="#fb923c"
       id="path221" />
    <path
       transform="matrix(1,0,0,-1,12.456993,56.64502)"
       d="M68.03258 14.24324C68.03258 16.59172 66.12878 18.49551 63.7803 18.49551 61.43182 18.49551 59.52803 16.59172 59.52803 14.24324 59.52803 11.89476 61.43182 9.99098 63.7803 9.99098 66.12878 9.99098 68.03258 11.89476 68.03258 14.24324ZM63.7803 14.24324"
       fill="#fb923c"
       id="path223" />
    <path
       transform="matrix(1,0,0,-1,12.456993,56.64502)"
       d="M78.66263 1.76733C78.66263 4.1158 76.75883 6.01959 74.41037 6.01959 72.06189 6.01959 70.1581 4.1158 70.1581 1.76733 70.1581-.58113 72.06189-2.48492 74.41037-2.48492 76.75883-2.48492 78.66263-.58113 78.66263 1.76733ZM74.41037 1.76733"
       fill="#fb923c"
       id="path225" />
    <path
       transform="matrix(1,0,0,-1,12.456993,56.64502)"
       d="M94.6077-16.88518C94.6077-14.5367 92.7039-12.63292 90.35542-12.63292 88.00696-12.63292 86.10316-14.5367 86.10316-16.88518 86.10316-19.23366 88.00696-21.13745 90.35542-21.13745 92.7039-21.13745 94.6077-19.23366 94.6077-16.88518ZM90.35542-16.88518"
       fill="#fb923c"
       id="path227" />
    <path
       transform="matrix(1,0,0,-1,12.456993,56.64502)"
       d="M110.55278-32.17822C110.55278-29.82974 108.64899-27.92595 106.3005-27.92595 103.95203-27.92595 102.04825-29.82974 102.04825-32.17822 102.04825-34.5267 103.95203-36.43048 106.3005-36.43048 108.64899-36.43048 110.55278-34.5267 110.55278-32.17822ZM106.3005-32.17822"
       fill="#fb923c"
       id="path229" />
    <path
       transform="matrix(1,0,0,-1,12.456993,56.64502)"
       d="M131.8129-26.84047C131.8129-24.49199 129.9091-22.5882 127.56062-22.5882 125.21216-22.5882 123.30836-24.49199 123.30836-26.84047 123.30836-29.18895 125.21216-31.09274 127.56062-31.09274 129.9091-31.09274 131.8129-29.18895 131.8129-26.84047ZM127.56062-26.84047"
       fill="#fb923c"
       id="path231" />
    <path
       transform="matrix(1,0,0,-1,12.456993,56.64502)"
       d="M153.073-3.53337C153.073-1.18489 151.1692 .71887 148.82074 .71887 146.47226 .71887 144.56847-1.18489 144.56847-3.53337 144.56847-5.88185 146.47226-7.78564 148.82074-7.78564 151.1692-7.78564 153.073-5.88185 153.073-3.53337ZM148.82074-3.53337"
       fill="#fb923c"
       id="path233" />
    <path
       transform="matrix(1,0,0,-1,12.456993,56.64502)"
       d="M184.96315 30.99348C184.96315 33.34196 183.05936 35.24574 180.71088 35.24574 178.3624 35.24574 176.45862 33.34196 176.45862 30.99348 176.45862 28.645 178.3624 26.74121 180.71088 26.74121 183.05936 26.74121 184.96315 28.645 184.96315 30.99348ZM180.71088 30.99348"
       fill="#fb923c"
       id="path235" />
    <path
       transform="matrix(1,0,0,-1,12.456993,56.64502)"
       d="M216.85334 42.06604C216.85334 44.41452 214.94954 46.31831 212.60106 46.31831 210.25258 46.31831 208.34879 44.41452 208.34879 42.06604 208.34879 39.71756 210.25258 37.81377 212.60106 37.81377 214.94954 37.81377 216.85334 39.71756 216.85334 42.06604ZM212.60106 42.06604"
       fill="#fb923c"
       id="path237" />
    <path
       transform="matrix(1,0,0,-1,12.456993,56.64502)"
       d="M195.5932 36.33575C195.5932 38.68423 193.68943 40.58803 191.34095 40.58803 188.99246 40.58803 187.08867 38.68423 187.08867 36.33575 187.08867 33.98729 188.99246 32.0835 191.34095 32.0835 193.68943 32.0835 195.5932 33.98729 195.5932 36.33575ZM191.34095 36.33575"
       fill="#fb923c"
       id="path239" />
    <path
       transform="matrix(1,0,0,-1,12.456993,56.64502)"
       d="M227.48337 5.29294C227.48337 7.64142 225.57958 9.54521 223.23111 9.54521 220.88263 9.54521 218.97884 7.64142 218.97884 5.29294 218.97884 2.94446 220.88263 1.04068 223.23111 1.04068 225.57958 1.04068 227.48337 2.94446 227.48337 5.29294ZM223.23111 5.29294"
       fill="#fb923c"
       id="path241" />
    <path
       transform="matrix(1,0,0,-1,12.456993,56.64502)"
       d="M275.31864-40.00476C275.31864-37.65628 273.41484-35.75249 271.06636-35.75249 268.71788-35.75249 266.8141-37.65628 266.8141-40.00476 266.8141-42.35324 268.71788-44.25702 271.06636-44.25702 273.41484-44.25702 275.31864-42.35324 275.31864-40.00476ZM271.06636-40.00476"
       fill="#fb923c"
       id="path243" />
    <path
       transform="matrix(1,0,0,-1,12.456993,56.64502)"
       d="M323.15385-22.81528C323.15385-20.4668 321.2501-18.563 318.9016-18.563 316.55314-18.563 314.64933-20.4668 314.64933-22.81528 314.64933-25.16376 316.55314-27.06754 318.9016-27.06754 321.2501-27.06754 323.15385-25.16376 323.15385-22.81528ZM318.9016-22.81528"
       fill="#fb923c"
       id="path245" />
    <path
       transform="matrix(1,0,0,-1,12.456993,56.64502)"
       d="M259.37355-41.63261C259.37355-39.28413 257.46977-37.38036 255.12128-37.38036 252.7728-37.38036 250.86902-39.28413 250.86902-41.63261 250.86902-43.9811 252.7728-45.88489 255.12128-45.88489 257.46977-45.88489 259.37355-43.9811 259.37355-41.63261ZM255.12128-41.63261"
       fill="#fb923c"
       id="path247" />
    <path
       transform="matrix(1,0,0,-1,12.456993,56.64502)"
       d="M301.89375-7.04147C301.89375-4.693 299.98997-2.7892 297.6415-2.7892 295.293-2.7892 293.38923-4.693 293.38923-7.04147 293.38923-9.38995 295.293-11.29375 297.6415-11.29375 299.98997-11.29375 301.89375-9.38995 301.89375-7.04147ZM297.6415-7.04147"
       fill="#fb923c"
       id="path249" />
    <path
       transform="matrix(1,0,0,-1,12.456993,56.64502)"
       d="M365.67408 42.4339C365.67408 44.78238 363.7703 46.68617 361.4218 46.68617 359.07334 46.68617 357.16954 44.78238 357.16954 42.4339 357.16954 40.08542 359.07334 38.18163 361.4218 38.18163 363.7703 38.18163 365.67408 40.08542 365.67408 42.4339ZM361.4218 42.4339"
       fill="#fb923c"
       id="path251" />
    <path
       transform="matrix(1,0,0,-1,12.456993,56.64502)"
       d="M429.4544-12.23973C429.4544-9.89125 427.5506-7.98746 425.20213-7.98746 422.85368-7.98746 420.94987-9.89125 420.94987-12.23973 420.94987-14.58821 422.85368-16.49199 425.20213-16.49199 427.5506-16.49199 429.4544-14.58821 429.4544-12.23973ZM425.20213-12.23973"
       fill="#fb923c"
       id="path253" />
    <text
       xml:space="preserve"
       transform="matrix(1 0 -0 1 -125.564 512.2)"
       font-size="9.9626"
       font-family="CMR10"
       id="text269"><tspan
         y="-89.365"
         x="303.133"
         id="tspan267">1</tspan></text>
  </g>
</svg>
