<svg xmlns="http://www.w3.org/2000/svg" xmlns:xlink="http://www.w3.org/1999/xlink" xmlns:inkscape="http://www.inkscape.org/namespaces/inkscape" version="1.1" width="178.31952" height="119.21176" viewBox="0 0 178.31952 119.21176">
<defs>
<clipPath id="clip_1">
<path transform="matrix(1,0,0,-1,0,119.21176)" d="M34.72845 26.338238H173.26828V107.39952H34.72845Z"/>
</clipPath>
<clipPath id="clip_2">
<path transform="matrix(1,0,0,-1,0,119.21176)" d="M34.72845 26.338238H173.26828V107.39952H34.72845Z"/>
</clipPath>
<clipPath id="clip_3">
<path transform="matrix(1,0,0,-1,0,119.21176)" d="M34.72845 26.338238H173.26828V107.39952H34.72845Z"/>
</clipPath>
<path id="font_4_50" d="M.5159912 .31925965C.5159912 .42918397 .5029907 .50813296 .45700074 .5780945 .42599488 .62405398 .3639984 .6640625 .28399659 .6640625 .051986696 .6640625 .051986696 .39120484 .051986696 .31925965 .051986696 .2472992 .051986696-.01953125 .28399659-.01953125 .5159912-.01953125 .5159912 .2472992 .5159912 .31925965M.28399659 .008468628C.23799134 .008468628 .1769867 .035446168 .15699768 .117385867 .14299011 .17634583 .14299011 .25830079 .14299011 .33224488 .14299011 .40519715 .14299011 .4811554 .1579895 .53611758 .1789856 .6150665 .24299622 .63604739 .28399659 .63604739 .33799745 .63604739 .3899994 .6030731 .4079895 .545105 .42399598 .4911499 .4249878 .41918946 .4249878 .33224488 .4249878 .25830079 .4249878 .18434143 .4119873 .12138367 .3919983 .030441285 .32398988 .008468628 .28399659 .008468628Z"/>
<clipPath id="clip_5">
<path transform="matrix(1,0,0,-1,0,119.21176)" d="M34.72845 26.338238H173.26828V107.39952H34.72845Z"/>
</clipPath>
<path id="font_4_51" d="M.33499146 .63612368C.33499146 .6630554 .33299256 .6640625 .30499269 .6640625 .24099732 .6014404 .1499939 .6004486 .10899353 .6004486V.5644531C.1329956 .5644531 .19898987 .5644531 .2539978 .592453V.08203125C.2539978 .04899597 .2539978 .035995485 .1539917 .035995485H.115997318V0C.13398743 .0009918213 .25698854 .0039978029 .2939911 .0039978029 .32499696 .0039978029 .45098878 .0009918213 .47299195 0V.035995485H.43499757C.33499146 .035995485 .33499146 .04899597 .33499146 .08203125V.63612368Z"/>
<clipPath id="clip_6">
<path transform="matrix(1,0,0,-1,0,119.21176)" d="M34.72845 26.338238H173.26828V107.39952H34.72845Z"/>
</clipPath>
<path id="font_4_52" d="M.5049896 .18203736H.47099305C.46798707 .16001892 .45799256 .100997928 .44499208 .09098816 .43699647 .084991458 .3600006 .084991458 .34599305 .084991458H.1619873C.2669983 .17803955 .3019867 .20603943 .3619995 .25306703 .43598939 .312088 .5049896 .374115 .5049896 .46914674 .5049896 .5900879 .39898683 .6640625 .2709961 .6640625 .14698792 .6640625 .06298828 .57710269 .06298828 .4851532 .06298828 .43414308 .10598755 .42915345 .115997318 .42915345 .13999939 .42915345 .16899109 .44615174 .16899109 .48214723 .16899109 .5001526 .1619873 .53515627 .10998535 .53515627 .14099121 .6060791 .20899964 .62805178 .2559967 .62805178 .35598756 .62805178 .4079895 .5501404 .4079895 .46914674 .4079895 .38212586 .34599305 .3130951 .31399537 .27708436L.07299805 .038986207C.06298828 .02999878 .06298828 .027999878 .06298828 0H.47499085L.5049896 .18203736Z"/>
<clipPath id="clip_7">
<path transform="matrix(1,0,0,-1,0,119.21176)" d="M34.72845 26.338238H173.26828V107.39952H34.72845Z"/>
</clipPath>
<path id="font_4_53" d="M.272995 .33428956C.35099793 .33428956 .40699769 .2803192 .40699769 .1733551 .40699769 .04940796 .33499146 .012466431 .2769928 .012466431 .23699951 .012466431 .14898682 .0234375 .10699463 .082351688 .1539917 .084350589 .16499329 .11735535 .16499329 .13835144 .16499329 .17034912 .14099121 .19335938 .10998535 .19335938 .08198547 .19335938 .053985597 .17634583 .053985597 .13534546 .053985597 .041412355 .1579895-.01953125 .2789917-.01953125 .41799928-.01953125 .5139923 .07336426 .5139923 .1733551 .5139923 .2513275 .44999696 .32929994 .33999635 .35229493 .44499208 .39024354 .48298646 .4650879 .48298646 .5260773 .48298646 .60505679 .3919983 .6640625 .2809906 .6640625 .16999817 .6640625 .084991458 .61006167 .084991458 .5300751 .084991458 .49606324 .10699463 .47706605 .13699341 .47706605 .16799927 .47706605 .18798828 .5000763 .18798828 .5280762 .18798828 .5570679 .16799927 .57806399 .13699341 .5800781 .17199707 .62405398 .24099732 .63505557 .27799989 .63505557 .32299806 .63505557 .38598634 .6130676 .38598634 .5260773 .38598634 .48406983 .37199403 .43814088 .34599305 .4072113 .31298829 .36927796 .2849884 .3672943 .23498535 .36428834 .20999146 .3623047 .20799256 .3623047 .20298767 .3612976 .20098877 .3612976 .19299317 .3592987 .19299317 .34829713 .19299317 .33428956 .20199585 .33428956 .21899414 .33428956H.272995Z"/>
<clipPath id="clip_8">
<path transform="matrix(1,0,0,-1,0,119.21176)" d="M34.72845 26.338238H173.26828V107.39952H34.72845Z"/>
</clipPath>
<path id="font_4_54" d="M.5289917 .1640625V.20005799H.41799928V.64582827C.41799928 .66682437 .41799928 .6738281 .3959961 .6738281 .38398744 .6738281 .37998963 .6738281 .36999513 .65982058L.038986207 .20005799V.1640625H.33299256V.08201599C.33299256 .04800415 .33299256 .035995485 .2519989 .035995485H.22499085V0C.2749939 .0019989014 .33898927 .0039978029 .375 .0039978029 .4119873 .0039978029 .47599793 .0019989014 .526001 0V.035995485H.49899293C.41799928 .035995485 .41799928 .04800415 .41799928 .08201599V.1640625H.5289917M.33999635 .5658722V.20005799H.07598877L.33999635 .5658722Z"/>
<clipPath id="clip_9">
<path transform="matrix(1,0,0,-1,0,119.21176)" d="M34.72845 26.338238H173.26828V107.39952H34.72845Z"/>
</clipPath>
<path id="font_4_55" d="M.15499878 .5588074C.20599365 .5458069 .23599243 .5458069 .2519989 .5458069 .38398744 .5458069 .46199037 .6358032 .46199037 .6508026 .46199037 .6618042 .45498658 .6648102 .44999696 .6648102 .44799806 .6648102 .44599916 .6648102 .44198609 .6618042 .41799928 .6528015 .36499024 .6328125 .29100038 .6328125 .2630005 .6328125 .20999146 .6348114 .14498902 .6598053 .1349945 .6648102 .1329956 .6648102 .13198853 .6648102 .11898804 .6648102 .11898804 .6538086 .11898804 .6378021V.34251405C.11898804 .32548524 .11898804 .3134613 .1349945 .3134613 .14399719 .3134613 .14498902 .3154602 .15499878 .32748414 .19799805 .38259889 .25898744 .390625 .2939911 .390625 .35398866 .390625 .3809967 .34251405 .38598634 .33450318 .4039917 .30143739 .4099884 .26335145 .4099884 .20524597 .4099884 .17524719 .4099884 .116256717 .37998963 .07234192 .35499574 .03640747 .31199647 .012466431 .2630005 .012466431 .19799805 .012466431 .1309967 .04838562 .10598755 .11425781 .14399719 .11125183 .16299439 .13624573 .16299439 .16325379 .16299439 .20625305 .12599182 .21424866 .11299133 .21424866 .11099243 .21424866 .06298828 .21424866 .06298828 .1602478 .06298828 .07034302 .14498902-.01953125 .2649994-.01953125 .3929901-.01953125 .5049896 .07533264 .5049896 .20124817 .5049896 .31445313 .4189911 .41862489 .29499818 .41862489 .25099183 .41862489 .19898987 .4076233 .15499878 .36956788V.5588074Z"/>
<path id="font_10_152" d="M.2539978 .6201019V.120010379C.2539978 .034988405 .24299622 .023986817 .1599884 .018997193V0H.45199586V.018997193C.36999513 .022994996 .35598756 .035995485 .35598756 .10900879V.6201019H.4099884C.5239868 .6201019 .54599 .60209658 .56900027 .4920807H.59298709L.58699038 .6621094H.022994996L.016998291 .4920807H.040985109C.06498718 .60110476 .08799744 .6201019 .19999695 .6201019H.2539978Z"/>
<path id="font_10_183" d="M.0069885256 .3899536C.020996094 .3929596 .02999878 .39396668 .041992189 .39396668 .066986087 .39396668 .07598877 .3779602 .07598877 .33396913V.083984378C.07598877 .033996583 .068984989 .026992798 .004989624 .01499939V0H.24499512V.01499939C.1769867 .017990113 .1599884 .032989503 .1599884 .08998108V.31497193C.1599884 .3469696 .20298767 .3969574 .22999573 .3969574 .23599243 .3969574 .24499512 .3919525 .2559967 .381958 .27198792 .3679657 .2829895 .361969 .29599 .361969 .31999208 .361969 .33499146 .3789673 .33499146 .4069519 .33499146 .43995667 .31399537 .45996095 .27999879 .45996095 .23799134 .45996095 .20899964 .43695069 .1599884 .3659668V.45794679L.15499878 .45996095C.101989749 .43795777 .06599426 .42495729 .0069885256 .40596009V.3899536Z"/>
<path id="font_10_166" d="M.44198609 .066207889C.4249878 .052230836 .41299439 .047225954 .397995 .047225954 .375 .047225954 .36799623 .06121826 .36799623 .10517883V.30004884C.36799623 .35202027 .36299134 .3809967 .34799195 .40498353 .32598878 .4409485 .2829895 .45996095 .22399903 .45996095 .12998963 .45996095 .055999757 .41098023 .055999757 .34802247 .055999757 .32502748 .07598877 .3050537 .09899902 .3050537 .12298584 .3050537 .14399719 .32502748 .14399719 .34701539 .14399719 .35101319 .14299011 .35601808 .14199829 .3630066 .13999939 .37199403 .13899231 .37998963 .13899231 .3869934 .13899231 .41397096 .17098999 .43595887 .21099854 .43595887 .2599945 .43595887 .2869873 .40698243 .2869873 .35301209V.29205323C.1329956 .23010254 .115997318 .22210694 .07299805 .18412781 .050994874 .1641388 .036987306 .13017273 .036987306 .09719849 .036987306 .034225465 .08099365-.009765625 .14199829-.009765625 .18598938-.009765625 .22698975 .011230469 .28799439 .06323242 .29299928 .011230469 .31098939-.009765625 .35198976-.009765625 .38598634-.009765625 .40699769 .0022277833 .44198609 .040222169V.066207889M.2869873 .12322998C.2869873 .09222412 .28199769 .083221439 .26098634 .07122803 .23699951 .05722046 .20899964 .048233034 .18798828 .048233034 .15299988 .048233034 .125 .082229617 .125 .12522888V.12922669C.125 .18823242 .1659851 .2242279 .2869873 .26823426V.12322998Z"/>
<path id="font_10_174" d="M.1749878 .45996095 .019989014 .40527345V.3902588L.027999878 .39126588C.039993287 .39326478 .052993776 .39427186 .06199646 .39427186 .085998538 .39427186 .09498596 .37826539 .09498596 .33422853V.10205078C.09498596 .02999878 .084991458 .018997193 .015991211 .01499939V0H.25299073V.01499939C.18699646 .019989014 .1789856 .02999878 .1789856 .10205078V.45695497L.1749878 .45996095M.12799073 .6826172C.100997928 .6826172 .07798767 .65960696 .07798767 .63160708 .07798767 .6036072 .099990848 .5806122 .12799073 .5806122 .15699768 .5806122 .17999268 .60261538 .17999268 .63160708 .17999268 .65960696 .15699768 .6826172 .12799073 .6826172Z"/>
<path id="font_10_179" d="M.015991211 .39794923C.021987915 .4009552 .03199768 .40194703 .042999269 .40194703 .070999149 .40194703 .07998657 .38694764 .07998657 .33796693V.08998108C.07998657 .032989503 .068984989 .018997193 .017990113 .01499939V0H.22999573V.01499939C.1789856 .018997193 .1639862 .0309906 .1639862 .066986087V.34796144C.21199036 .3929596 .23399353 .404953 .2669983 .404953 .31599427 .404953 .33999635 .3739624 .33999635 .30796815V.098983768C.33999635 .035995485 .32699586 .018997193 .2769928 .01499939V0H.4850006V.01499939C.43598939 .019989014 .42399598 .03199768 .42399598 .08097839V.30996705C.42399598 .40394593 .37998963 .45996095 .30599977 .45996095 .2599945 .45996095 .22898865 .4429474 .16099549 .37895204V.45794679L.1539917 .45996095C.10499573 .44195558 .070999149 .43095399 .015991211 .4149475V.39794923Z"/>
<path id="font_10_172" d="M.46998597 .38775636V.4267578H.3929901C.37298585 .4267578 .35798646 .4298706 .33799745 .43695069L.31599427 .4449463C.2889862 .45495606 .2619934 .45996095 .23599243 .45996095 .14299011 .45996095 .068984989 .38775636 .068984989 .29678346 .068984989 .23379517 .09599304 .19581604 .1619873 .16282654 .14299011 .14482117 .125 .1278534 .11898804 .12286377 .085998538 .09391785 .07299805 .07394409 .07299805 .053985597 .07299805 .03302002 .084991458 .02104187 .12599182 .0010375977 .054992677-.05101013 .027999878-.08406067 .027999878-.12109375 .027999878-.1741333 .10598755-.21813965 .20098877-.21813965 .27598573-.21813965 .35398866-.19213867 .4059906-.15013123 .44400025-.11909485 .46099855-.08705139 .46099855-.04901123 .46099855 .013046265 .4139862 .054977418 .33999635 .05796814L.21099854 .063964847C.1579895 .065963748 .1329956 .07495117 .1329956 .090911868 .1329956 .11088562 .1659851 .14582825 .19299317 .15382385 .20199585 .15281677 .20899964 .15182495 .21199036 .15182495 .23098755 .14982605 .24398804 .14881897 .25 .14881897 .2869873 .14881897 .32699586 .16381836 .35798646 .19081116 .3909912 .21881104 .4059906 .25379945 .4059906 .30377198 .4059906 .33276368 .40098573 .35575868 .3869934 .38775636H.46998597M.14698792-.001953125C.17999268-.008972168 .2599945-.014968872 .30899049-.014968872 .3999939-.014968872 .43299867-.02798462 .43299867-.06402588 .43299867-.12210083 .35699464-.16113281 .24398804-.16113281 .1559906-.16113281 .09799194-.1321106 .09799194-.08805847 .09799194-.06503296 .10499573-.052017213 .14698792-.001953125M.1519928 .33776856C.1519928 .39674378 .17999268 .4319458 .22599793 .4319458 .25698854 .4319458 .2829895 .41474916 .29899598 .38475038 .31698609 .34976197 .32899476 .30377198 .32899476 .26478578 .32899476 .20881653 .2999878 .17382813 .2539978 .17382813 .19400025 .17382813 .1519928 .23880005 .1519928 .33476258V.33776856Z"/>
<path id="font_10_151" d="M.44699098 .6761017H.42599488C.42199708 .6531067 .41099549 .6421051 .3939972 .6421051 .38398744 .6421051 .36698915 .6461029 .34999085 .6540985 .31298829 .6677704 .27598573 .67578127 .24398804 .67578127 .20098877 .67578127 .15699768 .6587677 .12399292 .629776 .08898926 .59880068 .070999149 .556839 .070999149 .5048828 .070999149 .42495729 .114990238 .36901856 .22698975 .3100586 .29899598 .27209474 .35099793 .23114014 .37599183 .19316101 .3849945 .18017578 .3899994 .15919495 .3899994 .13522339 .3899994 .06828308 .33999635 .022323609 .2669983 .022323609 .17799378 .022323609 .114990238 .07727051 .06498718 .19915772H.041992189L.07199097-.012680054H.09399414C.09498596 .005996704 .10699463 .019989014 .12199402 .019989014 .1329956 .019989014 .1499939 .015991211 .16899109 .008987427 .20698548-.0056762697 .24699402-.013671875 .2869873-.013671875 .4019928-.013671875 .4909973 .0652771 .4909973 .16819763 .4909973 .25012208 .43598939 .31506349 .3039856 .3860016 .19898987 .4439392 .15699768 .48789979 .15699768 .54185488 .15699768 .59680178 .19898987 .6347809 .26098634 .6347809 .30599977 .6347809 .34799195 .6157837 .3829956 .5798187 .4139862 .54785159 .42799378 .5218811 .44400025 .46292115H.46899415L.44699098 .6761017Z"/>
<path id="font_10_185" d="M.25498963 .4501953H.1539917V.5661926C.1539917 .57618716 .15299988 .5791931 .14698792 .5791931 .13999939 .5701904 .13398743 .56118777 .1269989 .55119326 .08898926 .4961853 .04598999 .44818116 .02999878 .44418336 .018997193 .43719483 .0129852299 .43019105 .0129852299 .42518617 .0129852299 .42218019 .01399231 .42018128 .016998291 .41818238H.069992069V.11721802C.069992069 .033233644 .099990848-.009765625 .15899658-.009765625 .20799256-.009765625 .24598694 .014221191 .2789917 .066223148L.2659912 .07722473C.24499512 .052230836 .22799683 .04222107 .20599365 .04222107 .16899109 .04222107 .1539917 .069229129 .1539917 .1322174V.41818238H.25498963V.4501953Z"/>
<path id="font_10_170" d="M.4079895 .16427613C.3600006 .08824158 .31698609 .05921936 .25299073 .05921936 .19599915 .05921936 .15299988 .08824158 .12399292 .14526367 .10598755 .18328858 .09899902 .2163086 .09700012 .27734376H.40499879C.39698792 .34222413 .3869934 .37112428 .3619995 .40301515 .33198548 .43894959 .28599549 .45996095 .23399353 .45996095 .18399048 .45996095 .13699341 .44195558 .09899902 .40800477 .051986696 .36714173 .024993897 .29634095 .024993897 .21430969 .024993897 .07623291 .09700012-.009765625 .21199036-.009765625 .30699159-.009765625 .38198854 .049224855 .42399598 .15727234L.4079895 .16427613M.09899902 .30934144C.10998535 .3870697 .14399719 .4239502 .20498657 .4239502 .2659912 .4239502 .2899933 .39604188 .30299378 .30934144H.09899902Z"/>
<path id="font_10_181" d="M.008987427 .39320375C.017990113 .39419557 .024993897 .39419557 .033996583 .39419557 .067993167 .39419557 .07499695 .38420106 .07499695 .33720399V-.13079834C.07499695-.1828003 .06399536-.19380188 .004989624-.19979859V-.21679688H.24699402V-.19880677C.17199707-.19779969 .15899658-.1867981 .15899658-.123794559V.033218385C.19400025 .00022888184 .21798706-.009765625 .2599945-.009765625 .37799073-.009765625 .46998597 .10217285 .46998597 .24707031 .46998597 .37097169 .3999939 .45996095 .30299378 .45996095 .24699402 .45996095 .20298767 .43495179 .15899658 .3809662V.45794679L.15299988 .45996095C.09899902 .43894959 .06399536 .4259491 .008987427 .4089508V.39320375M.15899658 .33399964C.15899658 .36398316 .21499634 .39994813 .26098634 .39994813 .33499146 .39994813 .38398744 .32400514 .38398744 .2080841 .38398744 .09716797 .33499146 .022232056 .2630005 .022232056 .21598816 .022232056 .15899658 .05819702 .15899658 .08818054V.33399964Z"/>
<path id="font_10_184" d="M.31498719 .31419374 .31098939 .4501953H.2999878L.2979889 .44818116C.2889862 .44119264 .28799439 .44018556 .28399659 .44018556 .27799989 .44018556 .2679901 .44218446 .25698854 .44718934 .23498535 .4549713 .21299744 .45898438 .18699646 .45898438 .10798645 .45898438 .050994874 .4079895 .050994874 .33602906 .050994874 .28007508 .08299255 .24009705 .16799927 .19212342L.22599793 .15913391C.26098634 .1391449 .27799989 .11515808 .27799989 .08418274 .27799989 .04020691 .24598694 .01222229 .19499207 .01222229 .16099549 .01222229 .12998963 .025222779 .11099243 .047210695 .08999634 .07218933 .08099365 .095184329 .067993167 .15214539H.051986696V-.003768921H.06498718C.07199097 .006225586 .07598877 .008224487 .08799744 .008224487 .09700012 .0079956059 .11099243 .005996704 .13398743 0 .1619873-.0057678224 .18899536-.009765625 .20698548-.009765625 .28399659-.009765625 .34799195 .048202516 .34799195 .11816406 .34799195 .1681366 .32398988 .20111084 .2639923 .23709107L.1559906 .3010559C.12799073 .31704713 .11299133 .34202577 .11299133 .36901856 .11299133 .40899659 .14399719 .4369812 .18998719 .4369812 .24699402 .4369812 .2769928 .40299989 .2999878 .31404115L.31498719 .31419374Z"/>
<path id="font_10_244" d="M.29499818 .67578127C.22099304 .6277771 .19099427 .6017761 .1539917 .5557709 .08299255 .46878053 .04798889 .3687744 .04798889 .25177003 .04798889 .12477112 .084991458 .026779175 .17298889-.07522583 .21398926-.12322998 .23999024-.14523316 .2919922-.17723084L.3039856-.16122437C.22399903-.098220828 .19599915-.06323242 .16899109 .011779785 .14498902 .07876587 .13398743 .1547699 .13398743 .254776 .13398743 .35977174 .14698792 .44177247 .17399597 .5037689 .20199585 .56578066 .23199463 .6017761 .3039856 .6597748L.29499818 .67578127Z"/>
<path id="font_10_145" d="M.673996 .5730896V.120010379C.673996 .037002565 .6619873 .023986817 .58299258 .018997193V0H.86299136V.018997193C.7899933 .023986817 .776001 .037994386 .776001 .10900879V.5530853C.776001 .62409976 .78900149 .6371002 .86299136 .6430969V.6621094H.6639862L.44299317 .15701294 .21199036 .6621094H.01399231V.6430969C.09599304 .6381073 .10899353 .62609866 .10899353 .5530853V.14701844C.10899353 .04399109 .09498596 .024993897 .011993408 .018997193V0H.24699402V.018997193C.16999817 .022994996 .15299988 .04598999 .15299988 .14701844V.5500946L.4039917 0H.41799928L.673996 .5730896Z"/>
<path id="font_10_245" d="M.037994386-.17723084C.11199951-.12922669 .14199829-.10322571 .1789856-.05722046 .25 .029769898 .2849884 .129776 .2849884 .24676514 .2849884 .37477113 .24798584 .47177125 .1599884 .57377627 .11898804 .6217804 .09298706 .6437683 .040985109 .67578127L.0289917 .6597748C.10899353 .59677127 .13598633 .5617676 .1639862 .48677064 .18798828 .4197693 .19898987 .34378053 .19898987 .24377442 .19898987 .13977051 .18598938 .056777955 .15899658-.0042266848 .1309967-.067230228 .100997928-.10322571 .0289917-.16122437L.037994386-.17723084Z"/>
<clipPath id="clip_11">
<path transform="matrix(1,0,0,-1,0,119.21176)" d="M34.72845 26.338238H173.26828V107.39952H34.72845Z"/>
</clipPath>
<clipPath id="clip_12">
<path transform="matrix(1,0,0,-1,0,119.21176)" d="M34.72845 26.338238H173.26828V107.39952H34.72845Z"/>
</clipPath>
<clipPath id="clip_13">
<path transform="matrix(1,0,0,-1,0,119.21176)" d="M34.72845 26.338238H173.26828V107.39952H34.72845Z"/>
</clipPath>
<clipPath id="clip_14">
<path transform="matrix(1,0,0,-1,0,119.21176)" d="M34.72845 26.338238H173.26828V107.39952H34.72845Z"/>
</clipPath>
<path id="font_4_56" d="M.1499939 .3274536C.1499939 .40945436 .15699768 .48303224 .19499207 .543869 .22898865 .5978699 .2829895 .63505557 .34700013 .63505557 .3769989 .63505557 .4169922 .62701418 .43699647 .5998688 .4119873 .5978699 .3909912 .5808716 .3909912 .5518799 .3909912 .5268707 .4079895 .5048828 .43798829 .5048828 .46798707 .5048828 .48599244 .5248718 .48599244 .5538788 .48599244 .6119385 .44400025 .6640625 .34498597 .6640625 .20098877 .6640625 .053985597 .5318756 .053985597 .3174591 .053985597 .05845642 .17599488-.01953125 .28599549-.01953125 .4079895-.01953125 .5139923 .07345581 .5139923 .20445252 .5139923 .33145143 .41299439 .42546083 .29599 .42546083 .21598816 .42546083 .17199707 .37245179 .1499939 .3274536M.28599549 .012466431C.23599243 .012466431 .19699097 .04145813 .17599488 .08546448 .16099549 .11546326 .15299988 .16545105 .15299988 .22544861 .15299988 .32244874 .21099854 .39746095 .29100038 .39746095 .33699037 .39746095 .36799623 .37945558 .3929901 .342453 .4169922 .30445863 .41799928 .26245118 .41799928 .20445252 .41799928 .14746094 .41799928 .10545349 .3909912 .066467288 .36698915 .031463624 .33499146 .012466431 .28599549 .012466431Z"/>
<path id="font_15_96" d="M.25698854 .69433596 .11898804 .55908206 .13699341 .53808596 .25698854 .639328 .37599183 .53808596 .3939972 .55908206 .25698854 .69433596Z"/>
<path id="font_16_75" d="M.5519867 .6096039C.55999758 .6436157 .56199648 .6516113 .6179962 .6516113 .6299896 .6516113 .6429901 .6516113 .6429901 .6696167 .6429901 .6706085 .6429901 .6826172 .6279907 .6826172 .62098696 .6826172 .5799866 .680603 .57398989 .680603 .5669861 .6796112 .5349884 .6796112 .5149994 .6796112 .4909973 .6796112 .46499635 .680603 .44099427 .680603 .4169922 .680603 .3929901 .6826172 .36999513 .6826172 .3619995 .6826172 .34899903 .6826172 .34899903 .6646118 .34899903 .6516113 .35899354 .6516113 .3829956 .6516113 .3880005 .6516113 .4149933 .6516113 .43998719 .64860537 .46398927 .64660647 .47099305 .64460757 .47099305 .62960818 .47099305 .62260439 .46899415 .61660769 .46798707 .6116028L.35099793 .1465149C.32798768 .055511476 .2599945 .002532959 .20799256 .002532959 .1749878 .002532959 .12599182 .016525269 .11099243 .061523439 .11299133 .060516359 .114990238 .060516359 .12199402 .060516359 .1619873 .060516359 .18699646 .09552002 .18699646 .12451172 .18699646 .1505127 .16699219 .16651917 .14199829 .16651917 .11999512 .16651917 .07598877 .1505127 .07598877 .087509158 .07598877 .022521973 .13198853-.022460938 .20999146-.022460938 .30599977-.022460938 .4099884 .043518068 .43499757 .14251709L.5519867 .6096039Z"/>
<path id="font_15_41" d="M.34098817-.23803711C.34098817-.23303223 .33799745-.23002625 .33198548-.22303772 .20298767-.105026248 .1639862 .07498169 .1639862 .24996948 .1639862 .40498353 .19400025 .59298709 .33499146 .72698977 .33898927 .73098757 .34098817 .73399356 .34098817 .7389984 .34098817 .74598696 .33599855 .75 .32899476 .75 .31698609 .75 .22698975 .6779785 .17298889 .568985 .125 .47297669 .100997928 .36997987 .100997928 .25097657 .100997928 .17897034 .10998535 .064971927 .16499329-.053024293 .22399903-.17602539 .31698609-.24902344 .32899476-.24902344 .33599855-.24902344 .34098817-.24502564 .34098817-.23803711Z"/>
<path id="font_16_26" d="M.272995 .36865235H.3869934C.37199403 .30575563 .34599305 .20193482 .34599305 .11906433 .34599305 .112075809 .34599305 .075149539 .35499574 .03919983 .36499024 .0012512207 .37399293-.0107421879 .3939972-.0107421879 .4149933-.0107421879 .43699647 .007247925 .43699647 .030212403 .43699647 .037200929 .43598939 .04020691 .42999269 .05317688 .39898683 .123062137 .39898683 .19694519 .39898683 .21990967 .39898683 .24485779 .39898683 .28878785 .41600038 .36865235H.5329895C.54599 .36865235 .58299258 .36865235 .58299258 .4046631 .58299258 .43066407 .5609894 .43066407 .5419922 .43066407H.19599915C.17199707 .43066407 .13699341 .43066407 .08999634 .38365174 .06298828 .3566742 .026992798 .30177308 .026992798 .29377748 .026992798 .2828064 .037994386 .2828064 .040985109 .2828064 .04899597 .2828064 .050994874 .28479005 .056991579 .29478456 .10598755 .36865235 .16699219 .36865235 .18699646 .36865235H.24398804C.20098877 .21791077 .13198853 .07614136 .125 .061172487 .117996219 .047195436 .10798645 .026229859 .10798645 .018234253 .10798645 .0052490236 .116989139-.0107421879 .13899231-.0107421879 .1749878-.0107421879 .18399048 .025222779 .20498657 .10609436L.272995 .36865235Z"/>
<path id="font_15_42" d="M.2979889 .25097657C.2979889 .3329773 .28599549 .4429779 .23399353 .5539856 .1749878 .6769867 .08198547 .75 .069992069 .75 .05999756 .75 .057998659 .74198916 .057998659 .7389984 .057998659 .73399356 .05999756 .73098757 .066986087 .72398379 .125 .6719818 .23498535 .5359802 .23498535 .25097657 .23498535 .10797119 .20899964-.091033939 .06399536-.22602844 .06199646-.22903443 .057998659-.23303223 .057998659-.23803711 .057998659-.24102783 .05999756-.24902344 .069992069-.24902344 .08198547-.24902344 .17199707-.17703247 .22599793-.06802368 .27398683 .02796936 .2979889 .13098145 .2979889 .25097657Z"/>
<clipPath id="clip_17">
<path transform="matrix(1,0,0,-1,0,119.21176)" d="M34.72845 26.338238H173.26828V107.39952H34.72845Z"/>
</clipPath>
<clipPath id="clip_18">
<path transform="matrix(1,0,0,-1,34.72845,89.15456)" d="M-1.75-1.75H1.75V1.75H-1.75Z"/>
</clipPath>
<clipPath id="clip_19">
<path transform="matrix(1,0,0,-1,44.647638,86.65268)" d="M-1.75-1.75H1.75V1.75H-1.75Z"/>
</clipPath>
<clipPath id="clip_20">
<path transform="matrix(1,0,0,-1,54.544126,56.12323)" d="M-1.75-1.75H1.75V1.75H-1.75Z"/>
</clipPath>
<clipPath id="clip_21">
<path transform="matrix(1,0,0,-1,64.44061,42.477685)" d="M-1.75-1.75H1.75V1.75H-1.75Z"/>
</clipPath>
<clipPath id="clip_22">
<path transform="matrix(1,0,0,-1,74.3371,24.298724)" d="M-1.75-1.75H1.75V1.75H-1.75Z"/>
</clipPath>
<clipPath id="clip_23">
<path transform="matrix(1,0,0,-1,84.23358,21.66681)" d="M-1.75-1.75H1.75V1.75H-1.75Z"/>
</clipPath>
<clipPath id="clip_24">
<path transform="matrix(1,0,0,-1,94.130069,18.196583)" d="M-1.75-1.75H1.75V1.75H-1.75Z"/>
</clipPath>
<clipPath id="clip_25">
<path transform="matrix(1,0,0,-1,104.02655,18.190054)" d="M-1.75-1.75H1.75V1.75H-1.75Z"/>
</clipPath>
<clipPath id="clip_26">
<path transform="matrix(1,0,0,-1,113.923038,17.789002)" d="M-1.75-1.75H1.75V1.75H-1.75Z"/>
</clipPath>
<clipPath id="clip_27">
<path transform="matrix(1,0,0,-1,123.81952,16.217995)" d="M-1.75-1.75H1.75V1.75H-1.75Z"/>
</clipPath>
<clipPath id="clip_28">
<path transform="matrix(1,0,0,-1,133.716,18.222537)" d="M-1.75-1.75H1.75V1.75H-1.75Z"/>
</clipPath>
<clipPath id="clip_29">
<path transform="matrix(1,0,0,-1,143.61249,19.000592)" d="M-1.75-1.75H1.75V1.75H-1.75Z"/>
</clipPath>
<clipPath id="clip_30">
<path transform="matrix(1,0,0,-1,153.50897,18.153733)" d="M-1.75-1.75H1.75V1.75H-1.75Z"/>
</clipPath>
<clipPath id="clip_31">
<path transform="matrix(1,0,0,-1,163.40546,16.863728)" d="M-1.75-1.75H1.75V1.75H-1.75Z"/>
</clipPath>
<clipPath id="clip_32">
<path transform="matrix(1,0,0,-1,0,119.21176)" d="M34.72845 26.338238H173.26828V107.39952H34.72845Z"/>
</clipPath>
<clipPath id="clip_33">
<path transform="matrix(1,0,0,-1,34.72845,89.150058)" d="M-1.75-1.75H1.75V1.75H-1.75Z"/>
</clipPath>
<clipPath id="clip_34">
<path transform="matrix(1,0,0,-1,54.544126,64.66663)" d="M-1.75-1.75H1.75V1.75H-1.75Z"/>
</clipPath>
<clipPath id="clip_35">
<path transform="matrix(1,0,0,-1,74.3371,54.932676)" d="M-1.75-1.75H1.75V1.75H-1.75Z"/>
</clipPath>
<clipPath id="clip_36">
<path transform="matrix(1,0,0,-1,94.13007,51.047525)" d="M-1.75-1.75H1.75V1.75H-1.75Z"/>
</clipPath>
<clipPath id="clip_37">
<path transform="matrix(1,0,0,-1,113.92305,44.437334)" d="M-1.75-1.75H1.75V1.75H-1.75Z"/>
</clipPath>
<clipPath id="clip_38">
<path transform="matrix(1,0,0,-1,133.71602,44.037927)" d="M-1.75-1.75H1.75V1.75H-1.75Z"/>
</clipPath>
<clipPath id="clip_39">
<path transform="matrix(1,0,0,-1,153.50899,38.18847)" d="M-1.75-1.75H1.75V1.75H-1.75Z"/>
</clipPath>
<clipPath id="clip_40">
<path transform="matrix(1,0,0,-1,163.40547,38.18847)" d="M-1.75-1.75H1.75V1.75H-1.75Z"/>
</clipPath>
<path id="font_10_189" d="M.27799989 0H.47898866V.01499939C.44799806 .01499939 .42799378 .0309906 .39698792 .07501221L.2689972 .2711029 .35198976 .39115907C.37098695 .41818238 .40098573 .43418885 .43299867 .43518067V.4501953H.2749939V.43518067C.30499269 .43318177 .31498719 .42718507 .31498719 .4131775 .31498719 .40116883 .30299378 .37916566 .27799989 .34814454 .272995 .34214784 .26098634 .3241272 .24798584 .30412293L.23399353 .3241272C.20599365 .3661499 .18798828 .40016175 .18798828 .4131775 .18798828 .42718507 .20098877 .43418885 .23098755 .43518067V.4501953H.023986817V.43518067H.032989503C.06298828 .43518067 .07899475 .42218019 .10998535 .3751526L.20399475 .23109436 .08999634 .06600952C.05999756 .024993897 .049987794 .017990113 .016998291 .01499939V0H.1619873V.01499939C.13398743 .01499939 .12199402 .019989014 .12199402 .03300476 .12199402 .039001466 .1289978 .054000856 .14199829 .074020389L.22099304 .19706726 .31199647 .057006837C.31599427 .05101013 .31799317 .04499817 .31799317 .039001466 .31799317 .020996094 .31098939 .016998291 .27799989 .01499939V0Z"/>
<path id="font_10_205" d="M.15299988 .33003236C.21199036 .33003236 .23498535 .32803346 .25898744 .31904603 .32099916 .29707337 .3600006 .2401123 .3600006 .17118836 .3600006 .087265018 .30299378 .022323609 .22898865 .022323609 .20199585 .022323609 .18199158 .029312134 .14498902 .05329895 .114990238 .0712738 .09799194 .07826233 .08099365 .07826233 .057998659 .07826233 .042999269 .06428528 .042999269 .043304445 .042999269 .00831604 .085998538-.013671875 .1559906-.013671875 .23298645-.013671875 .31199647 .012313843 .35899354 .05329895 .4059906 .09425354 .43199159 .15220642 .43199159 .21913147 .43199159 .27009584 .41600038 .31704713 .3869934 .34802247 .36698915 .36999513 .34799195 .38198854 .3039856 .40097047 .37298585 .44792176 .397995 .4848938 .397995 .5388489 .397995 .61976626 .33399964 .67578127 .24198914 .67578127 .19198609 .67578127 .147995 .6587677 .11199951 .62677 .08198547 .5997925 .066986087 .57380679 .04499817 .51387026L.05999756 .50987246C.100997928 .58280947 .1459961 .61576846 .20899964 .61576846 .27398683 .61576846 .31900025 .57180789 .31900025 .50886538 .31900025 .4729004 .3039856 .43693543 .2789917 .4119568 .24899292 .38198854 .22099304 .3670044 .15299988 .34301759V.33003236Z"/>
<path id="font_10_222" d="M.125 .100250247C.09498596 .100250247 .069992069 .07424927 .069992069 .04324341 .069992069 .014251709 .09498596-.0107421879 .12399292-.0107421879 .15499878-.0107421879 .18099976 .014251709 .18099976 .04324341 .18099976 .07424927 .15499878 .100250247 .125 .100250247Z"/>
<path id="font_10_209" d="M.44898988 .6621094H.07899475L.019989014 .5151062 .036987306 .5071106C.07998657 .57510378 .09799194 .58810427 .15299988 .58810427H.36999513L.17199707-.0078125H.23699951L.44898988 .6461029V.6621094Z"/>
<path id="font_41_26" d="M.31098939 .36265565H.42999269C.4149933 .30274964 .3929901 .2118988 .3929901 .13302613 .3929901 .09309387 .397995 .06613159 .4039917 .044174196 .41999818-.0057678224 .43299867-.009765625 .44898988-.009765625 .47200013-.009765625 .49598695 .011230469 .49598695 .035186769 .49598695 .043182374 .49398805 .047164918 .48799134 .057159425 .46899415 .09408569 .45098878 .15100098 .45098878 .23286438 .45098878 .25183106 .45098878 .29177857 .46499635 .36265565H.58999636C.60798647 .36265565 .6159973 .36265565 .6269989 .37065126 .6409912 .380661 .6439972 .39665223 .6439972 .4016571 .6439972 .43066407 .6179962 .43066407 .6009979 .43066407H.22399903C.18299866 .43066407 .15499878 .42166139 .10998535 .37965394 .083999637 .35665895 .04499817 .30274964 .04499817 .2937622 .04499817 .28178407 .057998659 .28178407 .06199646 .28178407 .07299805 .28178407 .07398987 .28378297 .07998657 .2927704 .1309967 .36265565 .19299317 .36265565 .21499634 .36265565H.27598573C.24499512 .25283814 .19099427 .13502503 .16099549 .07511902 .15499878 .062149049 .14498902 .04118347 .14199829 .03718567 .14099121 .033187868 .13899231 .029190064 .13899231 .022201539 .13899231 .006225586 .15098572-.009765625 .17399597-.009765625 .21398926-.009765625 .22499085 .035186769 .24899292 .12504578L.31098939 .36265565Z"/>
<path id="font_10_241" d="M.038986207 .25683595V.1938324H.2849884V.25683595H.038986207Z"/>
<path id="font_10_137" d="M.5970001 .16905213H.56900027C.5189972 .06100464 .47599793 .036987306 .33299256 .036987306H.30599977C.25698854 .036987306 .21499634 .041992189 .20799256 .04899597 .20298767 .052001954 .20098877 .06300354 .20098877 .08001709V.32714845H.35499574C.43699647 .32714845 .45199586 .3141327 .46499635 .23109436H.48799134V.4631195H.46499635C.45799256 .4221344 .45399476 .407135 .44299317 .3931427 .42999269 .3761444 .4019928 .36813355 .35499574 .36813355H.20098877V.59010317C.20098877 .618103 .20698548 .62409976 .23399353 .62409976H.36898805C.48199464 .62409976 .5039978 .60910037 .5209961 .51911929H.54599L.54299929 .6621094H.011993408V.6430969C.085998538 .6371002 .09899902 .6231079 .09899902 .5530853V.10900879C.09899902 .039001466 .084991458 .023986817 .011993408 .018997193V0H.5519867L.5970001 .16905213Z"/>
<path id="font_10_180" d="M.25 .45996095C.11999512 .45996095 .0289917 .3639984 .0289917 .22608948 .0289917 .09118652 .12199402-.009765625 .24798584-.009765625 .37399293-.009765625 .46998597 .09617615 .46998597 .23408509 .46998597 .3650055 .37799073 .45996095 .25 .45996095M.23699951 .4319458C.32099916 .4319458 .37998963 .3360138 .37998963 .19911194 .37998963 .08618164 .33499146 .018234253 .2599945 .018234253 .22099304 .018234253 .18399048 .04220581 .16299439 .08218384 .1349945 .13415528 .11898804 .20410156 .11898804 .27505494 .11898804 .36999513 .1659851 .4319458 .23699951 .4319458Z"/>
<path id="font_10_148" d="M.20199585 .29107667C.22799683 .28907777 .24499512 .28808595 .2709961 .28808595 .34899903 .28808595 .40299989 .29808045 .44599916 .32208253 .5059967 .3540802 .5419922 .41508485 .5419922 .48109437 .5419922 .52308657 .5279999 .5610962 .5009918 .59010317 .46099855 .63409426 .37399293 .6621094 .27999879 .6621094H.015991211V.6430969C.08999634 .6351013 .099990848 .6251068 .099990848 .5530853V.120010379C.099990848 .035995485 .09199524 .026000977 .015991211 .018997193V0H.29599V.018997193C.21699524 .021987915 .20199585 .035995485 .20199585 .10900879V.29107667M.20199585 .591095C.20199585 .618103 .20899964 .6251068 .23599243 .6251068 .37098695 .6251068 .43299867 .5780945 .43299867 .4750824 .43299867 .37808229 .37399293 .32807923 .25898744 .32807923 .23899842 .32807923 .22499085 .32907105 .20199585 .3310852V.591095Z"/>
<path id="font_10_147" d="M.36099244 .67578127C.16999817 .67578127 .033996583 .53186038 .033996583 .33103944 .033996583 .23712158 .06599426 .14620972 .11999512 .088256839 .17799378 .025314331 .2669983-.013671875 .35499574-.013671875 .5519867-.013671875 .6879883 .1262207 .6879883 .32704164 .6879883 .42596437 .6589966 .5108795 .60398867 .5708313 .54100039 .6397705 .45700074 .67578127 .36099244 .67578127M.36099244 .6397705C.40699769 .6397705 .45298768 .6217804 .4889984 .58981326 .54299929 .54086306 .57398989 .4469452 .57398989 .3280487 .57398989 .269104 .5609894 .2001648 .54100039 .14820862 .5319977 .12322998 .5149994 .09825134 .49198915 .07527161 .45700074 .040298463 .4119873 .022323609 .35899354 .022323609 .31298829 .022323609 .2679901 .040298463 .23298645 .0712738 .18099976 .11723328 .147995 .21813965 .147995 .32904054 .147995 .43095399 .17599488 .52786257 .21798706 .5748291 .25698854 .6177826 .30599977 .6397705 .36099244 .6397705Z"/>
</defs>
<path transform="matrix(1,0,0,-1,0,119.21176)" d="M0 0H178.31952V119.21176H0Z" fill="#ffffff"/>
<path transform="matrix(1,0,0,-1,0,119.21176)" d="M34.72845 26.338238H173.26828V107.39952H34.72845Z" fill="#ffffff"/>
<g clip-path="url(#clip_1)">
<path transform="matrix(1,0,0,-1,0,119.21176)" d="M34.72845 30.022843 44.647638 32.447679 54.544126 63.00395 64.44061 75.85506 74.3371 92.97645 84.23359 97.0888 94.13007 99.64045 104.026569 100.25366 113.92305 100.19913 123.819538 102.27261 133.71602 99.21476 143.61252 99.719 153.509 100.422267 163.40549 102.19841V102.49766L153.509 101.693798 143.61252 100.70334 133.71602 102.76369 123.819538 103.71491 113.92305 102.646389 104.026569 101.78975 94.13007 102.38991 84.23359 98.0011 74.3371 96.849628 64.44061 77.61309 54.544126 63.17311 44.647638 32.670484 34.72845 30.091574Z" fill="#5f4690" fill-opacity=".15"/>
</g>
<g clip-path="url(#clip_2)">
<path transform="matrix(1,0,0,-1,0,119.21176)" d="M34.72845 30.040919 54.544126 53.130487 74.3371 63.554285 94.13007 67.21292 113.92305 73.279659 133.71602 74.19867 153.509 79.51813H163.40549V82.52846H153.509L133.71602 76.149 113.92305 76.2692 94.13007 69.115558 74.3371 65.00389 54.544126 55.95977 34.72845 30.082503Z" fill="#1d6996" fill-opacity=".15"/>
</g>
<g clip-path="url(#clip_3)">
<path transform="matrix(1,0,0,-1,0,119.21176)" stroke-width=".5" stroke-linecap="square" stroke-linejoin="round" fill="none" stroke="#dcdcdc" d="M34.72845 26.338238V107.39952"/>
</g>
<path transform="matrix(1,0,0,-1,0,119.21176)" d="M34.72845 26.338238V22.838238"/>
<path transform="matrix(1,0,0,-1,0,119.21176)" stroke-width=".8" stroke-linecap="butt" stroke-linejoin="round" fill="none" stroke="#000000" d="M34.72845 26.338238V22.838238"/>
<use data-text="0" xlink:href="#font_4_50" transform="matrix(6.973848,0,0,-6.973848,32.742834,104.601718)"/>
<g clip-path="url(#clip_5)">
<path transform="matrix(1,0,0,-1,0,119.21176)" stroke-width=".5" stroke-linecap="square" stroke-linejoin="round" fill="none" stroke="#dcdcdc" d="M62.436418 26.338238V107.39952"/>
</g>
<path transform="matrix(1,0,0,-1,0,119.21176)" d="M62.436418 26.338238V22.838238"/>
<path transform="matrix(1,0,0,-1,0,119.21176)" stroke-width=".8" stroke-linecap="butt" stroke-linejoin="round" fill="none" stroke="#000000" d="M62.436418 26.338238V22.838238"/>
<use data-text="1" xlink:href="#font_4_51" transform="matrix(6.973848,0,0,-6.973848,58.46518,104.601718)"/>
<use data-text="0" xlink:href="#font_4_50" transform="matrix(6.973848,0,0,-6.973848,62.4333,104.601718)"/>
<g clip-path="url(#clip_6)">
<path transform="matrix(1,0,0,-1,0,119.21176)" stroke-width=".5" stroke-linecap="square" stroke-linejoin="round" fill="none" stroke="#dcdcdc" d="M90.14439 26.338238V107.39952"/>
</g>
<path transform="matrix(1,0,0,-1,0,119.21176)" d="M90.14439 26.338238V22.838238"/>
<path transform="matrix(1,0,0,-1,0,119.21176)" stroke-width=".8" stroke-linecap="butt" stroke-linejoin="round" fill="none" stroke="#000000" d="M90.14439 26.338238V22.838238"/>
<use data-text="2" xlink:href="#font_4_52" transform="matrix(6.973848,0,0,-6.973848,86.17315,104.601718)"/>
<use data-text="0" xlink:href="#font_4_50" transform="matrix(6.973848,0,0,-6.973848,90.141269,104.601718)"/>
<g clip-path="url(#clip_7)">
<path transform="matrix(1,0,0,-1,0,119.21176)" stroke-width=".5" stroke-linecap="square" stroke-linejoin="round" fill="none" stroke="#dcdcdc" d="M117.85235 26.338238V107.39952"/>
</g>
<path transform="matrix(1,0,0,-1,0,119.21176)" d="M117.85235 26.338238V22.838238"/>
<path transform="matrix(1,0,0,-1,0,119.21176)" stroke-width=".8" stroke-linecap="butt" stroke-linejoin="round" fill="none" stroke="#000000" d="M117.85235 26.338238V22.838238"/>
<use data-text="3" xlink:href="#font_4_53" transform="matrix(6.973848,0,0,-6.973848,113.88111,104.601718)"/>
<use data-text="0" xlink:href="#font_4_50" transform="matrix(6.973848,0,0,-6.973848,117.84923,104.601718)"/>
<g clip-path="url(#clip_8)">
<path transform="matrix(1,0,0,-1,0,119.21176)" stroke-width=".5" stroke-linecap="square" stroke-linejoin="round" fill="none" stroke="#dcdcdc" d="M145.56032 26.338238V107.39952"/>
</g>
<path transform="matrix(1,0,0,-1,0,119.21176)" d="M145.56032 26.338238V22.838238"/>
<path transform="matrix(1,0,0,-1,0,119.21176)" stroke-width=".8" stroke-linecap="butt" stroke-linejoin="round" fill="none" stroke="#000000" d="M145.56032 26.338238V22.838238"/>
<use data-text="4" xlink:href="#font_4_54" transform="matrix(6.973848,0,0,-6.973848,141.58908,104.601718)"/>
<use data-text="0" xlink:href="#font_4_50" transform="matrix(6.973848,0,0,-6.973848,145.5572,104.601718)"/>
<g clip-path="url(#clip_9)">
<path transform="matrix(1,0,0,-1,0,119.21176)" stroke-width=".5" stroke-linecap="square" stroke-linejoin="round" fill="none" stroke="#dcdcdc" d="M173.26828 26.338238V107.39952"/>
</g>
<path transform="matrix(1,0,0,-1,0,119.21176)" d="M173.26828 26.338238V22.838238"/>
<path transform="matrix(1,0,0,-1,0,119.21176)" stroke-width=".8" stroke-linecap="butt" stroke-linejoin="round" fill="none" stroke="#000000" d="M173.26828 26.338238V22.838238"/>
<use data-text="5" xlink:href="#font_4_55" transform="matrix(6.973848,0,0,-6.973848,169.29705,104.601718)"/>
<use data-text="0" xlink:href="#font_4_50" transform="matrix(6.973848,0,0,-6.973848,173.26517,104.601718)"/>
<use data-text="T" xlink:href="#font_10_152" transform="matrix(8.966376,0,0,-8.966376,69.787548,116.19061)"/>
<use data-text="r" xlink:href="#font_10_183" transform="matrix(8.966376,0,0,-8.966376,74.94322,116.19061)"/>
<use data-text="a" xlink:href="#font_10_166" transform="matrix(8.966376,0,0,-8.966376,77.92006,116.19061)"/>
<use data-text="i" xlink:href="#font_10_174" transform="matrix(8.966376,0,0,-8.966376,81.892169,116.19061)"/>
<use data-text="n" xlink:href="#font_10_179" transform="matrix(8.966376,0,0,-8.966376,84.375858,116.19061)"/>
<use data-text="i" xlink:href="#font_10_174" transform="matrix(8.966376,0,0,-8.966376,88.85904,116.19061)"/>
<use data-text="n" xlink:href="#font_10_179" transform="matrix(8.966376,0,0,-8.966376,91.34273,116.19061)"/>
<use data-text="g" xlink:href="#font_10_172" transform="matrix(8.966376,0,0,-8.966376,95.82591,116.19061)"/>
<use data-text="S" xlink:href="#font_10_151" transform="matrix(8.966376,0,0,-8.966376,102.55069,116.19061)"/>
<use data-text="t" xlink:href="#font_10_185" transform="matrix(8.966376,0,0,-8.966376,107.52703,116.19061)"/>
<use data-text="e" xlink:href="#font_10_170" transform="matrix(8.966376,0,0,-8.966376,110.01072,116.19061)"/>
<use data-text="p" xlink:href="#font_10_181" transform="matrix(8.966376,0,0,-8.966376,113.98283,116.19061)"/>
<use data-text="s" xlink:href="#font_10_184" transform="matrix(8.966376,0,0,-8.966376,118.46601,116.19061)"/>
<use data-text="(" xlink:href="#font_10_244" transform="matrix(8.966376,0,0,-8.966376,124.186557,116.19061)"/>
<use data-text="M" xlink:href="#font_10_145" transform="matrix(8.966376,0,0,-8.966376,127.16339,116.19061)"/>
<use data-text=")" xlink:href="#font_10_245" transform="matrix(8.966376,0,0,-8.966376,135.12554,116.19061)"/>
<g clip-path="url(#clip_11)">
<path transform="matrix(1,0,0,-1,0,119.21176)" stroke-width=".5" stroke-linecap="square" stroke-linejoin="round" fill="none" stroke="#dcdcdc" d="M34.72845 29.658995H173.26828"/>
</g>
<path transform="matrix(1,0,0,-1,0,119.21176)" d="M34.72845 29.658995H31.22845"/>
<path transform="matrix(1,0,0,-1,0,119.21176)" stroke-width=".8" stroke-linecap="butt" stroke-linejoin="round" fill="none" stroke="#000000" d="M34.72845 29.658995H31.22845"/>
<use data-text="0" xlink:href="#font_4_50" transform="matrix(6.973848,0,0,-6.973848,23.757214,91.91686)"/>
<g clip-path="url(#clip_12)">
<path transform="matrix(1,0,0,-1,0,119.21176)" stroke-width=".5" stroke-linecap="square" stroke-linejoin="round" fill="none" stroke="#dcdcdc" d="M34.72845 50.475099H173.26828"/>
</g>
<path transform="matrix(1,0,0,-1,0,119.21176)" d="M34.72845 50.475099H31.22845"/>
<path transform="matrix(1,0,0,-1,0,119.21176)" stroke-width=".8" stroke-linecap="butt" stroke-linejoin="round" fill="none" stroke="#000000" d="M34.72845 50.475099H31.22845"/>
<use data-text="2" xlink:href="#font_4_52" transform="matrix(6.973848,0,0,-6.973848,15.814738,71.10076)"/>
<use data-text="0" xlink:href="#font_4_50" transform="matrix(6.973848,0,0,-6.973848,19.782858,71.10076)"/>
<use data-text="0" xlink:href="#font_4_50" transform="matrix(6.973848,0,0,-6.973848,23.750977,71.10076)"/>
<g clip-path="url(#clip_13)">
<path transform="matrix(1,0,0,-1,0,119.21176)" stroke-width=".5" stroke-linecap="square" stroke-linejoin="round" fill="none" stroke="#dcdcdc" d="M34.72845 71.2912H173.26828"/>
</g>
<path transform="matrix(1,0,0,-1,0,119.21176)" d="M34.72845 71.2912H31.22845"/>
<path transform="matrix(1,0,0,-1,0,119.21176)" stroke-width=".8" stroke-linecap="butt" stroke-linejoin="round" fill="none" stroke="#000000" d="M34.72845 71.2912H31.22845"/>
<use data-text="4" xlink:href="#font_4_54" transform="matrix(6.973848,0,0,-6.973848,15.814738,50.28466)"/>
<use data-text="0" xlink:href="#font_4_50" transform="matrix(6.973848,0,0,-6.973848,19.782858,50.28466)"/>
<use data-text="0" xlink:href="#font_4_50" transform="matrix(6.973848,0,0,-6.973848,23.750977,50.28466)"/>
<g clip-path="url(#clip_14)">
<path transform="matrix(1,0,0,-1,0,119.21176)" stroke-width=".5" stroke-linecap="square" stroke-linejoin="round" fill="none" stroke="#dcdcdc" d="M34.72845 92.1073H173.26828"/>
</g>
<path transform="matrix(1,0,0,-1,0,119.21176)" d="M34.72845 92.1073H31.22845"/>
<path transform="matrix(1,0,0,-1,0,119.21176)" stroke-width=".8" stroke-linecap="butt" stroke-linejoin="round" fill="none" stroke="#000000" d="M34.72845 92.1073H31.22845"/>
<use data-text="6" xlink:href="#font_4_56" transform="matrix(6.973848,0,0,-6.973848,15.814738,29.46856)"/>
<use data-text="0" xlink:href="#font_4_50" transform="matrix(6.973848,0,0,-6.973848,19.782858,29.46856)"/>
<use data-text="0" xlink:href="#font_4_50" transform="matrix(6.973848,0,0,-6.973848,23.750977,29.46856)"/>
<use data-text="&#x02c6;" xlink:href="#font_15_96" transform="matrix(0,-8.966376,-8.966376,-0,7.30665,59.49257)"/>
<use data-text="J" xlink:href="#font_16_75" transform="matrix(0,-8.966376,-8.966376,-0,9.573145,61.69058)"/>
<use data-text="(" xlink:href="#font_15_41" transform="matrix(0,-8.966376,-8.966376,-0,9.573145,55.75868)"/>
<use data-text="&#x03c0;" xlink:href="#font_16_26" transform="matrix(0,-8.966376,-8.966376,-0,9.573145,52.17492)"/>
<use data-text=")" xlink:href="#font_15_42" transform="matrix(0,-8.966376,-8.966376,-0,9.573145,46.57894)"/>
<g clip-path="url(#clip_17)">
<path transform="matrix(1,0,0,-1,0,119.21176)" stroke-width="1" stroke-linecap="round" stroke-linejoin="round" fill="none" stroke="#5f4690" d="M34.72845 30.057208 44.647638 32.559083 54.544126 63.088529 64.44061 76.73408 74.3371 94.91303 84.23359 97.54495 94.13007 101.015178 104.026569 101.021709 113.92305 101.42276 123.819538 102.99377 133.71602 100.98923 143.61252 100.21117 153.509 101.05803 163.40549 102.34803"/>
<g clip-path="url(#clip_18)">
<path transform="matrix(1,0,0,-1,34.72845,89.15456)" d="M0-1.25C.331504-1.25 .649475-1.118292 .883883-.883883 1.118292-.649475 1.25-.331504 1.25 0 1.25 .331504 1.118292 .649475 .883883 .883883 .649475 1.118292 .331504 1.25 0 1.25-.331504 1.25-.649475 1.118292-.883883 .883883-1.118292 .649475-1.25 .331504-1.25 0-1.25-.331504-1.118292-.649475-.883883-.883883-.649475-1.118292-.331504-1.25 0-1.25Z" fill="#5f4690"/>
<path transform="matrix(1,0,0,-1,34.72845,89.15456)" stroke-width=".1" stroke-linecap="butt" stroke-linejoin="round" fill="none" stroke="#5f4690" d="M0-1.25C.331504-1.25 .649475-1.118292 .883883-.883883 1.118292-.649475 1.25-.331504 1.25 0 1.25 .331504 1.118292 .649475 .883883 .883883 .649475 1.118292 .331504 1.25 0 1.25-.331504 1.25-.649475 1.118292-.883883 .883883-1.118292 .649475-1.25 .331504-1.25 0-1.25-.331504-1.118292-.649475-.883883-.883883-.649475-1.118292-.331504-1.25 0-1.25Z"/>
</g>
<g clip-path="url(#clip_19)">
<path transform="matrix(1,0,0,-1,44.647638,86.65268)" d="M0-1.25C.331504-1.25 .649475-1.118292 .883883-.883883 1.118292-.649475 1.25-.331504 1.25 0 1.25 .331504 1.118292 .649475 .883883 .883883 .649475 1.118292 .331504 1.25 0 1.25-.331504 1.25-.649475 1.118292-.883883 .883883-1.118292 .649475-1.25 .331504-1.25 0-1.25-.331504-1.118292-.649475-.883883-.883883-.649475-1.118292-.331504-1.25 0-1.25Z" fill="#5f4690"/>
<path transform="matrix(1,0,0,-1,44.647638,86.65268)" stroke-width=".1" stroke-linecap="butt" stroke-linejoin="round" fill="none" stroke="#5f4690" d="M0-1.25C.331504-1.25 .649475-1.118292 .883883-.883883 1.118292-.649475 1.25-.331504 1.25 0 1.25 .331504 1.118292 .649475 .883883 .883883 .649475 1.118292 .331504 1.25 0 1.25-.331504 1.25-.649475 1.118292-.883883 .883883-1.118292 .649475-1.25 .331504-1.25 0-1.25-.331504-1.118292-.649475-.883883-.883883-.649475-1.118292-.331504-1.25 0-1.25Z"/>
</g>
<g clip-path="url(#clip_20)">
<path transform="matrix(1,0,0,-1,54.544126,56.12323)" d="M0-1.25C.331504-1.25 .649475-1.118292 .883883-.883883 1.118292-.649475 1.25-.331504 1.25 0 1.25 .331504 1.118292 .649475 .883883 .883883 .649475 1.118292 .331504 1.25 0 1.25-.331504 1.25-.649475 1.118292-.883883 .883883-1.118292 .649475-1.25 .331504-1.25 0-1.25-.331504-1.118292-.649475-.883883-.883883-.649475-1.118292-.331504-1.25 0-1.25Z" fill="#5f4690"/>
<path transform="matrix(1,0,0,-1,54.544126,56.12323)" stroke-width=".1" stroke-linecap="butt" stroke-linejoin="round" fill="none" stroke="#5f4690" d="M0-1.25C.331504-1.25 .649475-1.118292 .883883-.883883 1.118292-.649475 1.25-.331504 1.25 0 1.25 .331504 1.118292 .649475 .883883 .883883 .649475 1.118292 .331504 1.25 0 1.25-.331504 1.25-.649475 1.118292-.883883 .883883-1.118292 .649475-1.25 .331504-1.25 0-1.25-.331504-1.118292-.649475-.883883-.883883-.649475-1.118292-.331504-1.25 0-1.25Z"/>
</g>
<g clip-path="url(#clip_21)">
<path transform="matrix(1,0,0,-1,64.44061,42.477685)" d="M0-1.25C.331504-1.25 .649475-1.118292 .883883-.883883 1.118292-.649475 1.25-.331504 1.25 0 1.25 .331504 1.118292 .649475 .883883 .883883 .649475 1.118292 .331504 1.25 0 1.25-.331504 1.25-.649475 1.118292-.883883 .883883-1.118292 .649475-1.25 .331504-1.25 0-1.25-.331504-1.118292-.649475-.883883-.883883-.649475-1.118292-.331504-1.25 0-1.25Z" fill="#5f4690"/>
<path transform="matrix(1,0,0,-1,64.44061,42.477685)" stroke-width=".1" stroke-linecap="butt" stroke-linejoin="round" fill="none" stroke="#5f4690" d="M0-1.25C.331504-1.25 .649475-1.118292 .883883-.883883 1.118292-.649475 1.25-.331504 1.25 0 1.25 .331504 1.118292 .649475 .883883 .883883 .649475 1.118292 .331504 1.25 0 1.25-.331504 1.25-.649475 1.118292-.883883 .883883-1.118292 .649475-1.25 .331504-1.25 0-1.25-.331504-1.118292-.649475-.883883-.883883-.649475-1.118292-.331504-1.25 0-1.25Z"/>
</g>
<g clip-path="url(#clip_22)">
<path transform="matrix(1,0,0,-1,74.3371,24.298724)" d="M0-1.25C.331504-1.25 .649475-1.118292 .883883-.883883 1.118292-.649475 1.25-.331504 1.25 0 1.25 .331504 1.118292 .649475 .883883 .883883 .649475 1.118292 .331504 1.25 0 1.25-.331504 1.25-.649475 1.118292-.883883 .883883-1.118292 .649475-1.25 .331504-1.25 0-1.25-.331504-1.118292-.649475-.883883-.883883-.649475-1.118292-.331504-1.25 0-1.25Z" fill="#5f4690"/>
<path transform="matrix(1,0,0,-1,74.3371,24.298724)" stroke-width=".1" stroke-linecap="butt" stroke-linejoin="round" fill="none" stroke="#5f4690" d="M0-1.25C.331504-1.25 .649475-1.118292 .883883-.883883 1.118292-.649475 1.25-.331504 1.25 0 1.25 .331504 1.118292 .649475 .883883 .883883 .649475 1.118292 .331504 1.25 0 1.25-.331504 1.25-.649475 1.118292-.883883 .883883-1.118292 .649475-1.25 .331504-1.25 0-1.25-.331504-1.118292-.649475-.883883-.883883-.649475-1.118292-.331504-1.25 0-1.25Z"/>
</g>
<g clip-path="url(#clip_23)">
<path transform="matrix(1,0,0,-1,84.23358,21.66681)" d="M0-1.25C.331504-1.25 .649475-1.118292 .883883-.883883 1.118292-.649475 1.25-.331504 1.25 0 1.25 .331504 1.118292 .649475 .883883 .883883 .649475 1.118292 .331504 1.25 0 1.25-.331504 1.25-.649475 1.118292-.883883 .883883-1.118292 .649475-1.25 .331504-1.25 0-1.25-.331504-1.118292-.649475-.883883-.883883-.649475-1.118292-.331504-1.25 0-1.25Z" fill="#5f4690"/>
<path transform="matrix(1,0,0,-1,84.23358,21.66681)" stroke-width=".1" stroke-linecap="butt" stroke-linejoin="round" fill="none" stroke="#5f4690" d="M0-1.25C.331504-1.25 .649475-1.118292 .883883-.883883 1.118292-.649475 1.25-.331504 1.25 0 1.25 .331504 1.118292 .649475 .883883 .883883 .649475 1.118292 .331504 1.25 0 1.25-.331504 1.25-.649475 1.118292-.883883 .883883-1.118292 .649475-1.25 .331504-1.25 0-1.25-.331504-1.118292-.649475-.883883-.883883-.649475-1.118292-.331504-1.25 0-1.25Z"/>
</g>
<g clip-path="url(#clip_24)">
<path transform="matrix(1,0,0,-1,94.130069,18.196583)" d="M0-1.25C.331504-1.25 .649475-1.118292 .883883-.883883 1.118292-.649475 1.25-.331504 1.25 0 1.25 .331504 1.118292 .649475 .883883 .883883 .649475 1.118292 .331504 1.25 0 1.25-.331504 1.25-.649475 1.118292-.883883 .883883-1.118292 .649475-1.25 .331504-1.25 0-1.25-.331504-1.118292-.649475-.883883-.883883-.649475-1.118292-.331504-1.25 0-1.25Z" fill="#5f4690"/>
<path transform="matrix(1,0,0,-1,94.130069,18.196583)" stroke-width=".1" stroke-linecap="butt" stroke-linejoin="round" fill="none" stroke="#5f4690" d="M0-1.25C.331504-1.25 .649475-1.118292 .883883-.883883 1.118292-.649475 1.25-.331504 1.25 0 1.25 .331504 1.118292 .649475 .883883 .883883 .649475 1.118292 .331504 1.25 0 1.25-.331504 1.25-.649475 1.118292-.883883 .883883-1.118292 .649475-1.25 .331504-1.25 0-1.25-.331504-1.118292-.649475-.883883-.883883-.649475-1.118292-.331504-1.25 0-1.25Z"/>
</g>
<g clip-path="url(#clip_25)">
<path transform="matrix(1,0,0,-1,104.02655,18.190054)" d="M0-1.25C.331504-1.25 .649475-1.118292 .883883-.883883 1.118292-.649475 1.25-.331504 1.25 0 1.25 .331504 1.118292 .649475 .883883 .883883 .649475 1.118292 .331504 1.25 0 1.25-.331504 1.25-.649475 1.118292-.883883 .883883-1.118292 .649475-1.25 .331504-1.25 0-1.25-.331504-1.118292-.649475-.883883-.883883-.649475-1.118292-.331504-1.25 0-1.25Z" fill="#5f4690"/>
<path transform="matrix(1,0,0,-1,104.02655,18.190054)" stroke-width=".1" stroke-linecap="butt" stroke-linejoin="round" fill="none" stroke="#5f4690" d="M0-1.25C.331504-1.25 .649475-1.118292 .883883-.883883 1.118292-.649475 1.25-.331504 1.25 0 1.25 .331504 1.118292 .649475 .883883 .883883 .649475 1.118292 .331504 1.25 0 1.25-.331504 1.25-.649475 1.118292-.883883 .883883-1.118292 .649475-1.25 .331504-1.25 0-1.25-.331504-1.118292-.649475-.883883-.883883-.649475-1.118292-.331504-1.25 0-1.25Z"/>
</g>
<g clip-path="url(#clip_26)">
<path transform="matrix(1,0,0,-1,113.923038,17.789002)" d="M0-1.25C.331504-1.25 .649475-1.118292 .883883-.883883 1.118292-.649475 1.25-.331504 1.25 0 1.25 .331504 1.118292 .649475 .883883 .883883 .649475 1.118292 .331504 1.25 0 1.25-.331504 1.25-.649475 1.118292-.883883 .883883-1.118292 .649475-1.25 .331504-1.25 0-1.25-.331504-1.118292-.649475-.883883-.883883-.649475-1.118292-.331504-1.25 0-1.25Z" fill="#5f4690"/>
<path transform="matrix(1,0,0,-1,113.923038,17.789002)" stroke-width=".1" stroke-linecap="butt" stroke-linejoin="round" fill="none" stroke="#5f4690" d="M0-1.25C.331504-1.25 .649475-1.118292 .883883-.883883 1.118292-.649475 1.25-.331504 1.25 0 1.25 .331504 1.118292 .649475 .883883 .883883 .649475 1.118292 .331504 1.25 0 1.25-.331504 1.25-.649475 1.118292-.883883 .883883-1.118292 .649475-1.25 .331504-1.25 0-1.25-.331504-1.118292-.649475-.883883-.883883-.649475-1.118292-.331504-1.25 0-1.25Z"/>
</g>
<g clip-path="url(#clip_27)">
<path transform="matrix(1,0,0,-1,123.81952,16.217995)" d="M0-1.25C.331504-1.25 .649475-1.118292 .883883-.883883 1.118292-.649475 1.25-.331504 1.25 0 1.25 .331504 1.118292 .649475 .883883 .883883 .649475 1.118292 .331504 1.25 0 1.25-.331504 1.25-.649475 1.118292-.883883 .883883-1.118292 .649475-1.25 .331504-1.25 0-1.25-.331504-1.118292-.649475-.883883-.883883-.649475-1.118292-.331504-1.25 0-1.25Z" fill="#5f4690"/>
<path transform="matrix(1,0,0,-1,123.81952,16.217995)" stroke-width=".1" stroke-linecap="butt" stroke-linejoin="round" fill="none" stroke="#5f4690" d="M0-1.25C.331504-1.25 .649475-1.118292 .883883-.883883 1.118292-.649475 1.25-.331504 1.25 0 1.25 .331504 1.118292 .649475 .883883 .883883 .649475 1.118292 .331504 1.25 0 1.25-.331504 1.25-.649475 1.118292-.883883 .883883-1.118292 .649475-1.25 .331504-1.25 0-1.25-.331504-1.118292-.649475-.883883-.883883-.649475-1.118292-.331504-1.25 0-1.25Z"/>
</g>
<g clip-path="url(#clip_28)">
<path transform="matrix(1,0,0,-1,133.716,18.222537)" d="M0-1.25C.331504-1.25 .649475-1.118292 .883883-.883883 1.118292-.649475 1.25-.331504 1.25 0 1.25 .331504 1.118292 .649475 .883883 .883883 .649475 1.118292 .331504 1.25 0 1.25-.331504 1.25-.649475 1.118292-.883883 .883883-1.118292 .649475-1.25 .331504-1.25 0-1.25-.331504-1.118292-.649475-.883883-.883883-.649475-1.118292-.331504-1.25 0-1.25Z" fill="#5f4690"/>
<path transform="matrix(1,0,0,-1,133.716,18.222537)" stroke-width=".1" stroke-linecap="butt" stroke-linejoin="round" fill="none" stroke="#5f4690" d="M0-1.25C.331504-1.25 .649475-1.118292 .883883-.883883 1.118292-.649475 1.25-.331504 1.25 0 1.25 .331504 1.118292 .649475 .883883 .883883 .649475 1.118292 .331504 1.25 0 1.25-.331504 1.25-.649475 1.118292-.883883 .883883-1.118292 .649475-1.25 .331504-1.25 0-1.25-.331504-1.118292-.649475-.883883-.883883-.649475-1.118292-.331504-1.25 0-1.25Z"/>
</g>
<g clip-path="url(#clip_29)">
<path transform="matrix(1,0,0,-1,143.61249,19.000592)" d="M0-1.25C.331504-1.25 .649475-1.118292 .883883-.883883 1.118292-.649475 1.25-.331504 1.25 0 1.25 .331504 1.118292 .649475 .883883 .883883 .649475 1.118292 .331504 1.25 0 1.25-.331504 1.25-.649475 1.118292-.883883 .883883-1.118292 .649475-1.25 .331504-1.25 0-1.25-.331504-1.118292-.649475-.883883-.883883-.649475-1.118292-.331504-1.25 0-1.25Z" fill="#5f4690"/>
<path transform="matrix(1,0,0,-1,143.61249,19.000592)" stroke-width=".1" stroke-linecap="butt" stroke-linejoin="round" fill="none" stroke="#5f4690" d="M0-1.25C.331504-1.25 .649475-1.118292 .883883-.883883 1.118292-.649475 1.25-.331504 1.25 0 1.25 .331504 1.118292 .649475 .883883 .883883 .649475 1.118292 .331504 1.25 0 1.25-.331504 1.25-.649475 1.118292-.883883 .883883-1.118292 .649475-1.25 .331504-1.25 0-1.25-.331504-1.118292-.649475-.883883-.883883-.649475-1.118292-.331504-1.25 0-1.25Z"/>
</g>
<g clip-path="url(#clip_30)">
<path transform="matrix(1,0,0,-1,153.50897,18.153733)" d="M0-1.25C.331504-1.25 .649475-1.118292 .883883-.883883 1.118292-.649475 1.25-.331504 1.25 0 1.25 .331504 1.118292 .649475 .883883 .883883 .649475 1.118292 .331504 1.25 0 1.25-.331504 1.25-.649475 1.118292-.883883 .883883-1.118292 .649475-1.25 .331504-1.25 0-1.25-.331504-1.118292-.649475-.883883-.883883-.649475-1.118292-.331504-1.25 0-1.25Z" fill="#5f4690"/>
<path transform="matrix(1,0,0,-1,153.50897,18.153733)" stroke-width=".1" stroke-linecap="butt" stroke-linejoin="round" fill="none" stroke="#5f4690" d="M0-1.25C.331504-1.25 .649475-1.118292 .883883-.883883 1.118292-.649475 1.25-.331504 1.25 0 1.25 .331504 1.118292 .649475 .883883 .883883 .649475 1.118292 .331504 1.25 0 1.25-.331504 1.25-.649475 1.118292-.883883 .883883-1.118292 .649475-1.25 .331504-1.25 0-1.25-.331504-1.118292-.649475-.883883-.883883-.649475-1.118292-.331504-1.25 0-1.25Z"/>
</g>
<g clip-path="url(#clip_31)">
<path transform="matrix(1,0,0,-1,163.40546,16.863728)" d="M0-1.25C.331504-1.25 .649475-1.118292 .883883-.883883 1.118292-.649475 1.25-.331504 1.25 0 1.25 .331504 1.118292 .649475 .883883 .883883 .649475 1.118292 .331504 1.25 0 1.25-.331504 1.25-.649475 1.118292-.883883 .883883-1.118292 .649475-1.25 .331504-1.25 0-1.25-.331504-1.118292-.649475-.883883-.883883-.649475-1.118292-.331504-1.25 0-1.25Z" fill="#5f4690"/>
<path transform="matrix(1,0,0,-1,163.40546,16.863728)" stroke-width=".1" stroke-linecap="butt" stroke-linejoin="round" fill="none" stroke="#5f4690" d="M0-1.25C.331504-1.25 .649475-1.118292 .883883-.883883 1.118292-.649475 1.25-.331504 1.25 0 1.25 .331504 1.118292 .649475 .883883 .883883 .649475 1.118292 .331504 1.25 0 1.25-.331504 1.25-.649475 1.118292-.883883 .883883-1.118292 .649475-1.25 .331504-1.25 0-1.25-.331504-1.118292-.649475-.883883-.883883-.649475-1.118292-.331504-1.25 0-1.25Z"/>
</g>
</g>
<g clip-path="url(#clip_32)">
<path transform="matrix(1,0,0,-1,0,119.21176)" stroke-width="1" stroke-linecap="round" stroke-linejoin="round" fill="none" stroke="#1d6996" d="M34.72845 30.06171 54.544126 54.545129 74.3371 64.27909 94.13007 68.16424 113.92305 74.77443 133.71602 75.173839 153.509 81.02329H163.40549"/>
<g clip-path="url(#clip_33)">
<path transform="matrix(1,0,0,-1,34.72845,89.150058)" d="M-1.25-1.25H1.25V1.25H-1.25Z" fill="#1d6996"/>
<path transform="matrix(1,0,0,-1,34.72845,89.150058)" stroke-width=".1" stroke-linecap="butt" stroke-miterlimit="10" stroke-linejoin="miter" fill="none" stroke="#1d6996" d="M-1.25-1.25H1.25V1.25H-1.25Z"/>
</g>
<g clip-path="url(#clip_34)">
<path transform="matrix(1,0,0,-1,54.544126,64.66663)" d="M-1.25-1.25H1.25V1.25H-1.25Z" fill="#1d6996"/>
<path transform="matrix(1,0,0,-1,54.544126,64.66663)" stroke-width=".1" stroke-linecap="butt" stroke-miterlimit="10" stroke-linejoin="miter" fill="none" stroke="#1d6996" d="M-1.25-1.25H1.25V1.25H-1.25Z"/>
</g>
<g clip-path="url(#clip_35)">
<path transform="matrix(1,0,0,-1,74.3371,54.932676)" d="M-1.25-1.25H1.25V1.25H-1.25Z" fill="#1d6996"/>
<path transform="matrix(1,0,0,-1,74.3371,54.932676)" stroke-width=".1" stroke-linecap="butt" stroke-miterlimit="10" stroke-linejoin="miter" fill="none" stroke="#1d6996" d="M-1.25-1.25H1.25V1.25H-1.25Z"/>
</g>
<g clip-path="url(#clip_36)">
<path transform="matrix(1,0,0,-1,94.13007,51.047525)" d="M-1.25-1.25H1.25V1.25H-1.25Z" fill="#1d6996"/>
<path transform="matrix(1,0,0,-1,94.13007,51.047525)" stroke-width=".1" stroke-linecap="butt" stroke-miterlimit="10" stroke-linejoin="miter" fill="none" stroke="#1d6996" d="M-1.25-1.25H1.25V1.25H-1.25Z"/>
</g>
<g clip-path="url(#clip_37)">
<path transform="matrix(1,0,0,-1,113.92305,44.437334)" d="M-1.25-1.25H1.25V1.25H-1.25Z" fill="#1d6996"/>
<path transform="matrix(1,0,0,-1,113.92305,44.437334)" stroke-width=".1" stroke-linecap="butt" stroke-miterlimit="10" stroke-linejoin="miter" fill="none" stroke="#1d6996" d="M-1.25-1.25H1.25V1.25H-1.25Z"/>
</g>
<g clip-path="url(#clip_38)">
<path transform="matrix(1,0,0,-1,133.71602,44.037927)" d="M-1.25-1.25H1.25V1.25H-1.25Z" fill="#1d6996"/>
<path transform="matrix(1,0,0,-1,133.71602,44.037927)" stroke-width=".1" stroke-linecap="butt" stroke-miterlimit="10" stroke-linejoin="miter" fill="none" stroke="#1d6996" d="M-1.25-1.25H1.25V1.25H-1.25Z"/>
</g>
<g clip-path="url(#clip_39)">
<path transform="matrix(1,0,0,-1,153.50899,38.18847)" d="M-1.25-1.25H1.25V1.25H-1.25Z" fill="#1d6996"/>
<path transform="matrix(1,0,0,-1,153.50899,38.18847)" stroke-width=".1" stroke-linecap="butt" stroke-miterlimit="10" stroke-linejoin="miter" fill="none" stroke="#1d6996" d="M-1.25-1.25H1.25V1.25H-1.25Z"/>
</g>
<g clip-path="url(#clip_40)">
<path transform="matrix(1,0,0,-1,163.40547,38.18847)" d="M-1.25-1.25H1.25V1.25H-1.25Z" fill="#1d6996"/>
<path transform="matrix(1,0,0,-1,163.40547,38.18847)" stroke-width=".1" stroke-linecap="butt" stroke-miterlimit="10" stroke-linejoin="miter" fill="none" stroke="#1d6996" d="M-1.25-1.25H1.25V1.25H-1.25Z"/>
</g>
</g>
<path transform="matrix(1,0,0,-1,0,119.21176)" stroke-width="1.25" stroke-linecap="square" stroke-miterlimit="10" stroke-linejoin="miter" fill="none" stroke="#000000" d="M34.72845 26.338238V107.39952"/>
<path transform="matrix(1,0,0,-1,0,119.21176)" stroke-width="1.25" stroke-linecap="square" stroke-miterlimit="10" stroke-linejoin="miter" fill="none" stroke="#000000" d="M173.26828 26.338238V107.39952"/>
<path transform="matrix(1,0,0,-1,0,119.21176)" stroke-width="1.25" stroke-linecap="square" stroke-miterlimit="10" stroke-linejoin="miter" fill="none" stroke="#000000" d="M34.72845 26.338238H173.26828"/>
<path transform="matrix(1,0,0,-1,0,119.21176)" stroke-width="1.25" stroke-linecap="square" stroke-miterlimit="10" stroke-linejoin="miter" fill="none" stroke="#000000" d="M34.72845 107.39952H173.26828"/>
<path transform="matrix(1,0,0,-1,0,119.21176)" stroke-width="1" stroke-linecap="round" stroke-linejoin="round" fill="none" stroke="#000000" d="M69.89207 82.644519C96.725399 82.644519 123.55873 82.644519 150.39206 82.644519"/>
<path transform="matrix(1,0,0,-1,0,119.21176)" stroke-width="1" stroke-linecap="round" stroke-linejoin="round" fill="none" stroke="#000000" d="M73.492069 80.84451 69.89207 82.644519 73.492069 84.44452"/>
<path transform="matrix(1,0,0,-1,0,119.21176)" stroke-width="1" stroke-linecap="round" stroke-linejoin="round" fill="none" stroke="#000000" d="M146.79207 84.44452 150.39206 82.644519 146.79207 80.84451"/>
<path transform="matrix(1,0,0,-1,0,119.21176)" d="M102.11674 85.70697H118.16789V94.08723H102.11674Z" fill="#ffffff"/>
<use data-text="x" xlink:href="#font_10_189" transform="matrix(8.966376,0,0,-8.966376,102.29674,31.383645)"/>
<use data-text="3" xlink:href="#font_10_205" transform="matrix(8.966376,0,0,-8.966376,106.77992,31.383645)"/>
<use data-text="." xlink:href="#font_10_222" transform="matrix(8.966376,0,0,-8.966376,111.26311,31.383645)"/>
<use data-text="7" xlink:href="#font_10_209" transform="matrix(8.966376,0,0,-8.966376,113.5047,31.383645)"/>
<path transform="matrix(1,0,0,-1,0,119.21176)" stroke-width="1" stroke-linecap="round" stroke-linejoin="round" fill="none" stroke="#5f4690" d="M42.26631 112.88176H47.51631 52.76631"/>
<path transform="matrix(1,0,0,-1,0,119.21176)" d="M47.51631 111.63176C47.847818 111.63176 48.165788 111.763469 48.400197 111.99788 48.634607 112.232288 48.76631 112.550258 48.76631 112.88176 48.76631 113.213268 48.634607 113.531238 48.400197 113.76564 48.165788 114.00005 47.847818 114.13176 47.51631 114.13176 47.18481 114.13176 46.866838 114.00005 46.63243 113.76564 46.39802 113.531238 46.26631 113.213268 46.26631 112.88176 46.26631 112.550258 46.39802 112.232288 46.63243 111.99788 46.866838 111.763469 47.18481 111.63176 47.51631 111.63176Z" fill="#5f4690"/>
<path transform="matrix(1,0,0,-1,0,119.21176)" stroke-width=".1" stroke-linecap="butt" stroke-linejoin="round" fill="none" stroke="#5f4690" d="M47.51631 111.63176C47.847818 111.63176 48.165788 111.763469 48.400197 111.99788 48.634607 112.232288 48.76631 112.550258 48.76631 112.88176 48.76631 113.213268 48.634607 113.531238 48.400197 113.76564 48.165788 114.00005 47.847818 114.13176 47.51631 114.13176 47.18481 114.13176 46.866838 114.00005 46.63243 113.76564 46.39802 113.531238 46.26631 113.213268 46.26631 112.88176 46.26631 112.550258 46.39802 112.232288 46.63243 111.99788 46.866838 111.763469 47.18481 111.63176 47.51631 111.63176Z"/>
<use data-text="&#x03c0;" xlink:href="#font_41_26" transform="matrix(6.973848,0,0,-6.973848,56.26631,8.779999)"/>
<use data-text="-" xlink:href="#font_10_241" transform="matrix(6.973848,0,0,-6.973848,61.175378,8.779999)"/>
<use data-text="E" xlink:href="#font_10_137" transform="matrix(6.973848,0,0,-6.973848,63.490697,8.779999)"/>
<use data-text="x" xlink:href="#font_10_189" transform="matrix(6.973848,0,0,-6.973848,67.74474,8.779999)"/>
<use data-text="p" xlink:href="#font_10_181" transform="matrix(6.973848,0,0,-6.973848,71.23167,8.779999)"/>
<use data-text="a" xlink:href="#font_10_166" transform="matrix(6.973848,0,0,-6.973848,74.71859,8.779999)"/>
<use data-text="n" xlink:href="#font_10_179" transform="matrix(6.973848,0,0,-6.973848,77.80801,8.779999)"/>
<use data-text="s" xlink:href="#font_10_184" transform="matrix(6.973848,0,0,-6.973848,81.29493,8.779999)"/>
<use data-text="i" xlink:href="#font_10_174" transform="matrix(6.973848,0,0,-6.973848,84.000789,8.779999)"/>
<use data-text="o" xlink:href="#font_10_180" transform="matrix(6.973848,0,0,-6.973848,85.93254,8.779999)"/>
<use data-text="n" xlink:href="#font_10_179" transform="matrix(6.973848,0,0,-6.973848,89.419467,8.779999)"/>
<path transform="matrix(1,0,0,-1,0,119.21176)" stroke-width="1" stroke-linecap="round" stroke-linejoin="round" fill="none" stroke="#1d6996" d="M106.941028 112.88176H112.191028 117.441028"/>
<path transform="matrix(1,0,0,-1,0,119.21176)" d="M110.941028 111.63176H113.441028V114.13176H110.941028Z" fill="#1d6996"/>
<path transform="matrix(1,0,0,-1,0,119.21176)" stroke-width=".1" stroke-linecap="butt" stroke-miterlimit="10" stroke-linejoin="miter" fill="none" stroke="#1d6996" d="M110.941028 111.63176H113.441028V114.13176H110.941028Z"/>
<use data-text="M" xlink:href="#font_10_145" transform="matrix(6.973848,0,0,-6.973848,120.941028,8.779999)"/>
<use data-text="P" xlink:href="#font_10_148" transform="matrix(6.973848,0,0,-6.973848,127.133808,8.779999)"/>
<use data-text="O" xlink:href="#font_10_147" transform="matrix(6.973848,0,0,-6.973848,131.00429,8.779999)"/>
</svg>
