<svg xmlns="http://www.w3.org/2000/svg" viewBox="0 0 1040 430" fill="none" role="img" aria-labelledby="title desc">
  <title id="title">Three pillars of model-based reinforcement learning</title>
  <desc id="desc">A simple black and white line drawing of three taller classical pillars labelled Lookahead policies, Value-expansion, and Dyna.</desc>
  <rect width="1040" height="430" fill="white" />
  <g stroke="black" stroke-width="3" stroke-linejoin="round" stroke-linecap="round">
    <path d="M105 30H935" />
    <path d="M132 30H908L878 70H162L132 30Z" fill="white" />
    <path d="M86 402H954" />
    <path d="M118 364H922" />
    <path d="M86 402L118 364H922L954 402H86Z" fill="white" />

    <g>
      <rect x="140" y="70" width="230" height="28" fill="white" />
      <path d="M128 98H382L358 132H152L128 98Z" fill="white" />
      <path d="M188 132V344H322V132" />
      <path d="M226 154V322M255 144V332M284 154V322" />
      <rect x="166" y="344" width="178" height="20" fill="white" />
      <rect x="135" y="236" width="240" height="72" rx="8" fill="white" />
    </g>

    <g>
      <rect x="405" y="70" width="230" height="28" fill="white" />
      <path d="M393 98H647L623 132H417L393 98Z" fill="white" />
      <path d="M453 132V344H587V132" />
      <path d="M491 154V322M520 144V332M549 154V322" />
      <rect x="431" y="344" width="178" height="20" fill="white" />
      <rect x="400" y="236" width="240" height="72" rx="8" fill="white" />
    </g>

    <g>
      <rect x="670" y="70" width="230" height="28" fill="white" />
      <path d="M658 98H912L888 132H682L658 98Z" fill="white" />
      <path d="M718 132V344H852V132" />
      <path d="M756 154V322M785 144V332M814 154V322" />
      <rect x="696" y="344" width="178" height="20" fill="white" />
      <rect x="665" y="236" width="240" height="72" rx="8" fill="white" />
    </g>
  </g>

</svg>
