<svg xmlns="http://www.w3.org/2000/svg" xmlns:xlink="http://www.w3.org/1999/xlink" xmlns:inkscape="http://www.inkscape.org/namespaces/inkscape" version="1.1" width="194.15952" height="117.83952" viewBox="0 0 194.15952 117.83952">
<defs>
<path id="font_1_133" d="M.70599368 .018997193C.6609955 .021987915 .651001 .031982423 .6159973 .10592651L.36698915 .6738281H.34700013L.13899231 .18286133C.07499695 .036972047 .06298828 .020996094 .01499939 .018997193V0H.21299744V.018997193C.16499329 .018997193 .14498902 .031982423 .14498902 .059951784 .14498902 .07194519 .147995 .0859375 .15299988 .09892273L.19898987 .21583557H.46099855L.5019989 .119903568C.5139923 .092926029 .5209961 .06695557 .5209961 .052963258 .5209961 .02798462 .5039978 .019989014 .45098878 .018997193V0H.70599368V.018997193M.21598816 .25683595 .33099366 .53182986 .44699098 .25683595H.21598816Z"/>
<path id="font_1_179" d="M.015991211 .39794923C.021987915 .4009552 .03199768 .40194703 .042999269 .40194703 .070999149 .40194703 .07998657 .38694764 .07998657 .33796693V.08998108C.07998657 .032989503 .068984989 .018997193 .017990113 .01499939V0H.22999573V.01499939C.1789856 .018997193 .1639862 .0309906 .1639862 .066986087V.34796144C.21199036 .3929596 .23399353 .404953 .2669983 .404953 .31599427 .404953 .33999635 .3739624 .33999635 .30796815V.098983768C.33999635 .035995485 .32699586 .018997193 .2769928 .01499939V0H.4850006V.01499939C.43598939 .019989014 .42399598 .03199768 .42399598 .08097839V.30996705C.42399598 .40394593 .37998963 .45996095 .30599977 .45996095 .2599945 .45996095 .22898865 .4429474 .16099549 .37895204V.45794679L.1539917 .45996095C.10499573 .44195558 .070999149 .43095399 .015991211 .4149475V.39794923Z"/>
<path id="font_1_166" d="M.44198609 .066207889C.4249878 .052230836 .41299439 .047225954 .397995 .047225954 .375 .047225954 .36799623 .06121826 .36799623 .10517883V.30004884C.36799623 .35202027 .36299134 .3809967 .34799195 .40498353 .32598878 .4409485 .2829895 .45996095 .22399903 .45996095 .12998963 .45996095 .055999757 .41098023 .055999757 .34802247 .055999757 .32502748 .07598877 .3050537 .09899902 .3050537 .12298584 .3050537 .14399719 .32502748 .14399719 .34701539 .14399719 .35101319 .14299011 .35601808 .14199829 .3630066 .13999939 .37199403 .13899231 .37998963 .13899231 .3869934 .13899231 .41397096 .17098999 .43595887 .21099854 .43595887 .2599945 .43595887 .2869873 .40698243 .2869873 .35301209V.29205323C.1329956 .23010254 .115997318 .22210694 .07299805 .18412781 .050994874 .1641388 .036987306 .13017273 .036987306 .09719849 .036987306 .034225465 .08099365-.009765625 .14199829-.009765625 .18598938-.009765625 .22698975 .011230469 .28799439 .06323242 .29299928 .011230469 .31098939-.009765625 .35198976-.009765625 .38598634-.009765625 .40699769 .0022277833 .44198609 .040222169V.066207889M.2869873 .12322998C.2869873 .09222412 .28199769 .083221439 .26098634 .07122803 .23699951 .05722046 .20899964 .048233034 .18798828 .048233034 .15299988 .048233034 .125 .082229617 .125 .12522888V.12922669C.125 .18823242 .1659851 .2242279 .2869873 .26823426V.12322998Z"/>
<path id="font_1_177" d="M.018997193 .6230011H.024993897C.035995485 .6239929 .04798889 .625 .055999757 .625 .08799744 .625 .09799194 .61099246 .09799194 .56399539V.08699036C.09799194 .032989503 .083999637 .019989014 .020996094 .01499939V0H.25698854V.01499939C.19400025 .018997193 .18199158 .0289917 .18199158 .083999637V.68099978L.17799378 .68299868C.12599182 .66600039 .08799744 .6559906 .018997193 .6389923V.6230011Z"/>
<path id="font_1_190" d="M.47499085 .4501953H.33999635V.43518067C.37199403 .43518067 .3880005 .42619325 .3880005 .41018678 .3880005 .40618897 .3869934 .40019227 .38398744 .39318849L.2869873 .11720276 .17199707 .37019349C.1659851 .3841858 .1619873 .39718629 .1619873 .40818788 .1619873 .42619325 .1769867 .43318177 .21998596 .43518067V.4501953H.01399231V.43618775C.039993287 .43218995 .056991579 .42118836 .06498718 .40419007L.1789856 .15818787 .18199158 .15019226 .19699097 .12019348C.22499085 .07019043 .24099732 .034194948 .24099732 .019195557 .24099732 .004196167 .21798706-.058792116 .20098877-.08879089 .18699646-.11479187 .16499329-.13378906 .15098572-.13378906 .14498902-.13378906 .13598633-.13179016 .12599182-.12680054 .10699463-.11979675 .08999634-.11579895 .07299805-.11579895 .049987794-.11579895 .02999878-.13580323 .02999878-.15979004 .02999878-.1927948 .06199646-.21780396 .10398865-.21780396 .17098999-.21780396 .21899414-.1618042 .272995-.017807007L.4269867 .3901825C.43998719 .42219544 .45098878 .43218995 .47499085 .43518067V.4501953Z"/>
<path id="font_1_185" d="M.25498963 .4501953H.1539917V.5661926C.1539917 .57618716 .15299988 .5791931 .14698792 .5791931 .13999939 .5701904 .13398743 .56118777 .1269989 .55119326 .08898926 .4961853 .04598999 .44818116 .02999878 .44418336 .018997193 .43719483 .0129852299 .43019105 .0129852299 .42518617 .0129852299 .42218019 .01399231 .42018128 .016998291 .41818238H.069992069V.11721802C.069992069 .033233644 .099990848-.009765625 .15899658-.009765625 .20799256-.009765625 .24598694 .014221191 .2789917 .066223148L.2659912 .07722473C.24499512 .052230836 .22799683 .04222107 .20599365 .04222107 .16899109 .04222107 .1539917 .069229129 .1539917 .1322174V.41818238H.25498963V.4501953Z"/>
<path id="font_1_174" d="M.1749878 .45996095 .019989014 .40527345V.3902588L.027999878 .39126588C.039993287 .39326478 .052993776 .39427186 .06199646 .39427186 .085998538 .39427186 .09498596 .37826539 .09498596 .33422853V.10205078C.09498596 .02999878 .084991458 .018997193 .015991211 .01499939V0H.25299073V.01499939C.18699646 .019989014 .1789856 .02999878 .1789856 .10205078V.45695497L.1749878 .45996095M.12799073 .6826172C.100997928 .6826172 .07798767 .65960696 .07798767 .63160708 .07798767 .6036072 .099990848 .5806122 .12799073 .5806122 .15699768 .5806122 .17999268 .60261538 .17999268 .63160708 .17999268 .65960696 .15699768 .6826172 .12799073 .6826172Z"/>
<path id="font_1_168" d="M.397995 .15615845C.34999085 .08621216 .31399537 .06222534 .25698854 .06222534 .1659851 .06222534 .101989749 .14216614 .101989749 .25708009 .101989749 .3600006 .15699768 .43095399 .23799134 .43095399 .27398683 .43095399 .2869873 .41996766 .29699708 .3829956L.30299378 .3610077C.31098939 .33302308 .32899476 .31503297 .34999085 .31503297 .37599183 .31503297 .397995 .33403016 .397995 .3570099 .397995 .41296388 .32798768 .45996095 .24398804 .45996095 .19499207 .45996095 .14399719 .43995667 .102996829 .40397645 .052993776 .3600006 .024993897 .29205323 .024993897 .2131195 .024993897 .08320618 .10398865-.009765625 .21499634-.009765625 .2599945-.009765625 .2999878 .006225586 .33599855 .037231447 .36299134 .06123352 .38198854 .08821106 .4119873 .14717102L.397995 .15615845Z"/>
<path id="font_1_141" d="M.114990238 .10900879C.114990238 .033996583 .101989749 .021987915 .017990113 .018997193V0H.31498719V.018997193C.23298645 .021987915 .21699524 .035995485 .21699524 .10900879V.5530853C.21699524 .62609866 .23098755 .6390991 .31498719 .6430969V.6621094H.017990113V.6430969C.102996829 .6381073 .114990238 .6271057 .114990238 .5530853V.10900879Z"/>
<path id="font_1_143" d="M.41299439 .6430969C.4249878 .6421051 .43499757 .6421051 .43899537 .6421051 .46899415 .6401062 .48098756 .6321106 .48098756 .6121063 .48098756 .59010317 .45799256 .5600891 .40299989 .509079L.22599793 .34805299V.5530853C.22599793 .62609866 .23699951 .6371002 .31799317 .6430969V.6621094H.033996583V.6430969C.11199951 .6371002 .12399292 .62409976 .12399292 .5530853V.120010379C.12399292 .037002565 .11299133 .023986817 .033996583 .018997193V0H.31599427V.018997193C.23799134 .023986817 .22599793 .035995485 .22599793 .10900879V.29603578L.2519989 .31704713 .35798646 .21202088C.43399049 .13700867 .48799134 .06599426 .48799134 .041992189 .48799134 .027999878 .47399903 .020996094 .44599916 .019989014 .44099427 .019989014 .42999269 .019989014 .41799928 .018997193V0H.72299197V.018997193C.67099 .019989014 .6569977 .02999878 .56599429 .12701416L.33299256 .37705995 .522995 .565094C.59098818 .63009646 .6069946 .6381073 .6749878 .6430969V.6621094H.41299439V.6430969Z"/>
<path id="font_1_136" d="M.10398865 .10899353C.10398865 .036987306 .09199524 .023986817 .015991211 .018997193V0H.2999878C.41600038 0 .5209961 .032989503 .58299258 .08900452 .647995 .14801026 .68499758 .23703003 .68499758 .3340454 .68499758 .424057 .6549988 .5020752 .59999087 .55708315 .5319977 .62609866 .4229889 .6621094 .28599549 .6621094H.015991211V.6430969C.09498596 .6361084 .10398865 .6271057 .10398865 .5531006V.10899353M.20599365 .5860901C.20599365 .61709597 .21699524 .6251068 .2579956 .6251068 .34399415 .6251068 .40899659 .60910037 .45700074 .5750885 .5349884 .5210724 .57598879 .4350586 .57598879 .32704164 .57598879 .20903015 .5349884 .12501526 .45399476 .07800293 .40299989 .04899597 .34498597 .036987306 .2579956 .036987306 .21798706 .036987306 .20599365 .04598999 .20599365 .07800293V.5860901Z"/>
<path id="font_1_171" d="M.30899049 .4501953H.18598938V.56585696C.18598938 .623703 .20498657 .65460208 .24299622 .65460208 .2639923 .65460208 .27799989 .64463809 .29599 .61572268 .31199647 .589798 .32398988 .5798187 .34098817 .5798187 .3639984 .5798187 .3829956 .5977783 .3829956 .6207123 .3829956 .6566162 .33898927 .6826172 .2789917 .6826172 .21699524 .6826172 .1639862 .65560916 .13798523 .6097412 .11199951 .56585696 .10398865 .52996829 .102996829 .4501953H.020996094V.41818238H.102996829V.104034427C.102996829 .03100586 .09199524 .018997193 .019989014 .01499939V0H.27999879V.01499939C.19799805 .017990113 .18699646 .0289917 .18699646 .104034427V.41818238H.30899049V.4501953Z"/>
<path id="font_1_241" d="M.038986207 .25683595V.1938324H.2849884V.25683595H.038986207Z"/>
<path id="font_1_255" d="M.6879883 .073410037C.6100006 .038345338 .5589905 .025314331 .49198915 .025314331 .32199098 .025314331 .19999695 .14955139 .19999695 .32325746 .19999695 .41609193 .23599243 .509964 .29299928 .5688782 .34199525 .6178131 .40899659 .6447754 .48199464 .6447754 .6389923 .6447754 .7689972 .5219574 .7689972 .37316896 .7689972 .2733612 .70599368 .17654419 .6399994 .17654419 .6139984 .17654419 .6009979 .19151306 .6009979 .22245789 .6009979 .22944641 .60198977 .23443604 .6029968 .24041748L.66799929 .49398805H.598999L.58898928 .4560547C.5669861 .49699403 .5519867 .5079651 .5169983 .5079651 .47399903 .5079651 .43899537 .49198915 .40499879 .45803834 .35198976 .4051056 .32099916 .32925416 .32099916 .25639344 .32099916 .1934967 .3600006 .14448548 .40899659 .14448548 .45298768 .14448548 .5 .17149353 .5339966 .2164917 .5399933 .17254639 .57699587 .14355469 .625 .14355469 .723999 .14355469 .8089905 .25442506 .8089905 .38320924 .8089905 .54792788 .66600039 .67578127 .48098756 .67578127 .27799989 .67578127 .115997318 .52098086 .115997318 .32629396 .115997318 .13453675 .27598573-.013671875 .48298646-.013671875 .5529938-.013671875 .6029968-.0006866455 .69999697 .04335022L.6879883 .073410037M.5309906 .4644928C.5589905 .4624939 .57398989 .43849183 .57199099 .39949037 .56999209 .3514862 .5529938 .29249574 .5269928 .24549866 .5079956 .20948792 .47898866 .1875 .45199586 .1875 .4149933 .1875 .3919983 .2204895 .3919983 .27249146 .3919983 .3264923 .4099884 .37649537 .44400025 .41448976 .47200013 .44648744 .5069885 .4664917 .5309906 .4644928Z"/>
<path id="font_1_204" d="M.47499085 .13696289 .46199037 .14196778C.4249878 .084991458 .4119873 .07598877 .36698915 .07598877H.12799073L.29599 .2519226C.3849945 .34487916 .42399598 .42085267 .42399598 .4988098 .42399598 .59877017 .34298707 .67578127 .23899842 .67578127 .18399048 .67578127 .13198853 .6537781 .09498596 .61376956 .06298828 .5797882 .04798889 .5477905 .0309906 .4768219L.051986696 .47183229C.09199524 .5697937 .12799073 .6017761 .19699097 .6017761 .2809906 .6017761 .33799745 .5447998 .33799745 .4608307 .33799745 .38285829 .2919922 .28990174 .20799256 .200943L.02999878 .011993408V0H.41999818L.47499085 .13696289Z"/>
<path id="font_1_212" d="M.2539978 .67578127C.19898987 .67578127 .15699768 .6587677 .11999512 .62379458 .06199646 .5678406 .023986817 .4529419 .023986817 .3360443 .023986817 .22714234 .056991579 .11022949 .10398865 .05429077 .14099121 .010314941 .19198609-.013671875 .25-.013671875 .30099488-.013671875 .34399415 .003326416 .37998963 .03829956 .43798829 .09324646 .47599793 .20915222 .47599793 .3300476 .47599793 .53486636 .3849945 .67578127 .2539978 .67578127M.25099183 .6497803C.33499146 .6497803 .37998963 .53686526 .37998963 .3280487 .37998963 .11923218 .33599855 .012313843 .25 .012313843 .1639862 .012313843 .11999512 .11923218 .11999512 .32704164 .11999512 .53886416 .16499329 .6497803 .25099183 .6497803Z"/>
<path id="font_1_170" d="M.4079895 .16427613C.3600006 .08824158 .31698609 .05921936 .25299073 .05921936 .19599915 .05921936 .15299988 .08824158 .12399292 .14526367 .10598755 .18328858 .09899902 .2163086 .09700012 .27734376H.40499879C.39698792 .34222413 .3869934 .37112428 .3619995 .40301515 .33198548 .43894959 .28599549 .45996095 .23399353 .45996095 .18399048 .45996095 .13699341 .44195558 .09899902 .40800477 .051986696 .36714173 .024993897 .29634095 .024993897 .21430969 .024993897 .07623291 .09700012-.009765625 .21199036-.009765625 .30699159-.009765625 .38198854 .049224855 .42399598 .15727234L.4079895 .16427613M.09899902 .30934144C.10998535 .3870697 .14399719 .4239502 .20498657 .4239502 .2659912 .4239502 .2899933 .39604188 .30299378 .30934144H.09899902Z"/>
<path id="font_1_183" d="M.0069885256 .3899536C.020996094 .3929596 .02999878 .39396668 .041992189 .39396668 .066986087 .39396668 .07598877 .3779602 .07598877 .33396913V.083984378C.07598877 .033996583 .068984989 .026992798 .004989624 .01499939V0H.24499512V.01499939C.1769867 .017990113 .1599884 .032989503 .1599884 .08998108V.31497193C.1599884 .3469696 .20298767 .3969574 .22999573 .3969574 .23599243 .3969574 .24499512 .3919525 .2559967 .381958 .27198792 .3679657 .2829895 .361969 .29599 .361969 .31999208 .361969 .33499146 .3789673 .33499146 .4069519 .33499146 .43995667 .31399537 .45996095 .27999879 .45996095 .23799134 .45996095 .20899964 .43695069 .1599884 .3659668V.45794679L.15499878 .45996095C.101989749 .43795777 .06599426 .42495729 .0069885256 .40596009V.3899536Z"/>
<path id="font_1_180" d="M.25 .45996095C.11999512 .45996095 .0289917 .3639984 .0289917 .22608948 .0289917 .09118652 .12199402-.009765625 .24798584-.009765625 .37399293-.009765625 .46998597 .09617615 .46998597 .23408509 .46998597 .3650055 .37799073 .45996095 .25 .45996095M.23699951 .4319458C.32099916 .4319458 .37998963 .3360138 .37998963 .19911194 .37998963 .08618164 .33499146 .018234253 .2599945 .018234253 .22099304 .018234253 .18399048 .04220581 .16299439 .08218384 .1349945 .13415528 .11898804 .20410156 .11898804 .27505494 .11898804 .36999513 .1659851 .4319458 .23699951 .4319458Z"/>
<path id="font_1_184" d="M.31498719 .31419374 .31098939 .4501953H.2999878L.2979889 .44818116C.2889862 .44119264 .28799439 .44018556 .28399659 .44018556 .27799989 .44018556 .2679901 .44218446 .25698854 .44718934 .23498535 .4549713 .21299744 .45898438 .18699646 .45898438 .10798645 .45898438 .050994874 .4079895 .050994874 .33602906 .050994874 .28007508 .08299255 .24009705 .16799927 .19212342L.22599793 .15913391C.26098634 .1391449 .27799989 .11515808 .27799989 .08418274 .27799989 .04020691 .24598694 .01222229 .19499207 .01222229 .16099549 .01222229 .12998963 .025222779 .11099243 .047210695 .08999634 .07218933 .08099365 .095184329 .067993167 .15214539H.051986696V-.003768921H.06498718C.07199097 .006225586 .07598877 .008224487 .08799744 .008224487 .09700012 .0079956059 .11099243 .005996704 .13398743 0 .1619873-.0057678224 .18899536-.009765625 .20698548-.009765625 .28399659-.009765625 .34799195 .048202516 .34799195 .11816406 .34799195 .1681366 .32398988 .20111084 .2639923 .23709107L.1559906 .3010559C.12799073 .31704713 .11299133 .34202577 .11299133 .36901856 .11299133 .40899659 .14399719 .4369812 .18998719 .4369812 .24699402 .4369812 .2769928 .40299989 .2999878 .31404115L.31498719 .31419374Z"/>
<clipPath id="clip_2">
<path transform="matrix(1,0,0,-1,0,117.83952)" d="M34.380105 14.317975H193.07953V104.680408H34.380105Z"/>
</clipPath>
<path id="font_3_50" d="M.5159912 .31925965C.5159912 .42918397 .5029907 .50813296 .45700074 .5780945 .42599488 .62405398 .3639984 .6640625 .28399659 .6640625 .051986696 .6640625 .051986696 .39120484 .051986696 .31925965 .051986696 .2472992 .051986696-.01953125 .28399659-.01953125 .5159912-.01953125 .5159912 .2472992 .5159912 .31925965M.28399659 .008468628C.23799134 .008468628 .1769867 .035446168 .15699768 .117385867 .14299011 .17634583 .14299011 .25830079 .14299011 .33224488 .14299011 .40519715 .14299011 .4811554 .1579895 .53611758 .1789856 .6150665 .24299622 .63604739 .28399659 .63604739 .33799745 .63604739 .3899994 .6030731 .4079895 .545105 .42399598 .4911499 .4249878 .41918946 .4249878 .33224488 .4249878 .25830079 .4249878 .18434143 .4119873 .12138367 .3919983 .030441285 .32398988 .008468628 .28399659 .008468628Z"/>
<path id="font_4_59" d="M.22698975 .056991579C.22698975 .09298706 .19699097 .114990238 .16999817 .114990238 .13699341 .114990238 .11199951 .08799744 .11199951 .057998659 .11199951 .021987915 .14199829 0 .16899109 0 .20199585 0 .22698975 .026992798 .22698975 .056991579Z"/>
<clipPath id="clip_5">
<path transform="matrix(1,0,0,-1,0,117.83952)" d="M34.380105 14.317975H193.07953V104.680408H34.380105Z"/>
</clipPath>
<path id="font_3_52" d="M.5049896 .18203736H.47099305C.46798707 .16001892 .45799256 .100997928 .44499208 .09098816 .43699647 .084991458 .3600006 .084991458 .34599305 .084991458H.1619873C.2669983 .17803955 .3019867 .20603943 .3619995 .25306703 .43598939 .312088 .5049896 .374115 .5049896 .46914674 .5049896 .5900879 .39898683 .6640625 .2709961 .6640625 .14698792 .6640625 .06298828 .57710269 .06298828 .4851532 .06298828 .43414308 .10598755 .42915345 .115997318 .42915345 .13999939 .42915345 .16899109 .44615174 .16899109 .48214723 .16899109 .5001526 .1619873 .53515627 .10998535 .53515627 .14099121 .6060791 .20899964 .62805178 .2559967 .62805178 .35598756 .62805178 .4079895 .5501404 .4079895 .46914674 .4079895 .38212586 .34599305 .3130951 .31399537 .27708436L.07299805 .038986207C.06298828 .02999878 .06298828 .027999878 .06298828 0H.47499085L.5049896 .18203736Z"/>
<path id="font_3_55" d="M.15499878 .5588074C.20599365 .5458069 .23599243 .5458069 .2519989 .5458069 .38398744 .5458069 .46199037 .6358032 .46199037 .6508026 .46199037 .6618042 .45498658 .6648102 .44999696 .6648102 .44799806 .6648102 .44599916 .6648102 .44198609 .6618042 .41799928 .6528015 .36499024 .6328125 .29100038 .6328125 .2630005 .6328125 .20999146 .6348114 .14498902 .6598053 .1349945 .6648102 .1329956 .6648102 .13198853 .6648102 .11898804 .6648102 .11898804 .6538086 .11898804 .6378021V.34251405C.11898804 .32548524 .11898804 .3134613 .1349945 .3134613 .14399719 .3134613 .14498902 .3154602 .15499878 .32748414 .19799805 .38259889 .25898744 .390625 .2939911 .390625 .35398866 .390625 .3809967 .34251405 .38598634 .33450318 .4039917 .30143739 .4099884 .26335145 .4099884 .20524597 .4099884 .17524719 .4099884 .116256717 .37998963 .07234192 .35499574 .03640747 .31199647 .012466431 .2630005 .012466431 .19799805 .012466431 .1309967 .04838562 .10598755 .11425781 .14399719 .11125183 .16299439 .13624573 .16299439 .16325379 .16299439 .20625305 .12599182 .21424866 .11299133 .21424866 .11099243 .21424866 .06298828 .21424866 .06298828 .1602478 .06298828 .07034302 .14498902-.01953125 .2649994-.01953125 .3929901-.01953125 .5049896 .07533264 .5049896 .20124817 .5049896 .31445313 .4189911 .41862489 .29499818 .41862489 .25099183 .41862489 .19898987 .4076233 .15499878 .36956788V.5588074Z"/>
<clipPath id="clip_6">
<path transform="matrix(1,0,0,-1,0,117.83952)" d="M34.380105 14.317975H193.07953V104.680408H34.380105Z"/>
</clipPath>
<clipPath id="clip_7">
<path transform="matrix(1,0,0,-1,0,117.83952)" d="M34.380105 14.317975H193.07953V104.680408H34.380105Z"/>
</clipPath>
<path id="font_3_57" d="M.5349884 .6045227C.54499819 .6165161 .54499819 .6185303 .54499819 .64453127H.2829895C.24299622 .64453127 .23199463 .6455078 .19599915 .6484375 .14399719 .65234377 .14199829 .6592407 .13899231 .676239H.10499573L.069992069 .46250917H.10398865C.10598755 .47750855 .115997318 .54351809 .13198853 .5535126 .13999939 .55952456 .22099304 .55952456 .23599243 .55952456H.45399476C.42199708 .5175171 .37098695 .45550538 .34999085 .4275055 .21899414 .25549317 .20698548 .096466068 .20698548 .037460329 .20698548 .02645874 .20698548-.01953125 .2539978-.01953125 .3019867-.01953125 .3019867 .025466919 .3019867 .038467409V.07847595C.3019867 .27249146 .34199525 .36149598 .3849945 .41551209L.5349884 .6045227Z"/>
<clipPath id="clip_8">
<path transform="matrix(1,0,0,-1,0,117.83952)" d="M34.380105 14.317975H193.07953V104.680408H34.380105Z"/>
</clipPath>
<path id="font_3_51" d="M.33499146 .63612368C.33499146 .6630554 .33299256 .6640625 .30499269 .6640625 .24099732 .6014404 .1499939 .6004486 .10899353 .6004486V.5644531C.1329956 .5644531 .19898987 .5644531 .2539978 .592453V.08203125C.2539978 .04899597 .2539978 .035995485 .1539917 .035995485H.115997318V0C.13398743 .0009918213 .25698854 .0039978029 .2939911 .0039978029 .32499696 .0039978029 .45098878 .0009918213 .47299195 0V.035995485H.43499757C.33499146 .035995485 .33499146 .04899597 .33499146 .08203125V.63612368Z"/>
<clipPath id="clip_9">
<path transform="matrix(1,0,0,-1,0,117.83952)" d="M34.380105 14.317975H193.07953V104.680408H34.380105Z"/>
</clipPath>
<path id="font_1_187" d="M.47698976 .4501953H.33799745V.43518067C.36999513 .43218995 .3849945 .42219544 .3849945 .40319825 .3849945 .39320375 .3829956 .38320924 .3789978 .37319947L.27999879 .11428833 .17799378 .37020875C.17199707 .38420106 .16899109 .39819337 .16899109 .40719605 .16899109 .42518617 .17999268 .43218995 .21499634 .43518067V.4501953H.018997193V.43518067C.056991579 .43318177 .06399536 .42318727 .10998535 .32022096L.22999573 .033309938C.23199463 .027313233 .23498535 .020309449 .23799134 .012313843 .24398804-.0056762697 .25-.013671875 .2559967-.013671875 .2619934-.013671875 .2689972-.0006866455 .28399659 .036315919L.4119873 .35720826C.44099427 .42518617 .44699098 .43218995 .47698976 .43518067V.4501953Z"/>
<path id="font_1_240" d="M.2869873 .67578127H.21998596L-.009002686-.013671875H.05899048L.2869873 .67578127Z"/>
<path id="font_10_3" d="M.69999697 .46954347C.71099856 .48054505 .71398928 .48654176 .71398928 .49354554 .71398928 .509552 .70098879 .5185547 .6899872 .5185547 .6799927 .5185547 .6769867 .5155487 .6649933 .50354006L.44599916 .28547669 .22599793 .5045471C.21598816 .5145416 .21199036 .5185547 .20298767 .5185547 .18899536 .5185547 .17799378 .5075531 .17799378 .49354554 .17799378 .48454286 .18099976 .48153688 .19299317 .46954347L.41099549 .25146485 .19299317 .03340149C.1789856 .01939392 .17799378 .014389038 .17799378 .008392334 .17799378-.0056152346 .18899536-.016601563 .20298767-.016601563 .21199036-.016601563 .21499634-.01361084 .22599793-.002609253L.44599916 .21646118 .673996-.0116119389C.67900088-.014602661 .6839905-.016601563 .6899872-.016601563 .70098879-.016601563 .71398928-.0076141359 .71398928 .008392334 .71398928 .01638794 .71199038 .0184021 .70899966 .021392823 .70700076 .025390625 .5130005 .2194519 .48098756 .25047303L.69999697 .46954347Z"/>
<path id="font_11_56" d="M.18598938 .32769776C.18699646 .37371827 .18798828 .4528656 .22399903 .51808169 .25299073 .5720825 .31799317 .628006 .41099549 .628006 .42999269 .628006 .47499085 .6260071 .5049896 .6020813 .4889984 .5980835 .46299745 .5830841 .46299745 .5490875 .46299745 .51708987 .4869995 .49609376 .5159912 .49609376 .5329895 .49609376 .56900027 .5050812 .56900027 .5520935 .56900027 .6060791 .5309906 .6660156 .4099884 .6660156 .23799134 .6660156 .07998657 .52508547 .07998657 .317688 .07998657 .078567508 .19699097-.022460938 .34298707-.022460938 .44198609-.022460938 .4889984 .014526367 .522995 .042541505 .58699038 .095565799 .59999087 .15460205 .59999087 .20463562 .59999087 .26565553 .5799866 .314682 .5279999 .36071778 .48399354 .40072633 .43798829 .42773438 .35099793 .42773438 .29299928 .42773438 .22799683 .39971925 .18598938 .32769776M.34298707 .01852417C.18899536 .01852417 .18899536 .18461609 .18899536 .2266388 .18899536 .30368043 .24398804 .39372254 .34899903 .39372254 .3999939 .39372254 .43199159 .38072206 .46299745 .34069825 .49299623 .30368043 .49398805 .2616577 .49398805 .20562744 .49398805 .14759827 .49398805 .109573367 .46199037 .06956482 .43399049 .0365448 .39898683 .01852417 .34298707 .01852417Z"/>
<clipPath id="clip_12">
<path transform="matrix(1,0,0,-1,0,117.83952)" d="M34.380105 14.317975H193.07953V104.680408H34.380105Z"/>
</clipPath>
<clipPath id="clip_13">
<path transform="matrix(1,0,0,-1,0,117.83952)" d="M34.380105 14.317975H193.07953V104.680408H34.380105Z"/>
</clipPath>
<path id="font_1_203" d="M.29100038 .67578127 .11099243 .58496096V.57095339C.12298584 .57595828 .13398743 .57995608 .13798523 .58195498 .1559906 .5889435 .17298889 .592926 .18299866 .592926 .20399475 .592926 .21299744 .57795718 .21299744 .5459595V.09298706C.21299744 .0599823 .20498657 .036987306 .18899536 .02798462 .17399597 .018997193 .1599884 .015991211 .117996219 .01499939V0H.3939972V.01499939C.31498719 .015991211 .29899598 .025985718 .29899598 .07398987V.6737671L.29100038 .67578127Z"/>
<path id="font_1_209" d="M.44898988 .6621094H.07899475L.019989014 .5151062 .036987306 .5071106C.07998657 .57510378 .09799194 .58810427 .15299988 .58810427H.36999513L.17199707-.0078125H.23699951L.44898988 .6461029V.6621094Z"/>
<path id="font_1_211" d="M.05899048-.021728516C.17098999-.008728027 .22599793 .010269165 .2939911 .059265138 .397995 .13526917 .45899964 .25926209 .45899964 .39411927 .45899964 .5588989 .36698915 .67578127 .23799134 .67578127 .11898804 .67578127 .02999878 .5748749 .02999878 .44004823 .02999878 .31822206 .101989749 .23725891 .20999146 .23725891 .2649994 .23725891 .30699159 .25326539 .3600006 .2942505 .31900025 .13127136 .20799256 .024261475 .055999757-.001739502L.05899048-.021728516M.3619995 .35516358C.3619995 .33518983 .35798646 .3262024 .34700013 .31721498 .31900025 .2932434 .28199769 .28027345 .24598694 .28027345 .16999817 .28027345 .12199402 .35516358 .12199402 .47399903 .12199402 .53092959 .13798523 .59085085 .15899658 .6168213 .17599488 .63679507 .20098877 .6477661 .22999573 .6477661 .31698609 .6477661 .3619995 .56188967 .3619995 .39411927V.35516358Z"/>
<path id="font_1_222" d="M.125 .100250247C.09498596 .100250247 .069992069 .07424927 .069992069 .04324341 .069992069 .014251709 .09498596-.0107421879 .12399292-.0107421879 .15499878-.0107421879 .18099976 .014251709 .18099976 .04324341 .18099976 .07424927 .15499878 .100250247 .125 .100250247Z"/>
<path id="font_1_210" d="M.2899933 .37101747C.3889923 .42396546 .42399598 .46592713 .42399598 .5338745 .42399598 .61579897 .35198976 .67578127 .2519989 .67578127 .14299011 .67578127 .06199646 .6088104 .06199646 .5178833 .06199646 .4529419 .08099365 .42396546 .18598938 .3320465 .07798767 .25012208 .055999757 .21914673 .055999757 .15119934 .055999757 .05429077 .1349945-.013671875 .24798584-.013671875 .36799623-.013671875 .44499208 .05229187 .44499208 .15519715 .44499208 .23213196 .41099549 .2810974 .2899933 .37101747M.27198792 .26809693C.34498597 .21614075 .36898805 .18017578 .36898805 .1242218 .36898805 .059280397 .32398988 .014328003 .25898744 .014328003 .18299866 .014328003 .13198853 .072265628 .13198853 .15919495 .13198853 .22314453 .1539917 .2651062 .21199036 .3120575L.27198792 .26809693M.26098634 .3889923C.17199707 .4469452 .13598633 .49290467 .13598633 .54885867 .13598633 .6068115 .18099976 .6477661 .24398804 .6477661 .31199647 .6477661 .35499574 .60380557 .35499574 .53486636 .35499574 .47792054 .32699586 .43295289 .269989 .394989 .2649994 .3919983 .2649994 .3919983 .26098634 .3889923Z"/>
<path id="font_1_176" d="M.0069885256 .6231842C.019989014 .6241913 .0289917 .6251831 .038986207 .6251831 .07199097 .6251831 .08198547 .6121826 .08198547 .5641937V.08201599C.08198547 .02999878 .07899475 .026992798 .0069885256 .01499939V0H.24099732V.01499939L.22099304 .015991211C.18099976 .017990113 .1659851 .03199768 .1659851 .0670166V.25109864L.30599977 .06401062 .30899049 .060012819C.31098939 .057006837 .31298829 .054016115 .31599427 .05101013 .32398988 .041000368 .32699586 .035003663 .32699586 .02999878 .32699586 .020996094 .31799317 .01499939 .30599977 .01499939H.2869873V0H.5049896V.01499939C.46099855 .017990113 .42999269 .037002565 .3880005 .088027957L.23498535 .28211976 .2639923 .3091278C.33499146 .3751526 .39698792 .42118836 .42599488 .42918397 .44099427 .43318177 .45498658 .43518067 .47200013 .43518067H.47999574V.4501953H.27598573V.43618775C.31498719 .43518067 .32598878 .43118287 .32598878 .4171753 .32598878 .4091797 .31698609 .39517213 .30299378 .38316346L.1659851 .2611084V.68118289L.1619873 .68318179C.12399292 .67118838 .09498596 .66319277 .036987306 .6471863L.0069885256 .6391907V.6231842Z"/>
<path id="font_1_148" d="M.20199585 .29107667C.22799683 .28907777 .24499512 .28808595 .2709961 .28808595 .34899903 .28808595 .40299989 .29808045 .44599916 .32208253 .5059967 .3540802 .5419922 .41508485 .5419922 .48109437 .5419922 .52308657 .5279999 .5610962 .5009918 .59010317 .46099855 .63409426 .37399293 .6621094 .27999879 .6621094H.015991211V.6430969C.08999634 .6351013 .099990848 .6251068 .099990848 .5530853V.120010379C.099990848 .035995485 .09199524 .026000977 .015991211 .018997193V0H.29599V.018997193C.21699524 .021987915 .20199585 .035995485 .20199585 .10900879V.29107667M.20199585 .591095C.20199585 .618103 .20899964 .6251068 .23599243 .6251068 .37098695 .6251068 .43299867 .5780945 .43299867 .4750824 .43299867 .37808229 .37399293 .32807923 .25898744 .32807923 .23899842 .32807923 .22499085 .32907105 .20199585 .3310852V.591095Z"/>
<path id="font_1_186" d="M.47898866 .050186159H.47399903C.42799378 .050186159 .4169922 .061187746 .4169922 .10719299V.4501953H.25898744V.43318177C.32099916 .43019105 .33299256 .42018128 .33299256 .37019349V.13522339C.33299256 .10722351 .32798768 .09321594 .31399537 .082229617 .2869873 .06022644 .2559967 .048233034 .22599793 .048233034 .18699646 .048233034 .15499878 .082229617 .15499878 .1242218V.4501953H.008987427V.43618775C.056991579 .43318177 .070999149 .41818238 .070999149 .37219239V.120224C.070999149 .041229249 .11898804-.009765625 .19198609-.009765625 .22898865-.009765625 .2679901 .006225586 .29499818 .033233644L.33799745 .07621765V-.0067749025L.34199525-.0087890629C.3919983 .011199951 .42799378 .022201539 .47898866 .036209108V.050186159Z"/>
<path id="font_1_191" d="M.41799928 .13504029 .3999939 .13905335C.3899994 .089019779 .38398744 .073013309 .37098695 .055999757 .35699464 .039001466 .32299806 .02999878 .27198792 .02999878H.13398743L.40299989 .43518067V.4501953H.055999757L.052993776 .33213807H.070999149C.07998657 .40518189 .09498596 .42018128 .15499878 .42018128H.29299928L.026992798 .01499939V0H.4039917L.41799928 .13504029Z"/>
<path id="font_1_173" d="M.15699768 .34295655C.19898987 .38894654 .22898865 .40596009 .2679901 .40596009 .31799317 .40596009 .34298707 .36994935 .34298707 .29995729V.101989749C.34298707 .033996583 .33299256 .020996094 .2749939 .01499939V0H.4869995V.01499939C.43299867 .024993897 .4269867 .032989503 .4269867 .101989749V.30096437C.4269867 .40596009 .3849945 .45996095 .3039856 .45996095 .24499512 .45996095 .20298767 .43595887 .15699768 .3759613V.6799469L.1519928 .6829529C.117996219 .6709595 .09298706 .6629486 .036987306 .6469574L.009994507 .63894656V.6229553C.01399231 .62394717 .016998291 .62394717 .021987915 .62394717 .06498718 .62394717 .07299805 .61595156 .07299805 .5729523V.101989749C.07299805 .03199768 .066986087 .022994996 .008987427 .01499939V0H.22499085V.01499939C.16699219 .020996094 .15699768 .032989503 .15699768 .101989749V.34295655Z"/>
<path id="font_1_172" d="M.46998597 .38775636V.4267578H.3929901C.37298585 .4267578 .35798646 .4298706 .33799745 .43695069L.31599427 .4449463C.2889862 .45495606 .2619934 .45996095 .23599243 .45996095 .14299011 .45996095 .068984989 .38775636 .068984989 .29678346 .068984989 .23379517 .09599304 .19581604 .1619873 .16282654 .14299011 .14482117 .125 .1278534 .11898804 .12286377 .085998538 .09391785 .07299805 .07394409 .07299805 .053985597 .07299805 .03302002 .084991458 .02104187 .12599182 .0010375977 .054992677-.05101013 .027999878-.08406067 .027999878-.12109375 .027999878-.1741333 .10598755-.21813965 .20098877-.21813965 .27598573-.21813965 .35398866-.19213867 .4059906-.15013123 .44400025-.11909485 .46099855-.08705139 .46099855-.04901123 .46099855 .013046265 .4139862 .054977418 .33999635 .05796814L.21099854 .063964847C.1579895 .065963748 .1329956 .07495117 .1329956 .090911868 .1329956 .11088562 .1659851 .14582825 .19299317 .15382385 .20199585 .15281677 .20899964 .15182495 .21199036 .15182495 .23098755 .14982605 .24398804 .14881897 .25 .14881897 .2869873 .14881897 .32699586 .16381836 .35798646 .19081116 .3909912 .21881104 .4059906 .25379945 .4059906 .30377198 .4059906 .33276368 .40098573 .35575868 .3869934 .38775636H.46998597M.14698792-.001953125C.17999268-.008972168 .2599945-.014968872 .30899049-.014968872 .3999939-.014968872 .43299867-.02798462 .43299867-.06402588 .43299867-.12210083 .35699464-.16113281 .24398804-.16113281 .1559906-.16113281 .09799194-.1321106 .09799194-.08805847 .09799194-.06503296 .10499573-.052017213 .14698792-.001953125M.1519928 .33776856C.1519928 .39674378 .17999268 .4319458 .22599793 .4319458 .25698854 .4319458 .2829895 .41474916 .29899598 .38475038 .31698609 .34976197 .32899476 .30377198 .32899476 .26478578 .32899476 .20881653 .2999878 .17382813 .2539978 .17382813 .19400025 .17382813 .1519928 .23880005 .1519928 .33476258V.33776856Z"/>
<path id="font_1_181" d="M.008987427 .39320375C.017990113 .39419557 .024993897 .39419557 .033996583 .39419557 .067993167 .39419557 .07499695 .38420106 .07499695 .33720399V-.13079834C.07499695-.1828003 .06399536-.19380188 .004989624-.19979859V-.21679688H.24699402V-.19880677C.17199707-.19779969 .15899658-.1867981 .15899658-.123794559V.033218385C.19400025 .00022888184 .21798706-.009765625 .2599945-.009765625 .37799073-.009765625 .46998597 .10217285 .46998597 .24707031 .46998597 .37097169 .3999939 .45996095 .30299378 .45996095 .24699402 .45996095 .20298767 .43495179 .15899658 .3809662V.45794679L.15299988 .45996095C.09899902 .43894959 .06399536 .4259491 .008987427 .4089508V.39320375M.15899658 .33399964C.15899658 .36398316 .21499634 .39994813 .26098634 .39994813 .33499146 .39994813 .38398744 .32400514 .38398744 .2080841 .38398744 .09716797 .33499146 .022232056 .2630005 .022232056 .21598816 .022232056 .15899658 .05819702 .15899658 .08818054V.33399964Z"/>
</defs>
<path transform="matrix(1,0,0,-1,0,117.83952)" d="M0 0H194.15952V117.83952H0Z" fill="#ffffff"/>
<path transform="matrix(1,0,0,-1,0,117.83952)" d="M34.380105 14.317975H193.07952V104.680408H34.380105Z" fill="#ffffff"/>
<path transform="matrix(1,0,0,-1,0,117.83952)" d="M69.201358 14.317975V10.817975"/>
<path transform="matrix(1,0,0,-1,0,117.83952)" stroke-width=".8" stroke-linecap="butt" stroke-linejoin="round" fill="none" stroke="#000000" d="M69.201358 14.317975V10.817975"/>
<use data-text="A" xlink:href="#font_1_133" transform="matrix(6.973848,0,0,-6.973848,52.64216,115.24974)"/>
<use data-text="n" xlink:href="#font_1_179" transform="matrix(6.973848,0,0,-6.973848,57.670305,115.24974)"/>
<use data-text="a" xlink:href="#font_1_166" transform="matrix(6.973848,0,0,-6.973848,61.157228,115.24974)"/>
<use data-text="l" xlink:href="#font_1_177" transform="matrix(6.973848,0,0,-6.973848,64.24664,115.24974)"/>
<use data-text="y" xlink:href="#font_1_190" transform="matrix(6.973848,0,0,-6.973848,66.1784,115.24974)"/>
<use data-text="t" xlink:href="#font_1_185" transform="matrix(6.973848,0,0,-6.973848,69.66532,115.24974)"/>
<use data-text="i" xlink:href="#font_1_174" transform="matrix(6.973848,0,0,-6.973848,71.59708,115.24974)"/>
<use data-text="c" xlink:href="#font_1_168" transform="matrix(6.973848,0,0,-6.973848,73.52883,115.24974)"/>
<use data-text="I" xlink:href="#font_1_141" transform="matrix(6.973848,0,0,-6.973848,78.36171,115.24974)"/>
<use data-text="K" xlink:href="#font_1_143" transform="matrix(6.973848,0,0,-6.973848,80.677028,115.24974)"/>
<path transform="matrix(1,0,0,-1,0,117.83952)" d="M158.25827 14.317975V10.817975"/>
<path transform="matrix(1,0,0,-1,0,117.83952)" stroke-width=".8" stroke-linecap="butt" stroke-linejoin="round" fill="none" stroke="#000000" d="M158.25827 14.317975V10.817975"/>
<use data-text="D" xlink:href="#font_1_136" transform="matrix(6.973848,0,0,-6.973848,125.40488,115.24974)"/>
<use data-text="i" xlink:href="#font_1_174" transform="matrix(6.973848,0,0,-6.973848,130.43302,115.24974)"/>
<use data-text="f" xlink:href="#font_1_171" transform="matrix(6.973848,0,0,-6.973848,132.36478,115.24974)"/>
<use data-text="f" xlink:href="#font_1_171" transform="matrix(6.973848,0,0,-6.973848,134.50577,115.24974)"/>
<use data-text="-" xlink:href="#font_1_241" transform="matrix(6.973848,0,0,-6.973848,136.82109,115.24974)"/>
<use data-text="I" xlink:href="#font_1_141" transform="matrix(6.973848,0,0,-6.973848,139.13642,115.24974)"/>
<use data-text="K" xlink:href="#font_1_143" transform="matrix(6.973848,0,0,-6.973848,141.45174,115.24974)"/>
<use data-text="@" xlink:href="#font_1_255" transform="matrix(6.973848,0,0,-6.973848,148.22335,115.24974)"/>
<use data-text="2" xlink:href="#font_1_204" transform="matrix(6.973848,0,0,-6.973848,156.38275,115.24974)"/>
<use data-text="0" xlink:href="#font_1_212" transform="matrix(6.973848,0,0,-6.973848,159.86968,115.24974)"/>
<use data-text="i" xlink:href="#font_1_174" transform="matrix(6.973848,0,0,-6.973848,165.10007,115.24974)"/>
<use data-text="t" xlink:href="#font_1_185" transform="matrix(6.973848,0,0,-6.973848,167.03183,115.24974)"/>
<use data-text="e" xlink:href="#font_1_170" transform="matrix(6.973848,0,0,-6.973848,168.9636,115.24974)"/>
<use data-text="r" xlink:href="#font_1_183" transform="matrix(6.973848,0,0,-6.973848,172.05301,115.24974)"/>
<use data-text="a" xlink:href="#font_1_166" transform="matrix(6.973848,0,0,-6.973848,174.36833,115.24974)"/>
<use data-text="t" xlink:href="#font_1_185" transform="matrix(6.973848,0,0,-6.973848,177.45775,115.24974)"/>
<use data-text="i" xlink:href="#font_1_174" transform="matrix(6.973848,0,0,-6.973848,179.38951,115.24974)"/>
<use data-text="o" xlink:href="#font_1_180" transform="matrix(6.973848,0,0,-6.973848,181.32128,115.24974)"/>
<use data-text="n" xlink:href="#font_1_179" transform="matrix(6.973848,0,0,-6.973848,184.8082,115.24974)"/>
<use data-text="s" xlink:href="#font_1_184" transform="matrix(6.973848,0,0,-6.973848,188.29512,115.24974)"/>
<g clip-path="url(#clip_2)">
<path transform="matrix(1,0,0,-1,0,117.83952)" stroke-width=".5" stroke-linecap="square" stroke-linejoin="round" fill="none" stroke="#dcdcdc" d="M34.380105 14.317975H193.07952"/>
</g>
<path transform="matrix(1,0,0,-1,0,117.83952)" d="M34.380105 14.317975H30.880103"/>
<path transform="matrix(1,0,0,-1,0,117.83952)" stroke-width=".8" stroke-linecap="butt" stroke-linejoin="round" fill="none" stroke="#000000" d="M34.380105 14.317975H30.880103"/>
<use data-text="0" xlink:href="#font_3_50" transform="matrix(6.973848,0,0,-6.973848,13.100263,105.88564)"/>
<use data-text="." xlink:href="#font_4_59" transform="matrix(6.973848,0,0,-6.973848,17.0715,105.88564)"/>
<use data-text="0" xlink:href="#font_3_50" transform="matrix(6.973848,0,0,-6.973848,19.437628,105.88564)"/>
<use data-text="0" xlink:href="#font_3_50" transform="matrix(6.973848,0,0,-6.973848,23.405747,105.88564)"/>
<g clip-path="url(#clip_5)">
<path transform="matrix(1,0,0,-1,0,117.83952)" stroke-width=".5" stroke-linecap="square" stroke-linejoin="round" fill="none" stroke="#dcdcdc" d="M34.380105 30.54512H193.07952"/>
</g>
<path transform="matrix(1,0,0,-1,0,117.83952)" d="M34.380105 30.54512H30.880103"/>
<path transform="matrix(1,0,0,-1,0,117.83952)" stroke-width=".8" stroke-linecap="butt" stroke-linejoin="round" fill="none" stroke="#000000" d="M34.380105 30.54512H30.880103"/>
<use data-text="0" xlink:href="#font_3_50" transform="matrix(6.973848,0,0,-6.973848,13.100263,89.6585)"/>
<use data-text="." xlink:href="#font_4_59" transform="matrix(6.973848,0,0,-6.973848,17.0715,89.6585)"/>
<use data-text="2" xlink:href="#font_3_52" transform="matrix(6.973848,0,0,-6.973848,19.437628,89.6585)"/>
<use data-text="5" xlink:href="#font_3_55" transform="matrix(6.973848,0,0,-6.973848,23.405747,89.6585)"/>
<g clip-path="url(#clip_6)">
<path transform="matrix(1,0,0,-1,0,117.83952)" stroke-width=".5" stroke-linecap="square" stroke-linejoin="round" fill="none" stroke="#dcdcdc" d="M34.380105 46.772264H193.07952"/>
</g>
<path transform="matrix(1,0,0,-1,0,117.83952)" d="M34.380105 46.772264H30.880103"/>
<path transform="matrix(1,0,0,-1,0,117.83952)" stroke-width=".8" stroke-linecap="butt" stroke-linejoin="round" fill="none" stroke="#000000" d="M34.380105 46.772264H30.880103"/>
<use data-text="0" xlink:href="#font_3_50" transform="matrix(6.973848,0,0,-6.973848,13.100263,73.43136)"/>
<use data-text="." xlink:href="#font_4_59" transform="matrix(6.973848,0,0,-6.973848,17.0715,73.43136)"/>
<use data-text="5" xlink:href="#font_3_55" transform="matrix(6.973848,0,0,-6.973848,19.437628,73.43136)"/>
<use data-text="0" xlink:href="#font_3_50" transform="matrix(6.973848,0,0,-6.973848,23.405747,73.43136)"/>
<g clip-path="url(#clip_7)">
<path transform="matrix(1,0,0,-1,0,117.83952)" stroke-width=".5" stroke-linecap="square" stroke-linejoin="round" fill="none" stroke="#dcdcdc" d="M34.380105 62.99941H193.07952"/>
</g>
<path transform="matrix(1,0,0,-1,0,117.83952)" d="M34.380105 62.99941H30.880103"/>
<path transform="matrix(1,0,0,-1,0,117.83952)" stroke-width=".8" stroke-linecap="butt" stroke-linejoin="round" fill="none" stroke="#000000" d="M34.380105 62.99941H30.880103"/>
<use data-text="0" xlink:href="#font_3_50" transform="matrix(6.973848,0,0,-6.973848,13.100263,57.204214)"/>
<use data-text="." xlink:href="#font_4_59" transform="matrix(6.973848,0,0,-6.973848,17.0715,57.204214)"/>
<use data-text="7" xlink:href="#font_3_57" transform="matrix(6.973848,0,0,-6.973848,19.437628,57.204214)"/>
<use data-text="5" xlink:href="#font_3_55" transform="matrix(6.973848,0,0,-6.973848,23.405747,57.204214)"/>
<g clip-path="url(#clip_8)">
<path transform="matrix(1,0,0,-1,0,117.83952)" stroke-width=".5" stroke-linecap="square" stroke-linejoin="round" fill="none" stroke="#dcdcdc" d="M34.380105 79.226558H193.07952"/>
</g>
<path transform="matrix(1,0,0,-1,0,117.83952)" d="M34.380105 79.226558H30.880103"/>
<path transform="matrix(1,0,0,-1,0,117.83952)" stroke-width=".8" stroke-linecap="butt" stroke-linejoin="round" fill="none" stroke="#000000" d="M34.380105 79.226558H30.880103"/>
<use data-text="1" xlink:href="#font_3_51" transform="matrix(6.973848,0,0,-6.973848,13.100263,40.977067)"/>
<use data-text="." xlink:href="#font_4_59" transform="matrix(6.973848,0,0,-6.973848,17.0715,40.977067)"/>
<use data-text="0" xlink:href="#font_3_50" transform="matrix(6.973848,0,0,-6.973848,19.437628,40.977067)"/>
<use data-text="0" xlink:href="#font_3_50" transform="matrix(6.973848,0,0,-6.973848,23.405747,40.977067)"/>
<g clip-path="url(#clip_9)">
<path transform="matrix(1,0,0,-1,0,117.83952)" stroke-width=".5" stroke-linecap="square" stroke-linejoin="round" fill="none" stroke="#dcdcdc" d="M34.380105 95.4537H193.07952"/>
</g>
<path transform="matrix(1,0,0,-1,0,117.83952)" d="M34.380105 95.4537H30.880103"/>
<path transform="matrix(1,0,0,-1,0,117.83952)" stroke-width=".8" stroke-linecap="butt" stroke-linejoin="round" fill="none" stroke="#000000" d="M34.380105 95.4537H30.880103"/>
<use data-text="1" xlink:href="#font_3_51" transform="matrix(6.973848,0,0,-6.973848,13.100263,24.749924)"/>
<use data-text="." xlink:href="#font_4_59" transform="matrix(6.973848,0,0,-6.973848,17.0715,24.749924)"/>
<use data-text="2" xlink:href="#font_3_52" transform="matrix(6.973848,0,0,-6.973848,19.437628,24.749924)"/>
<use data-text="5" xlink:href="#font_3_55" transform="matrix(6.973848,0,0,-6.973848,23.405747,24.749924)"/>
<use data-text="I" xlink:href="#font_1_141" transform="matrix(0,-8.966376,-8.966376,-0,7.1591169,80.56323)"/>
<use data-text="K" xlink:href="#font_1_143" transform="matrix(0,-8.966376,-8.966376,-0,7.1591169,77.586399)"/>
<use data-text="s" xlink:href="#font_1_184" transform="matrix(0,-8.966376,-8.966376,-0,7.1591169,68.88005)"/>
<use data-text="o" xlink:href="#font_1_180" transform="matrix(0,-8.966376,-8.966376,-0,7.1591169,65.40109)"/>
<use data-text="l" xlink:href="#font_1_177" transform="matrix(0,-8.966376,-8.966376,-0,7.1591169,60.917909)"/>
<use data-text="v" xlink:href="#font_1_187" transform="matrix(0,-8.966376,-8.966376,-0,7.1591169,58.434225)"/>
<use data-text="e" xlink:href="#font_1_170" transform="matrix(0,-8.966376,-8.966376,-0,7.1591169,54.08545)"/>
<use data-text="s" xlink:href="#font_1_184" transform="matrix(0,-8.966376,-8.966376,-0,7.1591169,50.113344)"/>
<use data-text="/" xlink:href="#font_1_240" transform="matrix(0,-8.966376,-8.966376,-0,7.1591169,44.3928)"/>
<use data-text="s" xlink:href="#font_1_184" transform="matrix(0,-8.966376,-8.966376,-0,7.1591169,39.66752)"/>
<use data-text="&#x00d7;" xlink:href="#font_10_3" transform="matrix(6.973848,0,0,-6.973848,34.380105,10.159119)"/>
<use data-text="1" xlink:href="#font_3_51" transform="matrix(6.973848,0,0,-6.973848,40.60677,10.159119)"/>
<use data-text="0" xlink:href="#font_3_50" transform="matrix(6.973848,0,0,-6.973848,44.57489,10.159119)"/>
<use data-text="6" xlink:href="#font_11_56" transform="matrix(4.98132,0,0,-4.98132,48.549245,7.152603)"/>
<path transform="matrix(1,0,0,-1,0,117.83952)" stroke-width="1.25" stroke-linecap="square" stroke-miterlimit="10" stroke-linejoin="miter" fill="none" stroke="#000000" d="M34.380105 14.317975V104.680408"/>
<path transform="matrix(1,0,0,-1,0,117.83952)" stroke-width="1.25" stroke-linecap="square" stroke-miterlimit="10" stroke-linejoin="miter" fill="none" stroke="#000000" d="M34.380105 14.317975H193.07952"/>
<g clip-path="url(#clip_12)">
<path transform="matrix(1,0,0,-1,0,117.83952)" d="M41.59371 14.317975H96.809V90.8963H41.59371Z" fill="#5f4690"/>
</g>
<g clip-path="url(#clip_13)">
<path transform="matrix(1,0,0,-1,0,117.83952)" d="M130.65062 14.317975H185.8659V22.233803H130.65062Z" fill="#1d6996"/>
</g>
<use data-text="1" xlink:href="#font_1_203" transform="matrix(6.973848,0,0,-6.973848,57.86885,23.518982)"/>
<use data-text="1" xlink:href="#font_1_203" transform="matrix(6.973848,0,0,-6.973848,61.355775,23.518982)"/>
<use data-text="7" xlink:href="#font_1_209" transform="matrix(6.973848,0,0,-6.973848,64.8427,23.518982)"/>
<use data-text="9" xlink:href="#font_1_211" transform="matrix(6.973848,0,0,-6.973848,68.32962,23.518982)"/>
<use data-text="." xlink:href="#font_1_222" transform="matrix(6.973848,0,0,-6.973848,71.81654,23.518982)"/>
<use data-text="8" xlink:href="#font_1_210" transform="matrix(6.973848,0,0,-6.973848,73.560009,23.518982)"/>
<use data-text="k" xlink:href="#font_1_176" transform="matrix(6.973848,0,0,-6.973848,77.04693,23.518982)"/>
<use data-text="1" xlink:href="#font_1_203" transform="matrix(6.973848,0,0,-6.973848,148.66922,92.18148)"/>
<use data-text="2" xlink:href="#font_1_204" transform="matrix(6.973848,0,0,-6.973848,152.15615,92.18148)"/>
<use data-text="2" xlink:href="#font_1_204" transform="matrix(6.973848,0,0,-6.973848,155.64307,92.18148)"/>
<use data-text="." xlink:href="#font_1_222" transform="matrix(6.973848,0,0,-6.973848,159.12999,92.18148)"/>
<use data-text="0" xlink:href="#font_1_212" transform="matrix(6.973848,0,0,-6.973848,160.87346,92.18148)"/>
<use data-text="k" xlink:href="#font_1_176" transform="matrix(6.973848,0,0,-6.973848,164.36038,92.18148)"/>
<use data-text="P" xlink:href="#font_1_148" transform="matrix(8.966376,0,0,-8.966376,63.119516,7.1591188)"/>
<use data-text="u" xlink:href="#font_1_186" transform="matrix(8.966376,0,0,-8.966376,68.095859,7.1591188)"/>
<use data-text="z" xlink:href="#font_1_191" transform="matrix(8.966376,0,0,-8.966376,72.57904,7.1591188)"/>
<use data-text="z" xlink:href="#font_1_191" transform="matrix(8.966376,0,0,-8.966376,76.55115,7.1591188)"/>
<use data-text="l" xlink:href="#font_1_177" transform="matrix(8.966376,0,0,-8.966376,80.523258,7.1591188)"/>
<use data-text="e" xlink:href="#font_1_170" transform="matrix(8.966376,0,0,-8.966376,83.00694,7.1591188)"/>
<use data-text="I" xlink:href="#font_1_141" transform="matrix(8.966376,0,0,-8.966376,89.22064,7.1591188)"/>
<use data-text="K" xlink:href="#font_1_143" transform="matrix(8.966376,0,0,-8.966376,92.19748,7.1591188)"/>
<use data-text="s" xlink:href="#font_1_184" transform="matrix(8.966376,0,0,-8.966376,100.90383,7.1591188)"/>
<use data-text="o" xlink:href="#font_1_180" transform="matrix(8.966376,0,0,-8.966376,104.38278,7.1591188)"/>
<use data-text="l" xlink:href="#font_1_177" transform="matrix(8.966376,0,0,-8.966376,108.86597,7.1591188)"/>
<use data-text="v" xlink:href="#font_1_187" transform="matrix(8.966376,0,0,-8.966376,111.349658,7.1591188)"/>
<use data-text="e" xlink:href="#font_1_170" transform="matrix(8.966376,0,0,-8.966376,115.698429,7.1591188)"/>
<use data-text="r" xlink:href="#font_1_183" transform="matrix(8.966376,0,0,-8.966376,119.67053,7.1591188)"/>
<use data-text="t" xlink:href="#font_1_185" transform="matrix(8.966376,0,0,-8.966376,124.88896,7.1591188)"/>
<use data-text="h" xlink:href="#font_1_173" transform="matrix(8.966376,0,0,-8.966376,127.37265,7.1591188)"/>
<use data-text="r" xlink:href="#font_1_183" transform="matrix(8.966376,0,0,-8.966376,131.85584,7.1591188)"/>
<use data-text="o" xlink:href="#font_1_180" transform="matrix(8.966376,0,0,-8.966376,134.83267,7.1591188)"/>
<use data-text="u" xlink:href="#font_1_186" transform="matrix(8.966376,0,0,-8.966376,139.31586,7.1591188)"/>
<use data-text="g" xlink:href="#font_1_172" transform="matrix(8.966376,0,0,-8.966376,143.79904,7.1591188)"/>
<use data-text="h" xlink:href="#font_1_173" transform="matrix(8.966376,0,0,-8.966376,148.28223,7.1591188)"/>
<use data-text="p" xlink:href="#font_1_181" transform="matrix(8.966376,0,0,-8.966376,152.76541,7.1591188)"/>
<use data-text="u" xlink:href="#font_1_186" transform="matrix(8.966376,0,0,-8.966376,157.2486,7.1591188)"/>
<use data-text="t" xlink:href="#font_1_185" transform="matrix(8.966376,0,0,-8.966376,161.73178,7.1591188)"/>
</svg>
