<svg width="595" height="591" viewBox="0 0 595 591" fill="none" xmlns="http://www.w3.org/2000/svg">
    <path d="M170.193 139.122C168.299 139.122 146.5 138.597 142.676 139.122C129 141 116.888 142.131 104.639 147.031C95.6515 150.626 90.2801 159.67 86.2453 167.889C78.116 184.449 74.549 203.271 65.2032 219.244C60.4633 227.345 54.4912 234.747 50.6725 243.339C46.6654 252.355 45.3384 260.78 45.3384 270.672C45.3384 275.848 46.6416 280.389 47.3249 285.46C48.1835 291.832 48.3947 298.145 48.686 304.552C49.171 315.224 50.8336 325.833 51.261 336.52C51.5412 343.523 54.1123 349.494 55.5651 356.274C57.0278 363.1 59.0397 369.576 61.8924 375.955C67.2348 387.903 71.845 399.078 79.1086 410.093C85.9373 420.449 92.0786 431.202 99.6357 441.068C103.111 445.606 105.692 450.771 109.237 455.231C113.162 460.169 118.215 464.088 122.811 468.364C130.317 475.344 136.252 483.706 141.83 492.312C149.188 503.664 157.167 513.558 167.691 522.109C174.186 527.386 180.552 533.025 185.091 540.061C186.868 542.815 188.473 545.529 191.75 546.499C197.055 548.069 202.595 548.924 207.752 550.987C215.435 554.06 221.823 557.965 228.904 562.096C234.522 565.373 242.08 566.815 248.401 568.203C255.299 569.717 262.768 569.99 269.811 569.38C274.956 568.935 279.965 567.773 285.151 567.578C288.373 567.456 291.694 567.508 294.679 566.069C303.121 561.999 311.76 554.213 315.133 545.322C319.271 534.412 318.149 523.063 318.149 511.588C318.149 502.565 320.735 497.168 326.463 490.399C332.648 483.089 339.218 475.626 343.311 466.855C344.588 464.119 346.332 461.628 347.578 458.909C348.765 456.32 348.719 453.244 349.271 450.485C350.477 444.454 349.933 438.076 349.933 431.945C349.933 421.553 345.96 411.665 345.96 401.338C345.96 384.097 345.298 366.674 345.298 349.358C345.298 343.556 345.96 338.048 345.96 332.326C345.96 329.242 346.256 326.594 346.769 323.571C347.479 319.393 349.058 314.77 349.271 310.622C349.468 306.767 351.205 302.466 352.25 298.703C353.265 295.051 353.234 291.129 354.237 287.52C356.58 279.084 358.541 269.833 358.541 260.997C358.541 252.1 356.544 244.474 351.772 236.975C348.962 232.559 343.101 229.43 338.823 226.527C335.081 223.988 330.691 222.58 327.051 220.053C318.921 214.407 312.865 208.399 306.929 200.409C303.938 196.382 302.938 191.785 299.609 188.085C295.794 183.846 294.115 178.354 290.228 174.143C285.082 168.568 280.789 164.185 273.931 160.973C269.508 158.902 264.721 155.514 260.688 152.733C257.446 150.497 253.756 147.788 249.946 146.553C245.118 144.987 239.927 143.531 235.232 141.624C221.763 136.152 208.46 136.748 194.104 137.945C186.061 138.615 178.277 139.122 170.193 139.122Z" fill="#36C2F6" fill-opacity="0.2"/>
    <path d="M404.722 2.89645C373.667 2.89645 343.174 1.94319 312.396 6.38891C295.5 8.82942 227.666 55.7228 221 61C202.174 75.9041 194.244 96.6186 172.429 107.133C117.537 133.59 57.1337 155.323 20.9103 207.071C5.36617 229.277 2.9071 259.762 2.10475 285.875C1.51759 304.984 3.36278 323.547 8.55236 341.933C14.5389 363.143 26.1394 382.885 36.0442 402.469C51.5364 433.101 70.8655 462.045 91.1176 489.691C116.39 524.19 151.316 552.588 189.802 571.54C223.118 587.946 256.649 589.706 293.59 588.286C319.468 587.29 341.243 582.568 361.559 566.077C371.706 557.84 384.119 545.118 388.245 532.138C396.386 506.523 385.304 473.62 379.827 448.677C374.826 425.897 367.976 402.674 365.857 379.365C365.279 373.005 365.529 366.501 368.902 360.918C380.443 341.815 409.549 331.124 428.005 321.247C458.339 305.014 491.548 288.512 517.555 265.636C539.685 246.172 551.749 224.369 564.479 197.937C579.167 167.44 587.164 132.152 592.509 98.8942C594.534 86.2914 592.409 73.3842 591.792 60.7458C591.236 49.3415 588.191 38.6435 582.748 28.5078C573.041 10.4335 541.705 7.97442 524.182 5.40386C485.237 -0.30939 443.867 2.89645 404.722 2.89645Z" fill="#FB923C" fill-opacity="0.2" stroke="black" stroke-width="3" stroke-linecap="round"/>
    <path d="M124.907 227.599C152.796 185.469 197.735 201.206 235.402 205.142C253.354 209.731 268.507 214.561 286.761 218.859C297.847 221.47 309.704 224.6 317.218 236.338C331.412 258.512 329.043 297.292 329.525 324.366C329.85 342.655 334 360.365 334 379.184C334 403.835 330.187 416.102 321.693 437.817C314.907 455.165 309.381 477.659 292.728 481.354C261.557 488.27 130.013 438.171 118.691 402.224C109.573 373.276 108 351.83 108 321.188C108 304.088 110.215 287.419 112.6 270.659C114.393 258.054 118.39 237.442 124.907 227.599Z" fill="#FB923C" fill-opacity="0.5"/>
    <path d="M143.69 244.487C166.273 207.307 199.131 218.165 231.337 224.574C245.873 228.624 259.968 232.981 274.749 236.774C283.726 239.078 293.327 241.84 299.411 252.199C310.904 271.768 308.986 305.992 309.376 329.885C309.64 346.026 313 361.655 313 378.264C313 400.018 309.913 410.844 303.035 430.008C297.54 445.317 293.065 465.169 279.581 468.43C254.34 474.533 147.825 430.321 138.657 398.597C131.274 373.049 130 354.123 130 327.081C130 311.99 131.794 297.279 133.724 282.488C135.176 271.364 138.413 253.174 143.69 244.487Z" fill="#FB923C" fill-opacity="0.8" stroke="black" stroke-width="3" stroke-linecap="round"/>
    <circle cx="186" cy="257" r="4" fill="#36C2F6"/>
    <circle cx="146" cy="170" r="4" fill="#36C2F6"/>
    <path d="M149 176.901L147.885 188.394L158.396 183.613L149 176.901ZM183.12 249.502L181.044 244.938L179.223 245.766L181.299 250.33L183.12 249.502ZM176.893 235.811L172.742 226.685L170.921 227.513L175.072 236.639L176.893 235.811ZM168.591 217.558L164.439 208.431L162.619 209.259L166.77 218.386L168.591 217.558ZM160.288 199.304L156.137 190.177L154.317 191.005L158.468 200.132L160.288 199.304ZM149 176.901L147.885 188.394L158.396 183.613L149 176.901ZM183.12 249.502L181.044 244.938L179.223 245.766L181.299 250.33L183.12 249.502ZM176.893 235.811L172.742 226.685L170.921 227.513L175.072 236.639L176.893 235.811ZM168.591 217.558L164.439 208.431L162.619 209.259L166.77 218.386L168.591 217.558ZM160.288 199.304L156.137 190.177L154.317 191.005L158.468 200.132L160.288 199.304Z" fill="black"/>
</svg>