<?xml version="1.0" encoding="UTF-8" standalone="no"?>
<svg
   version="1.1"
   width="444.911pt"
   height="230.365pt"
   viewBox="0 0 444.911 230.365"
   id="svg273"
   sodipodi:docname="sinusoid-train-wo.svg"
   inkscape:version="1.1.2 (0a00cf5339, 2022-02-04)"
   xmlns:inkscape="http://www.inkscape.org/namespaces/inkscape"
   xmlns:sodipodi="http://sodipodi.sourceforge.net/DTD/sodipodi-0.dtd"
   xmlns="http://www.w3.org/2000/svg"
   xmlns:svg="http://www.w3.org/2000/svg">
  <sodipodi:namedview
     id="namedview275"
     pagecolor="#ffffff"
     bordercolor="#111111"
     borderopacity="1"
     inkscape:pageshadow="0"
     inkscape:pageopacity="0"
     inkscape:pagecheckerboard="1"
     inkscape:document-units="pt"
     showgrid="false"
     inkscape:zoom="2.7527977"
     inkscape:cx="296.60734"
     inkscape:cy="153.48022"
     inkscape:window-width="1846"
     inkscape:window-height="1136"
     inkscape:window-x="0"
     inkscape:window-y="0"
     inkscape:window-maximized="1"
     inkscape:current-layer="g271" />
  <defs
     id="defs203">
    <clipPath
       id="clip_0">
      <path
         transform="matrix(1,0,0,-1,-125.564,512.2)"
         d="M0 0H612V792H0Z"
         id="path200" />
    </clipPath>
  </defs>
  <g
     clip-path="url(#clip_0)"
     id="g271">
    <path
       transform="matrix(1,0,0,-1,12.456993,56.64502)"
       d="M4.25226 0C4.25226 2.34846 2.34846 4.25226 0 4.25226-2.34846 4.25226-4.25226 2.34846-4.25226 0-4.25226-2.34846-2.34846-4.25226 0-4.25226 2.34846-4.25226 4.25226-2.34846 4.25226 0ZM0 0"
       fill="#fb923c"
       id="path215" />
    <path
       transform="matrix(1,0,0,-1,12.456993,56.64502)"
       d="M4.25226 0C4.25226 2.34846 2.34846 4.25226 0 4.25226-2.34846 4.25226-4.25226 2.34846-4.25226 0-4.25226-2.34846-2.34846-4.25226 0-4.25226 2.34846-4.25226 4.25226-2.34846 4.25226 0ZM0 0"
       fill="#fb923c"
       id="path217" />
    <path
       transform="matrix(1,0,0,-1,12.456993,56.64502)"
       d="M4.25226 0C4.25226 2.34846 2.34846 4.25226 0 4.25226-2.34846 4.25226-4.25226 2.34846-4.25226 0-4.25226-2.34846-2.34846-4.25226 0-4.25226 2.34846-4.25226 4.25226-2.34846 4.25226 0ZM0 0"
       fill="#fb923c"
       id="path219" />
    <path
       transform="matrix(1,0,0,-1,12.456993,56.64502)"
       d="M4.25226 0C4.25226 2.34846 2.34846 4.25226 0 4.25226-2.34846 4.25226-4.25226 2.34846-4.25226 0-4.25226-2.34846-2.34846-4.25226 0-4.25226 2.34846-4.25226 4.25226-2.34846 4.25226 0ZM0 0"
       fill="#fb923c"
       id="path221" />
    <path
       transform="matrix(1,0,0,-1,12.456993,56.64502)"
       d="M68.03258 14.24324C68.03258 16.59172 66.12878 18.49551 63.7803 18.49551 61.43182 18.49551 59.52803 16.59172 59.52803 14.24324 59.52803 11.89476 61.43182 9.99098 63.7803 9.99098 66.12878 9.99098 68.03258 11.89476 68.03258 14.24324ZM63.7803 14.24324"
       fill="#fb923c"
       id="path223" />
    <path
       transform="matrix(1,0,0,-1,12.456993,56.64502)"
       d="M78.66263 1.76733C78.66263 4.1158 76.75883 6.01959 74.41037 6.01959 72.06189 6.01959 70.1581 4.1158 70.1581 1.76733 70.1581-.58113 72.06189-2.48492 74.41037-2.48492 76.75883-2.48492 78.66263-.58113 78.66263 1.76733ZM74.41037 1.76733"
       fill="#fb923c"
       id="path225" />
    <path
       transform="matrix(1,0,0,-1,12.456993,56.64502)"
       d="M94.6077-16.88518C94.6077-14.5367 92.7039-12.63292 90.35542-12.63292 88.00696-12.63292 86.10316-14.5367 86.10316-16.88518 86.10316-19.23366 88.00696-21.13745 90.35542-21.13745 92.7039-21.13745 94.6077-19.23366 94.6077-16.88518ZM90.35542-16.88518"
       fill="#fb923c"
       id="path227" />
    <path
       transform="matrix(1,0,0,-1,12.456993,56.64502)"
       d="M110.55278-32.17822C110.55278-29.82974 108.64899-27.92595 106.3005-27.92595 103.95203-27.92595 102.04825-29.82974 102.04825-32.17822 102.04825-34.5267 103.95203-36.43048 106.3005-36.43048 108.64899-36.43048 110.55278-34.5267 110.55278-32.17822ZM106.3005-32.17822"
       fill="#fb923c"
       id="path229" />
    <path
       transform="matrix(1,0,0,-1,12.456993,56.64502)"
       d="M131.8129-26.84047C131.8129-24.49199 129.9091-22.5882 127.56062-22.5882 125.21216-22.5882 123.30836-24.49199 123.30836-26.84047 123.30836-29.18895 125.21216-31.09274 127.56062-31.09274 129.9091-31.09274 131.8129-29.18895 131.8129-26.84047ZM127.56062-26.84047"
       fill="#fb923c"
       id="path231" />
    <path
       transform="matrix(1,0,0,-1,12.456993,56.64502)"
       d="M153.073-3.53337C153.073-1.18489 151.1692 .71887 148.82074 .71887 146.47226 .71887 144.56847-1.18489 144.56847-3.53337 144.56847-5.88185 146.47226-7.78564 148.82074-7.78564 151.1692-7.78564 153.073-5.88185 153.073-3.53337ZM148.82074-3.53337"
       fill="#fb923c"
       id="path233" />
    <path
       transform="matrix(1,0,0,-1,12.456993,56.64502)"
       d="M184.96315 30.99348C184.96315 33.34196 183.05936 35.24574 180.71088 35.24574 178.3624 35.24574 176.45862 33.34196 176.45862 30.99348 176.45862 28.645 178.3624 26.74121 180.71088 26.74121 183.05936 26.74121 184.96315 28.645 184.96315 30.99348ZM180.71088 30.99348"
       fill="#fb923c"
       id="path235" />
    <path
       transform="matrix(1,0,0,-1,12.456993,56.64502)"
       d="M216.85334 42.06604C216.85334 44.41452 214.94954 46.31831 212.60106 46.31831 210.25258 46.31831 208.34879 44.41452 208.34879 42.06604 208.34879 39.71756 210.25258 37.81377 212.60106 37.81377 214.94954 37.81377 216.85334 39.71756 216.85334 42.06604ZM212.60106 42.06604"
       fill="#fb923c"
       id="path237" />
    <path
       transform="matrix(1,0,0,-1,12.456993,56.64502)"
       d="M195.5932 36.33575C195.5932 38.68423 193.68943 40.58803 191.34095 40.58803 188.99246 40.58803 187.08867 38.68423 187.08867 36.33575 187.08867 33.98729 188.99246 32.0835 191.34095 32.0835 193.68943 32.0835 195.5932 33.98729 195.5932 36.33575ZM191.34095 36.33575"
       fill="#fb923c"
       id="path239" />
    <path
       transform="matrix(1,0,0,-1,12.456993,56.64502)"
       d="M227.48337 5.29294C227.48337 7.64142 225.57958 9.54521 223.23111 9.54521 220.88263 9.54521 218.97884 7.64142 218.97884 5.29294 218.97884 2.94446 220.88263 1.04068 223.23111 1.04068 225.57958 1.04068 227.48337 2.94446 227.48337 5.29294ZM223.23111 5.29294"
       fill="#fb923c"
       id="path241" />
    <path
       transform="matrix(1,0,0,-1,12.456993,56.64502)"
       d="M275.31864-40.00476C275.31864-37.65628 273.41484-35.75249 271.06636-35.75249 268.71788-35.75249 266.8141-37.65628 266.8141-40.00476 266.8141-42.35324 268.71788-44.25702 271.06636-44.25702 273.41484-44.25702 275.31864-42.35324 275.31864-40.00476ZM271.06636-40.00476"
       fill="#fb923c"
       id="path243" />
    <path
       transform="matrix(1,0,0,-1,12.456993,56.64502)"
       d="M323.15385-22.81528C323.15385-20.4668 321.2501-18.563 318.9016-18.563 316.55314-18.563 314.64933-20.4668 314.64933-22.81528 314.64933-25.16376 316.55314-27.06754 318.9016-27.06754 321.2501-27.06754 323.15385-25.16376 323.15385-22.81528ZM318.9016-22.81528"
       fill="#fb923c"
       id="path245" />
    <path
       transform="matrix(1,0,0,-1,12.456993,56.64502)"
       d="M259.37355-41.63261C259.37355-39.28413 257.46977-37.38036 255.12128-37.38036 252.7728-37.38036 250.86902-39.28413 250.86902-41.63261 250.86902-43.9811 252.7728-45.88489 255.12128-45.88489 257.46977-45.88489 259.37355-43.9811 259.37355-41.63261ZM255.12128-41.63261"
       fill="#fb923c"
       id="path247" />
    <path
       transform="matrix(1,0,0,-1,12.456993,56.64502)"
       d="M301.89375-7.04147C301.89375-4.693 299.98997-2.7892 297.6415-2.7892 295.293-2.7892 293.38923-4.693 293.38923-7.04147 293.38923-9.38995 295.293-11.29375 297.6415-11.29375 299.98997-11.29375 301.89375-9.38995 301.89375-7.04147ZM297.6415-7.04147"
       fill="#fb923c"
       id="path249" />
    <path
       transform="matrix(1,0,0,-1,12.456993,56.64502)"
       d="M365.67408 42.4339C365.67408 44.78238 363.7703 46.68617 361.4218 46.68617 359.07334 46.68617 357.16954 44.78238 357.16954 42.4339 357.16954 40.08542 359.07334 38.18163 361.4218 38.18163 363.7703 38.18163 365.67408 40.08542 365.67408 42.4339ZM361.4218 42.4339"
       fill="#fb923c"
       id="path251" />
    <path
       transform="matrix(1,0,0,-1,12.456993,56.64502)"
       d="M429.4544-12.23973C429.4544-9.89125 427.5506-7.98746 425.20213-7.98746 422.85368-7.98746 420.94987-9.89125 420.94987-12.23973 420.94987-14.58821 422.85368-16.49199 425.20213-16.49199 427.5506-16.49199 429.4544-14.58821 429.4544-12.23973ZM425.20213-12.23973"
       fill="#fb923c"
       id="path253" />
    <text
       xml:space="preserve"
       transform="matrix(1 0 -0 1 -125.564 512.2)"
       font-size="9.9626"
       font-family="CMR10"
       id="text269"><tspan
         y="-89.365"
         x="303.133"
         id="tspan267">1</tspan></text>
  </g>
</svg>
