<svg xmlns="http://www.w3.org/2000/svg" xmlns:xlink="http://www.w3.org/1999/xlink" xmlns:inkscape="http://www.inkscape.org/namespaces/inkscape" version="1.1" width="134.75952" height="107.18691" viewBox="0 0 134.75952 107.18691">
<defs>
<clipPath id="clip_1">
<path transform="matrix(1,0,0,-1,0,107.18691)" d="M31.257214 15.292301H133.67952V92.09952H31.257214Z"/>
</clipPath>
<path id="font_2_79" d="M.83399966 .5736542C.84399417 .6116333 .8600006 .64460757 .9399872 .64660647 .94499209 .64660647 .95999148 .6476135 .95999148 .6686096 .95999148 .6746063 .95500186 .6826172 .94499209 .6826172 .9119873 .6826172 .875 .6786041 .84098818 .6786041 .81700137 .6786041 .7589874 .6826172 .7350006 .6826172 .7299957 .6826172 .71499636 .6826172 .71499636 .660614 .71499636 .6476135 .7279968 .64660647 .7369995 .64660647 .7839966 .6456146 .8009949 .63061526 .8009949 .6056366 .8009949 .597641 .7999878 .59265139 .7969971 .5816498L.6879883 .1459198 .43399049 .66560366C.42599488 .6826172 .42399598 .6826172 .3999939 .6826172H.2630005C.24398804 .6826172 .23098755 .6826172 .23098755 .660614 .23098755 .64660647 .24299622 .64660647 .2639923 .64660647 .2849884 .64660647 .30699159 .6456146 .32798768 .6416168L.19400025 .10694885C.18499756 .06896973 .16799927 .038986207 .08999634 .035995485 .08299255 .035995485 .068984989 .034988405 .068984989 .01499939 .068984989 .0039978029 .07699585 0 .083999637 0 .116989139 0 .1539917 .0039978029 .18798828 .0039978029 .21199036 .0039978029 .269989 0 .2939911 0 .3039856 0 .31399537 .004989624 .31399537 .020996094 .31399537 .034988405 .3019867 .035995485 .29100038 .035995485 .22799683 .037994386 .22799683 .0639801 .22799683 .07797241 .22799683 .081970218 .22799683 .08695984 .23199463 .10295105L.3600006 .614624 .6519928 .016998291C.6599884 .0009918213 .6639862 0 .673996 0 .6899872 0 .6899872 .0029907227 .69499209 .020996094L.83399966 .5736542Z"/>
<path id="font_3_102" d="M.2849884 .22558594C.38598634 .22558594 .5649872 .23757935 .5649872 .3524475 .5649872 .40338136 .5130005 .4423828 .42099 .4423828 .2849884 .4423828 .11199951 .3514557 .11199951 .18551636 .11199951 .09436035 .17098999-.0107421879 .32299806-.0107421879 .34199525-.0107421879 .42199708-.0107421879 .4889984 .01524353 .55599978 .041275026 .59599307 .08735657 .59599307 .09837341 .59599307 .10638428 .58299258 .121414188 .57398989 .121414188 .56900027 .121414188 .56799319 .120407108 .5519867 .104385379 .5029907 .049301149 .4139862 .023254395 .32398988 .023254395 .24198914 .023254395 .20298767 .07434082 .20298767 .14945984 .20298767 .1594696 .20298767 .18551636 .21299744 .22558594H.2849884M.22200012 .25958253C.2669983 .39839173 .3899994 .40837098 .41999818 .40837098 .46998597 .40837098 .5139923 .38839723 .5139923 .3514557 .5139923 .25958253 .32699586 .25958253 .27999879 .25958253H.22200012Z"/>
<path id="font_4_63" d="M.7679901 .3359375C.7829895 .3359375 .80599978 .3359375 .80599978 .3609314 .80599978 .38493348 .7819977 .38493348 .7689972 .38493348H.10699463C.09399414 .38493348 .069992069 .38493348 .069992069 .3609314 .069992069 .3359375 .09298706 .3359375 .10798645 .3359375H.7679901M.7689972 .11602783C.7819977 .11602783 .80599978 .11602783 .80599978 .1400299 .80599978 .16503906 .7829895 .16503906 .7679901 .16503906H.10798645C.09298706 .16503906 .069992069 .16503906 .069992069 .1400299 .069992069 .11602783 .09399414 .11602783 .10699463 .11602783H.7689972Z"/>
<path id="font_4_58" d="M.35499574 .36123658C.43299867 .3992157 .48298646 .44618226 .48298646 .5151367 .48298646 .6120758 .38198854 .6640625 .2849884 .6640625 .1749878 .6640625 .084991458 .5920868 .084991458 .4971466 .084991458 .45018006 .10699463 .41619874 .125 .39620973 .14299011 .37522889 .1499939 .37123109 .20899964 .33624269 .15299988 .31227113 .053985597 .25830079 .053985597 .15336609 .053985597 .042434694 .16899109-.01953125 .2829895-.01953125 .4099884-.01953125 .5139923 .061431886 .5139923 .1693573 .5139923 .23532105 .47499085 .29127503 .4169922 .32525636 .4039917 .33325196 .36898805 .35324098 .35499574 .36123658M.19198609 .45617677C.1659851 .4711609 .13798523 .49813844 .13798523 .53512576 .13798523 .5980835 .21099854 .63505557 .2829895 .63505557 .36099244 .63505557 .42999269 .5860901 .42999269 .5151367 .42999269 .42619325 .32598878 .3812256 .32398988 .3812256 .32199098 .3812256 .31999208 .3822174 .31298829 .3862152L.19198609 .45617677M.24099732 .31726075 .37799073 .23831177C.4039917 .22332764 .45399476 .19334412 .45399476 .13438416 .45399476 .059432985 .37098695 .012466431 .2849884 .012466431 .19299317 .012466431 .11399841 .07142639 .11399841 .15336609 .11399841 .22732544 .16899109 .2842865 .24099732 .31726075Z"/>
<path id="font_4_51" d="M.33499146 .63612368C.33499146 .6630554 .33299256 .6640625 .30499269 .6640625 .24099732 .6014404 .1499939 .6004486 .10899353 .6004486V.5644531C.1329956 .5644531 .19898987 .5644531 .2539978 .592453V.08203125C.2539978 .04899597 .2539978 .035995485 .1539917 .035995485H.115997318V0C.13398743 .0009918213 .25698854 .0039978029 .2939911 .0039978029 .32499696 .0039978029 .45098878 .0009918213 .47299195 0V.035995485H.43499757C.33499146 .035995485 .33499146 .04899597 .33499146 .08203125V.63612368Z"/>
<path id="font_4_59" d="M.41799928 .29803468C.41799928 .05064392 .29499818 .012466431 .23498535 .012466431 .21299744 .012466431 .1599884 .014465332 .1329956 .045639039 .17399597 .04963684 .1769867 .08363342 .1769867 .09263611 .1769867 .11764526 .1599884 .13964844 .12998963 .13964844 .099990848 .13964844 .08198547 .119644168 .08198547 .09063721 .08198547 .022521973 .13899231-.01953125 .23599243-.01953125 .3789978-.01953125 .5139923 .11564636 .5139923 .32904054 .5139923 .5770569 .4039917 .6640625 .2869873 .6640625 .2539978 .6640625 .18499756 .6590576 .12799073 .60305789 .09399414 .5700531 .053985597 .53105166 .053985597 .4410553 .053985597 .31404115 .15499878 .22003174 .27198792 .22003174 .35198976 .22003174 .394989 .27304078 .41799928 .31803895V.29803468M.2769928 .24804688C.23799134 .24804688 .20098877 .26104737 .17298889 .30703736 .1499939 .34403993 .1499939 .38604737 .1499939 .4410553 .1499939 .49905396 .1499939 .53904727 .1789856 .5790558 .20298767 .61405947 .23599243 .63505557 .28799439 .63505557 .33898927 .63505557 .36898805 .60305789 .3849945 .5770569 .4119873 .53504946 .4149933 .4650421 .4149933 .4300537 .4149933 .30004884 .33999635 .24804688 .2769928 .24804688Z"/>
<path id="font_4_52" d="M.5049896 .18203736H.47099305C.46798707 .16001892 .45799256 .100997928 .44499208 .09098816 .43699647 .084991458 .3600006 .084991458 .34599305 .084991458H.1619873C.2669983 .17803955 .3019867 .20603943 .3619995 .25306703 .43598939 .312088 .5049896 .374115 .5049896 .46914674 .5049896 .5900879 .39898683 .6640625 .2709961 .6640625 .14698792 .6640625 .06298828 .57710269 .06298828 .4851532 .06298828 .43414308 .10598755 .42915345 .115997318 .42915345 .13999939 .42915345 .16899109 .44615174 .16899109 .48214723 .16899109 .5001526 .1619873 .53515627 .10998535 .53515627 .14099121 .6060791 .20899964 .62805178 .2559967 .62805178 .35598756 .62805178 .4079895 .5501404 .4079895 .46914674 .4079895 .38212586 .34599305 .3130951 .31399537 .27708436L.07299805 .038986207C.06298828 .02999878 .06298828 .027999878 .06298828 0H.47499085L.5049896 .18203736Z"/>
<clipPath id="clip_5">
<path transform="matrix(1,0,0,-1,0,107.18691)" d="M31.257214 15.292301H133.67952V92.09952H31.257214Z"/>
</clipPath>
<clipPath id="clip_6">
<path transform="matrix(1,0,0,-1,0,107.18691)" d="M31.257214 15.292301H133.67952V92.09952H31.257214Z"/>
</clipPath>
<path id="font_4_50" d="M.5159912 .31925965C.5159912 .42918397 .5029907 .50813296 .45700074 .5780945 .42599488 .62405398 .3639984 .6640625 .28399659 .6640625 .051986696 .6640625 .051986696 .39120484 .051986696 .31925965 .051986696 .2472992 .051986696-.01953125 .28399659-.01953125 .5159912-.01953125 .5159912 .2472992 .5159912 .31925965M.28399659 .008468628C.23799134 .008468628 .1769867 .035446168 .15699768 .117385867 .14299011 .17634583 .14299011 .25830079 .14299011 .33224488 .14299011 .40519715 .14299011 .4811554 .1579895 .53611758 .1789856 .6150665 .24299622 .63604739 .28399659 .63604739 .33799745 .63604739 .3899994 .6030731 .4079895 .545105 .42399598 .4911499 .4249878 .41918946 .4249878 .33224488 .4249878 .25830079 .4249878 .18434143 .4119873 .12138367 .3919983 .030441285 .32398988 .008468628 .28399659 .008468628Z"/>
<clipPath id="clip_7">
<path transform="matrix(1,0,0,-1,0,107.18691)" d="M31.257214 15.292301H133.67952V92.09952H31.257214Z"/>
</clipPath>
<clipPath id="clip_8">
<path transform="matrix(1,0,0,-1,0,107.18691)" d="M31.257214 15.292301H133.67952V92.09952H31.257214Z"/>
</clipPath>
<clipPath id="clip_9">
<path transform="matrix(1,0,0,-1,0,107.18691)" d="M31.257214 15.292301H133.67952V92.09952H31.257214Z"/>
</clipPath>
<path id="font_4_53" d="M.272995 .33428956C.35099793 .33428956 .40699769 .2803192 .40699769 .1733551 .40699769 .04940796 .33499146 .012466431 .2769928 .012466431 .23699951 .012466431 .14898682 .0234375 .10699463 .082351688 .1539917 .084350589 .16499329 .11735535 .16499329 .13835144 .16499329 .17034912 .14099121 .19335938 .10998535 .19335938 .08198547 .19335938 .053985597 .17634583 .053985597 .13534546 .053985597 .041412355 .1579895-.01953125 .2789917-.01953125 .41799928-.01953125 .5139923 .07336426 .5139923 .1733551 .5139923 .2513275 .44999696 .32929994 .33999635 .35229493 .44499208 .39024354 .48298646 .4650879 .48298646 .5260773 .48298646 .60505679 .3919983 .6640625 .2809906 .6640625 .16999817 .6640625 .084991458 .61006167 .084991458 .5300751 .084991458 .49606324 .10699463 .47706605 .13699341 .47706605 .16799927 .47706605 .18798828 .5000763 .18798828 .5280762 .18798828 .5570679 .16799927 .57806399 .13699341 .5800781 .17199707 .62405398 .24099732 .63505557 .27799989 .63505557 .32299806 .63505557 .38598634 .6130676 .38598634 .5260773 .38598634 .48406983 .37199403 .43814088 .34599305 .4072113 .31298829 .36927796 .2849884 .3672943 .23498535 .36428834 .20999146 .3623047 .20799256 .3623047 .20298767 .3612976 .20098877 .3612976 .19299317 .3592987 .19299317 .34829713 .19299317 .33428956 .20199585 .33428956 .21899414 .33428956H.272995Z"/>
<path id="font_10_96" d="M.25698854 .69433596 .11898804 .55908206 .13699341 .53808596 .25698854 .639328 .37599183 .53808596 .3939972 .55908206 .25698854 .69433596Z"/>
<path id="font_11_75" d="M.5519867 .6096039C.55999758 .6436157 .56199648 .6516113 .6179962 .6516113 .6299896 .6516113 .6429901 .6516113 .6429901 .6696167 .6429901 .6706085 .6429901 .6826172 .6279907 .6826172 .62098696 .6826172 .5799866 .680603 .57398989 .680603 .5669861 .6796112 .5349884 .6796112 .5149994 .6796112 .4909973 .6796112 .46499635 .680603 .44099427 .680603 .4169922 .680603 .3929901 .6826172 .36999513 .6826172 .3619995 .6826172 .34899903 .6826172 .34899903 .6646118 .34899903 .6516113 .35899354 .6516113 .3829956 .6516113 .3880005 .6516113 .4149933 .6516113 .43998719 .64860537 .46398927 .64660647 .47099305 .64460757 .47099305 .62960818 .47099305 .62260439 .46899415 .61660769 .46798707 .6116028L.35099793 .1465149C.32798768 .055511476 .2599945 .002532959 .20799256 .002532959 .1749878 .002532959 .12599182 .016525269 .11099243 .061523439 .11299133 .060516359 .114990238 .060516359 .12199402 .060516359 .1619873 .060516359 .18699646 .09552002 .18699646 .12451172 .18699646 .1505127 .16699219 .16651917 .14199829 .16651917 .11999512 .16651917 .07598877 .1505127 .07598877 .087509158 .07598877 .022521973 .13198853-.022460938 .20999146-.022460938 .30599977-.022460938 .4099884 .043518068 .43499757 .14251709L.5519867 .6096039Z"/>
<path id="font_10_41" d="M.34098817-.23803711C.34098817-.23303223 .33799745-.23002625 .33198548-.22303772 .20298767-.105026248 .1639862 .07498169 .1639862 .24996948 .1639862 .40498353 .19400025 .59298709 .33499146 .72698977 .33898927 .73098757 .34098817 .73399356 .34098817 .7389984 .34098817 .74598696 .33599855 .75 .32899476 .75 .31698609 .75 .22698975 .6779785 .17298889 .568985 .125 .47297669 .100997928 .36997987 .100997928 .25097657 .100997928 .17897034 .10998535 .064971927 .16499329-.053024293 .22399903-.17602539 .31698609-.24902344 .32899476-.24902344 .33599855-.24902344 .34098817-.24502564 .34098817-.23803711Z"/>
<path id="font_11_26" d="M.272995 .36865235H.3869934C.37199403 .30575563 .34599305 .20193482 .34599305 .11906433 .34599305 .112075809 .34599305 .075149539 .35499574 .03919983 .36499024 .0012512207 .37399293-.0107421879 .3939972-.0107421879 .4149933-.0107421879 .43699647 .007247925 .43699647 .030212403 .43699647 .037200929 .43598939 .04020691 .42999269 .05317688 .39898683 .123062137 .39898683 .19694519 .39898683 .21990967 .39898683 .24485779 .39898683 .28878785 .41600038 .36865235H.5329895C.54599 .36865235 .58299258 .36865235 .58299258 .4046631 .58299258 .43066407 .5609894 .43066407 .5419922 .43066407H.19599915C.17199707 .43066407 .13699341 .43066407 .08999634 .38365174 .06298828 .3566742 .026992798 .30177308 .026992798 .29377748 .026992798 .2828064 .037994386 .2828064 .040985109 .2828064 .04899597 .2828064 .050994874 .28479005 .056991579 .29478456 .10598755 .36865235 .16699219 .36865235 .18699646 .36865235H.24398804C.20098877 .21791077 .13198853 .07614136 .125 .061172487 .117996219 .047195436 .10798645 .026229859 .10798645 .018234253 .10798645 .0052490236 .116989139-.0107421879 .13899231-.0107421879 .1749878-.0107421879 .18399048 .025222779 .20498657 .10609436L.272995 .36865235Z"/>
<path id="font_10_42" d="M.2979889 .25097657C.2979889 .3329773 .28599549 .4429779 .23399353 .5539856 .1749878 .6769867 .08198547 .75 .069992069 .75 .05999756 .75 .057998659 .74198916 .057998659 .7389984 .057998659 .73399356 .05999756 .73098757 .066986087 .72398379 .125 .6719818 .23498535 .5359802 .23498535 .25097657 .23498535 .10797119 .20899964-.091033939 .06399536-.22602844 .06199646-.22903443 .057998659-.23303223 .057998659-.23803711 .057998659-.24102783 .05999756-.24902344 .069992069-.24902344 .08198547-.24902344 .17199707-.17703247 .22599793-.06802368 .27398683 .02796936 .2979889 .13098145 .2979889 .25097657Z"/>
<clipPath id="clip_12">
<path transform="matrix(1,0,0,-1,0,107.18691)" d="M31.257214 15.292301H133.67952V92.09952H31.257214Z"/>
</clipPath>
<clipPath id="clip_13">
<path transform="matrix(1,0,0,-1,0,107.18691)" d="M36.37833 15.292301H56.86279V74.654018H36.37833Z"/>
</clipPath>
<clipPath id="clip_14">
<path transform="matrix(1,0,0,-1,0,107.18691)" d="M31.257214 15.292301H133.67952V92.09952H31.257214Z"/>
</clipPath>
<clipPath id="clip_15">
<path transform="matrix(1,0,0,-1,0,107.18691)" d="M56.86279 15.292301H77.34725V88.36855H56.86279Z"/>
</clipPath>
<clipPath id="clip_16">
<path transform="matrix(1,0,0,-1,0,107.18691)" d="M56.86279 15.292301H77.34725V88.36855H56.86279Z"/>
</clipPath>
<g id="pattern_tile_17">
<path transform="matrix(1,0,0,-1,0,0)" d="M0 0H72V72H0Z" fill="#1d6996"/>
<path transform="matrix(1,0,0,-1,0,0)" d="M-36 36 36 108M-30 30 42 102M-24 24 48 96M-18 18 54 90M-12 12 60 84M-6 6 66 78M0 0 72 72M6-6 78 66M12-12 84 60M18-18 90 54M24-24 96 48M30-30 102 42M36-36 108 36" fill="#1d6996"/>
<path transform="matrix(1,0,0,-1,0,0)" stroke-width="1" stroke-linecap="butt" stroke-miterlimit="10" stroke-linejoin="miter" fill="none" stroke="#1d6996" d="M-36 36 36 108M-30 30 42 102M-24 24 48 96M-18 18 54 90M-12 12 60 84M-6 6 66 78M0 0 72 72M6-6 78 66M12-12 84 60M18-18 90 54M24-24 96 48M30-30 102 42M36-36 108 36"/>
</g>
<pattern id="pattern_17" patternUnits="userSpaceOnUse" patternContentUnits="userSpaceOnUse" x="0" y="0" width="72" height="72">
<g transform="matrix(1,0,0,-1,-0,0)">
<use x="0" y="0" xlink:href="#pattern_tile_17"/>
</g>
</pattern>
<clipPath id="clip_18">
<path transform="matrix(1,0,0,-1,0,107.18691)" d="M31.257214 15.292301H133.67952V92.09952H31.257214Z"/>
</clipPath>
<clipPath id="clip_19">
<path transform="matrix(1,0,0,-1,0,107.18691)" d="M87.589488 15.292301H108.073947V42.333627H87.589488Z"/>
</clipPath>
<clipPath id="clip_20">
<path transform="matrix(1,0,0,-1,0,107.18691)" d="M31.257214 15.292301H133.67952V92.09952H31.257214Z"/>
</clipPath>
<clipPath id="clip_21">
<path transform="matrix(1,0,0,-1,0,107.18691)" d="M108.073947 15.292301H128.55841V86.5919H108.073947Z"/>
</clipPath>
<clipPath id="clip_22">
<path transform="matrix(1,0,0,-1,0,107.18691)" d="M108.073947 15.292301H128.55841V86.5919H108.073947Z"/>
</clipPath>
<g id="pattern_tile_23">
<path transform="matrix(1,0,0,-1,0,0)" d="M0 0H72V72H0Z" fill="#1d6996"/>
<path transform="matrix(1,0,0,-1,0,0)" d="M-36 36 36 108M-30 30 42 102M-24 24 48 96M-18 18 54 90M-12 12 60 84M-6 6 66 78M0 0 72 72M6-6 78 66M12-12 84 60M18-18 90 54M24-24 96 48M30-30 102 42M36-36 108 36" fill="#1d6996"/>
<path transform="matrix(1,0,0,-1,0,0)" stroke-width="1" stroke-linecap="butt" stroke-miterlimit="10" stroke-linejoin="miter" fill="none" stroke="#1d6996" d="M-36 36 36 108M-30 30 42 102M-24 24 48 96M-18 18 54 90M-12 12 60 84M-6 6 66 78M0 0 72 72M6-6 78 66M12-12 84 60M18-18 90 54M24-24 96 48M30-30 102 42M36-36 108 36"/>
</g>
<pattern id="pattern_23" patternUnits="userSpaceOnUse" patternContentUnits="userSpaceOnUse" x="0" y="0" width="72" height="72">
<g transform="matrix(1,0,0,-1,-0,0)">
<use x="0" y="0" xlink:href="#pattern_tile_23"/>
</g>
</pattern>
<clipPath id="clip_24">
<path transform="matrix(1,0,0,-1,0,107.18691)" d="M31.257214 15.292301H133.67952V92.09952H31.257214Z"/>
</clipPath>
<clipPath id="clip_25">
<path transform="matrix(1,0,0,-1,0,107.18691)" d="M31.257214 15.292301H133.67952V92.09952H31.257214Z"/>
</clipPath>
<path id="font_26_3" d="M.6549988 .46029664C.6669922 .47229005 .6689911 .47729493 .6689911 .4842987 .6689911 .4962921 .6589966 .5072937 .6459961 .5072937 .6369934 .5072937 .6329956 .5032959 .621994 .4922943L.41299439 .28323365 .20298767 .4933014C.19099427 .5052948 .18598938 .5072937 .1789856 .5072937 .16699219 .5072937 .1559906 .4972992 .1559906 .4842987 .1559906 .47529603 .1599884 .47129823 .16999817 .46128846L.37998963 .25022889 .17098999 .041168214C.1579895 .028167725 .1559906 .023162842 .1559906 .016159058 .1559906 .0031585694 .16699219-.0068359377 .1789856-.0068359377 .18798828-.0068359377 .19099427-.0038452149 .20199585 .007156372L.4119873 .21722412 .6299896-.0008392334C.6349945-.0038452149 .6409912-.0068359377 .6459961-.0068359377 .6589966-.0068359377 .6689911 .0041503908 .6689911 .016159058 .6689911 .024154664 .6639862 .028167725 .6639862 .029159546 .6599884 .03515625 .5 .19421387 .44499208 .25022889L.6549988 .46029664Z"/>
<path id="font_27_19" d="M.14099121 .07801819C.3619995 .2541504 .48298646 .36724855 .48298646 .49336244 .48298646 .6065674 .4039917 .6826172 .2749939 .6826172 .15098572 .6826172 .06298828 .61157229 .06298828 .5414429 .06298828 .50738528 .083999637 .48535157 .11898804 .48535157 .1349945 .48535157 .1499939 .49035646 .1639862 .5003662V.6075592C.19400025 .6246033 .22299195 .63160708 .25299073 .63160708 .33599855 .63160708 .38598634 .5755005 .38598634 .48034669 .38598634 .3492279 .26098634 .24014282 .041992189 .06201172V-.0009765625H.5049896V.16308594H.45999146L.44198609 .07801819H.14099121Z"/>
<path id="font_27_15" d="M.13899231 .11820984C.10398865 .11820984 .07499695 .09020996 .07499695 .05419922 .07499695 .018203736 .10398865-.0087890629 .13899231-.0087890629 .17399597-.0087890629 .20199585 .019210816 .20199585 .05419922 .20199585 .09020996 .17399597 .11820984 .13899231 .11820984Z"/>
<path id="font_27_23" d="M.44299317 .71424868C.19799805 .6982422 .049987794 .5332794 .049987794 .27729798 .049987794 .09727478 .147995-.01171875 .2829895-.01171875 .41999818-.01171875 .5249939 .092285159 .5249939 .22729492 .5249939 .35430909 .43598939 .4453125 .31698609 .4453125 .2579956 .4453125 .19898987 .42430116 .14698792 .38430787 .17799378 .5622711 .27999879 .65625 .43998719 .65625H.44299317V.71424868M.14498902 .3403015C.18598938 .3703003 .23498535 .38529969 .2899933 .38529969 .375 .38529969 .43399049 .32130433 .43399049 .21829224 .43399049 .11227417 .37399293 .03627014 .29100038 .03627014 .19699097 .03627014 .14299011 .120285037 .14299011 .27929688 .14299011 .29829408 .14299011 .31930543 .14498902 .3403015Z"/>
<path id="font_27_21" d="M.36799623 .6767578 .026992798 .25878907V.19378662H.34899903V-.037216188H.42599488V.19378662H.5389862V.25878907H.42599488V.6767578H.36799623M.34899903 .5677643V.25878907H.101989749L.34899903 .5677643Z"/>
<path id="font_27_72" d="M.36898805 .4630127C.33099366 .48220826 .2939911 .49121095 .2559967 .49121095 .13798523 .49121095 .06199646 .423172 .06199646 .32609559 .06199646 .25102235 .10899353 .19198609 .18598938 .1749878 .1539917 .13691712 .13798523 .10585022 .13798523 .07978821 .13798523 .06376648 .14199829 .048721315 .147995 .034698488 .07998657 .02267456 .039993287-.025436402 .039993287-.08956909 .039993287-.16975403 .10598755-.21875 .22099304-.21875 .29699708-.21875 .3659973-.195755 .4189911-.15270996 .45799256-.12063599 .47898866-.077545169 .47898866-.04046631 .47898866 .033691408 .4269867 .0647583 .30899049 .08279419L.21299744 .097839359C.21199036 .1088562 .21099854 .116882327 .21099854 .12188721 .21099854 .1379242 .21499634 .1529541 .22200012 .16699219H.23899842C.35499574 .16699219 .42999269 .23399353 .42999269 .32299806 .42999269 .3580017 .42099 .38700868 .4019928 .41601563H.5119934V.4630127H.36898805M.24598694 .45220948C.3039856 .45220948 .34399415 .40516664 .34399415 .3290863 .34399415 .25402833 .3039856 .2059784 .24598694 .2059784 .18798828 .2059784 .147995 .25402833 .147995 .3290863 .147995 .40615846 .18798828 .45220948 .24598694 .45220948M.20599365 .029678345 .30299378 .011642456C.37298585-.0013885498 .40499879-.0124053959 .40499879-.06652832 .40499879-.12265015 .34498597-.17276001 .2559967-.17276001 .17399597-.17276001 .11999512-.12666321 .11999512-.06852722 .11999512-.024429322 .15098572 .012649536 .20599365 .029678345Z"/>
<path id="font_27_66" d="M.33399964 .05708313 .34700013-.0009765625H.48799134V.03501892L.43499757 .040023805 .4169922 .05607605V.34687806C.4169922 .4481964 .37298585 .49121095 .2679901 .49121095 .14199829 .49121095 .06599426 .43917848 .06599426 .37797547 .06599426 .3538971 .07398987 .34687806 .09700012 .34687806H.1659851V.43115235C.19299317 .44218446 .21699524 .4472046 .24198914 .4472046 .31399537 .4472046 .33399964 .41409303 .33399964 .33483888V.30273438C.13398743 .25474549 .041992189 .22480774 .041992189 .121017459 .041992189 .046157838 .09098816-.0068359377 .16999817-.0068359377 .21798706-.007980347 .2709961 .014022827 .33399964 .05708313M.33399964 .09118652C.28399659 .06210327 .24299622 .046051027 .20999146 .046051027 .1599884 .046051027 .12998963 .07914734 .12998963 .1282959 .12998963 .20152283 .19299317 .22860718 .33399964 .2677307V.09118652Z"/>
<path id="font_27_81" d="M.022994996-.21875H.2579956V-.18275452L.19400025-.17773438 .1769867-.16166687V.0060577394C.21398926 .000061035159 .24499512-.0029296876 .269989-.0029296876 .41799928-.0029296876 .5159912 .099090579 .5159912 .2571411 .5159912 .39718629 .43399049 .49121095 .32398988 .49121095 .2769928 .49121095 .22999573 .47120667 .1769867 .43119813V.48620606H.13899231L.022994996 .4501953V.41918946H.09399414V-.16166687L.07699585-.17773438 .022994996-.18275452V-.21875M.1769867 .05807495V.3941803C.21499634 .41619874 .24798584 .4282074 .28199769 .4282074 .36898805 .4282074 .42799378 .35917665 .42799378 .24414063 .42799378 .12109375 .3600006 .04206848 .2619934 .04206848 .23799134 .04206848 .20999146 .047058107 .1769867 .05807495Z"/>
<path id="font_27_51" d="M.032989503 .671875V.63186648L.08999634 .62586978 .10699463 .6118164V.059066774L.08999634 .045028688 .032989503 .040008546V-.0009765625H.2709961V.040008546L.21398926 .045028688 .19699097 .059066774V.29779054C.21499634 .2987976 .23199463 .2998047 .24699402 .2998047 .33799745 .2998047 .3769989 .27371217 .4039917 .19146729 .4249878 .12727356 .42900086 .062088014 .47698976 .020019532 .5 .0011749268 .5329895-.0078125 .5779877-.0078125 .6009979-.0078125 .6259918-.0048217775 .6559906 .0011749268V.03918457H.6469879C.57099917 .03918457 .5389862 .05116272 .5169983 .110076908 .49899293 .15701294 .49798585 .21192932 .46998597 .25785829 .44999696 .290802 .41600038 .3117981 .36698915 .32479859 .47499085 .34881593 .5289917 .4050293 .5289917 .49134828 .5289917 .6148224 .44999696 .671875 .28799439 .671875H.032989503M.19699097 .62586978H.24499512C.36898805 .62586978 .42900086 .5877228 .42900086 .48332215 .42900086 .38394166 .37199403 .34480287 .2519989 .34480287 .24598694 .34480287 .22799683 .34480287 .19699097 .34579469V.62586978Z"/>
<path id="font_27_70" d="M.44799806 .10632324C.3909912 .06825256 .34098817 .048202516 .29100038 .048202516 .18998719 .048202516 .12298584 .12435913 .12298584 .25263978V.26365663H.44699098C.44799806 .2746582 .44799806 .2846527 .44799806 .29466249 .44799806 .41729737 .3769989 .49121095 .2679901 .49121095 .13398743 .49121095 .036987306 .38838197 .036987306 .2375946 .036987306 .090286258 .12799073-.0087890629 .2599945-.0087890629 .32299806-.0087890629 .3880005 .011199951 .44799806 .051208497V.10632324M.35899354 .30566407H.12799073C.13398743 .39038087 .19099427 .4461975 .25498963 .4461975 .32199098 .4461975 .35899354 .40234376 .35899354 .3216095V.30566407Z"/>
<path id="font_27_77" d="M.027999878-.0009765625H.2619934V.03501892L.20498657 .040039064 .18699646 .05609131V.7373047H.14898682L.026992798 .7011719V.670166H.10398865V.05609131L.08699036 .040039064 .027999878 .03501892V-.0009765625Z"/>
<path id="font_27_52" d="M.05999756 .02027893C.10598755 .0002746582 .16799927-.01171875 .23999024-.01171875 .3999939-.01171875 .49899293 .071243289 .49899293 .18910218 .49899293 .23306275 .48399354 .27001954 .45498658 .2989807 .40899659 .3439331 .35499574 .35992433 .3039856 .3808899 .21199036 .41984559 .1639862 .44482423 .1639862 .51174929 .1639862 .584671 .21499634 .63261416 .2999878 .63261416 .33499146 .63261416 .36499024 .6256256 .3899994 .6116333L.40499879 .59465029 .41999818 .49975587H.47200013V.65460208C.41299439 .6736145 .35699464 .6826172 .3019867 .6826172 .1599884 .6826172 .070999149 .60365298 .070999149 .49076844 .070999149 .39387513 .1289978 .35691834 .23999024 .30897523 .34899903 .26202394 .40699769 .24404907 .40699769 .16113281 .40699769 .09121704 .35299684 .041275026 .2559967 .041275026 .21099854 .041275026 .17298889 .04927063 .14399719 .06425476L.1309967 .081222537 .11898804 .19610596H.05999756V.02027893Z"/>
<path id="font_27_74" d="M.1539917 .7080078C.12199402 .7080078 .09599304 .68299868 .09599304 .6499939 .09599304 .6179962 .12199402 .5930023 .1539917 .5930023 .18598938 .5930023 .21199036 .6179962 .21199036 .6499939 .21199036 .68200686 .18598938 .7080078 .1539917 .7080078M.1499939 .48632813 .034988405 .4501953V.41918946H.10499573V.05607605L.08799744 .040023805 .034988405 .03501892V-.0009765625H.2599945V.03501892L.20599365 .040023805 .18798828 .05607605V.48632813H.1499939Z"/>
<path id="font_27_78" d="M.45399476 .42419435C.43099977 .46820069 .3929901 .49121095 .34399415 .49121095 .3019867 .49121095 .25 .47019959 .18399048 .43119813V.48620606H.1459961L.02999878 .4501953V.41918946H.100997928V.05607605L.083999637 .040023805 .02999878 .03501892V-.0009765625H.24899292V.03501892L.20098877 .040023805 .18399048 .05607605V.3921051C.22799683 .4141693 .2649994 .42520143 .2979889 .42520143 .35798646 .42520143 .38598634 .3921051 .38598634 .32188417V.05607605L.36898805 .040023805 .32099916 .03501892V-.0009765625H.5339966V.03501892L.4869995 .040023805 .46899415 .05607605V.3921051C.5119934 .41316224 .5499878 .42520143 .58200076 .42520143 .6439972 .42520143 .6719971 .3921051 .6719971 .32188417V.05607605L.6539917 .040023805 .6069946 .03501892V-.0009765625H.82499697V.03501892L.7719879 .040023805 .7549896 .05607605V.33894349C.7549896 .4382019 .7049866 .49121095 .6259918 .49121095 .58599856 .49121095 .5289917 .46820069 .45399476 .42419435Z"/>
<path id="font_27_86" d="M.14199829 .49121095 .025985718 .45410157V.4230957H.09700012V.14318848C.09700012 .04322815 .14498902-.009765625 .23098755-.009765625 .27999879-.009765625 .33299256 .01322937 .3929901 .056228639V-.0009765625H.54100039V.03501892L.49398805 .040023805 .47599793 .05607605V.49121095H.43798829L.32199098 .45410157V.4230957H.3929901V.08314514C.35198976 .06422424 .31399537 .054229738 .2769928 .054229738 .20999146 .054229738 .17999268 .08821106 .17999268 .16018677V.49121095H.14199829Z"/>
<path id="font_27_85" d="M.08799744 .42089845V.09803772C.08799744 .027069092 .10899353-.0029296876 .19198609-.0029296876 .23098755-.0029296876 .27598573 .004058838 .32299806 .019058228V.05606079C.2999878 .05105591 .2769928 .048065187 .2539978 .048065187 .18399048 .048065187 .17098999 .08105469 .17098999 .15701294V.42089845H.32299806V.4678955H.17098999V.5738983H.13398743L.09098816 .480896 .024993897 .45188905V.42089845H.08799744Z"/>
<path id="font_27_80" d="M.2689972 .49121095C.13398743 .49121095 .036987306 .39019776 .036987306 .24121094 .036987306 .09320068 .1349945-.0087890629 .2689972-.0087890629 .40299989-.0087890629 .5019989 .09320068 .5019989 .24121094 .5019989 .38920594 .4039917 .49121095 .2689972 .49121095M.2689972 .4481964C.34999085 .4481964 .4079895 .37020875 .4079895 .24121094 .4079895 .111206058 .34999085 .034210206 .2689972 .034210206 .18899536 .034210206 .1309967 .112197879 .1309967 .24121094 .1309967 .37120057 .18798828 .4481964 .2689972 .4481964Z"/>
<path id="font_27_79" d="M.02999878-.0009765625H.24899292V.03501892L.20098877 .040023805 .18399048 .05607605V.3921051C.22698975 .4141693 .2639923 .42520143 .29599 .42520143 .36999513 .42520143 .39698792 .39511109 .39698792 .32188417V.05607605L.37998963 .040023805 .33198548 .03501892V-.0009765625H.5509949V.03501892L.49699403 .040023805 .47999574 .05607605V.33894349C.47999574 .43920899 .43199159 .49121095 .34498597 .49121095 .3019867 .49121095 .25099183 .46820069 .18399048 .43119813V.48620606H.1459961L.02999878 .4501953V.41918946H.100997928V.05607605L.083999637 .040023805 .02999878 .03501892V-.0009765625Z"/>
</defs>
<path transform="matrix(1,0,0,-1,0,107.18691)" d="M0 0H134.75952V107.18691H0Z" fill="#ffffff"/>
<path transform="matrix(1,0,0,-1,0,107.18691)" d="M31.257214 15.292301H133.67952V92.09952H31.257214Z" fill="#ffffff"/>
<g clip-path="url(#clip_1)">
<path transform="matrix(1,0,0,-1,0,107.18691)" stroke-width=".5" stroke-linecap="round" stroke-linejoin="round" fill="none" stroke="#dcdcdc" d="M56.86279 15.292301V92.09952"/>
</g>
<path transform="matrix(1,0,0,-1,0,107.18691)" d="M56.86279 15.292301V11.292301" fill="#262626"/>
<path transform="matrix(1,0,0,-1,0,107.18691)" stroke-width="1.25" stroke-linecap="butt" stroke-linejoin="round" fill="none" stroke="#262626" d="M56.86279 15.292301V11.292301"/>
<use data-text="N" xlink:href="#font_2_79" transform="matrix(6.973848,0,0,-6.973848,38.504117,104.57617)" fill="#262626"/>
<use data-text="e" xlink:href="#font_3_102" transform="matrix(4.98132,0,0,-4.98132,44.814516,105.57243)" fill="#262626"/>
<use data-text="=" xlink:href="#font_4_63" transform="matrix(6.973848,0,0,-6.973848,50.952814,104.57617)" fill="#262626"/>
<use data-text="8" xlink:href="#font_4_58" transform="matrix(6.973848,0,0,-6.973848,59.32963,104.57617)" fill="#262626"/>
<use data-text="1" xlink:href="#font_4_51" transform="matrix(6.973848,0,0,-6.973848,63.297754,104.57617)" fill="#262626"/>
<use data-text="9" xlink:href="#font_4_59" transform="matrix(6.973848,0,0,-6.973848,67.26587,104.57617)" fill="#262626"/>
<use data-text="2" xlink:href="#font_4_52" transform="matrix(6.973848,0,0,-6.973848,71.233989,104.57617)" fill="#262626"/>
<g clip-path="url(#clip_5)">
<path transform="matrix(1,0,0,-1,0,107.18691)" stroke-width=".5" stroke-linecap="round" stroke-linejoin="round" fill="none" stroke="#dcdcdc" d="M108.073947 15.292301V92.09952"/>
</g>
<path transform="matrix(1,0,0,-1,0,107.18691)" d="M108.073947 15.292301V11.292301" fill="#262626"/>
<path transform="matrix(1,0,0,-1,0,107.18691)" stroke-width="1.25" stroke-linecap="butt" stroke-linejoin="round" fill="none" stroke="#262626" d="M108.073947 15.292301V11.292301"/>
<use data-text="N" xlink:href="#font_2_79" transform="matrix(6.973848,0,0,-6.973848,91.70089,104.57617)" fill="#262626"/>
<use data-text="e" xlink:href="#font_3_102" transform="matrix(4.98132,0,0,-4.98132,98.011287,105.57243)" fill="#262626"/>
<use data-text="=" xlink:href="#font_4_63" transform="matrix(6.973848,0,0,-6.973848,104.14958,104.57617)" fill="#262626"/>
<use data-text="1" xlink:href="#font_4_51" transform="matrix(6.973848,0,0,-6.973848,112.5264,104.57617)" fill="#262626"/>
<use data-text="2" xlink:href="#font_4_52" transform="matrix(6.973848,0,0,-6.973848,116.494518,104.57617)" fill="#262626"/>
<use data-text="8" xlink:href="#font_4_58" transform="matrix(6.973848,0,0,-6.973848,120.46263,104.57617)" fill="#262626"/>
<g clip-path="url(#clip_6)">
<path transform="matrix(1,0,0,-1,0,107.18691)" stroke-width=".5" stroke-linecap="round" stroke-linejoin="round" fill="none" stroke="#dcdcdc" d="M31.257214 15.292301H133.67952"/>
</g>
<path transform="matrix(1,0,0,-1,0,107.18691)" d="M31.257214 15.292301H27.257214" fill="#262626"/>
<path transform="matrix(1,0,0,-1,0,107.18691)" stroke-width="1.25" stroke-linecap="butt" stroke-linejoin="round" fill="none" stroke="#262626" d="M31.257214 15.292301H27.257214"/>
<use data-text="0" xlink:href="#font_4_50" transform="matrix(6.973848,0,0,-6.973848,19.785977,94.48539)" fill="#262626"/>
<g clip-path="url(#clip_7)">
<path transform="matrix(1,0,0,-1,0,107.18691)" stroke-width=".5" stroke-linecap="round" stroke-linejoin="round" fill="none" stroke="#dcdcdc" d="M31.257214 39.715917H133.67952"/>
</g>
<path transform="matrix(1,0,0,-1,0,107.18691)" d="M31.257214 39.715917H27.257214" fill="#262626"/>
<path transform="matrix(1,0,0,-1,0,107.18691)" stroke-width="1.25" stroke-linecap="butt" stroke-linejoin="round" fill="none" stroke="#262626" d="M31.257214 39.715917H27.257214"/>
<use data-text="1" xlink:href="#font_4_51" transform="matrix(6.973848,0,0,-6.973848,15.814738,70.061779)" fill="#262626"/>
<use data-text="0" xlink:href="#font_4_50" transform="matrix(6.973848,0,0,-6.973848,19.782858,70.061779)" fill="#262626"/>
<g clip-path="url(#clip_8)">
<path transform="matrix(1,0,0,-1,0,107.18691)" stroke-width=".5" stroke-linecap="round" stroke-linejoin="round" fill="none" stroke="#dcdcdc" d="M31.257214 64.13953H133.67952"/>
</g>
<path transform="matrix(1,0,0,-1,0,107.18691)" d="M31.257214 64.13953H27.257214" fill="#262626"/>
<path transform="matrix(1,0,0,-1,0,107.18691)" stroke-width="1.25" stroke-linecap="butt" stroke-linejoin="round" fill="none" stroke="#262626" d="M31.257214 64.13953H27.257214"/>
<use data-text="2" xlink:href="#font_4_52" transform="matrix(6.973848,0,0,-6.973848,15.814738,45.638166)" fill="#262626"/>
<use data-text="0" xlink:href="#font_4_50" transform="matrix(6.973848,0,0,-6.973848,19.782858,45.638166)" fill="#262626"/>
<g clip-path="url(#clip_9)">
<path transform="matrix(1,0,0,-1,0,107.18691)" stroke-width=".5" stroke-linecap="round" stroke-linejoin="round" fill="none" stroke="#dcdcdc" d="M31.257214 88.56314H133.67952"/>
</g>
<path transform="matrix(1,0,0,-1,0,107.18691)" d="M31.257214 88.56314H27.257214" fill="#262626"/>
<path transform="matrix(1,0,0,-1,0,107.18691)" stroke-width="1.25" stroke-linecap="butt" stroke-linejoin="round" fill="none" stroke="#262626" d="M31.257214 88.56314H27.257214"/>
<use data-text="3" xlink:href="#font_4_53" transform="matrix(6.973848,0,0,-6.973848,15.814738,21.214547)" fill="#262626"/>
<use data-text="0" xlink:href="#font_4_50" transform="matrix(6.973848,0,0,-6.973848,19.782858,21.214547)" fill="#262626"/>
<use data-text="&#x02c6;" xlink:href="#font_10_96" transform="matrix(0,-8.966376,-8.966376,-0,7.30665,60.64069)" fill="#262626"/>
<use data-text="J" xlink:href="#font_11_75" transform="matrix(0,-8.966376,-8.966376,-0,9.573145,62.8387)" fill="#262626"/>
<use data-text="(" xlink:href="#font_10_41" transform="matrix(0,-8.966376,-8.966376,-0,9.573145,56.906797)" fill="#262626"/>
<use data-text="&#x03c0;" xlink:href="#font_11_26" transform="matrix(0,-8.966376,-8.966376,-0,9.573145,53.323038)" fill="#262626"/>
<use data-text=")" xlink:href="#font_10_42" transform="matrix(0,-8.966376,-8.966376,-0,9.573145,47.727064)" fill="#262626"/>
<g clip-path="url(#clip_12)">
<g clip-path="url(#clip_13)">
<path transform="matrix(1,0,0,-1,0,107.18691)" d="M36.37833 15.292301H56.86279V74.654018H36.37833Z" fill="#5f4690" fill-opacity=".7"/>
<path transform="matrix(1,0,0,-1,0,107.18691)" stroke-width="2" stroke-linecap="butt" stroke-miterlimit="10" stroke-linejoin="miter" fill="none" stroke="#5f4690" d="M36.37833 15.292301H56.86279V74.654018H36.37833Z"/>
</g>
</g>
<g clip-path="url(#clip_14)">
<g clip-path="url(#clip_15)">
<g opacity=".7">
<g clip-path="url(#clip_16)">
<rect transform="matrix(1,0,0,-1,0,0)" fill="url(#pattern_17)" x="55.86279" y="-92.89461" width="22.484463" height="75.07625"/>
</g>
</g>
<path transform="matrix(1,0,0,-1,0,107.18691)" stroke-width="2" stroke-linecap="butt" stroke-miterlimit="10" stroke-linejoin="miter" fill="none" stroke="#1d6996" d="M56.86279 15.292301H77.34725V88.36855H56.86279Z"/>
</g>
</g>
<g clip-path="url(#clip_18)">
<g clip-path="url(#clip_19)">
<path transform="matrix(1,0,0,-1,0,107.18691)" d="M87.589488 15.292301H108.073947V42.333627H87.589488Z" fill="#5f4690" fill-opacity=".7"/>
<path transform="matrix(1,0,0,-1,0,107.18691)" stroke-width="2" stroke-linecap="butt" stroke-miterlimit="10" stroke-linejoin="miter" fill="none" stroke="#5f4690" d="M87.589488 15.292301H108.073947V42.333627H87.589488Z"/>
</g>
</g>
<g clip-path="url(#clip_20)">
<g clip-path="url(#clip_21)">
<g opacity=".7">
<g clip-path="url(#clip_22)">
<rect transform="matrix(1,0,0,-1,0,0)" fill="url(#pattern_23)" x="107.073947" y="-92.89461" width="22.484467" height="73.2996"/>
</g>
</g>
<path transform="matrix(1,0,0,-1,0,107.18691)" stroke-width="2" stroke-linecap="butt" stroke-miterlimit="10" stroke-linejoin="miter" fill="none" stroke="#1d6996" d="M108.073947 15.292301H128.55841V86.5919H108.073947Z"/>
</g>
</g>
<g clip-path="url(#clip_24)">
<path transform="matrix(1,0,0,-1,0,107.18691)" stroke-width=".75" stroke-linecap="square" stroke-linejoin="round" fill="none" stroke="#262626" d="M46.62056 74.27894V75.02909"/>
<path transform="matrix(1,0,0,-1,0,107.18691)" stroke-width=".75" stroke-linecap="square" stroke-linejoin="round" fill="none" stroke="#262626" d="M97.83171 33.9836V50.683656"/>
<path transform="matrix(1,0,0,-1,0,107.18691)" stroke-width=".75" stroke-linecap="square" stroke-linejoin="round" fill="none" stroke="#262626" d="M67.10502 88.29507V88.44203"/>
<path transform="matrix(1,0,0,-1,0,107.18691)" stroke-width=".75" stroke-linecap="square" stroke-linejoin="round" fill="none" stroke="#262626" d="M118.31618 86.39912V86.78469"/>
</g>
<g clip-path="url(#clip_25)">
<path transform="matrix(1,0,0,-1,0,107.18691)" stroke-width="1" stroke-linecap="butt" stroke-dasharray="3.7,1.6" stroke-linejoin="round" fill="none" stroke="#666666" d="M82.46837 86.5919H128.55841"/>
</g>
<path transform="matrix(1,0,0,-1,0,107.18691)" stroke-width="1.25" stroke-linecap="square" stroke-miterlimit="10" stroke-linejoin="miter" fill="none" stroke="#262626" d="M31.257214 15.292301V92.09952"/>
<path transform="matrix(1,0,0,-1,0,107.18691)" stroke-width="1.25" stroke-linecap="square" stroke-miterlimit="10" stroke-linejoin="miter" fill="none" stroke="#262626" d="M133.67952 15.292301V92.09952"/>
<path transform="matrix(1,0,0,-1,0,107.18691)" stroke-width="1.25" stroke-linecap="square" stroke-miterlimit="10" stroke-linejoin="miter" fill="none" stroke="#262626" d="M31.257214 15.292301H133.67952"/>
<path transform="matrix(1,0,0,-1,0,107.18691)" stroke-width="1.25" stroke-linecap="square" stroke-miterlimit="10" stroke-linejoin="miter" fill="none" stroke="#262626" d="M31.257214 92.09952H133.67952"/>
<path transform="matrix(1,0,0,-1,0,107.18691)" stroke-width="1" stroke-linecap="round" stroke-linejoin="round" fill="none" stroke="#000000" d="M103.46494 43.45166C103.46494 57.459066 103.46494 71.46647 103.46494 85.47387"/>
<path transform="matrix(1,0,0,-1,0,107.18691)" stroke-width="1" stroke-linecap="round" stroke-linejoin="round" fill="none" stroke="#000000" d="M105.26494 47.051664 103.46494 43.45166 101.66494 47.051664"/>
<path transform="matrix(1,0,0,-1,0,107.18691)" stroke-width="1" stroke-linecap="round" stroke-linejoin="round" fill="none" stroke="#000000" d="M101.66494 81.87387 103.46494 85.47387 105.26494 81.87387"/>
<use data-text="&#x00d7;" xlink:href="#font_26_3" transform="matrix(7.970112,0,0,-7.970112,78.46494,37.86856)"/>
<use data-text="2" xlink:href="#font_27_19" transform="matrix(7.970112,0,0,-7.970112,85.05145,37.86856)"/>
<use data-text="." xlink:href="#font_27_15" transform="matrix(7.970112,0,0,-7.970112,89.47487,37.86856)"/>
<use data-text="6" xlink:href="#font_27_23" transform="matrix(7.970112,0,0,-7.970112,91.68259,37.86856)"/>
<use data-text="4" xlink:href="#font_27_21" transform="matrix(7.970112,0,0,-7.970112,96.106,37.86856)"/>
<use data-text="g" xlink:href="#font_27_72" transform="matrix(7.970112,0,0,-7.970112,78.46494,46.724149)"/>
<use data-text="a" xlink:href="#font_27_66" transform="matrix(7.970112,0,0,-7.970112,82.62534,46.724149)"/>
<use data-text="p" xlink:href="#font_27_81" transform="matrix(7.970112,0,0,-7.970112,86.51476,46.724149)"/>
<path transform="matrix(1,0,0,-1,0,107.18691)" d="M28.678893 98.12535H35.67889V103.02535H28.678893Z" fill="#5f4690" fill-opacity=".7"/>
<path transform="matrix(1,0,0,-1,0,107.18691)" stroke-width="1" stroke-linecap="butt" stroke-miterlimit="10" stroke-linejoin="miter" fill="none" stroke="#5f4690" d="M28.678893 98.12535H35.67889V103.02535H28.678893Z"/>
<use data-text="R" xlink:href="#font_27_51" transform="matrix(6.973848,0,0,-6.973848,37.42889,9.061562)"/>
<use data-text="e" xlink:href="#font_27_70" transform="matrix(6.973848,0,0,-6.973848,41.648054,9.061562)"/>
<use data-text="a" xlink:href="#font_27_66" transform="matrix(6.973848,0,0,-6.973848,45.072214,9.061562)"/>
<use data-text="l" xlink:href="#font_27_77" transform="matrix(6.973848,0,0,-6.973848,48.47544,9.061562)"/>
<path transform="matrix(1,0,0,-1,0,107.18691)" d="M64.455989 98.12535H71.455989V103.02535H64.455989Z" fill="#1d6996" fill-opacity=".7"/>
<path transform="matrix(1,0,0,-1,0,107.18691)" stroke-width="1" stroke-linecap="butt" stroke-miterlimit="10" stroke-linejoin="miter" fill="none" stroke="#1d6996" d="M64.455989 98.12535H71.455989V103.02535H64.455989Z"/>
<use data-text="S" xlink:href="#font_27_52" transform="matrix(6.973848,0,0,-6.973848,73.205989,9.061562)"/>
<use data-text="i" xlink:href="#font_27_74" transform="matrix(6.973848,0,0,-6.973848,77.07647,9.061562)"/>
<use data-text="m" xlink:href="#font_27_78" transform="matrix(6.973848,0,0,-6.973848,79.02217,9.061562)"/>
<use data-text="u" xlink:href="#font_27_86" transform="matrix(6.973848,0,0,-6.973848,84.71282,9.061562)"/>
<use data-text="l" xlink:href="#font_27_77" transform="matrix(6.973848,0,0,-6.973848,88.68094,9.061562)"/>
<use data-text="a" xlink:href="#font_27_66" transform="matrix(6.973848,0,0,-6.973848,90.64059,9.061562)"/>
<use data-text="t" xlink:href="#font_27_85" transform="matrix(6.973848,0,0,-6.973848,94.16936,9.061562)"/>
<use data-text="i" xlink:href="#font_27_74" transform="matrix(6.973848,0,0,-6.973848,96.491649,9.061562)"/>
<use data-text="o" xlink:href="#font_27_80" transform="matrix(6.973848,0,0,-6.973848,98.43735,9.061562)"/>
<use data-text="n" xlink:href="#font_27_79" transform="matrix(6.973848,0,0,-6.973848,102.0707,9.061562)"/>
</svg>
