<svg xmlns="http://www.w3.org/2000/svg" xmlns:xlink="http://www.w3.org/1999/xlink" xmlns:inkscape="http://www.inkscape.org/namespaces/inkscape" version="1.1" width="194.15952" height="117.83952" viewBox="0 0 194.15952 117.83952">
<defs>
<path id="font_1_145" d="M.673996 .5730896V.120010379C.673996 .037002565 .6619873 .023986817 .58299258 .018997193V0H.86299136V.018997193C.7899933 .023986817 .776001 .037994386 .776001 .10900879V.5530853C.776001 .62409976 .78900149 .6371002 .86299136 .6430969V.6621094H.6639862L.44299317 .15701294 .21199036 .6621094H.01399231V.6430969C.09599304 .6381073 .10899353 .62609866 .10899353 .5530853V.14701844C.10899353 .04399109 .09498596 .024993897 .011993408 .018997193V0H.24699402V.018997193C.16999817 .022994996 .15299988 .04598999 .15299988 .14701844V.5500946L.4039917 0H.41799928L.673996 .5730896Z"/>
<path id="font_1_175" d="M.19299317 .45695497 .18798828 .45996095C.1289978 .43695069 .09098816 .4239502 .03199768 .40596009V.38996888L.036987306 .39097596C.051986696 .39297486 .066986087 .39396668 .07699585 .39396668 .099990848 .39396668 .10899353 .37698365 .10899353 .33399964V-.04484558C.10899353-.12080383 .10598755-.14579773 .09498596-.16578675 .08898926-.17578125 .07499695-.18377686 .06098938-.18377686 .04598999-.18377686 .035995485-.17678833 .018997193-.15579224 .0009918213-.13279724-.013000488-.123809818-.029006958-.123809818-.052001954-.123809818-.070007327-.14079285-.070007327-.16279602-.070007327-.19477844-.030014039-.21777344 .023986817-.21777344 .13398743-.21777344 .19299317-.14179993 .19299317 .0001373291V.45695497M.14199829 .6826172C.114990238 .6826172 .09199524 .65960696 .09199524 .63160708 .09199524 .6036072 .11399841 .5806122 .14199829 .5806122 .17098999 .5806122 .19400025 .60261538 .19400025 .63160708 .19400025 .65960696 .17098999 .6826172 .14199829 .6826172Z"/>
<path id="font_1_189" d="M.27799989 0H.47898866V.01499939C.44799806 .01499939 .42799378 .0309906 .39698792 .07501221L.2689972 .2711029 .35198976 .39115907C.37098695 .41818238 .40098573 .43418885 .43299867 .43518067V.4501953H.2749939V.43518067C.30499269 .43318177 .31498719 .42718507 .31498719 .4131775 .31498719 .40116883 .30299378 .37916566 .27799989 .34814454 .272995 .34214784 .26098634 .3241272 .24798584 .30412293L.23399353 .3241272C.20599365 .3661499 .18798828 .40016175 .18798828 .4131775 .18798828 .42718507 .20098877 .43418885 .23098755 .43518067V.4501953H.023986817V.43518067H.032989503C.06298828 .43518067 .07899475 .42218019 .10998535 .3751526L.20399475 .23109436 .08999634 .06600952C.05999756 .024993897 .049987794 .017990113 .016998291 .01499939V0H.1619873V.01499939C.13398743 .01499939 .12199402 .019989014 .12199402 .03300476 .12199402 .039001466 .1289978 .054000856 .14199829 .074020389L.22099304 .19706726 .31199647 .057006837C.31599427 .05101013 .31799317 .04499817 .31799317 .039001466 .31799317 .020996094 .31098939 .016998291 .27799989 .01499939V0Z"/>
<path id="font_1_155" d="M.9319916 .6621094H.73399356V.6430969C.7849884 .6381073 .8029938 .6271057 .8029938 .6001129 .8029938 .5791168 .7969971 .55311587 .7869873 .5251312L.6619873 .186203 .5299988 .5271301C.5279999 .53211978 .5189972 .5541229 .5179901 .55711367 .5089874 .57810977 .5029907 .59710696 .5029907 .6081085 .5029907 .63209536 .526001 .6421051 .5799866 .6430969V.6621094H.31298829V.6430969C.36999513 .6421051 .37998963 .6331024 .4139862 .55311587L.44699098 .47114564 .33999635 .18920899 .19599915 .5651245C.18899536 .5831146 .18499756 .6001129 .18499756 .6111145 .18499756 .6331024 .19898987 .6401062 .25 .6430969V.6621094H.004989624V.6430969C.055999757 .6381073 .070999149 .6201019 .10798645 .52612307L.30099488-.0107421879H.31599427L.46998597 .41215516 .6299896-.0107421879H.644989C.7299957 .25019837 .73999026 .27818299 .848999 .57211306 .8679962 .62409976 .8789978 .6331024 .9319916 .6430969V.6621094Z"/>
<path id="font_1_166" d="M.44198609 .066207889C.4249878 .052230836 .41299439 .047225954 .397995 .047225954 .375 .047225954 .36799623 .06121826 .36799623 .10517883V.30004884C.36799623 .35202027 .36299134 .3809967 .34799195 .40498353 .32598878 .4409485 .2829895 .45996095 .22399903 .45996095 .12998963 .45996095 .055999757 .41098023 .055999757 .34802247 .055999757 .32502748 .07598877 .3050537 .09899902 .3050537 .12298584 .3050537 .14399719 .32502748 .14399719 .34701539 .14399719 .35101319 .14299011 .35601808 .14199829 .3630066 .13999939 .37199403 .13899231 .37998963 .13899231 .3869934 .13899231 .41397096 .17098999 .43595887 .21099854 .43595887 .2599945 .43595887 .2869873 .40698243 .2869873 .35301209V.29205323C.1329956 .23010254 .115997318 .22210694 .07299805 .18412781 .050994874 .1641388 .036987306 .13017273 .036987306 .09719849 .036987306 .034225465 .08099365-.009765625 .14199829-.009765625 .18598938-.009765625 .22698975 .011230469 .28799439 .06323242 .29299928 .011230469 .31098939-.009765625 .35198976-.009765625 .38598634-.009765625 .40699769 .0022277833 .44198609 .040222169V.066207889M.2869873 .12322998C.2869873 .09222412 .28199769 .083221439 .26098634 .07122803 .23699951 .05722046 .20899964 .048233034 .18798828 .048233034 .15299988 .048233034 .125 .082229617 .125 .12522888V.12922669C.125 .18823242 .1659851 .2242279 .2869873 .26823426V.12322998Z"/>
<path id="font_1_183" d="M.0069885256 .3899536C.020996094 .3929596 .02999878 .39396668 .041992189 .39396668 .066986087 .39396668 .07598877 .3779602 .07598877 .33396913V.083984378C.07598877 .033996583 .068984989 .026992798 .004989624 .01499939V0H.24499512V.01499939C.1769867 .017990113 .1599884 .032989503 .1599884 .08998108V.31497193C.1599884 .3469696 .20298767 .3969574 .22999573 .3969574 .23599243 .3969574 .24499512 .3919525 .2559967 .381958 .27198792 .3679657 .2829895 .361969 .29599 .361969 .31999208 .361969 .33499146 .3789673 .33499146 .4069519 .33499146 .43995667 .31399537 .45996095 .27999879 .45996095 .23799134 .45996095 .20899964 .43695069 .1599884 .3659668V.45794679L.15499878 .45996095C.101989749 .43795777 .06599426 .42495729 .0069885256 .40596009V.3899536Z"/>
<path id="font_1_181" d="M.008987427 .39320375C.017990113 .39419557 .024993897 .39419557 .033996583 .39419557 .067993167 .39419557 .07499695 .38420106 .07499695 .33720399V-.13079834C.07499695-.1828003 .06399536-.19380188 .004989624-.19979859V-.21679688H.24699402V-.19880677C.17199707-.19779969 .15899658-.1867981 .15899658-.123794559V.033218385C.19400025 .00022888184 .21798706-.009765625 .2599945-.009765625 .37799073-.009765625 .46998597 .10217285 .46998597 .24707031 .46998597 .37097169 .3999939 .45996095 .30299378 .45996095 .24699402 .45996095 .20298767 .43495179 .15899658 .3809662V.45794679L.15299988 .45996095C.09899902 .43894959 .06399536 .4259491 .008987427 .4089508V.39320375M.15899658 .33399964C.15899658 .36398316 .21499634 .39994813 .26098634 .39994813 .33499146 .39994813 .38398744 .32400514 .38398744 .2080841 .38398744 .09716797 .33499146 .022232056 .2630005 .022232056 .21598816 .022232056 .15899658 .05819702 .15899658 .08818054V.33399964Z"/>
<clipPath id="clip_2">
<path transform="matrix(1,0,0,-1,0,117.83952)" d="M39.95645 14.317975H193.07952V104.680408H39.95645Z"/>
</clipPath>
<path id="font_3_50" d="M.5159912 .31925965C.5159912 .42918397 .5029907 .50813296 .45700074 .5780945 .42599488 .62405398 .3639984 .6640625 .28399659 .6640625 .051986696 .6640625 .051986696 .39120484 .051986696 .31925965 .051986696 .2472992 .051986696-.01953125 .28399659-.01953125 .5159912-.01953125 .5159912 .2472992 .5159912 .31925965M.28399659 .008468628C.23799134 .008468628 .1769867 .035446168 .15699768 .117385867 .14299011 .17634583 .14299011 .25830079 .14299011 .33224488 .14299011 .40519715 .14299011 .4811554 .1579895 .53611758 .1789856 .6150665 .24299622 .63604739 .28399659 .63604739 .33799745 .63604739 .3899994 .6030731 .4079895 .545105 .42399598 .4911499 .4249878 .41918946 .4249878 .33224488 .4249878 .25830079 .4249878 .18434143 .4119873 .12138367 .3919983 .030441285 .32398988 .008468628 .28399659 .008468628Z"/>
<clipPath id="clip_4">
<path transform="matrix(1,0,0,-1,0,117.83952)" d="M39.95645 14.317975H193.07952V104.680408H39.95645Z"/>
</clipPath>
<path id="font_3_51" d="M.33499146 .63612368C.33499146 .6630554 .33299256 .6640625 .30499269 .6640625 .24099732 .6014404 .1499939 .6004486 .10899353 .6004486V.5644531C.1329956 .5644531 .19898987 .5644531 .2539978 .592453V.08203125C.2539978 .04899597 .2539978 .035995485 .1539917 .035995485H.115997318V0C.13398743 .0009918213 .25698854 .0039978029 .2939911 .0039978029 .32499696 .0039978029 .45098878 .0009918213 .47299195 0V.035995485H.43499757C.33499146 .035995485 .33499146 .04899597 .33499146 .08203125V.63612368Z"/>
<clipPath id="clip_5">
<path transform="matrix(1,0,0,-1,0,117.83952)" d="M39.95645 14.317975H193.07952V104.680408H39.95645Z"/>
</clipPath>
<path id="font_3_52" d="M.5049896 .18203736H.47099305C.46798707 .16001892 .45799256 .100997928 .44499208 .09098816 .43699647 .084991458 .3600006 .084991458 .34599305 .084991458H.1619873C.2669983 .17803955 .3019867 .20603943 .3619995 .25306703 .43598939 .312088 .5049896 .374115 .5049896 .46914674 .5049896 .5900879 .39898683 .6640625 .2709961 .6640625 .14698792 .6640625 .06298828 .57710269 .06298828 .4851532 .06298828 .43414308 .10598755 .42915345 .115997318 .42915345 .13999939 .42915345 .16899109 .44615174 .16899109 .48214723 .16899109 .5001526 .1619873 .53515627 .10998535 .53515627 .14099121 .6060791 .20899964 .62805178 .2559967 .62805178 .35598756 .62805178 .4079895 .5501404 .4079895 .46914674 .4079895 .38212586 .34599305 .3130951 .31399537 .27708436L.07299805 .038986207C.06298828 .02999878 .06298828 .027999878 .06298828 0H.47499085L.5049896 .18203736Z"/>
<clipPath id="clip_6">
<path transform="matrix(1,0,0,-1,0,117.83952)" d="M39.95645 14.317975H193.07952V104.680408H39.95645Z"/>
</clipPath>
<path id="font_3_53" d="M.272995 .33428956C.35099793 .33428956 .40699769 .2803192 .40699769 .1733551 .40699769 .04940796 .33499146 .012466431 .2769928 .012466431 .23699951 .012466431 .14898682 .0234375 .10699463 .082351688 .1539917 .084350589 .16499329 .11735535 .16499329 .13835144 .16499329 .17034912 .14099121 .19335938 .10998535 .19335938 .08198547 .19335938 .053985597 .17634583 .053985597 .13534546 .053985597 .041412355 .1579895-.01953125 .2789917-.01953125 .41799928-.01953125 .5139923 .07336426 .5139923 .1733551 .5139923 .2513275 .44999696 .32929994 .33999635 .35229493 .44499208 .39024354 .48298646 .4650879 .48298646 .5260773 .48298646 .60505679 .3919983 .6640625 .2809906 .6640625 .16999817 .6640625 .084991458 .61006167 .084991458 .5300751 .084991458 .49606324 .10699463 .47706605 .13699341 .47706605 .16799927 .47706605 .18798828 .5000763 .18798828 .5280762 .18798828 .5570679 .16799927 .57806399 .13699341 .5800781 .17199707 .62405398 .24099732 .63505557 .27799989 .63505557 .32299806 .63505557 .38598634 .6130676 .38598634 .5260773 .38598634 .48406983 .37199403 .43814088 .34599305 .4072113 .31298829 .36927796 .2849884 .3672943 .23498535 .36428834 .20999146 .3623047 .20799256 .3623047 .20298767 .3612976 .20098877 .3612976 .19299317 .3592987 .19299317 .34829713 .19299317 .33428956 .20199585 .33428956 .21899414 .33428956H.272995Z"/>
<clipPath id="clip_7">
<path transform="matrix(1,0,0,-1,0,117.83952)" d="M39.95645 14.317975H193.07952V104.680408H39.95645Z"/>
</clipPath>
<path id="font_3_54" d="M.5289917 .1640625V.20005799H.41799928V.64582827C.41799928 .66682437 .41799928 .6738281 .3959961 .6738281 .38398744 .6738281 .37998963 .6738281 .36999513 .65982058L.038986207 .20005799V.1640625H.33299256V.08201599C.33299256 .04800415 .33299256 .035995485 .2519989 .035995485H.22499085V0C.2749939 .0019989014 .33898927 .0039978029 .375 .0039978029 .4119873 .0039978029 .47599793 .0019989014 .526001 0V.035995485H.49899293C.41799928 .035995485 .41799928 .04800415 .41799928 .08201599V.1640625H.5289917M.33999635 .5658722V.20005799H.07598877L.33999635 .5658722Z"/>
<clipPath id="clip_8">
<path transform="matrix(1,0,0,-1,0,117.83952)" d="M39.95645 14.317975H193.07952V104.680408H39.95645Z"/>
</clipPath>
<path id="font_3_55" d="M.15499878 .5588074C.20599365 .5458069 .23599243 .5458069 .2519989 .5458069 .38398744 .5458069 .46199037 .6358032 .46199037 .6508026 .46199037 .6618042 .45498658 .6648102 .44999696 .6648102 .44799806 .6648102 .44599916 .6648102 .44198609 .6618042 .41799928 .6528015 .36499024 .6328125 .29100038 .6328125 .2630005 .6328125 .20999146 .6348114 .14498902 .6598053 .1349945 .6648102 .1329956 .6648102 .13198853 .6648102 .11898804 .6648102 .11898804 .6538086 .11898804 .6378021V.34251405C.11898804 .32548524 .11898804 .3134613 .1349945 .3134613 .14399719 .3134613 .14498902 .3154602 .15499878 .32748414 .19799805 .38259889 .25898744 .390625 .2939911 .390625 .35398866 .390625 .3809967 .34251405 .38598634 .33450318 .4039917 .30143739 .4099884 .26335145 .4099884 .20524597 .4099884 .17524719 .4099884 .116256717 .37998963 .07234192 .35499574 .03640747 .31199647 .012466431 .2630005 .012466431 .19799805 .012466431 .1309967 .04838562 .10598755 .11425781 .14399719 .11125183 .16299439 .13624573 .16299439 .16325379 .16299439 .20625305 .12599182 .21424866 .11299133 .21424866 .11099243 .21424866 .06298828 .21424866 .06298828 .1602478 .06298828 .07034302 .14498902-.01953125 .2649994-.01953125 .3929901-.01953125 .5049896 .07533264 .5049896 .20124817 .5049896 .31445313 .4189911 .41862489 .29499818 .41862489 .25099183 .41862489 .19898987 .4076233 .15499878 .36956788V.5588074Z"/>
<path id="font_1_135" d="M.6199951 .4499359 .61099246 .67578127H.58999636C.58399966 .6547699 .56799319 .6427765 .5479889 .6427765 .5389862 .6427765 .5239868 .6457672 .5089874 .6517792 .45999146 .6677704 .4099884 .67578127 .36299134 .67578127 .2809906 .67578127 .19799805 .6447754 .13598633 .58981326 .06599426 .52786257 .027999878 .43495179 .027999878 .32505799 .027999878 .23213196 .057998659 .14620972 .10899353 .089263919 .16899109 .02432251 .26098634-.013671875 .3600006-.013671875 .47299195-.013671875 .57199099 .032318117 .6329956 .11325073L.61499026 .13122559C.54100039 .060287477 .47499085 .030319214 .3919983 .030319214 .32899476 .030319214 .272995 .050308229 .22999573 .088272098 .1749878 .13722229 .14399719 .22714234 .14399719 .3380432 .14399719 .5188751 .23699951 .6357727 .38198854 .6357727 .43899537 .6357727 .4909973 .61479189 .5309906 .5748291 .5629883 .54286196 .5779877 .5148773 .5970001 .4499359H.6199951Z"/>
<path id="font_1_180" d="M.25 .45996095C.11999512 .45996095 .0289917 .3639984 .0289917 .22608948 .0289917 .09118652 .12199402-.009765625 .24798584-.009765625 .37399293-.009765625 .46998597 .09617615 .46998597 .23408509 .46998597 .3650055 .37799073 .45996095 .25 .45996095M.23699951 .4319458C.32099916 .4319458 .37998963 .3360138 .37998963 .19911194 .37998963 .08618164 .33499146 .018234253 .2599945 .018234253 .22099304 .018234253 .18399048 .04220581 .16299439 .08218384 .1349945 .13415528 .11898804 .20410156 .11898804 .27505494 .11898804 .36999513 .1659851 .4319458 .23699951 .4319458Z"/>
<path id="font_1_179" d="M.015991211 .39794923C.021987915 .4009552 .03199768 .40194703 .042999269 .40194703 .070999149 .40194703 .07998657 .38694764 .07998657 .33796693V.08998108C.07998657 .032989503 .068984989 .018997193 .017990113 .01499939V0H.22999573V.01499939C.1789856 .018997193 .1639862 .0309906 .1639862 .066986087V.34796144C.21199036 .3929596 .23399353 .404953 .2669983 .404953 .31599427 .404953 .33999635 .3739624 .33999635 .30796815V.098983768C.33999635 .035995485 .32699586 .018997193 .2769928 .01499939V0H.4850006V.01499939C.43598939 .019989014 .42399598 .03199768 .42399598 .08097839V.30996705C.42399598 .40394593 .37998963 .45996095 .30599977 .45996095 .2599945 .45996095 .22898865 .4429474 .16099549 .37895204V.45794679L.1539917 .45996095C.10499573 .44195558 .070999149 .43095399 .015991211 .4149475V.39794923Z"/>
<path id="font_1_185" d="M.25498963 .4501953H.1539917V.5661926C.1539917 .57618716 .15299988 .5791931 .14698792 .5791931 .13999939 .5701904 .13398743 .56118777 .1269989 .55119326 .08898926 .4961853 .04598999 .44818116 .02999878 .44418336 .018997193 .43719483 .0129852299 .43019105 .0129852299 .42518617 .0129852299 .42218019 .01399231 .42018128 .016998291 .41818238H.069992069V.11721802C.069992069 .033233644 .099990848-.009765625 .15899658-.009765625 .20799256-.009765625 .24598694 .014221191 .2789917 .066223148L.2659912 .07722473C.24499512 .052230836 .22799683 .04222107 .20599365 .04222107 .16899109 .04222107 .1539917 .069229129 .1539917 .1322174V.41818238H.25498963V.4501953Z"/>
<path id="font_1_177" d="M.018997193 .6230011H.024993897C.035995485 .6239929 .04798889 .625 .055999757 .625 .08799744 .625 .09799194 .61099246 .09799194 .56399539V.08699036C.09799194 .032989503 .083999637 .019989014 .020996094 .01499939V0H.25698854V.01499939C.19400025 .018997193 .18199158 .0289917 .18199158 .083999637V.68099978L.17799378 .68299868C.12599182 .66600039 .08799744 .6559906 .018997193 .6389923V.6230011Z"/>
<path id="font_1_184" d="M.31498719 .31419374 .31098939 .4501953H.2999878L.2979889 .44818116C.2889862 .44119264 .28799439 .44018556 .28399659 .44018556 .27799989 .44018556 .2679901 .44218446 .25698854 .44718934 .23498535 .4549713 .21299744 .45898438 .18699646 .45898438 .10798645 .45898438 .050994874 .4079895 .050994874 .33602906 .050994874 .28007508 .08299255 .24009705 .16799927 .19212342L.22599793 .15913391C.26098634 .1391449 .27799989 .11515808 .27799989 .08418274 .27799989 .04020691 .24598694 .01222229 .19499207 .01222229 .16099549 .01222229 .12998963 .025222779 .11099243 .047210695 .08999634 .07218933 .08099365 .095184329 .067993167 .15214539H.051986696V-.003768921H.06498718C.07199097 .006225586 .07598877 .008224487 .08799744 .008224487 .09700012 .0079956059 .11099243 .005996704 .13398743 0 .1619873-.0057678224 .18899536-.009765625 .20698548-.009765625 .28399659-.009765625 .34799195 .048202516 .34799195 .11816406 .34799195 .1681366 .32398988 .20111084 .2639923 .23709107L.1559906 .3010559C.12799073 .31704713 .11299133 .34202577 .11299133 .36901856 .11299133 .40899659 .14399719 .4369812 .18998719 .4369812 .24699402 .4369812 .2769928 .40299989 .2999878 .31404115L.31498719 .31419374Z"/>
<path id="font_1_170" d="M.4079895 .16427613C.3600006 .08824158 .31698609 .05921936 .25299073 .05921936 .19599915 .05921936 .15299988 .08824158 .12399292 .14526367 .10598755 .18328858 .09899902 .2163086 .09700012 .27734376H.40499879C.39698792 .34222413 .3869934 .37112428 .3619995 .40301515 .33198548 .43894959 .28599549 .45996095 .23399353 .45996095 .18399048 .45996095 .13699341 .44195558 .09899902 .40800477 .051986696 .36714173 .024993897 .29634095 .024993897 .21430969 .024993897 .07623291 .09700012-.009765625 .21199036-.009765625 .30699159-.009765625 .38198854 .049224855 .42399598 .15727234L.4079895 .16427613M.09899902 .30934144C.10998535 .3870697 .14399719 .4239502 .20498657 .4239502 .2659912 .4239502 .2899933 .39604188 .30299378 .30934144H.09899902Z"/>
<path id="font_1_240" d="M.2869873 .67578127H.21998596L-.009002686-.013671875H.05899048L.2869873 .67578127Z"/>
<clipPath id="clip_9">
<path transform="matrix(1,0,0,-1,0,117.83952)" d="M39.95645 14.317975H193.07952V104.680408H39.95645Z"/>
</clipPath>
<clipPath id="clip_10">
<path transform="matrix(1,0,0,-1,0,117.83952)" d="M46.91659 14.317975H100.191738 46.91659Z"/>
</clipPath>
<clipPath id="clip_11">
<path transform="matrix(1,0,0,-1,0,117.83952)" d="M39.95645 14.317975H193.07952V104.680408H39.95645Z"/>
</clipPath>
<path id="font_1_206" d="M.47200013 .23098755H.36999513V.67578127H.32598878L.011993408 .23098755V.16699219H.29299928V0H.36999513V.16699219H.47200013V.23098755M.2919922 .23098755H.051986696L.2919922 .573822V.23098755Z"/>
<path id="font_1_210" d="M.2899933 .37101747C.3889923 .42396546 .42399598 .46592713 .42399598 .5338745 .42399598 .61579897 .35198976 .67578127 .2519989 .67578127 .14299011 .67578127 .06199646 .6088104 .06199646 .5178833 .06199646 .4529419 .08099365 .42396546 .18598938 .3320465 .07798767 .25012208 .055999757 .21914673 .055999757 .15119934 .055999757 .05429077 .1349945-.013671875 .24798584-.013671875 .36799623-.013671875 .44499208 .05229187 .44499208 .15519715 .44499208 .23213196 .41099549 .2810974 .2899933 .37101747M.27198792 .26809693C.34498597 .21614075 .36898805 .18017578 .36898805 .1242218 .36898805 .059280397 .32398988 .014328003 .25898744 .014328003 .18299866 .014328003 .13198853 .072265628 .13198853 .15919495 .13198853 .22314453 .1539917 .2651062 .21199036 .3120575L.27198792 .26809693M.26098634 .3889923C.17199707 .4469452 .13598633 .49290467 .13598633 .54885867 .13598633 .6068115 .18099976 .6477661 .24398804 .6477661 .31199647 .6477661 .35499574 .60380557 .35499574 .53486636 .35499574 .47792054 .32699586 .43295289 .269989 .394989 .2649994 .3919983 .2649994 .3919983 .26098634 .3889923Z"/>
<path id="font_1_222" d="M.125 .100250247C.09498596 .100250247 .069992069 .07424927 .069992069 .04324341 .069992069 .014251709 .09498596-.0107421879 .12399292-.0107421879 .15499878-.0107421879 .18099976 .014251709 .18099976 .04324341 .18099976 .07424927 .15499878 .100250247 .125 .100250247Z"/>
<path id="font_1_176" d="M.0069885256 .6231842C.019989014 .6241913 .0289917 .6251831 .038986207 .6251831 .07199097 .6251831 .08198547 .6121826 .08198547 .5641937V.08201599C.08198547 .02999878 .07899475 .026992798 .0069885256 .01499939V0H.24099732V.01499939L.22099304 .015991211C.18099976 .017990113 .1659851 .03199768 .1659851 .0670166V.25109864L.30599977 .06401062 .30899049 .060012819C.31098939 .057006837 .31298829 .054016115 .31599427 .05101013 .32398988 .041000368 .32699586 .035003663 .32699586 .02999878 .32699586 .020996094 .31799317 .01499939 .30599977 .01499939H.2869873V0H.5049896V.01499939C.46099855 .017990113 .42999269 .037002565 .3880005 .088027957L.23498535 .28211976 .2639923 .3091278C.33499146 .3751526 .39698792 .42118836 .42599488 .42918397 .44099427 .43318177 .45498658 .43518067 .47200013 .43518067H.47999574V.4501953H.27598573V.43618775C.31498719 .43518067 .32598878 .43118287 .32598878 .4171753 .32598878 .4091797 .31698609 .39517213 .30299378 .38316346L.1659851 .2611084V.68118289L.1619873 .68318179C.12399292 .67118838 .09498596 .66319277 .036987306 .6471863L.0069885256 .6391907V.6231842Z"/>
<path id="font_12_63" d="M.7619934 .2239685C.7739868 .22996521 .7839966 .236969 .7839966 .24998474 .7839966 .2659912 .772995 .2709961 .7630005 .27600099L.15299988 .5701599C.13899231 .5771637 .1349945 .5771637 .1329956 .5771637 .11898804 .5771637 .10798645 .5661621 .10798645 .55215457 .10798645 .53715518 .11999512 .5311432 .1289978 .5271454L.7029877 .25097657 .12998963-.02519226C.117996219-.031188965 .10798645-.03819275 .10798645-.051208497 .10798645-.065200809 .11898804-.07620239 .1329956-.07620239 .13398743-.07620239 .13899231-.07620239 .15098572-.07020569L.7619934 .2239685Z"/>
<path id="font_1_203" d="M.29100038 .67578127 .11099243 .58496096V.57095339C.12298584 .57595828 .13398743 .57995608 .13798523 .58195498 .1559906 .5889435 .17298889 .592926 .18299866 .592926 .20399475 .592926 .21299744 .57795718 .21299744 .5459595V.09298706C.21299744 .0599823 .20498657 .036987306 .18899536 .02798462 .17399597 .018997193 .1599884 .015991211 .117996219 .01499939V0H.3939972V.01499939C.31498719 .015991211 .29899598 .025985718 .29899598 .07398987V.6737671L.29100038 .67578127Z"/>
<path id="font_1_212" d="M.2539978 .67578127C.19898987 .67578127 .15699768 .6587677 .11999512 .62379458 .06199646 .5678406 .023986817 .4529419 .023986817 .3360443 .023986817 .22714234 .056991579 .11022949 .10398865 .05429077 .14099121 .010314941 .19198609-.013671875 .25-.013671875 .30099488-.013671875 .34399415 .003326416 .37998963 .03829956 .43798829 .09324646 .47599793 .20915222 .47599793 .3300476 .47599793 .53486636 .3849945 .67578127 .2539978 .67578127M.25099183 .6497803C.33499146 .6497803 .37998963 .53686526 .37998963 .3280487 .37998963 .11923218 .33599855 .012313843 .25 .012313843 .1639862 .012313843 .11999512 .11923218 .11999512 .32704164 .11999512 .53886416 .16499329 .6497803 .25099183 .6497803Z"/>
<path id="font_1_178" d="M.018997193 .39794923C.03199768 .4009552 .039993287 .40194703 .050994874 .40194703 .07699585 .40194703 .085998538 .3859558 .085998538 .33796693V.084991458C.085998538 .0309906 .07199097 .015991211 .015991211 .01499939V0H.23799134V.01499939C.18499756 .016998291 .16999817 .02798462 .16999817 .066986087V.34895326C.16999817 .35095216 .17799378 .3609619 .18499756 .36795045 .20999146 .3909607 .25299073 .40795899 .28799439 .40795899 .33198548 .40795899 .35398866 .37295533 .35398866 .30296327V.08598328C.35398866 .02998352 .34298707 .018997193 .28599549 .01499939V0H.5099945V.01499939C.45298768 .015991211 .43798829 .032989503 .43798829 .09498596V.34695436C.46798707 .3899536 .5009918 .40795899 .5469971 .40795899 .60398867 .40795899 .621994 .38095094 .621994 .29795838V.08699036C.621994 .02998352 .6139984 .021987915 .55599978 .01499939V0H.7749939V.01499939L.7489929 .016998291C.71899417 .018997193 .70599368 .036987306 .70599368 .07598877V.28196717C.70599368 .39994813 .6669922 .45996095 .58999636 .45996095 .5319977 .45996095 .48098756 .43395997 .4269867 .3759613 .40899659 .43295289 .375 .45996095 .32099916 .45996095 .2769928 .45996095 .24899292 .44595338 .1659851 .38294984V.45794679L.15899658 .45996095C.10798645 .4409485 .07398987 .4299469 .018997193 .4149475V.39794923Z"/>
<path id="font_1_174" d="M.1749878 .45996095 .019989014 .40527345V.3902588L.027999878 .39126588C.039993287 .39326478 .052993776 .39427186 .06199646 .39427186 .085998538 .39427186 .09498596 .37826539 .09498596 .33422853V.10205078C.09498596 .02999878 .084991458 .018997193 .015991211 .01499939V0H.25299073V.01499939C.18699646 .019989014 .1789856 .02999878 .1789856 .10205078V.45695497L.1749878 .45996095M.12799073 .6826172C.100997928 .6826172 .07798767 .65960696 .07798767 .63160708 .07798767 .6036072 .099990848 .5806122 .12799073 .5806122 .15699768 .5806122 .17999268 .60261538 .17999268 .63160708 .17999268 .65960696 .15699768 .6826172 .12799073 .6826172Z"/>
<path id="font_1_168" d="M.397995 .15615845C.34999085 .08621216 .31399537 .06222534 .25698854 .06222534 .1659851 .06222534 .101989749 .14216614 .101989749 .25708009 .101989749 .3600006 .15699768 .43095399 .23799134 .43095399 .27398683 .43095399 .2869873 .41996766 .29699708 .3829956L.30299378 .3610077C.31098939 .33302308 .32899476 .31503297 .34999085 .31503297 .37599183 .31503297 .397995 .33403016 .397995 .3570099 .397995 .41296388 .32798768 .45996095 .24398804 .45996095 .19499207 .45996095 .14399719 .43995667 .102996829 .40397645 .052993776 .3600006 .024993897 .29205323 .024993897 .2131195 .024993897 .08320618 .10398865-.009765625 .21499634-.009765625 .2599945-.009765625 .2999878 .006225586 .33599855 .037231447 .36299134 .06123352 .38198854 .08821106 .4119873 .14717102L.397995 .15615845Z"/>
<path id="font_1_148" d="M.20199585 .29107667C.22799683 .28907777 .24499512 .28808595 .2709961 .28808595 .34899903 .28808595 .40299989 .29808045 .44599916 .32208253 .5059967 .3540802 .5419922 .41508485 .5419922 .48109437 .5419922 .52308657 .5279999 .5610962 .5009918 .59010317 .46099855 .63409426 .37399293 .6621094 .27999879 .6621094H.015991211V.6430969C.08999634 .6351013 .099990848 .6251068 .099990848 .5530853V.120010379C.099990848 .035995485 .09199524 .026000977 .015991211 .018997193V0H.29599V.018997193C.21699524 .021987915 .20199585 .035995485 .20199585 .10900879V.29107667M.20199585 .591095C.20199585 .618103 .20899964 .6251068 .23599243 .6251068 .37098695 .6251068 .43299867 .5780945 .43299867 .4750824 .43299867 .37808229 .37399293 .32807923 .25898744 .32807923 .23899842 .32807923 .22499085 .32907105 .20199585 .3310852V.591095Z"/>
<path id="font_1_186" d="M.47898866 .050186159H.47399903C.42799378 .050186159 .4169922 .061187746 .4169922 .10719299V.4501953H.25898744V.43318177C.32099916 .43019105 .33299256 .42018128 .33299256 .37019349V.13522339C.33299256 .10722351 .32798768 .09321594 .31399537 .082229617 .2869873 .06022644 .2559967 .048233034 .22599793 .048233034 .18699646 .048233034 .15499878 .082229617 .15499878 .1242218V.4501953H.008987427V.43618775C.056991579 .43318177 .070999149 .41818238 .070999149 .37219239V.120224C.070999149 .041229249 .11898804-.009765625 .19198609-.009765625 .22898865-.009765625 .2679901 .006225586 .29499818 .033233644L.33799745 .07621765V-.0067749025L.34199525-.0087890629C.3919983 .011199951 .42799378 .022201539 .47898866 .036209108V.050186159Z"/>
<path id="font_1_191" d="M.41799928 .13504029 .3999939 .13905335C.3899994 .089019779 .38398744 .073013309 .37098695 .055999757 .35699464 .039001466 .32299806 .02999878 .27198792 .02999878H.13398743L.40299989 .43518067V.4501953H.055999757L.052993776 .33213807H.070999149C.07998657 .40518189 .09498596 .42018128 .15499878 .42018128H.29299928L.026992798 .01499939V0H.4039917L.41799928 .13504029Z"/>
<path id="font_1_142" d="M.27799989 .5531311C.27799989 .6261139 .2889862 .6371002 .36999513 .6430969V.6621094H.08299255V.6430969C.16499329 .6371002 .17599488 .6261139 .17599488 .5531311V.09030151C.17599488 .045318605 .1639862 .02432251 .13798523 .02432251 .12399292 .02432251 .117996219 .032318117 .11099243 .05731201 .100997928 .092300418 .084991458 .108291629 .05899048 .108291629 .03199768 .108291629 .009994507 .08529663 .009994507 .058303834 .009994507 .016326905 .050994874-.013671875 .10899353-.013671875 .21699524-.013671875 .27799989 .058303834 .27799989 .18325806V.5531311Z"/>
<path id="font_1_156" d="M.69599917 .6621094H.45799256V.6430969C.5119934 .641098 .5279999 .6341095 .5279999 .61109927 .5279999 .59609988 .5169983 .5780945 .48799134 .54208377L.375 .404068 .33299256 .46307374C.27198792 .54808047 .24798584 .591095 .24798584 .61309817 .24798584 .6331024 .2630005 .641098 .29599 .6421051L.32398988 .6430969V.6621094H.021987915V.6430969C.08699036 .6401062 .10499573 .6251068 .20298767 .48608399L.31199647 .3260498 .15499878 .13301087C.06599426 .026992798 .06098938 .022994996 .009994507 .018997193V0H.24299622V.018997193C.18499756 .022994996 .16699219 .0309906 .16699219 .054000856 .16699219 .069000247 .18199158 .0940094 .21899414 .14001465L.33799745 .28804017 .43299867 .14801026C.46598817 .09901428 .48399354 .06500244 .48399354 .05000305 .48399354 .03199768 .46798707 .021987915 .43399049 .020996094 .42999269 .020996094 .4189911 .019989014 .40699769 .018997193V0H.70399478V.018997193C.651001 .024993897 .6359863 .034988405 .59298709 .09300232L.40098573 .36705018 .5469971 .5490875C.6119995 .6271057 .6319885 .6390991 .69599917 .6430969V.6621094Z"/>
<path id="font_1_167" d="M.15299988 .680954 .147995 .6829529C.10598755 .6679535 .07899475 .6599579 .03199768 .6469574L.0029907227 .63894656V.6229553C.008987427 .62394717 .0129852299 .62394717 .019989014 .62394717 .05999756 .62394717 .068984989 .6149597 .068984989 .5729523V.05419922C.068984989 .023223877 .1539917-.009765625 .23399353-.009765625 .3659973-.009765625 .46798707 .10017395 .46798707 .24307251 .46798707 .36598207 .3919983 .45996095 .2919922 .45996095 .23098755 .45996095 .17298889 .4239502 .15299988 .37496949V.680954M.15299988 .32200624C.15299988 .36097718 .19999695 .3969574 .2519989 .3969574 .32998658 .3969574 .37998963 .3190155 .37998963 .19709778 .37998963 .08618164 .33198548 .022232056 .25 .022232056 .19799805 .022232056 .15299988 .045211793 .15299988 .07019043V.32200624Z"/>
<path id="font_1_169" d="M.34399415-.009765625 .4909973 .04222107V.05821228C.47299195 .05722046 .47099305 .05722046 .46798707 .05722046 .43199159 .05722046 .42399598 .06820679 .42399598 .11418152V.680954L.4189911 .6829529C.37098695 .6659546 .33599855 .6559601 .27198792 .63894656V.6229553C.27999879 .62394717 .28599549 .62394717 .2939911 .62394717 .33099366 .62394717 .33999635 .61395266 .33999635 .5729523V.41696168C.3019867 .44895936 .2749939 .45996095 .23498535 .45996095 .11999512 .45996095 .026992798 .34701539 .026992798 .20510865 .026992798 .07720947 .101989749-.009765625 .21199036-.009765625 .2679901-.009765625 .30599977 .010223389 .33999635 .05722046V-.0067749025L.34399415-.009765625M.33999635 .10218811C.33999635 .095184329 .33299256 .08319092 .32299806 .07220459 .30499269 .052215578 .27999879 .04222107 .25099183 .04222107 .16799927 .04222107 .11299133 .122177127 .11299133 .24508667 .11299133 .3580017 .1619873 .4319458 .23799134 .4319458 .29100038 .4319458 .33999635 .3849945 .33999635 .33203126V.10218811Z"/>
<path id="font_1_173" d="M.15699768 .34295655C.19898987 .38894654 .22898865 .40596009 .2679901 .40596009 .31799317 .40596009 .34298707 .36994935 .34298707 .29995729V.101989749C.34298707 .033996583 .33299256 .020996094 .2749939 .01499939V0H.4869995V.01499939C.43299867 .024993897 .4269867 .032989503 .4269867 .101989749V.30096437C.4269867 .40596009 .3849945 .45996095 .3039856 .45996095 .24499512 .45996095 .20298767 .43595887 .15699768 .3759613V.6799469L.1519928 .6829529C.117996219 .6709595 .09298706 .6629486 .036987306 .6469574L.009994507 .63894656V.6229553C.01399231 .62394717 .016998291 .62394717 .021987915 .62394717 .06498718 .62394717 .07299805 .61595156 .07299805 .5729523V.101989749C.07299805 .03199768 .066986087 .022994996 .008987427 .01499939V0H.22499085V.01499939C.16699219 .020996094 .15699768 .032989503 .15699768 .101989749V.34295655Z"/>
<path id="font_1_172" d="M.46998597 .38775636V.4267578H.3929901C.37298585 .4267578 .35798646 .4298706 .33799745 .43695069L.31599427 .4449463C.2889862 .45495606 .2619934 .45996095 .23599243 .45996095 .14299011 .45996095 .068984989 .38775636 .068984989 .29678346 .068984989 .23379517 .09599304 .19581604 .1619873 .16282654 .14299011 .14482117 .125 .1278534 .11898804 .12286377 .085998538 .09391785 .07299805 .07394409 .07299805 .053985597 .07299805 .03302002 .084991458 .02104187 .12599182 .0010375977 .054992677-.05101013 .027999878-.08406067 .027999878-.12109375 .027999878-.1741333 .10598755-.21813965 .20098877-.21813965 .27598573-.21813965 .35398866-.19213867 .4059906-.15013123 .44400025-.11909485 .46099855-.08705139 .46099855-.04901123 .46099855 .013046265 .4139862 .054977418 .33999635 .05796814L.21099854 .063964847C.1579895 .065963748 .1329956 .07495117 .1329956 .090911868 .1329956 .11088562 .1659851 .14582825 .19299317 .15382385 .20199585 .15281677 .20899964 .15182495 .21199036 .15182495 .23098755 .14982605 .24398804 .14881897 .25 .14881897 .2869873 .14881897 .32699586 .16381836 .35798646 .19081116 .3909912 .21881104 .4059906 .25379945 .4059906 .30377198 .4059906 .33276368 .40098573 .35575868 .3869934 .38775636H.46998597M.14698792-.001953125C.17999268-.008972168 .2599945-.014968872 .30899049-.014968872 .3999939-.014968872 .43299867-.02798462 .43299867-.06402588 .43299867-.12210083 .35699464-.16113281 .24398804-.16113281 .1559906-.16113281 .09799194-.1321106 .09799194-.08805847 .09799194-.06503296 .10499573-.052017213 .14698792-.001953125M.1519928 .33776856C.1519928 .39674378 .17999268 .4319458 .22599793 .4319458 .25698854 .4319458 .2829895 .41474916 .29899598 .38475038 .31698609 .34976197 .32899476 .30377198 .32899476 .26478578 .32899476 .20881653 .2999878 .17382813 .2539978 .17382813 .19400025 .17382813 .1519928 .23880005 .1519928 .33476258V.33776856Z"/>
</defs>
<path transform="matrix(1,0,0,-1,0,117.83952)" d="M0 0H194.15952V117.83952H0Z" fill="#ffffff"/>
<path transform="matrix(1,0,0,-1,0,117.83952)" d="M39.95645 14.317975H193.07952V104.680408H39.95645Z" fill="#ffffff"/>
<path transform="matrix(1,0,0,-1,0,117.83952)" d="M73.55416 14.317975V10.817975"/>
<path transform="matrix(1,0,0,-1,0,117.83952)" stroke-width=".8" stroke-linecap="butt" stroke-linejoin="round" fill="none" stroke="#000000" d="M73.55416 14.317975V10.817975"/>
<use data-text="M" xlink:href="#font_1_145" transform="matrix(6.973848,0,0,-6.973848,67.74153,115.24974)"/>
<use data-text="j" xlink:href="#font_1_175" transform="matrix(6.973848,0,0,-6.973848,73.93431,115.24974)"/>
<use data-text="x" xlink:href="#font_1_189" transform="matrix(6.973848,0,0,-6.973848,75.866069,115.24974)"/>
<path transform="matrix(1,0,0,-1,0,117.83952)" d="M159.48181 14.317975V10.817975"/>
<path transform="matrix(1,0,0,-1,0,117.83952)" stroke-width=".8" stroke-linecap="butt" stroke-linejoin="round" fill="none" stroke="#000000" d="M159.48181 14.317975V10.817975"/>
<use data-text="W" xlink:href="#font_1_155" transform="matrix(6.973848,0,0,-6.973848,152.01636,115.24974)"/>
<use data-text="a" xlink:href="#font_1_166" transform="matrix(6.973848,0,0,-6.973848,158.03482,115.24974)"/>
<use data-text="r" xlink:href="#font_1_183" transform="matrix(6.973848,0,0,-6.973848,161.12424,115.24974)"/>
<use data-text="p" xlink:href="#font_1_181" transform="matrix(6.973848,0,0,-6.973848,163.43956,115.24974)"/>
<g clip-path="url(#clip_2)">
<path transform="matrix(1,0,0,-1,0,117.83952)" stroke-width=".5" stroke-linecap="square" stroke-linejoin="round" fill="none" stroke="#dcdcdc" d="M39.95645 14.317975H193.07952"/>
</g>
<path transform="matrix(1,0,0,-1,0,117.83952)" d="M39.95645 14.317975H36.45645"/>
<path transform="matrix(1,0,0,-1,0,117.83952)" stroke-width=".8" stroke-linecap="butt" stroke-linejoin="round" fill="none" stroke="#000000" d="M39.95645 14.317975H36.45645"/>
<use data-text="0" xlink:href="#font_3_50" transform="matrix(6.973848,0,0,-6.973848,28.985213,105.88564)"/>
<g clip-path="url(#clip_4)">
<path transform="matrix(1,0,0,-1,0,117.83952)" stroke-width=".5" stroke-linecap="square" stroke-linejoin="round" fill="none" stroke="#dcdcdc" d="M39.95645 29.506922H193.07952"/>
</g>
<path transform="matrix(1,0,0,-1,0,117.83952)" d="M39.95645 29.506922H36.45645"/>
<path transform="matrix(1,0,0,-1,0,117.83952)" stroke-width=".8" stroke-linecap="butt" stroke-linejoin="round" fill="none" stroke="#000000" d="M39.95645 29.506922H36.45645"/>
<use data-text="1" xlink:href="#font_3_51" transform="matrix(6.973848,0,0,-6.973848,13.100263,90.6967)"/>
<use data-text="0" xlink:href="#font_3_50" transform="matrix(6.973848,0,0,-6.973848,17.068383,90.6967)"/>
<use data-text="0" xlink:href="#font_3_50" transform="matrix(6.973848,0,0,-6.973848,21.0365,90.6967)"/>
<use data-text="0" xlink:href="#font_3_50" transform="matrix(6.973848,0,0,-6.973848,25.00462,90.6967)"/>
<use data-text="0" xlink:href="#font_3_50" transform="matrix(6.973848,0,0,-6.973848,28.972739,90.6967)"/>
<g clip-path="url(#clip_5)">
<path transform="matrix(1,0,0,-1,0,117.83952)" stroke-width=".5" stroke-linecap="square" stroke-linejoin="round" fill="none" stroke="#dcdcdc" d="M39.95645 44.69587H193.07952"/>
</g>
<path transform="matrix(1,0,0,-1,0,117.83952)" d="M39.95645 44.69587H36.45645"/>
<path transform="matrix(1,0,0,-1,0,117.83952)" stroke-width=".8" stroke-linecap="butt" stroke-linejoin="round" fill="none" stroke="#000000" d="M39.95645 44.69587H36.45645"/>
<use data-text="2" xlink:href="#font_3_52" transform="matrix(6.973848,0,0,-6.973848,13.100263,75.50775)"/>
<use data-text="0" xlink:href="#font_3_50" transform="matrix(6.973848,0,0,-6.973848,17.068383,75.50775)"/>
<use data-text="0" xlink:href="#font_3_50" transform="matrix(6.973848,0,0,-6.973848,21.0365,75.50775)"/>
<use data-text="0" xlink:href="#font_3_50" transform="matrix(6.973848,0,0,-6.973848,25.00462,75.50775)"/>
<use data-text="0" xlink:href="#font_3_50" transform="matrix(6.973848,0,0,-6.973848,28.972739,75.50775)"/>
<g clip-path="url(#clip_6)">
<path transform="matrix(1,0,0,-1,0,117.83952)" stroke-width=".5" stroke-linecap="square" stroke-linejoin="round" fill="none" stroke="#dcdcdc" d="M39.95645 59.884817H193.07952"/>
</g>
<path transform="matrix(1,0,0,-1,0,117.83952)" d="M39.95645 59.884817H36.45645"/>
<path transform="matrix(1,0,0,-1,0,117.83952)" stroke-width=".8" stroke-linecap="butt" stroke-linejoin="round" fill="none" stroke="#000000" d="M39.95645 59.884817H36.45645"/>
<use data-text="3" xlink:href="#font_3_53" transform="matrix(6.973848,0,0,-6.973848,13.100263,60.318807)"/>
<use data-text="0" xlink:href="#font_3_50" transform="matrix(6.973848,0,0,-6.973848,17.068383,60.318807)"/>
<use data-text="0" xlink:href="#font_3_50" transform="matrix(6.973848,0,0,-6.973848,21.0365,60.318807)"/>
<use data-text="0" xlink:href="#font_3_50" transform="matrix(6.973848,0,0,-6.973848,25.00462,60.318807)"/>
<use data-text="0" xlink:href="#font_3_50" transform="matrix(6.973848,0,0,-6.973848,28.972739,60.318807)"/>
<g clip-path="url(#clip_7)">
<path transform="matrix(1,0,0,-1,0,117.83952)" stroke-width=".5" stroke-linecap="square" stroke-linejoin="round" fill="none" stroke="#dcdcdc" d="M39.95645 75.07376H193.07952"/>
</g>
<path transform="matrix(1,0,0,-1,0,117.83952)" d="M39.95645 75.07376H36.45645"/>
<path transform="matrix(1,0,0,-1,0,117.83952)" stroke-width=".8" stroke-linecap="butt" stroke-linejoin="round" fill="none" stroke="#000000" d="M39.95645 75.07376H36.45645"/>
<use data-text="4" xlink:href="#font_3_54" transform="matrix(6.973848,0,0,-6.973848,13.100263,45.12986)"/>
<use data-text="0" xlink:href="#font_3_50" transform="matrix(6.973848,0,0,-6.973848,17.068383,45.12986)"/>
<use data-text="0" xlink:href="#font_3_50" transform="matrix(6.973848,0,0,-6.973848,21.0365,45.12986)"/>
<use data-text="0" xlink:href="#font_3_50" transform="matrix(6.973848,0,0,-6.973848,25.00462,45.12986)"/>
<use data-text="0" xlink:href="#font_3_50" transform="matrix(6.973848,0,0,-6.973848,28.972739,45.12986)"/>
<g clip-path="url(#clip_8)">
<path transform="matrix(1,0,0,-1,0,117.83952)" stroke-width=".5" stroke-linecap="square" stroke-linejoin="round" fill="none" stroke="#dcdcdc" d="M39.95645 90.26271H193.07952"/>
</g>
<path transform="matrix(1,0,0,-1,0,117.83952)" d="M39.95645 90.26271H36.45645"/>
<path transform="matrix(1,0,0,-1,0,117.83952)" stroke-width=".8" stroke-linecap="butt" stroke-linejoin="round" fill="none" stroke="#000000" d="M39.95645 90.26271H36.45645"/>
<use data-text="5" xlink:href="#font_3_55" transform="matrix(6.973848,0,0,-6.973848,13.100263,29.94091)"/>
<use data-text="0" xlink:href="#font_3_50" transform="matrix(6.973848,0,0,-6.973848,17.068383,29.94091)"/>
<use data-text="0" xlink:href="#font_3_50" transform="matrix(6.973848,0,0,-6.973848,21.0365,29.94091)"/>
<use data-text="0" xlink:href="#font_3_50" transform="matrix(6.973848,0,0,-6.973848,25.00462,29.94091)"/>
<use data-text="0" xlink:href="#font_3_50" transform="matrix(6.973848,0,0,-6.973848,28.972739,29.94091)"/>
<use data-text="C" xlink:href="#font_1_135" transform="matrix(0,-8.966376,-8.966376,-0,7.1591169,87.3596)"/>
<use data-text="o" xlink:href="#font_1_180" transform="matrix(0,-8.966376,-8.966376,-0,7.1591169,81.387989)"/>
<use data-text="n" xlink:href="#font_1_179" transform="matrix(0,-8.966376,-8.966376,-0,7.1591169,76.9048)"/>
<use data-text="t" xlink:href="#font_1_185" transform="matrix(0,-8.966376,-8.966376,-0,7.1591169,72.421619)"/>
<use data-text="r" xlink:href="#font_1_183" transform="matrix(0,-8.966376,-8.966376,-0,7.1591169,69.93793)"/>
<use data-text="o" xlink:href="#font_1_180" transform="matrix(0,-8.966376,-8.966376,-0,7.1591169,66.96109)"/>
<use data-text="l" xlink:href="#font_1_177" transform="matrix(0,-8.966376,-8.966376,-0,7.1591169,62.4779)"/>
<use data-text="s" xlink:href="#font_1_184" transform="matrix(0,-8.966376,-8.966376,-0,7.1591169,57.752626)"/>
<use data-text="t" xlink:href="#font_1_185" transform="matrix(0,-8.966376,-8.966376,-0,7.1591169,54.27367)"/>
<use data-text="e" xlink:href="#font_1_170" transform="matrix(0,-8.966376,-8.966376,-0,7.1591169,51.789987)"/>
<use data-text="p" xlink:href="#font_1_181" transform="matrix(0,-8.966376,-8.966376,-0,7.1591169,47.81788)"/>
<use data-text="s" xlink:href="#font_1_184" transform="matrix(0,-8.966376,-8.966376,-0,7.1591169,43.334695)"/>
<use data-text="/" xlink:href="#font_1_240" transform="matrix(0,-8.966376,-8.966376,-0,7.1591169,37.61415)"/>
<use data-text="s" xlink:href="#font_1_184" transform="matrix(0,-8.966376,-8.966376,-0,7.1591169,32.88887)"/>
<path transform="matrix(1,0,0,-1,0,117.83952)" stroke-width="1.25" stroke-linecap="square" stroke-miterlimit="10" stroke-linejoin="miter" fill="none" stroke="#000000" d="M39.95645 14.317975V104.680408"/>
<path transform="matrix(1,0,0,-1,0,117.83952)" stroke-width="1.25" stroke-linecap="square" stroke-miterlimit="10" stroke-linejoin="miter" fill="none" stroke="#000000" d="M39.95645 14.317975H193.07952"/>
<g clip-path="url(#clip_9)">
<g clip-path="url(#clip_10)">
<path transform="matrix(1,0,0,-1,0,144)" d="M0 0H72V72H0Z" fill="#ffffff"/>
<path transform="matrix(1,0,0,-1,0,144)" d="M-36 36 36 108M-32 32 40 104M-28 28 44 100M-24 24 48 96M-20 20 52 92M-16 16 56 88M-12 12 60 84M-8 8 64 80M-4 4 68 76M0 0 72 72M4-4 76 68M8-8 80 64M12-12 84 60M16-16 88 56M20-20 92 52M24-24 96 48M28-28 100 44M32-32 104 40M36-36 108 36" fill="#ffffff"/>
<path transform="matrix(1,0,0,-1,0,144)" stroke-width="1" stroke-linecap="butt" stroke-miterlimit="10" stroke-linejoin="miter" fill="none" stroke="#5f4690" d="M-36 36 36 108M-32 32 40 104M-28 28 44 100M-24 24 48 96M-20 20 52 92M-16 16 56 88M-12 12 60 84M-8 8 64 80M-4 4 68 76M0 0 72 72M4-4 76 68M8-8 80 64M12-12 84 60M16-16 88 56M20-20 92 52M24-24 96 48M28-28 100 44M32-32 104 40M36-36 108 36"/>
<path transform="matrix(1,0,0,-1,72,144)" d="M0 0H72V72H0Z" fill="#ffffff"/>
<path transform="matrix(1,0,0,-1,72,144)" d="M-36 36 36 108M-32 32 40 104M-28 28 44 100M-24 24 48 96M-20 20 52 92M-16 16 56 88M-12 12 60 84M-8 8 64 80M-4 4 68 76M0 0 72 72M4-4 76 68M8-8 80 64M12-12 84 60M16-16 88 56M20-20 92 52M24-24 96 48M28-28 100 44M32-32 104 40M36-36 108 36" fill="#ffffff"/>
<path transform="matrix(1,0,0,-1,72,144)" stroke-width="1" stroke-linecap="butt" stroke-miterlimit="10" stroke-linejoin="miter" fill="none" stroke="#5f4690" d="M-36 36 36 108M-32 32 40 104M-28 28 44 100M-24 24 48 96M-20 20 52 92M-16 16 56 88M-12 12 60 84M-8 8 64 80M-4 4 68 76M0 0 72 72M4-4 76 68M8-8 80 64M12-12 84 60M16-16 88 56M20-20 92 52M24-24 96 48M28-28 100 44M32-32 104 40M36-36 108 36"/>
</g>
<path transform="matrix(1,0,0,-1,0,117.83952)" stroke-width="1" stroke-linecap="butt" stroke-miterlimit="10" stroke-linejoin="miter" fill="none" stroke="#5f4690" d="M46.91659 14.317975H100.191738 46.91659Z"/>
</g>
<g clip-path="url(#clip_11)">
<path transform="matrix(1,0,0,-1,0,117.83952)" d="M132.84424 14.317975H186.11939V88.38554H132.84424Z" fill="#1d6996"/>
</g>
<use data-text="4" xlink:href="#font_1_206" transform="matrix(6.973848,0,0,-6.973848,151.63623,26.092514)"/>
<use data-text="8" xlink:href="#font_1_210" transform="matrix(6.973848,0,0,-6.973848,155.12316,26.092514)"/>
<use data-text="." xlink:href="#font_1_222" transform="matrix(6.973848,0,0,-6.973848,158.61008,26.092514)"/>
<use data-text="8" xlink:href="#font_1_210" transform="matrix(6.973848,0,0,-6.973848,160.35355,26.092514)"/>
<use data-text="k" xlink:href="#font_1_176" transform="matrix(6.973848,0,0,-6.973848,163.84047,26.092514)"/>
<use data-text="&#x003e;" xlink:href="#font_12_63" transform="matrix(0,-6.973848,-6.973848,-0,75.16337,99.07749)"/>
<use data-text="1" xlink:href="#font_1_203" transform="matrix(0,-6.973848,-6.973848,-0,75.16337,92.85083)"/>
<use data-text="0" xlink:href="#font_1_212" transform="matrix(0,-6.973848,-6.973848,-0,75.16337,89.36391)"/>
<use data-text="m" xlink:href="#font_1_178" transform="matrix(0,-6.973848,-6.973848,-0,75.16337,84.133518)"/>
<use data-text="i" xlink:href="#font_1_174" transform="matrix(0,-6.973848,-6.973848,-0,75.16337,78.71484)"/>
<use data-text="n" xlink:href="#font_1_179" transform="matrix(0,-6.973848,-6.973848,-0,75.16337,76.78308)"/>
<use data-text="c" xlink:href="#font_1_168" transform="matrix(0,-6.973848,-6.973848,-0,75.16337,71.552707)"/>
<use data-text="o" xlink:href="#font_1_180" transform="matrix(0,-6.973848,-6.973848,-0,75.16337,68.46329)"/>
<use data-text="m" xlink:href="#font_1_178" transform="matrix(0,-6.973848,-6.973848,-0,75.16337,64.976367)"/>
<use data-text="p" xlink:href="#font_1_181" transform="matrix(0,-6.973848,-6.973848,-0,75.16337,59.557683)"/>
<use data-text="i" xlink:href="#font_1_174" transform="matrix(0,-6.973848,-6.973848,-0,75.16337,56.07076)"/>
<use data-text="l" xlink:href="#font_1_177" transform="matrix(0,-6.973848,-6.973848,-0,75.16337,54.139005)"/>
<use data-text="e" xlink:href="#font_1_170" transform="matrix(0,-6.973848,-6.973848,-0,75.16337,52.207246)"/>
<use data-text="P" xlink:href="#font_1_148" transform="matrix(8.966376,0,0,-8.966376,57.667654,7.1591188)"/>
<use data-text="u" xlink:href="#font_1_186" transform="matrix(8.966376,0,0,-8.966376,62.64399,7.1591188)"/>
<use data-text="z" xlink:href="#font_1_191" transform="matrix(8.966376,0,0,-8.966376,67.127178,7.1591188)"/>
<use data-text="z" xlink:href="#font_1_191" transform="matrix(8.966376,0,0,-8.966376,71.09928,7.1591188)"/>
<use data-text="l" xlink:href="#font_1_177" transform="matrix(8.966376,0,0,-8.966376,75.07139,7.1591188)"/>
<use data-text="e" xlink:href="#font_1_170" transform="matrix(8.966376,0,0,-8.966376,77.55508,7.1591188)"/>
<use data-text="M" xlink:href="#font_1_145" transform="matrix(8.966376,0,0,-8.966376,83.768779,7.1591188)"/>
<use data-text="J" xlink:href="#font_1_142" transform="matrix(8.966376,0,0,-8.966376,91.73092,7.1591188)"/>
<use data-text="X" xlink:href="#font_1_156" transform="matrix(8.966376,0,0,-8.966376,95.20987,7.1591188)"/>
<use data-text="b" xlink:href="#font_1_167" transform="matrix(8.966376,0,0,-8.966376,103.91622,7.1591188)"/>
<use data-text="a" xlink:href="#font_1_166" transform="matrix(8.966376,0,0,-8.966376,108.39941,7.1591188)"/>
<use data-text="c" xlink:href="#font_1_168" transform="matrix(8.966376,0,0,-8.966376,112.37151,7.1591188)"/>
<use data-text="k" xlink:href="#font_1_176" transform="matrix(8.966376,0,0,-8.966376,116.34362,7.1591188)"/>
<use data-text="e" xlink:href="#font_1_170" transform="matrix(8.966376,0,0,-8.966376,120.826808,7.1591188)"/>
<use data-text="n" xlink:href="#font_1_179" transform="matrix(8.966376,0,0,-8.966376,124.79891,7.1591188)"/>
<use data-text="d" xlink:href="#font_1_169" transform="matrix(8.966376,0,0,-8.966376,129.2821,7.1591188)"/>
<use data-text="t" xlink:href="#font_1_185" transform="matrix(8.966376,0,0,-8.966376,135.91722,7.1591188)"/>
<use data-text="h" xlink:href="#font_1_173" transform="matrix(8.966376,0,0,-8.966376,138.40091,7.1591188)"/>
<use data-text="r" xlink:href="#font_1_183" transform="matrix(8.966376,0,0,-8.966376,142.8841,7.1591188)"/>
<use data-text="o" xlink:href="#font_1_180" transform="matrix(8.966376,0,0,-8.966376,145.86093,7.1591188)"/>
<use data-text="u" xlink:href="#font_1_186" transform="matrix(8.966376,0,0,-8.966376,150.34412,7.1591188)"/>
<use data-text="g" xlink:href="#font_1_172" transform="matrix(8.966376,0,0,-8.966376,154.8273,7.1591188)"/>
<use data-text="h" xlink:href="#font_1_173" transform="matrix(8.966376,0,0,-8.966376,159.31049,7.1591188)"/>
<use data-text="p" xlink:href="#font_1_181" transform="matrix(8.966376,0,0,-8.966376,163.79367,7.1591188)"/>
<use data-text="u" xlink:href="#font_1_186" transform="matrix(8.966376,0,0,-8.966376,168.27686,7.1591188)"/>
<use data-text="t" xlink:href="#font_1_185" transform="matrix(8.966376,0,0,-8.966376,172.76004,7.1591188)"/>
</svg>
