<svg width="600" height="400" xmlns="http://www.w3.org/2000/svg">
  <defs>
    <linearGradient id="robotGradient" x1="0%" y1="0%" x2="100%" y2="100%">
      <stop offset="0%" style="stop-color:#00c853;stop-opacity:1" />
      <stop offset="100%" style="stop-color:#009624;stop-opacity:1" />
    </linearGradient>
    <filter id="shadow" x="-20%" y="-20%" width="140%" height="140%">
      <feGaussianBlur in="SourceAlpha" stdDeviation="3" />
      <feOffset dx="2" dy="2" result="offsetblur" />
      <feFlood flood-color="rgba(0,0,0,0.5)" />
      <feComposite in2="offsetblur" operator="in" />
      <feMerge>
        <feMergeNode />
        <feMergeNode in="SourceGraphic" />
      </feMerge>
    </filter>
  </defs>

  <!-- Clinical bed (moved closer to robot) -->
  <rect x="130" y="320" width="200" height="15" fill="#34495e" filter="url(#shadow)" />
  <rect x="130" y="240" width="200" height="80" fill="#ecf0f1" stroke="#bdc3c7" stroke-width="2" filter="url(#shadow)" />
  <rect x="130" y="335" width="15" height="65" fill="#34495e" filter="url(#shadow)" />
  <rect x="315" y="335" width="15" height="65" fill="#34495e" filter="url(#shadow)" />
  <!-- Headrest -->
  <rect x="130" y="225" width="200" height="15" fill="#bdc3c7" filter="url(#shadow)" />
  <!-- Pillow -->
  <rect x="150" y="245" width="60" height="20" fill="#e0e0e0" rx="5" ry="5" filter="url(#shadow)" />

  <!-- Surgical Robot -->
  <!-- Base -->
  <rect x="400" y="350" width="100" height="50" fill="url(#robotGradient)" filter="url(#shadow)" />

  <!-- Main column -->
  <rect x="425" y="150" width="50" height="200" fill="url(#robotGradient)" filter="url(#shadow)" />

  <!-- Arm with rounded corners -->
  <path d="M450 150 Q400 120 350 100 Q325 125 300 150" 
        stroke="url(#robotGradient)" stroke-width="20" fill="none" filter="url(#shadow)" />

  <!-- Joints -->
  <circle cx="450" cy="150" r="12" fill="#ffffff" stroke="#009624" stroke-width="2" filter="url(#shadow)" />
  <circle cx="350" cy="100" r="12" fill="#ffffff" stroke="#009624" stroke-width="2" filter="url(#shadow)" />
  <circle cx="300" cy="150" r="12" fill="#ffffff" stroke="#009624" stroke-width="2" filter="url(#shadow)" />

  <!-- Surgical tool -->
  <path d="M300 150 L280 170 L290 180 L300 170 Z" fill="#34495e" filter="url(#shadow)" />

  <!-- Flask representations -->
  <path d="M500 300 L520 300 L530 330 L490 330 Z" fill="#f44336" stroke="#d32f2f" stroke-width="2" filter="url(#shadow)" />
  <ellipse cx="510" cy="300" rx="10" ry="3" fill="#d32f2f" />
  <path d="M540 310 L560 310 L565 330 L535 330 Z" fill="#2196f3" stroke="#1976d2" stroke-width="2" filter="url(#shadow)" />
  <ellipse cx="550" cy="310" rx="10" ry="3" fill="#1976d2" />

  <!-- Highlights -->
  <circle cx="455" cy="155" r="3" fill="#ffffff" opacity="0.6" />
  <circle cx="355" cy="105" r="3" fill="#ffffff" opacity="0.6" />
  <circle cx="305" cy="155" r="3" fill="#ffffff" opacity="0.6" />
</svg>