<svg width="595" height="591" viewBox="0 0 595 591" fill="none" xmlns="http://www.w3.org/2000/svg">
    <path d="M404.722 2.89645C373.667 2.89645 343.174 1.94319 312.396 6.38891C295.5 8.82942 227.666 55.7228 221 61C202.174 75.9041 194.244 96.6186 172.429 107.133C117.537 133.59 57.1337 155.323 20.9103 207.071C5.36617 229.277 2.9071 259.762 2.10475 285.875C1.51759 304.984 3.36278 323.547 8.55236 341.933C14.5389 363.143 26.1394 382.885 36.0442 402.469C51.5364 433.101 70.8655 462.045 91.1176 489.691C116.39 524.19 151.316 552.588 189.802 571.54C223.118 587.946 256.649 589.706 293.59 588.286C319.468 587.29 341.243 582.568 361.559 566.077C371.706 557.84 384.119 545.118 388.245 532.138C396.386 506.523 385.304 473.62 379.827 448.677C374.826 425.897 367.976 402.674 365.857 379.365C365.279 373.005 365.529 366.501 368.902 360.918C380.443 341.815 409.549 331.124 428.005 321.247C458.339 305.014 491.548 288.512 517.555 265.636C539.685 246.172 551.749 224.369 564.479 197.937C579.167 167.44 587.164 132.152 592.509 98.8942C594.534 86.2914 592.409 73.3842 591.792 60.7458C591.236 49.3415 588.191 38.6435 582.748 28.5078C573.041 10.4335 541.705 7.97442 524.182 5.40386C485.237 -0.30939 443.867 2.89645 404.722 2.89645Z" fill="#FB923C" fill-opacity="0.2" stroke="black" stroke-width="3" stroke-linecap="round"/>
    <path d="M111 211C138.89 168.87 193.5 185 230 193.5C247.5 196.5 268.507 214.561 286.761 218.859C297.847 221.47 309.704 224.6 317.218 236.338C331.412 258.512 329.043 297.292 329.525 324.366C329.85 342.655 334 360.365 334 379.184C334 403.835 330.187 416.102 321.693 437.817C314.907 455.165 309.381 477.659 292.728 481.354C261.557 488.27 130.013 438.172 118.691 402.224C109.573 373.276 108 351.83 108 321.188C108 304.088 104.616 288.26 107 271.5C109.9 259.341 104.484 220.844 111 211Z" fill="#FB923C" fill-opacity="0.5"/>
    <path d="M132.5 220C155.083 182.82 201.5 203.5 229.5 214.5C242 220 259.968 232.981 274.749 236.774C283.726 239.078 293.327 241.84 299.411 252.199C310.904 271.768 308.986 305.992 309.376 329.885C309.64 346.026 313 361.655 313 378.264C313 400.018 309.913 410.844 303.035 430.007C297.54 445.317 293.065 465.169 279.581 468.43C254.34 474.533 147.825 430.321 138.657 398.597C131.274 373.049 130 354.123 130 327.081C130 311.99 126.07 294.791 128 280C129.452 268.875 127.223 228.687 132.5 220Z" fill="#FB923C" fill-opacity="0.8" stroke="black" stroke-width="3" stroke-linecap="round"/>
    <circle cx="186" cy="257" r="4" fill="#36C2F6"/>
    <circle cx="146" cy="170" r="4" fill="#36C2F6"/>
    <circle cx="156.162" cy="222.287" r="1.25" transform="rotate(-57.2236 156.162 222.287)" fill="#D23638"/>
    <circle cx="163.728" cy="228.728" r="1.25" transform="rotate(-57.2236 163.728 228.728)" fill="#D23638"/>
    <circle cx="174.314" cy="212.566" r="1.25" transform="rotate(-57.2236 174.314 212.566)" fill="#D23638"/>
    <circle cx="147.728" cy="232.728" r="1.25" transform="rotate(-57.2236 147.728 232.728)" fill="#D23638"/>
    <circle cx="141.728" cy="225.728" r="1.25" transform="rotate(-57.2236 141.728 225.728)" fill="#D23638"/>
    <circle cx="161.276" cy="212.497" r="1.25" transform="rotate(-57.2236 161.276 212.497)" fill="#D23638"/>
    <path d="M170.126 203.537C170.706 203.91 170.874 204.684 170.5 205.264C170.126 205.845 169.353 206.012 168.772 205.639C168.192 205.265 168.024 204.491 168.398 203.911C168.772 203.331 169.545 203.163 170.126 203.537Z" fill="#D23638"/>
    <circle cx="167.645" cy="211.84" r="1.25" transform="rotate(-57.2236 167.645 211.84)" fill="#D23638"/>
    <path d="M147.181 211.333C147.762 211.707 147.929 212.48 147.556 213.06C147.182 213.641 146.409 213.808 145.828 213.435C145.248 213.061 145.08 212.288 145.454 211.707C145.828 211.127 146.601 210.959 147.181 211.333Z" fill="#D23638"/>
    <circle cx="175.728" cy="226.728" r="1.25" transform="rotate(-57.2236 175.728 226.728)" fill="#D23638"/>
    <circle cx="156.728" cy="240.307" r="1.25" transform="rotate(-57.2236 156.728 240.307)" fill="#D23638"/>
    <path d="M155.226 207.115C155.807 207.489 155.974 208.262 155.6 208.843C155.227 209.423 154.453 209.591 153.873 209.217C153.292 208.843 153.125 208.07 153.499 207.489C153.872 206.909 154.646 206.741 155.226 207.115Z" fill="#D23638"/>
    <circle cx="150.728" cy="220.728" r="1.25" transform="rotate(-57.2236 150.728 220.728)" fill="#D23638"/>
    <path d="M181.404 215.677C181.985 216.05 182.152 216.824 181.779 217.404C181.405 217.985 180.631 218.152 180.051 217.779C179.471 217.405 179.303 216.631 179.677 216.051C180.05 215.47 180.824 215.303 181.404 215.677Z" fill="#D23638"/>
    <circle cx="168.728" cy="218.728" r="1.25" transform="rotate(-57.2236 168.728 218.728)" fill="#D23638"/>
    <circle cx="142.728" cy="216.307" r="1.25" transform="rotate(-57.2236 142.728 216.307)" fill="#D23638"/>
    <circle cx="177.728" cy="204.307" r="1.25" transform="rotate(-57.2236 177.728 204.307)" fill="#D23638"/>
    <circle cx="161.728" cy="206.307" r="1.25" transform="rotate(-57.2236 161.728 206.307)" fill="#D23638"/>
    <circle cx="154.728" cy="215.728" r="1.25" transform="rotate(-57.2236 154.728 215.728)" fill="#D23638"/>
    <circle cx="161.728" cy="218.728" r="1.25" transform="rotate(-57.2236 161.728 218.728)" fill="#D23638"/>
    <circle cx="170.728" cy="238.728" r="1.25" transform="rotate(-57.2236 170.728 238.728)" fill="#D23638"/>
</svg>