<svg width="595" height="591" viewBox="0 0 595 591" fill="none" xmlns="http://www.w3.org/2000/svg">
    <path d="M404.722 2.89645C373.667 2.89645 343.174 1.94319 312.396 6.38891C295.5 8.82942 227.666 55.7228 221 61C202.174 75.9041 194.244 96.6186 172.429 107.133C117.537 133.59 57.1337 155.323 20.9103 207.071C5.36617 229.277 2.9071 259.762 2.10475 285.875C1.51759 304.984 3.36278 323.547 8.55236 341.933C14.5389 363.143 26.1394 382.885 36.0442 402.469C51.5364 433.101 70.8655 462.045 91.1176 489.691C116.39 524.19 151.316 552.588 189.802 571.54C223.118 587.946 256.649 589.706 293.59 588.286C319.468 587.29 341.243 582.568 361.559 566.077C371.706 557.84 384.119 545.118 388.245 532.138C396.386 506.523 385.304 473.62 379.827 448.677C374.826 425.897 367.976 402.674 365.857 379.365C365.279 373.005 365.529 366.501 368.902 360.918C380.443 341.815 409.549 331.124 428.005 321.247C458.339 305.014 491.548 288.512 517.555 265.636C539.685 246.172 551.749 224.369 564.479 197.937C579.167 167.44 587.164 132.152 592.509 98.8942C594.534 86.2914 592.409 73.3842 591.792 60.7458C591.236 49.3415 588.191 38.6435 582.748 28.5078C573.041 10.4335 541.705 7.97442 524.182 5.40386C485.237 -0.30939 443.867 2.89645 404.722 2.89645Z" fill="#FB923C" fill-opacity="0.2" stroke="black" stroke-width="3" stroke-linecap="round"/>
    <path d="M124.907 227.599C152.796 185.469 197.735 201.206 235.402 205.142C253.354 209.731 268.507 214.561 286.761 218.859C297.847 221.47 309.704 224.6 317.218 236.338C331.412 258.512 329.043 297.292 329.525 324.366C329.85 342.655 334 360.365 334 379.184C334 403.835 330.187 416.102 321.693 437.817C314.907 455.165 309.381 477.659 292.728 481.354C261.557 488.27 130.013 438.171 118.691 402.224C109.573 373.276 108 351.83 108 321.188C108 304.088 110.215 287.419 112.6 270.659C114.393 258.054 118.39 237.442 124.907 227.599Z" fill="#FB923C" fill-opacity="0.5"/>
    <path d="M143.69 244.487C166.273 207.307 199.131 218.165 231.337 224.574C245.873 228.624 259.968 232.981 274.749 236.774C283.726 239.078 293.327 241.84 299.411 252.199C310.904 271.768 308.986 305.992 309.376 329.885C309.64 346.026 313 361.655 313 378.264C313 400.018 309.913 410.844 303.035 430.008C297.54 445.317 293.065 465.169 279.581 468.43C254.34 474.533 147.825 430.321 138.657 398.597C131.274 373.049 130 354.123 130 327.081C130 311.99 131.794 297.279 133.724 282.488C135.176 271.364 138.413 253.174 143.69 244.487Z" fill="#FB923C" fill-opacity="0.8" stroke="black" stroke-width="3" stroke-linecap="round"/>
    <circle cx="186" cy="257" r="4" fill="#36C2F6"/>
    <circle cx="146" cy="170" r="4" fill="#36C2F6"/>
    <path d="M148.791 176.886L147.675 188.379L158.186 183.598L148.791 176.886ZM182.91 249.487L180.834 244.923L179.014 245.751L181.09 250.315L182.91 249.487ZM176.683 235.796L172.532 226.669L170.712 227.497L174.863 236.624L176.683 235.796ZM168.381 217.542L164.23 208.416L162.409 209.244L166.561 218.371L168.381 217.542ZM160.079 199.289L155.928 190.162L154.107 190.99L158.258 200.117L160.079 199.289ZM148.791 176.886L147.675 188.379L158.186 183.598L148.791 176.886ZM182.91 249.487L180.834 244.923L179.014 245.751L181.09 250.315L182.91 249.487ZM176.683 235.796L172.532 226.669L170.712 227.497L174.863 236.624L176.683 235.796ZM168.381 217.542L164.23 208.416L162.409 209.244L166.561 218.371L168.381 217.542ZM160.079 199.289L155.928 190.162L154.107 190.99L158.258 200.117L160.079 199.289Z" fill="black"/>
    <ellipse cx="170.185" cy="242.092" rx="1.22168" ry="1.1766" transform="rotate(-57.2236 170.185 242.092)" fill="#D23638"/>
    <ellipse cx="187.61" cy="242.849" rx="1.22168" ry="1.1766" transform="rotate(-57.2236 187.61 242.849)" fill="#D23638"/>
    <ellipse cx="187.623" cy="232.396" rx="1.22168" ry="1.1766" transform="rotate(-57.2236 187.623 232.396)" fill="#D23638"/>
    <ellipse cx="174.399" cy="249.771" rx="1.22168" ry="1.1766" transform="rotate(-57.2236 174.399 249.771)" fill="#D23638"/>
    <ellipse cx="159.269" cy="244.233" rx="1.22168" ry="1.1766" transform="rotate(-57.2236 159.269 244.233)" fill="#D23638"/>
    <ellipse cx="175.214" cy="232.543" rx="1.22168" ry="1.1766" transform="rotate(-57.2236 175.214 232.543)" fill="#D23638"/>
    <ellipse cx="183.937" cy="224.211" rx="1.22168" ry="1.1766" transform="rotate(-57.2236 183.937 224.211)" fill="#D23638"/>
    <ellipse cx="181.287" cy="231.804" rx="1.22168" ry="1.1766" transform="rotate(-57.2236 181.287 231.804)" fill="#D23638"/>
    <path d="M161.817 231.649C162.363 232.001 162.51 232.746 162.145 233.313C161.78 233.88 161.041 234.055 160.494 233.703C159.948 233.352 159.801 232.607 160.166 232.039C160.532 231.472 161.271 231.297 161.817 231.649Z" fill="#D23638"/>
    <ellipse cx="187.413" cy="267.91" rx="1.22168" ry="1.1766" transform="rotate(-57.2236 187.413 267.91)" fill="#D23638"/>
    <ellipse cx="170.428" cy="259.504" rx="1.22168" ry="1.1766" transform="rotate(-57.2236 170.428 259.504)" fill="#D23638"/>
    <path d="M169.544 227.439C170.09 227.791 170.237 228.536 169.872 229.103C169.506 229.671 168.767 229.845 168.221 229.494C167.675 229.142 167.528 228.397 167.893 227.829C168.258 227.262 168.997 227.087 169.544 227.439Z" fill="#D23638"/>
    <ellipse cx="163.835" cy="251.953" rx="1.22168" ry="1.1766" transform="rotate(-57.2236 163.835 251.953)" fill="#D23638"/>
    <path d="M194.79 248.062C195.336 248.414 195.483 249.159 195.118 249.726C194.753 250.293 194.014 250.468 193.467 250.116C192.921 249.764 192.774 249.019 193.139 248.452C193.505 247.885 194.244 247.71 194.79 248.062Z" fill="#D23638"/>
    <ellipse cx="195.275" cy="236.16" rx="1.22168" ry="1.1766" transform="rotate(-57.2236 195.275 236.16)" fill="#D23638"/>
    <ellipse cx="157.496" cy="236.531" rx="1.22168" ry="1.1766" transform="rotate(-57.2236 157.496 236.531)" fill="#D23638"/>
    <ellipse cx="191.007" cy="224.356" rx="1.22168" ry="1.1766" transform="rotate(-57.2236 191.007 224.356)" fill="#D23638"/>
    <ellipse cx="175.745" cy="226.552" rx="1.22168" ry="1.1766" transform="rotate(-57.2236 175.745 226.552)" fill="#D23638"/>
    <ellipse cx="165.094" cy="237.367" rx="1.22168" ry="1.1766" transform="rotate(-57.2236 165.094 237.367)" fill="#D23638"/>
    <ellipse cx="182.599" cy="238.46" rx="1.22168" ry="1.1766" transform="rotate(-57.2236 182.599 238.46)" fill="#D23638"/>
    <ellipse cx="199.026" cy="256.518" rx="1.22168" ry="1.1766" transform="rotate(-57.2236 199.026 256.518)" fill="#D23638"/>
</svg>