<svg width="595" height="591" viewBox="0 0 595 591" fill="none" xmlns="http://www.w3.org/2000/svg">
    <path d="M404.722 2.89645C373.667 2.89645 343.174 1.94319 312.396 6.38891C295.5 8.82942 227.666 55.7228 221 61C202.174 75.9041 194.244 96.6186 172.429 107.133C117.537 133.59 57.1337 155.323 20.9103 207.071C5.36617 229.277 2.9071 259.762 2.10475 285.875C1.51759 304.984 3.36278 323.547 8.55236 341.933C14.5389 363.143 26.1394 382.885 36.0442 402.469C51.5364 433.101 70.8655 462.045 91.1176 489.691C116.39 524.19 151.316 552.588 189.802 571.54C223.118 587.946 256.649 589.706 293.59 588.286C319.468 587.29 341.243 582.568 361.559 566.077C371.706 557.84 384.119 545.118 388.245 532.138C396.386 506.523 385.304 473.62 379.827 448.677C374.826 425.897 367.976 402.674 365.857 379.365C365.279 373.005 365.529 366.501 368.902 360.918C380.443 341.815 409.549 331.124 428.005 321.247C458.339 305.014 491.548 288.512 517.555 265.636C539.685 246.172 551.749 224.369 564.479 197.937C579.167 167.44 587.164 132.152 592.509 98.8942C594.534 86.2914 592.409 73.3842 591.792 60.7458C591.236 49.3415 588.191 38.6435 582.748 28.5078C573.041 10.4335 541.705 7.97442 524.182 5.40386C485.237 -0.30939 443.867 2.89645 404.722 2.89645Z" fill="#FB923C" fill-opacity="0.2" stroke="black" stroke-width="3" stroke-linecap="round"/>
    <path d="M92 172.5C119.89 130.37 203.5 161 240 169.5C257.5 172.5 268.507 214.561 286.761 218.859C297.847 221.469 309.704 224.599 317.218 236.337C331.412 258.512 329.043 297.291 329.525 324.365C329.85 342.655 334 360.364 334 379.184C334 403.834 330.187 416.101 321.693 437.816C314.907 455.164 309.381 477.658 292.728 481.353C261.557 488.27 130.013 438.171 118.691 402.224C109.573 373.275 108 351.829 108 321.187C106.533 302.915 103.155 290.081 98.3312 271.758L98 270.5C98 256.5 85.4837 182.343 92 172.5Z" fill="#FB923C" fill-opacity="0.5"/>
    <path d="M116.5 172C139.083 134.82 201 183 229 194C241.5 199.5 248.5 220.5 263 228.5C271 234 293.327 241.84 299.411 252.199C310.904 271.769 308.986 305.992 309.376 329.885C309.64 346.026 313 361.655 313 378.264C313 400.018 309.913 410.844 303.035 430.008C297.54 445.318 293.065 465.169 279.581 468.43C254.34 474.533 147.825 430.321 138.657 398.597C131.274 373.049 130 354.123 130 327.081C130 311.99 126.07 294.791 128 280C129.452 268.875 111.223 180.687 116.5 172Z" fill="#FB923C" fill-opacity="0.8" stroke="black" stroke-width="3" stroke-linecap="round"/>
    <circle cx="186" cy="257" r="4" fill="#36C2F6"/>
    <circle cx="146" cy="170" r="4" fill="#36C2F6"/>
</svg>