<?xml version="1.0" encoding="utf-8" standalone="no"?>
<!DOCTYPE svg PUBLIC "-//W3C//DTD SVG 1.1//EN"
  "http://www.w3.org/Graphics/SVG/1.1/DTD/svg11.dtd">
<svg xmlns:xlink="http://www.w3.org/1999/xlink" width="194.16219pt" height="142.1559pt" viewBox="0 0 194.16219 142.1559" xmlns="http://www.w3.org/2000/svg" version="1.1">
 <metadata>
  <rdf:RDF xmlns:dc="http://purl.org/dc/elements/1.1/" xmlns:cc="http://creativecommons.org/ns#" xmlns:rdf="http://www.w3.org/1999/02/22-rdf-syntax-ns#">
   <cc:Work>
    <dc:type rdf:resource="http://purl.org/dc/dcmitype/StillImage"/>
    <dc:date>2025-02-19T13:19:45.823957</dc:date>
    <dc:format>image/svg+xml</dc:format>
    <dc:creator>
     <cc:Agent>
      <dc:title>Matplotlib v3.8.4, https://matplotlib.org/</dc:title>
     </cc:Agent>
    </dc:creator>
   </cc:Work>
  </rdf:RDF>
 </metadata>
 <defs>
  <style type="text/css">*{stroke-linejoin: round; stroke-linecap: butt}</style>
 </defs>
 <g id="figure_1">
  <g id="patch_1">
   <path d="M -0 142.1559 
L 194.16219 142.1559 
L 194.16219 0 
L -0 0 
z
" style="fill: #ffffff"/>
  </g>
  <g id="axes_1">
   <g id="patch_2">
    <path d="M 39.954344 57.371781 
L 192.053304 57.371781 
L 192.053304 13.42638 
L 39.954344 13.42638 
z
" style="fill: #ffffff"/>
   </g>
   <g id="matplotlib.axis_1">
    <g id="xtick_1">
     <g id="line2d_1">
      <defs>
       <path id="mbbfa53557b" d="M 0 0 
L 0 6 
" style="stroke: #262626; stroke-width: 1.25"/>
      </defs>
      <g>
       <use xlink:href="#mbbfa53557b" x="46.867933" y="57.371781" style="fill: #262626; stroke: #262626; stroke-width: 1.25"/>
      </g>
     </g>
    </g>
    <g id="xtick_2">
     <g id="line2d_2">
      <g>
       <use xlink:href="#mbbfa53557b" x="74.522289" y="57.371781" style="fill: #262626; stroke: #262626; stroke-width: 1.25"/>
      </g>
     </g>
    </g>
    <g id="xtick_3">
     <g id="line2d_3">
      <g>
       <use xlink:href="#mbbfa53557b" x="102.176646" y="57.371781" style="fill: #262626; stroke: #262626; stroke-width: 1.25"/>
      </g>
     </g>
    </g>
    <g id="xtick_4">
     <g id="line2d_4">
      <g>
       <use xlink:href="#mbbfa53557b" x="129.831002" y="57.371781" style="fill: #262626; stroke: #262626; stroke-width: 1.25"/>
      </g>
     </g>
    </g>
    <g id="xtick_5">
     <g id="line2d_5">
      <g>
       <use xlink:href="#mbbfa53557b" x="157.485358" y="57.371781" style="fill: #262626; stroke: #262626; stroke-width: 1.25"/>
      </g>
     </g>
    </g>
    <g id="xtick_6">
     <g id="line2d_6">
      <g>
       <use xlink:href="#mbbfa53557b" x="185.139715" y="57.371781" style="fill: #262626; stroke: #262626; stroke-width: 1.25"/>
      </g>
     </g>
    </g>
   </g>
   <g id="matplotlib.axis_2">
    <g id="ytick_1">
     <g id="line2d_7">
      <path d="M 39.954344 51.028835 
L 192.053304 51.028835 
" clip-path="url(#p83d10b9fbe)" style="fill: none; stroke: #dcdcdc; stroke-width: 0.5; stroke-linecap: round"/>
     </g>
     <g id="line2d_8">
      <defs>
       <path id="m89e9a2ea0c" d="M 0 0 
L -6 0 
" style="stroke: #262626; stroke-width: 1.25"/>
      </defs>
      <g>
       <use xlink:href="#m89e9a2ea0c" x="39.954344" y="51.028835" style="fill: #262626; stroke: #262626; stroke-width: 1.25"/>
      </g>
     </g>
     <g id="text_1">
      <!-- $\mathdefault{500}$ -->
      <g style="fill: #262626" transform="translate(18.540631 53.392933) scale(0.07 -0.07)">
       <defs>
        <path id="CMR17-35" d="M 730 3692 
C 794 3666 1056 3584 1325 3584 
C 1920 3584 2246 3911 2432 4100 
C 2432 4157 2432 4192 2394 4192 
C 2387 4192 2374 4192 2323 4163 
C 2099 4058 1837 3973 1517 3973 
C 1325 3973 1037 3999 723 4139 
C 653 4171 640 4171 634 4171 
C 602 4171 595 4164 595 4037 
L 595 2203 
C 595 2089 595 2057 659 2057 
C 691 2057 704 2070 736 2114 
C 941 2401 1222 2522 1542 2522 
C 1766 2522 2246 2382 2246 1289 
C 2246 1085 2246 715 2054 421 
C 1894 159 1645 25 1370 25 
C 947 25 518 320 403 814 
C 429 807 480 795 506 795 
C 589 795 749 840 749 1038 
C 749 1210 627 1280 506 1280 
C 358 1280 262 1190 262 1011 
C 262 454 704 -128 1382 -128 
C 2042 -128 2669 440 2669 1264 
C 2669 2030 2170 2624 1549 2624 
C 1222 2624 947 2503 730 2274 
L 730 3692 
z
" transform="scale(0.015625)"/>
        <path id="CMR17-30" d="M 2688 2025 
C 2688 2416 2682 3080 2413 3591 
C 2176 4039 1798 4198 1466 4198 
C 1158 4198 768 4058 525 3597 
C 269 3118 243 2524 243 2025 
C 243 1661 250 1106 448 619 
C 723 -39 1216 -128 1466 -128 
C 1760 -128 2208 -7 2470 600 
C 2662 1042 2688 1559 2688 2025 
z
M 1466 -26 
C 1056 -26 813 325 723 812 
C 653 1188 653 1738 653 2096 
C 653 2588 653 2997 736 3387 
C 858 3929 1216 4096 1466 4096 
C 1728 4096 2067 3923 2189 3400 
C 2272 3036 2278 2607 2278 2096 
C 2278 1680 2278 1169 2202 792 
C 2067 95 1690 -26 1466 -26 
z
" transform="scale(0.015625)"/>
       </defs>
       <use xlink:href="#CMR17-35" transform="scale(0.996264)"/>
       <use xlink:href="#CMR17-30" transform="translate(45.690477 0) scale(0.996264)"/>
       <use xlink:href="#CMR17-30" transform="translate(91.380954 0) scale(0.996264)"/>
      </g>
     </g>
    </g>
    <g id="ytick_2">
     <g id="line2d_9">
      <path d="M 39.954344 33.461357 
L 192.053304 33.461357 
" clip-path="url(#p83d10b9fbe)" style="fill: none; stroke: #dcdcdc; stroke-width: 0.5; stroke-linecap: round"/>
     </g>
     <g id="line2d_10">
      <g>
       <use xlink:href="#m89e9a2ea0c" x="39.954344" y="33.461357" style="fill: #262626; stroke: #262626; stroke-width: 1.25"/>
      </g>
     </g>
     <g id="text_2">
      <!-- $\mathdefault{750}$ -->
      <g style="fill: #262626" transform="translate(18.540631 35.825454) scale(0.07 -0.07)">
       <defs>
        <path id="CMR17-37" d="M 2886 3941 
L 2886 4081 
L 1382 4081 
C 634 4081 621 4165 595 4288 
L 480 4288 
L 294 3094 
L 410 3094 
C 429 3215 474 3540 550 3661 
C 589 3712 1062 3712 1171 3712 
L 2579 3712 
L 1869 2661 
C 1395 1954 1069 999 1069 165 
C 1069 89 1069 -128 1299 -128 
C 1530 -128 1530 89 1530 171 
L 1530 465 
C 1530 1508 1709 2196 2003 2636 
L 2886 3941 
z
" transform="scale(0.015625)"/>
       </defs>
       <use xlink:href="#CMR17-37" transform="scale(0.996264)"/>
       <use xlink:href="#CMR17-35" transform="translate(45.690477 0) scale(0.996264)"/>
       <use xlink:href="#CMR17-30" transform="translate(91.380954 0) scale(0.996264)"/>
      </g>
     </g>
    </g>
    <g id="ytick_3">
     <g id="line2d_11">
      <path d="M 39.954344 15.893878 
L 192.053304 15.893878 
" clip-path="url(#p83d10b9fbe)" style="fill: none; stroke: #dcdcdc; stroke-width: 0.5; stroke-linecap: round"/>
     </g>
     <g id="line2d_12">
      <g>
       <use xlink:href="#m89e9a2ea0c" x="39.954344" y="15.893878" style="fill: #262626; stroke: #262626; stroke-width: 1.25"/>
      </g>
     </g>
     <g id="text_3">
      <!-- $\mathdefault{1000}$ -->
      <g style="fill: #262626" transform="translate(14.569393 18.257976) scale(0.07 -0.07)">
       <defs>
        <path id="CMR17-31" d="M 1702 4058 
C 1702 4192 1696 4192 1606 4192 
C 1357 3916 979 3827 621 3827 
C 602 3827 570 3827 563 3808 
C 557 3795 557 3782 557 3648 
C 755 3648 1088 3686 1344 3839 
L 1344 461 
C 1344 236 1331 160 781 160 
L 589 160 
L 589 0 
C 896 0 1216 0 1523 0 
C 1830 0 2150 0 2458 0 
L 2458 160 
L 2266 160 
C 1715 160 1702 230 1702 458 
L 1702 4058 
z
" transform="scale(0.015625)"/>
       </defs>
       <use xlink:href="#CMR17-31" transform="scale(0.996264)"/>
       <use xlink:href="#CMR17-30" transform="translate(45.690477 0) scale(0.996264)"/>
       <use xlink:href="#CMR17-30" transform="translate(91.380954 0) scale(0.996264)"/>
       <use xlink:href="#CMR17-30" transform="translate(137.071431 0) scale(0.996264)"/>
      </g>
     </g>
    </g>
    <g id="text_4">
     <!-- $\hat{J}_r$ -->
     <g style="fill: #262626" transform="translate(8.628247 39.670895) rotate(-90) scale(0.09 -0.09)">
      <defs>
       <path id="CMR17-5e" d="M 1466 4421 
L 678 3555 
L 755 3478 
L 1466 4166 
L 2176 3478 
L 2253 3555 
L 1466 4421 
z
" transform="scale(0.015625)"/>
       <path id="CMMI12-4a" d="M 3418 3912 
C 3469 4103 3482 4167 3795 4167 
C 3898 4167 3962 4167 3962 4282 
C 3962 4352 3904 4352 3878 4352 
C 3770 4352 3648 4352 3533 4352 
L 3181 4352 
C 2912 4352 2630 4352 2362 4352 
C 2304 4352 2227 4352 2227 4237 
C 2227 4173 2278 4173 2278 4167 
L 2438 4167 
C 2950 4167 2950 4116 2950 4020 
C 2950 4013 2950 3969 2925 3868 
L 2189 960 
C 2022 312 1594 0 1286 0 
C 1069 0 762 100 685 431 
C 710 424 742 418 768 418 
C 979 418 1146 603 1146 788 
C 1146 890 1082 1024 890 1024 
C 774 1024 506 961 506 549 
C 506 151 838 -128 1299 -128 
C 1882 -128 2509 311 2662 915 
L 3418 3912 
z
" transform="scale(0.015625)"/>
       <path id="CMMI12-72" d="M 2490 2612 
C 2291 2574 2189 2433 2189 2293 
C 2189 2139 2310 2088 2400 2088 
C 2579 2088 2726 2242 2726 2433 
C 2726 2638 2528 2816 2208 2816 
C 1952 2816 1658 2701 1389 2312 
C 1344 2650 1088 2816 832 2816 
C 582 2816 454 2625 378 2484 
C 269 2254 173 1871 173 1839 
C 173 1814 198 1782 243 1782 
C 294 1782 301 1788 339 1935 
C 435 2318 557 2689 813 2689 
C 966 2689 1011 2580 1011 2395 
C 1011 2254 947 2005 902 1807 
L 723 1118 
C 698 996 627 709 595 594 
C 550 428 480 128 480 96 
C 480 6 550 -64 646 -64 
C 717 -64 838 -19 877 109 
C 896 160 1133 1124 1171 1271 
C 1203 1411 1242 1546 1274 1686 
C 1299 1775 1325 1878 1344 1961 
C 1363 2018 1536 2331 1696 2472 
C 1773 2542 1939 2689 2202 2689 
C 2304 2689 2406 2670 2490 2612 
z
" transform="scale(0.015625)"/>
      </defs>
      <use xlink:href="#CMR17-5e" transform="translate(24.984403 25.189733) scale(0.996264)"/>
      <use xlink:href="#CMMI12-4a" transform="scale(0.996264)"/>
      <use xlink:href="#CMMI12-72" transform="translate(53.917955 -14.943915) scale(0.697382)"/>
     </g>
    </g>
   </g>
   <g id="patch_3">
    <path d="M 48.250651 52.203143 
L 49.633369 54.335955 
L 51.016086 53.658544 
L 52.398804 52.855594 
L 53.781522 52.561925 
L 55.16424 52.045547 
L 56.546958 49.48732 
L 57.929676 51.872659 
L 59.312393 53.462465 
L 60.695111 53.366165 
L 62.077829 51.603382 
L 63.460547 53.005286 
L 64.843265 52.637831 
L 66.225982 52.995518 
L 67.6087 52.338292 
L 68.991418 54.99159 
L 70.374136 54.71479 
L 71.756854 54.194373 
L 73.139572 55.17846 
L 74.522289 55.374263 
L 75.905007 49.952612 
L 77.287725 47.39275 
L 78.670443 48.084963 
L 80.053161 46.497177 
L 81.435878 46.692897 
L 82.818596 46.062542 
L 84.201314 45.720969 
L 85.584032 45.650459 
L 86.96675 45.050722 
L 88.349468 44.834618 
L 89.732185 45.110943 
L 91.114903 44.437576 
L 92.497621 44.292778 
L 93.880339 43.313433 
L 95.263057 43.513942 
L 96.645774 45.189846 
L 98.028492 44.009169 
L 99.41121 42.917227 
L 100.793928 44.310268 
L 102.176646 43.763257 
L 103.559364 42.869362 
L 104.942081 41.645695 
L 106.324799 40.857966 
L 107.707517 41.277322 
L 109.090235 40.751558 
L 110.472953 39.198335 
L 111.85567 37.846825 
L 113.238388 39.143698 
L 114.621106 38.495698 
L 116.003824 38.653611 
L 117.386542 38.858953 
L 118.76926 36.914401 
L 120.151977 37.175625 
L 121.534695 37.067133 
L 122.917413 36.192881 
L 124.300131 35.062175 
L 125.682849 35.014335 
L 127.065566 33.640097 
L 128.448284 33.270385 
L 129.831002 32.752194 
L 131.21372 33.199542 
L 132.596438 33.149372 
L 133.979156 32.55057 
L 135.361873 32.974455 
L 136.744591 33.062197 
L 138.127309 31.74305 
L 139.510027 31.228299 
L 140.892745 32.783234 
L 142.275462 29.847541 
L 143.65818 29.397033 
L 145.040898 30.801331 
L 146.423616 26.50857 
L 147.806334 27.253377 
L 149.189052 29.581441 
L 150.571769 30.961018 
L 151.954487 27.119221 
L 153.337205 25.592848 
L 154.719923 26.693877 
L 156.102641 25.244603 
L 157.485358 26.212954 
L 158.868076 25.301724 
L 160.250794 25.97766 
L 161.633512 27.069815 
L 163.01623 25.152273 
L 164.398948 24.775878 
L 165.781665 24.900623 
L 167.164383 24.940581 
L 168.547101 25.530334 
L 169.929819 24.797786 
L 171.312537 24.855785 
L 172.695254 24.780154 
L 174.077972 23.861457 
L 175.46069 25.528957 
L 176.843408 23.869542 
L 178.226126 23.821344 
L 179.608844 23.369729 
L 180.991561 23.006903 
L 182.374279 24.111521 
L 183.756997 22.938713 
L 185.139715 23.261717 
L 185.139715 16.322257 
L 183.756997 16.040473 
L 182.374279 17.249906 
L 180.991561 15.423898 
L 179.608844 16.734795 
L 178.226126 16.972517 
L 176.843408 16.947491 
L 175.46069 19.110214 
L 174.077972 17.127635 
L 172.695254 18.047642 
L 171.312537 18.060889 
L 169.929819 18.042554 
L 168.547101 18.698618 
L 167.164383 18.304587 
L 165.781665 18.053556 
L 164.398948 18.135501 
L 163.01623 18.230076 
L 161.633512 20.511399 
L 160.250794 19.288073 
L 158.868076 18.497024 
L 157.485358 19.666592 
L 156.102641 18.730835 
L 154.719923 20.07661 
L 153.337205 18.931907 
L 151.954487 20.400761 
L 150.571769 24.549503 
L 149.189052 23.152152 
L 147.806334 20.592859 
L 146.423616 20.06928 
L 145.040898 24.631228 
L 143.65818 23.275195 
L 142.275462 23.952389 
L 140.892745 26.942524 
L 139.510027 25.523225 
L 138.127309 25.949575 
L 136.744591 27.137245 
L 135.361873 27.338108 
L 133.979156 27.027424 
L 132.596438 27.495251 
L 131.21372 27.306773 
L 129.831002 26.805361 
L 128.448284 27.419544 
L 127.065566 27.833792 
L 125.682849 29.328561 
L 124.300131 29.187006 
L 122.917413 30.366933 
L 121.534695 31.559875 
L 120.151977 31.692496 
L 118.76926 31.427855 
L 117.386542 32.848093 
L 116.003824 33.575911 
L 114.621106 32.523938 
L 113.238388 33.667368 
L 111.85567 32.355873 
L 110.472953 34.724123 
L 109.090235 35.558203 
L 107.707517 36.951394 
L 106.324799 36.972829 
L 104.942081 37.543373 
L 103.559364 38.301548 
L 102.176646 39.32788 
L 100.793928 40.502248 
L 99.41121 39.400048 
L 98.028492 40.657571 
L 96.645774 42.263306 
L 95.263057 40.950293 
L 93.880339 40.922142 
L 92.497621 41.693969 
L 91.114903 42.20814 
L 89.732185 42.14493 
L 88.349468 42.619711 
L 86.96675 42.830708 
L 85.584032 43.870514 
L 84.201314 44.361704 
L 82.818596 44.490697 
L 81.435878 45.112815 
L 80.053161 44.738474 
L 78.670443 46.428041 
L 77.287725 46.201811 
L 75.905007 47.854433 
L 74.522289 52.278033 
L 73.139572 51.99192 
L 71.756854 50.015554 
L 70.374136 49.42447 
L 68.991418 49.760979 
L 67.6087 50.32947 
L 66.225982 50.947556 
L 64.843265 49.875166 
L 63.460547 50.518467 
L 62.077829 50.451039 
L 60.695111 51.071702 
L 59.312393 51.126706 
L 57.929676 49.880027 
L 56.546958 47.517626 
L 55.16424 49.256754 
L 53.781522 49.472899 
L 52.398804 49.929349 
L 51.016086 49.993639 
L 49.633369 52.541139 
L 48.250651 51.825591 
z
" clip-path="url(#p83d10b9fbe)" style="fill: #1f77b4; fill-opacity: 0.15"/>
   </g>
   <g id="patch_4">
    <path d="M 48.250651 52.8665 
L 49.633369 51.614293 
L 51.016086 51.903158 
L 52.398804 48.586892 
L 53.781522 46.760138 
L 55.16424 49.998932 
L 56.546958 49.598644 
L 57.929676 49.249935 
L 59.312393 49.944713 
L 60.695111 49.840453 
L 62.077829 49.839586 
L 63.460547 50.92517 
L 64.843265 49.312451 
L 66.225982 50.961483 
L 67.6087 53.925374 
L 68.991418 52.80639 
L 70.374136 51.981961 
L 71.756854 52.777445 
L 73.139572 53.188367 
L 74.522289 53.303211 
L 75.905007 49.813989 
L 77.287725 49.331206 
L 78.670443 48.416334 
L 80.053161 44.947509 
L 81.435878 46.745322 
L 82.818596 45.417437 
L 84.201314 44.277777 
L 85.584032 43.821164 
L 86.96675 42.826538 
L 88.349468 40.445228 
L 89.732185 41.385292 
L 91.114903 40.93971 
L 92.497621 41.169105 
L 93.880339 40.117332 
L 95.263057 40.775372 
L 96.645774 39.578022 
L 98.028492 39.904786 
L 99.41121 37.901687 
L 100.793928 36.598766 
L 102.176646 39.17257 
L 103.559364 36.98145 
L 104.942081 37.498591 
L 106.324799 33.916587 
L 107.707517 34.811632 
L 109.090235 30.044359 
L 110.472953 31.426852 
L 111.85567 31.708754 
L 113.238388 29.528888 
L 114.621106 27.217861 
L 116.003824 27.695052 
L 117.386542 25.696516 
L 118.76926 25.487513 
L 120.151977 24.905257 
L 121.534695 24.104335 
L 122.917413 24.946188 
L 124.300131 25.440581 
L 125.682849 23.549826 
L 127.065566 23.667341 
L 128.448284 22.815611 
L 129.831002 23.148929 
L 131.21372 22.629179 
L 132.596438 22.037113 
L 133.979156 22.623546 
L 135.361873 22.689202 
L 136.744591 22.367073 
L 138.127309 21.684494 
L 139.510027 21.600953 
L 140.892745 21.508701 
L 142.275462 21.077813 
L 143.65818 20.906361 
L 145.040898 21.781656 
L 146.423616 21.010011 
L 147.806334 20.742619 
L 149.189052 22.704005 
L 150.571769 20.79302 
L 151.954487 21.560557 
L 153.337205 21.603816 
L 154.719923 20.805888 
L 156.102641 21.73589 
L 157.485358 21.061912 
L 158.868076 21.128523 
L 160.250794 20.98108 
L 161.633512 21.172141 
L 163.01623 21.653374 
L 164.398948 22.003888 
L 165.781665 20.660411 
L 167.164383 20.98259 
L 168.547101 20.658524 
L 169.929819 20.564609 
L 171.312537 21.728059 
L 172.695254 21.116534 
L 174.077972 20.60552 
L 175.46069 20.291671 
L 176.843408 20.831281 
L 178.226126 20.732181 
L 179.608844 20.896156 
L 180.991561 21.197232 
L 182.374279 20.375018 
L 183.756997 20.688384 
L 185.139715 20.500799 
L 185.139715 19.583586 
L 183.756997 19.666067 
L 182.374279 18.968659 
L 180.991561 19.624237 
L 179.608844 19.934975 
L 178.226126 19.943677 
L 176.843408 19.480044 
L 175.46069 19.808545 
L 174.077972 19.615982 
L 172.695254 19.609339 
L 171.312537 20.842235 
L 169.929819 19.591939 
L 168.547101 20.413142 
L 167.164383 19.47792 
L 165.781665 19.998527 
L 164.398948 20.72442 
L 163.01623 20.880734 
L 161.633512 20.17029 
L 160.250794 19.706567 
L 158.868076 20.359529 
L 157.485358 20.396606 
L 156.102641 20.882459 
L 154.719923 20.145007 
L 153.337205 20.40244 
L 151.954487 20.697297 
L 150.571769 19.615069 
L 149.189052 21.304424 
L 147.806334 19.527494 
L 146.423616 19.649818 
L 145.040898 20.221398 
L 143.65818 19.578355 
L 142.275462 19.972469 
L 140.892745 19.604219 
L 139.510027 20.133756 
L 138.127309 19.502954 
L 136.744591 18.527484 
L 135.361873 20.508482 
L 133.979156 19.687468 
L 132.596438 19.771629 
L 131.21372 19.940203 
L 129.831002 19.160466 
L 128.448284 19.201456 
L 127.065566 19.586056 
L 125.682849 19.806232 
L 124.300131 21.556722 
L 122.917413 20.620662 
L 121.534695 20.11122 
L 120.151977 20.284794 
L 118.76926 20.755879 
L 117.386542 20.85247 
L 116.003824 23.298125 
L 114.621106 22.93416 
L 113.238388 25.627477 
L 111.85567 27.416222 
L 110.472953 26.927516 
L 109.090235 25.236753 
L 107.707517 30.123909 
L 106.324799 28.555297 
L 104.942081 32.151264 
L 103.559364 31.598065 
L 102.176646 34.299109 
L 100.793928 31.247198 
L 99.41121 32.506122 
L 98.028492 34.276124 
L 96.645774 34.638482 
L 95.263057 35.91303 
L 93.880339 36.08203 
L 92.497621 37.268863 
L 91.114903 37.139079 
L 89.732185 38.155475 
L 88.349468 38.573911 
L 86.96675 40.716712 
L 85.584032 41.646477 
L 84.201314 41.433372 
L 82.818596 42.481293 
L 81.435878 43.998421 
L 80.053161 42.143872 
L 78.670443 45.585126 
L 77.287725 46.791571 
L 75.905007 46.991011 
L 74.522289 50.664319 
L 73.139572 49.773577 
L 71.756854 50.817013 
L 70.374136 50.526453 
L 68.991418 51.06848 
L 67.6087 51.464227 
L 66.225982 47.933381 
L 64.843265 46.28371 
L 63.460547 48.465983 
L 62.077829 47.702072 
L 60.695111 48.318782 
L 59.312393 48.839431 
L 57.929676 48.422919 
L 56.546958 47.137443 
L 55.16424 48.485656 
L 53.781522 45.977977 
L 52.398804 47.634917 
L 51.016086 48.952123 
L 49.633369 49.080033 
L 48.250651 51.709787 
z
" clip-path="url(#p83d10b9fbe)" style="fill: #ff7f0e; fill-opacity: 0.15"/>
   </g>
   <g id="patch_5">
    <path d="M 46.867933 57.371781 
L 46.867933 13.42638 
L 57.929676 13.42638 
L 57.929676 57.371781 
z
" clip-path="url(#p83d10b9fbe)" style="fill: #808080; opacity: 0.2"/>
   </g>
   <g id="line2d_13">
    <path d="M 48.250651 52.014367 
L 49.633369 53.438547 
L 51.016086 51.826091 
L 52.398804 51.392471 
L 53.781522 51.017412 
L 55.16424 50.65115 
L 56.546958 48.502473 
L 57.929676 50.876343 
L 59.312393 52.294586 
L 60.695111 52.218934 
L 62.077829 51.02721 
L 63.460547 51.761877 
L 64.843265 51.256498 
L 66.225982 51.971537 
L 67.6087 51.333881 
L 68.991418 52.376284 
L 70.374136 52.06963 
L 71.756854 52.104964 
L 73.139572 53.58519 
L 74.522289 53.826148 
L 75.905007 48.903522 
L 77.287725 46.79728 
L 78.670443 47.256502 
L 80.053161 45.617826 
L 81.435878 45.902856 
L 82.818596 45.27662 
L 84.201314 45.041337 
L 85.584032 44.760487 
L 86.96675 43.940715 
L 88.349468 43.727165 
L 89.732185 43.627937 
L 91.114903 43.322858 
L 92.497621 42.993373 
L 93.880339 42.117787 
L 95.263057 42.232117 
L 96.645774 43.726576 
L 98.028492 42.33337 
L 99.41121 41.158637 
L 100.793928 42.406258 
L 102.176646 41.545569 
L 103.559364 40.585455 
L 104.942081 39.594534 
L 106.324799 38.915398 
L 107.707517 39.114358 
L 109.090235 38.154881 
L 110.472953 36.961229 
L 111.85567 35.101349 
L 113.238388 36.405533 
L 114.621106 35.509818 
L 116.003824 36.114761 
L 117.386542 35.853523 
L 118.76926 34.171128 
L 120.151977 34.434061 
L 121.534695 34.313504 
L 122.917413 33.279907 
L 124.300131 32.12459 
L 125.682849 32.171448 
L 127.065566 30.736945 
L 128.448284 30.344964 
L 129.831002 29.778778 
L 131.21372 30.253157 
L 132.596438 30.322311 
L 133.979156 29.788997 
L 135.361873 30.156282 
L 136.744591 30.099721 
L 138.127309 28.846313 
L 139.510027 28.375762 
L 140.892745 29.862879 
L 142.275462 26.899965 
L 143.65818 26.336114 
L 145.040898 27.716279 
L 146.423616 23.288925 
L 147.806334 23.923118 
L 149.189052 26.366797 
L 150.571769 27.75526 
L 151.954487 23.759991 
L 153.337205 22.262377 
L 154.719923 23.385244 
L 156.102641 21.987719 
L 157.485358 22.939773 
L 158.868076 21.899374 
L 160.250794 22.632866 
L 161.633512 23.790607 
L 163.01623 21.691174 
L 164.398948 21.45569 
L 165.781665 21.477089 
L 167.164383 21.622584 
L 168.547101 22.114476 
L 169.929819 21.42017 
L 171.312537 21.458337 
L 172.695254 21.413898 
L 174.077972 20.494546 
L 175.46069 22.319585 
L 176.843408 20.408517 
L 178.226126 20.39693 
L 179.608844 20.052262 
L 180.991561 19.215401 
L 182.374279 20.680714 
L 183.756997 19.489593 
L 185.139715 19.791987 
" clip-path="url(#p83d10b9fbe)" style="fill: none; stroke: #1f77b4; stroke-linecap: round"/>
   </g>
   <g id="line2d_14">
    <path d="M 48.250651 52.288143 
L 49.633369 50.347163 
L 51.016086 50.42764 
L 52.398804 48.110905 
L 53.781522 46.369058 
L 55.16424 49.242294 
L 56.546958 48.368044 
L 57.929676 48.836427 
L 59.312393 49.392072 
L 60.695111 49.079617 
L 62.077829 48.770829 
L 63.460547 49.695577 
L 64.843265 47.798081 
L 66.225982 49.447432 
L 67.6087 52.694801 
L 68.991418 51.937435 
L 70.374136 51.254207 
L 71.756854 51.797229 
L 73.139572 51.480972 
L 74.522289 51.983765 
L 75.905007 48.4025 
L 77.287725 48.061388 
L 78.670443 47.00073 
L 80.053161 43.54569 
L 81.435878 45.371872 
L 82.818596 43.949365 
L 84.201314 42.855574 
L 85.584032 42.73382 
L 86.96675 41.771625 
L 88.349468 39.509569 
L 89.732185 39.770384 
L 91.114903 39.039394 
L 92.497621 39.218984 
L 93.880339 38.099681 
L 95.263057 38.344201 
L 96.645774 37.108252 
L 98.028492 37.090455 
L 99.41121 35.203905 
L 100.793928 33.922982 
L 102.176646 36.73584 
L 103.559364 34.289758 
L 104.942081 34.824928 
L 106.324799 31.235942 
L 107.707517 32.467771 
L 109.090235 27.640556 
L 110.472953 29.177184 
L 111.85567 29.562488 
L 113.238388 27.578182 
L 114.621106 25.076011 
L 116.003824 25.496589 
L 117.386542 23.274493 
L 118.76926 23.121696 
L 120.151977 22.595025 
L 121.534695 22.107777 
L 122.917413 22.783425 
L 124.300131 23.498652 
L 125.682849 21.678029 
L 127.065566 21.626698 
L 128.448284 21.008533 
L 129.831002 21.154698 
L 131.21372 21.284691 
L 132.596438 20.904371 
L 133.979156 21.155507 
L 135.361873 21.598842 
L 136.744591 20.447279 
L 138.127309 20.593724 
L 139.510027 20.867354 
L 140.892745 20.55646 
L 142.275462 20.525141 
L 143.65818 20.242358 
L 145.040898 21.001527 
L 146.423616 20.329914 
L 147.806334 20.135057 
L 149.189052 22.004214 
L 150.571769 20.204044 
L 151.954487 21.128927 
L 153.337205 21.003128 
L 154.719923 20.475448 
L 156.102641 21.309174 
L 157.485358 20.729259 
L 158.868076 20.744026 
L 160.250794 20.343823 
L 161.633512 20.671215 
L 163.01623 21.267054 
L 164.398948 21.364154 
L 165.781665 20.329469 
L 167.164383 20.230255 
L 168.547101 20.535833 
L 169.929819 20.078274 
L 171.312537 21.285147 
L 172.695254 20.362937 
L 174.077972 20.110751 
L 175.46069 20.050108 
L 176.843408 20.155662 
L 178.226126 20.337929 
L 179.608844 20.415566 
L 180.991561 20.410734 
L 182.374279 19.671838 
L 183.756997 20.177225 
L 185.139715 20.042192 
" clip-path="url(#p83d10b9fbe)" style="fill: none; stroke: #ff7f0e; stroke-linecap: round"/>
   </g>
   <g id="line2d_15">
    <path d="M 74.522289 57.371781 
L 74.522289 13.42638 
" clip-path="url(#p83d10b9fbe)" style="fill: none; stroke-dasharray: 5.55,2.4; stroke-dashoffset: 0; stroke: #000000; stroke-width: 1.5"/>
   </g>
   <g id="patch_6">
    <path d="M 39.954344 57.371781 
L 39.954344 13.42638 
" style="fill: none; stroke: #262626; stroke-width: 1.25; stroke-linejoin: miter; stroke-linecap: square"/>
   </g>
   <g id="patch_7">
    <path d="M 192.053304 57.371781 
L 192.053304 13.42638 
" style="fill: none; stroke: #262626; stroke-width: 1.25; stroke-linejoin: miter; stroke-linecap: square"/>
   </g>
   <g id="patch_8">
    <path d="M 39.954344 57.371781 
L 192.053304 57.371781 
" style="fill: none; stroke: #262626; stroke-width: 1.25; stroke-linejoin: miter; stroke-linecap: square"/>
   </g>
   <g id="patch_9">
    <path d="M 39.954344 13.42638 
L 192.053304 13.42638 
" style="fill: none; stroke: #262626; stroke-width: 1.25; stroke-linejoin: miter; stroke-linecap: square"/>
   </g>
  </g>
  <g id="axes_2">
   <g id="patch_10">
    <path d="M 39.954344 113.317662 
L 192.053304 113.317662 
L 192.053304 69.372261 
L 39.954344 69.372261 
z
" style="fill: #ffffff"/>
   </g>
   <g id="matplotlib.axis_3">
    <g id="xtick_7">
     <g id="line2d_16">
      <g>
       <use xlink:href="#mbbfa53557b" x="46.867933" y="113.317662" style="fill: #262626; stroke: #262626; stroke-width: 1.25"/>
      </g>
     </g>
     <g id="text_5">
      <!-- $\mathdefault{0}$ -->
      <g style="fill: #262626" transform="translate(44.882314 127.545857) scale(0.07 -0.07)">
       <use xlink:href="#CMR17-30" transform="scale(0.996264)"/>
      </g>
     </g>
    </g>
    <g id="xtick_8">
     <g id="line2d_17">
      <g>
       <use xlink:href="#mbbfa53557b" x="74.522289" y="113.317662" style="fill: #262626; stroke: #262626; stroke-width: 1.25"/>
      </g>
     </g>
     <g id="text_6">
      <!-- $\mathdefault{500}$ -->
      <g style="fill: #262626" transform="translate(68.565433 127.545857) scale(0.07 -0.07)">
       <use xlink:href="#CMR17-35" transform="scale(0.996264)"/>
       <use xlink:href="#CMR17-30" transform="translate(45.690477 0) scale(0.996264)"/>
       <use xlink:href="#CMR17-30" transform="translate(91.380954 0) scale(0.996264)"/>
      </g>
     </g>
    </g>
    <g id="xtick_9">
     <g id="line2d_18">
      <g>
       <use xlink:href="#mbbfa53557b" x="102.176646" y="113.317662" style="fill: #262626; stroke: #262626; stroke-width: 1.25"/>
      </g>
     </g>
     <g id="text_7">
      <!-- $\mathdefault{1000}$ -->
      <g style="fill: #262626" transform="translate(94.23417 127.545857) scale(0.07 -0.07)">
       <use xlink:href="#CMR17-31" transform="scale(0.996264)"/>
       <use xlink:href="#CMR17-30" transform="translate(45.690477 0) scale(0.996264)"/>
       <use xlink:href="#CMR17-30" transform="translate(91.380954 0) scale(0.996264)"/>
       <use xlink:href="#CMR17-30" transform="translate(137.071431 0) scale(0.996264)"/>
      </g>
     </g>
    </g>
    <g id="xtick_10">
     <g id="line2d_19">
      <g>
       <use xlink:href="#mbbfa53557b" x="129.831002" y="113.317662" style="fill: #262626; stroke: #262626; stroke-width: 1.25"/>
      </g>
     </g>
     <g id="text_8">
      <!-- $\mathdefault{1500}$ -->
      <g style="fill: #262626" transform="translate(121.888527 127.545857) scale(0.07 -0.07)">
       <use xlink:href="#CMR17-31" transform="scale(0.996264)"/>
       <use xlink:href="#CMR17-35" transform="translate(45.690477 0) scale(0.996264)"/>
       <use xlink:href="#CMR17-30" transform="translate(91.380954 0) scale(0.996264)"/>
       <use xlink:href="#CMR17-30" transform="translate(137.071431 0) scale(0.996264)"/>
      </g>
     </g>
    </g>
    <g id="xtick_11">
     <g id="line2d_20">
      <g>
       <use xlink:href="#mbbfa53557b" x="157.485358" y="113.317662" style="fill: #262626; stroke: #262626; stroke-width: 1.25"/>
      </g>
     </g>
     <g id="text_9">
      <!-- $\mathdefault{2000}$ -->
      <g style="fill: #262626" transform="translate(149.542883 127.545857) scale(0.07 -0.07)">
       <defs>
        <path id="CMR17-32" d="M 2669 989 
L 2554 989 
C 2490 536 2438 459 2413 420 
C 2381 369 1920 369 1830 369 
L 602 369 
C 832 619 1280 1072 1824 1597 
C 2214 1967 2669 2402 2669 3035 
C 2669 3790 2067 4224 1395 4224 
C 691 4224 262 3604 262 3030 
C 262 2780 448 2748 525 2748 
C 589 2748 781 2787 781 3010 
C 781 3207 614 3264 525 3264 
C 486 3264 448 3258 422 3245 
C 544 3790 915 4058 1306 4058 
C 1862 4058 2227 3617 2227 3035 
C 2227 2479 1901 2000 1536 1584 
L 262 146 
L 262 0 
L 2515 0 
L 2669 989 
z
" transform="scale(0.015625)"/>
       </defs>
       <use xlink:href="#CMR17-32" transform="scale(0.996264)"/>
       <use xlink:href="#CMR17-30" transform="translate(45.690477 0) scale(0.996264)"/>
       <use xlink:href="#CMR17-30" transform="translate(91.380954 0) scale(0.996264)"/>
       <use xlink:href="#CMR17-30" transform="translate(137.071431 0) scale(0.996264)"/>
      </g>
     </g>
    </g>
    <g id="xtick_12">
     <g id="line2d_21">
      <g>
       <use xlink:href="#mbbfa53557b" x="185.139715" y="113.317662" style="fill: #262626; stroke: #262626; stroke-width: 1.25"/>
      </g>
     </g>
     <g id="text_10">
      <!-- $\mathdefault{2500}$ -->
      <g style="fill: #262626" transform="translate(177.19724 127.545857) scale(0.07 -0.07)">
       <use xlink:href="#CMR17-32" transform="scale(0.996264)"/>
       <use xlink:href="#CMR17-35" transform="translate(45.690477 0) scale(0.996264)"/>
       <use xlink:href="#CMR17-30" transform="translate(91.380954 0) scale(0.996264)"/>
       <use xlink:href="#CMR17-30" transform="translate(137.071431 0) scale(0.996264)"/>
      </g>
     </g>
    </g>
    <g id="text_11">
     <!-- Episodes -->
     <g style="fill: #262626" transform="translate(99.815218 139.134754) scale(0.09 -0.09)">
      <defs>
       <path id="NimbusRomNo9L-Regu-45" d="M 3821 1078 
L 3642 1078 
C 3322 389 3046 237 2131 237 
L 1958 237 
C 1645 237 1376 269 1331 315 
C 1299 334 1286 404 1286 514 
L 1286 2106 
L 2272 2106 
C 2797 2106 2893 2020 2976 1472 
L 3123 1472 
L 3123 2957 
L 2976 2957 
C 2931 2703 2906 2610 2835 2523 
C 2752 2417 2573 2368 2272 2368 
L 1286 2368 
L 1286 3766 
C 1286 3943 1325 3981 1498 3981 
L 2362 3981 
C 3085 3981 3226 3886 3334 3314 
L 3494 3314 
L 3475 4224 
L 77 4224 
L 77 4102 
C 550 4064 634 3974 634 3525 
L 634 679 
C 634 230 544 134 77 134 
L 77 0 
L 3533 0 
L 3821 1078 
z
" transform="scale(0.015625)"/>
       <path id="NimbusRomNo9L-Regu-70" d="M 58 2516 
C 115 2522 160 2522 218 2522 
C 435 2522 480 2458 480 2155 
L 480 -855 
C 480 -1189 410 -1261 32 -1299 
L 32 -1408 
L 1581 -1408 
L 1581 -1293 
C 1101 -1293 1018 -1222 1018 -816 
L 1018 199 
C 1242 -13 1395 -77 1664 -77 
C 2419 -77 3008 643 3008 1575 
C 3008 2372 2560 2944 1939 2944 
C 1581 2944 1299 2784 1018 2438 
L 1018 2931 
L 979 2944 
C 634 2810 410 2726 58 2618 
L 58 2516 
z
M 1018 2136 
C 1018 2329 1376 2560 1670 2560 
C 2144 2560 2458 2071 2458 1324 
C 2458 611 2144 128 1683 128 
C 1382 128 1018 359 1018 552 
L 1018 2136 
z
" transform="scale(0.015625)"/>
       <path id="NimbusRomNo9L-Regu-69" d="M 1120 2929 
L 128 2579 
L 128 2484 
L 179 2490 
C 256 2502 339 2509 397 2509 
C 550 2509 608 2406 608 2125 
L 608 640 
C 608 179 544 109 102 109 
L 102 0 
L 1619 0 
L 1619 96 
C 1197 128 1146 191 1146 650 
L 1146 2910 
L 1120 2929 
z
M 819 4352 
C 646 4352 499 4205 499 4026 
C 499 3847 640 3699 819 3699 
C 1005 3699 1152 3840 1152 4026 
C 1152 4205 1005 4352 819 4352 
z
" transform="scale(0.015625)"/>
       <path id="NimbusRomNo9L-Regu-73" d="M 2016 2010 
L 1990 2880 
L 1920 2880 
L 1907 2867 
C 1850 2822 1843 2816 1818 2816 
C 1779 2816 1715 2829 1645 2861 
C 1504 2915 1363 2944 1197 2944 
C 691 2944 326 2616 326 2154 
C 326 1796 531 1539 1075 1231 
L 1446 1020 
C 1670 892 1779 737 1779 539 
C 1779 256 1574 77 1248 77 
C 1030 77 832 159 710 298 
C 576 455 518 600 435 960 
L 333 960 
L 333 -39 
L 416 -39 
C 461 33 486 48 563 48 
C 621 48 710 35 858 -2 
C 1037 -39 1210 -64 1325 -64 
C 1818 -64 2227 308 2227 757 
C 2227 1077 2074 1289 1690 1520 
L 998 1930 
C 819 2033 723 2194 723 2367 
C 723 2624 922 2803 1216 2803 
C 1581 2803 1773 2583 1920 2010 
L 2016 2010 
z
" transform="scale(0.015625)"/>
       <path id="NimbusRomNo9L-Regu-6f" d="M 1600 2944 
C 768 2944 186 2330 186 1446 
C 186 582 781 -64 1587 -64 
C 2394 -64 3008 614 3008 1498 
C 3008 2336 2419 2944 1600 2944 
z
M 1517 2765 
C 2054 2765 2432 2150 2432 1274 
C 2432 550 2144 115 1664 115 
C 1414 115 1178 269 1043 525 
C 864 858 762 1306 762 1760 
C 762 2368 1062 2765 1517 2765 
z
" transform="scale(0.015625)"/>
       <path id="NimbusRomNo9L-Regu-64" d="M 2202 -64 
L 3142 269 
L 3142 365 
C 3027 365 3014 365 2995 365 
C 2765 365 2714 435 2714 731 
L 2714 4364 
L 2682 4377 
C 2374 4268 2150 4204 1741 4096 
L 1741 3994 
C 1792 4000 1830 4000 1882 4000 
C 2118 4000 2176 3936 2176 3672 
L 2176 2669 
C 1933 2874 1760 2944 1504 2944 
C 768 2944 173 2221 173 1312 
C 173 493 653 -64 1357 -64 
C 1715 -64 1958 64 2176 365 
L 2176 -45 
L 2202 -64 
z
M 2176 653 
C 2176 608 2131 531 2067 461 
C 1952 333 1792 269 1606 269 
C 1075 269 723 781 723 1568 
C 723 2291 1037 2765 1523 2765 
C 1862 2765 2176 2464 2176 2125 
L 2176 653 
z
" transform="scale(0.015625)"/>
       <path id="NimbusRomNo9L-Regu-65" d="M 2611 1053 
C 2304 564 2029 378 1619 378 
C 1254 378 979 564 794 930 
C 678 1174 634 1386 621 1779 
L 2592 1779 
C 2541 2193 2477 2377 2317 2581 
C 2125 2811 1830 2944 1498 2944 
C 1178 2944 877 2829 634 2611 
C 333 2349 160 1894 160 1370 
C 160 486 621 -64 1357 -64 
C 1965 -64 2445 315 2714 1008 
L 2611 1053 
z
M 634 1984 
C 704 2479 922 2714 1312 2714 
C 1702 2714 1856 2535 1939 1984 
L 634 1984 
z
" transform="scale(0.015625)"/>
      </defs>
      <use xlink:href="#NimbusRomNo9L-Regu-45" transform="scale(0.996264)"/>
      <use xlink:href="#NimbusRomNo9L-Regu-70" transform="translate(60.871631 0) scale(0.996264)"/>
      <use xlink:href="#NimbusRomNo9L-Regu-69" transform="translate(110.684831 0) scale(0.996264)"/>
      <use xlink:href="#NimbusRomNo9L-Regu-73" transform="translate(138.380001 0) scale(0.996264)"/>
      <use xlink:href="#NimbusRomNo9L-Regu-6f" transform="translate(177.133707 0) scale(0.996264)"/>
      <use xlink:href="#NimbusRomNo9L-Regu-64" transform="translate(226.946907 0) scale(0.996264)"/>
      <use xlink:href="#NimbusRomNo9L-Regu-65" transform="translate(276.760108 0) scale(0.996264)"/>
      <use xlink:href="#NimbusRomNo9L-Regu-73" transform="translate(320.993677 0) scale(0.996264)"/>
     </g>
    </g>
   </g>
   <g id="matplotlib.axis_4">
    <g id="ytick_4">
     <g id="line2d_22">
      <path d="M 39.954344 110.740909 
L 192.053304 110.740909 
" clip-path="url(#pc48e04189d)" style="fill: none; stroke: #dcdcdc; stroke-width: 0.5; stroke-linecap: round"/>
     </g>
     <g id="line2d_23">
      <g>
       <use xlink:href="#m89e9a2ea0c" x="39.954344" y="110.740909" style="fill: #262626; stroke: #262626; stroke-width: 1.25"/>
      </g>
     </g>
     <g id="text_12">
      <!-- $\mathdefault{0}$ -->
      <g style="fill: #262626" transform="translate(26.483106 113.105007) scale(0.07 -0.07)">
       <use xlink:href="#CMR17-30" transform="scale(0.996264)"/>
      </g>
     </g>
    </g>
    <g id="ytick_5">
     <g id="line2d_24">
      <path d="M 39.954344 83.630348 
L 192.053304 83.630348 
" clip-path="url(#pc48e04189d)" style="fill: none; stroke: #dcdcdc; stroke-width: 0.5; stroke-linecap: round"/>
     </g>
     <g id="line2d_25">
      <g>
       <use xlink:href="#m89e9a2ea0c" x="39.954344" y="83.630348" style="fill: #262626; stroke: #262626; stroke-width: 1.25"/>
      </g>
     </g>
     <g id="text_13">
      <!-- $\mathdefault{200}$ -->
      <g style="fill: #262626" transform="translate(18.540631 85.994445) scale(0.07 -0.07)">
       <use xlink:href="#CMR17-32" transform="scale(0.996264)"/>
       <use xlink:href="#CMR17-30" transform="translate(45.690477 0) scale(0.996264)"/>
       <use xlink:href="#CMR17-30" transform="translate(91.380954 0) scale(0.996264)"/>
      </g>
     </g>
    </g>
    <g id="text_14">
     <!-- $\hat{J}_c$ -->
     <g style="fill: #262626" transform="translate(12.599485 95.554859) rotate(-90) scale(0.09 -0.09)">
      <defs>
       <path id="CMMI12-63" d="M 2502 2431 
C 2381 2431 2323 2431 2234 2355 
C 2195 2323 2125 2227 2125 2125 
C 2125 1997 2221 1920 2342 1920 
C 2496 1920 2669 2044 2669 2292 
C 2669 2588 2374 2816 1933 2816 
C 1094 2816 256 1903 256 996 
C 256 441 602 -64 1254 -64 
C 2125 -64 2675 622 2675 706 
C 2675 744 2637 776 2611 776 
C 2592 776 2586 770 2528 713 
C 2118 162 1510 64 1267 64 
C 826 64 685 446 685 764 
C 685 988 794 1605 1024 2039 
C 1190 2338 1536 2682 1939 2682 
C 2022 2682 2374 2682 2502 2431 
z
" transform="scale(0.015625)"/>
      </defs>
      <use xlink:href="#CMR17-5e" transform="translate(24.984403 25.189733) scale(0.996264)"/>
      <use xlink:href="#CMMI12-4a" transform="scale(0.996264)"/>
      <use xlink:href="#CMMI12-63" transform="translate(53.917955 -14.943915) scale(0.697382)"/>
     </g>
    </g>
   </g>
   <g id="patch_11">
    <path d="M 48.250651 90.796635 
L 49.633369 93.062248 
L 51.016086 101.515416 
L 52.398804 97.484534 
L 53.781522 100.025816 
L 55.16424 99.429412 
L 56.546958 98.191128 
L 57.929676 99.550057 
L 59.312393 98.625163 
L 60.695111 101.392846 
L 62.077829 99.924276 
L 63.460547 99.050153 
L 64.843265 99.713446 
L 66.225982 100.438819 
L 67.6087 97.367341 
L 68.991418 100.67784 
L 70.374136 98.948847 
L 71.756854 101.167365 
L 73.139572 99.937606 
L 74.522289 100.06533 
L 75.905007 104.216355 
L 77.287725 103.61751 
L 78.670443 100.067254 
L 80.053161 100.982049 
L 81.435878 101.02061 
L 82.818596 101.466691 
L 84.201314 100.599524 
L 85.584032 100.729788 
L 86.96675 101.814722 
L 88.349468 102.013609 
L 89.732185 102.550756 
L 91.114903 102.41235 
L 92.497621 101.307599 
L 93.880339 101.443616 
L 95.263057 101.492619 
L 96.645774 102.239022 
L 98.028492 105.214769 
L 99.41121 106.654071 
L 100.793928 106.123716 
L 102.176646 106.788722 
L 103.559364 107.374068 
L 104.942081 103.504092 
L 106.324799 104.067169 
L 107.707517 104.347471 
L 109.090235 105.770407 
L 110.472953 101.756613 
L 111.85567 105.555559 
L 113.238388 105.422464 
L 114.621106 106.902498 
L 116.003824 104.563857 
L 117.386542 108.347328 
L 118.76926 107.174749 
L 120.151977 107.762974 
L 121.534695 108.457871 
L 122.917413 109.08796 
L 124.300131 109.074458 
L 125.682849 109.026119 
L 127.065566 109.125895 
L 128.448284 108.77635 
L 129.831002 109.011723 
L 131.21372 109.152019 
L 132.596438 107.696845 
L 133.979156 107.897807 
L 135.361873 108.070127 
L 136.744591 108.159565 
L 138.127309 107.98719 
L 139.510027 108.45411 
L 140.892745 108.553541 
L 142.275462 107.345062 
L 143.65818 106.89593 
L 145.040898 108.677518 
L 146.423616 108.269886 
L 147.806334 108.446376 
L 149.189052 110.174049 
L 150.571769 109.998397 
L 151.954487 111.320144 
L 153.337205 109.512058 
L 154.719923 109.403282 
L 156.102641 109.502968 
L 157.485358 110.595621 
L 158.868076 110.694738 
L 160.250794 109.827132 
L 161.633512 109.889143 
L 163.01623 110.234407 
L 164.398948 109.831647 
L 165.781665 110.184541 
L 167.164383 110.08609 
L 168.547101 109.894521 
L 169.929819 109.817071 
L 171.312537 110.288617 
L 172.695254 109.990634 
L 174.077972 108.76872 
L 175.46069 107.975517 
L 176.843408 109.790447 
L 178.226126 110.036708 
L 179.608844 109.559331 
L 180.991561 110.140159 
L 182.374279 110.672584 
L 183.756997 110.890505 
L 185.139715 110.447809 
L 185.139715 107.867496 
L 183.756997 108.248961 
L 182.374279 108.022269 
L 180.991561 107.817286 
L 179.608844 107.812526 
L 178.226126 108.083401 
L 176.843408 107.744074 
L 175.46069 105.893656 
L 174.077972 106.651177 
L 172.695254 107.804148 
L 171.312537 107.560386 
L 169.929819 107.836736 
L 168.547101 107.238764 
L 167.164383 107.480964 
L 165.781665 108.109076 
L 164.398948 107.561899 
L 163.01623 108.167652 
L 161.633512 107.634533 
L 160.250794 107.739921 
L 158.868076 108.260376 
L 157.485358 108.283584 
L 156.102641 107.35921 
L 154.719923 107.025128 
L 153.337205 107.079015 
L 151.954487 107.342176 
L 150.571769 107.449369 
L 149.189052 106.666441 
L 147.806334 106.105983 
L 146.423616 105.848703 
L 145.040898 104.69282 
L 143.65818 104.132056 
L 142.275462 102.706944 
L 140.892745 103.699843 
L 139.510027 103.029333 
L 138.127309 102.585338 
L 136.744591 102.521406 
L 135.361873 103.380784 
L 133.979156 103.021736 
L 132.596438 103.537181 
L 131.21372 104.793063 
L 129.831002 104.933359 
L 128.448284 104.691586 
L 127.065566 104.971007 
L 125.682849 103.921294 
L 124.300131 104.122373 
L 122.917413 104.05465 
L 121.534695 102.591803 
L 120.151977 102.419163 
L 118.76926 101.510885 
L 117.386542 102.203512 
L 116.003824 99.372006 
L 114.621106 101.165015 
L 113.238388 100.172566 
L 111.85567 100.592526 
L 110.472953 96.073952 
L 109.090235 100.074039 
L 107.707517 98.438904 
L 106.324799 98.415568 
L 104.942081 98.544876 
L 103.559364 102.287546 
L 102.176646 100.476318 
L 100.793928 100.089434 
L 99.41121 100.524215 
L 98.028492 100.09831 
L 96.645774 96.675965 
L 95.263057 96.804247 
L 93.880339 96.148376 
L 92.497621 96.685629 
L 91.114903 97.901542 
L 89.732185 97.231769 
L 88.349468 96.825468 
L 86.96675 97.371371 
L 85.584032 96.233239 
L 84.201314 96.428568 
L 82.818596 98.22908 
L 81.435878 97.482296 
L 80.053161 97.954627 
L 78.670443 96.125832 
L 77.287725 99.277307 
L 75.905007 99.838795 
L 74.522289 97.873676 
L 73.139572 98.239974 
L 71.756854 96.695732 
L 70.374136 96.658652 
L 68.991418 95.797196 
L 67.6087 96.385795 
L 66.225982 97.489343 
L 64.843265 97.629128 
L 63.460547 97.121245 
L 62.077829 98.513565 
L 60.695111 95.385829 
L 59.312393 96.14733 
L 57.929676 95.135683 
L 56.546958 91.473736 
L 55.16424 92.144035 
L 53.781522 93.846607 
L 52.398804 90.033173 
L 51.016086 93.018504 
L 49.633369 84.110069 
L 48.250651 87.156466 
z
" clip-path="url(#pc48e04189d)" style="fill: #1f77b4; fill-opacity: 0.15"/>
   </g>
   <g id="patch_12">
    <path d="M 48.250651 95.102529 
L 49.633369 81.274747 
L 51.016086 75.70336 
L 52.398804 75.519322 
L 53.781522 76.023261 
L 55.16424 76.889685 
L 56.546958 74.375975 
L 57.929676 79.602826 
L 59.312393 80.093967 
L 60.695111 78.644162 
L 62.077829 76.510339 
L 63.460547 79.30515 
L 64.843265 83.179242 
L 66.225982 80.010531 
L 67.6087 79.517713 
L 68.991418 78.772068 
L 70.374136 76.846645 
L 71.756854 83.451461 
L 73.139572 80.343698 
L 74.522289 86.023446 
L 75.905007 86.9714 
L 77.287725 86.544153 
L 78.670443 84.604302 
L 80.053161 84.040881 
L 81.435878 85.641094 
L 82.818596 86.740575 
L 84.201314 84.569985 
L 85.584032 85.975777 
L 86.96675 85.753061 
L 88.349468 87.51657 
L 89.732185 88.665734 
L 91.114903 90.907688 
L 92.497621 91.205672 
L 93.880339 90.488805 
L 95.263057 91.885804 
L 96.645774 90.579147 
L 98.028492 91.379304 
L 99.41121 92.179992 
L 100.793928 91.213531 
L 102.176646 89.781327 
L 103.559364 91.343769 
L 104.942081 92.244685 
L 106.324799 93.224042 
L 107.707517 94.065288 
L 109.090235 97.158126 
L 110.472953 95.888827 
L 111.85567 97.009616 
L 113.238388 97.58604 
L 114.621106 100.427248 
L 116.003824 101.15516 
L 117.386542 102.020447 
L 118.76926 102.81299 
L 120.151977 102.97752 
L 121.534695 101.543781 
L 122.917413 101.847809 
L 124.300131 101.676886 
L 125.682849 99.806675 
L 127.065566 101.39041 
L 128.448284 101.405884 
L 129.831002 102.981099 
L 131.21372 100.514719 
L 132.596438 101.554149 
L 133.979156 100.590983 
L 135.361873 101.904133 
L 136.744591 100.35953 
L 138.127309 103.355577 
L 139.510027 104.565611 
L 140.892745 104.282923 
L 142.275462 106.222568 
L 143.65818 106.728036 
L 145.040898 105.551514 
L 146.423616 106.324003 
L 147.806334 107.058992 
L 149.189052 105.923882 
L 150.571769 108.314239 
L 151.954487 107.049125 
L 153.337205 104.104594 
L 154.719923 106.769934 
L 156.102641 104.197357 
L 157.485358 102.911964 
L 158.868076 103.951038 
L 160.250794 103.363459 
L 161.633512 102.29398 
L 163.01623 101.195172 
L 164.398948 103.603075 
L 165.781665 102.528093 
L 167.164383 101.637881 
L 168.547101 104.991772 
L 169.929819 103.884583 
L 171.312537 104.038884 
L 172.695254 102.578612 
L 174.077972 103.274857 
L 175.46069 103.162634 
L 176.843408 102.197721 
L 178.226126 103.17375 
L 179.608844 102.511564 
L 180.991561 101.747147 
L 182.374279 102.677867 
L 183.756997 103.641843 
L 185.139715 103.60368 
L 185.139715 100.16952 
L 183.756997 100.174734 
L 182.374279 98.438497 
L 180.991561 97.026865 
L 179.608844 98.984348 
L 178.226126 99.504183 
L 176.843408 98.311367 
L 175.46069 99.764716 
L 174.077972 99.869378 
L 172.695254 98.570285 
L 171.312537 100.254839 
L 169.929819 101.10317 
L 168.547101 101.535861 
L 167.164383 98.676011 
L 165.781665 99.195549 
L 164.398948 101.048507 
L 163.01623 97.242669 
L 161.633512 98.995892 
L 160.250794 99.6398 
L 158.868076 100.581257 
L 157.485358 99.039406 
L 156.102641 100.812084 
L 154.719923 103.292916 
L 153.337205 100.427701 
L 151.954487 103.371585 
L 150.571769 104.654863 
L 149.189052 102.50149 
L 147.806334 103.871396 
L 146.423616 102.903842 
L 145.040898 102.396712 
L 143.65818 103.432411 
L 142.275462 102.755859 
L 140.892745 100.965091 
L 139.510027 101.864424 
L 138.127309 99.864567 
L 136.744591 96.711939 
L 135.361873 99.15801 
L 133.979156 97.456466 
L 132.596438 98.618768 
L 131.21372 96.491684 
L 129.831002 97.799094 
L 128.448284 97.053646 
L 127.065566 96.234114 
L 125.682849 94.792311 
L 124.300131 97.498363 
L 122.917413 96.698475 
L 121.534695 96.297628 
L 120.151977 97.097799 
L 118.76926 97.793696 
L 117.386542 96.916228 
L 116.003824 96.935666 
L 114.621106 95.885125 
L 113.238388 93.347597 
L 111.85567 92.058815 
L 110.472953 91.672257 
L 109.090235 93.374275 
L 107.707517 90.491946 
L 106.324799 88.730578 
L 104.942081 89.015905 
L 103.559364 87.455181 
L 102.176646 87.271704 
L 100.793928 87.802304 
L 99.41121 88.147994 
L 98.028492 87.387114 
L 96.645774 87.395643 
L 95.263057 85.362423 
L 93.880339 84.211029 
L 92.497621 83.938775 
L 91.114903 84.70306 
L 89.732185 83.919476 
L 88.349468 82.726287 
L 86.96675 80.499122 
L 85.584032 81.566868 
L 84.201314 79.957966 
L 82.818596 81.994935 
L 81.435878 80.838817 
L 80.053161 80.118366 
L 78.670443 78.87176 
L 77.287725 78.547698 
L 75.905007 76.049203 
L 74.522289 77.1056 
L 73.139572 76.267969 
L 71.756854 77.248479 
L 70.374136 74.115181 
L 68.991418 73.816391 
L 67.6087 75.228747 
L 66.225982 77.067438 
L 64.843265 78.832849 
L 63.460547 77.176386 
L 62.077829 73.486351 
L 60.695111 75.983012 
L 59.312393 74.956132 
L 57.929676 76.943776 
L 56.546958 71.369779 
L 55.16424 72.846744 
L 53.781522 74.580706 
L 52.398804 73.414634 
L 51.016086 74.011381 
L 49.633369 74.783864 
L 48.250651 90.517439 
z
" clip-path="url(#pc48e04189d)" style="fill: #ff7f0e; fill-opacity: 0.15"/>
   </g>
   <g id="patch_13">
    <path d="M 46.867933 113.317662 
L 46.867933 69.372261 
L 57.929676 69.372261 
L 57.929676 113.317662 
z
" clip-path="url(#pc48e04189d)" style="fill: #808080; opacity: 0.2"/>
   </g>
   <g id="line2d_26">
    <path d="M 48.250651 88.97655 
L 49.633369 88.586158 
L 51.016086 97.26696 
L 52.398804 93.758853 
L 53.781522 96.936211 
L 55.16424 95.786723 
L 56.546958 94.832432 
L 57.929676 97.34287 
L 59.312393 97.386247 
L 60.695111 98.389337 
L 62.077829 99.218921 
L 63.460547 98.085699 
L 64.843265 98.671287 
L 66.225982 98.964081 
L 67.6087 96.876568 
L 68.991418 98.237518 
L 70.374136 97.803749 
L 71.756854 98.931549 
L 73.139572 99.08879 
L 74.522289 98.969503 
L 75.905007 102.027575 
L 77.287725 101.447409 
L 78.670443 98.096543 
L 80.053161 99.468338 
L 81.435878 99.251453 
L 82.818596 99.847886 
L 84.201314 98.514046 
L 85.584032 98.481513 
L 86.96675 99.593046 
L 88.349468 99.419539 
L 89.732185 99.891262 
L 91.114903 100.156946 
L 92.497621 98.996614 
L 93.880339 98.795996 
L 95.263057 99.148433 
L 96.645774 99.457494 
L 98.028492 102.65654 
L 99.41121 103.589143 
L 100.793928 103.106575 
L 102.176646 103.63252 
L 103.559364 104.830807 
L 104.942081 101.024484 
L 106.324799 101.241368 
L 107.707517 101.393188 
L 109.090235 102.922223 
L 110.472953 98.915282 
L 111.85567 103.074042 
L 113.238388 102.797515 
L 114.621106 104.033756 
L 116.003824 101.967931 
L 117.386542 105.27542 
L 118.76926 104.342817 
L 120.151977 105.091068 
L 121.534695 105.524837 
L 122.917413 106.571305 
L 124.300131 106.598415 
L 125.682849 106.473707 
L 127.065566 107.048451 
L 128.448284 106.733968 
L 129.831002 106.972541 
L 131.21372 106.972541 
L 132.596438 105.617013 
L 133.979156 105.459772 
L 135.361873 105.725455 
L 136.744591 105.340485 
L 138.127309 105.286264 
L 139.510027 105.741722 
L 140.892745 106.126692 
L 142.275462 105.026003 
L 143.65818 105.513993 
L 145.040898 106.685169 
L 146.423616 107.059295 
L 147.806334 107.276179 
L 149.189052 108.420245 
L 150.571769 108.723883 
L 151.954487 109.33116 
L 153.337205 108.295537 
L 154.719923 108.214205 
L 156.102641 108.431089 
L 157.485358 109.439602 
L 158.868076 109.477557 
L 160.250794 108.783527 
L 161.633512 108.761838 
L 163.01623 109.201029 
L 164.398948 108.696773 
L 165.781665 109.146808 
L 167.164383 108.783527 
L 168.547101 108.566642 
L 169.929819 108.826904 
L 171.312537 108.924502 
L 172.695254 108.897391 
L 174.077972 107.709948 
L 175.46069 106.934586 
L 176.843408 108.76726 
L 178.226126 109.060054 
L 179.608844 108.685929 
L 180.991561 108.978723 
L 182.374279 109.347426 
L 183.756997 109.569733 
L 185.139715 109.157652 
" clip-path="url(#pc48e04189d)" style="fill: none; stroke: #1f77b4; stroke-linecap: round"/>
   </g>
   <g id="line2d_27">
    <path d="M 48.250651 92.809984 
L 49.633369 78.029306 
L 51.016086 74.85737 
L 52.398804 74.466978 
L 53.781522 75.301983 
L 55.16424 74.868214 
L 56.546958 72.872877 
L 57.929676 78.273301 
L 59.312393 77.525049 
L 60.695111 77.313587 
L 62.077829 74.998345 
L 63.460547 78.240768 
L 64.843265 81.006045 
L 66.225982 78.538984 
L 67.6087 77.37323 
L 68.991418 76.29423 
L 70.374136 75.480913 
L 71.756854 80.34997 
L 73.139572 78.305834 
L 74.522289 81.564523 
L 75.905007 81.510302 
L 77.287725 82.545925 
L 78.670443 81.738031 
L 80.053161 82.079624 
L 81.435878 83.239956 
L 82.818596 84.367755 
L 84.201314 82.263975 
L 85.584032 83.771323 
L 86.96675 83.126091 
L 88.349468 85.121429 
L 89.732185 86.292605 
L 91.114903 87.805374 
L 92.497621 87.572223 
L 93.880339 87.349917 
L 95.263057 88.624113 
L 96.645774 88.987395 
L 98.028492 89.383209 
L 99.41121 90.163993 
L 100.793928 89.507917 
L 102.176646 88.526515 
L 103.559364 89.399475 
L 104.942081 90.630295 
L 106.324799 90.97731 
L 107.707517 92.278617 
L 109.090235 95.266201 
L 110.472953 93.780542 
L 111.85567 94.534216 
L 113.238388 95.466819 
L 114.621106 98.156187 
L 116.003824 99.045413 
L 117.386542 99.468338 
L 118.76926 100.303343 
L 120.151977 100.03766 
L 121.534695 98.920704 
L 122.917413 99.273142 
L 124.300131 99.587624 
L 125.682849 97.299493 
L 127.065566 98.812262 
L 128.448284 99.229765 
L 129.831002 100.390097 
L 131.21372 98.503202 
L 132.596438 100.086459 
L 133.979156 99.023725 
L 135.361873 100.531072 
L 136.744591 98.535734 
L 138.127309 101.610072 
L 139.510027 103.215017 
L 140.892745 102.624007 
L 142.275462 104.489214 
L 143.65818 105.080224 
L 145.040898 103.974113 
L 146.423616 104.613922 
L 147.806334 105.465194 
L 149.189052 104.212686 
L 150.571769 106.484551 
L 151.954487 105.210355 
L 153.337205 102.266148 
L 154.719923 105.031425 
L 156.102641 102.504721 
L 157.485358 100.975685 
L 158.868076 102.266148 
L 160.250794 101.50163 
L 161.633512 100.644936 
L 163.01623 99.218921 
L 164.398948 102.325791 
L 165.781665 100.861821 
L 167.164383 100.156946 
L 168.547101 103.263816 
L 169.929819 102.493876 
L 171.312537 102.146861 
L 172.695254 100.574449 
L 174.077972 101.572117 
L 175.46069 101.463675 
L 176.843408 100.254544 
L 178.226126 101.338966 
L 179.608844 100.747956 
L 180.991561 99.387006 
L 182.374279 100.558182 
L 183.756997 101.908288 
L 185.139715 101.8866 
" clip-path="url(#pc48e04189d)" style="fill: none; stroke: #ff7f0e; stroke-linecap: round"/>
   </g>
   <g id="line2d_28">
    <path d="M 74.522289 113.317662 
L 74.522289 69.372261 
" clip-path="url(#pc48e04189d)" style="fill: none; stroke-dasharray: 5.55,2.4; stroke-dashoffset: 0; stroke: #000000; stroke-width: 1.5"/>
   </g>
   <g id="line2d_29">
    <path d="M 39.954344 97.185628 
L 192.053304 97.185628 
" clip-path="url(#pc48e04189d)" style="fill: none; stroke-dasharray: 1.25,1.25; stroke-dashoffset: 0; stroke: #000000; stroke-width: 1.25"/>
   </g>
   <g id="patch_14">
    <path d="M 39.954344 113.317662 
L 39.954344 69.372261 
" style="fill: none; stroke: #262626; stroke-width: 1.25; stroke-linejoin: miter; stroke-linecap: square"/>
   </g>
   <g id="patch_15">
    <path d="M 192.053304 113.317662 
L 192.053304 69.372261 
" style="fill: none; stroke: #262626; stroke-width: 1.25; stroke-linejoin: miter; stroke-linecap: square"/>
   </g>
   <g id="patch_16">
    <path d="M 39.954344 113.317662 
L 192.053304 113.317662 
" style="fill: none; stroke: #262626; stroke-width: 1.25; stroke-linejoin: miter; stroke-linecap: square"/>
   </g>
   <g id="patch_17">
    <path d="M 39.954344 69.372261 
L 192.053304 69.372261 
" style="fill: none; stroke: #262626; stroke-width: 1.25; stroke-linejoin: miter; stroke-linecap: square"/>
   </g>
  </g>
  <g id="legend_1">
   <g id="line2d_30">
    <path d="M 37.861372 6.33 
L 44.861372 6.33 
L 51.861372 6.33 
" style="fill: none; stroke: #1f77b4; stroke-linecap: round"/>
   </g>
   <g id="text_15">
    <!-- \textsc{ActSafe} (Ours) -->
    <g transform="translate(57.461372 8.78) scale(0.07 -0.07)">
     <defs>
      <path id="NimbusRomNo9L-Regu-41" d="M 4518 128 
C 4230 128 4166 192 3942 667 
L 2349 4320 
L 2221 4320 
L 890 1168 
C 480 231 403 128 96 128 
L 96 0 
L 1363 0 
L 1363 128 
C 1056 128 928 212 928 393 
C 928 470 947 560 979 645 
L 1274 1401 
L 2950 1401 
L 3213 778 
C 3290 602 3334 434 3334 342 
C 3334 180 3226 128 2886 128 
L 2886 0 
L 4518 0 
L 4518 128 
z
M 1382 1664 
L 2118 3416 
L 2861 1664 
L 1382 1664 
z
" transform="scale(0.015625)"/>
      <path id="NimbusRomNo9L-Regu-43" d="M 3968 2906 
L 3910 4352 
L 3776 4352 
C 3738 4218 3635 4141 3507 4141 
C 3450 4141 3354 4160 3258 4199 
C 2944 4301 2624 4352 2323 4352 
C 1798 4352 1267 4154 870 3802 
C 422 3405 179 2810 179 2106 
C 179 1511 371 960 698 596 
C 1082 180 1670 -64 2304 -64 
C 3027 -64 3661 231 4051 749 
L 3936 864 
C 3462 410 3040 218 2509 218 
C 2106 218 1747 346 1472 589 
C 1120 903 922 1479 922 2189 
C 922 3348 1517 4096 2445 4096 
C 2810 4096 3142 3962 3398 3706 
C 3603 3501 3699 3322 3821 2906 
L 3968 2906 
z
" transform="scale(0.015625)"/>
      <path id="NimbusRomNo9L-Regu-54" d="M 1626 3968 
L 1626 751 
C 1626 204 1555 134 1024 134 
L 1024 0 
L 2893 0 
L 2893 134 
C 2368 134 2278 217 2278 687 
L 2278 3968 
L 2624 3968 
C 3354 3968 3494 3853 3642 3149 
L 3795 3149 
L 3757 4237 
L 147 4237 
L 109 3149 
L 262 3149 
C 416 3846 563 3968 1280 3968 
L 1626 3968 
z
" transform="scale(0.015625)"/>
      <path id="NimbusRomNo9L-Regu-53" d="M 2861 4352 
L 2726 4352 
C 2701 4205 2630 4135 2522 4135 
C 2458 4135 2349 4160 2240 4212 
C 2003 4301 1766 4352 1562 4352 
C 1286 4352 1005 4244 794 4058 
C 570 3859 454 3590 454 3256 
C 454 2743 736 2385 1453 2006 
C 1914 1763 2246 1499 2406 1256 
C 2464 1173 2496 1038 2496 884 
C 2496 454 2176 160 1709 160 
C 1139 160 736 513 416 1296 
L 269 1296 
L 461 -64 
L 602 -64 
C 608 57 685 147 781 147 
C 851 147 960 122 1082 79 
C 1325 -14 1581 -64 1837 -64 
C 2573 -64 3142 442 3142 1101 
C 3142 1626 2790 2042 1946 2496 
C 1274 2868 1005 3149 1005 3495 
C 1005 3847 1274 4090 1670 4090 
C 1958 4090 2227 3968 2451 3738 
C 2650 3533 2739 3367 2842 2989 
L 3002 2989 
L 2861 4352 
z
" transform="scale(0.015625)"/>
      <path id="NimbusRomNo9L-Regu-46" d="M 3066 1472 
L 3066 2957 
L 2918 2957 
C 2842 2461 2726 2368 2214 2368 
L 1286 2368 
L 1286 3766 
C 1286 3943 1318 3981 1491 3981 
L 2362 3981 
C 3085 3981 3226 3886 3334 3314 
L 3494 3314 
L 3475 4224 
L 77 4224 
L 77 4102 
C 550 4064 634 3974 634 3525 
L 634 749 
C 634 217 563 134 77 134 
L 77 0 
L 1869 0 
L 1869 134 
C 1376 134 1286 225 1286 692 
L 1286 2106 
L 2214 2106 
C 2733 2106 2842 2007 2918 1472 
L 3066 1472 
z
" transform="scale(0.015625)"/>
      <path id="NimbusRomNo9L-Regu-28" d="M 1888 4326 
C 1414 4019 1222 3853 986 3558 
C 531 3002 307 2362 307 1613 
C 307 800 544 173 1107 -480 
C 1370 -787 1536 -928 1869 -1133 
L 1946 -1030 
C 1434 -627 1254 -403 1082 77 
C 928 506 858 992 858 1632 
C 858 2304 941 2829 1114 3226 
C 1293 3622 1485 3853 1946 4224 
L 1888 4326 
z
" transform="scale(0.015625)"/>
      <path id="NimbusRomNo9L-Regu-4f" d="M 2310 4352 
C 1088 4352 218 3431 218 2144 
C 218 1543 422 960 768 589 
C 1139 186 1709 -64 2272 -64 
C 3533 -64 4403 832 4403 2119 
C 4403 2752 4218 3296 3866 3680 
C 3462 4122 2925 4352 2310 4352 
z
M 2310 4122 
C 2605 4122 2899 4007 3130 3802 
C 3475 3488 3674 2887 3674 2125 
C 3674 1748 3590 1306 3462 973 
C 3405 813 3296 653 3149 506 
C 2925 282 2637 167 2298 167 
C 2003 167 1715 282 1491 480 
C 1158 775 947 1421 947 2132 
C 947 2784 1126 3405 1395 3706 
C 1645 3981 1958 4122 2310 4122 
z
" transform="scale(0.015625)"/>
      <path id="NimbusRomNo9L-Regu-75" d="M 3066 320 
L 3034 320 
C 2739 320 2669 390 2669 685 
L 2669 2880 
L 1658 2880 
L 1658 2758 
C 2054 2758 2131 2694 2131 2375 
L 2131 875 
C 2131 697 2099 607 2010 537 
C 1837 397 1638 320 1446 320 
C 1197 320 992 537 992 805 
L 992 2880 
L 58 2880 
L 58 2778 
C 365 2778 454 2682 454 2387 
L 454 770 
C 454 263 762 -64 1229 -64 
C 1466 -64 1715 38 1888 211 
L 2163 486 
L 2163 -45 
L 2189 -58 
C 2509 70 2739 141 3066 230 
L 3066 320 
z
" transform="scale(0.015625)"/>
      <path id="NimbusRomNo9L-Regu-72" d="M 45 2496 
C 134 2515 192 2522 269 2522 
C 429 2522 486 2419 486 2138 
L 486 538 
C 486 218 442 173 32 96 
L 32 0 
L 1568 0 
L 1568 102 
C 1133 102 1024 199 1024 565 
L 1024 2013 
C 1024 2219 1299 2541 1472 2541 
C 1510 2541 1568 2509 1638 2445 
C 1741 2355 1811 2317 1894 2317 
C 2048 2317 2144 2426 2144 2605 
C 2144 2816 2010 2944 1792 2944 
C 1523 2944 1338 2797 1024 2343 
L 1024 2931 
L 992 2944 
C 653 2803 422 2721 45 2599 
L 45 2496 
z
" transform="scale(0.015625)"/>
      <path id="NimbusRomNo9L-Regu-29" d="M 243 -1133 
C 717 -826 909 -659 1146 -365 
C 1600 192 1824 832 1824 1581 
C 1824 2400 1587 3021 1024 3674 
C 762 3981 595 4122 262 4326 
L 186 4224 
C 698 3821 870 3597 1050 3117 
C 1203 2688 1274 2202 1274 1562 
C 1274 896 1190 365 1018 -26 
C 838 -429 646 -659 186 -1030 
L 243 -1133 
z
" transform="scale(0.015625)"/>
     </defs>
     <use xlink:href="#NimbusRomNo9L-Regu-41" transform="scale(0.996264)"/>
     <use xlink:href="#NimbusRomNo9L-Regu-43" transform="translate(73.32484 0) scale(0.797011)"/>
     <use xlink:href="#NimbusRomNo9L-Regu-54" transform="translate(131.40667 0) scale(0.797011)"/>
     <use xlink:href="#NimbusRomNo9L-Regu-53" transform="translate(185.004445 0) scale(0.996264)"/>
     <use xlink:href="#NimbusRomNo9L-Regu-41" transform="translate(245.377457 0) scale(0.797011)"/>
     <use xlink:href="#NimbusRomNo9L-Regu-46" transform="translate(307.842235 0) scale(0.797011)"/>
     <use xlink:href="#NimbusRomNo9L-Regu-45" transform="translate(357.057047 0) scale(0.797011)"/>
     <use xlink:href="#NimbusRomNo9L-Regu-28" transform="translate(433.070809 0) scale(0.996264)"/>
     <use xlink:href="#NimbusRomNo9L-Regu-4f" transform="translate(466.246038 0) scale(0.996264)"/>
     <use xlink:href="#NimbusRomNo9L-Regu-75" transform="translate(538.176023 0) scale(0.996264)"/>
     <use xlink:href="#NimbusRomNo9L-Regu-72" transform="translate(587.989224 0) scale(0.996264)"/>
     <use xlink:href="#NimbusRomNo9L-Regu-73" transform="translate(621.164453 0) scale(0.996264)"/>
     <use xlink:href="#NimbusRomNo9L-Regu-29" transform="translate(659.91816 0) scale(0.996264)"/>
    </g>
   </g>
   <g id="line2d_31">
    <path d="M 119.977814 6.33 
L 126.977814 6.33 
L 133.977814 6.33 
" style="fill: none; stroke: #ff7f0e; stroke-linecap: round"/>
   </g>
   <g id="text_16">
    <!-- \textsc{Opax} -->
    <g transform="translate(139.577814 8.78) scale(0.07 -0.07)">
     <defs>
      <path id="NimbusRomNo9L-Regu-50" d="M 1293 1875 
C 1459 1856 1568 1856 1734 1856 
C 2234 1856 2579 1919 2854 2072 
C 3238 2274 3469 2660 3469 3078 
C 3469 3344 3379 3584 3206 3768 
C 2950 4047 2394 4224 1792 4224 
L 102 4224 
L 102 4102 
C 576 4051 640 3987 640 3528 
L 640 766 
C 640 230 589 166 102 122 
L 102 0 
L 1894 0 
L 1894 128 
C 1389 128 1293 218 1293 693 
L 1293 1875 
z
M 1293 3772 
C 1293 3943 1338 3987 1510 3987 
C 2374 3987 2771 3690 2771 3040 
C 2771 2428 2394 2112 1658 2112 
C 1530 2112 1440 2119 1293 2131 
L 1293 3772 
z
" transform="scale(0.015625)"/>
      <path id="NimbusRomNo9L-Regu-58" d="M 4454 4224 
L 2931 4224 
L 2931 4096 
C 3277 4096 3379 4052 3379 3904 
C 3379 3808 3309 3692 3123 3462 
L 2400 2578 
L 2131 2955 
C 1741 3500 1587 3776 1587 3917 
C 1587 4045 1683 4096 1894 4096 
L 2074 4096 
L 2074 4224 
L 141 4224 
L 141 4096 
C 557 4096 672 4000 1299 3107 
L 1997 2080 
L 992 848 
C 422 172 390 146 64 121 
L 64 0 
L 1555 0 
L 1555 134 
C 1184 134 1069 185 1069 334 
C 1069 430 1165 591 1402 886 
L 2163 1837 
L 2771 940 
C 2982 627 3098 409 3098 313 
C 3098 198 2995 134 2778 134 
C 2752 134 2682 134 2605 121 
L 2605 0 
L 4506 0 
L 4506 121 
C 4166 159 4070 223 3795 593 
L 2566 2341 
L 3501 3515 
C 3917 4018 4045 4096 4454 4096 
L 4454 4224 
z
" transform="scale(0.015625)"/>
     </defs>
     <use xlink:href="#NimbusRomNo9L-Regu-4f" transform="scale(0.996264)"/>
     <use xlink:href="#NimbusRomNo9L-Regu-50" transform="translate(76.91132 0) scale(0.797011)"/>
     <use xlink:href="#NimbusRomNo9L-Regu-41" transform="translate(118.8536 0) scale(0.797011)"/>
     <use xlink:href="#NimbusRomNo9L-Regu-58" transform="translate(181.318378 0) scale(0.797011)"/>
    </g>
   </g>
  </g>
 </g>
 <defs>
  <clipPath id="p83d10b9fbe">
   <rect x="39.954344" y="13.42638" width="152.09896" height="43.945401"/>
  </clipPath>
  <clipPath id="pc48e04189d">
   <rect x="39.954344" y="69.372261" width="152.09896" height="43.945401"/>
  </clipPath>
 </defs>
</svg>
