<?xml version="1.0" encoding="utf-8" standalone="no"?>
<!DOCTYPE svg PUBLIC "-//W3C//DTD SVG 1.1//EN"
  "http://www.w3.org/Graphics/SVG/1.1/DTD/svg11.dtd">
<svg xmlns:xlink="http://www.w3.org/1999/xlink" width="174.372836pt" height="140.00176pt" viewBox="0 0 174.372836 140.00176" xmlns="http://www.w3.org/2000/svg" version="1.1">
 <metadata>
  <rdf:RDF xmlns:dc="http://purl.org/dc/elements/1.1/" xmlns:cc="http://creativecommons.org/ns#" xmlns:rdf="http://www.w3.org/1999/02/22-rdf-syntax-ns#">
   <cc:Work>
    <dc:type rdf:resource="http://purl.org/dc/dcmitype/StillImage"/>
    <dc:date>2025-02-19T19:00:14.170297</dc:date>
    <dc:format>image/svg+xml</dc:format>
    <dc:creator>
     <cc:Agent>
      <dc:title>Matplotlib v3.8.4, https://matplotlib.org/</dc:title>
     </cc:Agent>
    </dc:creator>
   </cc:Work>
  </rdf:RDF>
 </metadata>
 <defs>
  <style type="text/css">*{stroke-linejoin: round; stroke-linecap: butt}</style>
 </defs>
 <g id="figure_1">
  <g id="patch_1">
   <path d="M 0 140.00176 
L 174.372836 140.00176 
L 174.372836 0 
L 0 0 
z
" style="fill: #ffffff"/>
  </g>
  <g id="axes_1">
   <g id="patch_2">
    <path d="M 39.954344 60.724264 
L 171.321599 60.724264 
L 171.321599 24.63724 
L 39.954344 24.63724 
z
" style="fill: #ffffff"/>
   </g>
   <g id="matplotlib.axis_1">
    <g id="xtick_1">
     <g id="line2d_1">
      <defs>
       <path id="mdfb111e0ef" d="M 0 0 
L 0 6 
" style="stroke: #262626; stroke-width: 1.25"/>
      </defs>
      <g>
       <use xlink:href="#mdfb111e0ef" x="44.719272" y="60.724264" style="fill: #262626; stroke: #262626; stroke-width: 1.25"/>
      </g>
     </g>
    </g>
    <g id="xtick_2">
     <g id="line2d_2">
      <g>
       <use xlink:href="#mdfb111e0ef" x="68.84549" y="60.724264" style="fill: #262626; stroke: #262626; stroke-width: 1.25"/>
      </g>
     </g>
    </g>
    <g id="xtick_3">
     <g id="line2d_3">
      <g>
       <use xlink:href="#mdfb111e0ef" x="92.971707" y="60.724264" style="fill: #262626; stroke: #262626; stroke-width: 1.25"/>
      </g>
     </g>
    </g>
    <g id="xtick_4">
     <g id="line2d_4">
      <g>
       <use xlink:href="#mdfb111e0ef" x="117.097925" y="60.724264" style="fill: #262626; stroke: #262626; stroke-width: 1.25"/>
      </g>
     </g>
    </g>
    <g id="xtick_5">
     <g id="line2d_5">
      <g>
       <use xlink:href="#mdfb111e0ef" x="141.224143" y="60.724264" style="fill: #262626; stroke: #262626; stroke-width: 1.25"/>
      </g>
     </g>
    </g>
    <g id="xtick_6">
     <g id="line2d_6">
      <g>
       <use xlink:href="#mdfb111e0ef" x="165.35036" y="60.724264" style="fill: #262626; stroke: #262626; stroke-width: 1.25"/>
      </g>
     </g>
    </g>
   </g>
   <g id="matplotlib.axis_2">
    <g id="ytick_1">
     <g id="line2d_7">
      <path d="M 39.954344 52.433965 
L 171.321599 52.433965 
" clip-path="url(#p40829e49d9)" style="fill: none; stroke: #dcdcdc; stroke-width: 0.5; stroke-linecap: round"/>
     </g>
     <g id="line2d_8">
      <defs>
       <path id="mb47f629263" d="M 0 0 
L -6 0 
" style="stroke: #262626; stroke-width: 1.25"/>
      </defs>
      <g>
       <use xlink:href="#mb47f629263" x="39.954344" y="52.433965" style="fill: #262626; stroke: #262626; stroke-width: 1.25"/>
      </g>
     </g>
     <g id="text_1">
      <!-- $\mathdefault{0}$ -->
      <g style="fill: #262626" transform="translate(26.483106 54.798063) scale(0.07 -0.07)">
       <defs>
        <path id="CMR17-30" d="M 2688 2025 
C 2688 2416 2682 3080 2413 3591 
C 2176 4039 1798 4198 1466 4198 
C 1158 4198 768 4058 525 3597 
C 269 3118 243 2524 243 2025 
C 243 1661 250 1106 448 619 
C 723 -39 1216 -128 1466 -128 
C 1760 -128 2208 -7 2470 600 
C 2662 1042 2688 1559 2688 2025 
z
M 1466 -26 
C 1056 -26 813 325 723 812 
C 653 1188 653 1738 653 2096 
C 653 2588 653 2997 736 3387 
C 858 3929 1216 4096 1466 4096 
C 1728 4096 2067 3923 2189 3400 
C 2272 3036 2278 2607 2278 2096 
C 2278 1680 2278 1169 2202 792 
C 2067 95 1690 -26 1466 -26 
z
" transform="scale(0.015625)"/>
       </defs>
       <use xlink:href="#CMR17-30" transform="scale(0.996264)"/>
      </g>
     </g>
    </g>
    <g id="ytick_2">
     <g id="line2d_9">
      <path d="M 39.954344 35.789342 
L 171.321599 35.789342 
" clip-path="url(#p40829e49d9)" style="fill: none; stroke: #dcdcdc; stroke-width: 0.5; stroke-linecap: round"/>
     </g>
     <g id="line2d_10">
      <g>
       <use xlink:href="#mb47f629263" x="39.954344" y="35.789342" style="fill: #262626; stroke: #262626; stroke-width: 1.25"/>
      </g>
     </g>
     <g id="text_2">
      <!-- $\mathdefault{500}$ -->
      <g style="fill: #262626" transform="translate(18.540631 38.153439) scale(0.07 -0.07)">
       <defs>
        <path id="CMR17-35" d="M 730 3692 
C 794 3666 1056 3584 1325 3584 
C 1920 3584 2246 3911 2432 4100 
C 2432 4157 2432 4192 2394 4192 
C 2387 4192 2374 4192 2323 4163 
C 2099 4058 1837 3973 1517 3973 
C 1325 3973 1037 3999 723 4139 
C 653 4171 640 4171 634 4171 
C 602 4171 595 4164 595 4037 
L 595 2203 
C 595 2089 595 2057 659 2057 
C 691 2057 704 2070 736 2114 
C 941 2401 1222 2522 1542 2522 
C 1766 2522 2246 2382 2246 1289 
C 2246 1085 2246 715 2054 421 
C 1894 159 1645 25 1370 25 
C 947 25 518 320 403 814 
C 429 807 480 795 506 795 
C 589 795 749 840 749 1038 
C 749 1210 627 1280 506 1280 
C 358 1280 262 1190 262 1011 
C 262 454 704 -128 1382 -128 
C 2042 -128 2669 440 2669 1264 
C 2669 2030 2170 2624 1549 2624 
C 1222 2624 947 2503 730 2274 
L 730 3692 
z
" transform="scale(0.015625)"/>
       </defs>
       <use xlink:href="#CMR17-35" transform="scale(0.996264)"/>
       <use xlink:href="#CMR17-30" transform="translate(45.690477 0) scale(0.996264)"/>
       <use xlink:href="#CMR17-30" transform="translate(91.380954 0) scale(0.996264)"/>
      </g>
     </g>
    </g>
    <g id="text_3">
     <!-- $\hat{J}_r$ -->
     <g style="fill: #262626" transform="translate(12.599485 46.952567) rotate(-90) scale(0.09 -0.09)">
      <defs>
       <path id="CMR17-5e" d="M 1466 4421 
L 678 3555 
L 755 3478 
L 1466 4166 
L 2176 3478 
L 2253 3555 
L 1466 4421 
z
" transform="scale(0.015625)"/>
       <path id="CMMI12-4a" d="M 3418 3912 
C 3469 4103 3482 4167 3795 4167 
C 3898 4167 3962 4167 3962 4282 
C 3962 4352 3904 4352 3878 4352 
C 3770 4352 3648 4352 3533 4352 
L 3181 4352 
C 2912 4352 2630 4352 2362 4352 
C 2304 4352 2227 4352 2227 4237 
C 2227 4173 2278 4173 2278 4167 
L 2438 4167 
C 2950 4167 2950 4116 2950 4020 
C 2950 4013 2950 3969 2925 3868 
L 2189 960 
C 2022 312 1594 0 1286 0 
C 1069 0 762 100 685 431 
C 710 424 742 418 768 418 
C 979 418 1146 603 1146 788 
C 1146 890 1082 1024 890 1024 
C 774 1024 506 961 506 549 
C 506 151 838 -128 1299 -128 
C 1882 -128 2509 311 2662 915 
L 3418 3912 
z
" transform="scale(0.015625)"/>
       <path id="CMMI12-72" d="M 2490 2612 
C 2291 2574 2189 2433 2189 2293 
C 2189 2139 2310 2088 2400 2088 
C 2579 2088 2726 2242 2726 2433 
C 2726 2638 2528 2816 2208 2816 
C 1952 2816 1658 2701 1389 2312 
C 1344 2650 1088 2816 832 2816 
C 582 2816 454 2625 378 2484 
C 269 2254 173 1871 173 1839 
C 173 1814 198 1782 243 1782 
C 294 1782 301 1788 339 1935 
C 435 2318 557 2689 813 2689 
C 966 2689 1011 2580 1011 2395 
C 1011 2254 947 2005 902 1807 
L 723 1118 
C 698 996 627 709 595 594 
C 550 428 480 128 480 96 
C 480 6 550 -64 646 -64 
C 717 -64 838 -19 877 109 
C 896 160 1133 1124 1171 1271 
C 1203 1411 1242 1546 1274 1686 
C 1299 1775 1325 1878 1344 1961 
C 1363 2018 1536 2331 1696 2472 
C 1773 2542 1939 2689 2202 2689 
C 2304 2689 2406 2670 2490 2612 
z
" transform="scale(0.015625)"/>
      </defs>
      <use xlink:href="#CMR17-5e" transform="translate(24.984403 25.189733) scale(0.996264)"/>
      <use xlink:href="#CMMI12-4a" transform="scale(0.996264)"/>
      <use xlink:href="#CMMI12-72" transform="translate(53.917955 -14.943915) scale(0.697382)"/>
     </g>
    </g>
   </g>
   <g id="patch_3">
    <path d="M 45.925583 57.212671 
L 47.131894 58.499346 
L 48.338205 58.323126 
L 49.544515 58.052896 
L 50.750826 58.12408 
L 51.957137 57.78391 
L 53.163448 57.584374 
L 54.369759 57.541114 
L 55.57607 57.659026 
L 56.782381 58.131117 
L 57.988692 58.091469 
L 59.195003 57.835781 
L 60.401313 57.876187 
L 61.607624 57.833703 
L 62.813935 57.74745 
L 64.020246 57.812278 
L 65.226557 57.919999 
L 66.432868 57.976373 
L 67.639179 57.879232 
L 68.84549 58.093902 
L 70.0518 49.387537 
L 71.258111 46.344853 
L 72.464422 43.510912 
L 73.670733 40.454188 
L 74.877044 39.376428 
L 76.083355 38.720411 
L 77.289666 38.687432 
L 78.495977 38.839971 
L 79.702288 38.927431 
L 80.908598 38.536141 
L 82.114909 38.349205 
L 83.32122 38.940653 
L 84.527531 38.883544 
L 85.733842 38.272815 
L 86.940153 39.069521 
L 88.146464 39.081101 
L 89.352775 38.934144 
L 90.559086 39.154884 
L 91.765396 38.897727 
L 92.971707 39.151934 
L 94.178018 39.182166 
L 95.384329 39.951511 
L 96.59064 39.70871 
L 97.796951 38.917582 
L 99.003262 39.396239 
L 100.209573 39.612693 
L 101.415884 39.373121 
L 102.622194 38.995259 
L 103.828505 39.060361 
L 105.034816 39.999513 
L 106.241127 39.397745 
L 107.447438 39.283453 
L 108.653749 39.149271 
L 109.86006 39.031427 
L 111.066371 39.266461 
L 112.272681 39.054885 
L 113.478992 38.655145 
L 114.685303 39.148757 
L 115.891614 38.385693 
L 117.097925 38.272377 
L 118.304236 38.793506 
L 119.510547 38.637521 
L 120.716858 38.844469 
L 121.923169 40.965587 
L 123.129479 40.672644 
L 124.33579 40.894505 
L 125.542101 45.149892 
L 126.748412 41.118693 
L 127.954723 38.686409 
L 129.161034 39.247102 
L 130.367345 39.315074 
L 131.573656 38.979106 
L 132.779967 38.970925 
L 133.986277 38.735747 
L 135.192588 39.471453 
L 136.398899 39.280093 
L 137.60521 39.207088 
L 138.811521 39.326608 
L 140.017832 38.563277 
L 141.224143 38.297626 
L 142.430454 38.426881 
L 143.636765 38.64099 
L 144.843075 38.041914 
L 146.049386 38.319841 
L 147.255697 38.558045 
L 148.462008 37.988847 
L 149.668319 38.151253 
L 150.87463 38.622556 
L 152.080941 38.869896 
L 153.287252 38.624375 
L 154.493562 38.88386 
L 155.699873 38.684577 
L 156.906184 38.881454 
L 158.112495 38.334346 
L 159.318806 38.658223 
L 160.525117 37.972171 
L 161.731428 38.425766 
L 162.937739 38.688482 
L 164.14405 38.727707 
L 165.35036 38.537682 
L 165.35036 29.127107 
L 164.14405 29.547603 
L 162.937739 29.470201 
L 161.731428 29.072032 
L 160.525117 28.321252 
L 159.318806 29.454468 
L 158.112495 28.912221 
L 156.906184 29.768612 
L 155.699873 29.455851 
L 154.493562 29.772522 
L 153.287252 29.399235 
L 152.080941 29.822084 
L 150.87463 29.330283 
L 149.668319 28.58239 
L 148.462008 28.327337 
L 147.255697 29.241266 
L 146.049386 28.893684 
L 144.843075 28.416117 
L 143.636765 29.28058 
L 142.430454 28.898867 
L 141.224143 28.788831 
L 140.017832 29.273479 
L 138.811521 30.33199 
L 137.60521 30.155653 
L 136.398899 30.164395 
L 135.192588 30.652119 
L 133.986277 29.482576 
L 132.779967 29.831101 
L 131.573656 29.755661 
L 130.367345 30.41551 
L 129.161034 30.383851 
L 127.954723 29.39137 
L 126.748412 29.708166 
L 125.542101 30.53271 
L 124.33579 29.294164 
L 123.129479 28.781207 
L 121.923169 29.460061 
L 120.716858 29.656218 
L 119.510547 29.389139 
L 118.304236 29.64501 
L 117.097925 28.79108 
L 115.891614 28.987537 
L 114.685303 30.204732 
L 113.478992 29.457985 
L 112.272681 30.0843 
L 111.066371 30.322869 
L 109.86006 30.066377 
L 108.653749 30.071025 
L 107.447438 30.341321 
L 106.241127 30.610616 
L 105.034816 31.635572 
L 103.828505 30.106875 
L 102.622194 29.986116 
L 101.415884 30.630503 
L 100.209573 30.865433 
L 99.003262 30.546789 
L 97.796951 29.857138 
L 96.59064 31.169193 
L 95.384329 31.435487 
L 94.178018 30.295571 
L 92.971707 30.146466 
L 91.765396 29.716884 
L 90.559086 30.178711 
L 89.352775 29.891977 
L 88.146464 30.086994 
L 86.940153 30.107721 
L 85.733842 28.810554 
L 84.527531 29.73536 
L 83.32122 29.87626 
L 82.114909 28.877391 
L 80.908598 29.138872 
L 79.702288 29.796292 
L 78.495977 29.736514 
L 77.289666 29.489059 
L 76.083355 29.552892 
L 74.877044 30.599504 
L 73.670733 32.023744 
L 72.464422 35.885899 
L 71.258111 38.4896 
L 70.0518 43.951675 
L 68.84549 57.906159 
L 67.639179 57.376703 
L 66.432868 57.369534 
L 65.226557 57.2716 
L 64.020246 56.97362 
L 62.813935 57.008626 
L 61.607624 56.908315 
L 60.401313 56.36963 
L 59.195003 56.149083 
L 57.988692 56.45761 
L 56.782381 56.393515 
L 55.57607 55.924088 
L 54.369759 55.630144 
L 53.163448 55.575614 
L 51.957137 55.727864 
L 50.750826 55.947662 
L 49.544515 56.676175 
L 48.338205 56.940099 
L 47.131894 57.681783 
L 45.925583 57.044369 
z
" clip-path="url(#p40829e49d9)" style="fill: #1f77b4; fill-opacity: 0.15"/>
   </g>
   <g id="patch_4">
    <path d="M 45.925583 57.580916 
L 47.131894 59.052329 
L 48.338205 59.04751 
L 49.544515 58.996819 
L 50.750826 59.043477 
L 51.957137 59.016877 
L 53.163448 58.929554 
L 54.369759 59.060965 
L 55.57607 59.032965 
L 56.782381 58.98594 
L 57.988692 58.819111 
L 59.195003 58.852569 
L 60.401313 58.939699 
L 61.607624 58.950859 
L 62.813935 59.02953 
L 64.020246 59.074697 
L 65.226557 59.072282 
L 66.432868 59.060666 
L 67.639179 59.071934 
L 68.84549 59.082585 
L 70.0518 54.070634 
L 71.258111 53.478381 
L 72.464422 52.961007 
L 73.670733 52.901602 
L 74.877044 52.926899 
L 76.083355 52.84636 
L 77.289666 52.731795 
L 78.495977 52.643663 
L 79.702288 52.582218 
L 80.908598 52.543277 
L 82.114909 52.52813 
L 83.32122 52.520629 
L 84.527531 52.495987 
L 85.733842 52.517366 
L 86.940153 52.479281 
L 88.146464 52.47471 
L 89.352775 52.469642 
L 90.559086 52.467032 
L 91.765396 52.458046 
L 92.971707 52.452536 
L 94.178018 52.458476 
L 95.384329 52.476068 
L 96.59064 52.440599 
L 97.796951 52.452909 
L 99.003262 52.439952 
L 100.209573 52.46774 
L 101.415884 52.440439 
L 102.622194 52.44303 
L 103.828505 52.439148 
L 105.034816 52.436957 
L 106.241127 52.439943 
L 107.447438 52.436536 
L 108.653749 52.443298 
L 109.86006 52.44661 
L 111.066371 52.442808 
L 112.272681 52.439606 
L 113.478992 52.44005 
L 114.685303 52.435919 
L 115.891614 52.437546 
L 117.097925 52.444107 
L 118.304236 52.44095 
L 119.510547 52.446903 
L 120.716858 52.442981 
L 121.923169 52.441134 
L 123.129479 52.459138 
L 124.33579 52.447449 
L 125.542101 52.450409 
L 126.748412 52.436999 
L 127.954723 52.436217 
L 129.161034 52.437231 
L 130.367345 52.441901 
L 131.573656 52.440503 
L 132.779967 52.438272 
L 133.986277 52.439136 
L 135.192588 52.438713 
L 136.398899 52.440311 
L 137.60521 52.440586 
L 138.811521 52.442643 
L 140.017832 52.442078 
L 141.224143 52.442703 
L 142.430454 52.442884 
L 143.636765 52.439359 
L 144.843075 52.438895 
L 146.049386 52.440656 
L 147.255697 52.439838 
L 148.462008 52.441593 
L 149.668319 52.440517 
L 150.87463 52.43838 
L 152.080941 52.440038 
L 153.287252 52.444337 
L 154.493562 52.442756 
L 155.699873 52.43872 
L 156.906184 52.439538 
L 158.112495 52.440199 
L 159.318806 52.441891 
L 160.525117 52.443694 
L 161.731428 52.438237 
L 162.937739 52.47118 
L 164.14405 52.455397 
L 165.35036 52.446477 
L 165.35036 52.435313 
L 164.14405 52.439992 
L 162.937739 52.436191 
L 161.731428 52.43442 
L 160.525117 52.437111 
L 159.318806 52.436643 
L 158.112495 52.435258 
L 156.906184 52.43496 
L 155.699873 52.434653 
L 154.493562 52.4366 
L 153.287252 52.436873 
L 152.080941 52.435821 
L 150.87463 52.434486 
L 149.668319 52.436766 
L 148.462008 52.436479 
L 147.255697 52.436618 
L 146.049386 52.435925 
L 144.843075 52.435196 
L 143.636765 52.435219 
L 142.430454 52.438496 
L 141.224143 52.437092 
L 140.017832 52.435555 
L 138.811521 52.436946 
L 137.60521 52.435568 
L 136.398899 52.435539 
L 135.192588 52.436111 
L 133.986277 52.436628 
L 132.779967 52.435082 
L 131.573656 52.43668 
L 130.367345 52.436369 
L 129.161034 52.435272 
L 127.954723 52.435195 
L 126.748412 52.436243 
L 125.542101 52.440071 
L 124.33579 52.440831 
L 123.129479 52.440674 
L 121.923169 52.436428 
L 120.716858 52.438688 
L 119.510547 52.437707 
L 118.304236 52.435342 
L 117.097925 52.438331 
L 115.891614 52.435593 
L 114.685303 52.435214 
L 113.478992 52.436932 
L 112.272681 52.435866 
L 111.066371 52.438202 
L 109.86006 52.437469 
L 108.653749 52.439151 
L 107.447438 52.434296 
L 106.241127 52.436624 
L 105.034816 52.435299 
L 103.828505 52.436722 
L 102.622194 52.435492 
L 101.415884 52.43652 
L 100.209573 52.442019 
L 99.003262 52.436167 
L 97.796951 52.436628 
L 96.59064 52.434832 
L 95.384329 52.440379 
L 94.178018 52.443377 
L 92.971707 52.44272 
L 91.765396 52.446977 
L 90.559086 52.458936 
L 89.352775 52.458215 
L 88.146464 52.458842 
L 86.940153 52.46519 
L 85.733842 52.4691 
L 84.527531 52.478375 
L 83.32122 52.501553 
L 82.114909 52.508936 
L 80.908598 52.515727 
L 79.702288 52.53644 
L 78.495977 52.568483 
L 77.289666 52.640906 
L 76.083355 52.653135 
L 74.877044 52.66222 
L 73.670733 52.703326 
L 72.464422 52.807864 
L 71.258111 53.027803 
L 70.0518 53.263234 
L 68.84549 59.050152 
L 67.639179 59.050148 
L 66.432868 59.015575 
L 65.226557 59.052357 
L 64.020246 58.941604 
L 62.813935 58.852268 
L 61.607624 58.627952 
L 60.401313 58.697821 
L 59.195003 58.604974 
L 57.988692 58.620357 
L 56.782381 58.881136 
L 55.57607 58.929892 
L 54.369759 58.782781 
L 53.163448 58.777174 
L 51.957137 58.950202 
L 50.750826 59.00511 
L 49.544515 58.961051 
L 48.338205 59.017479 
L 47.131894 59.029879 
L 45.925583 57.413449 
z
" clip-path="url(#p40829e49d9)" style="fill: #ff7f0e; fill-opacity: 0.15"/>
   </g>
   <g id="patch_5">
    <path d="M 45.925583 57.557682 
L 47.131894 59.055798 
L 48.338205 59.083945 
L 49.544515 59.076139 
L 50.750826 59.059781 
L 51.957137 59.064754 
L 53.163448 59.053002 
L 54.369759 59.054732 
L 55.57607 59.060444 
L 56.782381 59.062187 
L 57.988692 59.034072 
L 59.195003 58.994388 
L 60.401313 59.036229 
L 61.607624 59.062029 
L 62.813935 59.051073 
L 64.020246 59.063721 
L 65.226557 59.043545 
L 66.432868 59.040264 
L 67.639179 59.046083 
L 68.84549 59.01691 
L 70.0518 58.975838 
L 71.258111 58.882234 
L 72.464422 58.91269 
L 73.670733 58.949493 
L 74.877044 58.927419 
L 76.083355 56.702559 
L 77.289666 54.450146 
L 78.495977 52.319123 
L 79.702288 50.568095 
L 80.908598 49.731823 
L 82.114909 47.916724 
L 83.32122 44.382218 
L 84.527531 41.690926 
L 85.733842 40.442004 
L 86.940153 39.073593 
L 88.146464 38.346052 
L 89.352775 38.626174 
L 90.559086 37.88938 
L 91.765396 37.765196 
L 92.971707 37.203627 
L 94.178018 37.369175 
L 95.384329 37.362802 
L 96.59064 38.398528 
L 97.796951 37.18572 
L 99.003262 37.000051 
L 100.209573 37.209077 
L 101.415884 37.149365 
L 102.622194 36.975241 
L 103.828505 37.756296 
L 105.034816 37.860973 
L 106.241127 38.733597 
L 107.447438 37.730253 
L 108.653749 37.020708 
L 109.86006 37.533969 
L 111.066371 41.044375 
L 112.272681 37.682855 
L 113.478992 37.641252 
L 114.685303 37.794359 
L 115.891614 37.672138 
L 117.097925 37.229124 
L 118.304236 37.769526 
L 119.510547 37.482879 
L 120.716858 37.311795 
L 121.923169 37.455363 
L 123.129479 37.396229 
L 124.33579 37.142871 
L 125.542101 37.203717 
L 126.748412 37.095403 
L 127.954723 36.803043 
L 129.161034 36.842256 
L 130.367345 36.746982 
L 131.573656 37.869376 
L 132.779967 37.089476 
L 133.986277 36.744019 
L 135.192588 36.918612 
L 136.398899 37.295517 
L 137.60521 37.144942 
L 138.811521 37.0276 
L 140.017832 37.155602 
L 141.224143 37.116998 
L 142.430454 36.759525 
L 143.636765 37.381945 
L 144.843075 36.819581 
L 146.049386 37.550204 
L 147.255697 39.325052 
L 148.462008 37.484125 
L 149.668319 37.269065 
L 150.87463 37.153365 
L 152.080941 36.820143 
L 153.287252 37.107919 
L 154.493562 37.010131 
L 155.699873 37.330933 
L 156.906184 37.279123 
L 158.112495 37.3611 
L 159.318806 37.701178 
L 160.525117 37.401706 
L 161.731428 38.247487 
L 162.937739 37.800916 
L 164.14405 37.936722 
L 165.35036 37.727116 
L 165.35036 27.698101 
L 164.14405 28.081434 
L 162.937739 27.900506 
L 161.731428 28.410573 
L 160.525117 27.314161 
L 159.318806 27.726992 
L 158.112495 27.242843 
L 156.906184 27.148293 
L 155.699873 27.247543 
L 154.493562 26.720623 
L 153.287252 26.856358 
L 152.080941 26.405292 
L 150.87463 26.949442 
L 149.668319 27.05842 
L 148.462008 27.382024 
L 147.255697 29.737037 
L 146.049386 27.583545 
L 144.843075 26.401016 
L 143.636765 27.265314 
L 142.430454 26.299104 
L 141.224143 26.871952 
L 140.017832 26.906559 
L 138.811521 26.720534 
L 137.60521 26.914832 
L 136.398899 27.134727 
L 135.192588 26.549979 
L 133.986277 26.278013 
L 132.779967 26.834181 
L 131.573656 27.873705 
L 130.367345 26.277559 
L 129.161034 26.436219 
L 127.954723 26.372609 
L 126.748412 26.83499 
L 125.542101 26.984669 
L 124.33579 26.942274 
L 123.129479 27.305824 
L 121.923169 27.410979 
L 120.716858 27.207196 
L 119.510547 27.422956 
L 118.304236 27.883786 
L 117.097925 27.078202 
L 115.891614 27.58461 
L 114.685303 27.819904 
L 113.478992 27.747076 
L 112.272681 27.835633 
L 111.066371 32.273276 
L 109.86006 27.170107 
L 108.653749 26.734117 
L 107.447438 27.813761 
L 106.241127 29.43376 
L 105.034816 27.984645 
L 103.828505 27.88491 
L 102.622194 26.652127 
L 101.415884 26.941371 
L 100.209573 27.009441 
L 99.003262 26.698027 
L 97.796951 26.995127 
L 96.59064 28.415834 
L 95.384329 27.264354 
L 94.178018 27.307531 
L 92.971707 27.013064 
L 91.765396 27.933764 
L 90.559086 28.146992 
L 89.352775 29.233868 
L 88.146464 28.849238 
L 86.940153 30.013087 
L 85.733842 32.186981 
L 84.527531 34.228199 
L 83.32122 38.217864 
L 82.114909 43.082021 
L 80.908598 45.983367 
L 79.702288 48.338605 
L 78.495977 50.899082 
L 77.289666 53.766307 
L 76.083355 56.17279 
L 74.877044 58.539081 
L 73.670733 58.700452 
L 72.464422 58.662019 
L 71.258111 58.573092 
L 70.0518 58.739373 
L 68.84549 58.79033 
L 67.639179 58.855112 
L 66.432868 58.884891 
L 65.226557 58.945592 
L 64.020246 59.011616 
L 62.813935 59.001537 
L 61.607624 58.946708 
L 60.401313 58.817586 
L 59.195003 58.785861 
L 57.988692 58.93163 
L 56.782381 58.998711 
L 55.57607 59.046787 
L 54.369759 59.008972 
L 53.163448 58.990985 
L 51.957137 59.03082 
L 50.750826 59.031754 
L 49.544515 59.058243 
L 48.338205 59.045191 
L 47.131894 59.035118 
L 45.925583 57.421572 
z
" clip-path="url(#p40829e49d9)" style="fill: #2ca02c; fill-opacity: 0.15"/>
   </g>
   <g id="line2d_11">
    <path d="M 45.925583 57.12852 
L 47.131894 58.090564 
L 48.338205 57.631613 
L 49.544515 57.364536 
L 50.750826 57.035871 
L 51.957137 56.755887 
L 53.163448 56.579994 
L 54.369759 56.585629 
L 55.57607 56.791557 
L 56.782381 57.262316 
L 57.988692 57.274539 
L 59.195003 56.992432 
L 60.401313 57.122909 
L 61.607624 57.371009 
L 62.813935 57.378038 
L 64.020246 57.392949 
L 65.226557 57.595799 
L 66.432868 57.672954 
L 67.639179 57.627968 
L 68.84549 58.000031 
L 70.0518 46.669606 
L 71.258111 42.417227 
L 72.464422 39.698405 
L 73.670733 36.238966 
L 74.877044 34.987966 
L 76.083355 34.136652 
L 77.289666 34.088246 
L 78.495977 34.288242 
L 79.702288 34.361861 
L 80.908598 33.837506 
L 82.114909 33.613298 
L 83.32122 34.408457 
L 84.527531 34.309452 
L 85.733842 33.541685 
L 86.940153 34.588621 
L 88.146464 34.584047 
L 89.352775 34.41306 
L 90.559086 34.666798 
L 91.765396 34.307306 
L 92.971707 34.6492 
L 94.178018 34.738869 
L 95.384329 35.693499 
L 96.59064 35.438951 
L 97.796951 34.38736 
L 99.003262 34.971514 
L 100.209573 35.239063 
L 101.415884 35.001812 
L 102.622194 34.490687 
L 103.828505 34.583618 
L 105.034816 35.817542 
L 106.241127 35.00418 
L 107.447438 34.812387 
L 108.653749 34.610148 
L 109.86006 34.548902 
L 111.066371 34.794665 
L 112.272681 34.569593 
L 113.478992 34.056565 
L 114.685303 34.676744 
L 115.891614 33.686615 
L 117.097925 33.531728 
L 118.304236 34.219258 
L 119.510547 34.01333 
L 120.716858 34.250343 
L 121.923169 35.212824 
L 123.129479 34.726925 
L 124.33579 35.094335 
L 125.542101 37.841301 
L 126.748412 35.41343 
L 127.954723 34.03889 
L 129.161034 34.815476 
L 130.367345 34.865292 
L 131.573656 34.367383 
L 132.779967 34.401013 
L 133.986277 34.109162 
L 135.192588 35.061786 
L 136.398899 34.722244 
L 137.60521 34.681371 
L 138.811521 34.829299 
L 140.017832 33.918378 
L 141.224143 33.543229 
L 142.430454 33.662874 
L 143.636765 33.960785 
L 144.843075 33.229015 
L 146.049386 33.606763 
L 147.255697 33.899655 
L 148.462008 33.158092 
L 149.668319 33.366822 
L 150.87463 33.97642 
L 152.080941 34.34599 
L 153.287252 34.011805 
L 154.493562 34.328191 
L 155.699873 34.070214 
L 156.906184 34.325033 
L 158.112495 33.623283 
L 159.318806 34.056345 
L 160.525117 33.146712 
L 161.731428 33.748899 
L 162.937739 34.079341 
L 164.14405 34.137655 
L 165.35036 33.832395 
" clip-path="url(#p40829e49d9)" style="fill: none; stroke: #1f77b4; stroke-linecap: round"/>
   </g>
   <g id="line2d_12">
    <path d="M 45.925583 57.497182 
L 47.131894 59.041104 
L 48.338205 59.032494 
L 49.544515 58.978935 
L 50.750826 59.024293 
L 51.957137 58.983539 
L 53.163448 58.853364 
L 54.369759 58.921873 
L 55.57607 58.981429 
L 56.782381 58.933538 
L 57.988692 58.719734 
L 59.195003 58.728771 
L 60.401313 58.81876 
L 61.607624 58.789406 
L 62.813935 58.940899 
L 64.020246 59.00815 
L 65.226557 59.06232 
L 66.432868 59.038121 
L 67.639179 59.061041 
L 68.84549 59.066368 
L 70.0518 53.666934 
L 71.258111 53.253092 
L 72.464422 52.884436 
L 73.670733 52.802464 
L 74.877044 52.794559 
L 76.083355 52.749747 
L 77.289666 52.686351 
L 78.495977 52.606073 
L 79.702288 52.559329 
L 80.908598 52.529502 
L 82.114909 52.518533 
L 83.32122 52.511091 
L 84.527531 52.487181 
L 85.733842 52.493233 
L 86.940153 52.472236 
L 88.146464 52.466776 
L 89.352775 52.463928 
L 90.559086 52.462984 
L 91.765396 52.452512 
L 92.971707 52.447628 
L 94.178018 52.450927 
L 95.384329 52.458224 
L 96.59064 52.437715 
L 97.796951 52.444769 
L 99.003262 52.438059 
L 100.209573 52.454879 
L 101.415884 52.438479 
L 102.622194 52.439261 
L 103.828505 52.437935 
L 105.034816 52.436128 
L 106.241127 52.438283 
L 107.447438 52.435416 
L 108.653749 52.441225 
L 109.86006 52.44204 
L 111.066371 52.440505 
L 112.272681 52.437736 
L 113.478992 52.438491 
L 114.685303 52.435567 
L 115.891614 52.43657 
L 117.097925 52.441219 
L 118.304236 52.438146 
L 119.510547 52.442305 
L 120.716858 52.440834 
L 121.923169 52.438781 
L 123.129479 52.449906 
L 124.33579 52.44414 
L 125.542101 52.44524 
L 126.748412 52.436621 
L 127.954723 52.435706 
L 129.161034 52.436252 
L 130.367345 52.439135 
L 131.573656 52.438592 
L 132.779967 52.436677 
L 133.986277 52.437882 
L 135.192588 52.437412 
L 136.398899 52.437925 
L 137.60521 52.438077 
L 138.811521 52.439795 
L 140.017832 52.438817 
L 141.224143 52.439897 
L 142.430454 52.44069 
L 143.636765 52.437289 
L 144.843075 52.437046 
L 146.049386 52.43829 
L 147.255697 52.438228 
L 148.462008 52.439036 
L 149.668319 52.438641 
L 150.87463 52.436433 
L 152.080941 52.43793 
L 153.287252 52.440605 
L 154.493562 52.439678 
L 155.699873 52.436686 
L 156.906184 52.437249 
L 158.112495 52.437728 
L 159.318806 52.439267 
L 160.525117 52.440402 
L 161.731428 52.436329 
L 162.937739 52.453685 
L 164.14405 52.447695 
L 165.35036 52.440895 
" clip-path="url(#p40829e49d9)" style="fill: none; stroke: #ff7f0e; stroke-linecap: round"/>
   </g>
   <g id="line2d_13">
    <path d="M 45.925583 57.489627 
L 47.131894 59.045458 
L 48.338205 59.064568 
L 49.544515 59.067191 
L 50.750826 59.045768 
L 51.957137 59.047787 
L 53.163448 59.021994 
L 54.369759 59.031852 
L 55.57607 59.053616 
L 56.782381 59.030449 
L 57.988692 58.982851 
L 59.195003 58.890124 
L 60.401313 58.926908 
L 61.607624 59.004368 
L 62.813935 59.026305 
L 64.020246 59.037668 
L 65.226557 58.994568 
L 66.432868 58.962577 
L 67.639179 58.950597 
L 68.84549 58.90362 
L 70.0518 58.857605 
L 71.258111 58.727663 
L 72.464422 58.787354 
L 73.670733 58.824973 
L 74.877044 58.73325 
L 76.083355 56.437675 
L 77.289666 54.108227 
L 78.495977 51.609103 
L 79.702288 49.45335 
L 80.908598 47.857595 
L 82.114909 45.499372 
L 83.32122 41.300041 
L 84.527531 37.959563 
L 85.733842 36.314492 
L 86.940153 34.54334 
L 88.146464 33.597645 
L 89.352775 33.930021 
L 90.559086 33.018186 
L 91.765396 32.84948 
L 92.971707 32.108346 
L 94.178018 32.338353 
L 95.384329 32.313578 
L 96.59064 33.407181 
L 97.796951 32.090423 
L 99.003262 31.849039 
L 100.209573 32.109259 
L 101.415884 32.045368 
L 102.622194 31.813684 
L 103.828505 32.820603 
L 105.034816 32.922809 
L 106.241127 34.083678 
L 107.447438 32.772007 
L 108.653749 31.877412 
L 109.86006 32.352038 
L 111.066371 36.658826 
L 112.272681 32.759244 
L 113.478992 32.694164 
L 114.685303 32.807131 
L 115.891614 32.628374 
L 117.097925 32.153663 
L 118.304236 32.826656 
L 119.510547 32.452917 
L 120.716858 32.259495 
L 121.923169 32.433171 
L 123.129479 32.351027 
L 124.33579 32.042572 
L 125.542101 32.094193 
L 126.748412 31.965197 
L 127.954723 31.587826 
L 129.161034 31.639237 
L 130.367345 31.512271 
L 131.573656 32.871541 
L 132.779967 31.961828 
L 133.986277 31.511016 
L 135.192588 31.734295 
L 136.398899 32.215122 
L 137.60521 32.029887 
L 138.811521 31.874067 
L 140.017832 32.031081 
L 141.224143 31.994475 
L 142.430454 31.529314 
L 143.636765 32.32363 
L 144.843075 31.610299 
L 146.049386 32.566874 
L 147.255697 34.531045 
L 148.462008 32.433075 
L 149.668319 32.163742 
L 150.87463 32.051404 
L 152.080941 31.612718 
L 153.287252 31.982138 
L 154.493562 31.865377 
L 155.699873 32.289238 
L 156.906184 32.213708 
L 158.112495 32.301972 
L 159.318806 32.714085 
L 160.525117 32.357934 
L 161.731428 33.32903 
L 162.937739 32.850711 
L 164.14405 33.009078 
L 165.35036 32.712608 
" clip-path="url(#p40829e49d9)" style="fill: none; stroke: #2ca02c; stroke-linecap: round"/>
   </g>
   <g id="line2d_14">
    <path d="M 68.84549 60.724264 
L 68.84549 24.63724 
" clip-path="url(#p40829e49d9)" style="fill: none; stroke-dasharray: 5.55,2.4; stroke-dashoffset: 0; stroke: #000000; stroke-width: 1.5"/>
   </g>
   <g id="patch_6">
    <path d="M 39.954344 60.724264 
L 39.954344 24.63724 
" style="fill: none; stroke: #262626; stroke-width: 1.25; stroke-linejoin: miter; stroke-linecap: square"/>
   </g>
   <g id="patch_7">
    <path d="M 171.321599 60.724264 
L 171.321599 24.63724 
" style="fill: none; stroke: #262626; stroke-width: 1.25; stroke-linejoin: miter; stroke-linecap: square"/>
   </g>
   <g id="patch_8">
    <path d="M 39.954344 60.724264 
L 171.321599 60.724264 
" style="fill: none; stroke: #262626; stroke-width: 1.25; stroke-linejoin: miter; stroke-linecap: square"/>
   </g>
   <g id="patch_9">
    <path d="M 39.954344 24.63724 
L 171.321599 24.63724 
" style="fill: none; stroke: #262626; stroke-width: 1.25; stroke-linejoin: miter; stroke-linecap: square"/>
   </g>
  </g>
  <g id="axes_2">
   <g id="patch_10">
    <path d="M 39.954344 111.163522 
L 171.321599 111.163522 
L 171.321599 75.076498 
L 39.954344 75.076498 
z
" style="fill: #ffffff"/>
   </g>
   <g id="matplotlib.axis_3">
    <g id="xtick_7">
     <g id="line2d_15">
      <g>
       <use xlink:href="#mdfb111e0ef" x="44.719272" y="111.163522" style="fill: #262626; stroke: #262626; stroke-width: 1.25"/>
      </g>
     </g>
     <g id="text_4">
      <!-- $\mathdefault{0}$ -->
      <g style="fill: #262626" transform="translate(42.733653 125.391717) scale(0.07 -0.07)">
       <use xlink:href="#CMR17-30" transform="scale(0.996264)"/>
      </g>
     </g>
    </g>
    <g id="xtick_8">
     <g id="line2d_16">
      <g>
       <use xlink:href="#mdfb111e0ef" x="68.84549" y="111.163522" style="fill: #262626; stroke: #262626; stroke-width: 1.25"/>
      </g>
     </g>
     <g id="text_5">
      <!-- $\mathdefault{1000}$ -->
      <g style="fill: #262626" transform="translate(60.903014 125.391717) scale(0.07 -0.07)">
       <defs>
        <path id="CMR17-31" d="M 1702 4058 
C 1702 4192 1696 4192 1606 4192 
C 1357 3916 979 3827 621 3827 
C 602 3827 570 3827 563 3808 
C 557 3795 557 3782 557 3648 
C 755 3648 1088 3686 1344 3839 
L 1344 461 
C 1344 236 1331 160 781 160 
L 589 160 
L 589 0 
C 896 0 1216 0 1523 0 
C 1830 0 2150 0 2458 0 
L 2458 160 
L 2266 160 
C 1715 160 1702 230 1702 458 
L 1702 4058 
z
" transform="scale(0.015625)"/>
       </defs>
       <use xlink:href="#CMR17-31" transform="scale(0.996264)"/>
       <use xlink:href="#CMR17-30" transform="translate(45.690477 0) scale(0.996264)"/>
       <use xlink:href="#CMR17-30" transform="translate(91.380954 0) scale(0.996264)"/>
       <use xlink:href="#CMR17-30" transform="translate(137.071431 0) scale(0.996264)"/>
      </g>
     </g>
    </g>
    <g id="xtick_9">
     <g id="line2d_17">
      <g>
       <use xlink:href="#mdfb111e0ef" x="92.971707" y="111.163522" style="fill: #262626; stroke: #262626; stroke-width: 1.25"/>
      </g>
     </g>
     <g id="text_6">
      <!-- $\mathdefault{2000}$ -->
      <g style="fill: #262626" transform="translate(85.029232 125.391717) scale(0.07 -0.07)">
       <defs>
        <path id="CMR17-32" d="M 2669 989 
L 2554 989 
C 2490 536 2438 459 2413 420 
C 2381 369 1920 369 1830 369 
L 602 369 
C 832 619 1280 1072 1824 1597 
C 2214 1967 2669 2402 2669 3035 
C 2669 3790 2067 4224 1395 4224 
C 691 4224 262 3604 262 3030 
C 262 2780 448 2748 525 2748 
C 589 2748 781 2787 781 3010 
C 781 3207 614 3264 525 3264 
C 486 3264 448 3258 422 3245 
C 544 3790 915 4058 1306 4058 
C 1862 4058 2227 3617 2227 3035 
C 2227 2479 1901 2000 1536 1584 
L 262 146 
L 262 0 
L 2515 0 
L 2669 989 
z
" transform="scale(0.015625)"/>
       </defs>
       <use xlink:href="#CMR17-32" transform="scale(0.996264)"/>
       <use xlink:href="#CMR17-30" transform="translate(45.690477 0) scale(0.996264)"/>
       <use xlink:href="#CMR17-30" transform="translate(91.380954 0) scale(0.996264)"/>
       <use xlink:href="#CMR17-30" transform="translate(137.071431 0) scale(0.996264)"/>
      </g>
     </g>
    </g>
    <g id="xtick_10">
     <g id="line2d_18">
      <g>
       <use xlink:href="#mdfb111e0ef" x="117.097925" y="111.163522" style="fill: #262626; stroke: #262626; stroke-width: 1.25"/>
      </g>
     </g>
     <g id="text_7">
      <!-- $\mathdefault{3000}$ -->
      <g style="fill: #262626" transform="translate(109.15545 125.391717) scale(0.07 -0.07)">
       <defs>
        <path id="CMR17-33" d="M 1414 2157 
C 1984 2157 2234 1662 2234 1090 
C 2234 320 1824 25 1453 25 
C 1114 25 563 194 390 693 
C 422 680 454 680 486 680 
C 640 680 755 782 755 948 
C 755 1133 614 1216 486 1216 
C 378 1216 211 1165 211 926 
C 211 335 787 -128 1466 -128 
C 2176 -128 2720 430 2720 1085 
C 2720 1707 2208 2157 1600 2227 
C 2086 2328 2554 2756 2554 3329 
C 2554 3820 2048 4179 1472 4179 
C 890 4179 378 3829 378 3329 
C 378 3110 544 3072 627 3072 
C 762 3072 877 3155 877 3321 
C 877 3486 762 3569 627 3569 
C 602 3569 570 3569 544 3557 
C 730 3959 1235 4032 1459 4032 
C 1683 4032 2106 3925 2106 3320 
C 2106 3143 2080 2828 1862 2550 
C 1670 2304 1453 2304 1242 2284 
C 1210 2284 1062 2269 1037 2269 
C 992 2263 966 2257 966 2208 
C 966 2163 973 2157 1101 2157 
L 1414 2157 
z
" transform="scale(0.015625)"/>
       </defs>
       <use xlink:href="#CMR17-33" transform="scale(0.996264)"/>
       <use xlink:href="#CMR17-30" transform="translate(45.690477 0) scale(0.996264)"/>
       <use xlink:href="#CMR17-30" transform="translate(91.380954 0) scale(0.996264)"/>
       <use xlink:href="#CMR17-30" transform="translate(137.071431 0) scale(0.996264)"/>
      </g>
     </g>
    </g>
    <g id="xtick_11">
     <g id="line2d_19">
      <g>
       <use xlink:href="#mdfb111e0ef" x="141.224143" y="111.163522" style="fill: #262626; stroke: #262626; stroke-width: 1.25"/>
      </g>
     </g>
     <g id="text_8">
      <!-- $\mathdefault{4000}$ -->
      <g style="fill: #262626" transform="translate(133.281668 125.391717) scale(0.07 -0.07)">
       <defs>
        <path id="CMR17-34" d="M 2150 4122 
C 2150 4256 2144 4256 2029 4256 
L 128 1254 
L 128 1088 
L 1779 1088 
L 1779 457 
C 1779 224 1766 160 1318 160 
L 1197 160 
L 1197 0 
C 1402 0 1747 0 1965 0 
C 2182 0 2528 0 2733 0 
L 2733 160 
L 2611 160 
C 2163 160 2150 224 2150 457 
L 2150 1088 
L 2803 1088 
L 2803 1254 
L 2150 1254 
L 2150 4122 
z
M 1798 3703 
L 1798 1254 
L 256 1254 
L 1798 3703 
z
" transform="scale(0.015625)"/>
       </defs>
       <use xlink:href="#CMR17-34" transform="scale(0.996264)"/>
       <use xlink:href="#CMR17-30" transform="translate(45.690477 0) scale(0.996264)"/>
       <use xlink:href="#CMR17-30" transform="translate(91.380954 0) scale(0.996264)"/>
       <use xlink:href="#CMR17-30" transform="translate(137.071431 0) scale(0.996264)"/>
      </g>
     </g>
    </g>
    <g id="xtick_12">
     <g id="line2d_20">
      <g>
       <use xlink:href="#mdfb111e0ef" x="165.35036" y="111.163522" style="fill: #262626; stroke: #262626; stroke-width: 1.25"/>
      </g>
     </g>
     <g id="text_9">
      <!-- $\mathdefault{5000}$ -->
      <g style="fill: #262626" transform="translate(157.407885 125.391717) scale(0.07 -0.07)">
       <use xlink:href="#CMR17-35" transform="scale(0.996264)"/>
       <use xlink:href="#CMR17-30" transform="translate(45.690477 0) scale(0.996264)"/>
       <use xlink:href="#CMR17-30" transform="translate(91.380954 0) scale(0.996264)"/>
       <use xlink:href="#CMR17-30" transform="translate(137.071431 0) scale(0.996264)"/>
      </g>
     </g>
    </g>
    <g id="text_10">
     <!-- Episodes -->
     <g style="fill: #262626" transform="translate(89.449366 136.980614) scale(0.09 -0.09)">
      <defs>
       <path id="NimbusRomNo9L-Regu-45" d="M 3821 1078 
L 3642 1078 
C 3322 389 3046 237 2131 237 
L 1958 237 
C 1645 237 1376 269 1331 315 
C 1299 334 1286 404 1286 514 
L 1286 2106 
L 2272 2106 
C 2797 2106 2893 2020 2976 1472 
L 3123 1472 
L 3123 2957 
L 2976 2957 
C 2931 2703 2906 2610 2835 2523 
C 2752 2417 2573 2368 2272 2368 
L 1286 2368 
L 1286 3766 
C 1286 3943 1325 3981 1498 3981 
L 2362 3981 
C 3085 3981 3226 3886 3334 3314 
L 3494 3314 
L 3475 4224 
L 77 4224 
L 77 4102 
C 550 4064 634 3974 634 3525 
L 634 679 
C 634 230 544 134 77 134 
L 77 0 
L 3533 0 
L 3821 1078 
z
" transform="scale(0.015625)"/>
       <path id="NimbusRomNo9L-Regu-70" d="M 58 2516 
C 115 2522 160 2522 218 2522 
C 435 2522 480 2458 480 2155 
L 480 -855 
C 480 -1189 410 -1261 32 -1299 
L 32 -1408 
L 1581 -1408 
L 1581 -1293 
C 1101 -1293 1018 -1222 1018 -816 
L 1018 199 
C 1242 -13 1395 -77 1664 -77 
C 2419 -77 3008 643 3008 1575 
C 3008 2372 2560 2944 1939 2944 
C 1581 2944 1299 2784 1018 2438 
L 1018 2931 
L 979 2944 
C 634 2810 410 2726 58 2618 
L 58 2516 
z
M 1018 2136 
C 1018 2329 1376 2560 1670 2560 
C 2144 2560 2458 2071 2458 1324 
C 2458 611 2144 128 1683 128 
C 1382 128 1018 359 1018 552 
L 1018 2136 
z
" transform="scale(0.015625)"/>
       <path id="NimbusRomNo9L-Regu-69" d="M 1120 2929 
L 128 2579 
L 128 2484 
L 179 2490 
C 256 2502 339 2509 397 2509 
C 550 2509 608 2406 608 2125 
L 608 640 
C 608 179 544 109 102 109 
L 102 0 
L 1619 0 
L 1619 96 
C 1197 128 1146 191 1146 650 
L 1146 2910 
L 1120 2929 
z
M 819 4352 
C 646 4352 499 4205 499 4026 
C 499 3847 640 3699 819 3699 
C 1005 3699 1152 3840 1152 4026 
C 1152 4205 1005 4352 819 4352 
z
" transform="scale(0.015625)"/>
       <path id="NimbusRomNo9L-Regu-73" d="M 2016 2010 
L 1990 2880 
L 1920 2880 
L 1907 2867 
C 1850 2822 1843 2816 1818 2816 
C 1779 2816 1715 2829 1645 2861 
C 1504 2915 1363 2944 1197 2944 
C 691 2944 326 2616 326 2154 
C 326 1796 531 1539 1075 1231 
L 1446 1020 
C 1670 892 1779 737 1779 539 
C 1779 256 1574 77 1248 77 
C 1030 77 832 159 710 298 
C 576 455 518 600 435 960 
L 333 960 
L 333 -39 
L 416 -39 
C 461 33 486 48 563 48 
C 621 48 710 35 858 -2 
C 1037 -39 1210 -64 1325 -64 
C 1818 -64 2227 308 2227 757 
C 2227 1077 2074 1289 1690 1520 
L 998 1930 
C 819 2033 723 2194 723 2367 
C 723 2624 922 2803 1216 2803 
C 1581 2803 1773 2583 1920 2010 
L 2016 2010 
z
" transform="scale(0.015625)"/>
       <path id="NimbusRomNo9L-Regu-6f" d="M 1600 2944 
C 768 2944 186 2330 186 1446 
C 186 582 781 -64 1587 -64 
C 2394 -64 3008 614 3008 1498 
C 3008 2336 2419 2944 1600 2944 
z
M 1517 2765 
C 2054 2765 2432 2150 2432 1274 
C 2432 550 2144 115 1664 115 
C 1414 115 1178 269 1043 525 
C 864 858 762 1306 762 1760 
C 762 2368 1062 2765 1517 2765 
z
" transform="scale(0.015625)"/>
       <path id="NimbusRomNo9L-Regu-64" d="M 2202 -64 
L 3142 269 
L 3142 365 
C 3027 365 3014 365 2995 365 
C 2765 365 2714 435 2714 731 
L 2714 4364 
L 2682 4377 
C 2374 4268 2150 4204 1741 4096 
L 1741 3994 
C 1792 4000 1830 4000 1882 4000 
C 2118 4000 2176 3936 2176 3672 
L 2176 2669 
C 1933 2874 1760 2944 1504 2944 
C 768 2944 173 2221 173 1312 
C 173 493 653 -64 1357 -64 
C 1715 -64 1958 64 2176 365 
L 2176 -45 
L 2202 -64 
z
M 2176 653 
C 2176 608 2131 531 2067 461 
C 1952 333 1792 269 1606 269 
C 1075 269 723 781 723 1568 
C 723 2291 1037 2765 1523 2765 
C 1862 2765 2176 2464 2176 2125 
L 2176 653 
z
" transform="scale(0.015625)"/>
       <path id="NimbusRomNo9L-Regu-65" d="M 2611 1053 
C 2304 564 2029 378 1619 378 
C 1254 378 979 564 794 930 
C 678 1174 634 1386 621 1779 
L 2592 1779 
C 2541 2193 2477 2377 2317 2581 
C 2125 2811 1830 2944 1498 2944 
C 1178 2944 877 2829 634 2611 
C 333 2349 160 1894 160 1370 
C 160 486 621 -64 1357 -64 
C 1965 -64 2445 315 2714 1008 
L 2611 1053 
z
M 634 1984 
C 704 2479 922 2714 1312 2714 
C 1702 2714 1856 2535 1939 1984 
L 634 1984 
z
" transform="scale(0.015625)"/>
      </defs>
      <use xlink:href="#NimbusRomNo9L-Regu-45" transform="scale(0.996264)"/>
      <use xlink:href="#NimbusRomNo9L-Regu-70" transform="translate(60.871631 0) scale(0.996264)"/>
      <use xlink:href="#NimbusRomNo9L-Regu-69" transform="translate(110.684831 0) scale(0.996264)"/>
      <use xlink:href="#NimbusRomNo9L-Regu-73" transform="translate(138.380001 0) scale(0.996264)"/>
      <use xlink:href="#NimbusRomNo9L-Regu-6f" transform="translate(177.133707 0) scale(0.996264)"/>
      <use xlink:href="#NimbusRomNo9L-Regu-64" transform="translate(226.946907 0) scale(0.996264)"/>
      <use xlink:href="#NimbusRomNo9L-Regu-65" transform="translate(276.760108 0) scale(0.996264)"/>
      <use xlink:href="#NimbusRomNo9L-Regu-73" transform="translate(320.993677 0) scale(0.996264)"/>
     </g>
    </g>
   </g>
   <g id="matplotlib.axis_4">
    <g id="ytick_3">
     <g id="line2d_21">
      <path d="M 39.954344 109.523203 
L 171.321599 109.523203 
" clip-path="url(#p8359410beb)" style="fill: none; stroke: #dcdcdc; stroke-width: 0.5; stroke-linecap: round"/>
     </g>
     <g id="line2d_22">
      <g>
       <use xlink:href="#mb47f629263" x="39.954344" y="109.523203" style="fill: #262626; stroke: #262626; stroke-width: 1.25"/>
      </g>
     </g>
     <g id="text_11">
      <!-- $\mathdefault{0}$ -->
      <g style="fill: #262626" transform="translate(26.483106 111.8873) scale(0.07 -0.07)">
       <use xlink:href="#CMR17-30" transform="scale(0.996264)"/>
      </g>
     </g>
    </g>
    <g id="ytick_4">
     <g id="line2d_23">
      <path d="M 39.954344 75.088841 
L 171.321599 75.088841 
" clip-path="url(#p8359410beb)" style="fill: none; stroke: #dcdcdc; stroke-width: 0.5; stroke-linecap: round"/>
     </g>
     <g id="line2d_24">
      <g>
       <use xlink:href="#mb47f629263" x="39.954344" y="75.088841" style="fill: #262626; stroke: #262626; stroke-width: 1.25"/>
      </g>
     </g>
     <g id="text_12">
      <!-- $\mathdefault{1000}$ -->
      <g style="fill: #262626" transform="translate(14.569393 77.452939) scale(0.07 -0.07)">
       <use xlink:href="#CMR17-31" transform="scale(0.996264)"/>
       <use xlink:href="#CMR17-30" transform="translate(45.690477 0) scale(0.996264)"/>
       <use xlink:href="#CMR17-30" transform="translate(91.380954 0) scale(0.996264)"/>
       <use xlink:href="#CMR17-30" transform="translate(137.071431 0) scale(0.996264)"/>
      </g>
     </g>
    </g>
    <g id="text_13">
     <!-- $\hat{J}_c$ -->
     <g style="fill: #262626" transform="translate(8.628247 97.329908) rotate(-90) scale(0.09 -0.09)">
      <defs>
       <path id="CMMI12-63" d="M 2502 2431 
C 2381 2431 2323 2431 2234 2355 
C 2195 2323 2125 2227 2125 2125 
C 2125 1997 2221 1920 2342 1920 
C 2496 1920 2669 2044 2669 2292 
C 2669 2588 2374 2816 1933 2816 
C 1094 2816 256 1903 256 996 
C 256 441 602 -64 1254 -64 
C 2125 -64 2675 622 2675 706 
C 2675 744 2637 776 2611 776 
C 2592 776 2586 770 2528 713 
C 2118 162 1510 64 1267 64 
C 826 64 685 446 685 764 
C 685 988 794 1605 1024 2039 
C 1190 2338 1536 2682 1939 2682 
C 2022 2682 2374 2682 2502 2431 
z
" transform="scale(0.015625)"/>
      </defs>
      <use xlink:href="#CMR17-5e" transform="translate(24.984403 25.189733) scale(0.996264)"/>
      <use xlink:href="#CMMI12-4a" transform="scale(0.996264)"/>
      <use xlink:href="#CMMI12-63" transform="translate(53.917955 -14.943915) scale(0.697382)"/>
     </g>
    </g>
   </g>
   <g id="patch_11">
    <path d="M 45.925583 93.003021 
L 47.131894 108.954383 
L 48.338205 109.515286 
L 49.544515 109.47577 
L 50.750826 109.5201 
L 51.957137 109.486616 
L 53.163448 109.521439 
L 54.369759 109.516152 
L 55.57607 109.523203 
L 56.782381 109.523203 
L 57.988692 109.506206 
L 59.195003 109.523203 
L 60.401313 109.523203 
L 61.607624 109.523203 
L 62.813935 109.523203 
L 64.020246 109.523203 
L 65.226557 109.512779 
L 66.432868 109.523203 
L 67.639179 109.523203 
L 68.84549 109.513605 
L 70.0518 109.514857 
L 71.258111 109.506055 
L 72.464422 109.503185 
L 73.670733 109.421106 
L 74.877044 109.385331 
L 76.083355 109.43028 
L 77.289666 109.492912 
L 78.495977 109.408018 
L 79.702288 109.254272 
L 80.908598 109.405948 
L 82.114909 109.19553 
L 83.32122 109.076613 
L 84.527531 109.213123 
L 85.733842 109.151867 
L 86.940153 108.980371 
L 88.146464 108.792387 
L 89.352775 108.899446 
L 90.559086 109.056665 
L 91.765396 109.003266 
L 92.971707 108.750347 
L 94.178018 108.801099 
L 95.384329 108.661951 
L 96.59064 108.887339 
L 97.796951 108.890589 
L 99.003262 108.903675 
L 100.209573 108.75498 
L 101.415884 108.602702 
L 102.622194 108.877133 
L 103.828505 108.3774 
L 105.034816 108.513198 
L 106.241127 108.678124 
L 107.447438 108.555774 
L 108.653749 108.600034 
L 109.86006 108.700487 
L 111.066371 108.66027 
L 112.272681 108.273265 
L 113.478992 108.402263 
L 114.685303 108.622975 
L 115.891614 108.408771 
L 117.097925 108.524527 
L 118.304236 108.463361 
L 119.510547 108.602207 
L 120.716858 108.227814 
L 121.923169 108.631674 
L 123.129479 108.603747 
L 124.33579 108.586917 
L 125.542101 108.871079 
L 126.748412 108.431168 
L 127.954723 108.494056 
L 129.161034 108.442657 
L 130.367345 108.506572 
L 131.573656 108.41525 
L 132.779967 108.414233 
L 133.986277 108.408027 
L 135.192588 108.36957 
L 136.398899 108.499917 
L 137.60521 108.380072 
L 138.811521 108.50727 
L 140.017832 108.460368 
L 141.224143 108.428978 
L 142.430454 108.294587 
L 143.636765 108.40445 
L 144.843075 108.345732 
L 146.049386 108.395877 
L 147.255697 108.353705 
L 148.462008 108.453576 
L 149.668319 108.407239 
L 150.87463 108.245773 
L 152.080941 108.171498 
L 153.287252 108.324954 
L 154.493562 108.38141 
L 155.699873 108.424911 
L 156.906184 107.859306 
L 158.112495 108.344907 
L 159.318806 108.370187 
L 160.525117 108.408785 
L 161.731428 108.418047 
L 162.937739 108.256795 
L 164.14405 108.421538 
L 165.35036 108.396504 
L 165.35036 107.584692 
L 164.14405 107.636516 
L 162.937739 107.553882 
L 161.731428 107.646067 
L 160.525117 107.63219 
L 159.318806 107.572167 
L 158.112495 107.533537 
L 156.906184 107.585265 
L 155.699873 107.682728 
L 154.493562 107.500064 
L 153.287252 107.468919 
L 152.080941 107.304477 
L 150.87463 107.350034 
L 149.668319 107.66018 
L 148.462008 107.730921 
L 147.255697 107.539614 
L 146.049386 107.599093 
L 144.843075 107.681468 
L 143.636765 107.64837 
L 142.430454 107.439232 
L 141.224143 107.696842 
L 140.017832 107.738178 
L 138.811521 107.817443 
L 137.60521 107.716824 
L 136.398899 107.801381 
L 135.192588 107.540553 
L 133.986277 107.635702 
L 132.779967 107.673296 
L 131.573656 107.640324 
L 130.367345 107.766352 
L 129.161034 107.702998 
L 127.954723 107.783275 
L 126.748412 107.842583 
L 125.542101 107.49771 
L 124.33579 107.597304 
L 123.129479 107.65864 
L 121.923169 107.670657 
L 120.716858 107.537961 
L 119.510547 107.945365 
L 118.304236 107.582572 
L 117.097925 107.926353 
L 115.891614 107.715122 
L 114.685303 107.92873 
L 113.478992 107.735954 
L 112.272681 107.49802 
L 111.066371 108.008787 
L 109.86006 108.10796 
L 108.653749 108.006491 
L 107.447438 108.06232 
L 106.241127 107.989004 
L 105.034816 107.701325 
L 103.828505 107.874037 
L 102.622194 108.283647 
L 101.415884 108.18233 
L 100.209573 107.969448 
L 99.003262 108.233689 
L 97.796951 108.284791 
L 96.59064 108.331566 
L 95.384329 107.199413 
L 94.178018 107.887516 
L 92.971707 108.328341 
L 91.765396 108.392493 
L 90.559086 108.288407 
L 89.352775 108.300176 
L 88.146464 108.241674 
L 86.940153 108.462495 
L 85.733842 108.794567 
L 84.527531 108.732209 
L 83.32122 108.67203 
L 82.114909 108.676801 
L 80.908598 109.023393 
L 79.702288 108.945599 
L 78.495977 109.127381 
L 77.289666 109.457352 
L 76.083355 109.141206 
L 74.877044 109.288632 
L 73.670733 109.149003 
L 72.464422 109.253145 
L 71.258111 109.384155 
L 70.0518 109.198224 
L 68.84549 109.449056 
L 67.639179 109.376099 
L 66.432868 109.518795 
L 65.226557 109.461177 
L 64.020246 109.520723 
L 62.813935 109.521274 
L 61.607624 109.359295 
L 60.401313 109.433398 
L 59.195003 109.50695 
L 57.988692 109.451496 
L 56.782381 109.51907 
L 55.57607 109.523203 
L 54.369759 109.422543 
L 53.163448 109.504856 
L 51.957137 109.346572 
L 50.750826 109.481953 
L 49.544515 106.93131 
L 48.338205 96.343861 
L 47.131894 95.821046 
L 45.925583 87.828957 
z
" clip-path="url(#p8359410beb)" style="fill: #1f77b4; fill-opacity: 0.15"/>
   </g>
   <g id="patch_12">
    <path d="M 45.925583 86.21189 
L 47.131894 82.957632 
L 48.338205 82.101993 
L 49.544515 83.40784 
L 50.750826 81.051548 
L 51.957137 85.091726 
L 53.163448 92.084243 
L 54.369759 89.921355 
L 55.57607 85.993644 
L 56.782381 87.06235 
L 57.988692 99.04961 
L 59.195003 98.127518 
L 60.401313 95.84392 
L 61.607624 95.844932 
L 62.813935 90.449938 
L 64.020246 84.706496 
L 65.226557 81.214354 
L 66.432868 82.667933 
L 67.639179 81.422626 
L 68.84549 82.867063 
L 70.0518 106.455579 
L 71.258111 107.190566 
L 72.464422 109.220091 
L 73.670733 109.304763 
L 74.877044 109.523203 
L 76.083355 108.939512 
L 77.289666 109.523203 
L 78.495977 108.974198 
L 79.702288 109.523203 
L 80.908598 108.876014 
L 82.114909 109.519244 
L 83.32122 109.413564 
L 84.527531 109.112824 
L 85.733842 106.814471 
L 86.940153 104.041386 
L 88.146464 103.36493 
L 89.352775 103.892513 
L 90.559086 104.49045 
L 91.765396 106.238485 
L 92.971707 104.519382 
L 94.178018 104.007327 
L 95.384329 105.186703 
L 96.59064 106.256258 
L 97.796951 106.511935 
L 99.003262 106.059688 
L 100.209573 107.058814 
L 101.415884 106.728788 
L 102.622194 107.031841 
L 103.828505 106.762581 
L 105.034816 107.730356 
L 106.241127 101.850263 
L 107.447438 103.362404 
L 108.653749 103.504548 
L 109.86006 102.687797 
L 111.066371 102.504253 
L 112.272681 104.679043 
L 113.478992 102.708522 
L 114.685303 104.626667 
L 115.891614 105.332271 
L 117.097925 101.919668 
L 118.304236 103.338879 
L 119.510547 103.864923 
L 120.716858 103.719409 
L 121.923169 104.507112 
L 123.129479 101.172282 
L 124.33579 101.594292 
L 125.542101 102.756995 
L 126.748412 102.547854 
L 127.954723 103.169354 
L 129.161034 101.624525 
L 130.367345 101.796306 
L 131.573656 101.928485 
L 132.779967 105.16955 
L 133.986277 104.473714 
L 135.192588 103.59583 
L 136.398899 103.156789 
L 137.60521 104.999562 
L 138.811521 105.876393 
L 140.017832 106.129819 
L 141.224143 105.015529 
L 142.430454 103.013786 
L 143.636765 105.359882 
L 144.843075 106.735609 
L 146.049386 104.326159 
L 147.255697 106.734314 
L 148.462008 104.053712 
L 149.668319 106.016111 
L 150.87463 106.190346 
L 152.080941 105.49392 
L 153.287252 106.583438 
L 154.493562 105.386059 
L 155.699873 103.690754 
L 156.906184 105.633025 
L 158.112495 106.769033 
L 159.318806 103.724296 
L 160.525117 106.785657 
L 161.731428 105.491064 
L 162.937739 105.955465 
L 164.14405 105.814848 
L 165.35036 105.842797 
L 165.35036 96.589717 
L 164.14405 96.688188 
L 162.937739 97.315871 
L 161.731428 94.609556 
L 160.525117 97.544053 
L 159.318806 94.86066 
L 158.112495 97.631199 
L 156.906184 95.5874 
L 155.699873 92.948799 
L 154.493562 95.074331 
L 153.287252 98.961116 
L 152.080941 97.606897 
L 150.87463 95.584059 
L 149.668319 95.868484 
L 148.462008 95.068421 
L 147.255697 98.857071 
L 146.049386 94.045029 
L 144.843075 96.949765 
L 143.636765 94.698315 
L 142.430454 94.926283 
L 141.224143 96.170737 
L 140.017832 96.329692 
L 138.811521 94.482898 
L 137.60521 95.10877 
L 136.398899 91.896305 
L 135.192588 92.828577 
L 133.986277 94.462198 
L 132.779967 94.023379 
L 131.573656 92.687429 
L 130.367345 92.356535 
L 129.161034 91.584263 
L 127.954723 92.378216 
L 126.748412 92.197533 
L 125.542101 92.248716 
L 124.33579 93.018042 
L 123.129479 90.217546 
L 121.923169 94.324395 
L 120.716858 93.618748 
L 119.510547 95.722487 
L 118.304236 92.38472 
L 117.097925 93.459862 
L 115.891614 95.727552 
L 114.685303 93.237648 
L 113.478992 92.842354 
L 112.272681 99.789231 
L 111.066371 91.535644 
L 109.86006 93.114037 
L 108.653749 96.061926 
L 107.447438 94.544884 
L 106.241127 92.957107 
L 105.034816 100.943594 
L 103.828505 98.945329 
L 102.622194 99.712131 
L 101.415884 97.467317 
L 100.209573 99.308308 
L 99.003262 96.522134 
L 97.796951 96.150601 
L 96.59064 95.93797 
L 95.384329 94.397677 
L 94.178018 93.333585 
L 92.971707 93.658974 
L 91.765396 95.460164 
L 90.559086 92.194831 
L 89.352775 92.293608 
L 88.146464 91.209939 
L 86.940153 92.702848 
L 85.733842 101.079608 
L 84.527531 99.573522 
L 83.32122 99.30639 
L 82.114909 102.755162 
L 80.908598 103.737502 
L 79.702288 100.468618 
L 78.495977 99.723993 
L 77.289666 98.40421 
L 76.083355 100.478771 
L 74.877044 109.513217 
L 73.670733 97.385216 
L 72.464422 97.198545 
L 71.258111 99.413465 
L 70.0518 98.259245 
L 68.84549 77.829352 
L 67.639179 78.218997 
L 66.432868 78.948569 
L 65.226557 78.087333 
L 64.020246 79.09645 
L 62.813935 81.521941 
L 61.607624 83.477994 
L 60.401313 84.511211 
L 59.195003 88.20707 
L 57.988692 90.886261 
L 56.782381 82.241279 
L 55.57607 80.956878 
L 54.369759 81.146415 
L 53.163448 85.301819 
L 51.957137 81.300684 
L 50.750826 79.736601 
L 49.544515 82.552901 
L 48.338205 79.919733 
L 47.131894 79.679504 
L 45.925583 84.490876 
z
" clip-path="url(#p8359410beb)" style="fill: #ff7f0e; fill-opacity: 0.15"/>
   </g>
   <g id="patch_13">
    <path d="M 45.925583 84.091662 
L 47.131894 81.787541 
L 48.338205 79.374485 
L 49.544515 79.018411 
L 50.750826 79.765728 
L 51.957137 81.400412 
L 53.163448 84.754511 
L 54.369759 84.324232 
L 55.57607 80.229812 
L 56.782381 83.456689 
L 57.988692 90.596042 
L 59.195003 91.079174 
L 60.401313 89.311299 
L 61.607624 87.825568 
L 62.813935 89.504855 
L 64.020246 89.307156 
L 65.226557 89.432689 
L 66.432868 88.054488 
L 67.639179 89.321578 
L 68.84549 92.044437 
L 70.0518 94.046992 
L 71.258111 95.842514 
L 72.464422 95.217407 
L 73.670733 95.171799 
L 74.877044 96.145232 
L 76.083355 106.519567 
L 77.289666 106.881408 
L 78.495977 106.354421 
L 79.702288 106.154496 
L 80.908598 106.654414 
L 82.114909 107.533669 
L 83.32122 107.464439 
L 84.527531 107.629822 
L 85.733842 107.733305 
L 86.940153 107.928348 
L 88.146464 107.954723 
L 89.352775 107.794574 
L 90.559086 107.91424 
L 91.765396 108.003279 
L 92.971707 108.126327 
L 94.178018 108.089177 
L 95.384329 108.19439 
L 96.59064 108.119361 
L 97.796951 108.012504 
L 99.003262 108.070707 
L 100.209573 108.158482 
L 101.415884 108.202848 
L 102.622194 108.251343 
L 103.828505 108.161584 
L 105.034816 107.85159 
L 106.241127 107.874251 
L 107.447438 108.126718 
L 108.653749 108.234458 
L 109.86006 107.226523 
L 111.066371 107.501324 
L 112.272681 108.108174 
L 113.478992 108.117378 
L 114.685303 107.14546 
L 115.891614 106.704886 
L 117.097925 107.26324 
L 118.304236 107.063062 
L 119.510547 107.245467 
L 120.716858 107.343943 
L 121.923169 107.06386 
L 123.129479 107.394557 
L 124.33579 107.41219 
L 125.542101 107.400929 
L 126.748412 107.271292 
L 127.954723 107.438534 
L 129.161034 107.452161 
L 130.367345 107.491453 
L 131.573656 106.984354 
L 132.779967 107.305516 
L 133.986277 107.447052 
L 135.192588 107.352815 
L 136.398899 107.379557 
L 137.60521 107.330172 
L 138.811521 107.428138 
L 140.017832 107.393565 
L 141.224143 107.3682 
L 142.430454 107.527439 
L 143.636765 107.379593 
L 144.843075 107.490541 
L 146.049386 107.119175 
L 147.255697 106.891734 
L 148.462008 107.293766 
L 149.668319 107.42655 
L 150.87463 107.463171 
L 152.080941 107.501126 
L 153.287252 107.410391 
L 154.493562 107.518113 
L 155.699873 107.469734 
L 156.906184 107.515208 
L 158.112495 107.56055 
L 159.318806 107.512401 
L 160.525117 107.572888 
L 161.731428 106.735919 
L 162.937739 107.233305 
L 164.14405 107.376444 
L 165.35036 107.371453 
L 165.35036 99.39621 
L 164.14405 99.857322 
L 162.937739 99.435462 
L 161.731428 98.119948 
L 160.525117 98.274964 
L 159.318806 98.16383 
L 158.112495 98.556441 
L 156.906184 98.743652 
L 155.699873 100.111131 
L 154.493562 98.964434 
L 153.287252 97.830866 
L 152.080941 98.292183 
L 150.87463 97.89654 
L 149.668319 98.81716 
L 148.462008 98.603121 
L 147.255697 97.59059 
L 146.049386 99.210758 
L 144.843075 99.78372 
L 143.636765 98.156697 
L 142.430454 98.813238 
L 141.224143 99.235831 
L 140.017832 98.814058 
L 138.811521 98.378393 
L 137.60521 99.265044 
L 136.398899 98.492537 
L 135.192588 97.904419 
L 133.986277 100.573746 
L 132.779967 100.077282 
L 131.573656 99.300677 
L 130.367345 100.270674 
L 129.161034 103.34019 
L 127.954723 101.722179 
L 126.748412 100.324173 
L 125.542101 100.903884 
L 124.33579 103.172453 
L 123.129479 103.244079 
L 121.923169 102.704551 
L 120.716858 104.171805 
L 119.510547 101.450244 
L 118.304236 101.844765 
L 117.097925 103.831858 
L 115.891614 102.41919 
L 114.685303 105.732511 
L 113.478992 107.157225 
L 112.272681 107.143014 
L 111.066371 105.962307 
L 109.86006 103.403573 
L 108.653749 107.365756 
L 107.447438 107.129429 
L 106.241127 106.705053 
L 105.034816 105.986686 
L 103.828505 107.243319 
L 102.622194 107.391019 
L 101.415884 107.314173 
L 100.209573 107.247247 
L 99.003262 107.280753 
L 97.796951 106.947507 
L 96.59064 107.309508 
L 95.384329 107.297012 
L 94.178018 107.079919 
L 92.971707 107.121279 
L 91.765396 106.962241 
L 90.559086 106.770847 
L 89.352775 106.516142 
L 88.146464 106.784081 
L 86.940153 106.6179 
L 85.733842 106.43747 
L 84.527531 106.248124 
L 83.32122 105.6992 
L 82.114909 106.069077 
L 80.908598 104.40074 
L 79.702288 103.821899 
L 78.495977 103.830783 
L 77.289666 103.96714 
L 76.083355 105.086537 
L 74.877044 83.787045 
L 73.670733 84.018348 
L 72.464422 84.998609 
L 71.258111 84.847594 
L 70.0518 83.443475 
L 68.84549 82.295699 
L 67.639179 79.870759 
L 66.432868 78.391364 
L 65.226557 80.100686 
L 64.020246 81.694225 
L 62.813935 82.483276 
L 61.607624 80.029889 
L 60.401313 80.900019 
L 59.195003 81.422718 
L 57.988692 81.718527 
L 56.782381 79.645173 
L 55.57607 79.061957 
L 54.369759 79.594964 
L 53.163448 80.537101 
L 51.957137 78.89326 
L 50.750826 78.896305 
L 49.544515 77.534036 
L 48.338205 76.716817 
L 47.131894 78.309166 
L 45.925583 82.584487 
z
" clip-path="url(#p8359410beb)" style="fill: #2ca02c; fill-opacity: 0.15"/>
   </g>
   <g id="line2d_25">
    <path d="M 45.925583 90.415989 
L 47.131894 102.387714 
L 48.338205 102.929573 
L 49.544515 108.20354 
L 50.750826 109.501027 
L 51.957137 109.416594 
L 53.163448 109.513148 
L 54.369759 109.469347 
L 55.57607 109.523203 
L 56.782381 109.521137 
L 57.988692 109.478851 
L 59.195003 109.515076 
L 60.401313 109.4783 
L 61.607624 109.441249 
L 62.813935 109.522238 
L 64.020246 109.521963 
L 65.226557 109.486978 
L 66.432868 109.520999 
L 67.639179 109.449651 
L 68.84549 109.48133 
L 70.0518 109.35654 
L 71.258111 109.445105 
L 72.464422 109.378165 
L 73.670733 109.285055 
L 74.877044 109.336982 
L 76.083355 109.285743 
L 77.289666 109.475132 
L 78.495977 109.2677 
L 79.702288 109.099935 
L 80.908598 109.214671 
L 82.114909 108.936166 
L 83.32122 108.874321 
L 84.527531 108.972666 
L 85.733842 108.973217 
L 86.940153 108.721433 
L 88.146464 108.517031 
L 89.352775 108.599811 
L 90.559086 108.672536 
L 91.765396 108.69788 
L 92.971707 108.539344 
L 94.178018 108.344308 
L 95.384329 107.930682 
L 96.59064 108.609452 
L 97.796951 108.58769 
L 99.003262 108.568682 
L 100.209573 108.362214 
L 101.415884 108.392516 
L 102.622194 108.58039 
L 103.828505 108.125718 
L 105.034816 108.107262 
L 106.241127 108.333564 
L 107.447438 108.309047 
L 108.653749 108.303262 
L 109.86006 108.404224 
L 111.066371 108.334528 
L 112.272681 107.885642 
L 113.478992 108.069108 
L 114.685303 108.275852 
L 115.891614 108.061946 
L 117.097925 108.22544 
L 118.304236 108.022966 
L 119.510547 108.273786 
L 120.716858 107.882887 
L 121.923169 108.151165 
L 123.129479 108.131194 
L 124.33579 108.092111 
L 125.542101 108.184395 
L 126.748412 108.136875 
L 127.954723 108.138666 
L 129.161034 108.072827 
L 130.367345 108.136462 
L 131.573656 108.027787 
L 132.779967 108.043765 
L 133.986277 108.021864 
L 135.192588 107.955062 
L 136.398899 108.150649 
L 137.60521 108.048448 
L 138.811521 108.162357 
L 140.017832 108.099273 
L 141.224143 108.06291 
L 142.430454 107.86691 
L 143.636765 108.02641 
L 144.843075 108.0136 
L 146.049386 107.997485 
L 147.255697 107.94666 
L 148.462008 108.092248 
L 149.668319 108.03371 
L 150.87463 107.797903 
L 152.080941 107.737988 
L 153.287252 107.896937 
L 154.493562 107.940737 
L 155.699873 108.05382 
L 156.906184 107.722285 
L 158.112495 107.939222 
L 159.318806 107.971177 
L 160.525117 108.020487 
L 161.731428 108.032057 
L 162.937739 107.905339 
L 164.14405 108.029027 
L 165.35036 107.990598 
" clip-path="url(#p8359410beb)" style="fill: none; stroke: #1f77b4; stroke-linecap: round"/>
   </g>
   <g id="line2d_26">
    <path d="M 45.925583 85.351383 
L 47.131894 81.318568 
L 48.338205 81.010863 
L 49.544515 82.98037 
L 50.750826 80.394074 
L 51.957137 83.196205 
L 53.163448 88.693031 
L 54.369759 85.533885 
L 55.57607 83.475261 
L 56.782381 84.651814 
L 57.988692 94.967936 
L 59.195003 93.167294 
L 60.401313 90.177565 
L 61.607624 89.661463 
L 62.813935 85.985939 
L 64.020246 81.901473 
L 65.226557 79.650843 
L 66.432868 80.808251 
L 67.639179 79.820811 
L 68.84549 80.348208 
L 70.0518 102.357412 
L 71.258111 103.302015 
L 72.464422 103.209318 
L 73.670733 103.344989 
L 74.877044 109.51821 
L 76.083355 104.709141 
L 77.289666 103.963706 
L 78.495977 104.349095 
L 79.702288 104.99591 
L 80.908598 106.306758 
L 82.114909 106.137203 
L 83.32122 104.359977 
L 84.527531 104.343173 
L 85.733842 103.94704 
L 86.940153 98.372117 
L 88.146464 97.287434 
L 89.352775 98.093061 
L 90.559086 98.342641 
L 91.765396 100.849325 
L 92.971707 99.089178 
L 94.178018 98.670456 
L 95.384329 99.79219 
L 96.59064 101.097114 
L 97.796951 101.331268 
L 99.003262 101.290911 
L 100.209573 103.183561 
L 101.415884 102.098052 
L 102.622194 103.371986 
L 103.828505 102.853955 
L 105.034816 104.336975 
L 106.241127 97.403685 
L 107.447438 98.953644 
L 108.653749 99.783237 
L 109.86006 97.900917 
L 111.066371 97.019948 
L 112.272681 102.234137 
L 113.478992 97.775438 
L 114.685303 98.932157 
L 115.891614 100.529912 
L 117.097925 97.689765 
L 118.304236 97.8618 
L 119.510547 99.793705 
L 120.716858 98.669079 
L 121.923169 99.415753 
L 123.129479 95.694914 
L 124.33579 97.306167 
L 125.542101 97.502856 
L 126.748412 97.372694 
L 127.954723 97.773785 
L 129.161034 96.604394 
L 130.367345 97.076421 
L 131.573656 97.307957 
L 132.779967 99.596465 
L 133.986277 99.467956 
L 135.192588 98.212204 
L 136.398899 97.526547 
L 137.60521 100.054166 
L 138.811521 100.179645 
L 140.017832 101.229756 
L 141.224143 100.593133 
L 142.430454 98.970035 
L 143.636765 100.029098 
L 144.843075 101.842687 
L 146.049386 99.185594 
L 147.255697 102.795693 
L 148.462008 99.561066 
L 149.668319 100.942297 
L 150.87463 100.887202 
L 152.080941 101.550408 
L 153.287252 102.772277 
L 154.493562 100.230195 
L 155.699873 98.319777 
L 156.906184 100.610212 
L 158.112495 102.200116 
L 159.318806 99.292478 
L 160.525117 102.164855 
L 161.731428 100.05031 
L 162.937739 101.635668 
L 164.14405 101.251518 
L 165.35036 101.216257 
" clip-path="url(#p8359410beb)" style="fill: none; stroke: #ff7f0e; stroke-linecap: round"/>
   </g>
   <g id="line2d_27">
    <path d="M 45.925583 83.338075 
L 47.131894 80.048353 
L 48.338205 78.045651 
L 49.544515 78.276223 
L 50.750826 79.331017 
L 51.957137 80.146836 
L 53.163448 82.645806 
L 54.369759 81.959598 
L 55.57607 79.645885 
L 56.782381 81.550931 
L 57.988692 86.157285 
L 59.195003 86.250946 
L 60.401313 85.105659 
L 61.607624 83.927729 
L 62.813935 85.994066 
L 64.020246 85.50069 
L 65.226557 84.766687 
L 66.432868 83.222926 
L 67.639179 84.596168 
L 68.84549 87.170068 
L 70.0518 88.745233 
L 71.258111 90.345054 
L 72.464422 90.108008 
L 73.670733 89.595074 
L 74.877044 89.966138 
L 76.083355 105.803052 
L 77.289666 105.424274 
L 78.495977 105.092602 
L 79.702288 104.988197 
L 80.908598 105.527577 
L 82.114909 106.801373 
L 83.32122 106.581819 
L 84.527531 106.938973 
L 85.733842 107.085388 
L 86.940153 107.273124 
L 88.146464 107.369402 
L 89.352775 107.155358 
L 90.559086 107.342543 
L 91.765396 107.48276 
L 92.971707 107.623803 
L 94.178018 107.584548 
L 95.384329 107.745701 
L 96.59064 107.714434 
L 97.796951 107.480005 
L 99.003262 107.67573 
L 100.209573 107.702864 
L 101.415884 107.75851 
L 102.622194 107.821181 
L 103.828505 107.702451 
L 105.034816 106.919138 
L 106.241127 107.289652 
L 107.447438 107.628073 
L 108.653749 107.800107 
L 109.86006 105.315048 
L 111.066371 106.731816 
L 112.272681 107.625594 
L 113.478992 107.637301 
L 114.685303 106.438986 
L 115.891614 104.562038 
L 117.097925 105.547549 
L 118.304236 104.453914 
L 119.510547 104.347856 
L 120.716858 105.757874 
L 121.923169 104.884205 
L 123.129479 105.319318 
L 124.33579 105.292321 
L 125.542101 104.152406 
L 126.748412 103.797732 
L 127.954723 104.580357 
L 129.161034 105.396176 
L 130.367345 103.881064 
L 131.573656 103.142515 
L 132.779967 103.691399 
L 133.986277 104.010399 
L 135.192588 102.628617 
L 136.398899 102.936047 
L 137.60521 103.297608 
L 138.811521 102.903265 
L 140.017832 103.103811 
L 141.224143 103.302015 
L 142.430454 103.170338 
L 143.636765 102.768145 
L 144.843075 103.637131 
L 146.049386 103.164967 
L 147.255697 102.241162 
L 148.462008 102.948443 
L 149.668319 103.121855 
L 150.87463 102.679855 
L 152.080941 102.896654 
L 153.287252 102.620628 
L 154.493562 103.241273 
L 155.699873 103.790432 
L 156.906184 103.12943 
L 158.112495 103.058496 
L 159.318806 102.838116 
L 160.525117 102.923926 
L 161.731428 102.427934 
L 162.937739 103.334384 
L 164.14405 103.616883 
L 165.35036 103.383831 
" clip-path="url(#p8359410beb)" style="fill: none; stroke: #2ca02c; stroke-linecap: round"/>
   </g>
   <g id="line2d_28">
    <path d="M 39.954344 106.079766 
L 171.321599 106.079766 
" clip-path="url(#p8359410beb)" style="fill: none; stroke-dasharray: 1.25,1.25; stroke-dashoffset: 0; stroke: #000000; stroke-width: 1.25"/>
   </g>
   <g id="line2d_29">
    <path d="M 68.84549 111.163522 
L 68.84549 75.076498 
" clip-path="url(#p8359410beb)" style="fill: none; stroke-dasharray: 5.55,2.4; stroke-dashoffset: 0; stroke: #000000; stroke-width: 1.5"/>
   </g>
   <g id="patch_14">
    <path d="M 39.954344 111.163522 
L 39.954344 75.076498 
" style="fill: none; stroke: #262626; stroke-width: 1.25; stroke-linejoin: miter; stroke-linecap: square"/>
   </g>
   <g id="patch_15">
    <path d="M 171.321599 111.163522 
L 171.321599 75.076498 
" style="fill: none; stroke: #262626; stroke-width: 1.25; stroke-linejoin: miter; stroke-linecap: square"/>
   </g>
   <g id="patch_16">
    <path d="M 39.954344 111.163522 
L 171.321599 111.163522 
" style="fill: none; stroke: #262626; stroke-width: 1.25; stroke-linejoin: miter; stroke-linecap: square"/>
   </g>
   <g id="patch_17">
    <path d="M 39.954344 75.076498 
L 171.321599 75.076498 
" style="fill: none; stroke: #262626; stroke-width: 1.25; stroke-linejoin: miter; stroke-linecap: square"/>
   </g>
  </g>
  <g id="legend_1">
   <g id="line2d_30">
    <path d="M 4.37976 6.33 
L 11.37976 6.33 
L 18.37976 6.33 
" style="fill: none; stroke: #1f77b4; stroke-linecap: round"/>
   </g>
   <g id="text_14">
    <!-- \textsc{ActSafe} (Ours) -->
    <g transform="translate(21.87976 8.78) scale(0.07 -0.07)">
     <defs>
      <path id="NimbusRomNo9L-Regu-41" d="M 4518 128 
C 4230 128 4166 192 3942 667 
L 2349 4320 
L 2221 4320 
L 890 1168 
C 480 231 403 128 96 128 
L 96 0 
L 1363 0 
L 1363 128 
C 1056 128 928 212 928 393 
C 928 470 947 560 979 645 
L 1274 1401 
L 2950 1401 
L 3213 778 
C 3290 602 3334 434 3334 342 
C 3334 180 3226 128 2886 128 
L 2886 0 
L 4518 0 
L 4518 128 
z
M 1382 1664 
L 2118 3416 
L 2861 1664 
L 1382 1664 
z
" transform="scale(0.015625)"/>
      <path id="NimbusRomNo9L-Regu-43" d="M 3968 2906 
L 3910 4352 
L 3776 4352 
C 3738 4218 3635 4141 3507 4141 
C 3450 4141 3354 4160 3258 4199 
C 2944 4301 2624 4352 2323 4352 
C 1798 4352 1267 4154 870 3802 
C 422 3405 179 2810 179 2106 
C 179 1511 371 960 698 596 
C 1082 180 1670 -64 2304 -64 
C 3027 -64 3661 231 4051 749 
L 3936 864 
C 3462 410 3040 218 2509 218 
C 2106 218 1747 346 1472 589 
C 1120 903 922 1479 922 2189 
C 922 3348 1517 4096 2445 4096 
C 2810 4096 3142 3962 3398 3706 
C 3603 3501 3699 3322 3821 2906 
L 3968 2906 
z
" transform="scale(0.015625)"/>
      <path id="NimbusRomNo9L-Regu-54" d="M 1626 3968 
L 1626 751 
C 1626 204 1555 134 1024 134 
L 1024 0 
L 2893 0 
L 2893 134 
C 2368 134 2278 217 2278 687 
L 2278 3968 
L 2624 3968 
C 3354 3968 3494 3853 3642 3149 
L 3795 3149 
L 3757 4237 
L 147 4237 
L 109 3149 
L 262 3149 
C 416 3846 563 3968 1280 3968 
L 1626 3968 
z
" transform="scale(0.015625)"/>
      <path id="NimbusRomNo9L-Regu-53" d="M 2861 4352 
L 2726 4352 
C 2701 4205 2630 4135 2522 4135 
C 2458 4135 2349 4160 2240 4212 
C 2003 4301 1766 4352 1562 4352 
C 1286 4352 1005 4244 794 4058 
C 570 3859 454 3590 454 3256 
C 454 2743 736 2385 1453 2006 
C 1914 1763 2246 1499 2406 1256 
C 2464 1173 2496 1038 2496 884 
C 2496 454 2176 160 1709 160 
C 1139 160 736 513 416 1296 
L 269 1296 
L 461 -64 
L 602 -64 
C 608 57 685 147 781 147 
C 851 147 960 122 1082 79 
C 1325 -14 1581 -64 1837 -64 
C 2573 -64 3142 442 3142 1101 
C 3142 1626 2790 2042 1946 2496 
C 1274 2868 1005 3149 1005 3495 
C 1005 3847 1274 4090 1670 4090 
C 1958 4090 2227 3968 2451 3738 
C 2650 3533 2739 3367 2842 2989 
L 3002 2989 
L 2861 4352 
z
" transform="scale(0.015625)"/>
      <path id="NimbusRomNo9L-Regu-46" d="M 3066 1472 
L 3066 2957 
L 2918 2957 
C 2842 2461 2726 2368 2214 2368 
L 1286 2368 
L 1286 3766 
C 1286 3943 1318 3981 1491 3981 
L 2362 3981 
C 3085 3981 3226 3886 3334 3314 
L 3494 3314 
L 3475 4224 
L 77 4224 
L 77 4102 
C 550 4064 634 3974 634 3525 
L 634 749 
C 634 217 563 134 77 134 
L 77 0 
L 1869 0 
L 1869 134 
C 1376 134 1286 225 1286 692 
L 1286 2106 
L 2214 2106 
C 2733 2106 2842 2007 2918 1472 
L 3066 1472 
z
" transform="scale(0.015625)"/>
      <path id="NimbusRomNo9L-Regu-28" d="M 1888 4326 
C 1414 4019 1222 3853 986 3558 
C 531 3002 307 2362 307 1613 
C 307 800 544 173 1107 -480 
C 1370 -787 1536 -928 1869 -1133 
L 1946 -1030 
C 1434 -627 1254 -403 1082 77 
C 928 506 858 992 858 1632 
C 858 2304 941 2829 1114 3226 
C 1293 3622 1485 3853 1946 4224 
L 1888 4326 
z
" transform="scale(0.015625)"/>
      <path id="NimbusRomNo9L-Regu-4f" d="M 2310 4352 
C 1088 4352 218 3431 218 2144 
C 218 1543 422 960 768 589 
C 1139 186 1709 -64 2272 -64 
C 3533 -64 4403 832 4403 2119 
C 4403 2752 4218 3296 3866 3680 
C 3462 4122 2925 4352 2310 4352 
z
M 2310 4122 
C 2605 4122 2899 4007 3130 3802 
C 3475 3488 3674 2887 3674 2125 
C 3674 1748 3590 1306 3462 973 
C 3405 813 3296 653 3149 506 
C 2925 282 2637 167 2298 167 
C 2003 167 1715 282 1491 480 
C 1158 775 947 1421 947 2132 
C 947 2784 1126 3405 1395 3706 
C 1645 3981 1958 4122 2310 4122 
z
" transform="scale(0.015625)"/>
      <path id="NimbusRomNo9L-Regu-75" d="M 3066 320 
L 3034 320 
C 2739 320 2669 390 2669 685 
L 2669 2880 
L 1658 2880 
L 1658 2758 
C 2054 2758 2131 2694 2131 2375 
L 2131 875 
C 2131 697 2099 607 2010 537 
C 1837 397 1638 320 1446 320 
C 1197 320 992 537 992 805 
L 992 2880 
L 58 2880 
L 58 2778 
C 365 2778 454 2682 454 2387 
L 454 770 
C 454 263 762 -64 1229 -64 
C 1466 -64 1715 38 1888 211 
L 2163 486 
L 2163 -45 
L 2189 -58 
C 2509 70 2739 141 3066 230 
L 3066 320 
z
" transform="scale(0.015625)"/>
      <path id="NimbusRomNo9L-Regu-72" d="M 45 2496 
C 134 2515 192 2522 269 2522 
C 429 2522 486 2419 486 2138 
L 486 538 
C 486 218 442 173 32 96 
L 32 0 
L 1568 0 
L 1568 102 
C 1133 102 1024 199 1024 565 
L 1024 2013 
C 1024 2219 1299 2541 1472 2541 
C 1510 2541 1568 2509 1638 2445 
C 1741 2355 1811 2317 1894 2317 
C 2048 2317 2144 2426 2144 2605 
C 2144 2816 2010 2944 1792 2944 
C 1523 2944 1338 2797 1024 2343 
L 1024 2931 
L 992 2944 
C 653 2803 422 2721 45 2599 
L 45 2496 
z
" transform="scale(0.015625)"/>
      <path id="NimbusRomNo9L-Regu-29" d="M 243 -1133 
C 717 -826 909 -659 1146 -365 
C 1600 192 1824 832 1824 1581 
C 1824 2400 1587 3021 1024 3674 
C 762 3981 595 4122 262 4326 
L 186 4224 
C 698 3821 870 3597 1050 3117 
C 1203 2688 1274 2202 1274 1562 
C 1274 896 1190 365 1018 -26 
C 838 -429 646 -659 186 -1030 
L 243 -1133 
z
" transform="scale(0.015625)"/>
     </defs>
     <use xlink:href="#NimbusRomNo9L-Regu-41" transform="scale(0.996264)"/>
     <use xlink:href="#NimbusRomNo9L-Regu-43" transform="translate(73.32484 0) scale(0.797011)"/>
     <use xlink:href="#NimbusRomNo9L-Regu-54" transform="translate(131.40667 0) scale(0.797011)"/>
     <use xlink:href="#NimbusRomNo9L-Regu-53" transform="translate(185.004445 0) scale(0.996264)"/>
     <use xlink:href="#NimbusRomNo9L-Regu-41" transform="translate(245.377457 0) scale(0.797011)"/>
     <use xlink:href="#NimbusRomNo9L-Regu-46" transform="translate(307.842235 0) scale(0.797011)"/>
     <use xlink:href="#NimbusRomNo9L-Regu-45" transform="translate(357.057047 0) scale(0.797011)"/>
     <use xlink:href="#NimbusRomNo9L-Regu-28" transform="translate(433.070809 0) scale(0.996264)"/>
     <use xlink:href="#NimbusRomNo9L-Regu-4f" transform="translate(466.246038 0) scale(0.996264)"/>
     <use xlink:href="#NimbusRomNo9L-Regu-75" transform="translate(538.176023 0) scale(0.996264)"/>
     <use xlink:href="#NimbusRomNo9L-Regu-72" transform="translate(587.989224 0) scale(0.996264)"/>
     <use xlink:href="#NimbusRomNo9L-Regu-73" transform="translate(621.164453 0) scale(0.996264)"/>
     <use xlink:href="#NimbusRomNo9L-Regu-29" transform="translate(659.91816 0) scale(0.996264)"/>
    </g>
   </g>
   <g id="line2d_31">
    <path d="M 4.37976 16.23978 
L 11.37976 16.23978 
L 18.37976 16.23978 
" style="fill: none; stroke: #ff7f0e; stroke-linecap: round"/>
   </g>
   <g id="text_15">
    <!-- \textsc{Opax} @ 1M -->
    <g transform="translate(21.87976 18.68978) scale(0.07 -0.07)">
     <defs>
      <path id="NimbusRomNo9L-Regu-50" d="M 1293 1875 
C 1459 1856 1568 1856 1734 1856 
C 2234 1856 2579 1919 2854 2072 
C 3238 2274 3469 2660 3469 3078 
C 3469 3344 3379 3584 3206 3768 
C 2950 4047 2394 4224 1792 4224 
L 102 4224 
L 102 4102 
C 576 4051 640 3987 640 3528 
L 640 766 
C 640 230 589 166 102 122 
L 102 0 
L 1894 0 
L 1894 128 
C 1389 128 1293 218 1293 693 
L 1293 1875 
z
M 1293 3772 
C 1293 3943 1338 3987 1510 3987 
C 2374 3987 2771 3690 2771 3040 
C 2771 2428 2394 2112 1658 2112 
C 1530 2112 1440 2119 1293 2131 
L 1293 3772 
z
" transform="scale(0.015625)"/>
      <path id="NimbusRomNo9L-Regu-58" d="M 4454 4224 
L 2931 4224 
L 2931 4096 
C 3277 4096 3379 4052 3379 3904 
C 3379 3808 3309 3692 3123 3462 
L 2400 2578 
L 2131 2955 
C 1741 3500 1587 3776 1587 3917 
C 1587 4045 1683 4096 1894 4096 
L 2074 4096 
L 2074 4224 
L 141 4224 
L 141 4096 
C 557 4096 672 4000 1299 3107 
L 1997 2080 
L 992 848 
C 422 172 390 146 64 121 
L 64 0 
L 1555 0 
L 1555 134 
C 1184 134 1069 185 1069 334 
C 1069 430 1165 591 1402 886 
L 2163 1837 
L 2771 940 
C 2982 627 3098 409 3098 313 
C 3098 198 2995 134 2778 134 
C 2752 134 2682 134 2605 121 
L 2605 0 
L 4506 0 
L 4506 121 
C 4166 159 4070 223 3795 593 
L 2566 2341 
L 3501 3515 
C 3917 4018 4045 4096 4454 4096 
L 4454 4224 
z
" transform="scale(0.015625)"/>
      <path id="NimbusRomNo9L-Regu-40" d="M 4403 493 
C 3904 269 3578 186 3149 186 
C 2061 186 1280 980 1280 2093 
C 1280 2688 1510 3290 1875 3668 
C 2189 3981 2618 4154 3085 4154 
C 4090 4154 4922 3367 4922 2413 
C 4922 1773 4518 1152 4096 1152 
C 3930 1152 3846 1248 3846 1447 
C 3846 1492 3853 1524 3859 1562 
L 4275 3188 
L 3834 3188 
L 3770 2945 
C 3629 3207 3533 3277 3309 3277 
C 3034 3277 2810 3175 2592 2957 
C 2253 2618 2054 2132 2054 1664 
C 2054 1261 2304 948 2618 948 
C 2899 948 3200 1120 3418 1409 
C 3456 1132 3693 948 4000 948 
C 4634 948 5178 1658 5178 2481 
C 5178 3535 4262 4352 3078 4352 
C 1779 4352 742 3360 742 2112 
C 742 884 1766 -64 3091 -64 
C 3539 -64 3859 20 4480 301 
L 4403 493 
z
M 3398 2996 
C 3578 2983 3674 2829 3661 2580 
C 3648 2272 3539 1895 3373 1594 
C 3251 1364 3066 1223 2893 1223 
C 2656 1223 2509 1434 2509 1767 
C 2509 2112 2624 2432 2842 2676 
C 3021 2880 3245 3008 3398 2996 
z
" transform="scale(0.015625)"/>
      <path id="NimbusRomNo9L-Regu-31" d="M 1862 4339 
L 710 3757 
L 710 3667 
C 787 3699 858 3725 883 3738 
C 998 3783 1107 3808 1171 3808 
C 1306 3808 1363 3711 1363 3505 
L 1363 592 
C 1363 379 1312 232 1210 173 
C 1114 116 1024 96 755 96 
L 755 0 
L 2522 0 
L 2522 96 
C 2016 96 1914 160 1914 470 
L 1914 4327 
L 1862 4339 
z
" transform="scale(0.015625)"/>
      <path id="NimbusRomNo9L-Regu-4d" d="M 4314 3667 
L 4314 751 
C 4314 217 4237 134 3731 134 
L 3731 0 
L 5523 0 
L 5523 134 
C 5056 134 4966 223 4966 681 
L 4966 3536 
C 4966 3993 5050 4077 5523 4115 
L 5523 4237 
L 4250 4237 
L 2835 1004 
L 1357 4237 
L 90 4237 
L 90 4096 
C 614 4096 698 4019 698 3550 
L 698 943 
C 698 282 608 159 77 121 
L 77 0 
L 1581 0 
L 1581 134 
C 1088 134 979 282 979 931 
L 979 3520 
L 2586 0 
L 2675 0 
L 4314 3667 
z
" transform="scale(0.015625)"/>
     </defs>
     <use xlink:href="#NimbusRomNo9L-Regu-4f" transform="scale(0.996264)"/>
     <use xlink:href="#NimbusRomNo9L-Regu-50" transform="translate(76.91132 0) scale(0.797011)"/>
     <use xlink:href="#NimbusRomNo9L-Regu-41" transform="translate(118.8536 0) scale(0.797011)"/>
     <use xlink:href="#NimbusRomNo9L-Regu-58" transform="translate(181.318378 0) scale(0.797011)"/>
     <use xlink:href="#NimbusRomNo9L-Regu-40" transform="translate(266.199141 0) scale(0.996264)"/>
     <use xlink:href="#NimbusRomNo9L-Regu-31" transform="translate(382.861222 0) scale(0.996264)"/>
     <use xlink:href="#NimbusRomNo9L-Regu-4d" transform="translate(432.674422 0) scale(0.996264)"/>
    </g>
   </g>
   <g id="line2d_32">
    <path d="M 75.996203 6.33 
L 82.996203 6.33 
L 89.996203 6.33 
" style="fill: none; stroke: #2ca02c; stroke-linecap: round"/>
   </g>
   <g id="text_16">
    <!-- \textsc{Opax} @ 1.25M -->
    <g transform="translate(93.496203 8.78) scale(0.07 -0.07)">
     <defs>
      <path id="NimbusRomNo9L-Regu-2e" d="M 800 646 
C 608 646 448 480 448 281 
C 448 96 608 -64 794 -64 
C 992 -64 1158 96 1158 281 
C 1158 480 992 646 800 646 
z
" transform="scale(0.015625)"/>
      <path id="NimbusRomNo9L-Regu-32" d="M 3040 875 
L 2957 907 
C 2720 544 2637 486 2349 486 
L 819 486 
L 1894 1609 
C 2464 2202 2714 2687 2714 3185 
C 2714 3823 2195 4313 1530 4313 
C 1178 4313 845 4173 608 3918 
C 403 3700 307 3496 198 3043 
L 333 3011 
C 589 3636 819 3840 1261 3840 
C 1798 3840 2163 3476 2163 2940 
C 2163 2443 1869 1850 1331 1282 
L 192 77 
L 192 0 
L 2688 0 
L 3040 875 
z
" transform="scale(0.015625)"/>
      <path id="NimbusRomNo9L-Regu-35" d="M 1158 3776 
L 2413 3776 
C 2515 3776 2541 3789 2560 3834 
L 2803 4403 
L 2746 4448 
C 2650 4314 2586 4282 2451 4282 
L 1114 4282 
L 416 2759 
C 410 2746 410 2740 410 2727 
C 410 2695 435 2676 486 2676 
C 691 2676 947 2631 1210 2547 
C 1946 2309 2285 1910 2285 1274 
C 2285 656 1894 173 1395 173 
C 1267 173 1158 218 966 360 
C 762 508 614 572 480 572 
C 294 572 205 495 205 334 
C 205 90 506 -64 986 -64 
C 1523 -64 1984 110 2304 438 
C 2598 728 2733 1094 2733 1583 
C 2733 2046 2611 2342 2291 2663 
C 2010 2947 1645 3094 890 3229 
L 1158 3776 
z
" transform="scale(0.015625)"/>
     </defs>
     <use xlink:href="#NimbusRomNo9L-Regu-4f" transform="scale(0.996264)"/>
     <use xlink:href="#NimbusRomNo9L-Regu-50" transform="translate(76.91132 0) scale(0.797011)"/>
     <use xlink:href="#NimbusRomNo9L-Regu-41" transform="translate(118.8536 0) scale(0.797011)"/>
     <use xlink:href="#NimbusRomNo9L-Regu-58" transform="translate(181.318378 0) scale(0.797011)"/>
     <use xlink:href="#NimbusRomNo9L-Regu-40" transform="translate(266.199141 0) scale(0.996264)"/>
     <use xlink:href="#NimbusRomNo9L-Regu-31" transform="translate(382.861222 0) scale(0.996264)"/>
     <use xlink:href="#NimbusRomNo9L-Regu-2e" transform="translate(432.674422 0) scale(0.996264)"/>
     <use xlink:href="#NimbusRomNo9L-Regu-32" transform="translate(457.581022 0) scale(0.996264)"/>
     <use xlink:href="#NimbusRomNo9L-Regu-35" transform="translate(507.394223 0) scale(0.996264)"/>
     <use xlink:href="#NimbusRomNo9L-Regu-4d" transform="translate(557.207423 0) scale(0.996264)"/>
    </g>
   </g>
  </g>
 </g>
 <defs>
  <clipPath id="p40829e49d9">
   <rect x="39.954344" y="24.63724" width="131.367255" height="36.087024"/>
  </clipPath>
  <clipPath id="p8359410beb">
   <rect x="39.954344" y="75.076498" width="131.367255" height="36.087024"/>
  </clipPath>
 </defs>
</svg>
