<svg version="1.1" viewBox="0.0 0.0 960.0 720.0" fill="none" stroke="none" stroke-linecap="square" stroke-miterlimit="10" xmlns:xlink="http://www.w3.org/1999/xlink" xmlns="http://www.w3.org/2000/svg"><clipPath id="p.0"><path d="m0 0l960.0 0l0 720.0l-960.0 0l0 -720.0z" clip-rule="nonzero"/></clipPath><g clip-path="url(#p.0)"><path fill="#000000" fill-opacity="0.0" d="m0 0l960.0 0l0 720.0l-960.0 0z" fill-rule="evenodd"/><path fill="#ffffff" d="m399.32022 125.52086l0 0c0 -0.58917236 0.4776001 -1.0667877 1.0667725 -1.0667877l148.2916 0c0.28295898 0 0.5543213 0.11238861 0.7543335 0.31245422c0.20007324 0.20005798 0.3125 0.47140503 0.3125 0.7543335l0 64.29161c0 0.58917236 -0.47766113 1.066803 -1.0668335 1.066803l-148.2916 0c-0.58917236 0 -1.0667725 -0.47763062 -1.0667725 -1.066803z" fill-rule="evenodd"/><path stroke="#000000" stroke-width="2.0" stroke-linejoin="round" stroke-linecap="butt" d="m399.32022 125.52086l0 0c0 -0.58917236 0.4776001 -1.0667877 1.0667725 -1.0667877l148.2916 0c0.28295898 0 0.5543213 0.11238861 0.7543335 0.31245422c0.20007324 0.20005798 0.3125 0.47140503 0.3125 0.7543335l0 64.29161c0 0.58917236 -0.47766113 1.066803 -1.0668335 1.066803l-148.2916 0c-0.58917236 0 -1.0667725 -0.47763062 -1.0667725 -1.066803z" fill-rule="evenodd"/><path fill="#000000" d="m450.46048 164.58667l-1.71875 0l4.96875 -13.5625l1.703125 0l4.984375 13.5625l-1.71875 0l-4.0625 -11.421875l-0.109375 0l-4.046875 11.421875zm0.625 -5.296875l6.953125 0l0 1.453125l-6.953125 0l0 -1.453125zm15.317474 9.328125q-1.125 0 -1.9375 -0.296875q-0.8125 -0.28125 -1.359375 -0.75q-0.53125 -0.46875 -0.859375 -1.0l1.25 -0.875q0.203125 0.28125 0.53125 0.640625q0.328125 0.359375 0.890625 0.625q0.578125 0.28125 1.484375 0.28125q1.234375 0 2.03125 -0.609375q0.8125 -0.59375 0.8125 -1.859375l0 -2.0625l-0.140625 0q-0.171875 0.265625 -0.484375 0.6875q-0.3125 0.40625 -0.90625 0.71875q-0.578125 0.3125 -1.5625 0.3125q-1.234375 0 -2.21875 -0.578125q-0.96875 -0.59375 -1.546875 -1.703125q-0.5625 -1.109375 -0.5625 -2.703125q0 -1.5625 0.546875 -2.71875q0.546875 -1.171875 1.53125 -1.8125q0.984375 -0.640625 2.265625 -0.640625q1.0 0 1.578125 0.328125q0.59375 0.328125 0.90625 0.75q0.3125 0.40625 0.484375 0.671875l0.15625 0l0 -1.609375l1.515625 0l0 10.46875q0 1.3125 -0.59375 2.125q-0.59375 0.828125 -1.59375 1.21875q-1.0 0.390625 -2.21875 0.390625zm-0.046875 -5.59375q0.9375 0 1.578125 -0.421875q0.65625 -0.4375 1.0 -1.25q0.34375 -0.8125 0.34375 -1.9375q0 -1.09375 -0.34375 -1.9375q-0.328125 -0.84375 -0.984375 -1.3125q-0.640625 -0.484375 -1.59375 -0.484375q-1.0 0 -1.65625 0.515625q-0.65625 0.5 -0.984375 1.34375q-0.328125 0.84375 -0.328125 1.875q0 1.0625 0.328125 1.875q0.34375 0.8125 1.0 1.28125q0.65625 0.453125 1.640625 0.453125zm11.587555 1.78125q-1.46875 0 -2.546875 -0.65625q-1.0625 -0.65625 -1.640625 -1.828125q-0.5625 -1.171875 -0.5625 -2.75q0 -1.5625 0.5625 -2.75q0.578125 -1.203125 1.609375 -1.875q1.03125 -0.671875 2.40625 -0.671875q0.796875 0 1.578125 0.265625q0.78125 0.265625 1.40625 0.859375q0.640625 0.59375 1.015625 1.578125q0.375 0.96875 0.375 2.390625l0 0.65625l-7.84375 0l0 -1.34375l6.265625 0q0 -0.859375 -0.34375 -1.53125q-0.34375 -0.6875 -0.96875 -1.078125q-0.625 -0.390625 -1.484375 -0.390625q-0.921875 0 -1.609375 0.46875q-0.671875 0.453125 -1.046875 1.1875q-0.359375 0.734375 -0.359375 1.578125l0 0.90625q0 1.140625 0.390625 1.953125q0.40625 0.796875 1.125 1.21875q0.71875 0.40625 1.671875 0.40625q0.609375 0 1.109375 -0.171875q0.5 -0.1875 0.859375 -0.53125q0.375 -0.359375 0.5625 -0.890625l1.515625 0.421875q-0.234375 0.765625 -0.796875 1.34375q-0.5625 0.578125 -1.390625 0.90625q-0.828125 0.328125 -1.859375 0.328125zm8.16217 -6.34375l0 6.125l-1.5625 0l0 -10.171875l1.5 0l0 1.578125l0.140625 0q0.359375 -0.765625 1.078125 -1.234375q0.734375 -0.484375 1.890625 -0.484375q1.03125 0 1.796875 0.421875q0.78125 0.421875 1.203125 1.28125q0.4375 0.84375 0.4375 2.140625l0 6.46875l-1.5625 0l0 -6.359375q0 -1.203125 -0.625 -1.875q-0.625 -0.671875 -1.703125 -0.671875q-0.75 0 -1.34375 0.328125q-0.578125 0.328125 -0.921875 0.953125q-0.328125 0.609375 -0.328125 1.5zm13.777649 -4.046875l0 1.328125l-5.28125 0l0 -1.328125l5.28125 0zm-3.734375 -2.4375l1.5625 0l0 9.6875q0 0.671875 0.1875 1.0q0.203125 0.328125 0.5 0.4375q0.3125 0.109375 0.65625 0.109375q0.265625 0 0.421875 -0.03125q0.171875 -0.03125 0.265625 -0.046875l0.328125 1.40625q-0.15625 0.046875 -0.453125 0.109375q-0.28125 0.0625 -0.71875 0.0625q-0.65625 0 -1.296875 -0.28125q-0.625 -0.28125 -1.046875 -0.859375q-0.40625 -0.59375 -0.40625 -1.46875l0 -10.125z" fill-rule="nonzero"/><path fill="#ffffff" d="m399.32022 259.8673l0 0c0 -0.58917236 0.4776001 -1.0667725 1.0667725 -1.0667725l148.2916 0c0.28295898 0 0.5543213 0.11239624 0.7543335 0.31243896c0.20007324 0.20007324 0.3125 0.47140503 0.3125 0.7543335l0 64.291626c0 0.58917236 -0.47766113 1.0667725 -1.0668335 1.0667725l-148.2916 0c-0.58917236 0 -1.0667725 -0.4776001 -1.0667725 -1.0667725z" fill-rule="evenodd"/><path stroke="#000000" stroke-width="2.0" stroke-linejoin="round" stroke-linecap="butt" d="m399.32022 259.8673l0 0c0 -0.58917236 0.4776001 -1.0667725 1.0667725 -1.0667725l148.2916 0c0.28295898 0 0.5543213 0.11239624 0.7543335 0.31243896c0.20007324 0.20007324 0.3125 0.47140503 0.3125 0.7543335l0 64.291626c0 0.58917236 -0.47766113 1.0667725 -1.0668335 1.0667725l-148.2916 0c-0.58917236 0 -1.0667725 -0.4776001 -1.0667725 -1.0667725z" fill-rule="evenodd"/><path fill="#000000" d="m421.18466 298.93314l0 -13.5625l8.1875 0l0 1.453125l-6.546875 0l0 4.578125l6.125 0l0 1.46875l-6.125 0l0 4.609375l6.65625 0l0 1.453125l-8.296875 0zm12.516174 -6.125l0 6.125l-1.5625 0l0 -10.171875l1.5 0l0 1.578125l0.140625 0q0.359375 -0.765625 1.078125 -1.234375q0.734375 -0.484375 1.890625 -0.484375q1.03125 0 1.796875 0.421875q0.78125 0.421875 1.203125 1.28125q0.4375 0.84375 0.4375 2.140625l0 6.46875l-1.5625 0l0 -6.359375q0 -1.203125 -0.625 -1.875q-0.625 -0.671875 -1.703125 -0.671875q-0.75 0 -1.34375 0.328125q-0.578125 0.328125 -0.921875 0.953125q-0.328125 0.609375 -0.328125 1.5zm17.297058 -4.046875l-3.765625 10.171875l-1.578125 0l-3.765625 -10.171875l1.6875 0l2.8125 8.109375l0.109375 0l2.8125 -8.109375l1.6875 0zm2.0757751 10.171875l0 -10.171875l1.5625 0l0 10.171875l-1.5625 0zm0.78125 -11.875q-0.453125 0 -0.78125 -0.3125q-0.328125 -0.3125 -0.328125 -0.75q0 -0.4375 0.328125 -0.75q0.328125 -0.3125 0.78125 -0.3125q0.46875 0 0.796875 0.3125q0.328125 0.3125 0.328125 0.75q0 0.4375 -0.328125 0.75q-0.328125 0.3125 -0.796875 0.3125zm3.6443787 11.875l0 -10.171875l1.5 0l0 1.53125l0.109375 0q0.28125 -0.75 1.0 -1.21875q0.734375 -0.46875 1.65625 -0.46875q0.171875 0 0.421875 0q0.265625 0 0.390625 0.015625l0 1.59375q-0.078125 -0.015625 -0.359375 -0.0625q-0.28125 -0.046875 -0.59375 -0.046875q-0.734375 0 -1.328125 0.3125q-0.578125 0.3125 -0.90625 0.859375q-0.328125 0.53125 -0.328125 1.21875l0 6.4375l-1.5625 0zm10.75 0.21875q-1.375 0 -2.421875 -0.65625q-1.03125 -0.65625 -1.609375 -1.828125q-0.578125 -1.1875 -0.578125 -2.765625q0 -1.59375 0.578125 -2.78125q0.578125 -1.1875 1.609375 -1.84375q1.046875 -0.65625 2.421875 -0.65625q1.375 0 2.40625 0.65625q1.046875 0.65625 1.625 1.84375q0.578125 1.1875 0.578125 2.78125q0 1.578125 -0.578125 2.765625q-0.578125 1.171875 -1.625 1.828125q-1.03125 0.65625 -2.40625 0.65625zm0 -1.40625q1.046875 0 1.71875 -0.53125q0.6875 -0.546875 1.0 -1.421875q0.328125 -0.875 0.328125 -1.890625q0 -1.03125 -0.328125 -1.90625q-0.3125 -0.875 -1.0 -1.421875q-0.671875 -0.546875 -1.71875 -0.546875q-1.046875 0 -1.71875 0.546875q-0.671875 0.546875 -1.0 1.421875q-0.328125 0.875 -0.328125 1.90625q0 1.015625 0.328125 1.890625q0.328125 0.875 1.0 1.421875q0.671875 0.53125 1.71875 0.53125zm8.56781 -4.9375l0 6.125l-1.5625 0l0 -10.171875l1.5 0l0 1.578125l0.140625 0q0.359375 -0.765625 1.078125 -1.234375q0.734375 -0.484375 1.890625 -0.484375q1.03125 0 1.796875 0.421875q0.78125 0.421875 1.203125 1.28125q0.4375 0.84375 0.4375 2.140625l0 6.46875l-1.5625 0l0 -6.359375q0 -1.203125 -0.625 -1.875q-0.625 -0.671875 -1.703125 -0.671875q-0.75 0 -1.34375 0.328125q-0.578125 0.328125 -0.921875 0.953125q-0.328125 0.609375 -0.328125 1.5zm9.355774 6.125l0 -10.171875l1.5 0l0 1.578125l0.140625 0q0.3125 -0.8125 1.015625 -1.265625q0.71875 -0.453125 1.703125 -0.453125q1.015625 0 1.6875 0.453125q0.671875 0.453125 1.046875 1.265625l0.109375 0q0.390625 -0.78125 1.171875 -1.25q0.78125 -0.46875 1.875 -0.46875q1.359375 0 2.21875 0.859375q0.875 0.84375 0.875 2.640625l0 6.8125l-1.5625 0l0 -6.8125q0 -1.125 -0.625 -1.609375q-0.609375 -0.484375 -1.4375 -0.484375q-1.078125 0 -1.671875 0.65625q-0.578125 0.640625 -0.578125 1.625l0 6.625l-1.59375 0l0 -6.96875q0 -0.875 -0.5625 -1.40625q-0.5625 -0.53125 -1.453125 -0.53125q-0.609375 0 -1.140625 0.328125q-0.515625 0.328125 -0.84375 0.90625q-0.3125 0.5625 -0.3125 1.3125l0 6.359375l-1.5625 0zm20.48407 0.21875q-1.46875 0 -2.546875 -0.65625q-1.0625 -0.65625 -1.640625 -1.828125q-0.5625 -1.171875 -0.5625 -2.75q0 -1.5625 0.5625 -2.75q0.578125 -1.203125 1.609375 -1.875q1.03125 -0.671875 2.40625 -0.671875q0.796875 0 1.578125 0.265625q0.78125 0.265625 1.40625 0.859375q0.640625 0.59375 1.015625 1.578125q0.375 0.96875 0.375 2.390625l0 0.65625l-7.84375 0l0 -1.34375l6.265625 0q0 -0.859375 -0.34375 -1.53125q-0.34375 -0.6875 -0.96875 -1.078125q-0.625 -0.390625 -1.484375 -0.390625q-0.921875 0 -1.609375 0.46875q-0.671875 0.453125 -1.046875 1.1875q-0.359375 0.734375 -0.359375 1.578125l0 0.90625q0 1.140625 0.390625 1.953125q0.40625 0.796875 1.125 1.21875q0.71875 0.40625 1.671875 0.40625q0.609375 0 1.109375 -0.171875q0.5 -0.1875 0.859375 -0.53125q0.375 -0.359375 0.5625 -0.890625l1.515625 0.421875q-0.234375 0.765625 -0.796875 1.34375q-0.5625 0.578125 -1.390625 0.90625q-0.828125 0.328125 -1.859375 0.328125zm8.16214 -6.34375l0 6.125l-1.5625 0l0 -10.171875l1.5 0l0 1.578125l0.140625 0q0.359375 -0.765625 1.078125 -1.234375q0.734375 -0.484375 1.890625 -0.484375q1.03125 0 1.796875 0.421875q0.78125 0.421875 1.203125 1.28125q0.4375 0.84375 0.4375 2.140625l0 6.46875l-1.5625 0l0 -6.359375q0 -1.203125 -0.625 -1.875q-0.625 -0.671875 -1.703125 -0.671875q-0.75 0 -1.34375 0.328125q-0.578125 0.328125 -0.921875 0.953125q-0.328125 0.609375 -0.328125 1.5zm13.77771 -4.046875l0 1.328125l-5.28125 0l0 -1.328125l5.28125 0zm-3.734375 -2.4375l1.5625 0l0 9.6875q0 0.671875 0.1875 1.0q0.203125 0.328125 0.5 0.4375q0.3125 0.109375 0.65625 0.109375q0.265625 0 0.421875 -0.03125q0.171875 -0.03125 0.265625 -0.046875l0.328125 1.40625q-0.15625 0.046875 -0.453125 0.109375q-0.28125 0.0625 -0.71875 0.0625q-0.65625 0 -1.296875 -0.28125q-0.625 -0.28125 -1.046875 -0.859375q-0.40625 -0.59375 -0.40625 -1.46875l0 -10.125z" fill-rule="nonzero"/><path fill="#000000" fill-opacity="0.0" d="m399.32022 157.66667c-43.519684 0 -87.04724 33.590546 -87.03937 67.18109c0.007873535 33.59056 43.551178 67.18111 87.102356 67.18111" fill-rule="evenodd"/><path stroke="#000000" stroke-width="2.0" stroke-linejoin="round" stroke-linecap="butt" d="m387.34875 158.49359l-0.23278809 0.031082153c-1.3480835 0.18759155 -2.6921692 0.4049225 -4.030945 0.65093994c-5.355194 0.98410034 -10.625427 2.4274445 -15.7256775 4.264435c-10.200562 3.6739655 -19.721222 8.922485 -27.881653 15.220718c-16.320862 12.596451 -27.200775 29.391724 -27.196838 46.186996c0.007873535 33.59056 43.551178 67.18111 87.102356 67.18111" fill-rule="evenodd"/><path fill="#000000" stroke="#000000" stroke-width="2.0" stroke-linecap="butt" d="m387.5764 161.7892l8.826965 -3.921051l-9.282257 -2.670166z" fill-rule="evenodd"/><path fill="#000000" fill-opacity="0.0" d="m549.8084 157.66667c43.519653 0 87.04724 33.590546 87.03937 67.18109c-0.007873535 33.59056 -43.55121 67.18111 -87.102356 67.18111" fill-rule="evenodd"/><path stroke="#000000" stroke-width="2.0" stroke-linejoin="round" stroke-linecap="butt" d="m549.8084 157.66667c43.519653 0 87.04724 33.590546 87.03937 67.18109c-0.003967285 16.795288 -10.891724 33.59056 -27.222473 46.187027c-8.165344 6.298218 -17.691406 11.546753 -27.898132 15.220703c-5.1033325 1.8369751 -10.376831 3.2803345 -15.735474 4.264435c-1.3396606 0.24603271 -2.6846313 0.4633484 -4.0336304 0.65093994l-0.2411499 0.032165527" fill-rule="evenodd"/><path fill="#000000" stroke="#000000" stroke-width="2.0" stroke-linecap="butt" d="m561.4896 287.9074l-8.827332 3.9202576l9.281982 2.6710205z" fill-rule="evenodd"/></g></svg>