<svg width="595" height="591" viewBox="0 0 595 591" fill="none" xmlns="http://www.w3.org/2000/svg">
    <path d="M404.722 2.89645C373.667 2.89645 343.174 1.94319 312.396 6.38891C295.5 8.82942 227.666 55.7228 221 61C202.174 75.9041 194.244 96.6186 172.429 107.133C117.537 133.59 57.1337 155.323 20.9103 207.071C5.36617 229.277 2.9071 259.762 2.10475 285.875C1.51759 304.984 3.36278 323.547 8.55236 341.933C14.5389 363.143 26.1394 382.885 36.0442 402.469C51.5364 433.101 70.8655 462.045 91.1176 489.691C116.39 524.19 151.316 552.588 189.802 571.54C223.118 587.946 256.649 589.706 293.59 588.286C319.468 587.29 341.243 582.568 361.559 566.077C371.706 557.84 384.119 545.118 388.245 532.138C396.386 506.523 385.304 473.62 379.827 448.677C374.826 425.897 367.976 402.674 365.857 379.365C365.279 373.005 365.529 366.501 368.902 360.918C380.443 341.815 409.549 331.124 428.005 321.247C458.339 305.014 491.548 288.512 517.555 265.636C539.685 246.172 551.749 224.369 564.479 197.937C579.167 167.44 587.164 132.152 592.509 98.8942C594.534 86.2914 592.409 73.3842 591.792 60.7458C591.236 49.3415 588.191 38.6435 582.748 28.5078C573.041 10.4335 541.705 7.97442 524.182 5.40386C485.237 -0.30939 443.867 2.89645 404.722 2.89645Z" fill="#FB923C" fill-opacity="0.2" stroke="black" stroke-width="3" stroke-linecap="round"/>
    <path d="M111 211C138.89 168.87 193.5 185 230 193.5C247.5 196.5 268.507 214.561 286.761 218.859C297.847 221.47 309.704 224.6 317.218 236.338C331.412 258.512 329.043 297.292 329.525 324.366C329.85 342.655 334 360.365 334 379.184C334 403.835 330.187 416.102 321.693 437.817C314.907 455.165 309.381 477.659 292.728 481.354C261.557 488.27 130.013 438.172 118.691 402.224C109.573 373.276 108 351.83 108 321.188C108 304.088 104.616 288.26 107 271.5C109.9 259.341 104.484 220.844 111 211Z" fill="#FB923C" fill-opacity="0.5"/>
    <path d="M132.5 220C155.083 182.82 201.5 203.5 229.5 214.5C242 220 259.968 232.981 274.749 236.774C283.726 239.078 293.327 241.84 299.411 252.199C310.904 271.768 308.986 305.992 309.376 329.885C309.64 346.026 313 361.655 313 378.264C313 400.018 309.913 410.844 303.035 430.007C297.54 445.317 293.065 465.169 279.581 468.43C254.34 474.533 147.825 430.321 138.657 398.597C131.274 373.049 130 354.123 130 327.081C130 311.99 126.07 294.791 128 280C129.452 268.875 127.223 228.687 132.5 220Z" fill="#FB923C" fill-opacity="0.8" stroke="black" stroke-width="3" stroke-linecap="round"/>
    <circle cx="186" cy="257" r="4" fill="#36C2F6"/>
    <circle cx="146" cy="170" r="4" fill="#36C2F6"/>
    <circle cx="172.162" cy="241.287" r="1.25" transform="rotate(-57.2236 172.162 241.287)" fill="#D23638"/>
    <circle cx="190.487" cy="242.381" r="1.25" transform="rotate(-57.2236 190.487 242.381)" fill="#D23638"/>
    <circle cx="190.314" cy="231.566" r="1.25" transform="rotate(-57.2236 190.314 231.566)" fill="#D23638"/>
    <circle cx="176.728" cy="249.307" r="1.25" transform="rotate(-57.2236 176.728 249.307)" fill="#D23638"/>
    <circle cx="160.728" cy="243.307" r="1.25" transform="rotate(-57.2236 160.728 243.307)" fill="#D23638"/>
    <circle cx="177.276" cy="231.497" r="1.25" transform="rotate(-57.2236 177.276 231.497)" fill="#D23638"/>
    <circle cx="186.295" cy="223.031" r="1.25" transform="rotate(-57.2236 186.295 223.031)" fill="#D23638"/>
    <circle cx="183.645" cy="230.84" r="1.25" transform="rotate(-57.2236 183.645 230.84)" fill="#D23638"/>
    <path d="M163.181 230.333C163.762 230.707 163.929 231.48 163.556 232.061C163.182 232.641 162.409 232.809 161.828 232.435C161.248 232.061 161.08 231.288 161.454 230.707C161.828 230.127 162.601 229.959 163.181 230.333Z" fill="#D23638"/>
    <circle cx="190.728" cy="268.307" r="1.25" transform="rotate(-57.2236 190.728 268.307)" fill="#D23638"/>
    <circle cx="172.728" cy="259.307" r="1.25" transform="rotate(-57.2236 172.728 259.307)" fill="#D23638"/>
    <path d="M171.226 226.115C171.807 226.489 171.974 227.262 171.6 227.843C171.227 228.423 170.453 228.591 169.873 228.217C169.292 227.843 169.125 227.07 169.499 226.489C169.872 225.909 170.646 225.741 171.226 226.115Z" fill="#D23638"/>
    <circle cx="165.665" cy="251.376" r="1.25" transform="rotate(-57.2236 165.665 251.376)" fill="#D23638"/>
    <path d="M198.126 247.903C198.706 248.277 198.874 249.05 198.5 249.631C198.126 250.211 197.353 250.379 196.772 250.005C196.192 249.631 196.024 248.858 196.398 248.277C196.772 247.697 197.545 247.529 198.126 247.903Z" fill="#D23638"/>
    <circle cx="198.423" cy="235.598" r="1.25" transform="rotate(-57.2236 198.423 235.598)" fill="#D23638"/>
    <circle cx="158.728" cy="235.307" r="1.25" transform="rotate(-57.2236 158.728 235.307)" fill="#D23638"/>
    <circle cx="193.728" cy="223.307" r="1.25" transform="rotate(-57.2236 193.728 223.307)" fill="#D23638"/>
    <circle cx="177.728" cy="225.307" r="1.25" transform="rotate(-57.2236 177.728 225.307)" fill="#D23638"/>
    <circle cx="166.728" cy="236.307" r="1.25" transform="rotate(-57.2236 166.728 236.307)" fill="#D23638"/>
    <circle cx="185.142" cy="237.751" r="1.25" transform="rotate(-57.2236 185.142 237.751)" fill="#D23638"/>
    <circle cx="202.728" cy="256.728" r="1.25" transform="rotate(-57.2236 202.728 256.728)" fill="#D23638"/>
</svg>