<?xml version="1.0" encoding="utf-8" standalone="no"?>
<!DOCTYPE svg PUBLIC "-//W3C//DTD SVG 1.1//EN"
  "http://www.w3.org/Graphics/SVG/1.1/DTD/svg11.dtd">
<svg xmlns:xlink="http://www.w3.org/1999/xlink" width="194.16219pt" height="161.97976pt" viewBox="0 0 194.16219 161.97976" xmlns="http://www.w3.org/2000/svg" version="1.1">
 <metadata>
  <rdf:RDF xmlns:dc="http://purl.org/dc/elements/1.1/" xmlns:cc="http://creativecommons.org/ns#" xmlns:rdf="http://www.w3.org/1999/02/22-rdf-syntax-ns#">
   <cc:Work>
    <dc:type rdf:resource="http://purl.org/dc/dcmitype/StillImage"/>
    <dc:date>2024-09-28T18:56:15.553625</dc:date>
    <dc:format>image/svg+xml</dc:format>
    <dc:creator>
     <cc:Agent>
      <dc:title>Matplotlib v3.8.4, https://matplotlib.org/</dc:title>
     </cc:Agent>
    </dc:creator>
   </cc:Work>
  </rdf:RDF>
 </metadata>
 <defs>
  <style type="text/css">*{stroke-linejoin: round; stroke-linecap: butt}</style>
 </defs>
 <g id="figure_1">
  <g id="patch_1">
   <path d="M -0 161.97976 
L 194.16219 161.97976 
L 194.16219 0 
L -0 0 
z
" style="fill: #ffffff"/>
  </g>
  <g id="axes_1">
   <g id="patch_2">
    <path d="M 39.954344 73.803232 
L 192.053304 73.803232 
L 192.053304 28.30024 
L 39.954344 28.30024 
z
" style="fill: #ffffff"/>
   </g>
   <g id="matplotlib.axis_1">
    <g id="xtick_1">
     <g id="line2d_1">
      <defs>
       <path id="m57a09e3c9c" d="M 0 0 
L 0 6 
" style="stroke: #262626; stroke-width: 1.25"/>
      </defs>
      <g>
       <use xlink:href="#m57a09e3c9c" x="41.106609" y="73.803232" style="fill: #262626; stroke: #262626; stroke-width: 1.25"/>
      </g>
     </g>
    </g>
    <g id="xtick_2">
     <g id="line2d_2">
      <g>
       <use xlink:href="#m57a09e3c9c" x="69.91323" y="73.803232" style="fill: #262626; stroke: #262626; stroke-width: 1.25"/>
      </g>
     </g>
    </g>
    <g id="xtick_3">
     <g id="line2d_3">
      <g>
       <use xlink:href="#m57a09e3c9c" x="98.719851" y="73.803232" style="fill: #262626; stroke: #262626; stroke-width: 1.25"/>
      </g>
     </g>
    </g>
    <g id="xtick_4">
     <g id="line2d_4">
      <g>
       <use xlink:href="#m57a09e3c9c" x="127.526472" y="73.803232" style="fill: #262626; stroke: #262626; stroke-width: 1.25"/>
      </g>
     </g>
    </g>
    <g id="xtick_5">
     <g id="line2d_5">
      <g>
       <use xlink:href="#m57a09e3c9c" x="156.333094" y="73.803232" style="fill: #262626; stroke: #262626; stroke-width: 1.25"/>
      </g>
     </g>
    </g>
    <g id="xtick_6">
     <g id="line2d_6">
      <g>
       <use xlink:href="#m57a09e3c9c" x="185.139715" y="73.803232" style="fill: #262626; stroke: #262626; stroke-width: 1.25"/>
      </g>
     </g>
    </g>
   </g>
   <g id="matplotlib.axis_2">
    <g id="ytick_1">
     <g id="line2d_7">
      <path d="M 39.954344 62.784445 
L 192.053304 62.784445 
" clip-path="url(#p605daca6d0)" style="fill: none; stroke: #dcdcdc; stroke-width: 0.5; stroke-linecap: round"/>
     </g>
     <g id="line2d_8">
      <defs>
       <path id="mffa8c23367" d="M 0 0 
L -6 0 
" style="stroke: #262626; stroke-width: 1.25"/>
      </defs>
      <g>
       <use xlink:href="#mffa8c23367" x="39.954344" y="62.784445" style="fill: #262626; stroke: #262626; stroke-width: 1.25"/>
      </g>
     </g>
     <g id="text_1">
      <!-- $\mathdefault{0}$ -->
      <g style="fill: #262626" transform="translate(26.483106 65.148543) scale(0.07 -0.07)">
       <defs>
        <path id="CMR17-30" d="M 2688 2025 
C 2688 2416 2682 3080 2413 3591 
C 2176 4039 1798 4198 1466 4198 
C 1158 4198 768 4058 525 3597 
C 269 3118 243 2524 243 2025 
C 243 1661 250 1106 448 619 
C 723 -39 1216 -128 1466 -128 
C 1760 -128 2208 -7 2470 600 
C 2662 1042 2688 1559 2688 2025 
z
M 1466 -26 
C 1056 -26 813 325 723 812 
C 653 1188 653 1738 653 2096 
C 653 2588 653 2997 736 3387 
C 858 3929 1216 4096 1466 4096 
C 1728 4096 2067 3923 2189 3400 
C 2272 3036 2278 2607 2278 2096 
C 2278 1680 2278 1169 2202 792 
C 2067 95 1690 -26 1466 -26 
z
" transform="scale(0.015625)"/>
       </defs>
       <use xlink:href="#CMR17-30" transform="scale(0.996264)"/>
      </g>
     </g>
    </g>
    <g id="ytick_2">
     <g id="line2d_9">
      <path d="M 39.954344 40.408272 
L 192.053304 40.408272 
" clip-path="url(#p605daca6d0)" style="fill: none; stroke: #dcdcdc; stroke-width: 0.5; stroke-linecap: round"/>
     </g>
     <g id="line2d_10">
      <g>
       <use xlink:href="#mffa8c23367" x="39.954344" y="40.408272" style="fill: #262626; stroke: #262626; stroke-width: 1.25"/>
      </g>
     </g>
     <g id="text_2">
      <!-- $\mathdefault{500}$ -->
      <g style="fill: #262626" transform="translate(18.540631 42.772369) scale(0.07 -0.07)">
       <defs>
        <path id="CMR17-35" d="M 730 3692 
C 794 3666 1056 3584 1325 3584 
C 1920 3584 2246 3911 2432 4100 
C 2432 4157 2432 4192 2394 4192 
C 2387 4192 2374 4192 2323 4163 
C 2099 4058 1837 3973 1517 3973 
C 1325 3973 1037 3999 723 4139 
C 653 4171 640 4171 634 4171 
C 602 4171 595 4164 595 4037 
L 595 2203 
C 595 2089 595 2057 659 2057 
C 691 2057 704 2070 736 2114 
C 941 2401 1222 2522 1542 2522 
C 1766 2522 2246 2382 2246 1289 
C 2246 1085 2246 715 2054 421 
C 1894 159 1645 25 1370 25 
C 947 25 518 320 403 814 
C 429 807 480 795 506 795 
C 589 795 749 840 749 1038 
C 749 1210 627 1280 506 1280 
C 358 1280 262 1190 262 1011 
C 262 454 704 -128 1382 -128 
C 2042 -128 2669 440 2669 1264 
C 2669 2030 2170 2624 1549 2624 
C 1222 2624 947 2503 730 2274 
L 730 3692 
z
" transform="scale(0.015625)"/>
       </defs>
       <use xlink:href="#CMR17-35" transform="scale(0.996264)"/>
       <use xlink:href="#CMR17-30" transform="translate(45.690477 0) scale(0.996264)"/>
       <use xlink:href="#CMR17-30" transform="translate(91.380954 0) scale(0.996264)"/>
      </g>
     </g>
    </g>
    <g id="text_3">
     <!-- $\hat{J}_r$ -->
     <g style="fill: #262626" transform="translate(12.599485 55.323551) rotate(-90) scale(0.09 -0.09)">
      <defs>
       <path id="CMR17-5e" d="M 1466 4421 
L 678 3555 
L 755 3478 
L 1466 4166 
L 2176 3478 
L 2253 3555 
L 1466 4421 
z
" transform="scale(0.015625)"/>
       <path id="CMMI12-4a" d="M 3418 3912 
C 3469 4103 3482 4167 3795 4167 
C 3898 4167 3962 4167 3962 4282 
C 3962 4352 3904 4352 3878 4352 
C 3770 4352 3648 4352 3533 4352 
L 3181 4352 
C 2912 4352 2630 4352 2362 4352 
C 2304 4352 2227 4352 2227 4237 
C 2227 4173 2278 4173 2278 4167 
L 2438 4167 
C 2950 4167 2950 4116 2950 4020 
C 2950 4013 2950 3969 2925 3868 
L 2189 960 
C 2022 312 1594 0 1286 0 
C 1069 0 762 100 685 431 
C 710 424 742 418 768 418 
C 979 418 1146 603 1146 788 
C 1146 890 1082 1024 890 1024 
C 774 1024 506 961 506 549 
C 506 151 838 -128 1299 -128 
C 1882 -128 2509 311 2662 915 
L 3418 3912 
z
" transform="scale(0.015625)"/>
       <path id="CMMI12-72" d="M 2490 2612 
C 2291 2574 2189 2433 2189 2293 
C 2189 2139 2310 2088 2400 2088 
C 2579 2088 2726 2242 2726 2433 
C 2726 2638 2528 2816 2208 2816 
C 1952 2816 1658 2701 1389 2312 
C 1344 2650 1088 2816 832 2816 
C 582 2816 454 2625 378 2484 
C 269 2254 173 1871 173 1839 
C 173 1814 198 1782 243 1782 
C 294 1782 301 1788 339 1935 
C 435 2318 557 2689 813 2689 
C 966 2689 1011 2580 1011 2395 
C 1011 2254 947 2005 902 1807 
L 723 1118 
C 698 996 627 709 595 594 
C 550 428 480 128 480 96 
C 480 6 550 -64 646 -64 
C 717 -64 838 -19 877 109 
C 896 160 1133 1124 1171 1271 
C 1203 1411 1242 1546 1274 1686 
C 1299 1775 1325 1878 1344 1961 
C 1363 2018 1536 2331 1696 2472 
C 1773 2542 1939 2689 2202 2689 
C 2304 2689 2406 2670 2490 2612 
z
" transform="scale(0.015625)"/>
      </defs>
      <use xlink:href="#CMR17-5e" transform="translate(24.984403 25.189733) scale(0.996264)"/>
      <use xlink:href="#CMMI12-4a" transform="scale(0.996264)"/>
      <use xlink:href="#CMMI12-72" transform="translate(53.917955 -14.943915) scale(0.697382)"/>
     </g>
    </g>
   </g>
   <g id="patch_3">
    <path d="M 46.867933 70.338246 
L 48.308264 70.433942 
L 49.748595 69.976635 
L 51.188926 69.708389 
L 52.629257 69.650233 
L 54.069588 69.808748 
L 55.509919 70.443403 
L 56.95025 70.390101 
L 58.390581 70.046368 
L 59.830913 70.100687 
L 61.271244 70.043575 
L 62.711575 69.927621 
L 64.151906 70.014772 
L 65.592237 70.159586 
L 67.032568 70.235373 
L 68.472899 70.104782 
L 69.91323 70.393372 
L 71.353561 58.688984 
L 72.793892 54.598557 
L 74.234223 50.788752 
L 75.674554 46.67945 
L 77.114885 45.230566 
L 78.555216 44.34865 
L 79.995547 44.304315 
L 81.435878 44.50938 
L 82.876209 44.626958 
L 84.316541 44.100927 
L 85.756872 43.849621 
L 87.197203 44.644732 
L 88.637534 44.567958 
L 90.077865 43.746926 
L 91.518196 44.817976 
L 92.958527 44.833543 
L 94.398858 44.635981 
L 95.839189 44.932734 
L 97.27952 44.587025 
L 98.719851 44.928768 
L 100.160182 44.96941 
L 101.600513 46.003678 
L 103.040844 45.677268 
L 104.481175 44.613716 
L 105.921506 45.257199 
L 107.361838 45.548188 
L 108.802169 45.226119 
L 110.2425 44.718141 
L 111.682831 44.805662 
L 113.123162 46.068209 
L 114.563493 45.259223 
L 116.003824 45.105575 
L 117.444155 44.925187 
L 118.884486 44.766765 
L 120.324817 45.082732 
L 121.765148 44.7983 
L 123.205479 44.26091 
L 124.64581 44.924496 
L 126.086141 43.898673 
L 127.526472 43.746336 
L 128.966803 44.446915 
L 130.407134 44.237217 
L 131.847466 44.515428 
L 133.287797 47.366949 
L 134.728128 46.973131 
L 136.168459 47.271391 
L 137.60879 52.992113 
L 139.049121 47.572777 
L 140.489452 44.302939 
L 141.929783 45.056706 
L 143.370114 45.148084 
L 144.810445 44.696426 
L 146.250776 44.685428 
L 147.691107 44.369268 
L 149.131438 45.358313 
L 150.571769 45.101058 
L 152.0121 45.002914 
L 153.452431 45.16359 
L 154.892763 44.137408 
L 156.333094 43.78028 
L 157.773425 43.954044 
L 159.213756 44.241881 
L 160.654087 43.436514 
L 162.094418 43.810145 
L 163.534749 44.130373 
L 164.97508 43.365174 
L 166.415411 43.583504 
L 167.855742 44.217099 
L 169.296073 44.54961 
L 170.736404 44.219544 
L 172.176735 44.568383 
L 173.617066 44.300478 
L 175.057397 44.565149 
L 176.497728 43.829644 
L 177.938059 44.265048 
L 179.378391 43.342756 
L 180.818722 43.952545 
L 182.259053 44.305727 
L 183.699384 44.358459 
L 185.139715 44.102999 
L 185.139715 31.451907 
L 183.699384 32.0172 
L 182.259053 31.913145 
L 180.818722 31.377867 
L 179.378391 30.368558 
L 177.938059 31.891994 
L 176.497728 31.163026 
L 175.057397 32.314313 
L 173.617066 31.893854 
L 172.176735 32.31957 
L 170.736404 31.817742 
L 169.296073 32.386198 
L 167.855742 31.725047 
L 166.415411 30.719618 
L 164.97508 30.376737 
L 163.534749 31.605377 
L 162.094418 31.138105 
L 160.654087 30.496089 
L 159.213756 31.658228 
L 157.773425 31.145074 
L 156.333094 30.997147 
L 154.892763 31.648682 
L 153.452431 33.07169 
L 152.0121 32.834631 
L 150.571769 32.846383 
L 149.131438 33.502055 
L 147.691107 31.929781 
L 146.250776 32.39832 
L 144.810445 32.296903 
L 143.370114 33.18397 
L 141.929783 33.141409 
L 140.489452 31.807169 
L 139.049121 32.233054 
L 137.60879 33.341527 
L 136.168459 31.67649 
L 134.728128 30.986897 
L 133.287797 31.899513 
L 131.847466 32.163216 
L 130.407134 31.804169 
L 128.966803 32.14815 
L 127.526472 31.00017 
L 126.086141 31.264277 
L 124.64581 32.900611 
L 123.205479 31.896723 
L 121.765148 32.738708 
L 120.324817 33.059428 
L 118.884486 32.714613 
L 117.444155 32.720862 
L 116.003824 33.084233 
L 114.563493 33.44626 
L 113.123162 34.824158 
L 111.682831 32.769057 
L 110.2425 32.606715 
L 108.802169 33.472996 
L 107.361838 33.788823 
L 105.921506 33.360454 
L 104.481175 32.433323 
L 103.040844 34.197182 
L 101.600513 34.555174 
L 100.160182 33.02273 
L 98.719851 32.822281 
L 97.27952 32.244773 
L 95.839189 32.865629 
L 94.398858 32.480159 
L 92.958527 32.74233 
L 91.518196 32.770194 
L 90.077865 31.02635 
L 88.637534 32.269612 
L 87.197203 32.45903 
L 85.756872 31.116202 
L 84.316541 31.467724 
L 82.876209 32.351524 
L 81.435878 32.271162 
L 79.995547 31.938497 
L 78.555216 32.024311 
L 77.114885 33.431322 
L 75.674554 35.345996 
L 74.234223 40.538078 
L 72.793892 44.03836 
L 71.353561 51.381291 
L 69.91323 70.140981 
L 68.472899 69.429208 
L 67.032568 69.419569 
L 65.592237 69.287912 
L 64.151906 68.887323 
L 62.711575 68.934383 
L 61.271244 68.79953 
L 59.830913 68.07535 
L 58.390581 67.778858 
L 56.95025 68.193625 
L 55.509919 68.10746 
L 54.069588 67.476386 
L 52.629257 67.081224 
L 51.188926 67.007915 
L 49.748595 67.212593 
L 48.308264 67.508078 
L 46.867933 68.487453 
z
" clip-path="url(#p605daca6d0)" style="fill: #1f77b4; fill-opacity: 0.15"/>
   </g>
   <g id="patch_4">
    <path d="M 46.867933 70.320694 
L 48.308264 70.332692 
L 49.748595 70.32432 
L 51.188926 70.306536 
L 52.629257 70.328165 
L 54.069588 70.322091 
L 55.509919 70.338705 
L 56.95025 70.325929 
L 58.390581 70.306876 
L 59.830913 70.319797 
L 61.271244 70.344814 
L 62.711575 70.330405 
L 64.151906 70.314394 
L 65.592237 70.331195 
L 67.032568 70.327121 
L 68.472899 70.313585 
L 69.91323 70.339967 
L 71.353561 71.444854 
L 72.793892 71.334836 
L 74.234223 71.731948 
L 75.674554 71.594766 
L 77.114885 71.079343 
L 78.555216 71.092952 
L 79.995547 71.553089 
L 81.435878 71.400146 
L 82.876209 71.186874 
L 84.316541 71.455686 
L 85.756872 71.483774 
L 87.197203 71.534466 
L 88.637534 71.631921 
L 90.077865 71.642682 
L 91.518196 71.665168 
L 92.958527 71.197415 
L 94.398858 70.433831 
L 95.839189 70.368164 
L 97.27952 70.358191 
L 98.719851 70.35562 
L 100.160182 70.355143 
L 101.600513 70.353747 
L 103.040844 70.352161 
L 104.481175 70.349741 
L 105.921506 70.346081 
L 107.361838 70.348741 
L 108.802169 70.347135 
L 110.2425 70.347553 
L 111.682831 71.125773 
L 113.123162 71.70921 
L 114.563493 70.526747 
L 116.003824 70.347324 
L 117.444155 70.347586 
L 118.884486 70.347255 
L 120.324817 70.347334 
L 121.765148 70.346291 
L 123.205479 70.347775 
L 124.64581 70.347086 
L 126.086141 70.348017 
L 127.526472 70.348141 
L 128.966803 70.349336 
L 130.407134 70.348773 
L 131.847466 70.348609 
L 133.287797 70.34762 
L 134.728128 70.341583 
L 136.168459 70.347986 
L 137.60879 70.347716 
L 139.049121 70.348951 
L 140.489452 70.348127 
L 141.929783 70.34903 
L 143.370114 71.397071 
L 144.810445 71.734696 
L 146.250776 70.350353 
L 147.691107 71.734914 
L 149.131438 71.734668 
L 150.571769 70.364933 
L 152.0121 70.353133 
L 153.452431 70.356239 
L 154.892763 70.373261 
L 156.333094 70.352946 
L 157.773425 70.352443 
L 159.213756 70.352921 
L 160.654087 70.349488 
L 162.094418 70.349194 
L 163.534749 70.349438 
L 164.97508 70.348762 
L 166.415411 70.447181 
L 167.855742 71.699585 
L 169.296073 70.544332 
L 170.736404 70.363124 
L 172.176735 70.352384 
L 173.617066 70.358721 
L 175.057397 70.348021 
L 176.497728 70.348924 
L 177.938059 70.349919 
L 179.378391 70.349526 
L 180.818722 70.349757 
L 182.259053 70.357156 
L 183.699384 70.354958 
L 185.139715 70.357266 
L 185.139715 66.004164 
L 183.699384 65.994612 
L 182.259053 66.003647 
L 180.818722 65.973345 
L 179.378391 65.972261 
L 177.938059 65.973878 
L 176.497728 65.969757 
L 175.057397 65.966022 
L 173.617066 66.010422 
L 172.176735 65.984508 
L 170.736404 66.028337 
L 169.296073 66.632333 
L 167.855742 68.137206 
L 166.415411 66.336158 
L 164.97508 65.969406 
L 163.534749 65.971913 
L 162.094418 65.970866 
L 160.654087 65.972083 
L 159.213756 65.986292 
L 157.773425 65.984268 
L 156.333094 65.986325 
L 154.892763 66.067786 
L 153.452431 66.000181 
L 152.0121 65.987478 
L 150.571769 66.034997 
L 149.131438 67.259762 
L 147.691107 67.259691 
L 146.250776 65.975652 
L 144.810445 67.25964 
L 143.370114 67.916111 
L 141.929783 65.970764 
L 140.489452 65.967578 
L 139.049121 65.971042 
L 137.60879 65.968349 
L 136.168459 65.968517 
L 134.728128 65.966006 
L 133.287797 65.967908 
L 131.847466 65.97148 
L 130.407134 65.971577 
L 128.966803 65.97296 
L 127.526472 65.966702 
L 126.086141 65.966539 
L 124.64581 65.963505 
L 123.205479 65.969511 
L 121.765148 65.962303 
L 120.324817 65.963352 
L 118.884486 65.963205 
L 117.444155 65.964194 
L 116.003824 65.963109 
L 114.563493 66.579248 
L 113.123162 68.139209 
L 111.682831 67.652801 
L 110.2425 65.964056 
L 108.802169 65.96232 
L 107.361838 65.969354 
L 105.921506 65.963589 
L 104.481175 65.973133 
L 103.040844 65.983196 
L 101.600513 65.989804 
L 100.160182 65.995581 
L 98.719851 65.998381 
L 97.27952 66.008475 
L 95.839189 66.050049 
L 94.398858 66.315348 
L 92.958527 68.774764 
L 91.518196 71.350413 
L 90.077865 71.353103 
L 88.637534 70.47817 
L 87.197203 70.578867 
L 85.756872 69.740976 
L 84.316541 68.975049 
L 82.876209 68.728385 
L 81.435878 69.141592 
L 79.995547 69.184628 
L 78.555216 68.404677 
L 77.114885 68.876199 
L 75.674554 71.090542 
L 74.234223 71.586098 
L 72.793892 68.837941 
L 71.353561 69.015912 
L 69.91323 70.32387 
L 68.472899 70.292979 
L 67.032568 70.298053 
L 65.592237 70.309404 
L 64.151906 70.294165 
L 62.711575 70.309569 
L 61.271244 70.323963 
L 59.830913 70.299853 
L 58.390581 70.30141 
L 56.95025 70.306801 
L 55.509919 70.31662 
L 54.069588 70.307736 
L 52.629257 70.307809 
L 51.188926 70.293996 
L 49.748595 70.309207 
L 48.308264 70.315232 
L 46.867933 70.29047 
z
" clip-path="url(#p605daca6d0)" style="fill: #ff7f0e; fill-opacity: 0.15"/>
   </g>
   <g id="patch_5">
    <path d="M 46.867933 66.872603 
L 48.308264 66.822495 
L 49.748595 67.594976 
L 51.188926 67.536237 
L 52.629257 66.094448 
L 54.069588 65.334388 
L 55.509919 63.54259 
L 56.95025 66.468414 
L 58.390581 65.61356 
L 59.830913 64.119662 
L 61.271244 62.990907 
L 62.711575 62.910469 
L 64.151906 62.971253 
L 65.592237 63.022168 
L 67.032568 62.884053 
L 68.472899 62.902605 
L 69.91323 62.907246 
L 71.353561 62.890133 
L 72.793892 62.864878 
L 74.234223 62.875393 
L 75.674554 62.885442 
L 77.114885 62.852866 
L 78.555216 62.868823 
L 79.995547 63.221394 
L 81.435878 63.037162 
L 82.876209 62.880378 
L 84.316541 63.54727 
L 85.756872 66.162574 
L 87.197203 66.017114 
L 88.637534 65.651166 
L 90.077865 64.559621 
L 91.518196 62.90892 
L 92.958527 62.923215 
L 94.398858 62.874007 
L 95.839189 62.832984 
L 97.27952 62.764777 
L 98.719851 62.72391 
L 100.160182 62.682186 
L 101.600513 62.64149 
L 103.040844 62.657486 
L 104.481175 62.607498 
L 105.921506 61.493443 
L 107.361838 60.977076 
L 108.802169 59.862749 
L 110.2425 59.421143 
L 111.682831 58.551439 
L 113.123162 57.939089 
L 114.563493 57.901116 
L 116.003824 57.879496 
L 117.444155 57.996413 
L 118.884486 58.816337 
L 120.324817 58.109723 
L 121.765148 58.048354 
L 123.205479 57.984984 
L 124.64581 57.798471 
L 126.086141 57.959538 
L 127.526472 57.791865 
L 128.966803 57.827908 
L 130.407134 57.984544 
L 131.847466 57.848202 
L 133.287797 57.835004 
L 134.728128 57.827417 
L 136.168459 57.966653 
L 137.60879 57.738755 
L 139.049121 58.863166 
L 140.489452 57.905564 
L 141.929783 57.665906 
L 143.370114 57.534232 
L 144.810445 57.634716 
L 146.250776 57.557324 
L 147.691107 57.886485 
L 149.131438 57.691557 
L 150.571769 57.621731 
L 152.0121 57.502372 
L 153.452431 57.570439 
L 154.892763 57.696153 
L 156.333094 57.658516 
L 157.773425 57.646239 
L 159.213756 57.53846 
L 160.654087 57.651671 
L 162.094418 57.875083 
L 163.534749 57.738512 
L 164.97508 57.754721 
L 166.415411 57.93094 
L 167.855742 58.398558 
L 169.296073 57.998913 
L 170.736404 57.647552 
L 172.176735 57.840178 
L 173.617066 57.617701 
L 175.057397 57.54131 
L 176.497728 57.996827 
L 177.938059 57.839127 
L 179.378391 57.653647 
L 180.818722 57.886122 
L 182.259053 57.613866 
L 183.699384 58.092871 
L 185.139715 58.774794 
L 185.139715 41.824722 
L 183.699384 41.81704 
L 182.259053 41.060934 
L 180.818722 42.185513 
L 179.378391 41.110191 
L 177.938059 41.966161 
L 176.497728 42.475443 
L 175.057397 40.755271 
L 173.617066 41.10247 
L 172.176735 42.046313 
L 170.736404 41.201319 
L 169.296073 42.086845 
L 167.855742 42.383524 
L 166.415411 42.15881 
L 164.97508 41.655832 
L 163.534749 41.410493 
L 162.094418 42.01391 
L 160.654087 40.969259 
L 159.213756 40.781562 
L 157.773425 41.151844 
L 156.333094 41.259106 
L 154.892763 41.237505 
L 153.452431 40.924395 
L 152.0121 40.633732 
L 150.571769 40.940209 
L 149.131438 41.318267 
L 147.691107 42.121837 
L 146.250776 40.800708 
L 144.810445 41.060579 
L 143.370114 40.764758 
L 141.929783 41.293055 
L 140.489452 42.057232 
L 139.049121 42.123467 
L 137.60879 41.636749 
L 136.168459 42.528371 
L 134.728128 41.978414 
L 133.287797 41.994966 
L 131.847466 41.977711 
L 130.407134 42.432371 
L 128.966803 41.842682 
L 127.526472 41.727803 
L 126.086141 42.454777 
L 124.64581 41.745103 
L 123.205479 42.588499 
L 121.765148 42.877772 
L 120.324817 43.114355 
L 118.884486 42.565223 
L 117.444155 42.555533 
L 116.003824 42.027427 
L 114.563493 41.719647 
L 113.123162 42.332091 
L 111.682831 44.915798 
L 110.2425 48.385509 
L 108.802169 47.249477 
L 107.361838 48.879044 
L 105.921506 48.842521 
L 104.481175 50.079268 
L 103.040844 49.800641 
L 101.600513 50.293826 
L 100.160182 49.840104 
L 98.719851 50.265126 
L 97.27952 50.102441 
L 95.839189 50.33628 
L 94.398858 51.587822 
L 92.958527 52.163791 
L 91.518196 53.877778 
L 90.077865 58.522602 
L 88.637534 62.072055 
L 87.197203 62.503647 
L 85.756872 62.599358 
L 84.316541 62.717041 
L 82.876209 62.771648 
L 81.435878 62.850338 
L 79.995547 62.742762 
L 78.555216 62.68822 
L 77.114885 62.695205 
L 75.674554 62.761793 
L 74.234223 62.811593 
L 72.793892 62.789565 
L 71.353561 62.756722 
L 69.91323 62.776361 
L 68.472899 62.769264 
L 67.032568 62.811698 
L 65.592237 62.866684 
L 64.151906 62.863529 
L 62.711575 62.857098 
L 61.271244 62.900685 
L 59.830913 62.934349 
L 58.390581 63.350863 
L 56.95025 63.024301 
L 55.509919 63.007894 
L 54.069588 63.492971 
L 52.629257 63.144497 
L 51.188926 63.967652 
L 49.748595 64.577357 
L 48.308264 64.489399 
L 46.867933 64.613818 
z
" clip-path="url(#p605daca6d0)" style="fill: #2ca02c; fill-opacity: 0.15"/>
   </g>
   <g id="patch_6">
    <path d="M 46.867933 67.196795 
L 48.308264 63.354766 
L 49.748595 63.806982 
L 51.188926 63.75699 
L 52.629257 62.896681 
L 54.069588 62.851022 
L 55.509919 62.8288 
L 56.95025 62.817094 
L 58.390581 62.814255 
L 59.830913 62.813717 
L 61.271244 62.809859 
L 62.711575 62.809512 
L 64.151906 62.800961 
L 65.592237 62.802589 
L 67.032568 62.797806 
L 68.472899 62.796372 
L 69.91323 62.797218 
L 71.353561 62.797427 
L 72.793892 62.803524 
L 74.234223 62.844601 
L 75.674554 62.806313 
L 77.114885 62.838778 
L 78.555216 62.805673 
L 79.995547 62.86533 
L 81.435878 62.804098 
L 82.876209 62.820812 
L 84.316541 62.810792 
L 85.756872 62.813328 
L 87.197203 62.808917 
L 88.637534 62.818058 
L 90.077865 62.818505 
L 91.518196 62.811838 
L 92.958527 62.818446 
L 94.398858 62.820589 
L 95.839189 62.809614 
L 97.27952 62.821556 
L 98.719851 62.814591 
L 100.160182 62.811037 
L 101.600513 62.859047 
L 103.040844 62.842158 
L 104.481175 62.820689 
L 105.921506 62.808607 
L 107.361838 62.802481 
L 108.802169 62.806814 
L 110.2425 62.807879 
L 111.682831 62.809471 
L 113.123162 62.80295 
L 114.563493 62.80341 
L 116.003824 62.799104 
L 117.444155 62.794841 
L 118.884486 62.805071 
L 120.324817 62.790037 
L 121.765148 62.789398 
L 123.205479 62.785921 
L 124.64581 62.789259 
L 126.086141 62.785395 
L 127.526472 62.80633 
L 128.966803 62.794416 
L 130.407134 62.786795 
L 131.847466 62.788998 
L 133.287797 62.798029 
L 134.728128 62.793391 
L 136.168459 62.92095 
L 137.60879 62.803042 
L 139.049121 62.801317 
L 140.489452 62.810219 
L 141.929783 62.810782 
L 143.370114 62.830404 
L 144.810445 62.801419 
L 146.250776 62.932213 
L 147.691107 62.808188 
L 149.131438 62.814696 
L 150.571769 62.82376 
L 152.0121 62.831451 
L 153.452431 62.822694 
L 154.892763 62.930861 
L 156.333094 62.87944 
L 157.773425 62.852015 
L 159.213756 62.835129 
L 160.654087 62.823667 
L 162.094418 62.828636 
L 163.534749 62.847368 
L 164.97508 62.841415 
L 166.415411 62.829493 
L 167.855742 62.844036 
L 169.296073 62.867694 
L 170.736404 62.834492 
L 172.176735 62.850989 
L 173.617066 62.830048 
L 175.057397 62.870164 
L 176.497728 62.839856 
L 177.938059 62.859586 
L 179.378391 62.896225 
L 180.818722 62.951544 
L 182.259053 62.858971 
L 183.699384 62.877662 
L 185.139715 62.808763 
L 185.139715 62.790101 
L 183.699384 62.788141 
L 182.259053 62.790486 
L 180.818722 62.823746 
L 179.378391 62.79432 
L 177.938059 62.794159 
L 176.497728 62.793353 
L 175.057397 62.794309 
L 173.617066 62.793695 
L 172.176735 62.792828 
L 170.736404 62.790202 
L 169.296073 62.789054 
L 167.855742 62.794075 
L 166.415411 62.792535 
L 164.97508 62.792977 
L 163.534749 62.794687 
L 162.094418 62.792836 
L 160.654087 62.791249 
L 159.213756 62.794115 
L 157.773425 62.796414 
L 156.333094 62.795465 
L 154.892763 62.799001 
L 153.452431 62.797409 
L 152.0121 62.795837 
L 150.571769 62.795466 
L 149.131438 62.797022 
L 147.691107 62.793076 
L 146.250776 62.794952 
L 144.810445 62.79354 
L 143.370114 62.792124 
L 141.929783 62.793142 
L 140.489452 62.793261 
L 139.049121 62.791819 
L 137.60879 62.790563 
L 136.168459 62.792203 
L 134.728128 62.788519 
L 133.287797 62.787159 
L 131.847466 62.786793 
L 130.407134 62.785655 
L 128.966803 62.787644 
L 127.526472 62.78632 
L 126.086141 62.784904 
L 124.64581 62.786194 
L 123.205479 62.784855 
L 121.765148 62.785498 
L 120.324817 62.784929 
L 118.884486 62.789316 
L 117.444155 62.786036 
L 116.003824 62.787276 
L 114.563493 62.791494 
L 113.123162 62.786203 
L 111.682831 62.791488 
L 110.2425 62.788137 
L 108.802169 62.785505 
L 107.361838 62.785335 
L 105.921506 62.785209 
L 104.481175 62.785939 
L 103.040844 62.801029 
L 101.600513 62.799572 
L 100.160182 62.786805 
L 98.719851 62.788895 
L 97.27952 62.786844 
L 95.839189 62.78713 
L 94.398858 62.788091 
L 92.958527 62.787224 
L 91.518196 62.789238 
L 90.077865 62.788846 
L 88.637534 62.787287 
L 87.197203 62.78539 
L 85.756872 62.788931 
L 84.316541 62.785969 
L 82.876209 62.796177 
L 81.435878 62.79137 
L 79.995547 62.802687 
L 78.555216 62.792332 
L 77.114885 62.794164 
L 75.674554 62.791771 
L 74.234223 62.793826 
L 72.793892 62.791745 
L 71.353561 62.787886 
L 69.91323 62.787548 
L 68.472899 62.787892 
L 67.032568 62.788142 
L 65.592237 62.790586 
L 64.151906 62.788449 
L 62.711575 62.790969 
L 61.271244 62.789539 
L 59.830913 62.792175 
L 58.390581 62.791412 
L 56.95025 62.793843 
L 55.509919 62.803074 
L 54.069588 62.814484 
L 52.629257 62.834513 
L 51.188926 62.863606 
L 49.748595 62.89366 
L 48.308264 63.051009 
L 46.867933 64.205351 
z
" clip-path="url(#p605daca6d0)" style="fill: #d62728; fill-opacity: 0.15"/>
   </g>
   <g id="line2d_11">
    <path d="M 46.867933 69.41285 
L 48.308264 68.97101 
L 49.748595 68.594614 
L 51.188926 68.358152 
L 52.629257 68.365728 
L 54.069588 68.642567 
L 55.509919 69.275431 
L 56.95025 69.291863 
L 58.390581 68.912613 
L 59.830913 69.088019 
L 61.271244 69.421552 
L 62.711575 69.431002 
L 64.151906 69.451047 
L 65.592237 69.723749 
L 67.032568 69.827471 
L 68.472899 69.766995 
L 69.91323 70.267176 
L 71.353561 55.035138 
L 72.793892 49.318459 
L 74.234223 45.663415 
L 75.674554 41.012723 
L 77.114885 39.330944 
L 78.555216 38.186481 
L 79.995547 38.121406 
L 81.435878 38.390271 
L 82.876209 38.489241 
L 84.316541 37.784325 
L 85.756872 37.482912 
L 87.197203 38.551881 
L 88.637534 38.418785 
L 90.077865 37.386638 
L 91.518196 38.794085 
L 92.958527 38.787936 
L 94.398858 38.55807 
L 95.839189 38.899181 
L 97.27952 38.415899 
L 98.719851 38.875525 
L 100.160182 38.99607 
L 101.600513 40.279426 
L 103.040844 39.937225 
L 104.481175 38.52352 
L 105.921506 39.308827 
L 107.361838 39.668505 
L 108.802169 39.349558 
L 110.2425 38.662428 
L 111.682831 38.787359 
L 113.123162 40.446183 
L 114.563493 39.352741 
L 116.003824 39.094904 
L 117.444155 38.823024 
L 118.884486 38.740689 
L 120.324817 39.07108 
L 121.765148 38.768504 
L 123.205479 38.078816 
L 124.64581 38.912554 
L 126.086141 37.581475 
L 127.526472 37.373253 
L 128.966803 38.297532 
L 130.407134 38.020693 
L 131.847466 38.339322 
L 133.287797 39.633231 
L 134.728128 38.980014 
L 136.168459 39.47394 
L 137.60879 43.16682 
L 139.049121 39.902915 
L 140.489452 38.055054 
L 141.929783 39.099057 
L 143.370114 39.166027 
L 144.810445 38.496665 
L 146.250776 38.541874 
L 147.691107 38.149524 
L 149.131438 39.430184 
L 150.571769 38.97372 
L 152.0121 38.918773 
L 153.452431 39.11764 
L 154.892763 37.893045 
L 156.333094 37.388713 
L 157.773425 37.549559 
L 159.213756 37.950054 
L 160.654087 36.966301 
L 162.094418 37.474125 
L 163.534749 37.867875 
L 164.97508 36.870955 
L 166.415411 37.151561 
L 167.855742 37.971073 
L 169.296073 38.467904 
L 170.736404 38.018643 
L 172.176735 38.443976 
L 173.617066 38.097166 
L 175.057397 38.439731 
L 176.497728 37.496335 
L 177.938059 38.078521 
L 179.378391 36.855657 
L 180.818722 37.665206 
L 182.259053 38.109436 
L 183.699384 38.18783 
L 185.139715 37.777453 
" clip-path="url(#p605daca6d0)" style="fill: none; stroke: #1f77b4; stroke-width: 1.5; stroke-linecap: round"/>
   </g>
   <g id="line2d_12">
    <path d="M 46.867933 70.305582 
L 48.308264 70.323962 
L 49.748595 70.316764 
L 51.188926 70.300266 
L 52.629257 70.317987 
L 54.069588 70.314913 
L 55.509919 70.327663 
L 56.95025 70.316365 
L 58.390581 70.304143 
L 59.830913 70.309825 
L 61.271244 70.334388 
L 62.711575 70.319987 
L 64.151906 70.30428 
L 65.592237 70.3203 
L 67.032568 70.312587 
L 68.472899 70.303282 
L 69.91323 70.331918 
L 71.353561 70.230383 
L 72.793892 70.086388 
L 74.234223 71.659023 
L 75.674554 71.342654 
L 77.114885 69.977771 
L 78.555216 69.748814 
L 79.995547 70.368858 
L 81.435878 70.270869 
L 82.876209 69.957629 
L 84.316541 70.215367 
L 85.756872 70.612375 
L 87.197203 71.056667 
L 88.637534 71.055046 
L 90.077865 71.497892 
L 91.518196 71.50779 
L 92.958527 69.98609 
L 94.398858 68.37459 
L 95.839189 68.209106 
L 97.27952 68.183333 
L 98.719851 68.177 
L 100.160182 68.175362 
L 101.600513 68.171776 
L 103.040844 68.167678 
L 104.481175 68.161437 
L 105.921506 68.154835 
L 107.361838 68.159048 
L 108.802169 68.154728 
L 110.2425 68.155804 
L 111.682831 69.389287 
L 113.123162 69.924209 
L 114.563493 68.552998 
L 116.003824 68.155216 
L 117.444155 68.15589 
L 118.884486 68.15523 
L 120.324817 68.155343 
L 121.765148 68.154297 
L 123.205479 68.158643 
L 124.64581 68.155296 
L 126.086141 68.157278 
L 127.526472 68.157422 
L 128.966803 68.161148 
L 130.407134 68.160175 
L 131.847466 68.160045 
L 133.287797 68.157764 
L 134.728128 68.153795 
L 136.168459 68.158252 
L 137.60879 68.158032 
L 139.049121 68.159996 
L 140.489452 68.157852 
L 141.929783 68.159897 
L 143.370114 69.656591 
L 144.810445 69.497168 
L 146.250776 68.163002 
L 147.691107 69.497302 
L 149.131438 69.497215 
L 150.571769 68.199965 
L 152.0121 68.170306 
L 153.452431 68.17821 
L 154.892763 68.220523 
L 156.333094 68.169635 
L 157.773425 68.168356 
L 159.213756 68.169606 
L 160.654087 68.160786 
L 162.094418 68.16003 
L 163.534749 68.160675 
L 164.97508 68.159084 
L 166.415411 68.39167 
L 167.855742 69.918396 
L 169.296073 68.588333 
L 170.736404 68.19573 
L 172.176735 68.168446 
L 173.617066 68.184571 
L 175.057397 68.157021 
L 176.497728 68.15934 
L 177.938059 68.161898 
L 179.378391 68.160894 
L 180.818722 68.161551 
L 182.259053 68.180402 
L 183.699384 68.174785 
L 185.139715 68.180715 
" clip-path="url(#p605daca6d0)" style="fill: none; stroke: #ff7f0e; stroke-width: 1.5; stroke-linecap: round"/>
   </g>
   <g id="line2d_13">
    <path d="M 46.867933 65.74321 
L 48.308264 65.655947 
L 49.748595 66.086166 
L 51.188926 65.751945 
L 52.629257 64.619472 
L 54.069588 64.413679 
L 55.509919 63.275242 
L 56.95025 64.746358 
L 58.390581 64.482212 
L 59.830913 63.527006 
L 61.271244 62.945796 
L 62.711575 62.883783 
L 64.151906 62.917391 
L 65.592237 62.944426 
L 67.032568 62.847875 
L 68.472899 62.835935 
L 69.91323 62.841804 
L 71.353561 62.823428 
L 72.793892 62.827221 
L 74.234223 62.843493 
L 75.674554 62.823618 
L 77.114885 62.774035 
L 78.555216 62.778521 
L 79.995547 62.982078 
L 81.435878 62.94375 
L 82.876209 62.826013 
L 84.316541 63.132156 
L 85.756872 64.380966 
L 87.197203 64.260381 
L 88.637534 63.86161 
L 90.077865 61.541111 
L 91.518196 58.393349 
L 92.958527 57.543503 
L 94.398858 57.230914 
L 95.839189 56.584632 
L 97.27952 56.433609 
L 98.719851 56.494518 
L 100.160182 56.261145 
L 101.600513 56.467658 
L 103.040844 56.229063 
L 104.481175 56.343383 
L 105.921506 55.167982 
L 107.361838 54.92806 
L 108.802169 53.556113 
L 110.2425 53.903326 
L 111.682831 51.733619 
L 113.123162 50.13559 
L 114.563493 49.810381 
L 116.003824 49.953462 
L 117.444155 50.275973 
L 118.884486 50.69078 
L 120.324817 50.612039 
L 121.765148 50.463063 
L 123.205479 50.286742 
L 124.64581 49.771787 
L 126.086141 50.207158 
L 127.526472 49.759834 
L 128.966803 49.835295 
L 130.407134 50.208457 
L 131.847466 49.912957 
L 133.287797 49.914985 
L 134.728128 49.902915 
L 136.168459 50.247512 
L 137.60879 49.687752 
L 139.049121 50.493317 
L 140.489452 49.981398 
L 141.929783 49.479481 
L 143.370114 49.149495 
L 144.810445 49.347647 
L 146.250776 49.179016 
L 147.691107 50.004161 
L 149.131438 49.504912 
L 150.571769 49.28097 
L 152.0121 49.068052 
L 153.452431 49.247417 
L 154.892763 49.466829 
L 156.333094 49.458811 
L 157.773425 49.399041 
L 159.213756 49.160011 
L 160.654087 49.310465 
L 162.094418 49.944497 
L 163.534749 49.574503 
L 164.97508 49.705277 
L 166.415411 50.044875 
L 167.855742 50.391041 
L 169.296073 50.042879 
L 170.736404 49.424436 
L 172.176735 49.943246 
L 173.617066 49.360086 
L 175.057397 49.14829 
L 176.497728 50.236135 
L 177.938059 49.902644 
L 179.378391 49.381919 
L 180.818722 50.035817 
L 182.259053 49.3374 
L 183.699384 49.954955 
L 185.139715 50.299758 
" clip-path="url(#p605daca6d0)" style="fill: none; stroke: #2ca02c; stroke-width: 1.5; stroke-linecap: round"/>
   </g>
   <g id="line2d_14">
    <path d="M 46.867933 65.701073 
L 48.308264 63.202887 
L 49.748595 63.350321 
L 51.188926 63.310298 
L 52.629257 62.865597 
L 54.069588 62.832753 
L 55.509919 62.815937 
L 56.95025 62.805468 
L 58.390581 62.802834 
L 59.830913 62.802946 
L 61.271244 62.799699 
L 62.711575 62.800241 
L 64.151906 62.794705 
L 65.592237 62.796587 
L 67.032568 62.792974 
L 68.472899 62.792132 
L 69.91323 62.792383 
L 71.353561 62.792656 
L 72.793892 62.797635 
L 74.234223 62.819213 
L 75.674554 62.799042 
L 77.114885 62.816471 
L 78.555216 62.799002 
L 79.995547 62.834009 
L 81.435878 62.797734 
L 82.876209 62.808494 
L 84.316541 62.798381 
L 85.756872 62.80113 
L 87.197203 62.797154 
L 88.637534 62.802673 
L 90.077865 62.803675 
L 91.518196 62.800538 
L 92.958527 62.802835 
L 94.398858 62.80434 
L 95.839189 62.798372 
L 97.27952 62.8042 
L 98.719851 62.801743 
L 100.160182 62.798921 
L 101.600513 62.829309 
L 103.040844 62.821593 
L 104.481175 62.803314 
L 105.921506 62.796908 
L 107.361838 62.793908 
L 108.802169 62.796159 
L 110.2425 62.798008 
L 111.682831 62.800479 
L 113.123162 62.794577 
L 114.563493 62.797452 
L 116.003824 62.79319 
L 117.444155 62.790438 
L 118.884486 62.797193 
L 120.324817 62.787483 
L 121.765148 62.787448 
L 123.205479 62.785388 
L 124.64581 62.787727 
L 126.086141 62.785149 
L 127.526472 62.796325 
L 128.966803 62.79103 
L 130.407134 62.786225 
L 131.847466 62.787896 
L 133.287797 62.792594 
L 134.728128 62.790955 
L 136.168459 62.856576 
L 137.60879 62.796803 
L 139.049121 62.796568 
L 140.489452 62.80174 
L 141.929783 62.801962 
L 143.370114 62.811264 
L 144.810445 62.79748 
L 146.250776 62.863582 
L 147.691107 62.800632 
L 149.131438 62.805859 
L 150.571769 62.809613 
L 152.0121 62.813644 
L 153.452431 62.810052 
L 154.892763 62.864931 
L 156.333094 62.837453 
L 157.773425 62.824215 
L 159.213756 62.814622 
L 160.654087 62.807458 
L 162.094418 62.810736 
L 163.534749 62.821028 
L 164.97508 62.817196 
L 166.415411 62.811014 
L 167.855742 62.819055 
L 169.296073 62.828374 
L 170.736404 62.812347 
L 172.176735 62.821908 
L 173.617066 62.811872 
L 175.057397 62.832237 
L 176.497728 62.816604 
L 177.938059 62.826873 
L 179.378391 62.845273 
L 180.818722 62.887645 
L 182.259053 62.824728 
L 183.699384 62.832901 
L 185.139715 62.799432 
" clip-path="url(#p605daca6d0)" style="fill: none; stroke: #d62728; stroke-width: 1.5; stroke-linecap: round"/>
   </g>
   <g id="line2d_15">
    <path d="M 69.91323 73.803232 
L 69.91323 28.30024 
" clip-path="url(#p605daca6d0)" style="fill: none; stroke-dasharray: 5.55,2.4; stroke-dashoffset: 0; stroke: #000000; stroke-width: 1.5"/>
   </g>
   <g id="patch_7">
    <path d="M 39.954344 73.803232 
L 39.954344 28.30024 
" style="fill: none; stroke: #262626; stroke-width: 1.25; stroke-linejoin: miter; stroke-linecap: square"/>
   </g>
   <g id="patch_8">
    <path d="M 192.053304 73.803232 
L 192.053304 28.30024 
" style="fill: none; stroke: #262626; stroke-width: 1.25; stroke-linejoin: miter; stroke-linecap: square"/>
   </g>
   <g id="patch_9">
    <path d="M 39.954344 73.803232 
L 192.053304 73.803232 
" style="fill: none; stroke: #262626; stroke-width: 1.25; stroke-linejoin: miter; stroke-linecap: square"/>
   </g>
   <g id="patch_10">
    <path d="M 39.954344 28.30024 
L 192.053304 28.30024 
" style="fill: none; stroke: #262626; stroke-width: 1.25; stroke-linejoin: miter; stroke-linecap: square"/>
   </g>
  </g>
  <g id="axes_2">
   <g id="patch_11">
    <path d="M 39.954344 133.141522 
L 192.053304 133.141522 
L 192.053304 87.63853 
L 39.954344 87.63853 
z
" style="fill: #ffffff"/>
   </g>
   <g id="matplotlib.axis_3">
    <g id="xtick_7">
     <g id="line2d_16">
      <g>
       <use xlink:href="#m57a09e3c9c" x="41.106609" y="133.141522" style="fill: #262626; stroke: #262626; stroke-width: 1.25"/>
      </g>
     </g>
     <g id="text_4">
      <!-- $\mathdefault{0}$ -->
      <g style="fill: #262626" transform="translate(39.12099 147.369717) scale(0.07 -0.07)">
       <use xlink:href="#CMR17-30" transform="scale(0.996264)"/>
      </g>
     </g>
    </g>
    <g id="xtick_8">
     <g id="line2d_17">
      <g>
       <use xlink:href="#m57a09e3c9c" x="69.91323" y="133.141522" style="fill: #262626; stroke: #262626; stroke-width: 1.25"/>
      </g>
     </g>
     <g id="text_5">
      <!-- $\mathdefault{1000}$ -->
      <g style="fill: #262626" transform="translate(61.970755 147.369717) scale(0.07 -0.07)">
       <defs>
        <path id="CMR17-31" d="M 1702 4058 
C 1702 4192 1696 4192 1606 4192 
C 1357 3916 979 3827 621 3827 
C 602 3827 570 3827 563 3808 
C 557 3795 557 3782 557 3648 
C 755 3648 1088 3686 1344 3839 
L 1344 461 
C 1344 236 1331 160 781 160 
L 589 160 
L 589 0 
C 896 0 1216 0 1523 0 
C 1830 0 2150 0 2458 0 
L 2458 160 
L 2266 160 
C 1715 160 1702 230 1702 458 
L 1702 4058 
z
" transform="scale(0.015625)"/>
       </defs>
       <use xlink:href="#CMR17-31" transform="scale(0.996264)"/>
       <use xlink:href="#CMR17-30" transform="translate(45.690477 0) scale(0.996264)"/>
       <use xlink:href="#CMR17-30" transform="translate(91.380954 0) scale(0.996264)"/>
       <use xlink:href="#CMR17-30" transform="translate(137.071431 0) scale(0.996264)"/>
      </g>
     </g>
    </g>
    <g id="xtick_9">
     <g id="line2d_18">
      <g>
       <use xlink:href="#m57a09e3c9c" x="98.719851" y="133.141522" style="fill: #262626; stroke: #262626; stroke-width: 1.25"/>
      </g>
     </g>
     <g id="text_6">
      <!-- $\mathdefault{2000}$ -->
      <g style="fill: #262626" transform="translate(90.777376 147.369717) scale(0.07 -0.07)">
       <defs>
        <path id="CMR17-32" d="M 2669 989 
L 2554 989 
C 2490 536 2438 459 2413 420 
C 2381 369 1920 369 1830 369 
L 602 369 
C 832 619 1280 1072 1824 1597 
C 2214 1967 2669 2402 2669 3035 
C 2669 3790 2067 4224 1395 4224 
C 691 4224 262 3604 262 3030 
C 262 2780 448 2748 525 2748 
C 589 2748 781 2787 781 3010 
C 781 3207 614 3264 525 3264 
C 486 3264 448 3258 422 3245 
C 544 3790 915 4058 1306 4058 
C 1862 4058 2227 3617 2227 3035 
C 2227 2479 1901 2000 1536 1584 
L 262 146 
L 262 0 
L 2515 0 
L 2669 989 
z
" transform="scale(0.015625)"/>
       </defs>
       <use xlink:href="#CMR17-32" transform="scale(0.996264)"/>
       <use xlink:href="#CMR17-30" transform="translate(45.690477 0) scale(0.996264)"/>
       <use xlink:href="#CMR17-30" transform="translate(91.380954 0) scale(0.996264)"/>
       <use xlink:href="#CMR17-30" transform="translate(137.071431 0) scale(0.996264)"/>
      </g>
     </g>
    </g>
    <g id="xtick_10">
     <g id="line2d_19">
      <g>
       <use xlink:href="#m57a09e3c9c" x="127.526472" y="133.141522" style="fill: #262626; stroke: #262626; stroke-width: 1.25"/>
      </g>
     </g>
     <g id="text_7">
      <!-- $\mathdefault{3000}$ -->
      <g style="fill: #262626" transform="translate(119.583997 147.369717) scale(0.07 -0.07)">
       <defs>
        <path id="CMR17-33" d="M 1414 2157 
C 1984 2157 2234 1662 2234 1090 
C 2234 320 1824 25 1453 25 
C 1114 25 563 194 390 693 
C 422 680 454 680 486 680 
C 640 680 755 782 755 948 
C 755 1133 614 1216 486 1216 
C 378 1216 211 1165 211 926 
C 211 335 787 -128 1466 -128 
C 2176 -128 2720 430 2720 1085 
C 2720 1707 2208 2157 1600 2227 
C 2086 2328 2554 2756 2554 3329 
C 2554 3820 2048 4179 1472 4179 
C 890 4179 378 3829 378 3329 
C 378 3110 544 3072 627 3072 
C 762 3072 877 3155 877 3321 
C 877 3486 762 3569 627 3569 
C 602 3569 570 3569 544 3557 
C 730 3959 1235 4032 1459 4032 
C 1683 4032 2106 3925 2106 3320 
C 2106 3143 2080 2828 1862 2550 
C 1670 2304 1453 2304 1242 2284 
C 1210 2284 1062 2269 1037 2269 
C 992 2263 966 2257 966 2208 
C 966 2163 973 2157 1101 2157 
L 1414 2157 
z
" transform="scale(0.015625)"/>
       </defs>
       <use xlink:href="#CMR17-33" transform="scale(0.996264)"/>
       <use xlink:href="#CMR17-30" transform="translate(45.690477 0) scale(0.996264)"/>
       <use xlink:href="#CMR17-30" transform="translate(91.380954 0) scale(0.996264)"/>
       <use xlink:href="#CMR17-30" transform="translate(137.071431 0) scale(0.996264)"/>
      </g>
     </g>
    </g>
    <g id="xtick_11">
     <g id="line2d_20">
      <g>
       <use xlink:href="#m57a09e3c9c" x="156.333094" y="133.141522" style="fill: #262626; stroke: #262626; stroke-width: 1.25"/>
      </g>
     </g>
     <g id="text_8">
      <!-- $\mathdefault{4000}$ -->
      <g style="fill: #262626" transform="translate(148.390618 147.369717) scale(0.07 -0.07)">
       <defs>
        <path id="CMR17-34" d="M 2150 4122 
C 2150 4256 2144 4256 2029 4256 
L 128 1254 
L 128 1088 
L 1779 1088 
L 1779 457 
C 1779 224 1766 160 1318 160 
L 1197 160 
L 1197 0 
C 1402 0 1747 0 1965 0 
C 2182 0 2528 0 2733 0 
L 2733 160 
L 2611 160 
C 2163 160 2150 224 2150 457 
L 2150 1088 
L 2803 1088 
L 2803 1254 
L 2150 1254 
L 2150 4122 
z
M 1798 3703 
L 1798 1254 
L 256 1254 
L 1798 3703 
z
" transform="scale(0.015625)"/>
       </defs>
       <use xlink:href="#CMR17-34" transform="scale(0.996264)"/>
       <use xlink:href="#CMR17-30" transform="translate(45.690477 0) scale(0.996264)"/>
       <use xlink:href="#CMR17-30" transform="translate(91.380954 0) scale(0.996264)"/>
       <use xlink:href="#CMR17-30" transform="translate(137.071431 0) scale(0.996264)"/>
      </g>
     </g>
    </g>
    <g id="xtick_12">
     <g id="line2d_21">
      <g>
       <use xlink:href="#m57a09e3c9c" x="185.139715" y="133.141522" style="fill: #262626; stroke: #262626; stroke-width: 1.25"/>
      </g>
     </g>
     <g id="text_9">
      <!-- $\mathdefault{5000}$ -->
      <g style="fill: #262626" transform="translate(177.19724 147.369717) scale(0.07 -0.07)">
       <use xlink:href="#CMR17-35" transform="scale(0.996264)"/>
       <use xlink:href="#CMR17-30" transform="translate(45.690477 0) scale(0.996264)"/>
       <use xlink:href="#CMR17-30" transform="translate(91.380954 0) scale(0.996264)"/>
       <use xlink:href="#CMR17-30" transform="translate(137.071431 0) scale(0.996264)"/>
      </g>
     </g>
    </g>
    <g id="text_10">
     <!-- Episodes -->
     <g style="fill: #262626" transform="translate(99.815218 158.958614) scale(0.09 -0.09)">
      <defs>
       <path id="NimbusRomNo9L-Regu-45" d="M 3821 1078 
L 3642 1078 
C 3322 389 3046 237 2131 237 
L 1958 237 
C 1645 237 1376 269 1331 315 
C 1299 334 1286 404 1286 514 
L 1286 2106 
L 2272 2106 
C 2797 2106 2893 2020 2976 1472 
L 3123 1472 
L 3123 2957 
L 2976 2957 
C 2931 2703 2906 2610 2835 2523 
C 2752 2417 2573 2368 2272 2368 
L 1286 2368 
L 1286 3766 
C 1286 3943 1325 3981 1498 3981 
L 2362 3981 
C 3085 3981 3226 3886 3334 3314 
L 3494 3314 
L 3475 4224 
L 77 4224 
L 77 4102 
C 550 4064 634 3974 634 3525 
L 634 679 
C 634 230 544 134 77 134 
L 77 0 
L 3533 0 
L 3821 1078 
z
" transform="scale(0.015625)"/>
       <path id="NimbusRomNo9L-Regu-70" d="M 58 2516 
C 115 2522 160 2522 218 2522 
C 435 2522 480 2458 480 2155 
L 480 -855 
C 480 -1189 410 -1261 32 -1299 
L 32 -1408 
L 1581 -1408 
L 1581 -1293 
C 1101 -1293 1018 -1222 1018 -816 
L 1018 199 
C 1242 -13 1395 -77 1664 -77 
C 2419 -77 3008 643 3008 1575 
C 3008 2372 2560 2944 1939 2944 
C 1581 2944 1299 2784 1018 2438 
L 1018 2931 
L 979 2944 
C 634 2810 410 2726 58 2618 
L 58 2516 
z
M 1018 2136 
C 1018 2329 1376 2560 1670 2560 
C 2144 2560 2458 2071 2458 1324 
C 2458 611 2144 128 1683 128 
C 1382 128 1018 359 1018 552 
L 1018 2136 
z
" transform="scale(0.015625)"/>
       <path id="NimbusRomNo9L-Regu-69" d="M 1120 2929 
L 128 2579 
L 128 2484 
L 179 2490 
C 256 2502 339 2509 397 2509 
C 550 2509 608 2406 608 2125 
L 608 640 
C 608 179 544 109 102 109 
L 102 0 
L 1619 0 
L 1619 96 
C 1197 128 1146 191 1146 650 
L 1146 2910 
L 1120 2929 
z
M 819 4352 
C 646 4352 499 4205 499 4026 
C 499 3847 640 3699 819 3699 
C 1005 3699 1152 3840 1152 4026 
C 1152 4205 1005 4352 819 4352 
z
" transform="scale(0.015625)"/>
       <path id="NimbusRomNo9L-Regu-73" d="M 2016 2010 
L 1990 2880 
L 1920 2880 
L 1907 2867 
C 1850 2822 1843 2816 1818 2816 
C 1779 2816 1715 2829 1645 2861 
C 1504 2915 1363 2944 1197 2944 
C 691 2944 326 2616 326 2154 
C 326 1796 531 1539 1075 1231 
L 1446 1020 
C 1670 892 1779 737 1779 539 
C 1779 256 1574 77 1248 77 
C 1030 77 832 159 710 298 
C 576 455 518 600 435 960 
L 333 960 
L 333 -39 
L 416 -39 
C 461 33 486 48 563 48 
C 621 48 710 35 858 -2 
C 1037 -39 1210 -64 1325 -64 
C 1818 -64 2227 308 2227 757 
C 2227 1077 2074 1289 1690 1520 
L 998 1930 
C 819 2033 723 2194 723 2367 
C 723 2624 922 2803 1216 2803 
C 1581 2803 1773 2583 1920 2010 
L 2016 2010 
z
" transform="scale(0.015625)"/>
       <path id="NimbusRomNo9L-Regu-6f" d="M 1600 2944 
C 768 2944 186 2330 186 1446 
C 186 582 781 -64 1587 -64 
C 2394 -64 3008 614 3008 1498 
C 3008 2336 2419 2944 1600 2944 
z
M 1517 2765 
C 2054 2765 2432 2150 2432 1274 
C 2432 550 2144 115 1664 115 
C 1414 115 1178 269 1043 525 
C 864 858 762 1306 762 1760 
C 762 2368 1062 2765 1517 2765 
z
" transform="scale(0.015625)"/>
       <path id="NimbusRomNo9L-Regu-64" d="M 2202 -64 
L 3142 269 
L 3142 365 
C 3027 365 3014 365 2995 365 
C 2765 365 2714 435 2714 731 
L 2714 4364 
L 2682 4377 
C 2374 4268 2150 4204 1741 4096 
L 1741 3994 
C 1792 4000 1830 4000 1882 4000 
C 2118 4000 2176 3936 2176 3672 
L 2176 2669 
C 1933 2874 1760 2944 1504 2944 
C 768 2944 173 2221 173 1312 
C 173 493 653 -64 1357 -64 
C 1715 -64 1958 64 2176 365 
L 2176 -45 
L 2202 -64 
z
M 2176 653 
C 2176 608 2131 531 2067 461 
C 1952 333 1792 269 1606 269 
C 1075 269 723 781 723 1568 
C 723 2291 1037 2765 1523 2765 
C 1862 2765 2176 2464 2176 2125 
L 2176 653 
z
" transform="scale(0.015625)"/>
       <path id="NimbusRomNo9L-Regu-65" d="M 2611 1053 
C 2304 564 2029 378 1619 378 
C 1254 378 979 564 794 930 
C 678 1174 634 1386 621 1779 
L 2592 1779 
C 2541 2193 2477 2377 2317 2581 
C 2125 2811 1830 2944 1498 2944 
C 1178 2944 877 2829 634 2611 
C 333 2349 160 1894 160 1370 
C 160 486 621 -64 1357 -64 
C 1965 -64 2445 315 2714 1008 
L 2611 1053 
z
M 634 1984 
C 704 2479 922 2714 1312 2714 
C 1702 2714 1856 2535 1939 1984 
L 634 1984 
z
" transform="scale(0.015625)"/>
      </defs>
      <use xlink:href="#NimbusRomNo9L-Regu-45" transform="scale(0.996264)"/>
      <use xlink:href="#NimbusRomNo9L-Regu-70" transform="translate(60.871631 0) scale(0.996264)"/>
      <use xlink:href="#NimbusRomNo9L-Regu-69" transform="translate(110.684831 0) scale(0.996264)"/>
      <use xlink:href="#NimbusRomNo9L-Regu-73" transform="translate(138.380001 0) scale(0.996264)"/>
      <use xlink:href="#NimbusRomNo9L-Regu-6f" transform="translate(177.133707 0) scale(0.996264)"/>
      <use xlink:href="#NimbusRomNo9L-Regu-64" transform="translate(226.946907 0) scale(0.996264)"/>
      <use xlink:href="#NimbusRomNo9L-Regu-65" transform="translate(276.760108 0) scale(0.996264)"/>
      <use xlink:href="#NimbusRomNo9L-Regu-73" transform="translate(320.993677 0) scale(0.996264)"/>
     </g>
    </g>
   </g>
   <g id="matplotlib.axis_4">
    <g id="ytick_3">
     <g id="line2d_22">
      <path d="M 39.954344 131.073204 
L 192.053304 131.073204 
" clip-path="url(#p168b29e417)" style="fill: none; stroke: #dcdcdc; stroke-width: 0.5; stroke-linecap: round"/>
     </g>
     <g id="line2d_23">
      <g>
       <use xlink:href="#mffa8c23367" x="39.954344" y="131.073204" style="fill: #262626; stroke: #262626; stroke-width: 1.25"/>
      </g>
     </g>
     <g id="text_11">
      <!-- $\mathdefault{0}$ -->
      <g style="fill: #262626" transform="translate(26.483106 133.437302) scale(0.07 -0.07)">
       <use xlink:href="#CMR17-30" transform="scale(0.996264)"/>
      </g>
     </g>
    </g>
    <g id="ytick_4">
     <g id="line2d_24">
      <path d="M 39.954344 109.620406 
L 192.053304 109.620406 
" clip-path="url(#p168b29e417)" style="fill: none; stroke: #dcdcdc; stroke-width: 0.5; stroke-linecap: round"/>
     </g>
     <g id="line2d_25">
      <g>
       <use xlink:href="#mffa8c23367" x="39.954344" y="109.620406" style="fill: #262626; stroke: #262626; stroke-width: 1.25"/>
      </g>
     </g>
     <g id="text_12">
      <!-- $\mathdefault{500}$ -->
      <g style="fill: #262626" transform="translate(18.540631 111.984503) scale(0.07 -0.07)">
       <use xlink:href="#CMR17-35" transform="scale(0.996264)"/>
       <use xlink:href="#CMR17-30" transform="translate(45.690477 0) scale(0.996264)"/>
       <use xlink:href="#CMR17-30" transform="translate(91.380954 0) scale(0.996264)"/>
      </g>
     </g>
    </g>
    <g id="ytick_5">
     <g id="line2d_26">
      <path d="M 39.954344 88.167607 
L 192.053304 88.167607 
" clip-path="url(#p168b29e417)" style="fill: none; stroke: #dcdcdc; stroke-width: 0.5; stroke-linecap: round"/>
     </g>
     <g id="line2d_27">
      <g>
       <use xlink:href="#mffa8c23367" x="39.954344" y="88.167607" style="fill: #262626; stroke: #262626; stroke-width: 1.25"/>
      </g>
     </g>
     <g id="text_13">
      <!-- $\mathdefault{1000}$ -->
      <g style="fill: #262626" transform="translate(14.569393 90.531705) scale(0.07 -0.07)">
       <use xlink:href="#CMR17-31" transform="scale(0.996264)"/>
       <use xlink:href="#CMR17-30" transform="translate(45.690477 0) scale(0.996264)"/>
       <use xlink:href="#CMR17-30" transform="translate(91.380954 0) scale(0.996264)"/>
       <use xlink:href="#CMR17-30" transform="translate(137.071431 0) scale(0.996264)"/>
      </g>
     </g>
    </g>
    <g id="text_14">
     <!-- $\hat{J}_c$ -->
     <g style="fill: #262626" transform="translate(8.628247 114.599924) rotate(-90) scale(0.09 -0.09)">
      <defs>
       <path id="CMMI12-63" d="M 2502 2431 
C 2381 2431 2323 2431 2234 2355 
C 2195 2323 2125 2227 2125 2125 
C 2125 1997 2221 1920 2342 1920 
C 2496 1920 2669 2044 2669 2292 
C 2669 2588 2374 2816 1933 2816 
C 1094 2816 256 1903 256 996 
C 256 441 602 -64 1254 -64 
C 2125 -64 2675 622 2675 706 
C 2675 744 2637 776 2611 776 
C 2592 776 2586 770 2528 713 
C 2118 162 1510 64 1267 64 
C 826 64 685 446 685 764 
C 685 988 794 1605 1024 2039 
C 1190 2338 1536 2682 1939 2682 
C 2022 2682 2374 2682 2502 2431 
z
" transform="scale(0.015625)"/>
      </defs>
      <use xlink:href="#CMR17-5e" transform="translate(24.984403 25.189733) scale(0.996264)"/>
      <use xlink:href="#CMMI12-4a" transform="scale(0.996264)"/>
      <use xlink:href="#CMMI12-63" transform="translate(53.917955 -14.943915) scale(0.697382)"/>
     </g>
    </g>
   </g>
   <g id="patch_12">
    <path d="M 46.867933 131.014102 
L 48.308264 131.069339 
L 49.748595 131.027617 
L 51.188926 131.071007 
L 52.629257 131.064419 
L 54.069588 131.073204 
L 55.509919 131.073204 
L 56.95025 131.052027 
L 58.390581 131.073204 
L 59.830913 131.073204 
L 61.271244 131.073204 
L 62.711575 131.073204 
L 64.151906 131.073204 
L 65.592237 131.060216 
L 67.032568 131.073204 
L 68.472899 131.073204 
L 69.91323 131.061245 
L 71.353561 131.062805 
L 72.793892 131.051839 
L 74.234223 131.048262 
L 75.674554 130.945991 
L 77.114885 130.901414 
L 78.555216 130.957422 
L 79.995547 131.035462 
L 81.435878 130.929683 
L 82.876209 130.738114 
L 84.316541 130.927103 
L 85.756872 130.664921 
L 87.197203 130.516748 
L 88.637534 130.686841 
L 90.077865 130.610516 
L 91.518196 130.39683 
L 92.958527 130.1626 
L 94.398858 130.295996 
L 95.839189 130.491893 
L 97.27952 130.425358 
L 98.719851 130.110217 
L 100.160182 130.173455 
L 101.600513 130.000075 
L 103.040844 130.28091 
L 104.481175 130.28496 
L 105.921506 130.301266 
L 107.361838 130.11599 
L 108.802169 129.92625 
L 110.2425 130.268194 
L 111.682831 129.645521 
L 113.123162 129.814728 
L 114.563493 130.020227 
L 116.003824 129.867777 
L 117.444155 129.922925 
L 118.884486 130.048092 
L 120.324817 129.997981 
L 121.765148 129.515767 
L 123.205479 129.6765 
L 124.64581 129.95151 
L 126.086141 129.684609 
L 127.526472 129.828844 
L 128.966803 129.752629 
L 130.407134 129.925634 
L 131.847466 129.459135 
L 133.287797 129.962349 
L 134.728128 129.927552 
L 136.168459 129.906582 
L 137.60879 130.260651 
L 139.049121 129.712516 
L 140.489452 129.790876 
L 141.929783 129.726832 
L 143.370114 129.806471 
L 144.810445 129.692683 
L 146.250776 129.691416 
L 147.691107 129.683683 
L 149.131438 129.635765 
L 150.571769 129.798179 
L 152.0121 129.648851 
L 153.452431 129.807341 
L 154.892763 129.7489 
L 156.333094 129.709789 
L 157.773425 129.542336 
L 159.213756 129.679226 
L 160.654087 129.606063 
L 162.094418 129.668544 
L 163.534749 129.615997 
L 164.97508 129.740437 
L 166.415411 129.682702 
L 167.855742 129.481512 
L 169.296073 129.388965 
L 170.736404 129.580173 
L 172.176735 129.650518 
L 173.617066 129.70472 
L 175.057397 128.99997 
L 176.497728 129.605034 
L 177.938059 129.636534 
L 179.378391 129.684627 
L 180.818722 129.696167 
L 182.259053 129.495247 
L 183.699384 129.700517 
L 185.139715 129.669326 
L 185.139715 128.657798 
L 183.699384 128.722372 
L 182.259053 128.619408 
L 180.818722 128.734273 
L 179.378391 128.716981 
L 177.938059 128.642192 
L 176.497728 128.594059 
L 175.057397 128.658512 
L 173.617066 128.779953 
L 172.176735 128.552351 
L 170.736404 128.513544 
L 169.296073 128.308648 
L 167.855742 128.365412 
L 166.415411 128.751858 
L 164.97508 128.840001 
L 163.534749 128.601631 
L 162.094418 128.675742 
L 160.654087 128.778382 
L 159.213756 128.737141 
L 157.773425 128.476554 
L 156.333094 128.797538 
L 154.892763 128.849043 
L 153.452431 128.947808 
L 152.0121 128.822436 
L 150.571769 128.927795 
L 149.131438 128.602801 
L 147.691107 128.721357 
L 146.250776 128.7682 
L 144.810445 128.727117 
L 143.370114 128.884148 
L 141.929783 128.805209 
L 140.489452 128.905235 
L 139.049121 128.979133 
L 137.60879 128.549418 
L 136.168459 128.673513 
L 134.728128 128.749938 
L 133.287797 128.764912 
L 131.847466 128.599571 
L 130.407134 129.107201 
L 128.966803 128.655157 
L 127.526472 129.083512 
L 126.086141 128.820315 
L 124.64581 129.086473 
L 123.205479 128.846273 
L 121.765148 128.549804 
L 120.324817 129.186225 
L 118.884486 129.309796 
L 117.444155 129.183364 
L 116.003824 129.252928 
L 114.563493 129.161576 
L 113.123162 128.803124 
L 111.682831 129.018326 
L 110.2425 129.528704 
L 108.802169 129.402462 
L 107.361838 129.137208 
L 105.921506 129.466456 
L 104.481175 129.530129 
L 103.040844 129.588412 
L 101.600513 128.177737 
L 100.160182 129.035121 
L 98.719851 129.584393 
L 97.27952 129.664328 
L 95.839189 129.534636 
L 94.398858 129.549299 
L 92.958527 129.476405 
L 91.518196 129.751551 
L 90.077865 130.165316 
L 88.637534 130.087618 
L 87.197203 130.012634 
L 85.756872 130.018578 
L 84.316541 130.450436 
L 82.876209 130.353503 
L 81.435878 130.580006 
L 79.995547 130.991154 
L 78.555216 130.597232 
L 77.114885 130.780927 
L 75.674554 130.606947 
L 74.234223 130.736709 
L 72.793892 130.89995 
L 71.353561 130.668277 
L 69.91323 130.980816 
L 68.472899 130.889911 
L 67.032568 131.067712 
L 65.592237 130.995919 
L 64.151906 131.070115 
L 62.711575 131.070801 
L 61.271244 130.868973 
L 59.830913 130.961306 
L 58.390581 131.052953 
L 56.95025 130.983857 
L 55.509919 131.068055 
L 54.069588 131.073204 
L 52.629257 130.947781 
L 51.188926 131.050344 
L 49.748595 130.85312 
L 48.308264 131.021807 
L 46.867933 127.843678 
z
" clip-path="url(#p168b29e417)" style="fill: #1f77b4; fill-opacity: 0.15"/>
   </g>
   <g id="patch_13">
    <path d="M 46.867933 90.131462 
L 48.308264 90.117455 
L 49.748595 90.134592 
L 51.188926 90.109615 
L 52.629257 90.118275 
L 54.069588 90.131403 
L 55.509919 90.135463 
L 56.95025 90.109334 
L 58.390581 90.122262 
L 59.830913 90.130733 
L 61.271244 90.120074 
L 62.711575 90.123445 
L 64.151906 90.131795 
L 65.592237 90.126205 
L 67.032568 90.136671 
L 68.472899 90.141214 
L 69.91323 90.135162 
L 71.353561 94.398055 
L 72.793892 94.910907 
L 74.234223 93.572624 
L 75.674554 113.61258 
L 77.114885 124.382703 
L 78.555216 124.631733 
L 79.995547 124.632332 
L 81.435878 124.631666 
L 82.876209 124.629957 
L 84.316541 124.632066 
L 85.756872 124.632132 
L 87.197203 124.630749 
L 88.637534 124.631866 
L 90.077865 124.632199 
L 91.518196 124.632132 
L 92.958527 124.623674 
L 94.398858 124.630948 
L 95.839189 124.583011 
L 97.27952 124.632332 
L 98.719851 124.548504 
L 100.160182 124.631467 
L 101.600513 124.630948 
L 103.040844 124.48517 
L 104.481175 124.632132 
L 105.921506 123.57528 
L 107.361838 122.89302 
L 108.802169 124.631733 
L 110.2425 124.232621 
L 111.682831 120.158912 
L 113.123162 122.875121 
L 114.563493 124.157316 
L 116.003824 124.453513 
L 117.444155 124.251778 
L 118.884486 124.536173 
L 120.324817 124.228792 
L 121.765148 124.182882 
L 123.205479 124.388894 
L 124.64581 124.510242 
L 126.086141 124.291041 
L 127.526472 124.601926 
L 128.966803 124.554939 
L 130.407134 124.613325 
L 131.847466 124.608168 
L 133.287797 124.539113 
L 134.728128 124.440774 
L 136.168459 124.495727 
L 137.60879 124.60969 
L 139.049121 124.566682 
L 140.489452 124.526602 
L 141.929783 124.611681 
L 143.370114 117.245682 
L 144.810445 122.293609 
L 146.250776 124.631999 
L 147.691107 122.294878 
L 149.131438 122.292147 
L 150.571769 123.770496 
L 152.0121 124.459887 
L 153.452431 124.523363 
L 154.892763 123.709436 
L 156.333094 124.251875 
L 157.773425 124.383084 
L 159.213756 124.519894 
L 160.654087 124.544682 
L 162.094418 124.337661 
L 163.534749 124.52387 
L 164.97508 124.566217 
L 166.415411 123.060838 
L 167.855742 118.417269 
L 169.296073 122.599242 
L 170.736404 124.532961 
L 172.176735 124.510936 
L 173.617066 123.638817 
L 175.057397 123.97747 
L 176.497728 123.797865 
L 177.938059 124.006174 
L 179.378391 122.970514 
L 180.818722 123.749976 
L 182.259053 123.620794 
L 183.699384 123.984429 
L 185.139715 123.659217 
L 185.139715 103.856539 
L 183.699384 104.004662 
L 182.259053 103.854803 
L 180.818722 103.899989 
L 179.378391 103.562533 
L 177.938059 104.01072 
L 176.497728 103.915943 
L 175.057397 103.997204 
L 173.617066 103.858404 
L 172.176735 104.229861 
L 170.736404 104.238728 
L 169.296073 103.29228 
L 167.855742 99.814746 
L 166.415411 103.551154 
L 164.97508 104.252154 
L 163.534749 104.236149 
L 162.094418 104.155313 
L 160.654087 104.244169 
L 159.213756 104.234632 
L 157.773425 104.174421 
L 156.333094 104.118904 
L 154.892763 103.87085 
L 153.452431 104.235626 
L 152.0121 104.208486 
L 150.571769 103.895602 
L 149.131438 98.310059 
L 147.691107 98.312047 
L 146.250776 104.28042 
L 144.810445 98.30731 
L 143.370114 97.875849 
L 141.929783 104.270876 
L 140.489452 104.236163 
L 139.049121 104.254091 
L 137.60879 104.272524 
L 136.168459 104.224475 
L 134.728128 104.199795 
L 133.287797 104.242873 
L 131.847466 104.268898 
L 130.407134 104.272322 
L 128.966803 104.248672 
L 127.526472 104.268274 
L 126.086141 104.134314 
L 124.64581 104.230554 
L 123.205479 104.178908 
L 121.765148 104.085267 
L 120.324817 104.107319 
L 118.884486 104.239635 
L 117.444155 104.12106 
L 116.003824 104.204562 
L 114.563493 104.077538 
L 113.123162 103.460559 
L 111.682831 101.71699 
L 110.2425 104.110012 
L 108.802169 104.279313 
L 107.361838 103.515772 
L 105.921506 103.817594 
L 104.481175 104.280974 
L 103.040844 104.219929 
L 101.600513 104.281471 
L 100.160182 104.278207 
L 98.719851 104.246869 
L 97.27952 104.281804 
L 95.839189 104.260759 
L 94.398858 104.281471 
L 92.958527 104.277418 
L 91.518196 104.280974 
L 90.077865 104.28125 
L 88.637534 104.279867 
L 87.197203 104.280641 
L 85.756872 104.280974 
L 84.316541 104.280697 
L 82.876209 104.28006 
L 81.435878 104.279037 
L 79.995547 104.281804 
L 78.555216 104.279313 
L 77.114885 104.174801 
L 75.674554 98.391602 
L 74.234223 90.30917 
L 72.793892 89.839983 
L 71.353561 89.706848 
L 69.91323 90.112357 
L 68.472899 90.119692 
L 67.032568 90.108102 
L 65.592237 90.116852 
L 64.151906 90.112635 
L 62.711575 90.104165 
L 61.271244 90.108566 
L 59.830913 90.113696 
L 58.390581 90.103975 
L 56.95025 90.097682 
L 55.509919 90.122696 
L 54.069588 90.102729 
L 52.629257 90.10453 
L 51.188926 90.092596 
L 49.748595 90.119105 
L 48.308264 90.107066 
L 46.867933 90.113997 
z
" clip-path="url(#p168b29e417)" style="fill: #ff7f0e; fill-opacity: 0.15"/>
   </g>
   <g id="patch_14">
    <path d="M 46.867933 131.073204 
L 48.308264 131.073204 
L 49.748595 131.073204 
L 51.188926 131.073204 
L 52.629257 131.025125 
L 54.069588 130.236995 
L 55.509919 131.051158 
L 56.95025 131.048886 
L 58.390581 130.734851 
L 59.830913 130.919631 
L 61.271244 131.008335 
L 62.711575 130.81443 
L 64.151906 130.908341 
L 65.592237 130.929151 
L 67.032568 130.867345 
L 68.472899 130.916165 
L 69.91323 130.930677 
L 71.353561 130.742155 
L 72.793892 130.633333 
L 74.234223 130.387453 
L 75.674554 130.339064 
L 77.114885 130.509724 
L 78.555216 130.420845 
L 79.995547 130.424001 
L 81.435878 130.60031 
L 82.876209 130.825609 
L 84.316541 130.560328 
L 85.756872 130.185586 
L 87.197203 130.191336 
L 88.637534 129.764452 
L 90.077865 130.225234 
L 91.518196 130.403877 
L 92.958527 130.164989 
L 94.398858 129.849185 
L 95.839189 130.143003 
L 97.27952 130.257131 
L 98.719851 130.21615 
L 100.160182 130.262887 
L 101.600513 130.06446 
L 103.040844 130.261882 
L 104.481175 129.889552 
L 105.921506 129.64895 
L 107.361838 129.248421 
L 108.802169 129.279191 
L 110.2425 128.586171 
L 111.682831 129.524225 
L 113.123162 129.462865 
L 114.563493 129.337457 
L 116.003824 129.671794 
L 117.444155 129.158729 
L 118.884486 129.614688 
L 120.324817 129.877085 
L 121.765148 130.279149 
L 123.205479 130.043828 
L 124.64581 130.019154 
L 126.086141 129.620812 
L 127.526472 129.747658 
L 128.966803 129.426495 
L 130.407134 129.968659 
L 131.847466 130.081072 
L 133.287797 130.07988 
L 134.728128 129.400949 
L 136.168459 129.408657 
L 137.60879 129.897313 
L 139.049121 129.301647 
L 140.489452 129.922249 
L 141.929783 129.886766 
L 143.370114 129.165952 
L 144.810445 129.495889 
L 146.250776 129.470616 
L 147.691107 129.247958 
L 149.131438 129.6034 
L 150.571769 129.579925 
L 152.0121 129.420236 
L 153.452431 129.631716 
L 154.892763 129.063251 
L 156.333094 129.393662 
L 157.773425 129.575027 
L 159.213756 129.191179 
L 160.654087 128.928963 
L 162.094418 129.060511 
L 163.534749 129.063217 
L 164.97508 129.241734 
L 166.415411 129.310388 
L 167.855742 129.010363 
L 169.296073 129.754567 
L 170.736404 129.288795 
L 172.176735 128.879047 
L 173.617066 128.712596 
L 175.057397 128.664937 
L 176.497728 128.801508 
L 177.938059 128.878068 
L 179.378391 128.86309 
L 180.818722 128.691922 
L 182.259053 128.634574 
L 183.699384 128.64663 
L 185.139715 128.439919 
L 185.139715 125.739778 
L 183.699384 127.865415 
L 182.259053 127.478277 
L 180.818722 127.878818 
L 179.378391 128.178582 
L 177.938059 128.089806 
L 176.497728 128.290621 
L 175.057397 127.72663 
L 173.617066 128.030796 
L 172.176735 128.502781 
L 170.736404 128.902747 
L 169.296073 128.924039 
L 167.855742 128.284624 
L 166.415411 128.748318 
L 164.97508 128.678301 
L 163.534749 128.596639 
L 162.094418 128.614447 
L 160.654087 127.784567 
L 159.213756 128.764897 
L 157.773425 128.983787 
L 156.333094 128.791358 
L 154.892763 128.130135 
L 153.452431 128.959706 
L 152.0121 128.884234 
L 150.571769 129.063671 
L 149.131438 128.988022 
L 147.691107 128.366246 
L 146.250776 128.921724 
L 144.810445 128.905375 
L 143.370114 127.668057 
L 141.929783 129.190347 
L 140.489452 128.940336 
L 139.049121 123.158393 
L 137.60879 128.961496 
L 136.168459 128.969953 
L 134.728128 128.919653 
L 133.287797 129.325718 
L 131.847466 129.301872 
L 130.407134 129.148613 
L 128.966803 128.790104 
L 127.526472 129.128657 
L 126.086141 129.133995 
L 124.64581 129.372715 
L 123.205479 129.056626 
L 121.765148 129.393151 
L 120.324817 128.851635 
L 118.884486 124.226569 
L 117.444155 128.212458 
L 116.003824 128.422267 
L 114.563493 127.386027 
L 113.123162 128.236121 
L 111.682831 128.518349 
L 110.2425 126.187682 
L 108.802169 128.680317 
L 107.361838 128.630082 
L 105.921506 128.4609 
L 104.481175 129.033101 
L 103.040844 129.614991 
L 101.600513 129.53061 
L 100.160182 129.448886 
L 98.719851 129.511412 
L 97.27952 129.443315 
L 95.839189 129.235823 
L 94.398858 129.164428 
L 92.958527 129.595182 
L 91.518196 129.7548 
L 90.077865 127.846516 
L 88.637534 128.865757 
L 87.197203 126.627913 
L 85.756872 121.527554 
L 84.316541 128.723075 
L 82.876209 130.406738 
L 81.435878 128.964555 
L 79.995547 124.69756 
L 78.555216 129.838403 
L 77.114885 129.970574 
L 75.674554 129.037702 
L 74.234223 129.709097 
L 72.793892 129.936208 
L 71.353561 129.991458 
L 69.91323 130.655555 
L 68.472899 130.484715 
L 67.032568 130.581933 
L 65.592237 130.606282 
L 64.151906 130.669654 
L 62.711575 130.175244 
L 61.271244 130.78762 
L 59.830913 129.606662 
L 58.390581 129.242937 
L 56.95025 130.88574 
L 55.509919 130.924314 
L 54.069588 128.983595 
L 52.629257 130.862133 
L 51.188926 131.073204 
L 49.748595 131.073204 
L 48.308264 131.073204 
z
" clip-path="url(#p168b29e417)" style="fill: #2ca02c; fill-opacity: 0.15"/>
   </g>
   <g id="patch_15">
    <path d="M 46.867933 131.073204 
L 48.308264 131.073204 
L 49.748595 131.073204 
L 51.188926 131.073204 
L 52.629257 131.073204 
L 54.069588 131.073204 
L 55.509919 131.073204 
L 56.95025 131.073204 
L 58.390581 131.073204 
L 59.830913 131.073204 
L 61.271244 131.073204 
L 62.711575 131.073204 
L 64.151906 131.073204 
L 65.592237 131.073204 
L 67.032568 131.073204 
L 68.472899 131.073204 
L 69.91323 131.073204 
L 71.353561 131.073204 
L 72.793892 131.065948 
L 74.234223 130.766477 
L 75.674554 130.97935 
L 77.114885 130.797779 
L 78.555216 130.954208 
L 79.995547 130.914405 
L 81.435878 131.073204 
L 82.876209 131.038017 
L 84.316541 131.073204 
L 85.756872 131.063206 
L 87.197203 131.073204 
L 88.637534 131.073204 
L 90.077865 131.073204 
L 91.518196 131.073204 
L 92.958527 131.066597 
L 94.398858 131.072356 
L 95.839189 131.073204 
L 97.27952 130.963864 
L 98.719851 131.049604 
L 100.160182 131.073204 
L 101.600513 131.061465 
L 103.040844 131.031351 
L 104.481175 131.073204 
L 105.921506 131.073204 
L 107.361838 131.073204 
L 108.802169 131.073204 
L 110.2425 131.073204 
L 111.682831 131.073204 
L 113.123162 131.073204 
L 114.563493 131.026129 
L 116.003824 131.073204 
L 117.444155 131.073204 
L 118.884486 131.058271 
L 120.324817 131.073204 
L 121.765148 131.05489 
L 123.205479 131.025752 
L 124.64581 130.971086 
L 126.086141 131.073204 
L 127.526472 131.044339 
L 128.966803 131.069994 
L 130.407134 131.073204 
L 131.847466 131.044722 
L 133.287797 131.073204 
L 134.728128 131.073204 
L 136.168459 131.073204 
L 137.60879 130.981772 
L 139.049121 131.073204 
L 140.489452 131.057099 
L 141.929783 131.045857 
L 143.370114 130.881247 
L 144.810445 130.806034 
L 146.250776 130.842816 
L 147.691107 131.010196 
L 149.131438 130.9465 
L 150.571769 131.03985 
L 152.0121 130.908311 
L 153.452431 130.994046 
L 154.892763 130.95861 
L 156.333094 131.012541 
L 157.773425 131.030742 
L 159.213756 131.052719 
L 160.654087 131.073204 
L 162.094418 131.049131 
L 163.534749 131.05458 
L 164.97508 130.809813 
L 166.415411 130.859319 
L 167.855742 130.957479 
L 169.296073 130.867579 
L 170.736404 130.818645 
L 172.176735 130.98765 
L 173.617066 130.944894 
L 175.057397 130.80735 
L 176.497728 130.999407 
L 177.938059 130.775803 
L 179.378391 130.868705 
L 180.818722 130.359287 
L 182.259053 130.978944 
L 183.699384 131.015405 
L 185.139715 130.79219 
L 185.139715 129.84806 
L 183.699384 129.522558 
L 182.259053 129.803409 
L 180.818722 128.252043 
L 179.378391 128.871901 
L 177.938059 129.23322 
L 176.497728 130.058572 
L 175.057397 129.106251 
L 173.617066 130.013887 
L 172.176735 129.060846 
L 170.736404 129.346898 
L 169.296073 129.180917 
L 167.855742 129.802907 
L 166.415411 129.975551 
L 164.97508 129.309048 
L 163.534749 129.305239 
L 162.094418 130.111478 
L 160.654087 130.381223 
L 159.213756 130.03272 
L 157.773425 128.540987 
L 156.333094 129.284807 
L 154.892763 128.864374 
L 153.452431 129.718972 
L 152.0121 130.182619 
L 150.571769 130.917087 
L 149.131438 130.371658 
L 147.691107 130.842738 
L 146.250776 128.811979 
L 144.810445 130.202175 
L 143.370114 130.362428 
L 141.929783 130.18443 
L 140.489452 131.034733 
L 139.049121 130.674697 
L 137.60879 130.657664 
L 136.168459 128.762137 
L 134.728128 130.976066 
L 133.287797 131.001123 
L 131.847466 130.98155 
L 130.407134 131.056728 
L 128.966803 130.317156 
L 127.526472 130.580337 
L 126.086141 131.060161 
L 124.64581 129.965384 
L 123.205479 130.82272 
L 121.765148 130.456859 
L 120.324817 131.073204 
L 118.884486 130.888712 
L 117.444155 130.716229 
L 116.003824 131.071145 
L 114.563493 130.8347 
L 113.123162 130.964395 
L 111.682831 130.93213 
L 110.2425 131.060504 
L 108.802169 131.073204 
L 107.361838 131.040939 
L 105.921506 130.75433 
L 104.481175 130.970231 
L 103.040844 130.881651 
L 101.600513 130.745474 
L 100.160182 131.041969 
L 98.719851 130.932733 
L 97.27952 130.650858 
L 95.839189 131.073204 
L 94.398858 131.026685 
L 92.958527 130.45236 
L 91.518196 131.073204 
L 90.077865 131.073204 
L 88.637534 130.947233 
L 87.197203 131.073204 
L 85.756872 130.986064 
L 84.316541 131.073204 
L 82.876209 130.947066 
L 81.435878 131.043342 
L 79.995547 129.853189 
L 78.555216 130.278826 
L 77.114885 130.186745 
L 75.674554 130.82347 
L 74.234223 130.083152 
L 72.793892 130.222691 
L 71.353561 131.067712 
L 69.91323 131.073204 
L 68.472899 130.67607 
L 67.032568 131.049177 
L 65.592237 131.056385 
L 64.151906 131.073204 
L 62.711575 131.073204 
L 61.271244 131.073204 
L 59.830913 131.073204 
L 58.390581 130.894717 
L 56.95025 131.073204 
L 55.509919 131.073204 
L 54.069588 131.073204 
L 52.629257 131.073204 
L 51.188926 131.073204 
L 49.748595 131.073204 
L 48.308264 131.073204 
z
" clip-path="url(#p168b29e417)" style="fill: #d62728; fill-opacity: 0.15"/>
   </g>
   <g id="line2d_28">
    <path d="M 46.867933 129.42889 
L 48.308264 131.045573 
L 49.748595 130.940368 
L 51.188926 131.060676 
L 52.629257 131.0061 
L 54.069588 131.073204 
L 55.509919 131.07063 
L 56.95025 131.017942 
L 58.390581 131.063078 
L 59.830913 131.017255 
L 61.271244 130.971089 
L 62.711575 131.072003 
L 64.151906 131.071659 
L 65.592237 131.028067 
L 67.032568 131.070458 
L 68.472899 130.981558 
L 69.91323 131.021031 
L 71.353561 130.865541 
L 72.793892 130.975894 
L 74.234223 130.892486 
L 75.674554 130.776469 
L 77.114885 130.841171 
L 78.555216 130.777327 
L 79.995547 131.013308 
L 81.435878 130.754845 
L 82.876209 130.545808 
L 84.316541 130.68877 
L 85.756872 130.341749 
L 87.197203 130.264691 
L 88.637534 130.387229 
L 90.077865 130.387916 
L 91.518196 130.07419 
L 92.958527 129.819503 
L 94.398858 129.922648 
L 95.839189 130.013264 
L 97.27952 130.044843 
L 98.719851 129.847305 
L 100.160182 129.604288 
L 101.600513 129.088906 
L 103.040844 129.934661 
L 104.481175 129.907545 
L 105.921506 129.883861 
L 107.361838 129.626599 
L 108.802169 129.664356 
L 110.2425 129.898449 
L 111.682831 129.331923 
L 113.123162 129.308926 
L 114.563493 129.590901 
L 116.003824 129.560353 
L 117.444155 129.553145 
L 118.884486 129.678944 
L 120.324817 129.592103 
L 121.765148 129.032785 
L 123.205479 129.261387 
L 124.64581 129.518992 
L 126.086141 129.252462 
L 127.526472 129.456178 
L 128.966803 129.203893 
L 130.407134 129.516417 
L 131.847466 129.029353 
L 133.287797 129.363631 
L 134.728128 129.338745 
L 136.168459 129.290047 
L 137.60879 129.405034 
L 139.049121 129.345825 
L 140.489452 129.348056 
L 141.929783 129.26602 
L 143.370114 129.34531 
L 144.810445 129.2099 
L 146.250776 129.229808 
L 147.691107 129.20252 
L 149.131438 129.119283 
L 150.571769 129.362987 
L 152.0121 129.235643 
L 153.452431 129.377575 
L 154.892763 129.298972 
L 156.333094 129.253663 
L 157.773425 129.009445 
L 159.213756 129.208184 
L 160.654087 129.192223 
L 162.094418 129.172143 
L 163.534749 129.108814 
L 164.97508 129.290219 
L 166.415411 129.21728 
L 167.855742 128.923462 
L 169.296073 128.848806 
L 170.736404 129.046859 
L 172.176735 129.101434 
L 173.617066 129.242336 
L 175.057397 128.829241 
L 176.497728 129.099547 
L 177.938059 129.139363 
L 179.378391 129.200804 
L 180.818722 129.21522 
L 182.259053 129.057327 
L 183.699384 129.211444 
L 185.139715 129.163562 
" clip-path="url(#p168b29e417)" style="fill: none; stroke: #1f77b4; stroke-width: 1.5; stroke-linecap: round"/>
   </g>
   <g id="line2d_29">
    <path d="M 46.867933 90.12273 
L 48.308264 90.112261 
L 49.748595 90.126848 
L 51.188926 90.101105 
L 52.629257 90.111402 
L 54.069588 90.117066 
L 55.509919 90.12908 
L 56.95025 90.103508 
L 58.390581 90.113119 
L 59.830913 90.122215 
L 61.271244 90.11432 
L 62.711575 90.113805 
L 64.151906 90.122215 
L 65.592237 90.121528 
L 67.032568 90.122386 
L 68.472899 90.130453 
L 69.91323 90.123759 
L 71.353561 92.052452 
L 72.793892 92.375445 
L 74.234223 91.940897 
L 75.674554 106.002091 
L 77.114885 114.278752 
L 78.555216 114.455523 
L 79.995547 114.457068 
L 81.435878 114.455352 
L 82.876209 114.455008 
L 84.316541 114.456381 
L 85.756872 114.456553 
L 87.197203 114.455695 
L 88.637534 114.455866 
L 90.077865 114.456725 
L 91.518196 114.456553 
L 92.958527 114.450546 
L 94.398858 114.45621 
L 95.839189 114.421885 
L 97.27952 114.457068 
L 98.719851 114.397686 
L 100.160182 114.454837 
L 101.600513 114.45621 
L 103.040844 114.35255 
L 104.481175 114.456553 
L 105.921506 113.696437 
L 107.361838 113.204396 
L 108.802169 114.455523 
L 110.2425 114.171317 
L 111.682831 110.937951 
L 113.123162 113.16784 
L 114.563493 114.117427 
L 116.003824 114.329037 
L 117.444155 114.186419 
L 118.884486 114.387904 
L 120.324817 114.168056 
L 121.765148 114.134074 
L 123.205479 114.283901 
L 124.64581 114.370398 
L 126.086141 114.212678 
L 127.526472 114.4351 
L 128.966803 114.401805 
L 130.407134 114.442823 
L 131.847466 114.438533 
L 133.287797 114.390993 
L 134.728128 114.320285 
L 136.168459 114.360101 
L 137.60879 114.441107 
L 139.049121 114.410386 
L 140.489452 114.381382 
L 141.929783 114.441279 
L 143.370114 107.560765 
L 144.810445 110.300459 
L 146.250776 114.45621 
L 147.691107 110.303463 
L 149.131438 110.301103 
L 150.571769 113.833049 
L 152.0121 114.334186 
L 153.452431 114.379494 
L 154.892763 113.790143 
L 156.333094 114.18539 
L 157.773425 114.278752 
L 159.213756 114.377263 
L 160.654087 114.394426 
L 162.094418 114.246487 
L 163.534749 114.380009 
L 164.97508 114.409185 
L 166.415411 113.305996 
L 167.855742 109.116007 
L 169.296073 112.945761 
L 170.736404 114.385844 
L 172.176735 114.370398 
L 173.617066 113.748611 
L 175.057397 113.987337 
L 176.497728 113.856904 
L 177.938059 114.008447 
L 179.378391 113.266523 
L 180.818722 113.824983 
L 182.259053 113.737798 
L 183.699384 113.994545 
L 185.139715 113.757878 
" clip-path="url(#p168b29e417)" style="fill: none; stroke: #ff7f0e; stroke-width: 1.5; stroke-linecap: round"/>
   </g>
   <g id="line2d_30">
    <path d="M 46.867933 131.073204 
L 48.308264 131.073204 
L 49.748595 131.073204 
L 51.188926 131.073204 
L 52.629257 130.943629 
L 54.069588 129.610295 
L 55.509919 130.987736 
L 56.95025 130.967313 
L 58.390581 129.988894 
L 59.830913 130.263146 
L 61.271244 130.897978 
L 62.711575 130.494837 
L 64.151906 130.788997 
L 65.592237 130.767716 
L 67.032568 130.724639 
L 68.472899 130.70044 
L 69.91323 130.793116 
L 71.353561 130.366806 
L 72.793892 130.284771 
L 74.234223 130.048275 
L 75.674554 129.688383 
L 77.114885 130.240149 
L 78.555216 130.129624 
L 79.995547 127.56078 
L 81.435878 129.782432 
L 82.876209 130.616174 
L 84.316541 129.641702 
L 85.756872 125.85657 
L 87.197203 128.409625 
L 88.637534 129.315104 
L 90.077865 129.035875 
L 91.518196 130.079339 
L 92.958527 129.880085 
L 94.398858 129.506807 
L 95.839189 129.689413 
L 97.27952 129.850223 
L 98.719851 129.863781 
L 100.160182 129.855886 
L 101.600513 129.797535 
L 103.040844 129.938437 
L 104.481175 129.461327 
L 105.921506 129.054925 
L 107.361838 128.939251 
L 108.802169 128.979754 
L 110.2425 127.386927 
L 111.682831 129.021287 
L 113.123162 128.849493 
L 114.563493 128.361742 
L 116.003824 129.04703 
L 117.444155 128.685593 
L 118.884486 126.920629 
L 120.324817 129.36436 
L 121.765148 129.83615 
L 123.205479 129.550227 
L 124.64581 129.695934 
L 126.086141 129.377403 
L 127.526472 129.438158 
L 128.966803 129.108299 
L 130.407134 129.558636 
L 131.847466 129.691472 
L 133.287797 129.702799 
L 134.728128 129.160301 
L 136.168459 129.189305 
L 137.60879 129.429405 
L 139.049121 126.23002 
L 140.489452 129.431293 
L 141.929783 129.538557 
L 143.370114 128.417004 
L 144.810445 129.200632 
L 146.250776 129.19617 
L 147.691107 128.807102 
L 149.131438 129.295711 
L 150.571769 129.321798 
L 152.0121 129.152235 
L 153.452431 129.295711 
L 154.892763 128.596693 
L 156.333094 129.09251 
L 157.773425 129.279407 
L 159.213756 128.978038 
L 160.654087 128.356765 
L 162.094418 128.837479 
L 163.534749 128.829928 
L 164.97508 128.960018 
L 166.415411 129.029353 
L 167.855742 128.647493 
L 169.296073 129.339303 
L 170.736404 129.095771 
L 172.176735 128.690914 
L 173.617066 128.371696 
L 175.057397 128.195783 
L 176.497728 128.546064 
L 177.938059 128.483937 
L 179.378391 128.520836 
L 180.818722 128.28537 
L 182.259053 128.056426 
L 183.699384 128.256023 
L 185.139715 127.089848 
" clip-path="url(#p168b29e417)" style="fill: none; stroke: #2ca02c; stroke-width: 1.5; stroke-linecap: round"/>
   </g>
   <g id="line2d_31">
    <path d="M 46.867933 131.073204 
L 48.308264 131.073204 
L 49.748595 131.073204 
L 51.188926 131.073204 
L 52.629257 131.073204 
L 54.069588 131.073204 
L 55.509919 131.073204 
L 56.95025 131.073204 
L 58.390581 130.98396 
L 59.830913 131.073204 
L 61.271244 131.073204 
L 62.711575 131.073204 
L 64.151906 131.073204 
L 65.592237 131.064795 
L 67.032568 131.06119 
L 68.472899 130.874637 
L 69.91323 131.073204 
L 71.353561 131.070458 
L 72.793892 130.64432 
L 74.234223 130.424815 
L 75.674554 130.90141 
L 77.114885 130.492262 
L 78.555216 130.616517 
L 79.995547 130.383797 
L 81.435878 131.058273 
L 82.876209 130.992542 
L 84.316541 131.073204 
L 85.756872 131.024635 
L 87.197203 131.073204 
L 88.637534 131.010219 
L 90.077865 131.073204 
L 91.518196 131.073204 
L 92.958527 130.759478 
L 94.398858 131.04952 
L 95.839189 131.073204 
L 97.27952 130.807361 
L 98.719851 130.991169 
L 100.160182 131.057586 
L 101.600513 130.903469 
L 103.040844 130.956501 
L 104.481175 131.021717 
L 105.921506 130.913767 
L 107.361838 131.057072 
L 108.802169 131.073204 
L 110.2425 131.066854 
L 111.682831 131.002667 
L 113.123162 131.0188 
L 114.563493 130.930414 
L 116.003824 131.072174 
L 117.444155 130.894717 
L 118.884486 130.973491 
L 120.324817 131.073204 
L 121.765148 130.755874 
L 123.205479 130.924236 
L 124.64581 130.468235 
L 126.086141 131.066682 
L 127.526472 130.812338 
L 128.966803 130.693575 
L 130.407134 131.064966 
L 131.847466 131.013136 
L 133.287797 131.037163 
L 134.728128 131.024635 
L 136.168459 129.917671 
L 137.60879 130.819718 
L 139.049121 130.87395 
L 140.489452 131.045916 
L 141.929783 130.615144 
L 143.370114 130.621837 
L 144.810445 130.504104 
L 146.250776 129.827397 
L 147.691107 130.926467 
L 149.131438 130.659079 
L 150.571769 130.978468 
L 152.0121 130.545465 
L 153.452431 130.356509 
L 154.892763 129.911492 
L 156.333094 130.148674 
L 157.773425 129.785865 
L 159.213756 130.542719 
L 160.654087 130.727213 
L 162.094418 130.580305 
L 163.534749 130.17991 
L 164.97508 130.059431 
L 166.415411 130.417435 
L 167.855742 130.380193 
L 169.296073 130.024248 
L 170.736404 130.082771 
L 172.176735 130.024248 
L 173.617066 130.479391 
L 175.057397 129.9568 
L 176.497728 130.528989 
L 177.938059 130.004511 
L 179.378391 129.870303 
L 180.818722 129.305665 
L 182.259053 130.391177 
L 183.699384 130.268982 
L 185.139715 130.320125 
" clip-path="url(#p168b29e417)" style="fill: none; stroke: #d62728; stroke-width: 1.5; stroke-linecap: round"/>
   </g>
   <g id="line2d_32">
    <path d="M 39.954344 126.782644 
L 192.053304 126.782644 
" clip-path="url(#p168b29e417)" style="fill: none; stroke-dasharray: 0.75,1.2375; stroke-dashoffset: 0; stroke: #000000; stroke-width: 0.75"/>
   </g>
   <g id="line2d_33">
    <path d="M 69.91323 133.141522 
L 69.91323 87.63853 
" clip-path="url(#p168b29e417)" style="fill: none; stroke-dasharray: 5.55,2.4; stroke-dashoffset: 0; stroke: #000000; stroke-width: 1.5"/>
   </g>
   <g id="patch_16">
    <path d="M 39.954344 133.141522 
L 39.954344 87.63853 
" style="fill: none; stroke: #262626; stroke-width: 1.25; stroke-linejoin: miter; stroke-linecap: square"/>
   </g>
   <g id="patch_17">
    <path d="M 192.053304 133.141522 
L 192.053304 87.63853 
" style="fill: none; stroke: #262626; stroke-width: 1.25; stroke-linejoin: miter; stroke-linecap: square"/>
   </g>
   <g id="patch_18">
    <path d="M 39.954344 133.141522 
L 192.053304 133.141522 
" style="fill: none; stroke: #262626; stroke-width: 1.25; stroke-linejoin: miter; stroke-linecap: square"/>
   </g>
   <g id="patch_19">
    <path d="M 39.954344 87.63853 
L 192.053304 87.63853 
" style="fill: none; stroke: #262626; stroke-width: 1.25; stroke-linejoin: miter; stroke-linecap: square"/>
   </g>
  </g>
  <g id="legend_1">
   <g id="line2d_34">
    <path d="M 4.37976 6.33 
L 11.37976 6.33 
L 18.37976 6.33 
" style="fill: none; stroke: #1f77b4; stroke-width: 1.5; stroke-linecap: round"/>
   </g>
   <g id="text_15">
    <!-- \textsc{ActSafe} (Ours) -->
    <g transform="translate(21.87976 8.78) scale(0.07 -0.07)">
     <defs>
      <path id="NimbusRomNo9L-Regu-41" d="M 4518 128 
C 4230 128 4166 192 3942 667 
L 2349 4320 
L 2221 4320 
L 890 1168 
C 480 231 403 128 96 128 
L 96 0 
L 1363 0 
L 1363 128 
C 1056 128 928 212 928 393 
C 928 470 947 560 979 645 
L 1274 1401 
L 2950 1401 
L 3213 778 
C 3290 602 3334 434 3334 342 
C 3334 180 3226 128 2886 128 
L 2886 0 
L 4518 0 
L 4518 128 
z
M 1382 1664 
L 2118 3416 
L 2861 1664 
L 1382 1664 
z
" transform="scale(0.015625)"/>
      <path id="NimbusRomNo9L-Regu-43" d="M 3968 2906 
L 3910 4352 
L 3776 4352 
C 3738 4218 3635 4141 3507 4141 
C 3450 4141 3354 4160 3258 4199 
C 2944 4301 2624 4352 2323 4352 
C 1798 4352 1267 4154 870 3802 
C 422 3405 179 2810 179 2106 
C 179 1511 371 960 698 596 
C 1082 180 1670 -64 2304 -64 
C 3027 -64 3661 231 4051 749 
L 3936 864 
C 3462 410 3040 218 2509 218 
C 2106 218 1747 346 1472 589 
C 1120 903 922 1479 922 2189 
C 922 3348 1517 4096 2445 4096 
C 2810 4096 3142 3962 3398 3706 
C 3603 3501 3699 3322 3821 2906 
L 3968 2906 
z
" transform="scale(0.015625)"/>
      <path id="NimbusRomNo9L-Regu-54" d="M 1626 3968 
L 1626 751 
C 1626 204 1555 134 1024 134 
L 1024 0 
L 2893 0 
L 2893 134 
C 2368 134 2278 217 2278 687 
L 2278 3968 
L 2624 3968 
C 3354 3968 3494 3853 3642 3149 
L 3795 3149 
L 3757 4237 
L 147 4237 
L 109 3149 
L 262 3149 
C 416 3846 563 3968 1280 3968 
L 1626 3968 
z
" transform="scale(0.015625)"/>
      <path id="NimbusRomNo9L-Regu-53" d="M 2861 4352 
L 2726 4352 
C 2701 4205 2630 4135 2522 4135 
C 2458 4135 2349 4160 2240 4212 
C 2003 4301 1766 4352 1562 4352 
C 1286 4352 1005 4244 794 4058 
C 570 3859 454 3590 454 3256 
C 454 2743 736 2385 1453 2006 
C 1914 1763 2246 1499 2406 1256 
C 2464 1173 2496 1038 2496 884 
C 2496 454 2176 160 1709 160 
C 1139 160 736 513 416 1296 
L 269 1296 
L 461 -64 
L 602 -64 
C 608 57 685 147 781 147 
C 851 147 960 122 1082 79 
C 1325 -14 1581 -64 1837 -64 
C 2573 -64 3142 442 3142 1101 
C 3142 1626 2790 2042 1946 2496 
C 1274 2868 1005 3149 1005 3495 
C 1005 3847 1274 4090 1670 4090 
C 1958 4090 2227 3968 2451 3738 
C 2650 3533 2739 3367 2842 2989 
L 3002 2989 
L 2861 4352 
z
" transform="scale(0.015625)"/>
      <path id="NimbusRomNo9L-Regu-46" d="M 3066 1472 
L 3066 2957 
L 2918 2957 
C 2842 2461 2726 2368 2214 2368 
L 1286 2368 
L 1286 3766 
C 1286 3943 1318 3981 1491 3981 
L 2362 3981 
C 3085 3981 3226 3886 3334 3314 
L 3494 3314 
L 3475 4224 
L 77 4224 
L 77 4102 
C 550 4064 634 3974 634 3525 
L 634 749 
C 634 217 563 134 77 134 
L 77 0 
L 1869 0 
L 1869 134 
C 1376 134 1286 225 1286 692 
L 1286 2106 
L 2214 2106 
C 2733 2106 2842 2007 2918 1472 
L 3066 1472 
z
" transform="scale(0.015625)"/>
      <path id="NimbusRomNo9L-Regu-28" d="M 1888 4326 
C 1414 4019 1222 3853 986 3558 
C 531 3002 307 2362 307 1613 
C 307 800 544 173 1107 -480 
C 1370 -787 1536 -928 1869 -1133 
L 1946 -1030 
C 1434 -627 1254 -403 1082 77 
C 928 506 858 992 858 1632 
C 858 2304 941 2829 1114 3226 
C 1293 3622 1485 3853 1946 4224 
L 1888 4326 
z
" transform="scale(0.015625)"/>
      <path id="NimbusRomNo9L-Regu-4f" d="M 2310 4352 
C 1088 4352 218 3431 218 2144 
C 218 1543 422 960 768 589 
C 1139 186 1709 -64 2272 -64 
C 3533 -64 4403 832 4403 2119 
C 4403 2752 4218 3296 3866 3680 
C 3462 4122 2925 4352 2310 4352 
z
M 2310 4122 
C 2605 4122 2899 4007 3130 3802 
C 3475 3488 3674 2887 3674 2125 
C 3674 1748 3590 1306 3462 973 
C 3405 813 3296 653 3149 506 
C 2925 282 2637 167 2298 167 
C 2003 167 1715 282 1491 480 
C 1158 775 947 1421 947 2132 
C 947 2784 1126 3405 1395 3706 
C 1645 3981 1958 4122 2310 4122 
z
" transform="scale(0.015625)"/>
      <path id="NimbusRomNo9L-Regu-75" d="M 3066 320 
L 3034 320 
C 2739 320 2669 390 2669 685 
L 2669 2880 
L 1658 2880 
L 1658 2758 
C 2054 2758 2131 2694 2131 2375 
L 2131 875 
C 2131 697 2099 607 2010 537 
C 1837 397 1638 320 1446 320 
C 1197 320 992 537 992 805 
L 992 2880 
L 58 2880 
L 58 2778 
C 365 2778 454 2682 454 2387 
L 454 770 
C 454 263 762 -64 1229 -64 
C 1466 -64 1715 38 1888 211 
L 2163 486 
L 2163 -45 
L 2189 -58 
C 2509 70 2739 141 3066 230 
L 3066 320 
z
" transform="scale(0.015625)"/>
      <path id="NimbusRomNo9L-Regu-72" d="M 45 2496 
C 134 2515 192 2522 269 2522 
C 429 2522 486 2419 486 2138 
L 486 538 
C 486 218 442 173 32 96 
L 32 0 
L 1568 0 
L 1568 102 
C 1133 102 1024 199 1024 565 
L 1024 2013 
C 1024 2219 1299 2541 1472 2541 
C 1510 2541 1568 2509 1638 2445 
C 1741 2355 1811 2317 1894 2317 
C 2048 2317 2144 2426 2144 2605 
C 2144 2816 2010 2944 1792 2944 
C 1523 2944 1338 2797 1024 2343 
L 1024 2931 
L 992 2944 
C 653 2803 422 2721 45 2599 
L 45 2496 
z
" transform="scale(0.015625)"/>
      <path id="NimbusRomNo9L-Regu-29" d="M 243 -1133 
C 717 -826 909 -659 1146 -365 
C 1600 192 1824 832 1824 1581 
C 1824 2400 1587 3021 1024 3674 
C 762 3981 595 4122 262 4326 
L 186 4224 
C 698 3821 870 3597 1050 3117 
C 1203 2688 1274 2202 1274 1562 
C 1274 896 1190 365 1018 -26 
C 838 -429 646 -659 186 -1030 
L 243 -1133 
z
" transform="scale(0.015625)"/>
     </defs>
     <use xlink:href="#NimbusRomNo9L-Regu-41" transform="scale(0.996264)"/>
     <use xlink:href="#NimbusRomNo9L-Regu-43" transform="translate(73.32484 0) scale(0.797011)"/>
     <use xlink:href="#NimbusRomNo9L-Regu-54" transform="translate(131.40667 0) scale(0.797011)"/>
     <use xlink:href="#NimbusRomNo9L-Regu-53" transform="translate(185.004445 0) scale(0.996264)"/>
     <use xlink:href="#NimbusRomNo9L-Regu-41" transform="translate(245.377457 0) scale(0.797011)"/>
     <use xlink:href="#NimbusRomNo9L-Regu-46" transform="translate(307.842235 0) scale(0.797011)"/>
     <use xlink:href="#NimbusRomNo9L-Regu-45" transform="translate(357.057047 0) scale(0.797011)"/>
     <use xlink:href="#NimbusRomNo9L-Regu-28" transform="translate(433.070809 0) scale(0.996264)"/>
     <use xlink:href="#NimbusRomNo9L-Regu-4f" transform="translate(466.246038 0) scale(0.996264)"/>
     <use xlink:href="#NimbusRomNo9L-Regu-75" transform="translate(538.176023 0) scale(0.996264)"/>
     <use xlink:href="#NimbusRomNo9L-Regu-72" transform="translate(587.989224 0) scale(0.996264)"/>
     <use xlink:href="#NimbusRomNo9L-Regu-73" transform="translate(621.164453 0) scale(0.996264)"/>
     <use xlink:href="#NimbusRomNo9L-Regu-29" transform="translate(659.91816 0) scale(0.996264)"/>
    </g>
   </g>
   <g id="line2d_35">
    <path d="M 4.37976 16.23978 
L 11.37976 16.23978 
L 18.37976 16.23978 
" style="fill: none; stroke: #ff7f0e; stroke-width: 1.5; stroke-linecap: round"/>
   </g>
   <g id="text_16">
    <!-- \textsc{Uniform} -->
    <g transform="translate(21.87976 18.68978) scale(0.07 -0.07)">
     <defs>
      <path id="NimbusRomNo9L-Regu-55" d="M 3910 3317 
C 3910 3969 3987 4071 4512 4135 
L 4512 4256 
L 3027 4256 
L 3027 4135 
C 3526 4097 3629 3956 3629 3317 
L 3629 1592 
C 3629 1158 3584 915 3482 723 
C 3309 416 2899 218 2419 218 
C 1965 218 1651 372 1478 671 
C 1363 876 1318 1113 1318 1515 
L 1318 3560 
C 1318 4020 1389 4090 1901 4135 
L 1901 4256 
L 90 4256 
L 90 4135 
C 595 4097 666 4026 666 3560 
L 666 1566 
C 666 460 1184 -64 2272 -64 
C 2970 -64 3450 160 3699 595 
C 3853 863 3910 1157 3910 1650 
L 3910 3317 
z
" transform="scale(0.015625)"/>
      <path id="NimbusRomNo9L-Regu-4e" d="M 3917 -64 
L 3917 3287 
C 3917 3669 3981 3905 4102 3987 
C 4192 4051 4282 4077 4525 4102 
L 4525 4224 
L 3021 4224 
L 3021 4102 
C 3264 4083 3354 4057 3450 4000 
C 3578 3911 3635 3681 3635 3286 
L 3635 1136 
L 1171 4224 
L 77 4224 
L 77 4102 
C 352 4102 442 4051 698 3751 
L 698 938 
C 698 281 608 159 77 121 
L 77 0 
L 1581 0 
L 1581 134 
C 1088 134 979 281 979 928 
L 979 3439 
L 3808 -64 
L 3917 -64 
z
" transform="scale(0.015625)"/>
      <path id="NimbusRomNo9L-Regu-49" d="M 736 689 
C 736 206 653 128 115 128 
L 115 0 
L 2016 0 
L 2016 128 
C 1491 128 1389 217 1389 688 
L 1389 3542 
C 1389 4012 1478 4096 2016 4096 
L 2016 4231 
L 115 4231 
L 115 4096 
C 659 4096 736 4026 736 3548 
L 736 689 
z
" transform="scale(0.015625)"/>
      <path id="NimbusRomNo9L-Regu-52" d="M 4218 121 
C 3974 140 3846 205 3661 424 
L 2342 2061 
C 2771 2143 2963 2219 3174 2388 
C 3379 2553 3501 2818 3501 3113 
C 3501 3385 3418 3618 3251 3801 
C 3008 4059 2477 4224 1875 4224 
L 109 4224 
L 109 4102 
C 589 4051 653 3981 653 3528 
L 653 765 
C 653 236 589 159 109 121 
L 109 0 
L 1882 0 
L 1882 134 
C 1389 134 1306 219 1306 692 
L 1306 1984 
L 1664 1984 
L 3187 0 
L 4218 0 
L 4218 121 
z
M 1306 3762 
C 1306 3937 1376 3987 1632 3987 
C 2432 3987 2803 3716 2803 3123 
C 2803 2807 2669 2542 2438 2423 
C 2144 2258 1920 2221 1306 2221 
L 1306 3762 
z
" transform="scale(0.015625)"/>
      <path id="NimbusRomNo9L-Regu-4d" d="M 4314 3667 
L 4314 751 
C 4314 217 4237 134 3731 134 
L 3731 0 
L 5523 0 
L 5523 134 
C 5056 134 4966 223 4966 681 
L 4966 3536 
C 4966 3993 5050 4077 5523 4115 
L 5523 4237 
L 4250 4237 
L 2835 1004 
L 1357 4237 
L 90 4237 
L 90 4096 
C 614 4096 698 4019 698 3550 
L 698 943 
C 698 282 608 159 77 121 
L 77 0 
L 1581 0 
L 1581 134 
C 1088 134 979 282 979 931 
L 979 3520 
L 2586 0 
L 2675 0 
L 4314 3667 
z
" transform="scale(0.015625)"/>
     </defs>
     <use xlink:href="#NimbusRomNo9L-Regu-55" transform="scale(0.996264)"/>
     <use xlink:href="#NimbusRomNo9L-Regu-4e" transform="translate(76.91132 0) scale(0.797011)"/>
     <use xlink:href="#NimbusRomNo9L-Regu-49" transform="translate(139.376098 0) scale(0.797011)"/>
     <use xlink:href="#NimbusRomNo9L-Regu-46" transform="translate(170.85718 0) scale(0.797011)"/>
     <use xlink:href="#NimbusRomNo9L-Regu-4f" transform="translate(220.071993 0) scale(0.797011)"/>
     <use xlink:href="#NimbusRomNo9L-Regu-52" transform="translate(282.53677 0) scale(0.797011)"/>
     <use xlink:href="#NimbusRomNo9L-Regu-4d" transform="translate(340.6186 0) scale(0.797011)"/>
    </g>
   </g>
   <g id="line2d_36">
    <path d="M 75.996203 6.33 
L 82.996203 6.33 
L 89.996203 6.33 
" style="fill: none; stroke: #2ca02c; stroke-width: 1.5; stroke-linecap: round"/>
   </g>
   <g id="text_17">
    <!-- \textsc{Optimistic} -->
    <g transform="translate(93.496203 8.78) scale(0.07 -0.07)">
     <defs>
      <path id="NimbusRomNo9L-Regu-50" d="M 1293 1875 
C 1459 1856 1568 1856 1734 1856 
C 2234 1856 2579 1919 2854 2072 
C 3238 2274 3469 2660 3469 3078 
C 3469 3344 3379 3584 3206 3768 
C 2950 4047 2394 4224 1792 4224 
L 102 4224 
L 102 4102 
C 576 4051 640 3987 640 3528 
L 640 766 
C 640 230 589 166 102 122 
L 102 0 
L 1894 0 
L 1894 128 
C 1389 128 1293 218 1293 693 
L 1293 1875 
z
M 1293 3772 
C 1293 3943 1338 3987 1510 3987 
C 2374 3987 2771 3690 2771 3040 
C 2771 2428 2394 2112 1658 2112 
C 1530 2112 1440 2119 1293 2131 
L 1293 3772 
z
" transform="scale(0.015625)"/>
     </defs>
     <use xlink:href="#NimbusRomNo9L-Regu-4f" transform="scale(0.996264)"/>
     <use xlink:href="#NimbusRomNo9L-Regu-50" transform="translate(76.91132 0) scale(0.797011)"/>
     <use xlink:href="#NimbusRomNo9L-Regu-54" transform="translate(126.126133 0) scale(0.797011)"/>
     <use xlink:href="#NimbusRomNo9L-Regu-49" transform="translate(179.723908 0) scale(0.797011)"/>
     <use xlink:href="#NimbusRomNo9L-Regu-4d" transform="translate(211.204991 0) scale(0.797011)"/>
     <use xlink:href="#NimbusRomNo9L-Regu-49" transform="translate(287.020551 0) scale(0.797011)"/>
     <use xlink:href="#NimbusRomNo9L-Regu-53" transform="translate(318.501633 0) scale(0.797011)"/>
     <use xlink:href="#NimbusRomNo9L-Regu-54" transform="translate(367.716446 0) scale(0.797011)"/>
     <use xlink:href="#NimbusRomNo9L-Regu-49" transform="translate(421.314221 0) scale(0.797011)"/>
     <use xlink:href="#NimbusRomNo9L-Regu-43" transform="translate(452.795304 0) scale(0.797011)"/>
    </g>
   </g>
   <g id="line2d_37">
    <path d="M 75.996203 16.23978 
L 82.996203 16.23978 
L 89.996203 16.23978 
" style="fill: none; stroke: #d62728; stroke-width: 1.5; stroke-linecap: round"/>
   </g>
   <g id="text_18">
    <!-- \textsc{Greedy} -->
    <g transform="translate(93.496203 18.68978) scale(0.07 -0.07)">
     <defs>
      <path id="NimbusRomNo9L-Regu-47" d="M 4538 2304 
L 2906 2304 
L 2906 2176 
C 3181 2176 3258 2157 3334 2105 
C 3430 2047 3469 1898 3469 1621 
L 3469 574 
C 3469 367 3078 192 2618 192 
C 1574 192 934 922 934 2112 
C 934 2714 1114 3296 1395 3610 
C 1677 3924 2074 4096 2509 4096 
C 2867 4096 3181 3975 3430 3744 
C 3622 3565 3725 3392 3885 3002 
L 4032 3002 
L 3981 4352 
L 3840 4352 
C 3802 4231 3686 4141 3552 4141 
C 3488 4141 3386 4160 3270 4205 
C 2982 4301 2688 4352 2400 4352 
C 1120 4352 205 3412 205 2106 
C 205 1479 378 999 736 621 
C 1165 180 1779 -64 2483 -64 
C 3034 -64 3834 160 4090 385 
L 4090 1694 
C 4090 2073 4166 2157 4538 2189 
L 4538 2304 
z
" transform="scale(0.015625)"/>
      <path id="NimbusRomNo9L-Regu-44" d="M 666 679 
C 666 217 589 134 102 134 
L 102 0 
L 1920 0 
C 2662 0 3334 210 3731 568 
C 4147 944 4384 1512 4384 2131 
C 4384 2706 4192 3203 3840 3554 
C 3405 3994 2707 4224 1830 4224 
L 102 4224 
L 102 4102 
C 608 4057 666 4000 666 3525 
L 666 679 
z
M 1318 3738 
C 1318 3936 1389 3987 1651 3987 
C 2202 3987 2618 3885 2925 3668 
C 3424 3323 3686 2775 3686 2087 
C 3686 1334 3424 798 2906 498 
C 2579 314 2208 237 1651 237 
C 1395 237 1318 294 1318 498 
L 1318 3738 
z
" transform="scale(0.015625)"/>
      <path id="NimbusRomNo9L-Regu-59" d="M 4499 4224 
L 3098 4224 
L 3098 4096 
C 3430 4096 3539 4045 3539 3892 
C 3539 3828 3507 3751 3450 3655 
L 2534 2214 
L 1587 3640 
C 1517 3743 1478 3852 1478 3922 
C 1478 4038 1568 4096 1773 4096 
C 1798 4096 1862 4096 1933 4102 
L 1933 4224 
L 141 4224 
L 141 4096 
C 448 4096 538 4007 1178 3104 
L 2016 1876 
L 2016 758 
C 2016 198 1952 134 1370 134 
L 1370 0 
L 3328 0 
L 3328 134 
C 2758 134 2669 211 2669 696 
L 2669 1933 
L 3616 3375 
C 4006 3937 4173 4077 4499 4102 
L 4499 4224 
z
" transform="scale(0.015625)"/>
     </defs>
     <use xlink:href="#NimbusRomNo9L-Regu-47" transform="scale(0.996264)"/>
     <use xlink:href="#NimbusRomNo9L-Regu-52" transform="translate(76.91132 0) scale(0.797011)"/>
     <use xlink:href="#NimbusRomNo9L-Regu-45" transform="translate(134.99315 0) scale(0.797011)"/>
     <use xlink:href="#NimbusRomNo9L-Regu-45" transform="translate(188.590926 0) scale(0.797011)"/>
     <use xlink:href="#NimbusRomNo9L-Regu-44" transform="translate(242.188701 0) scale(0.797011)"/>
     <use xlink:href="#NimbusRomNo9L-Regu-59" transform="translate(300.270516 0) scale(0.797011)"/>
    </g>
   </g>
  </g>
 </g>
 <defs>
  <clipPath id="p605daca6d0">
   <rect x="39.954344" y="28.30024" width="152.09896" height="45.502992"/>
  </clipPath>
  <clipPath id="p168b29e417">
   <rect x="39.954344" y="87.63853" width="152.09896" height="45.502992"/>
  </clipPath>
 </defs>
</svg>
