<svg width="226" height="283" viewBox="0 0 226 283" fill="none" xmlns="http://www.w3.org/2000/svg">
    <path d="M16.9065 28.5987C44.7961 -13.531 89.7353 2.20572 127.402 6.14206C145.354 10.7312 160.507 15.5614 178.761 19.8594C189.847 22.4697 201.704 25.6001 209.218 37.3379C223.412 59.5123 221.043 98.2916 221.525 125.366C221.85 143.655 226 161.365 226 180.184C226 204.835 222.187 217.102 213.693 238.817C206.907 256.165 201.381 278.659 184.728 282.354C153.557 289.27 22.0134 239.171 10.6909 203.224C1.57288 174.276 0 152.83 0 122.188C0 105.088 2.21547 88.4195 4.59956 71.6592C6.39268 59.0535 10.3902 38.4422 16.9065 28.5987Z" fill="#FB923C" fill-opacity="0.5"/>
    <path d="M35.6898 45.4866C58.2729 8.30652 91.1313 19.1651 123.337 25.5743C137.873 29.6243 151.968 33.9811 166.749 37.7741C175.726 40.0778 185.327 42.8404 191.411 53.1991C202.904 72.7685 200.986 106.992 201.376 130.885C201.64 147.026 205 162.655 205 179.264C205 201.018 201.913 211.844 195.035 231.008C189.54 246.317 185.065 266.169 171.581 269.43C146.34 275.533 39.825 231.321 30.6568 199.597C23.2736 174.049 22 155.123 22 128.081C22 112.99 23.7939 98.2795 25.7244 83.4883C27.1764 72.3635 30.4133 54.1737 35.6898 45.4866Z" fill="#FB923C" fill-opacity="0.8" stroke="black" stroke-width="3" stroke-linecap="round"/>
    <circle cx="78" cy="58" r="4" fill="#36C2F6"/>
    <circle cx="147" cy="219" r="4" fill="#1E90FF"/>
    <path d="M82 71L80.5521 82.4559L91.1971 77.9819L82 71ZM140.922 208.613L138.85 203.684L137.007 204.459L139.078 209.387L140.922 208.613ZM134.708 193.827L130.565 183.97L128.721 184.745L132.864 194.602L134.708 193.827ZM126.422 174.113L122.279 164.255L120.435 165.03L124.578 174.887L126.422 174.113ZM118.136 154.398L113.993 144.541L112.15 145.316L116.292 155.173L118.136 154.398ZM109.85 134.684L105.708 124.827L103.864 125.602L108.007 135.459L109.85 134.684ZM101.565 114.97L97.4219 105.113L95.5781 105.887L99.721 115.745L101.565 114.97ZM93.279 95.2554L89.1362 85.3982L87.2924 86.1732L91.4353 96.0303L93.279 95.2554ZM82 71L80.5521 82.4559L91.1971 77.9819L82 71ZM140.922 208.613L138.85 203.684L137.007 204.459L139.078 209.387L140.922 208.613ZM134.708 193.827L130.565 183.97L128.721 184.745L132.864 194.602L134.708 193.827ZM126.422 174.113L122.279 164.255L120.435 165.03L124.578 174.887L126.422 174.113ZM118.136 154.398L113.993 144.541L112.15 145.316L116.292 155.173L118.136 154.398ZM109.85 134.684L105.708 124.827L103.864 125.602L108.007 135.459L109.85 134.684ZM101.565 114.97L97.4219 105.113L95.5781 105.887L99.721 115.745L101.565 114.97ZM93.279 95.2554L89.1362 85.3982L87.2924 86.1732L91.4353 96.0303L93.279 95.2554Z" fill="black"/>
</svg>