<svg xmlns="http://www.w3.org/2000/svg" xmlns:xlink="http://www.w3.org/1999/xlink" xmlns:inkscape="http://www.inkscape.org/namespaces/inkscape" version="1.1" width="134.66259" height="121.73991" viewBox="0 0 134.66259 121.73991">
<defs>
<clipPath id="clip_1">
<path transform="matrix(1,0,0,-1,0,121.73991)" d="M34.245397 44.98659H133.58258V105.95952H34.245397Z"/>
</clipPath>
<path id="font_2_39" d="M.032989503-.0009765625H.2849884V.040008546L.21398926 .045043947 .19699097 .05909729V.31629945H.36099244L.375 .30122376 .3849945 .22789002H.43199159V.44947816H.3849945L.375 .3763275 .36099244 .3623047H.19699097V.62586978H.42199708L.43499757 .61083987 .44999696 .515625H.5049896V.671875H.024993897V.63186648L.08999634 .62586978 .10699463 .61183169V.05909729L.08999634 .045043947 .032989503 .040008546V-.0009765625Z"/>
<path id="font_2_83" d="M.02999878-.0009765625H.2709961V.03501892L.20098877 .040039064 .18399048 .05607605V.3429718C.22499085 .39112855 .2599945 .41619874 .29299928 .41619874 .31399537 .4165039 .33099366 .4085083 .34399415 .39250184H.37599183V.47851563C.35499574 .48719789 .33599855 .49121095 .31599427 .49121095 .30799867 .49121095 .29899598 .49121095 .29100038 .48919679 .25498963 .46051026 .21899414 .42851258 .18399048 .39250184V.48651124H.1459961L.02999878 .4501953V.41918946H.100997928V.05607605L.08299255 .040023805 .02999878 .03501892V-.0009765625Z"/>
<path id="font_2_66" d="M.33399964 .05708313 .34700013-.0009765625H.48799134V.03501892L.43499757 .040023805 .4169922 .05607605V.34687806C.4169922 .4481964 .37298585 .49121095 .2679901 .49121095 .14199829 .49121095 .06599426 .43917848 .06599426 .37797547 .06599426 .3538971 .07398987 .34687806 .09700012 .34687806H.1659851V.43115235C.19299317 .44218446 .21699524 .4472046 .24198914 .4472046 .31399537 .4472046 .33399964 .41409303 .33399964 .33483888V.30273438C.13398743 .25474549 .041992189 .22480774 .041992189 .121017459 .041992189 .046157838 .09098816-.0068359377 .16999817-.0068359377 .21798706-.007980347 .2709961 .014022827 .33399964 .05708313M.33399964 .09118652C.28399659 .06210327 .24299622 .046051027 .20999146 .046051027 .1599884 .046051027 .12998963 .07914734 .12998963 .1282959 .12998963 .20152283 .19299317 .22860718 .33399964 .2677307V.09118652Z"/>
<path id="font_2_79" d="M.02999878-.0009765625H.24899292V.03501892L.20098877 .040023805 .18399048 .05607605V.3921051C.22698975 .4141693 .2639923 .42520143 .29599 .42520143 .36999513 .42520143 .39698792 .39511109 .39698792 .32188417V.05607605L.37998963 .040023805 .33198548 .03501892V-.0009765625H.5509949V.03501892L.49699403 .040023805 .47999574 .05607605V.33894349C.47999574 .43920899 .43199159 .49121095 .34498597 .49121095 .3019867 .49121095 .25099183 .46820069 .18399048 .43119813V.48620606H.1459961L.02999878 .4501953V.41918946H.100997928V.05607605L.083999637 .040023805 .02999878 .03501892V-.0009765625Z"/>
<path id="font_2_76" d="M.024993897-.0009765625H.24398804V.03501892L.19699097 .04005432 .1789856 .05618286V.22753906H.23699951L.37199403 .03201294V-.0009765625H.5279999V.03703308L.46398927 .04206848 .28799439 .29170228 .4249878 .43737794 .4889984 .4454193V.48242188H.29899598V.4454193L.34399415 .441391 .35099793 .4273224 .19799805 .25553895H.1789856V.7373047H.14099121L.018997193 .7011719V.670166H.09599304V.05618286L.07899475 .04005432 .024993897 .03501892V-.0009765625Z"/>
<path id="font_2_38" d="M.032989503-.0009765625H.5479889V.16246033H.49598695L.47898866 .061080934 .46499635 .045013429H.19699097V.32606507H.36099244L.375 .31100465 .3849945 .23873902H.43199159V.45933534H.3849945L.375 .3861084 .36099244 .3720703H.19699097V.62586978H.42799378L.44198609 .6108246 .45599366 .5255432H.5119934V.671875H.032989503V.63186648L.08999634 .62586978 .10699463 .6118164V.059066774L.08999634 .045013429 .032989503 .040008546V-.0009765625Z"/>
<path id="font_2_78" d="M.45399476 .42419435C.43099977 .46820069 .3929901 .49121095 .34399415 .49121095 .3019867 .49121095 .25 .47019959 .18399048 .43119813V.48620606H.1459961L.02999878 .4501953V.41918946H.100997928V.05607605L.083999637 .040023805 .02999878 .03501892V-.0009765625H.24899292V.03501892L.20098877 .040023805 .18399048 .05607605V.3921051C.22799683 .4141693 .2649994 .42520143 .2979889 .42520143 .35798646 .42520143 .38598634 .3921051 .38598634 .32188417V.05607605L.36898805 .040023805 .32099916 .03501892V-.0009765625H.5339966V.03501892L.4869995 .040023805 .46899415 .05607605V.3921051C.5119934 .41316224 .5499878 .42520143 .58200076 .42520143 .6439972 .42520143 .6719971 .3921051 .6719971 .32188417V.05607605L.6539917 .040023805 .6069946 .03501892V-.0009765625H.82499697V.03501892L.7719879 .040023805 .7549896 .05607605V.33894349C.7549896 .4382019 .7049866 .49121095 .6259918 .49121095 .58599856 .49121095 .5289917 .46820069 .45399476 .42419435Z"/>
<path id="font_2_74" d="M.1539917 .7080078C.12199402 .7080078 .09599304 .68299868 .09599304 .6499939 .09599304 .6179962 .12199402 .5930023 .1539917 .5930023 .18598938 .5930023 .21199036 .6179962 .21199036 .6499939 .21199036 .68200686 .18598938 .7080078 .1539917 .7080078M.1499939 .48632813 .034988405 .4501953V.41918946H.10499573V.05607605L.08799744 .040023805 .034988405 .03501892V-.0009765625H.2599945V.03501892L.20599365 .040023805 .18798828 .05607605V.48632813H.1499939Z"/>
<path id="font_2_49" d="M.032989503-.0009765625H.2849884V.040008546L.21398926 .045028688 .19699097 .05908203V.25679017C.22799683 .25379945 .25299073 .25180055 .27198792 .25180055 .43299867 .25180055 .5309906 .33892823 .5309906 .4673462 .5309906 .6198425 .44499208 .671875 .25299073 .671875H.024993897V.63186648L.08999634 .62586978 .10699463 .6118164V.05908203L.08999634 .045028688 .032989503 .040008546V-.0009765625M.19699097 .30480958V.6238556C.21499634 .62586978 .23298645 .62586978 .24899292 .62586978 .3769989 .62586978 .43798829 .57670596 .43798829 .46936036 .43798829 .35899354 .3769989 .2998047 .2630005 .2998047 .24798584 .2998047 .22599793 .3018036 .19699097 .30480958Z"/>
<path id="font_2_69" d="M.3829956 .670166V.4811859C.35198976 .48817445 .32199098 .4921875 .2939911 .4921875 .14199829 .4921875 .035995485 .3851776 .035995485 .22518921 .035995485 .08520508 .11999512-.0087890629 .22898865-.0087890629 .28399659-.0087890629 .33198548 .011199951 .3829956 .052200319V-.0009765625H.5309906V.03501892L.48298646 .040023805 .46598817 .05607605V.7373047H.42799378L.30599977 .7011719V.670166H.3829956M.3829956 .08816528C.34599305 .066207889 .30999757 .05419922 .27398683 .05419922 .18399048 .05419922 .12399292 .12519837 .12399292 .2421875 .12399292 .3671875 .19400025 .44818116 .29499818 .44818116 .31900025 .44818116 .34899903 .44218446 .3829956 .43217469V.08816528Z"/>
<clipPath id="clip_3">
<path transform="matrix(1,0,0,-1,0,121.73991)" d="M34.245397 44.98659H133.58258V105.95952H34.245397Z"/>
</clipPath>
<path id="font_2_54" d="M.024993897 .671875V.63186648L.08198547 .6258545 .09899902 .6118469V.24046326C.09899902 .1663971 .10398865 .111328128 .14299011 .06428528 .18099976 .01828003 .25498963-.01171875 .34999085-.01171875 .44499208-.01171875 .5189972 .01828003 .5569916 .06428528 .59599307 .111328128 .6009979 .16738892 .6009979 .24046326V.60484316L.61898806 .6228485 .67900088 .63186648V.671875H.46798707V.63186648L.5279999 .6228485 .5469971 .60484316V.2494812C.5469971 .113342288 .49499513 .05027771 .36898805 .05027771 .24099732 .05027771 .18998719 .113342288 .18998719 .2494812V.6118469L.20799256 .6258545 .269989 .63186648V.671875H.024993897Z"/>
<path id="font_2_85" d="M.08799744 .42089845V.09803772C.08799744 .027069092 .10899353-.0029296876 .19198609-.0029296876 .23098755-.0029296876 .27598573 .004058838 .32299806 .019058228V.05606079C.2999878 .05105591 .2769928 .048065187 .2539978 .048065187 .18399048 .048065187 .17098999 .08105469 .17098999 .15701294V.42089845H.32299806V.4678955H.17098999V.5738983H.13398743L.09098816 .480896 .024993897 .45188905V.42089845H.08799744Z"/>
<path id="font_2_70" d="M.44799806 .10632324C.3909912 .06825256 .34098817 .048202516 .29100038 .048202516 .18998719 .048202516 .12298584 .12435913 .12298584 .25263978V.26365663H.44699098C.44799806 .2746582 .44799806 .2846527 .44799806 .29466249 .44799806 .41729737 .3769989 .49121095 .2679901 .49121095 .13398743 .49121095 .036987306 .38838197 .036987306 .2375946 .036987306 .090286258 .12799073-.0087890629 .2599945-.0087890629 .32299806-.0087890629 .3880005 .011199951 .44799806 .051208497V.10632324M.35899354 .30566407H.12799073C.13398743 .39038087 .19099427 .4461975 .25498963 .4461975 .32199098 .4461975 .35899354 .40234376 .35899354 .3216095V.30566407Z"/>
<path id="font_2_40" d="M.4169922 .3222351V.28125L.48799134 .27624513 .5049896 .26223756V.054275514C.46598817 .045272829 .43199159 .041275026 .40299989 .041275026 .24598694 .041275026 .1459961 .15426636 .1459961 .34320069 .1459961 .52282717 .24198914 .62960818 .394989 .62960818 .43499757 .62960818 .47200013 .6206207 .5089874 .6036682L.522995 .58569338 .5379944 .4948883H.59399417V.6536102C.5279999 .6726074 .46299745 .6826172 .4019928 .6826172 .18099976 .6826172 .042999269 .54678347 .042999269 .33621217 .042999269 .20524597 .10798645 .089263919 .21598816 .028274537 .2619934 .0022735596 .32099916-.01171875 .3880005-.01171875 .44699098-.01171875 .5159912 .0002746582 .59498599 .023269654V.26223756L.6119995 .27624513 .6669922 .28125V.3222351H.4169922Z"/>
<path id="font_2_80" d="M.2689972 .49121095C.13398743 .49121095 .036987306 .39019776 .036987306 .24121094 .036987306 .09320068 .1349945-.0087890629 .2689972-.0087890629 .40299989-.0087890629 .5019989 .09320068 .5019989 .24121094 .5019989 .38920594 .4039917 .49121095 .2689972 .49121095M.2689972 .4481964C.34999085 .4481964 .4079895 .37020875 .4079895 .24121094 .4079895 .111206058 .34999085 .034210206 .2689972 .034210206 .18899536 .034210206 .1309967 .112197879 .1309967 .24121094 .1309967 .37120057 .18798828 .4481964 .2689972 .4481964Z"/>
<path id="font_2_18" d="M.31098939 .6826172 .09399414 .6171875V.5751953L.25099183 .6031952V.0650177L.23899842 .04801941 .12399292 .042022706V-.0009765625H.45899964V.041015626L.35099793 .046020509 .33898927 .061019899V.6826172H.31098939Z"/>
<clipPath id="clip_4">
<path transform="matrix(1,0,0,-1,0,121.73991)" d="M34.245397 44.98659H133.58258V105.95952H34.245397Z"/>
</clipPath>
<path id="font_2_51" d="M.032989503 .671875V.63186648L.08999634 .62586978 .10699463 .6118164V.059066774L.08999634 .045028688 .032989503 .040008546V-.0009765625H.2709961V.040008546L.21398926 .045028688 .19699097 .059066774V.29779054C.21499634 .2987976 .23199463 .2998047 .24699402 .2998047 .33799745 .2998047 .3769989 .27371217 .4039917 .19146729 .4249878 .12727356 .42900086 .062088014 .47698976 .020019532 .5 .0011749268 .5329895-.0078125 .5779877-.0078125 .6009979-.0078125 .6259918-.0048217775 .6559906 .0011749268V.03918457H.6469879C.57099917 .03918457 .5389862 .05116272 .5169983 .110076908 .49899293 .15701294 .49798585 .21192932 .46998597 .25785829 .44999696 .290802 .41600038 .3117981 .36698915 .32479859 .47499085 .34881593 .5289917 .4050293 .5289917 .49134828 .5289917 .6148224 .44999696 .671875 .28799439 .671875H.032989503M.19699097 .62586978H.24499512C.36898805 .62586978 .42900086 .5877228 .42900086 .48332215 .42900086 .38394166 .37199403 .34480287 .2519989 .34480287 .24598694 .34480287 .22799683 .34480287 .19699097 .34579469V.62586978Z"/>
<path id="font_2_68" d="M.4249878 .042160036V.09416199C.3829956 .06616211 .34199525 .05215454 .2979889 .05215454 .19400025 .05215454 .12799073 .12516785 .12799073 .2481842 .12799073 .37419129 .18899536 .4512024 .2749939 .4512024 .2919922 .4512024 .30799867 .4461975 .32299806 .43721009V.3551941C.33799745 .34519959 .35299684 .3401947 .36799623 .3401947 .4019928 .3401947 .42399598 .3611908 .42399598 .39320375 .42399598 .4512024 .36999513 .49121095 .27398683 .49121095 .13398743 .49121095 .036987306 .39019776 .036987306 .24118042 .036987306 .09315491 .12599182-.0068359377 .2619934-.0068359377 .31599427-.0068359377 .36999513 .0101623539 .4249878 .042160036Z"/>
<path id="font_2_36" d="M.58799746 .023269654V.18112183H.5319977L.5099945 .070236209 .49398805 .054260255C.46398927 .045272829 .43499757 .041275026 .40699769 .041275026 .24499512 .041275026 .1459961 .15315247 .1459961 .34292604 .1459961 .5217285 .24299622 .62960818 .3919983 .62960818 .43099977 .62960818 .46699525 .6206207 .5039978 .6036377L.5169983 .58566287 .5319977 .49476625H.58799746V.64860537C.5149994 .6716156 .44898988 .6826172 .3899994 .6826172 .18199158 .6826172 .042999269 .5437012 .042999269 .3359375 .042999269 .20509339 .10899353 .08921814 .21598816 .028274537 .2619934 .0022735596 .31999208-.01171875 .38598634-.01171875 .45298768-.01171875 .5219879 .0002746582 .58799746 .023269654Z"/>
<clipPath id="clip_5">
<path transform="matrix(1,0,0,-1,0,121.73991)" d="M34.245397 44.98659H133.58258V105.95952H34.245397Z"/>
</clipPath>
<path id="font_6_3" d="M.69999697 .46954347C.71099856 .48054505 .71398928 .48654176 .71398928 .49354554 .71398928 .509552 .70098879 .5185547 .6899872 .5185547 .6799927 .5185547 .6769867 .5155487 .6649933 .50354006L.44599916 .28547669 .22599793 .5045471C.21598816 .5145416 .21199036 .5185547 .20298767 .5185547 .18899536 .5185547 .17799378 .5075531 .17799378 .49354554 .17799378 .48454286 .18099976 .48153688 .19299317 .46954347L.41099549 .25146485 .19299317 .03340149C.1789856 .01939392 .17799378 .014389038 .17799378 .008392334 .17799378-.0056152346 .18899536-.016601563 .20298767-.016601563 .21199036-.016601563 .21499634-.01361084 .22599793-.002609253L.44599916 .21646118 .673996-.0116119389C.67900088-.014602661 .6839905-.016601563 .6899872-.016601563 .70098879-.016601563 .71398928-.0076141359 .71398928 .008392334 .71398928 .01638794 .71199038 .0184021 .70899966 .021392823 .70700076 .025390625 .5130005 .2194519 .48098756 .25047303L.69999697 .46954347Z"/>
<path id="font_7_50" d="M.5159912 .31925965C.5159912 .42918397 .5029907 .50813296 .45700074 .5780945 .42599488 .62405398 .3639984 .6640625 .28399659 .6640625 .051986696 .6640625 .051986696 .39120484 .051986696 .31925965 .051986696 .2472992 .051986696-.01953125 .28399659-.01953125 .5159912-.01953125 .5159912 .2472992 .5159912 .31925965M.28399659 .008468628C.23799134 .008468628 .1769867 .035446168 .15699768 .117385867 .14299011 .17634583 .14299011 .25830079 .14299011 .33224488 .14299011 .40519715 .14299011 .4811554 .1579895 .53611758 .1789856 .6150665 .24299622 .63604739 .28399659 .63604739 .33799745 .63604739 .3899994 .6030731 .4079895 .545105 .42399598 .4911499 .4249878 .41918946 .4249878 .33224488 .4249878 .25830079 .4249878 .18434143 .4119873 .12138367 .3919983 .030441285 .32398988 .008468628 .28399659 .008468628Z"/>
<path id="font_8_59" d="M.22698975 .056991579C.22698975 .09298706 .19699097 .114990238 .16999817 .114990238 .13699341 .114990238 .11199951 .08799744 .11199951 .057998659 .11199951 .021987915 .14199829 0 .16899109 0 .20199585 0 .22698975 .026992798 .22698975 .056991579Z"/>
<clipPath id="clip_9">
<path transform="matrix(1,0,0,-1,0,121.73991)" d="M34.245397 44.98659H133.58258V105.95952H34.245397Z"/>
</clipPath>
<path id="font_7_55" d="M.15499878 .5588074C.20599365 .5458069 .23599243 .5458069 .2519989 .5458069 .38398744 .5458069 .46199037 .6358032 .46199037 .6508026 .46199037 .6618042 .45498658 .6648102 .44999696 .6648102 .44799806 .6648102 .44599916 .6648102 .44198609 .6618042 .41799928 .6528015 .36499024 .6328125 .29100038 .6328125 .2630005 .6328125 .20999146 .6348114 .14498902 .6598053 .1349945 .6648102 .1329956 .6648102 .13198853 .6648102 .11898804 .6648102 .11898804 .6538086 .11898804 .6378021V.34251405C.11898804 .32548524 .11898804 .3134613 .1349945 .3134613 .14399719 .3134613 .14498902 .3154602 .15499878 .32748414 .19799805 .38259889 .25898744 .390625 .2939911 .390625 .35398866 .390625 .3809967 .34251405 .38598634 .33450318 .4039917 .30143739 .4099884 .26335145 .4099884 .20524597 .4099884 .17524719 .4099884 .116256717 .37998963 .07234192 .35499574 .03640747 .31199647 .012466431 .2630005 .012466431 .19799805 .012466431 .1309967 .04838562 .10598755 .11425781 .14399719 .11125183 .16299439 .13624573 .16299439 .16325379 .16299439 .20625305 .12599182 .21424866 .11299133 .21424866 .11099243 .21424866 .06298828 .21424866 .06298828 .1602478 .06298828 .07034302 .14498902-.01953125 .2649994-.01953125 .3929901-.01953125 .5049896 .07533264 .5049896 .20124817 .5049896 .31445313 .4189911 .41862489 .29499818 .41862489 .25099183 .41862489 .19898987 .4076233 .15499878 .36956788V.5588074Z"/>
<clipPath id="clip_10">
<path transform="matrix(1,0,0,-1,0,121.73991)" d="M34.245397 44.98659H133.58258V105.95952H34.245397Z"/>
</clipPath>
<path id="font_7_51" d="M.33499146 .63612368C.33499146 .6630554 .33299256 .6640625 .30499269 .6640625 .24099732 .6014404 .1499939 .6004486 .10899353 .6004486V.5644531C.1329956 .5644531 .19898987 .5644531 .2539978 .592453V.08203125C.2539978 .04899597 .2539978 .035995485 .1539917 .035995485H.115997318V0C.13398743 .0009918213 .25698854 .0039978029 .2939911 .0039978029 .32499696 .0039978029 .45098878 .0009918213 .47299195 0V.035995485H.43499757C.33499146 .035995485 .33499146 .04899597 .33499146 .08203125V.63612368Z"/>
<path id="font_2_52" d="M.05999756 .02027893C.10598755 .0002746582 .16799927-.01171875 .23999024-.01171875 .3999939-.01171875 .49899293 .071243289 .49899293 .18910218 .49899293 .23306275 .48399354 .27001954 .45498658 .2989807 .40899659 .3439331 .35499574 .35992433 .3039856 .3808899 .21199036 .41984559 .1639862 .44482423 .1639862 .51174929 .1639862 .584671 .21499634 .63261416 .2999878 .63261416 .33499146 .63261416 .36499024 .6256256 .3899994 .6116333L.40499879 .59465029 .41999818 .49975587H.47200013V.65460208C.41299439 .6736145 .35699464 .6826172 .3019867 .6826172 .1599884 .6826172 .070999149 .60365298 .070999149 .49076844 .070999149 .39387513 .1289978 .35691834 .23999024 .30897523 .34899903 .26202394 .40699769 .24404907 .40699769 .16113281 .40699769 .09121704 .35299684 .041275026 .2559967 .041275026 .21099854 .041275026 .17298889 .04927063 .14399719 .06425476L.1309967 .081222537 .11898804 .19610596H.05999756V.02027893Z"/>
<path id="font_2_14" d="M.04699707 .27401734V.20703125H.27198792V.27401734H.04699707Z"/>
<path id="font_2_77" d="M.027999878-.0009765625H.2619934V.03501892L.20498657 .040039064 .18699646 .05609131V.7373047H.14898682L.026992798 .7011719V.670166H.10398865V.05609131L.08699036 .040039064 .027999878 .03501892V-.0009765625Z"/>
<path id="font_2_72" d="M.36898805 .4630127C.33099366 .48220826 .2939911 .49121095 .2559967 .49121095 .13798523 .49121095 .06199646 .423172 .06199646 .32609559 .06199646 .25102235 .10899353 .19198609 .18598938 .1749878 .1539917 .13691712 .13798523 .10585022 .13798523 .07978821 .13798523 .06376648 .14199829 .048721315 .147995 .034698488 .07998657 .02267456 .039993287-.025436402 .039993287-.08956909 .039993287-.16975403 .10598755-.21875 .22099304-.21875 .29699708-.21875 .3659973-.195755 .4189911-.15270996 .45799256-.12063599 .47898866-.077545169 .47898866-.04046631 .47898866 .033691408 .4269867 .0647583 .30899049 .08279419L.21299744 .097839359C.21199036 .1088562 .21099854 .116882327 .21099854 .12188721 .21099854 .1379242 .21499634 .1529541 .22200012 .16699219H.23899842C.35499574 .16699219 .42999269 .23399353 .42999269 .32299806 .42999269 .3580017 .42099 .38700868 .4019928 .41601563H.5119934V.4630127H.36898805M.24598694 .45220948C.3039856 .45220948 .34399415 .40516664 .34399415 .3290863 .34399415 .25402833 .3039856 .2059784 .24598694 .2059784 .18798828 .2059784 .147995 .25402833 .147995 .3290863 .147995 .40615846 .18798828 .45220948 .24598694 .45220948M.20599365 .029678345 .30299378 .011642456C.37298585-.0013885498 .40499879-.0124053959 .40499879-.06652832 .40499879-.12265015 .34498597-.17276001 .2559967-.17276001 .17399597-.17276001 .11999512-.12666321 .11999512-.06852722 .11999512-.024429322 .15098572 .012649536 .20599365 .029678345Z"/>
<path id="font_2_81" d="M.022994996-.21875H.2579956V-.18275452L.19400025-.17773438 .1769867-.16166687V.0060577394C.21398926 .000061035159 .24499512-.0029296876 .269989-.0029296876 .41799928-.0029296876 .5159912 .099090579 .5159912 .2571411 .5159912 .39718629 .43399049 .49121095 .32398988 .49121095 .2769928 .49121095 .22999573 .47120667 .1769867 .43119813V.48620606H.13899231L.022994996 .4501953V.41918946H.09399414V-.16166687L.07699585-.17773438 .022994996-.18275452V-.21875M.1769867 .05807495V.3941803C.21499634 .41619874 .24798584 .4282074 .28199769 .4282074 .36898805 .4282074 .42799378 .35917665 .42799378 .24414063 .42799378 .12109375 .3600006 .04206848 .2619934 .04206848 .23799134 .04206848 .20999146 .047058107 .1769867 .05807495Z"/>
<clipPath id="clip_11">
<path transform="matrix(1,0,0,-1,0,121.73991)" d="M34.245397 44.98659H133.58258V105.95952H34.245397Z"/>
</clipPath>
<clipPath id="clip_12">
<path transform="matrix(1,0,0,-1,0,121.73991)" d="M37.556638 44.98659H50.801595V79.91184H37.556638Z"/>
</clipPath>
<clipPath id="clip_13">
<path transform="matrix(1,0,0,-1,0,121.73991)" d="M34.245397 44.98659H133.58258V105.95952H34.245397Z"/>
</clipPath>
<clipPath id="clip_14">
<path transform="matrix(1,0,0,-1,0,121.73991)" d="M50.801595 44.98659H64.046558V97.74087H50.801595Z"/>
</clipPath>
<clipPath id="clip_15">
<path transform="matrix(1,0,0,-1,0,121.73991)" d="M34.245397 44.98659H133.58258V105.95952H34.245397Z"/>
</clipPath>
<clipPath id="clip_16">
<path transform="matrix(1,0,0,-1,0,121.73991)" d="M70.66903 44.98659H83.91399V64.34576H70.66903Z"/>
</clipPath>
<clipPath id="clip_17">
<path transform="matrix(1,0,0,-1,0,121.73991)" d="M34.245397 44.98659H133.58258V105.95952H34.245397Z"/>
</clipPath>
<clipPath id="clip_18">
<path transform="matrix(1,0,0,-1,0,121.73991)" d="M83.91399 44.98659H97.15895V103.00751H83.91399Z"/>
</clipPath>
<clipPath id="clip_19">
<path transform="matrix(1,0,0,-1,0,121.73991)" d="M34.245397 44.98659H133.58258V105.95952H34.245397Z"/>
</clipPath>
<clipPath id="clip_20">
<path transform="matrix(1,0,0,-1,0,121.73991)" d="M103.781429 44.98659H117.02639V79.80493H103.781429Z"/>
</clipPath>
<clipPath id="clip_21">
<path transform="matrix(1,0,0,-1,0,121.73991)" d="M34.245397 44.98659H133.58258V105.95952H34.245397Z"/>
</clipPath>
<clipPath id="clip_22">
<path transform="matrix(1,0,0,-1,0,121.73991)" d="M117.02639 44.98659H130.27135V100.801387H117.02639Z"/>
</clipPath>
<clipPath id="clip_23">
<path transform="matrix(1,0,0,-1,0,121.73991)" d="M34.245397 44.98659H133.58258V105.95952H34.245397Z"/>
</clipPath>
<path id="font_2_86" d="M.14199829 .49121095 .025985718 .45410157V.4230957H.09700012V.14318848C.09700012 .04322815 .14498902-.009765625 .23098755-.009765625 .27999879-.009765625 .33299256 .01322937 .3929901 .056228639V-.0009765625H.54100039V.03501892L.49398805 .040023805 .47599793 .05607605V.49121095H.43798829L.32199098 .45410157V.4230957H.3929901V.08314514C.35198976 .06422424 .31399537 .054229738 .2769928 .054229738 .20999146 .054229738 .17999268 .08821106 .17999268 .16018677V.49121095H.14199829Z"/>
</defs>
<path transform="matrix(1,0,0,-1,0,121.73991)" d="M0 0H134.66259V121.739917H0Z" fill="#ffffff"/>
<path transform="matrix(1,0,0,-1,0,121.73991)" d="M34.245397 44.98659H133.58258V105.95952H34.245397Z" fill="#ffffff"/>
<g clip-path="url(#clip_1)">
<path transform="matrix(1,0,0,-1,0,121.73991)" stroke-width=".5" stroke-linecap="round" stroke-linejoin="round" fill="none" stroke="#dcdcdc" d="M50.801595 44.98659V105.95952"/>
</g>
<path transform="matrix(1,0,0,-1,0,121.73991)" d="M50.801595 44.98659V40.98659" fill="#262626"/>
<path transform="matrix(1,0,0,-1,0,121.73991)" stroke-width="1.25" stroke-linecap="butt" stroke-linejoin="round" fill="none" stroke="#262626" d="M50.801595 44.98659V40.98659"/>
<use data-text="F" xlink:href="#font_2_39" transform="matrix(4.931255,-4.931255,-4.931255,-4.931255,14.558919,114.09841)" fill="#262626"/>
<use data-text="r" xlink:href="#font_2_83" transform="matrix(4.931255,-4.931255,-4.931255,-4.931255,17.202073,111.45526)" fill="#262626"/>
<use data-text="a" xlink:href="#font_2_66" transform="matrix(4.931255,-4.931255,-4.931255,-4.931255,19.080882,109.57645)" fill="#262626"/>
<use data-text="n" xlink:href="#font_2_79" transform="matrix(4.931255,-4.931255,-4.931255,-4.931255,21.576096,107.08124)" fill="#262626"/>
<use data-text="k" xlink:href="#font_2_76" transform="matrix(4.931255,-4.931255,-4.931255,-4.931255,24.372118,104.28521)" fill="#262626"/>
<use data-text="a" xlink:href="#font_2_66" transform="matrix(4.931255,-4.931255,-4.931255,-4.931255,26.921578,101.73575)" fill="#262626"/>
<use data-text="E" xlink:href="#font_2_38" transform="matrix(4.931255,-4.931255,-4.931255,-4.931255,30.78768,97.86965)" fill="#262626"/>
<use data-text="m" xlink:href="#font_2_78" transform="matrix(4.931255,-4.931255,-4.931255,-4.931255,33.628084,95.02925)" fill="#262626"/>
<use data-text="i" xlink:href="#font_2_74" transform="matrix(4.931255,-4.931255,-4.931255,-4.931255,37.78513,90.8722)" fill="#262626"/>
<use data-text="k" xlink:href="#font_2_76" transform="matrix(4.931255,-4.931255,-4.931255,-4.931255,39.16095,89.49638)" fill="#262626"/>
<use data-text="a" xlink:href="#font_2_66" transform="matrix(4.931255,-4.931255,-4.931255,-4.931255,41.710409,86.94692)" fill="#262626"/>
<use data-text="P" xlink:href="#font_2_49" transform="matrix(4.931255,-4.931255,-4.931255,-4.931255,36.57743,103.038089)" fill="#262626"/>
<use data-text="a" xlink:href="#font_2_66" transform="matrix(4.931255,-4.931255,-4.931255,-4.931255,39.126878,100.48864)" fill="#262626"/>
<use data-text="n" xlink:href="#font_2_79" transform="matrix(4.931255,-4.931255,-4.931255,-4.931255,41.622095,97.99342)" fill="#262626"/>
<use data-text="d" xlink:href="#font_2_69" transform="matrix(4.931255,-4.931255,-4.931255,-4.931255,44.418115,95.1974)" fill="#262626"/>
<use data-text="a" xlink:href="#font_2_66" transform="matrix(4.931255,-4.931255,-4.931255,-4.931255,47.19934,92.416179)" fill="#262626"/>
<g clip-path="url(#clip_3)">
<path transform="matrix(1,0,0,-1,0,121.73991)" stroke-width=".5" stroke-linecap="round" stroke-linejoin="round" fill="none" stroke="#dcdcdc" d="M83.91399 44.98659V105.95952"/>
</g>
<path transform="matrix(1,0,0,-1,0,121.73991)" d="M83.91399 44.98659V40.98659" fill="#262626"/>
<path transform="matrix(1,0,0,-1,0,121.73991)" stroke-width="1.25" stroke-linecap="butt" stroke-linejoin="round" fill="none" stroke="#262626" d="M83.91399 44.98659V40.98659"/>
<use data-text="U" xlink:href="#font_2_54" transform="matrix(4.931255,-4.931255,-4.931255,-4.931255,61.508398,100.26133)" fill="#262626"/>
<use data-text="n" xlink:href="#font_2_79" transform="matrix(4.931255,-4.931255,-4.931255,-4.931255,64.79754,96.97219)" fill="#262626"/>
<use data-text="i" xlink:href="#font_2_74" transform="matrix(4.931255,-4.931255,-4.931255,-4.931255,67.59356,94.17617)" fill="#262626"/>
<use data-text="t" xlink:href="#font_2_85" transform="matrix(4.931255,-4.931255,-4.931255,-4.931255,68.969379,92.800357)" fill="#262626"/>
<use data-text="r" xlink:href="#font_2_83" transform="matrix(4.931255,-4.931255,-4.931255,-4.931255,70.61148,91.15824)" fill="#262626"/>
<use data-text="e" xlink:href="#font_2_70" transform="matrix(4.931255,-4.931255,-4.931255,-4.931255,72.49029,89.279438)" fill="#262626"/>
<use data-text="e" xlink:href="#font_2_70" transform="matrix(4.931255,-4.931255,-4.931255,-4.931255,74.91154,86.858188)" fill="#262626"/>
<use data-text="G" xlink:href="#font_2_40" transform="matrix(4.931255,-4.931255,-4.931255,-4.931255,74.00958,98.71834)" fill="#262626"/>
<use data-text="o" xlink:href="#font_2_80" transform="matrix(4.931255,-4.931255,-4.931255,-4.931255,77.43188,95.29605)" fill="#262626"/>
<use data-text="1" xlink:href="#font_2_18" transform="matrix(4.931255,-4.931255,-4.931255,-4.931255,80.08489,92.643039)" fill="#262626"/>
<g clip-path="url(#clip_4)">
<path transform="matrix(1,0,0,-1,0,121.73991)" stroke-width=".5" stroke-linecap="round" stroke-linejoin="round" fill="none" stroke="#dcdcdc" d="M117.02639 44.98659V105.95952"/>
</g>
<path transform="matrix(1,0,0,-1,0,121.73991)" d="M117.02639 44.98659V40.98659" fill="#262626"/>
<path transform="matrix(1,0,0,-1,0,121.73991)" stroke-width="1.25" stroke-linecap="butt" stroke-linejoin="round" fill="none" stroke="#262626" d="M117.02639 44.98659V40.98659"/>
<use data-text="R" xlink:href="#font_2_51" transform="matrix(4.931255,-4.931255,-4.931255,-4.931255,96.766368,103.59486)" fill="#262626"/>
<use data-text="a" xlink:href="#font_2_66" transform="matrix(4.931255,-4.931255,-4.931255,-4.931255,99.94702,100.4142)" fill="#262626"/>
<use data-text="c" xlink:href="#font_2_68" transform="matrix(4.931255,-4.931255,-4.931255,-4.931255,102.44224,97.91898)" fill="#262626"/>
<use data-text="e" xlink:href="#font_2_70" transform="matrix(4.931255,-4.931255,-4.931255,-4.931255,104.64158,95.71964)" fill="#262626"/>
<use data-text="C" xlink:href="#font_2_36" transform="matrix(4.931255,-4.931255,-4.931255,-4.931255,108.433719,91.927509)" fill="#262626"/>
<use data-text="a" xlink:href="#font_2_66" transform="matrix(4.931255,-4.931255,-4.931255,-4.931255,111.54534,88.81589)" fill="#262626"/>
<use data-text="r" xlink:href="#font_2_83" transform="matrix(4.931255,-4.931255,-4.931255,-4.931255,114.04056,86.32067)" fill="#262626"/>
<g clip-path="url(#clip_5)">
<path transform="matrix(1,0,0,-1,0,121.73991)" stroke-width=".5" stroke-linecap="round" stroke-linejoin="round" fill="none" stroke="#dcdcdc" d="M34.245397 44.98659H133.58258"/>
</g>
<path transform="matrix(1,0,0,-1,0,121.73991)" d="M34.245397 44.98659H30.245396" fill="#262626"/>
<path transform="matrix(1,0,0,-1,0,121.73991)" stroke-width="1.25" stroke-linecap="butt" stroke-linejoin="round" fill="none" stroke="#262626" d="M34.245397 44.98659H30.245396"/>
<use data-text="&#x00d7;" xlink:href="#font_6_3" transform="matrix(6.973848,0,0,-6.973848,13.710128,79.3441)" fill="#262626"/>
<use data-text="0" xlink:href="#font_7_50" transform="matrix(6.973848,0,0,-6.973848,19.936795,79.3441)" fill="#262626"/>
<use data-text="." xlink:href="#font_8_59" transform="matrix(6.973848,0,0,-6.973848,23.908032,79.3441)" fill="#262626"/>
<use data-text="0" xlink:href="#font_7_50" transform="matrix(6.973848,0,0,-6.973848,26.274159,79.3441)" fill="#262626"/>
<g clip-path="url(#clip_9)">
<path transform="matrix(1,0,0,-1,0,121.73991)" stroke-width=".5" stroke-linecap="round" stroke-linejoin="round" fill="none" stroke="#dcdcdc" d="M34.245397 74.05644H133.58258"/>
</g>
<path transform="matrix(1,0,0,-1,0,121.73991)" d="M34.245397 74.05644H30.245396" fill="#262626"/>
<path transform="matrix(1,0,0,-1,0,121.73991)" stroke-width="1.25" stroke-linecap="butt" stroke-linejoin="round" fill="none" stroke="#262626" d="M34.245397 74.05644H30.245396"/>
<use data-text="&#x00d7;" xlink:href="#font_6_3" transform="matrix(6.973848,0,0,-6.973848,13.710128,50.27424)" fill="#262626"/>
<use data-text="0" xlink:href="#font_7_50" transform="matrix(6.973848,0,0,-6.973848,19.936795,50.27424)" fill="#262626"/>
<use data-text="." xlink:href="#font_8_59" transform="matrix(6.973848,0,0,-6.973848,23.908032,50.27424)" fill="#262626"/>
<use data-text="5" xlink:href="#font_7_55" transform="matrix(6.973848,0,0,-6.973848,26.274159,50.27424)" fill="#262626"/>
<g clip-path="url(#clip_10)">
<path transform="matrix(1,0,0,-1,0,121.73991)" stroke-width=".5" stroke-linecap="round" stroke-linejoin="round" fill="none" stroke="#dcdcdc" d="M34.245397 103.126308H133.58258"/>
</g>
<path transform="matrix(1,0,0,-1,0,121.73991)" d="M34.245397 103.126308H30.245396" fill="#262626"/>
<path transform="matrix(1,0,0,-1,0,121.73991)" stroke-width="1.25" stroke-linecap="butt" stroke-linejoin="round" fill="none" stroke="#262626" d="M34.245397 103.126308H30.245396"/>
<use data-text="&#x00d7;" xlink:href="#font_6_3" transform="matrix(6.973848,0,0,-6.973848,13.710128,21.204384)" fill="#262626"/>
<use data-text="1" xlink:href="#font_7_51" transform="matrix(6.973848,0,0,-6.973848,19.936795,21.204384)" fill="#262626"/>
<use data-text="." xlink:href="#font_8_59" transform="matrix(6.973848,0,0,-6.973848,23.908032,21.204384)" fill="#262626"/>
<use data-text="0" xlink:href="#font_7_50" transform="matrix(6.973848,0,0,-6.973848,26.274159,21.204384)" fill="#262626"/>
<use data-text="S" xlink:href="#font_2_52" transform="matrix(0,-8.966376,-8.966376,-0,7.742014,76.17413)" fill="#262626"/>
<use data-text="i" xlink:href="#font_2_74" transform="matrix(0,-8.966376,-8.966376,-0,7.742014,71.19779)" fill="#262626"/>
<use data-text="m" xlink:href="#font_2_78" transform="matrix(0,-8.966376,-8.966376,-0,7.742014,68.696178)" fill="#262626"/>
<use data-text="-" xlink:href="#font_2_14" transform="matrix(0,-8.966376,-8.966376,-0,7.742014,61.13752)" fill="#262626"/>
<use data-text="t" xlink:href="#font_2_85" transform="matrix(0,-8.966376,-8.966376,-0,7.742014,58.277246)" fill="#262626"/>
<use data-text="o" xlink:href="#font_2_80" transform="matrix(0,-8.966376,-8.966376,-0,7.742014,55.291444)" fill="#262626"/>
<use data-text="-" xlink:href="#font_2_14" transform="matrix(0,-8.966376,-8.966376,-0,7.742014,50.46753)" fill="#262626"/>
<use data-text="r" xlink:href="#font_2_83" transform="matrix(0,-8.966376,-8.966376,-0,7.742014,47.607255)" fill="#262626"/>
<use data-text="e" xlink:href="#font_2_70" transform="matrix(0,-8.966376,-8.966376,-0,7.742014,44.191064)" fill="#262626"/>
<use data-text="a" xlink:href="#font_2_66" transform="matrix(0,-8.966376,-8.966376,-0,7.742014,39.788576)" fill="#262626"/>
<use data-text="l" xlink:href="#font_2_77" transform="matrix(0,-8.966376,-8.966376,-0,7.742014,35.44886)" fill="#262626"/>
<use data-text="g" xlink:href="#font_2_72" transform="matrix(0,-8.966376,-8.966376,-0,7.742014,30.436654)" fill="#262626"/>
<use data-text="a" xlink:href="#font_2_66" transform="matrix(0,-8.966376,-8.966376,-0,7.742014,25.756203)" fill="#262626"/>
<use data-text="p" xlink:href="#font_2_81" transform="matrix(0,-8.966376,-8.966376,-0,7.742014,21.380616)" fill="#262626"/>
<g clip-path="url(#clip_11)">
<g clip-path="url(#clip_12)">
<path transform="matrix(1,0,0,-1,0,121.73991)" d="M37.556638 44.98659H50.801595V79.91184H37.556638Z" fill="#5f4690" fill-opacity=".7"/>
<path transform="matrix(1,0,0,-1,0,121.73991)" stroke-width="2" stroke-linecap="butt" stroke-miterlimit="10" stroke-linejoin="miter" fill="none" stroke="#5f4690" d="M37.556638 44.98659H50.801595V79.91184H37.556638Z"/>
</g>
</g>
<g clip-path="url(#clip_13)">
<g clip-path="url(#clip_14)">
<path transform="matrix(1,0,0,-1,0,121.73991)" d="M50.801595 44.98659H64.046558V97.74087H50.801595Z" fill="#1d6996" fill-opacity=".7"/>
<path transform="matrix(1,0,0,-1,0,121.73991)" stroke-width="2" stroke-linecap="butt" stroke-miterlimit="10" stroke-linejoin="miter" fill="none" stroke="#1d6996" d="M50.801595 44.98659H64.046558V97.74087H50.801595Z"/>
</g>
</g>
<g clip-path="url(#clip_15)">
<g clip-path="url(#clip_16)">
<path transform="matrix(1,0,0,-1,0,121.73991)" d="M70.66903 44.98659H83.91399V64.34576H70.66903Z" fill="#5f4690" fill-opacity=".7"/>
<path transform="matrix(1,0,0,-1,0,121.73991)" stroke-width="2" stroke-linecap="butt" stroke-miterlimit="10" stroke-linejoin="miter" fill="none" stroke="#5f4690" d="M70.66903 44.98659H83.91399V64.34576H70.66903Z"/>
</g>
</g>
<g clip-path="url(#clip_17)">
<g clip-path="url(#clip_18)">
<path transform="matrix(1,0,0,-1,0,121.73991)" d="M83.91399 44.98659H97.15895V103.00751H83.91399Z" fill="#1d6996" fill-opacity=".7"/>
<path transform="matrix(1,0,0,-1,0,121.73991)" stroke-width="2" stroke-linecap="butt" stroke-miterlimit="10" stroke-linejoin="miter" fill="none" stroke="#1d6996" d="M83.91399 44.98659H97.15895V103.00751H83.91399Z"/>
</g>
</g>
<g clip-path="url(#clip_19)">
<g clip-path="url(#clip_20)">
<path transform="matrix(1,0,0,-1,0,121.73991)" d="M103.781429 44.98659H117.02639V79.80493H103.781429Z" fill="#5f4690" fill-opacity=".7"/>
<path transform="matrix(1,0,0,-1,0,121.73991)" stroke-width="2" stroke-linecap="butt" stroke-miterlimit="10" stroke-linejoin="miter" fill="none" stroke="#5f4690" d="M103.781429 44.98659H117.02639V79.80493H103.781429Z"/>
</g>
</g>
<g clip-path="url(#clip_21)">
<g clip-path="url(#clip_22)">
<path transform="matrix(1,0,0,-1,0,121.73991)" d="M117.02639 44.98659H130.27135V100.801387H117.02639Z" fill="#1d6996" fill-opacity=".7"/>
<path transform="matrix(1,0,0,-1,0,121.73991)" stroke-width="2" stroke-linecap="butt" stroke-miterlimit="10" stroke-linejoin="miter" fill="none" stroke="#1d6996" d="M117.02639 44.98659H130.27135V100.801387H117.02639Z"/>
</g>
</g>
<g clip-path="url(#clip_23)">
<path transform="matrix(1,0,0,-1,0,121.73991)" stroke-width=".75" stroke-linecap="square" stroke-linejoin="round" fill="none" stroke="#262626" d="M44.179117 79.15779V80.66589"/>
<path transform="matrix(1,0,0,-1,0,121.73991)" stroke-width=".75" stroke-linecap="square" stroke-linejoin="round" fill="none" stroke="#262626" d="M77.29151 58.367887V70.32362"/>
<path transform="matrix(1,0,0,-1,0,121.73991)" stroke-width=".75" stroke-linecap="square" stroke-linejoin="round" fill="none" stroke="#262626" d="M110.40391 75.990688V83.61917"/>
<path transform="matrix(1,0,0,-1,0,121.73991)" stroke-width=".75" stroke-linecap="square" stroke-linejoin="round" fill="none" stroke="#262626" d="M57.424074 93.95095V101.530788"/>
<path transform="matrix(1,0,0,-1,0,121.73991)" stroke-width=".75" stroke-linecap="square" stroke-linejoin="round" fill="none" stroke="#262626" d="M90.53647 102.95897V103.056049"/>
<path transform="matrix(1,0,0,-1,0,121.73991)" stroke-width=".75" stroke-linecap="square" stroke-linejoin="round" fill="none" stroke="#262626" d="M123.648868 99.74917V101.85361"/>
</g>
<path transform="matrix(1,0,0,-1,0,121.73991)" stroke-width="1.25" stroke-linecap="square" stroke-miterlimit="10" stroke-linejoin="miter" fill="none" stroke="#262626" d="M34.245397 44.98659V105.95952"/>
<path transform="matrix(1,0,0,-1,0,121.73991)" stroke-width="1.25" stroke-linecap="square" stroke-miterlimit="10" stroke-linejoin="miter" fill="none" stroke="#262626" d="M133.58258 44.98659V105.95952"/>
<path transform="matrix(1,0,0,-1,0,121.73991)" stroke-width="1.25" stroke-linecap="square" stroke-miterlimit="10" stroke-linejoin="miter" fill="none" stroke="#262626" d="M34.245397 44.98659H133.58258"/>
<path transform="matrix(1,0,0,-1,0,121.73991)" stroke-width="1.25" stroke-linecap="square" stroke-miterlimit="10" stroke-linejoin="miter" fill="none" stroke="#262626" d="M34.245397 105.95952H133.58258"/>
<path transform="matrix(1,0,0,-1,0,121.73991)" d="M28.581957 112.67835H35.58196V117.578357H28.581957Z" fill="#5f4690" fill-opacity=".7"/>
<path transform="matrix(1,0,0,-1,0,121.73991)" stroke-width="1" stroke-linecap="butt" stroke-miterlimit="10" stroke-linejoin="miter" fill="none" stroke="#5f4690" d="M28.581957 112.67835H35.58196V117.578357H28.581957Z"/>
<use data-text="R" xlink:href="#font_2_51" transform="matrix(6.973848,0,0,-6.973848,37.33196,9.061554)"/>
<use data-text="e" xlink:href="#font_2_70" transform="matrix(6.973848,0,0,-6.973848,41.55112,9.061554)"/>
<use data-text="a" xlink:href="#font_2_66" transform="matrix(6.973848,0,0,-6.973848,44.97528,9.061554)"/>
<use data-text="l" xlink:href="#font_2_77" transform="matrix(6.973848,0,0,-6.973848,48.37851,9.061554)"/>
<path transform="matrix(1,0,0,-1,0,121.73991)" d="M64.35905 112.67835H71.35905V117.578357H64.35905Z" fill="#1d6996" fill-opacity=".7"/>
<path transform="matrix(1,0,0,-1,0,121.73991)" stroke-width="1" stroke-linecap="butt" stroke-miterlimit="10" stroke-linejoin="miter" fill="none" stroke="#1d6996" d="M64.35905 112.67835H71.35905V117.578357H64.35905Z"/>
<use data-text="S" xlink:href="#font_2_52" transform="matrix(6.973848,0,0,-6.973848,73.10905,9.061554)"/>
<use data-text="i" xlink:href="#font_2_74" transform="matrix(6.973848,0,0,-6.973848,76.97953,9.061554)"/>
<use data-text="m" xlink:href="#font_2_78" transform="matrix(6.973848,0,0,-6.973848,78.92523,9.061554)"/>
<use data-text="u" xlink:href="#font_2_86" transform="matrix(6.973848,0,0,-6.973848,84.61588,9.061554)"/>
<use data-text="l" xlink:href="#font_2_77" transform="matrix(6.973848,0,0,-6.973848,88.584,9.061554)"/>
<use data-text="a" xlink:href="#font_2_66" transform="matrix(6.973848,0,0,-6.973848,90.54365,9.061554)"/>
<use data-text="t" xlink:href="#font_2_85" transform="matrix(6.973848,0,0,-6.973848,94.07242,9.061554)"/>
<use data-text="i" xlink:href="#font_2_74" transform="matrix(6.973848,0,0,-6.973848,96.39471,9.061554)"/>
<use data-text="o" xlink:href="#font_2_80" transform="matrix(6.973848,0,0,-6.973848,98.34041,9.061554)"/>
<use data-text="n" xlink:href="#font_2_79" transform="matrix(6.973848,0,0,-6.973848,101.97376,9.061554)"/>
</svg>
