<svg xmlns="http://www.w3.org/2000/svg" xmlns:xlink="http://www.w3.org/1999/xlink" xmlns:inkscape="http://www.inkscape.org/namespaces/inkscape" version="1.1" width="392.9278" height="90.82416" viewBox="0 0 392.9278 90.82416">
<defs>
<clipPath id="clip_1">
<path transform="matrix(1,0,0,-1,0,90.82416)" d="M35.112585 4.953878H121.97461V64.58089H35.112585Z"/>
</clipPath>
<path id="font_2_50" d="M.5159912 .31925965C.5159912 .42918397 .5029907 .50813296 .45700074 .5780945 .42599488 .62405398 .3639984 .6640625 .28399659 .6640625 .051986696 .6640625 .051986696 .39120484 .051986696 .31925965 .051986696 .2472992 .051986696-.01953125 .28399659-.01953125 .5159912-.01953125 .5159912 .2472992 .5159912 .31925965M.28399659 .008468628C.23799134 .008468628 .1769867 .035446168 .15699768 .117385867 .14299011 .17634583 .14299011 .25830079 .14299011 .33224488 .14299011 .40519715 .14299011 .4811554 .1579895 .53611758 .1789856 .6150665 .24299622 .63604739 .28399659 .63604739 .33799745 .63604739 .3899994 .6030731 .4079895 .545105 .42399598 .4911499 .4249878 .41918946 .4249878 .33224488 .4249878 .25830079 .4249878 .18434143 .4119873 .12138367 .3919983 .030441285 .32398988 .008468628 .28399659 .008468628Z"/>
<clipPath id="clip_3">
<path transform="matrix(1,0,0,-1,0,90.82416)" d="M35.112585 4.953878H121.97461V64.58089H35.112585Z"/>
</clipPath>
<path id="font_2_55" d="M.15499878 .5588074C.20599365 .5458069 .23599243 .5458069 .2519989 .5458069 .38398744 .5458069 .46199037 .6358032 .46199037 .6508026 .46199037 .6618042 .45498658 .6648102 .44999696 .6648102 .44799806 .6648102 .44599916 .6648102 .44198609 .6618042 .41799928 .6528015 .36499024 .6328125 .29100038 .6328125 .2630005 .6328125 .20999146 .6348114 .14498902 .6598053 .1349945 .6648102 .1329956 .6648102 .13198853 .6648102 .11898804 .6648102 .11898804 .6538086 .11898804 .6378021V.34251405C.11898804 .32548524 .11898804 .3134613 .1349945 .3134613 .14399719 .3134613 .14498902 .3154602 .15499878 .32748414 .19799805 .38259889 .25898744 .390625 .2939911 .390625 .35398866 .390625 .3809967 .34251405 .38598634 .33450318 .4039917 .30143739 .4099884 .26335145 .4099884 .20524597 .4099884 .17524719 .4099884 .116256717 .37998963 .07234192 .35499574 .03640747 .31199647 .012466431 .2630005 .012466431 .19799805 .012466431 .1309967 .04838562 .10598755 .11425781 .14399719 .11125183 .16299439 .13624573 .16299439 .16325379 .16299439 .20625305 .12599182 .21424866 .11299133 .21424866 .11099243 .21424866 .06298828 .21424866 .06298828 .1602478 .06298828 .07034302 .14498902-.01953125 .2649994-.01953125 .3929901-.01953125 .5049896 .07533264 .5049896 .20124817 .5049896 .31445313 .4189911 .41862489 .29499818 .41862489 .25099183 .41862489 .19898987 .4076233 .15499878 .36956788V.5588074Z"/>
<clipPath id="clip_4">
<path transform="matrix(1,0,0,-1,0,90.82416)" d="M35.112585 4.953878H121.97461V64.58089H35.112585Z"/>
</clipPath>
<path id="font_2_51" d="M.33499146 .63612368C.33499146 .6630554 .33299256 .6640625 .30499269 .6640625 .24099732 .6014404 .1499939 .6004486 .10899353 .6004486V.5644531C.1329956 .5644531 .19898987 .5644531 .2539978 .592453V.08203125C.2539978 .04899597 .2539978 .035995485 .1539917 .035995485H.115997318V0C.13398743 .0009918213 .25698854 .0039978029 .2939911 .0039978029 .32499696 .0039978029 .45098878 .0009918213 .47299195 0V.035995485H.43499757C.33499146 .035995485 .33499146 .04899597 .33499146 .08203125V.63612368Z"/>
<clipPath id="clip_5">
<path transform="matrix(1,0,0,-1,0,90.82416)" d="M35.112585 4.953878H121.97461V64.58089H35.112585Z"/>
</clipPath>
<path id="font_6_96" d="M.25698854 .69433596 .11898804 .55908206 .13699341 .53808596 .25698854 .639328 .37599183 .53808596 .3939972 .55908206 .25698854 .69433596Z"/>
<path id="font_7_75" d="M.5519867 .6096039C.55999758 .6436157 .56199648 .6516113 .6179962 .6516113 .6299896 .6516113 .6429901 .6516113 .6429901 .6696167 .6429901 .6706085 .6429901 .6826172 .6279907 .6826172 .62098696 .6826172 .5799866 .680603 .57398989 .680603 .5669861 .6796112 .5349884 .6796112 .5149994 .6796112 .4909973 .6796112 .46499635 .680603 .44099427 .680603 .4169922 .680603 .3929901 .6826172 .36999513 .6826172 .3619995 .6826172 .34899903 .6826172 .34899903 .6646118 .34899903 .6516113 .35899354 .6516113 .3829956 .6516113 .3880005 .6516113 .4149933 .6516113 .43998719 .64860537 .46398927 .64660647 .47099305 .64460757 .47099305 .62960818 .47099305 .62260439 .46899415 .61660769 .46798707 .6116028L.35099793 .1465149C.32798768 .055511476 .2599945 .002532959 .20799256 .002532959 .1749878 .002532959 .12599182 .016525269 .11099243 .061523439 .11299133 .060516359 .114990238 .060516359 .12199402 .060516359 .1619873 .060516359 .18699646 .09552002 .18699646 .12451172 .18699646 .1505127 .16699219 .16651917 .14199829 .16651917 .11999512 .16651917 .07598877 .1505127 .07598877 .087509158 .07598877 .022521973 .13198853-.022460938 .20999146-.022460938 .30599977-.022460938 .4099884 .043518068 .43499757 .14251709L.5519867 .6096039Z"/>
<path id="font_6_41" d="M.34098817-.23803711C.34098817-.23303223 .33799745-.23002625 .33198548-.22303772 .20298767-.105026248 .1639862 .07498169 .1639862 .24996948 .1639862 .40498353 .19400025 .59298709 .33499146 .72698977 .33898927 .73098757 .34098817 .73399356 .34098817 .7389984 .34098817 .74598696 .33599855 .75 .32899476 .75 .31698609 .75 .22698975 .6779785 .17298889 .568985 .125 .47297669 .100997928 .36997987 .100997928 .25097657 .100997928 .17897034 .10998535 .064971927 .16499329-.053024293 .22399903-.17602539 .31698609-.24902344 .32899476-.24902344 .33599855-.24902344 .34098817-.24502564 .34098817-.23803711Z"/>
<path id="font_6_128" d="M.40899659 .6689453C.38198854 .64193728 .35899354 .62294009 .32798768 .62294009 .30599977 .62294009 .2869873 .63194277 .2559967 .64894106 .24299622 .6559448 .21998596 .6689453 .19599915 .6689453 .15899658 .6689453 .13999939 .64894106 .085998538 .58973696L.10398865 .57273867C.1309967 .5997925 .1539917 .61894229 .18499756 .61894229 .20698548 .61894229 .22599793 .6098633 .25698854 .5927429 .269989 .58573916 .29299928 .57273867 .31698609 .57273867 .35398866 .57273867 .37298585 .5927429 .4269867 .65193179L.40899659 .6689453Z"/>
<path id="font_7_26" d="M.272995 .36865235H.3869934C.37199403 .30575563 .34599305 .20193482 .34599305 .11906433 .34599305 .112075809 .34599305 .075149539 .35499574 .03919983 .36499024 .0012512207 .37399293-.0107421879 .3939972-.0107421879 .4149933-.0107421879 .43699647 .007247925 .43699647 .030212403 .43699647 .037200929 .43598939 .04020691 .42999269 .05317688 .39898683 .123062137 .39898683 .19694519 .39898683 .21990967 .39898683 .24485779 .39898683 .28878785 .41600038 .36865235H.5329895C.54599 .36865235 .58299258 .36865235 .58299258 .4046631 .58299258 .43066407 .5609894 .43066407 .5419922 .43066407H.19599915C.17199707 .43066407 .13699341 .43066407 .08999634 .38365174 .06298828 .3566742 .026992798 .30177308 .026992798 .29377748 .026992798 .2828064 .037994386 .2828064 .040985109 .2828064 .04899597 .2828064 .050994874 .28479005 .056991579 .29478456 .10598755 .36865235 .16699219 .36865235 .18699646 .36865235H.24398804C.20098877 .21791077 .13198853 .07614136 .125 .061172487 .117996219 .047195436 .10798645 .026229859 .10798645 .018234253 .10798645 .0052490236 .116989139-.0107421879 .13899231-.0107421879 .1749878-.0107421879 .18399048 .025222779 .20498657 .10609436L.272995 .36865235Z"/>
<path id="font_6_42" d="M.2979889 .25097657C.2979889 .3329773 .28599549 .4429779 .23399353 .5539856 .1749878 .6769867 .08198547 .75 .069992069 .75 .05999756 .75 .057998659 .74198916 .057998659 .7389984 .057998659 .73399356 .05999756 .73098757 .066986087 .72398379 .125 .6719818 .23498535 .5359802 .23498535 .25097657 .23498535 .10797119 .20899964-.091033939 .06399536-.22602844 .06199646-.22903443 .057998659-.23303223 .057998659-.23803711 .057998659-.24102783 .05999756-.24902344 .069992069-.24902344 .08198547-.24902344 .17199707-.17703247 .22599793-.06802368 .27398683 .02796936 .2979889 .13098145 .2979889 .25097657Z"/>
<clipPath id="clip_8">
<path transform="matrix(1,0,0,-1,0,90.82416)" d="M35.112585 4.953878H121.97461V64.58089H35.112585Z"/>
</clipPath>
<clipPath id="clip_9">
<path transform="matrix(1,0,0,-1,0,90.82416)" d="M37.284135 4.953878H54.65654V57.080533H37.284135Z"/>
</clipPath>
<clipPath id="clip_10">
<path transform="matrix(1,0,0,-1,0,90.82416)" d="M35.112585 4.953878H121.97461V64.58089H35.112585Z"/>
</clipPath>
<clipPath id="clip_11">
<path transform="matrix(1,0,0,-1,0,90.82416)" d="M58.99964 4.953878H76.37205V60.595827H58.99964Z"/>
</clipPath>
<clipPath id="clip_12">
<path transform="matrix(1,0,0,-1,0,90.82416)" d="M35.112585 4.953878H121.97461V64.58089H35.112585Z"/>
</clipPath>
<clipPath id="clip_13">
<path transform="matrix(1,0,0,-1,0,90.82416)" d="M80.71515 4.953878H98.087558V25.087542H80.71515Z"/>
</clipPath>
<clipPath id="clip_14">
<path transform="matrix(1,0,0,-1,0,90.82416)" d="M35.112585 4.953878H121.97461V64.58089H35.112585Z"/>
</clipPath>
<clipPath id="clip_15">
<path transform="matrix(1,0,0,-1,0,90.82416)" d="M102.43066 4.953878H119.80306V11.114422H102.43066Z"/>
</clipPath>
<clipPath id="clip_16">
<path transform="matrix(1,0,0,-1,0,90.82416)" d="M102.43066 4.953878H119.80306V11.114422H102.43066Z"/>
</clipPath>
<clipPath id="clip_17">
<path transform="matrix(1,0,0,-1,0,90.82416)" d="M35.112585 4.953878H121.97461V64.58089H35.112585Z"/>
</clipPath>
<clipPath id="clip_18">
<path transform="matrix(1,0,0,-1,0,90.82416)" d="M169.8571 4.953878H256.71913V64.58089H169.8571Z"/>
</clipPath>
<path id="font_19_212" d="M.2539978 .67578127C.19898987 .67578127 .15699768 .6587677 .11999512 .62379458 .06199646 .5678406 .023986817 .4529419 .023986817 .3360443 .023986817 .22714234 .056991579 .11022949 .10398865 .05429077 .14099121 .010314941 .19198609-.013671875 .25-.013671875 .30099488-.013671875 .34399415 .003326416 .37998963 .03829956 .43798829 .09324646 .47599793 .20915222 .47599793 .3300476 .47599793 .53486636 .3849945 .67578127 .2539978 .67578127M.25099183 .6497803C.33499146 .6497803 .37998963 .53686526 .37998963 .3280487 .37998963 .11923218 .33599855 .012313843 .25 .012313843 .1639862 .012313843 .11999512 .11923218 .11999512 .32704164 .11999512 .53886416 .16499329 .6497803 .25099183 .6497803Z"/>
<clipPath id="clip_20">
<path transform="matrix(1,0,0,-1,0,90.82416)" d="M169.8571 4.953878H256.71913V64.58089H169.8571Z"/>
</clipPath>
<path id="font_19_204" d="M.47499085 .13696289 .46199037 .14196778C.4249878 .084991458 .4119873 .07598877 .36698915 .07598877H.12799073L.29599 .2519226C.3849945 .34487916 .42399598 .42085267 .42399598 .4988098 .42399598 .59877017 .34298707 .67578127 .23899842 .67578127 .18399048 .67578127 .13198853 .6537781 .09498596 .61376956 .06298828 .5797882 .04798889 .5477905 .0309906 .4768219L.051986696 .47183229C.09199524 .5697937 .12799073 .6017761 .19699097 .6017761 .2809906 .6017761 .33799745 .5447998 .33799745 .4608307 .33799745 .38285829 .2919922 .28990174 .20799256 .200943L.02999878 .011993408V0H.41999818L.47499085 .13696289Z"/>
<path id="font_19_207" d="M.18099976 .58309939H.3769989C.3929901 .58309939 .39698792 .58509829 .3999939 .59210208L.43798829 .68110659 .42900086 .6880951C.4139862 .667099 .4039917 .6621094 .3829956 .6621094H.17399597L.06498718 .4251709C.06399536 .423172 .06399536 .42216493 .06399536 .42016603 .06399536 .4151764 .067993167 .4121704 .07598877 .4121704 .10798645 .4121704 .147995 .40516664 .18899536 .3921814 .3039856 .3551941 .35699464 .2932129 .35699464 .19425965 .35699464 .09829712 .29599 .02331543 .21798706 .02331543 .19799805 .02331543 .18099976 .030319214 .15098572 .05230713 .11898804 .075302127 .09599304 .08529663 .07499695 .08529663 .04598999 .08529663 .03199768 .07330322 .03199768 .048309328 .03199768 .010314941 .07899475-.013671875 .1539917-.013671875 .23799134-.013671875 .30999757 .013320923 .3600006 .06430054 .4059906 .10928345 .4269867 .16625977 .4269867 .24223328 .4269867 .31420899 .4079895 .36018373 .35798646 .4101715 .31399537 .45414735 .25698854 .47714234 .13899231 .49813844L.18099976 .58309939Z"/>
<clipPath id="clip_21">
<path transform="matrix(1,0,0,-1,0,90.82416)" d="M169.8571 4.953878H256.71913V64.58089H169.8571Z"/>
</clipPath>
<clipPath id="clip_22">
<path transform="matrix(1,0,0,-1,0,90.82416)" d="M169.8571 4.953878H256.71913V64.58089H169.8571Z"/>
</clipPath>
<path id="font_19_209" d="M.44898988 .6621094H.07899475L.019989014 .5151062 .036987306 .5071106C.07998657 .57510378 .09799194 .58810427 .15299988 .58810427H.36999513L.17199707-.0078125H.23699951L.44898988 .6461029V.6621094Z"/>
<clipPath id="clip_23">
<path transform="matrix(1,0,0,-1,0,90.82416)" d="M169.8571 4.953878H256.71913V64.58089H169.8571Z"/>
</clipPath>
<path id="font_19_203" d="M.29100038 .67578127 .11099243 .58496096V.57095339C.12298584 .57595828 .13398743 .57995608 .13798523 .58195498 .1559906 .5889435 .17298889 .592926 .18299866 .592926 .20399475 .592926 .21299744 .57795718 .21299744 .5459595V.09298706C.21299744 .0599823 .20498657 .036987306 .18899536 .02798462 .17399597 .018997193 .1599884 .015991211 .117996219 .01499939V0H.3939972V.01499939C.31498719 .015991211 .29899598 .025985718 .29899598 .07398987V.6737671L.29100038 .67578127Z"/>
<clipPath id="clip_24">
<path transform="matrix(1,0,0,-1,0,90.82416)" d="M169.8571 4.953878H256.71913V64.58089H169.8571Z"/>
</clipPath>
<path id="font_19_134" d="M.016998291 .6621094V.6430969C.100997928 .6381073 .11299133 .6271057 .11299133 .5530853V.10900879C.11299133 .034988405 .099990848 .021987915 .016998291 .018997193V0H.35099793C.42900086 0 .5 .020996094 .5369873 .054992677 .57299807 .087005618 .59298709 .13200379 .59298709 .1800232 .59298709 .22402954 .57499697 .2640381 .5439911 .29304505 .5139923 .32003785 .4869995 .3320465 .42199708 .34805299 .47399903 .36105348 .49499513 .37104798 .5189972 .39205934 .5439911 .4140625 .5589905 .45106507 .5589905 .4920807 .5589905 .60409548 .46998597 .6621094 .29699708 .6621094H.016998291M.21499634 .3260498C.31199647 .3260498 .35798646 .32104493 .3939972 .30604554 .45098878 .28204347 .47799684 .24203491 .47799684 .17901612 .47799684 .12501526 .45700074 .085998538 .4169922 .06300354 .3849945 .04499817 .34399415 .036987306 .27799989 .036987306 .22898865 .036987306 .21499634 .04598999 .21499634 .07800293V.3260498M.21499634 .36605836V.5950928C.21499634 .6161041 .22200012 .6251068 .23699951 .6251068H.2809906C.3959961 .6251068 .45700074 .5770874 .45700074 .48806764 .45700074 .4100647 .4039917 .36605836 .30999757 .36605836H.21499634Z"/>
<path id="font_19_186" d="M.47898866 .050186159H.47399903C.42799378 .050186159 .4169922 .061187746 .4169922 .10719299V.4501953H.25898744V.43318177C.32099916 .43019105 .33299256 .42018128 .33299256 .37019349V.13522339C.33299256 .10722351 .32798768 .09321594 .31399537 .082229617 .2869873 .06022644 .2559967 .048233034 .22599793 .048233034 .18699646 .048233034 .15499878 .082229617 .15499878 .1242218V.4501953H.008987427V.43618775C.056991579 .43318177 .070999149 .41818238 .070999149 .37219239V.120224C.070999149 .041229249 .11898804-.009765625 .19198609-.009765625 .22898865-.009765625 .2679901 .006225586 .29499818 .033233644L.33799745 .07621765V-.0067749025L.34199525-.0087890629C.3919983 .011199951 .42799378 .022201539 .47898866 .036209108V.050186159Z"/>
<path id="font_19_169" d="M.34399415-.009765625 .4909973 .04222107V.05821228C.47299195 .05722046 .47099305 .05722046 .46798707 .05722046 .43199159 .05722046 .42399598 .06820679 .42399598 .11418152V.680954L.4189911 .6829529C.37098695 .6659546 .33599855 .6559601 .27198792 .63894656V.6229553C.27999879 .62394717 .28599549 .62394717 .2939911 .62394717 .33099366 .62394717 .33999635 .61395266 .33999635 .5729523V.41696168C.3019867 .44895936 .2749939 .45996095 .23498535 .45996095 .11999512 .45996095 .026992798 .34701539 .026992798 .20510865 .026992798 .07720947 .101989749-.009765625 .21199036-.009765625 .2679901-.009765625 .30599977 .010223389 .33999635 .05722046V-.0067749025L.34399415-.009765625M.33999635 .10218811C.33999635 .095184329 .33299256 .08319092 .32299806 .07220459 .30499269 .052215578 .27999879 .04222107 .25099183 .04222107 .16799927 .04222107 .11299133 .122177127 .11299133 .24508667 .11299133 .3580017 .1619873 .4319458 .23799134 .4319458 .29100038 .4319458 .33999635 .3849945 .33999635 .33203126V.10218811Z"/>
<path id="font_19_172" d="M.46998597 .38775636V.4267578H.3929901C.37298585 .4267578 .35798646 .4298706 .33799745 .43695069L.31599427 .4449463C.2889862 .45495606 .2619934 .45996095 .23599243 .45996095 .14299011 .45996095 .068984989 .38775636 .068984989 .29678346 .068984989 .23379517 .09599304 .19581604 .1619873 .16282654 .14299011 .14482117 .125 .1278534 .11898804 .12286377 .085998538 .09391785 .07299805 .07394409 .07299805 .053985597 .07299805 .03302002 .084991458 .02104187 .12599182 .0010375977 .054992677-.05101013 .027999878-.08406067 .027999878-.12109375 .027999878-.1741333 .10598755-.21813965 .20098877-.21813965 .27598573-.21813965 .35398866-.19213867 .4059906-.15013123 .44400025-.11909485 .46099855-.08705139 .46099855-.04901123 .46099855 .013046265 .4139862 .054977418 .33999635 .05796814L.21099854 .063964847C.1579895 .065963748 .1329956 .07495117 .1329956 .090911868 .1329956 .11088562 .1659851 .14582825 .19299317 .15382385 .20199585 .15281677 .20899964 .15182495 .21199036 .15182495 .23098755 .14982605 .24398804 .14881897 .25 .14881897 .2869873 .14881897 .32699586 .16381836 .35798646 .19081116 .3909912 .21881104 .4059906 .25379945 .4059906 .30377198 .4059906 .33276368 .40098573 .35575868 .3869934 .38775636H.46998597M.14698792-.001953125C.17999268-.008972168 .2599945-.014968872 .30899049-.014968872 .3999939-.014968872 .43299867-.02798462 .43299867-.06402588 .43299867-.12210083 .35699464-.16113281 .24398804-.16113281 .1559906-.16113281 .09799194-.1321106 .09799194-.08805847 .09799194-.06503296 .10499573-.052017213 .14698792-.001953125M.1519928 .33776856C.1519928 .39674378 .17999268 .4319458 .22599793 .4319458 .25698854 .4319458 .2829895 .41474916 .29899598 .38475038 .31698609 .34976197 .32899476 .30377198 .32899476 .26478578 .32899476 .20881653 .2999878 .17382813 .2539978 .17382813 .19400025 .17382813 .1519928 .23880005 .1519928 .33476258V.33776856Z"/>
<path id="font_19_170" d="M.4079895 .16427613C.3600006 .08824158 .31698609 .05921936 .25299073 .05921936 .19599915 .05921936 .15299988 .08824158 .12399292 .14526367 .10598755 .18328858 .09899902 .2163086 .09700012 .27734376H.40499879C.39698792 .34222413 .3869934 .37112428 .3619995 .40301515 .33198548 .43894959 .28599549 .45996095 .23399353 .45996095 .18399048 .45996095 .13699341 .44195558 .09899902 .40800477 .051986696 .36714173 .024993897 .29634095 .024993897 .21430969 .024993897 .07623291 .09700012-.009765625 .21199036-.009765625 .30699159-.009765625 .38198854 .049224855 .42399598 .15727234L.4079895 .16427613M.09899902 .30934144C.10998535 .3870697 .14399719 .4239502 .20498657 .4239502 .2659912 .4239502 .2899933 .39604188 .30299378 .30934144H.09899902Z"/>
<path id="font_19_185" d="M.25498963 .4501953H.1539917V.5661926C.1539917 .57618716 .15299988 .5791931 .14698792 .5791931 .13999939 .5701904 .13398743 .56118777 .1269989 .55119326 .08898926 .4961853 .04598999 .44818116 .02999878 .44418336 .018997193 .43719483 .0129852299 .43019105 .0129852299 .42518617 .0129852299 .42218019 .01399231 .42018128 .016998291 .41818238H.069992069V.11721802C.069992069 .033233644 .099990848-.009765625 .15899658-.009765625 .20799256-.009765625 .24598694 .014221191 .2789917 .066223148L.2659912 .07722473C.24499512 .052230836 .22799683 .04222107 .20599365 .04222107 .16899109 .04222107 .1539917 .069229129 .1539917 .1322174V.41818238H.25498963V.4501953Z"/>
<path id="font_7_68" d="M.7739868 .67807009C.7769928 .6900635 .7769928 .69207766 .7769928 .69407656 .7769928 .69506838 .776001 .7050781 .7649994 .7050781 .7589874 .7050781 .7559967 .70207217 .7489929 .69407656L.6879883 .6270294C.6839905 .62202456 .6799927 .61802676 .67900088 .61802676 .6779938 .61802676 .6769867 .61901858 .67099 .62602236 .6559906 .64604189 .61099246 .7050781 .5069885 .7050781 .27799989 .7050781 .050994874 .48291017 .050994874 .25473023 .050994874 .09159851 .16999817-.022460938 .33099366-.022460938 .43499757-.022460938 .5169983 .031555177 .55599978 .0665741 .6469879 .14764405 .6639862 .23571778 .6639862 .23971558 .6639862 .24372864 .6619873 .25073243 .6499939 .25073243 .6389923 .25073243 .6369934 .24472046 .6359863 .24072266 .58699038 .079589847 .44400025 .008529663 .34399415 .008529663 .24699402 .008529663 .14399719 .06758118 .14399719 .21870423 .14399719 .2637329 .15899658 .42185975 .2599945 .54496768 .31999208 .61701968 .41799928 .67407229 .5139923 .67407229 .625 .67407229 .6839905 .5890045 .6839905 .47891236 .6839905 .44488526 .68099978 .43788148 .68099978 .4298706 .68099978 .41886903 .69299319 .41886903 .69599917 .41886903 .70899966 .41886903 .70899966 .42086793 .71398928 .43988038L.7739868 .67807009Z"/>
<clipPath id="clip_25">
<path transform="matrix(1,0,0,-1,0,90.82416)" d="M169.8571 4.953878H256.71913V64.58089H169.8571Z"/>
</clipPath>
<clipPath id="clip_26">
<path transform="matrix(1,0,0,-1,0,90.82416)" d="M172.02866 4.953878H189.40106V6.135447H172.02866Z"/>
</clipPath>
<clipPath id="clip_27">
<path transform="matrix(1,0,0,-1,0,90.82416)" d="M169.8571 4.953878H256.71913V64.58089H169.8571Z"/>
</clipPath>
<clipPath id="clip_28">
<path transform="matrix(1,0,0,-1,0,90.82416)" d="M193.74416 4.953878H211.11656V9.051446H193.74416Z"/>
</clipPath>
<clipPath id="clip_29">
<path transform="matrix(1,0,0,-1,0,90.82416)" d="M169.8571 4.953878H256.71913V64.58089H169.8571Z"/>
</clipPath>
<clipPath id="clip_30">
<path transform="matrix(1,0,0,-1,0,90.82416)" d="M215.45967 4.953878H232.83208V11.390995H215.45967Z"/>
</clipPath>
<clipPath id="clip_31">
<path transform="matrix(1,0,0,-1,0,90.82416)" d="M169.8571 4.953878H256.71913V64.58089H169.8571Z"/>
</clipPath>
<clipPath id="clip_32">
<path transform="matrix(1,0,0,-1,0,90.82416)" d="M237.17517 4.953878H254.54758V44.632246H237.17517Z"/>
</clipPath>
<clipPath id="clip_33">
<path transform="matrix(1,0,0,-1,0,90.82416)" d="M237.17517 4.953878H254.54758V44.632246H237.17517Z"/>
</clipPath>
<clipPath id="clip_34">
<path transform="matrix(1,0,0,-1,0,90.82416)" d="M169.8571 4.953878H256.71913V64.58089H169.8571Z"/>
</clipPath>
<clipPath id="clip_35">
<path transform="matrix(1,0,0,-1,0,90.82416)" d="M169.8571 4.953878H256.71913V64.58089H169.8571Z"/>
</clipPath>
<path id="font_19_208" d="M.44599916 .68470767C.33198548 .6746979 .27398683 .6557007 .20098877 .6047058 .09298706 .52770999 .033996583 .4136963 .033996583 .27960206 .033996583 .19250489 .06098938 .10441589 .10398865 .054367067 .14199829 .010314941 .19599915-.013671875 .2579956-.013671875 .38198854-.013671875 .46798707 .08139038 .46798707 .2195282 .46798707 .3476715 .394989 .42871095 .27999879 .42871095 .23599243 .42871095 .21499634 .42170716 .1519928 .3836975 .1789856 .5346985 .29100038 .6427002 .44799806 .6687012L.44599916 .68470767M.24198914 .3827057C.32798768 .3827057 .37799073 .31062318 .37799073 .1855011 .37799073 .07537842 .33898927 .014328003 .2689972 .014328003 .18099976 .014328003 .1269989 .1084137 .1269989 .26358033 .1269989 .31463624 .1349945 .34266664 .15499878 .35768128 .17599488 .373703 .20698548 .3827057 .24198914 .3827057Z"/>
<path id="font_19_222" d="M.125 .100250247C.09498596 .100250247 .069992069 .07424927 .069992069 .04324341 .069992069 .014251709 .09498596-.0107421879 .12399292-.0107421879 .15499878-.0107421879 .18099976 .014251709 .18099976 .04324341 .18099976 .07424927 .15499878 .100250247 .125 .100250247Z"/>
<path id="font_19_260" d="M.23399353 .25299073 .037994386 .055999757 .085998538 .0079956059 .28199769 .20498657 .47898866 .0079956059 .5269928 .055999757 .32998658 .25299073 .5269928 .44898988 .47898866 .49699403 .28199769 .2999878 .085998538 .49699403 .037994386 .44898988 .23399353 .25299073Z"/>
<path id="font_19_173" d="M.15699768 .34295655C.19898987 .38894654 .22898865 .40596009 .2679901 .40596009 .31799317 .40596009 .34298707 .36994935 .34298707 .29995729V.101989749C.34298707 .033996583 .33299256 .020996094 .2749939 .01499939V0H.4869995V.01499939C.43299867 .024993897 .4269867 .032989503 .4269867 .101989749V.30096437C.4269867 .40596009 .3849945 .45996095 .3039856 .45996095 .24499512 .45996095 .20298767 .43595887 .15699768 .3759613V.6799469L.1519928 .6829529C.117996219 .6709595 .09298706 .6629486 .036987306 .6469574L.009994507 .63894656V.6229553C.01399231 .62394717 .016998291 .62394717 .021987915 .62394717 .06498718 .62394717 .07299805 .61595156 .07299805 .5729523V.101989749C.07299805 .03199768 .066986087 .022994996 .008987427 .01499939V0H.22499085V.01499939C.16699219 .020996094 .15699768 .032989503 .15699768 .101989749V.34295655Z"/>
<path id="font_19_174" d="M.1749878 .45996095 .019989014 .40527345V.3902588L.027999878 .39126588C.039993287 .39326478 .052993776 .39427186 .06199646 .39427186 .085998538 .39427186 .09498596 .37826539 .09498596 .33422853V.10205078C.09498596 .02999878 .084991458 .018997193 .015991211 .01499939V0H.25299073V.01499939C.18699646 .019989014 .1789856 .02999878 .1789856 .10205078V.45695497L.1749878 .45996095M.12799073 .6826172C.100997928 .6826172 .07798767 .65960696 .07798767 .63160708 .07798767 .6036072 .099990848 .5806122 .12799073 .5806122 .15699768 .5806122 .17999268 .60261538 .17999268 .63160708 .17999268 .65960696 .15699768 .6826172 .12799073 .6826172Z"/>
<path id="font_19_183" d="M.0069885256 .3899536C.020996094 .3929596 .02999878 .39396668 .041992189 .39396668 .066986087 .39396668 .07598877 .3779602 .07598877 .33396913V.083984378C.07598877 .033996583 .068984989 .026992798 .004989624 .01499939V0H.24499512V.01499939C.1769867 .017990113 .1599884 .032989503 .1599884 .08998108V.31497193C.1599884 .3469696 .20298767 .3969574 .22999573 .3969574 .23599243 .3969574 .24499512 .3919525 .2559967 .381958 .27198792 .3679657 .2829895 .361969 .29599 .361969 .31999208 .361969 .33499146 .3789673 .33499146 .4069519 .33499146 .43995667 .31399537 .45996095 .27999879 .45996095 .23799134 .45996095 .20899964 .43695069 .1599884 .3659668V.45794679L.15499878 .45996095C.101989749 .43795777 .06599426 .42495729 .0069885256 .40596009V.3899536Z"/>
<path id="font_19_166" d="M.44198609 .066207889C.4249878 .052230836 .41299439 .047225954 .397995 .047225954 .375 .047225954 .36799623 .06121826 .36799623 .10517883V.30004884C.36799623 .35202027 .36299134 .3809967 .34799195 .40498353 .32598878 .4409485 .2829895 .45996095 .22399903 .45996095 .12998963 .45996095 .055999757 .41098023 .055999757 .34802247 .055999757 .32502748 .07598877 .3050537 .09899902 .3050537 .12298584 .3050537 .14399719 .32502748 .14399719 .34701539 .14399719 .35101319 .14299011 .35601808 .14199829 .3630066 .13999939 .37199403 .13899231 .37998963 .13899231 .3869934 .13899231 .41397096 .17098999 .43595887 .21099854 .43595887 .2599945 .43595887 .2869873 .40698243 .2869873 .35301209V.29205323C.1329956 .23010254 .115997318 .22210694 .07299805 .18412781 .050994874 .1641388 .036987306 .13017273 .036987306 .09719849 .036987306 .034225465 .08099365-.009765625 .14199829-.009765625 .18598938-.009765625 .22698975 .011230469 .28799439 .06323242 .29299928 .011230469 .31098939-.009765625 .35198976-.009765625 .38598634-.009765625 .40699769 .0022277833 .44198609 .040222169V.066207889M.2869873 .12322998C.2869873 .09222412 .28199769 .083221439 .26098634 .07122803 .23699951 .05722046 .20899964 .048233034 .18798828 .048233034 .15299988 .048233034 .125 .082229617 .125 .12522888V.12922669C.125 .18823242 .1659851 .2242279 .2869873 .26823426V.12322998Z"/>
<path id="font_19_179" d="M.015991211 .39794923C.021987915 .4009552 .03199768 .40194703 .042999269 .40194703 .070999149 .40194703 .07998657 .38694764 .07998657 .33796693V.08998108C.07998657 .032989503 .068984989 .018997193 .017990113 .01499939V0H.22999573V.01499939C.1789856 .018997193 .1639862 .0309906 .1639862 .066986087V.34796144C.21199036 .3929596 .23399353 .404953 .2669983 .404953 .31599427 .404953 .33999635 .3739624 .33999635 .30796815V.098983768C.33999635 .035995485 .32699586 .018997193 .2769928 .01499939V0H.4850006V.01499939C.43598939 .019989014 .42399598 .03199768 .42399598 .08097839V.30996705C.42399598 .40394593 .37998963 .45996095 .30599977 .45996095 .2599945 .45996095 .22898865 .4429474 .16099549 .37895204V.45794679L.1539917 .45996095C.10499573 .44195558 .070999149 .43095399 .015991211 .4149475V.39794923Z"/>
<path id="font_36_52" d="M.59599307 .51504519C.59498599 .6582031 .49699403 .74121096 .32899476 .74121096 .16899109 .74121096 .069992069 .65919497 .069992069 .52705386 .069992069 .43795777 .116989139 .38189698 .21299744 .35687257L.3939972 .30882264C.48599244 .2848053 .5279999 .24775696 .5279999 .19070435 .5279999 .1516571 .5069885 .11161804 .47599793 .08958435 .44699098 .06956482 .40098573 .058547975 .34199525 .058547975 .2630005 .058547975 .20899964 .07757568 .17399597 .11961365 .14698792 .1516571 .1349945 .18669129 .13598633 .23173523H.04798889C.04899597 .16467285 .06199646 .12062073 .09098816 .080581668 .14099121 .012557983 .22499085-.0234375 .33599855-.0234375 .4229889-.0234375 .49398805-.0034484864 .54100039 .032562257 .58999636 .07156372 .62098696 .13664246 .62098696 .19970703 .62098696 .28981019 .5649872 .35588075 .46598817 .38290406L.2829895 .43196107C.19499207 .4559784 .16299439 .4840088 .16299439 .5400696 .16299439 .614151 .22799683 .663208 .32598878 .663208 .44198609 .663208 .5069885 .6101532 .5079956 .51504519H.59599307Z"/>
<path id="font_36_49" d="M.18399048 .30862428H.41299439C.46998597 .30862428 .5149994 .32562257 .55400088 .36061097 .59799197 .4006195 .61698916 .44758607 .61698916 .5145569 .61698916 .6515045 .5359955 .7285156 .3919983 .7285156H.09098816V0H.18399048V.30862428M.18399048 .390625V.6465149H.37799073C.46699525 .6465149 .519989 .598526 .519989 .51856997 .519989 .43859864 .46699525 .390625 .37799073 .390625H.18399048Z"/>
<path id="font_36_74" d="M.1499939 .5235901H.066986087V0H.1499939V.5235901M.1499939 .7285156H.06599426V.62350466H.1499939V.7285156Z"/>
<path id="font_36_37" d="M.08898926 0H.36999513C.55400088 0 .6669922 .13793946 .6669922 .3647461 .6669922 .5905609 .5549927 .7285156 .36999513 .7285156H.08898926V0M.18199158 .08198547V.6465149H.35398866C.49798585 .6465149 .57398989 .54959109 .57398989 .36375428 .57398989 .17990113 .49798585 .08198547 .35398866 .08198547H.18199158Z"/>
<path id="font_36_51" d="M.18598938 .31350709H.42599488C.5089874 .31350709 .54599 .27355958 .54599 .18371582L.54499819 .11882019C.54499819 .073898319 .5529938 .029968262 .56599429 0H.67900088V.022994996C.6439972 .046951295 .6369934 .072906497 .6349945 .16973877 .6339874 .28953553 .61499026 .3255005 .5359955 .35949708 .6179962 .39950563 .651001 .4505005 .651001 .5335083 .651001 .6595154 .57199099 .7285156 .42900086 .7285156H.09298706V0H.18598938V.31350709M.18598938 .3955078V.6465149H.41099549C.46299745 .6465149 .49299623 .638504 .5159912 .61849978 .54100039 .59750369 .55400088 .5644989 .55400088 .5205078 .55400088 .43449403 .5099945 .3955078 .41099549 .3955078H.18598938Z"/>
<clipPath id="clip_37">
<path transform="matrix(1,0,0,-1,0,90.82416)" d="M304.60163 4.953878H391.46366V64.58089H304.60163Z"/>
</clipPath>
<clipPath id="clip_38">
<path transform="matrix(1,0,0,-1,0,90.82416)" d="M304.60163 4.953878H391.46366V64.58089H304.60163Z"/>
</clipPath>
<clipPath id="clip_39">
<path transform="matrix(1,0,0,-1,0,90.82416)" d="M304.60163 4.953878H391.46366V64.58089H304.60163Z"/>
</clipPath>
<clipPath id="clip_40">
<path transform="matrix(1,0,0,-1,0,90.82416)" d="M304.60163 4.953878H391.46366V64.58089H304.60163Z"/>
</clipPath>
<path id="font_19_205" d="M.15299988 .33003236C.21199036 .33003236 .23498535 .32803346 .25898744 .31904603 .32099916 .29707337 .3600006 .2401123 .3600006 .17118836 .3600006 .087265018 .30299378 .022323609 .22898865 .022323609 .20199585 .022323609 .18199158 .029312134 .14498902 .05329895 .114990238 .0712738 .09799194 .07826233 .08099365 .07826233 .057998659 .07826233 .042999269 .06428528 .042999269 .043304445 .042999269 .00831604 .085998538-.013671875 .1559906-.013671875 .23298645-.013671875 .31199647 .012313843 .35899354 .05329895 .4059906 .09425354 .43199159 .15220642 .43199159 .21913147 .43199159 .27009584 .41600038 .31704713 .3869934 .34802247 .36698915 .36999513 .34799195 .38198854 .3039856 .40097047 .37298585 .44792176 .397995 .4848938 .397995 .5388489 .397995 .61976626 .33399964 .67578127 .24198914 .67578127 .19198609 .67578127 .147995 .6587677 .11199951 .62677 .08198547 .5997925 .066986087 .57380679 .04499817 .51387026L.05999756 .50987246C.100997928 .58280947 .1459961 .61576846 .20899964 .61576846 .27398683 .61576846 .31900025 .57180789 .31900025 .50886538 .31900025 .4729004 .3039856 .43693543 .2789917 .4119568 .24899292 .38198854 .22099304 .3670044 .15299988 .34301759V.33003236Z"/>
<clipPath id="clip_41">
<path transform="matrix(1,0,0,-1,0,90.82416)" d="M304.60163 4.953878H391.46366V64.58089H304.60163Z"/>
</clipPath>
<clipPath id="clip_42">
<path transform="matrix(1,0,0,-1,0,90.82416)" d="M304.60163 4.953878H391.46366V64.58089H304.60163Z"/>
</clipPath>
<clipPath id="clip_43">
<path transform="matrix(1,0,0,-1,0,90.82416)" d="M306.77317 4.953878H324.14558V5.066501H306.77317Z"/>
</clipPath>
<clipPath id="clip_44">
<path transform="matrix(1,0,0,-1,0,90.82416)" d="M304.60163 4.953878H391.46366V64.58089H304.60163Z"/>
</clipPath>
<clipPath id="clip_45">
<path transform="matrix(1,0,0,-1,0,90.82416)" d="M328.48869 4.953878H345.86109V7.449865H328.48869Z"/>
</clipPath>
<clipPath id="clip_46">
<path transform="matrix(1,0,0,-1,0,90.82416)" d="M304.60163 4.953878H391.46366V64.58089H304.60163Z"/>
</clipPath>
<clipPath id="clip_47">
<path transform="matrix(1,0,0,-1,0,90.82416)" d="M350.2042 4.953878H367.5766V6.477518H350.2042Z"/>
</clipPath>
<clipPath id="clip_48">
<path transform="matrix(1,0,0,-1,0,90.82416)" d="M304.60163 4.953878H391.46366V64.58089H304.60163Z"/>
</clipPath>
<clipPath id="clip_49">
<path transform="matrix(1,0,0,-1,0,90.82416)" d="M371.9197 4.953878H389.2921V44.748949H371.9197Z"/>
</clipPath>
<clipPath id="clip_50">
<path transform="matrix(1,0,0,-1,0,90.82416)" d="M371.9197 4.953878H389.2921V44.748949H371.9197Z"/>
</clipPath>
<clipPath id="clip_51">
<path transform="matrix(1,0,0,-1,0,90.82416)" d="M304.60163 4.953878H391.46366V64.58089H304.60163Z"/>
</clipPath>
<clipPath id="clip_52">
<path transform="matrix(1,0,0,-1,0,90.82416)" d="M304.60163 4.953878H391.46366V64.58089H304.60163Z"/>
</clipPath>
<path id="font_19_153" d="M.61099246 .515152C.61099246 .6171112 .6230011 .6331024 .7049866 .6430969V.6621094H.47299195V.6430969C.5509949 .6371002 .5669861 .6151123 .5669861 .515152V.24523926C.5669861 .17726135 .55999758 .13928223 .5439911 .109298709 .5169983 .061309816 .45298768 .030319214 .37799073 .030319214 .30699159 .030319214 .2579956 .05430603 .23098755 .10128784 .21299744 .13328552 .20599365 .17027283 .20599365 .23324585V.5531311C.20599365 .6251068 .21699524 .6361084 .29699708 .6430969V.6621094H.01399231V.6430969C.09298706 .6371002 .10398865 .6261139 .10398865 .5531311V.24124146C.10398865 .0683136 .18499756-.013671875 .35499574-.013671875 .46398927-.013671875 .5389862 .021316529 .5779877 .08929443 .60198977 .13128662 .61099246 .17726135 .61099246 .25424195V.515152Z"/>
<path id="font_19_139" d="M.70899966 .35403443H.45399476V.3360443C.49699403 .3330536 .5089874 .3300476 .5209961 .322052 .5359955 .31306459 .5419922 .29008485 .5419922 .24711609V.08526611C.5419922 .05329895 .48098756 .026321412 .40899659 .026321412 .24598694 .026321412 .1459961 .14021302 .1459961 .3260498 .1459961 .41996766 .17399597 .5108948 .21798706 .559845 .2619934 .60879519 .32398988 .6357727 .3919983 .6357727 .44799806 .6357727 .49699403 .6167908 .5359955 .5808258 .56599429 .55285647 .58200076 .5258789 .6069946 .4649353H.6299896L.621994 .67578127H.59999087C.59399417 .6567688 .57598879 .6427765 .5549927 .6427765 .54499819 .6427765 .5289917 .6457672 .5109863 .652771 .46598817 .6677704 .41999818 .67578127 .375 .67578127 .1749878 .67578127 .03199768 .5288696 .03199768 .32505799 .03199768 .22714234 .05899048 .15220642 .114990238 .09326172 .18199158 .02432251 .27799989-.013671875 .3880005-.013671875 .47399903-.013671875 .598999 .021316529 .6389923 .056289674V.2591095C.6389923 .3180542 .651001 .3310547 .70899966 .3360443V.35403443Z"/>
<path id="font_19_180" d="M.25 .45996095C.11999512 .45996095 .0289917 .3639984 .0289917 .22608948 .0289917 .09118652 .12199402-.009765625 .24798584-.009765625 .37399293-.009765625 .46998597 .09617615 .46998597 .23408509 .46998597 .3650055 .37799073 .45996095 .25 .45996095M.23699951 .4319458C.32099916 .4319458 .37998963 .3360138 .37998963 .19911194 .37998963 .08618164 .33499146 .018234253 .2599945 .018234253 .22099304 .018234253 .18399048 .04220581 .16299439 .08218384 .1349945 .13415528 .11898804 .20410156 .11898804 .27505494 .11898804 .36999513 .1659851 .4319458 .23699951 .4319458Z"/>
<path id="font_19_150" d="M.6589966 .018997193C.62098696 .021987915 .6009979 .03199768 .57199099 .06599426L.3659973 .31904603C.43299867 .3320465 .46299745 .34405519 .49598695 .37106324 .5279999 .3970642 .5469971 .43907167 .5469971 .48608399 .5469971 .52908328 .5339966 .5660858 .5079956 .5950928 .46998597 .6361084 .3869934 .6621094 .29299928 .6621094H.016998291V.6430969C.09199524 .6351013 .101989749 .62409976 .101989749 .5530853V.120010379C.101989749 .037002565 .09199524 .024993897 .016998291 .018997193V0H.2939911V.018997193C.21699524 .023986817 .20399475 .037002565 .20399475 .10900879V.30604554L.2599945 .30804444 .49798585 0H.6589966V.018997193M.20399475 .58909609C.20399475 .61709597 .21499634 .6251068 .25498963 .6251068 .37998963 .6251068 .43798829 .58210757 .43798829 .48809815 .43798829 .4380951 .4169922 .3961029 .3809967 .3771057 .33499146 .35110475 .2999878 .34510804 .20399475 .34309388V.58909609Z"/>
<path id="font_19_168" d="M.397995 .15615845C.34999085 .08621216 .31399537 .06222534 .25698854 .06222534 .1659851 .06222534 .101989749 .14216614 .101989749 .25708009 .101989749 .3600006 .15699768 .43095399 .23799134 .43095399 .27398683 .43095399 .2869873 .41996766 .29699708 .3829956L.30299378 .3610077C.31098939 .33302308 .32899476 .31503297 .34999085 .31503297 .37599183 .31503297 .397995 .33403016 .397995 .3570099 .397995 .41296388 .32798768 .45996095 .24398804 .45996095 .19499207 .45996095 .14399719 .43995667 .102996829 .40397645 .052993776 .3600006 .024993897 .29205323 .024993897 .2131195 .024993897 .08320618 .10398865-.009765625 .21499634-.009765625 .2599945-.009765625 .2999878 .006225586 .33599855 .037231447 .36299134 .06123352 .38198854 .08821106 .4119873 .14717102L.397995 .15615845Z"/>
<path id="font_19_135" d="M.6199951 .4499359 .61099246 .67578127H.58999636C.58399966 .6547699 .56799319 .6427765 .5479889 .6427765 .5389862 .6427765 .5239868 .6457672 .5089874 .6517792 .45999146 .6677704 .4099884 .67578127 .36299134 .67578127 .2809906 .67578127 .19799805 .6447754 .13598633 .58981326 .06599426 .52786257 .027999878 .43495179 .027999878 .32505799 .027999878 .23213196 .057998659 .14620972 .10899353 .089263919 .16899109 .02432251 .26098634-.013671875 .3600006-.013671875 .47299195-.013671875 .57199099 .032318117 .6329956 .11325073L.61499026 .13122559C.54100039 .060287477 .47499085 .030319214 .3919983 .030319214 .32899476 .030319214 .272995 .050308229 .22999573 .088272098 .1749878 .13722229 .14399719 .22714234 .14399719 .3380432 .14399719 .5188751 .23699951 .6357727 .38198854 .6357727 .43899537 .6357727 .4909973 .61479189 .5309906 .5748291 .5629883 .54286196 .5779877 .5148773 .5970001 .4499359H.6199951Z"/>
<path id="font_53_151" d="M.6069946 .5070648C.6069946 .57414248 .59199526 .6181946 .55599978 .6582031 .5069885 .712204 .42599488 .74121096 .32099916 .74121096 .1459961 .74121096 .04499817 .6592102 .04499817 .5170746 .04499817 .40393067 .101989749 .3488617 .25 .3208313L.35198976 .30081178C.45199586 .28178407 .4889984 .25375367 .4889984 .19467163 .4889984 .13360596 .43299867 .09655762 .34199525 .09655762 .23999024 .09655762 .18299866 .13960266 .17799378 .2177124H.03199768C.040985109 .061553956 .147995-.0234375 .33399964-.0234375 .5219879-.0234375 .6329956 .06455994 .6329956 .21269226 .6329956 .32783509 .57499697 .38790895 .43998719 .41394044L.32598878 .43597413C.21899414 .45700074 .18798828 .47802735 .18798828 .5310974 .18798828 .5861664 .23699951 .62120059 .31399537 .62120059 .40899659 .62120059 .46199037 .5811615 .46699525 .5070648H.6069946Z"/>
<path id="font_53_148" d="M.22599793 .25975038H.41299439C.5469971 .25975038 .6329956 .3547516 .6329956 .5026245 .6329956 .6485138 .5499878 .7285156 .397995 .7285156H.07598877V0H.22599793V.25975038M.22599793 .38476563V.60350039H.3659973C.44599916 .60350039 .48298646 .5685425 .48298646 .49363709 .48298646 .4197235 .44599916 .38476563 .3659973 .38476563H.22599793Z"/>
<path id="font_53_174" d="M.20698548 .53956606H.066986087V0H.20698548V.53956606M.20698548 .7285156H.066986087V.60350039H.20698548V.7285156Z"/>
<path id="font_53_136" d="M.07699585 0H.3619995C.47299195 0 .54299929 .025985718 .59199526 .084991458 .6499939 .15296936 .68099978 .25186158 .68099978 .3647461 .68099978 .4766388 .6499939 .575531 .59199526 .64450076 .54299929 .70350649 .47399903 .7285156 .3619995 .7285156H.07699585V0M.22698975 .125V.60350039H.3619995C.47499085 .60350039 .5309906 .5245819 .5309906 .36375428 .5309906 .20391846 .47499085 .125 .3619995 .125H.22698975Z"/>
<path id="font_53_150" d="M.22999573 .28904725H.4019928C.46699525 .28904725 .49499513 .26304627 .49499513 .20202637 .49499513 .19602967 .49499513 .18603516 .49398805 .17301941 .49299623 .15402222 .49299623 .13601685 .49299623 .12501526 .49299623 .057006837 .49699403 .034988405 .5159912 0H.6769867V.026992798C.6539917 .039993287 .644989 .055007936 .644989 .087005618 .6409912 .30204774 .6369934 .3120575 .5439911 .35205079 .6259918 .38404847 .6669922 .4429779 .6669922 .531723 .6669922 .58955386 .6469879 .64250186 .6119995 .6785126 .57899478 .71250918 .5329895 .7285156 .47099305 .7285156H.07998657V0H.22999573V.28904725M.22999573 .4140625V.60350039H.41099549C.45399476 .60350039 .47200013 .5995178 .48999024 .5845642 .5079956 .5696106 .5169983 .54467776 .5169983 .5107727 .5169983 .47587586 .5069885 .44795228 .48999024 .43299867 .47399903 .41903688 .45399476 .4140625 .41099549 .4140625H.22999573Z"/>
<path id="font_19_244" d="M.29499818 .67578127C.22099304 .6277771 .19099427 .6017761 .1539917 .5557709 .08299255 .46878053 .04798889 .3687744 .04798889 .25177003 .04798889 .12477112 .084991458 .026779175 .17298889-.07522583 .21398926-.12322998 .23999024-.14523316 .2919922-.17723084L.3039856-.16122437C.22399903-.098220828 .19599915-.06323242 .16899109 .011779785 .14498902 .07876587 .13398743 .1547699 .13398743 .254776 .13398743 .35977174 .14698792 .44177247 .17399597 .5037689 .20199585 .56578066 .23199463 .6017761 .3039856 .6597748L.29499818 .67578127Z"/>
<path id="font_19_184" d="M.31498719 .31419374 .31098939 .4501953H.2999878L.2979889 .44818116C.2889862 .44119264 .28799439 .44018556 .28399659 .44018556 .27799989 .44018556 .2679901 .44218446 .25698854 .44718934 .23498535 .4549713 .21299744 .45898438 .18699646 .45898438 .10798645 .45898438 .050994874 .4079895 .050994874 .33602906 .050994874 .28007508 .08299255 .24009705 .16799927 .19212342L.22599793 .15913391C.26098634 .1391449 .27799989 .11515808 .27799989 .08418274 .27799989 .04020691 .24598694 .01222229 .19499207 .01222229 .16099549 .01222229 .12998963 .025222779 .11099243 .047210695 .08999634 .07218933 .08099365 .095184329 .067993167 .15214539H.051986696V-.003768921H.06498718C.07199097 .006225586 .07598877 .008224487 .08799744 .008224487 .09700012 .0079956059 .11099243 .005996704 .13398743 0 .1619873-.0057678224 .18899536-.009765625 .20698548-.009765625 .28399659-.009765625 .34799195 .048202516 .34799195 .11816406 .34799195 .1681366 .32398988 .20111084 .2639923 .23709107L.1559906 .3010559C.12799073 .31704713 .11299133 .34202577 .11299133 .36901856 .11299133 .40899659 .14399719 .4369812 .18998719 .4369812 .24699402 .4369812 .2769928 .40299989 .2999878 .31404115L.31498719 .31419374Z"/>
<path id="font_19_178" d="M.018997193 .39794923C.03199768 .4009552 .039993287 .40194703 .050994874 .40194703 .07699585 .40194703 .085998538 .3859558 .085998538 .33796693V.084991458C.085998538 .0309906 .07199097 .015991211 .015991211 .01499939V0H.23799134V.01499939C.18499756 .016998291 .16999817 .02798462 .16999817 .066986087V.34895326C.16999817 .35095216 .17799378 .3609619 .18499756 .36795045 .20999146 .3909607 .25299073 .40795899 .28799439 .40795899 .33198548 .40795899 .35398866 .37295533 .35398866 .30296327V.08598328C.35398866 .02998352 .34298707 .018997193 .28599549 .01499939V0H.5099945V.01499939C.45298768 .015991211 .43798829 .032989503 .43798829 .09498596V.34695436C.46798707 .3899536 .5009918 .40795899 .5469971 .40795899 .60398867 .40795899 .621994 .38095094 .621994 .29795838V.08699036C.621994 .02998352 .6139984 .021987915 .55599978 .01499939V0H.7749939V.01499939L.7489929 .016998291C.71899417 .018997193 .70599368 .036987306 .70599368 .07598877V.28196717C.70599368 .39994813 .6669922 .45996095 .58999636 .45996095 .5319977 .45996095 .48098756 .43395997 .4269867 .3759613 .40899659 .43295289 .375 .45996095 .32099916 .45996095 .2769928 .45996095 .24899292 .44595338 .1659851 .38294984V.45794679L.15899658 .45996095C.10798645 .4409485 .07398987 .4299469 .018997193 .4149475V.39794923Z"/>
<path id="font_19_241" d="M.038986207 .25683595V.1938324H.2849884V.25683595H.038986207Z"/>
<path id="font_19_245" d="M.037994386-.17723084C.11199951-.12922669 .14199829-.10322571 .1789856-.05722046 .25 .029769898 .2849884 .129776 .2849884 .24676514 .2849884 .37477113 .24798584 .47177125 .1599884 .57377627 .11898804 .6217804 .09298706 .6437683 .040985109 .67578127L.0289917 .6597748C.10899353 .59677127 .13598633 .5617676 .1639862 .48677064 .18798828 .4197693 .19898987 .34378053 .19898987 .24377442 .19898987 .13977051 .18598938 .056777955 .15899658-.0042266848 .1309967-.067230228 .100997928-.10322571 .0289917-.16122437L.037994386-.17723084Z"/>
<path id="font_36_80" d="M.27198792 .5390625C.125 .5390625 .035995485 .434021 .035995485 .25779725 .035995485 .081588748 .12399292-.0234375 .272995-.0234375 .41999818-.0234375 .5099945 .081588748 .5099945 .25379945 .5099945 .43502809 .4229889 .5390625 .27198792 .5390625M.272995 .4620514C.36698915 .4620514 .4229889 .384964 .4229889 .25480653 .4229889 .13165283 .36499024 .05355835 .272995 .05355835 .17999268 .05355835 .12298584 .13064575 .12298584 .25779725 .12298584 .3839569 .17999268 .4620514 .272995 .4620514Z"/>
<path id="font_36_78" d="M.069992069 .52441409V0H.1539917V.32925416C.1539917 .40504457 .20899964 .4660492 .2769928 .4660492 .33898927 .4660492 .37399293 .4280548 .37399293 .3610382V0H.45799256V.32904054C.45799256 .40504457 .5130005 .4660492 .58099368 .4660492 .6419983 .4660492 .6779938 .42704774 .6779938 .3610382V0H.7619934V.3930359C.7619934 .48706056 .70799258 .5390625 .6100006 .5390625 .5399933 .5390625 .49798585 .51805117 .44898988 .4590454 .41799928 .5150604 .37599183 .5390625 .30799867 .5390625 .23799134 .5390625 .19198609 .5130615 .14698792 .45005799V.52441409H.069992069Z"/>
<path id="font_36_66" d="M.5349884 .048553468C.526001 .046554567 .5219879 .046554567 .5169983 .046554567 .48799134 .046554567 .47200013 .061569215 .47200013 .08760071V.39598084C.47200013 .48905946 .4039917 .5390625 .2749939 .5390625 .19898987 .5390625 .13598633 .5170593 .100997928 .47805787 .07699585 .45103456 .066986087 .42100526 .06498718 .36894227H.14898682C.1559906 .43301393 .19400025 .4620514 .27198792 .4620514 .34700013 .4620514 .3889923 .434021 .3889923 .3839569V.36193849C.3889923 .32688905 .36799623 .3118744 .3019867 .30386354 .18399048 .28884889 .1659851 .28483583 .13398743 .27182008 .07299805 .24679566 .041992189 .19973755 .041992189 .13165283 .041992189 .03656006 .10798645-.0234375 .21398926-.0234375 .27999879-.0234375 .33299256-.00044250489 .3919983 .05355835 .397995 .0005493164 .42399598-.0234375 .47799684-.0234375 .49499513-.0234375 .5079956-.021438599 .5349884-.014450073V.048553468M.3889923 .16468811C.3889923 .13665772 .3809967 .119644168 .35598756 .09661865 .32199098 .06556702 .2809906 .049560548 .23199463 .049560548 .16699219 .049560548 .1289978 .080596927 .1289978 .13365174 .1289978 .1887207 .1659851 .2167511 .25498963 .22976685 .34298707 .24179077 .36099244 .24578858 .3889923 .25880433V.16468811Z"/>
<path id="font_36_79" d="M.069992069 .52441409V0H.1539917V.2892151C.1539917 .39604188 .20999146 .4660492 .29599 .4660492 .3619995 .4660492 .4039917 .42604066 .4039917 .3630371V0H.4869995V.39604188C.4869995 .4830475 .42199708 .5390625 .32099916 .5390625 .24299622 .5390625 .19299317 .50904849 .14698792 .43605042V.52441409H.069992069Z"/>
<path id="font_36_69" d="M.49499513 .7285156H.4119873V.4580536C.3769989 .51104739 .32099916 .5390625 .25099183 .5390625 .114990238 .5390625 .025985718 .43000794 .025985718 .26280213 .025985718 .08558655 .11299133-.0234375 .2539978-.0234375 .32598878-.0234375 .37599183 .0035552979 .42099 .068573V-.00044250489H.49499513V.7285156M.2649994 .46105958C.35499574 .46105958 .4119873 .38095094 .4119873 .25579835 .4119873 .13465882 .35398866 .05455017 .2659912 .05455017 .17399597 .05455017 .11299133 .13565064 .11299133 .25779725 .11299133 .3799591 .17399597 .46105958 .2649994 .46105958Z"/>
<path id="font_36_91" d="M.44299317 .52441409H.051986696V.45140077H.34399415L.0309906 .07499695V0H.45700074V.07299805H.13198853L.44299317 .45040895V.52441409Z"/>
<path id="font_36_85" d="M.2539978 .52441409H.16799927V.66841128H.084991458V.52441409H.01399231V.45640565H.084991458V.059570314C.084991458 .0065612795 .12098694-.0234375 .18598938-.0234375 .20599365-.0234375 .22599793-.021438599 .2539978-.016448975V.05355835C.24299622 .05055237 .22999573 .049560548 .21398926 .049560548 .17799378 .049560548 .16799927 .059570314 .16799927 .09664917V.45640565H.2539978V.52441409Z"/>
<path id="font_19_177" d="M.018997193 .6230011H.024993897C.035995485 .6239929 .04798889 .625 .055999757 .625 .08799744 .625 .09799194 .61099246 .09799194 .56399539V.08699036C.09799194 .032989503 .083999637 .019989014 .020996094 .01499939V0H.25698854V.01499939C.19400025 .018997193 .18199158 .0289917 .18199158 .083999637V.68099978L.17799378 .68299868C.12599182 .66600039 .08799744 .6559906 .018997193 .6389923V.6230011Z"/>
</defs>
<path transform="matrix(1,0,0,-1,0,90.82416)" d="M0 0H392.9278V90.82416H0Z" fill="#ffffff"/>
<path transform="matrix(1,0,0,-1,0,90.82416)" d="M35.112585 4.953878H121.97461V64.58089H35.112585Z" fill="#ffffff"/>
<g clip-path="url(#clip_1)">
<path transform="matrix(1,0,0,-1,0,90.82416)" stroke-width=".5" stroke-linecap="square" stroke-linejoin="round" fill="none" stroke="#dcdcdc" d="M35.112585 4.953878H121.97461"/>
</g>
<path transform="matrix(1,0,0,-1,0,90.82416)" d="M35.112585 4.953878H31.612584"/>
<path transform="matrix(1,0,0,-1,0,90.82416)" stroke-width=".8" stroke-linecap="butt" stroke-linejoin="round" fill="none" stroke="#000000" d="M35.112585 4.953878H31.612584"/>
<use data-text="0" xlink:href="#font_2_50" transform="matrix(6.973848,0,0,-6.973848,24.141346,88.234378)"/>
<g clip-path="url(#clip_3)">
<path transform="matrix(1,0,0,-1,0,90.82416)" stroke-width=".5" stroke-linecap="square" stroke-linejoin="round" fill="none" stroke="#dcdcdc" d="M35.112585 21.027468H121.97461"/>
</g>
<path transform="matrix(1,0,0,-1,0,90.82416)" d="M35.112585 21.027468H31.612584"/>
<path transform="matrix(1,0,0,-1,0,90.82416)" stroke-width=".8" stroke-linecap="butt" stroke-linejoin="round" fill="none" stroke="#000000" d="M35.112585 21.027468H31.612584"/>
<use data-text="5" xlink:href="#font_2_55" transform="matrix(6.973848,0,0,-6.973848,20.170109,72.16079)"/>
<use data-text="0" xlink:href="#font_2_50" transform="matrix(6.973848,0,0,-6.973848,24.138228,72.16079)"/>
<g clip-path="url(#clip_4)">
<path transform="matrix(1,0,0,-1,0,90.82416)" stroke-width=".5" stroke-linecap="square" stroke-linejoin="round" fill="none" stroke="#dcdcdc" d="M35.112585 37.10106H121.97461"/>
</g>
<path transform="matrix(1,0,0,-1,0,90.82416)" d="M35.112585 37.10106H31.612584"/>
<path transform="matrix(1,0,0,-1,0,90.82416)" stroke-width=".8" stroke-linecap="butt" stroke-linejoin="round" fill="none" stroke="#000000" d="M35.112585 37.10106H31.612584"/>
<use data-text="1" xlink:href="#font_2_51" transform="matrix(6.973848,0,0,-6.973848,16.19887,56.087198)"/>
<use data-text="0" xlink:href="#font_2_50" transform="matrix(6.973848,0,0,-6.973848,20.166989,56.087198)"/>
<use data-text="0" xlink:href="#font_2_50" transform="matrix(6.973848,0,0,-6.973848,24.135107,56.087198)"/>
<g clip-path="url(#clip_5)">
<path transform="matrix(1,0,0,-1,0,90.82416)" stroke-width=".5" stroke-linecap="square" stroke-linejoin="round" fill="none" stroke="#dcdcdc" d="M35.112585 53.17465H121.97461"/>
</g>
<path transform="matrix(1,0,0,-1,0,90.82416)" d="M35.112585 53.17465H31.612584"/>
<path transform="matrix(1,0,0,-1,0,90.82416)" stroke-width=".8" stroke-linecap="butt" stroke-linejoin="round" fill="none" stroke="#000000" d="M35.112585 53.17465H31.612584"/>
<use data-text="1" xlink:href="#font_2_51" transform="matrix(6.973848,0,0,-6.973848,16.19887,40.013608)"/>
<use data-text="5" xlink:href="#font_2_55" transform="matrix(6.973848,0,0,-6.973848,20.166989,40.013608)"/>
<use data-text="0" xlink:href="#font_2_50" transform="matrix(6.973848,0,0,-6.973848,24.135107,40.013608)"/>
<use data-text="&#x02c6;" xlink:href="#font_6_96" transform="matrix(0,-8.966376,-8.966376,-0,7.690782,63.20646)"/>
<use data-text="J" xlink:href="#font_7_75" transform="matrix(0,-8.966376,-8.966376,-0,9.957276,65.40447)"/>
<use data-text="(" xlink:href="#font_6_41" transform="matrix(0,-8.966376,-8.966376,-0,9.957276,59.47257)"/>
<use data-text="&#x02dc;" xlink:href="#font_6_128" transform="matrix(0,-8.966376,-8.966376,-0,9.957276,55.400838)"/>
<use data-text="&#x03c0;" xlink:href="#font_7_26" transform="matrix(0,-8.966376,-8.966376,-0,9.957276,55.88881)"/>
<use data-text=")" xlink:href="#font_6_42" transform="matrix(0,-8.966376,-8.966376,-0,9.957276,50.292837)"/>
<g clip-path="url(#clip_8)">
<g clip-path="url(#clip_9)">
<path transform="matrix(1,0,0,-1,0,90.82416)" d="M37.284135 4.953878H54.65654V57.080533H37.284135Z" fill="#5f4690" fill-opacity=".7"/>
<path transform="matrix(1,0,0,-1,0,90.82416)" stroke-width="2" stroke-linecap="butt" stroke-miterlimit="10" stroke-linejoin="miter" fill="none" stroke="#5f4690" d="M37.284135 4.953878H54.65654V57.080533H37.284135Z"/>
</g>
</g>
<g clip-path="url(#clip_10)">
<g clip-path="url(#clip_11)">
<path transform="matrix(1,0,0,-1,0,90.82416)" d="M58.99964 4.953878H76.37205V60.595827H58.99964Z" fill="#1d6996" fill-opacity=".7"/>
<path transform="matrix(1,0,0,-1,0,90.82416)" stroke-width="2" stroke-linecap="butt" stroke-miterlimit="10" stroke-linejoin="miter" fill="none" stroke="#1d6996" d="M58.99964 4.953878H76.37205V60.595827H58.99964Z"/>
</g>
</g>
<g clip-path="url(#clip_12)">
<g clip-path="url(#clip_13)">
<path transform="matrix(1,0,0,-1,0,90.82416)" d="M80.71515 4.953878H98.087558V25.087542H80.71515Z" fill="#38a6a5" fill-opacity=".7"/>
<path transform="matrix(1,0,0,-1,0,90.82416)" stroke-width="2" stroke-linecap="butt" stroke-miterlimit="10" stroke-linejoin="miter" fill="none" stroke="#38a6a5" d="M80.71515 4.953878H98.087558V25.087542H80.71515Z"/>
</g>
</g>
<g clip-path="url(#clip_14)">
<g clip-path="url(#clip_15)">
<g opacity=".7">
<g clip-path="url(#clip_16)">
<path transform="matrix(1,0,0,-1,72,144)" d="M0 0H72V72H0Z" fill="#0f8554"/>
<path transform="matrix(1,0,0,-1,72,144)" d="M-36 36 36-36M-30 42 42-30M-24 48 48-24M-18 54 54-18M-12 60 60-12M-6 66 66-6M0 72 72 0M6 78 78 6M12 84 84 12M18 90 90 18M24 96 96 24M30 102 102 30M36 108 108 36" fill="#0f8554"/>
<path transform="matrix(1,0,0,-1,72,144)" stroke-width="1" stroke-linecap="butt" stroke-miterlimit="10" stroke-linejoin="miter" fill="none" stroke="#0f8554" d="M-36 36 36-36M-30 42 42-30M-24 48 48-24M-18 54 54-18M-12 60 60-12M-6 66 66-6M0 72 72 0M6 78 78 6M12 84 84 12M18 90 90 18M24 96 96 24M30 102 102 30M36 108 108 36"/>
</g>
</g>
<path transform="matrix(1,0,0,-1,0,90.82416)" stroke-width="2" stroke-linecap="butt" stroke-miterlimit="10" stroke-linejoin="miter" fill="none" stroke="#0f8554" d="M102.43066 4.953878H119.80306V11.114422H102.43066Z"/>
</g>
</g>
<g clip-path="url(#clip_17)">
<path transform="matrix(1,0,0,-1,0,90.82416)" stroke-width=".75" stroke-linecap="square" stroke-linejoin="round" fill="none" stroke="#262626" d="M45.970338 54.766759V59.394308"/>
<path transform="matrix(1,0,0,-1,0,90.82416)" stroke-width=".75" stroke-linecap="square" stroke-linejoin="round" fill="none" stroke="#262626" d="M67.685848 59.45014V61.74151"/>
<path transform="matrix(1,0,0,-1,0,90.82416)" stroke-width=".75" stroke-linecap="square" stroke-linejoin="round" fill="none" stroke="#262626" d="M89.40135 22.088263V28.08682"/>
<path transform="matrix(1,0,0,-1,0,90.82416)" stroke-width=".75" stroke-linecap="square" stroke-linejoin="round" fill="none" stroke="#262626" d="M111.11686 9.643973V12.584871"/>
</g>
<path transform="matrix(1,0,0,-1,0,90.82416)" stroke-width=".8" stroke-linecap="square" stroke-miterlimit="10" stroke-linejoin="miter" fill="none" stroke="#000000" d="M35.112585 4.953878V64.58089"/>
<path transform="matrix(1,0,0,-1,0,90.82416)" stroke-width=".8" stroke-linecap="square" stroke-miterlimit="10" stroke-linejoin="miter" fill="none" stroke="#000000" d="M121.97461 4.953878V64.58089"/>
<path transform="matrix(1,0,0,-1,0,90.82416)" stroke-width=".8" stroke-linecap="square" stroke-miterlimit="10" stroke-linejoin="miter" fill="none" stroke="#000000" d="M35.112585 4.953878H121.97461"/>
<path transform="matrix(1,0,0,-1,0,90.82416)" stroke-width=".8" stroke-linecap="square" stroke-miterlimit="10" stroke-linejoin="miter" fill="none" stroke="#000000" d="M35.112585 64.58089H121.97461"/>
<path transform="matrix(1,0,0,-1,0,90.82416)" d="M169.8571 4.953878H256.71916V64.58089H169.8571Z" fill="#ffffff"/>
<g clip-path="url(#clip_18)">
<path transform="matrix(1,0,0,-1,0,90.82416)" stroke-width=".5" stroke-linecap="square" stroke-linejoin="round" fill="none" stroke="#dcdcdc" d="M169.8571 4.953878H256.71916"/>
</g>
<path transform="matrix(1,0,0,-1,0,90.82416)" d="M169.8571 4.953878H166.3571"/>
<path transform="matrix(1,0,0,-1,0,90.82416)" stroke-width=".8" stroke-linecap="butt" stroke-linejoin="round" fill="none" stroke="#000000" d="M169.8571 4.953878H166.3571"/>
<use data-text="0" xlink:href="#font_19_212" transform="matrix(6.973848,0,0,-6.973848,159.37018,88.234378)"/>
<g clip-path="url(#clip_20)">
<path transform="matrix(1,0,0,-1,0,90.82416)" stroke-width=".5" stroke-linecap="square" stroke-linejoin="round" fill="none" stroke="#dcdcdc" d="M169.8571 19.860632H256.71916"/>
</g>
<path transform="matrix(1,0,0,-1,0,90.82416)" d="M169.8571 19.860632H166.3571"/>
<path transform="matrix(1,0,0,-1,0,90.82416)" stroke-width=".8" stroke-linecap="butt" stroke-linejoin="round" fill="none" stroke="#000000" d="M169.8571 19.860632H166.3571"/>
<use data-text="2" xlink:href="#font_19_204" transform="matrix(6.973848,0,0,-6.973848,155.88326,73.32762)"/>
<use data-text="5" xlink:href="#font_19_207" transform="matrix(6.973848,0,0,-6.973848,159.37018,73.32762)"/>
<g clip-path="url(#clip_21)">
<path transform="matrix(1,0,0,-1,0,90.82416)" stroke-width=".5" stroke-linecap="square" stroke-linejoin="round" fill="none" stroke="#dcdcdc" d="M169.8571 34.767385H256.71916"/>
</g>
<path transform="matrix(1,0,0,-1,0,90.82416)" d="M169.8571 34.767385H166.3571"/>
<path transform="matrix(1,0,0,-1,0,90.82416)" stroke-width=".8" stroke-linecap="butt" stroke-linejoin="round" fill="none" stroke="#000000" d="M169.8571 34.767385H166.3571"/>
<use data-text="5" xlink:href="#font_19_207" transform="matrix(6.973848,0,0,-6.973848,155.88326,58.42087)"/>
<use data-text="0" xlink:href="#font_19_212" transform="matrix(6.973848,0,0,-6.973848,159.37018,58.42087)"/>
<g clip-path="url(#clip_22)">
<path transform="matrix(1,0,0,-1,0,90.82416)" stroke-width=".5" stroke-linecap="square" stroke-linejoin="round" fill="none" stroke="#dcdcdc" d="M169.8571 49.674139H256.71916"/>
</g>
<path transform="matrix(1,0,0,-1,0,90.82416)" d="M169.8571 49.674139H166.3571"/>
<path transform="matrix(1,0,0,-1,0,90.82416)" stroke-width=".8" stroke-linecap="butt" stroke-linejoin="round" fill="none" stroke="#000000" d="M169.8571 49.674139H166.3571"/>
<use data-text="7" xlink:href="#font_19_209" transform="matrix(6.973848,0,0,-6.973848,155.88326,43.51412)"/>
<use data-text="5" xlink:href="#font_19_207" transform="matrix(6.973848,0,0,-6.973848,159.37018,43.51412)"/>
<g clip-path="url(#clip_23)">
<path transform="matrix(1,0,0,-1,0,90.82416)" stroke-width=".5" stroke-linecap="square" stroke-linejoin="round" fill="none" stroke="#dcdcdc" d="M169.8571 64.58089H256.71916"/>
</g>
<path transform="matrix(1,0,0,-1,0,90.82416)" d="M169.8571 64.58089H166.3571"/>
<path transform="matrix(1,0,0,-1,0,90.82416)" stroke-width=".8" stroke-linecap="butt" stroke-linejoin="round" fill="none" stroke="#000000" d="M169.8571 64.58089H166.3571"/>
<use data-text="1" xlink:href="#font_19_203" transform="matrix(6.973848,0,0,-6.973848,152.39633,28.607365)"/>
<use data-text="0" xlink:href="#font_19_212" transform="matrix(6.973848,0,0,-6.973848,155.88326,28.607365)"/>
<use data-text="0" xlink:href="#font_19_212" transform="matrix(6.973848,0,0,-6.973848,159.37018,28.607365)"/>
<g clip-path="url(#clip_24)">
<path transform="matrix(1,0,0,-1,0,90.82416)" stroke-width=".5" stroke-linecap="square" stroke-linejoin="round" fill="none" stroke="#dcdcdc" d="M169.8571 13.89793H256.71916"/>
</g>
<path transform="matrix(1,0,0,-1,0,90.82416)" d="M169.8571 13.89793H166.3571"/>
<path transform="matrix(1,0,0,-1,0,90.82416)" stroke-width=".8" stroke-linecap="butt" stroke-linejoin="round" fill="none" stroke="#000000" d="M169.8571 13.89793H166.3571"/>
<use data-text="B" xlink:href="#font_19_134" transform="matrix(6.973848,0,0,-6.973848,142.70983,79.29033)"/>
<use data-text="u" xlink:href="#font_19_186" transform="matrix(6.973848,0,0,-6.973848,147.3544,79.29033)"/>
<use data-text="d" xlink:href="#font_19_169" transform="matrix(6.973848,0,0,-6.973848,150.84133,79.29033)"/>
<use data-text="g" xlink:href="#font_19_172" transform="matrix(6.973848,0,0,-6.973848,154.32825,79.29033)"/>
<use data-text="e" xlink:href="#font_19_170" transform="matrix(6.973848,0,0,-6.973848,157.81517,79.29033)"/>
<use data-text="t" xlink:href="#font_19_185" transform="matrix(6.973848,0,0,-6.973848,160.90459,79.29033)"/>
<use data-text="&#x02c6;" xlink:href="#font_6_96" transform="matrix(0,-8.966376,-8.966376,-0,134.20174,63.97442)"/>
<use data-text="C" xlink:href="#font_7_68" transform="matrix(0,-8.966376,-8.966376,-0,136.46823,66.04642)"/>
<use data-text="(" xlink:href="#font_6_41" transform="matrix(0,-8.966376,-8.966376,-0,136.46823,58.83062)"/>
<use data-text="&#x02dc;" xlink:href="#font_6_128" transform="matrix(0,-8.966376,-8.966376,-0,136.46823,54.75889)"/>
<use data-text="&#x03c0;" xlink:href="#font_7_26" transform="matrix(0,-8.966376,-8.966376,-0,136.46823,55.24686)"/>
<use data-text=")" xlink:href="#font_6_42" transform="matrix(0,-8.966376,-8.966376,-0,136.46823,49.650888)"/>
<g clip-path="url(#clip_25)">
<g clip-path="url(#clip_26)">
<path transform="matrix(1,0,0,-1,0,90.82416)" d="M172.02866 4.953878H189.40106V6.135447H172.02866Z" fill="#5f4690" fill-opacity=".7"/>
<path transform="matrix(1,0,0,-1,0,90.82416)" stroke-width="2" stroke-linecap="butt" stroke-miterlimit="10" stroke-linejoin="miter" fill="none" stroke="#5f4690" d="M172.02866 4.953878H189.40106V6.135447H172.02866Z"/>
</g>
</g>
<g clip-path="url(#clip_27)">
<g clip-path="url(#clip_28)">
<path transform="matrix(1,0,0,-1,0,90.82416)" d="M193.74416 4.953878H211.11656V9.051446H193.74416Z" fill="#1d6996" fill-opacity=".7"/>
<path transform="matrix(1,0,0,-1,0,90.82416)" stroke-width="2" stroke-linecap="butt" stroke-miterlimit="10" stroke-linejoin="miter" fill="none" stroke="#1d6996" d="M193.74416 4.953878H211.11656V9.051446H193.74416Z"/>
</g>
</g>
<g clip-path="url(#clip_29)">
<g clip-path="url(#clip_30)">
<path transform="matrix(1,0,0,-1,0,90.82416)" d="M215.45967 4.953878H232.83208V11.390995H215.45967Z" fill="#38a6a5" fill-opacity=".7"/>
<path transform="matrix(1,0,0,-1,0,90.82416)" stroke-width="2" stroke-linecap="butt" stroke-miterlimit="10" stroke-linejoin="miter" fill="none" stroke="#38a6a5" d="M215.45967 4.953878H232.83208V11.390995H215.45967Z"/>
</g>
</g>
<g clip-path="url(#clip_31)">
<g clip-path="url(#clip_32)">
<g opacity=".7">
<g clip-path="url(#clip_33)">
<path transform="matrix(1,0,0,-1,216,144)" d="M0 0H72V72H0Z" fill="#0f8554"/>
<path transform="matrix(1,0,0,-1,216,144)" d="M-36 36 36-36M-30 42 42-30M-24 48 48-24M-18 54 54-18M-12 60 60-12M-6 66 66-6M0 72 72 0M6 78 78 6M12 84 84 12M18 90 90 18M24 96 96 24M30 102 102 30M36 108 108 36" fill="#0f8554"/>
<path transform="matrix(1,0,0,-1,216,144)" stroke-width="1" stroke-linecap="butt" stroke-miterlimit="10" stroke-linejoin="miter" fill="none" stroke="#0f8554" d="M-36 36 36-36M-30 42 42-30M-24 48 48-24M-18 54 54-18M-12 60 60-12M-6 66 66-6M0 72 72 0M6 78 78 6M12 84 84 12M18 90 90 18M24 96 96 24M30 102 102 30M36 108 108 36"/>
<path transform="matrix(1,0,0,-1,216,72)" d="M0 0H72V72H0Z" fill="#0f8554"/>
<path transform="matrix(1,0,0,-1,216,72)" d="M-36 36 36-36M-30 42 42-30M-24 48 48-24M-18 54 54-18M-12 60 60-12M-6 66 66-6M0 72 72 0M6 78 78 6M12 84 84 12M18 90 90 18M24 96 96 24M30 102 102 30M36 108 108 36" fill="#0f8554"/>
<path transform="matrix(1,0,0,-1,216,72)" stroke-width="1" stroke-linecap="butt" stroke-miterlimit="10" stroke-linejoin="miter" fill="none" stroke="#0f8554" d="M-36 36 36-36M-30 42 42-30M-24 48 48-24M-18 54 54-18M-12 60 60-12M-6 66 66-6M0 72 72 0M6 78 78 6M12 84 84 12M18 90 90 18M24 96 96 24M30 102 102 30M36 108 108 36"/>
</g>
</g>
<path transform="matrix(1,0,0,-1,0,90.82416)" stroke-width="2" stroke-linecap="butt" stroke-miterlimit="10" stroke-linejoin="miter" fill="none" stroke="#0f8554" d="M237.17517 4.953878H254.54758V44.632246H237.17517Z"/>
</g>
</g>
<g clip-path="url(#clip_34)">
<path transform="matrix(1,0,0,-1,0,90.82416)" stroke-width=".75" stroke-linecap="square" stroke-linejoin="round" fill="none" stroke="#262626" d="M180.71486 5.777842V6.493051"/>
<path transform="matrix(1,0,0,-1,0,90.82416)" stroke-width=".75" stroke-linecap="square" stroke-linejoin="round" fill="none" stroke="#262626" d="M202.43036 8.46756V9.635332"/>
<path transform="matrix(1,0,0,-1,0,90.82416)" stroke-width=".75" stroke-linecap="square" stroke-linejoin="round" fill="none" stroke="#262626" d="M224.14588 10.265069V12.516922"/>
<path transform="matrix(1,0,0,-1,0,90.82416)" stroke-width=".75" stroke-linecap="square" stroke-linejoin="round" fill="none" stroke="#262626" d="M245.86138 28.786866V60.47762"/>
</g>
<g clip-path="url(#clip_35)">
<path transform="matrix(1,0,0,-1,0,90.82416)" stroke-width="1.25" stroke-linecap="butt" stroke-dasharray="1.25,1.25" stroke-linejoin="round" fill="none" stroke="#000000" d="M169.8571 13.89793H256.71916"/>
</g>
<path transform="matrix(1,0,0,-1,0,90.82416)" stroke-width=".8" stroke-linecap="square" stroke-miterlimit="10" stroke-linejoin="miter" fill="none" stroke="#000000" d="M169.8571 4.953878V64.58089"/>
<path transform="matrix(1,0,0,-1,0,90.82416)" stroke-width=".8" stroke-linecap="square" stroke-miterlimit="10" stroke-linejoin="miter" fill="none" stroke="#000000" d="M256.71916 4.953878V64.58089"/>
<path transform="matrix(1,0,0,-1,0,90.82416)" stroke-width=".8" stroke-linecap="square" stroke-miterlimit="10" stroke-linejoin="miter" fill="none" stroke="#000000" d="M169.8571 4.953878H256.71916"/>
<path transform="matrix(1,0,0,-1,0,90.82416)" stroke-width=".8" stroke-linecap="square" stroke-miterlimit="10" stroke-linejoin="miter" fill="none" stroke="#000000" d="M169.8571 64.58089H256.71916"/>
<path transform="matrix(1,0,0,-1,0,90.82416)" stroke-width=".75" stroke-linecap="round" stroke-linejoin="round" fill="none" stroke="#000000" d="M229.8893 50.3349C234.68122 49.379667 239.15727 47.898855 243.31749 45.892465"/>
<path transform="matrix(1,0,0,-1,0,90.82416)" d="M240.85681 49.0776 243.31749 45.892465 239.29297 45.835008Z"/>
<path transform="matrix(1,0,0,-1,0,90.82416)" stroke-width=".75" stroke-linecap="round" stroke-linejoin="round" fill="none" stroke="#000000" d="M240.85681 49.0776 243.31749 45.892465 239.29297 45.835008Z"/>
<path transform="matrix(1,0,0,-1,0,90.82416)" d="M180.14014 37.606019H224.72058C226.52059 37.606019 227.42058 38.506017 227.42058 40.30602V57.562368C227.42058 59.362367 226.52059 60.262369 224.72058 60.262369H180.14014C178.34015 60.262369 177.44014 59.362367 177.44014 57.562368V40.30602C177.44014 38.506017 178.34015 37.606019 180.14014 37.606019Z" fill="#ffeeee"/>
<path transform="matrix(1,0,0,-1,0,90.82416)" stroke-width="1" stroke-linecap="butt" stroke-miterlimit="10" stroke-linejoin="miter" fill="none" stroke="#ff0000" d="M180.14014 37.606019H224.72058C226.52059 37.606019 227.42058 38.506017 227.42058 40.30602V57.562368C227.42058 59.362367 226.52059 60.262369 224.72058 60.262369H180.14014C178.34015 60.262369 177.44014 59.362367 177.44014 57.562368V40.30602C177.44014 38.506017 178.34015 37.606019 180.14014 37.606019Z"/>
<use data-text="6" xlink:href="#font_19_208" transform="matrix(8.966376,0,0,-8.966376,181.72266,39.340909)"/>
<use data-text="." xlink:href="#font_19_222" transform="matrix(8.966376,0,0,-8.966376,186.20584,39.340909)"/>
<use data-text="2" xlink:href="#font_19_204" transform="matrix(8.966376,0,0,-8.966376,188.44744,39.340909)"/>
<use data-text="&#x00d7;" xlink:href="#font_19_260" transform="matrix(8.966376,0,0,-8.966376,192.93062,39.340909)"/>
<use data-text="h" xlink:href="#font_19_173" transform="matrix(8.966376,0,0,-8.966376,200.22028,39.340909)"/>
<use data-text="i" xlink:href="#font_19_174" transform="matrix(8.966376,0,0,-8.966376,204.70346,39.340909)"/>
<use data-text="g" xlink:href="#font_19_172" transform="matrix(8.966376,0,0,-8.966376,207.18715,39.340909)"/>
<use data-text="h" xlink:href="#font_19_173" transform="matrix(8.966376,0,0,-8.966376,211.67034,39.340909)"/>
<use data-text="e" xlink:href="#font_19_170" transform="matrix(8.966376,0,0,-8.966376,216.15352,39.340909)"/>
<use data-text="r" xlink:href="#font_19_183" transform="matrix(8.966376,0,0,-8.966376,220.12563,39.340909)"/>
<use data-text="t" xlink:href="#font_19_185" transform="matrix(8.966376,0,0,-8.966376,180.14014,48.576997)"/>
<use data-text="h" xlink:href="#font_19_173" transform="matrix(8.966376,0,0,-8.966376,182.62383,48.576997)"/>
<use data-text="a" xlink:href="#font_19_166" transform="matrix(8.966376,0,0,-8.966376,187.10701,48.576997)"/>
<use data-text="n" xlink:href="#font_19_179" transform="matrix(8.966376,0,0,-8.966376,191.07912,48.576997)"/>
<use data-text="S" xlink:href="#font_36_52" transform="matrix(8.966376,0,0,-8.966376,197.82169,48.576997)"/>
<use data-text="P" xlink:href="#font_36_49" transform="matrix(8.966376,0,0,-8.966376,203.79329,48.576997)"/>
<use data-text="i" xlink:href="#font_36_74" transform="matrix(8.966376,0,0,-8.966376,209.7649,48.576997)"/>
<use data-text="D" xlink:href="#font_36_37" transform="matrix(8.966376,0,0,-8.966376,211.74646,48.576997)"/>
<use data-text="R" xlink:href="#font_36_51" transform="matrix(8.966376,0,0,-8.966376,218.21121,48.576997)"/>
<path transform="matrix(1,0,0,-1,0,90.82416)" d="M304.60163 4.953878H391.46366V64.58089H304.60163Z" fill="#ffffff"/>
<g clip-path="url(#clip_37)">
<path transform="matrix(1,0,0,-1,0,90.82416)" stroke-width=".5" stroke-linecap="square" stroke-linejoin="round" fill="none" stroke="#dcdcdc" d="M304.60163 4.953878H391.46366"/>
</g>
<path transform="matrix(1,0,0,-1,0,90.82416)" d="M304.60163 4.953878H301.10163"/>
<path transform="matrix(1,0,0,-1,0,90.82416)" stroke-width=".8" stroke-linecap="butt" stroke-linejoin="round" fill="none" stroke="#000000" d="M304.60163 4.953878H301.10163"/>
<use data-text="0" xlink:href="#font_19_212" transform="matrix(6.973848,0,0,-6.973848,294.1147,88.234378)"/>
<g clip-path="url(#clip_38)">
<path transform="matrix(1,0,0,-1,0,90.82416)" stroke-width=".5" stroke-linecap="square" stroke-linejoin="round" fill="none" stroke="#dcdcdc" d="M304.60163 24.829548H391.46366"/>
</g>
<path transform="matrix(1,0,0,-1,0,90.82416)" d="M304.60163 24.829548H301.10163"/>
<path transform="matrix(1,0,0,-1,0,90.82416)" stroke-width=".8" stroke-linecap="butt" stroke-linejoin="round" fill="none" stroke="#000000" d="M304.60163 24.829548H301.10163"/>
<use data-text="1" xlink:href="#font_19_203" transform="matrix(6.973848,0,0,-6.973848,287.14085,68.3587)"/>
<use data-text="0" xlink:href="#font_19_212" transform="matrix(6.973848,0,0,-6.973848,290.62779,68.3587)"/>
<use data-text="0" xlink:href="#font_19_212" transform="matrix(6.973848,0,0,-6.973848,294.11473,68.3587)"/>
<g clip-path="url(#clip_39)">
<path transform="matrix(1,0,0,-1,0,90.82416)" stroke-width=".5" stroke-linecap="square" stroke-linejoin="round" fill="none" stroke="#dcdcdc" d="M304.60163 44.70522H391.46366"/>
</g>
<path transform="matrix(1,0,0,-1,0,90.82416)" d="M304.60163 44.70522H301.10163"/>
<path transform="matrix(1,0,0,-1,0,90.82416)" stroke-width=".8" stroke-linecap="butt" stroke-linejoin="round" fill="none" stroke="#000000" d="M304.60163 44.70522H301.10163"/>
<use data-text="2" xlink:href="#font_19_204" transform="matrix(6.973848,0,0,-6.973848,287.14085,48.483037)"/>
<use data-text="0" xlink:href="#font_19_212" transform="matrix(6.973848,0,0,-6.973848,290.62779,48.483037)"/>
<use data-text="0" xlink:href="#font_19_212" transform="matrix(6.973848,0,0,-6.973848,294.11473,48.483037)"/>
<g clip-path="url(#clip_40)">
<path transform="matrix(1,0,0,-1,0,90.82416)" stroke-width=".5" stroke-linecap="square" stroke-linejoin="round" fill="none" stroke="#dcdcdc" d="M304.60163 64.58089H391.46366"/>
</g>
<path transform="matrix(1,0,0,-1,0,90.82416)" d="M304.60163 64.58089H301.10163"/>
<path transform="matrix(1,0,0,-1,0,90.82416)" stroke-width=".8" stroke-linecap="butt" stroke-linejoin="round" fill="none" stroke="#000000" d="M304.60163 64.58089H301.10163"/>
<use data-text="3" xlink:href="#font_19_205" transform="matrix(6.973848,0,0,-6.973848,287.14085,28.607365)"/>
<use data-text="0" xlink:href="#font_19_212" transform="matrix(6.973848,0,0,-6.973848,290.62779,28.607365)"/>
<use data-text="0" xlink:href="#font_19_212" transform="matrix(6.973848,0,0,-6.973848,294.11473,28.607365)"/>
<g clip-path="url(#clip_41)">
<path transform="matrix(1,0,0,-1,0,90.82416)" stroke-width=".5" stroke-linecap="square" stroke-linejoin="round" fill="none" stroke="#dcdcdc" d="M304.60163 8.929012H391.46366"/>
</g>
<path transform="matrix(1,0,0,-1,0,90.82416)" d="M304.60163 8.929012H301.10163"/>
<path transform="matrix(1,0,0,-1,0,90.82416)" stroke-width=".8" stroke-linecap="butt" stroke-linejoin="round" fill="none" stroke="#000000" d="M304.60163 8.929012H301.10163"/>
<use data-text="B" xlink:href="#font_19_134" transform="matrix(6.973848,0,0,-6.973848,277.45436,84.25925)"/>
<use data-text="u" xlink:href="#font_19_186" transform="matrix(6.973848,0,0,-6.973848,282.09895,84.25925)"/>
<use data-text="d" xlink:href="#font_19_169" transform="matrix(6.973848,0,0,-6.973848,285.58589,84.25925)"/>
<use data-text="g" xlink:href="#font_19_172" transform="matrix(6.973848,0,0,-6.973848,289.0728,84.25925)"/>
<use data-text="e" xlink:href="#font_19_170" transform="matrix(6.973848,0,0,-6.973848,292.55976,84.25925)"/>
<use data-text="t" xlink:href="#font_19_185" transform="matrix(6.973848,0,0,-6.973848,295.64918,84.25925)"/>
<use data-text="&#x02c6;" xlink:href="#font_6_96" transform="matrix(0,-8.966376,-8.966376,-0,268.94627,63.97442)"/>
<use data-text="C" xlink:href="#font_7_68" transform="matrix(0,-8.966376,-8.966376,-0,271.21278,66.04642)"/>
<use data-text="(" xlink:href="#font_6_41" transform="matrix(0,-8.966376,-8.966376,-0,271.21278,58.83062)"/>
<use data-text="&#x02dc;" xlink:href="#font_6_128" transform="matrix(0,-8.966376,-8.966376,-0,271.21278,54.75889)"/>
<use data-text="&#x03c0;" xlink:href="#font_7_26" transform="matrix(0,-8.966376,-8.966376,-0,271.21278,55.24686)"/>
<use data-text=")" xlink:href="#font_6_42" transform="matrix(0,-8.966376,-8.966376,-0,271.21278,49.650888)"/>
<g clip-path="url(#clip_42)">
<g clip-path="url(#clip_43)">
<path transform="matrix(1,0,0,-1,0,90.82416)" d="M306.77317 4.953878H324.14558V5.066501H306.77317Z" fill="#5f4690" fill-opacity=".7"/>
<path transform="matrix(1,0,0,-1,0,90.82416)" stroke-width="2" stroke-linecap="butt" stroke-miterlimit="10" stroke-linejoin="miter" fill="none" stroke="#5f4690" d="M306.77317 4.953878H324.14558V5.066501H306.77317Z"/>
</g>
</g>
<g clip-path="url(#clip_44)">
<g clip-path="url(#clip_45)">
<path transform="matrix(1,0,0,-1,0,90.82416)" d="M328.48869 4.953878H345.86109V7.449865H328.48869Z" fill="#1d6996" fill-opacity=".7"/>
<path transform="matrix(1,0,0,-1,0,90.82416)" stroke-width="2" stroke-linecap="butt" stroke-miterlimit="10" stroke-linejoin="miter" fill="none" stroke="#1d6996" d="M328.48869 4.953878H345.86109V7.449865H328.48869Z"/>
</g>
</g>
<g clip-path="url(#clip_46)">
<g clip-path="url(#clip_47)">
<path transform="matrix(1,0,0,-1,0,90.82416)" d="M350.2042 4.953878H367.5766V6.477518H350.2042Z" fill="#38a6a5" fill-opacity=".7"/>
<path transform="matrix(1,0,0,-1,0,90.82416)" stroke-width="2" stroke-linecap="butt" stroke-miterlimit="10" stroke-linejoin="miter" fill="none" stroke="#38a6a5" d="M350.2042 4.953878H367.5766V6.477518H350.2042Z"/>
</g>
</g>
<g clip-path="url(#clip_48)">
<g clip-path="url(#clip_49)">
<g opacity=".7">
<g clip-path="url(#clip_50)">
<path transform="matrix(1,0,0,-1,360,144)" d="M0 0H72V72H0Z" fill="#0f8554"/>
<path transform="matrix(1,0,0,-1,360,144)" d="M-36 36 36-36M-30 42 42-30M-24 48 48-24M-18 54 54-18M-12 60 60-12M-6 66 66-6M0 72 72 0M6 78 78 6M12 84 84 12M18 90 90 18M24 96 96 24M30 102 102 30M36 108 108 36" fill="#0f8554"/>
<path transform="matrix(1,0,0,-1,360,144)" stroke-width="1" stroke-linecap="butt" stroke-miterlimit="10" stroke-linejoin="miter" fill="none" stroke="#0f8554" d="M-36 36 36-36M-30 42 42-30M-24 48 48-24M-18 54 54-18M-12 60 60-12M-6 66 66-6M0 72 72 0M6 78 78 6M12 84 84 12M18 90 90 18M24 96 96 24M30 102 102 30M36 108 108 36"/>
<path transform="matrix(1,0,0,-1,360,72)" d="M0 0H72V72H0Z" fill="#0f8554"/>
<path transform="matrix(1,0,0,-1,360,72)" d="M-36 36 36-36M-30 42 42-30M-24 48 48-24M-18 54 54-18M-12 60 60-12M-6 66 66-6M0 72 72 0M6 78 78 6M12 84 84 12M18 90 90 18M24 96 96 24M30 102 102 30M36 108 108 36" fill="#0f8554"/>
<path transform="matrix(1,0,0,-1,360,72)" stroke-width="1" stroke-linecap="butt" stroke-miterlimit="10" stroke-linejoin="miter" fill="none" stroke="#0f8554" d="M-36 36 36-36M-30 42 42-30M-24 48 48-24M-18 54 54-18M-12 60 60-12M-6 66 66-6M0 72 72 0M6 78 78 6M12 84 84 12M18 90 90 18M24 96 96 24M30 102 102 30M36 108 108 36"/>
</g>
</g>
<path transform="matrix(1,0,0,-1,0,90.82416)" stroke-width="2" stroke-linecap="butt" stroke-miterlimit="10" stroke-linejoin="miter" fill="none" stroke="#0f8554" d="M371.9197 4.953878H389.2921V44.748949H371.9197Z"/>
</g>
</g>
<g clip-path="url(#clip_51)">
<path transform="matrix(1,0,0,-1,0,90.82416)" stroke-width=".75" stroke-linecap="square" stroke-linejoin="round" fill="none" stroke="#262626" d="M315.45939 5.027741V5.105262"/>
<path transform="matrix(1,0,0,-1,0,90.82416)" stroke-width=".75" stroke-linecap="square" stroke-linejoin="round" fill="none" stroke="#262626" d="M337.1749 7.04088V7.858849"/>
<path transform="matrix(1,0,0,-1,0,90.82416)" stroke-width=".75" stroke-linecap="square" stroke-linejoin="round" fill="none" stroke="#262626" d="M358.89039 5.72052V7.234515"/>
<path transform="matrix(1,0,0,-1,0,90.82416)" stroke-width=".75" stroke-linecap="square" stroke-linejoin="round" fill="none" stroke="#262626" d="M380.6059 36.24494V53.252954"/>
</g>
<g clip-path="url(#clip_52)">
<path transform="matrix(1,0,0,-1,0,90.82416)" stroke-width="1.25" stroke-linecap="butt" stroke-dasharray="1.25,1.25" stroke-linejoin="round" fill="none" stroke="#000000" d="M304.60163 8.929012H391.46366"/>
</g>
<path transform="matrix(1,0,0,-1,0,90.82416)" stroke-width=".8" stroke-linecap="square" stroke-miterlimit="10" stroke-linejoin="miter" fill="none" stroke="#000000" d="M304.60163 4.953878V64.58089"/>
<path transform="matrix(1,0,0,-1,0,90.82416)" stroke-width=".8" stroke-linecap="square" stroke-miterlimit="10" stroke-linejoin="miter" fill="none" stroke="#000000" d="M391.46366 4.953878V64.58089"/>
<path transform="matrix(1,0,0,-1,0,90.82416)" stroke-width=".8" stroke-linecap="square" stroke-miterlimit="10" stroke-linejoin="miter" fill="none" stroke="#000000" d="M304.60163 4.953878H391.46366"/>
<path transform="matrix(1,0,0,-1,0,90.82416)" stroke-width=".8" stroke-linecap="square" stroke-miterlimit="10" stroke-linejoin="miter" fill="none" stroke="#000000" d="M304.60163 64.58089H391.46366"/>
<path transform="matrix(1,0,0,-1,0,90.82416)" stroke-width=".75" stroke-linecap="round" stroke-linejoin="round" fill="none" stroke="#000000" d="M365.28276 50.4702C369.86094 49.460409 374.12428 47.981195 378.07279 46.03256"/>
<path transform="matrix(1,0,0,-1,0,90.82416)" d="M375.6411 49.239885 378.07279 46.03256 374.0479 46.01161Z"/>
<path transform="matrix(1,0,0,-1,0,90.82416)" stroke-width=".75" stroke-linecap="round" stroke-linejoin="round" fill="none" stroke="#000000" d="M375.6411 49.239885 378.07279 46.03256 374.0479 46.01161Z"/>
<path transform="matrix(1,0,0,-1,0,90.82416)" d="M314.2256 38.12023H360.12419C361.92417 38.12023 362.8242 39.020235 362.8242 40.820234V58.07658C362.8242 59.87658 361.92417 60.77658 360.12419 60.77658H314.2256C312.4256 60.77658 311.5256 59.87658 311.5256 58.07658V40.820234C311.5256 39.020235 312.4256 38.12023 314.2256 38.12023Z" fill="#ffeeee"/>
<path transform="matrix(1,0,0,-1,0,90.82416)" stroke-width="1" stroke-linecap="butt" stroke-miterlimit="10" stroke-linejoin="miter" fill="none" stroke="#ff0000" d="M314.2256 38.12023H360.12419C361.92417 38.12023 362.8242 39.020235 362.8242 40.820234V58.07658C362.8242 59.87658 361.92417 60.77658 360.12419 60.77658H314.2256C312.4256 60.77658 311.5256 59.87658 311.5256 58.07658V40.820234C311.5256 39.020235 312.4256 38.12023 314.2256 38.12023Z"/>
<use data-text="2" xlink:href="#font_19_204" transform="matrix(8.966376,0,0,-8.966376,314.2256,38.826696)"/>
<use data-text="6" xlink:href="#font_19_208" transform="matrix(8.966376,0,0,-8.966376,318.70878,38.826696)"/>
<use data-text="." xlink:href="#font_19_222" transform="matrix(8.966376,0,0,-8.966376,323.19197,38.826696)"/>
<use data-text="1" xlink:href="#font_19_203" transform="matrix(8.966376,0,0,-8.966376,325.43357,38.826696)"/>
<use data-text="&#x00d7;" xlink:href="#font_19_260" transform="matrix(8.966376,0,0,-8.966376,329.91676,38.826696)"/>
<use data-text="h" xlink:href="#font_19_173" transform="matrix(8.966376,0,0,-8.966376,337.20643,38.826696)"/>
<use data-text="i" xlink:href="#font_19_174" transform="matrix(8.966376,0,0,-8.966376,341.6896,38.826696)"/>
<use data-text="g" xlink:href="#font_19_172" transform="matrix(8.966376,0,0,-8.966376,344.17329,38.826696)"/>
<use data-text="h" xlink:href="#font_19_173" transform="matrix(8.966376,0,0,-8.966376,348.65647,38.826696)"/>
<use data-text="e" xlink:href="#font_19_170" transform="matrix(8.966376,0,0,-8.966376,353.13966,38.826696)"/>
<use data-text="r" xlink:href="#font_19_183" transform="matrix(8.966376,0,0,-8.966376,357.11177,38.826696)"/>
<use data-text="t" xlink:href="#font_19_185" transform="matrix(8.966376,0,0,-8.966376,314.88468,48.06278)"/>
<use data-text="h" xlink:href="#font_19_173" transform="matrix(8.966376,0,0,-8.966376,317.36836,48.06278)"/>
<use data-text="a" xlink:href="#font_19_166" transform="matrix(8.966376,0,0,-8.966376,321.85154,48.06278)"/>
<use data-text="n" xlink:href="#font_19_179" transform="matrix(8.966376,0,0,-8.966376,325.82365,48.06278)"/>
<use data-text="S" xlink:href="#font_36_52" transform="matrix(8.966376,0,0,-8.966376,332.56623,48.06278)"/>
<use data-text="P" xlink:href="#font_36_49" transform="matrix(8.966376,0,0,-8.966376,338.53785,48.06278)"/>
<use data-text="i" xlink:href="#font_36_74" transform="matrix(8.966376,0,0,-8.966376,344.50947,48.06278)"/>
<use data-text="D" xlink:href="#font_36_37" transform="matrix(8.966376,0,0,-8.966376,346.49104,48.06278)"/>
<use data-text="R" xlink:href="#font_36_51" transform="matrix(8.966376,0,0,-8.966376,352.95579,48.06278)"/>
<use data-text="U" xlink:href="#font_19_153" transform="matrix(8.966376,0,0,-8.966376,325.74693,20.24327)"/>
<use data-text="n" xlink:href="#font_19_179" transform="matrix(8.966376,0,0,-8.966376,332.21168,20.24327)"/>
<use data-text="i" xlink:href="#font_19_174" transform="matrix(8.966376,0,0,-8.966376,336.69486,20.24327)"/>
<use data-text="t" xlink:href="#font_19_185" transform="matrix(8.966376,0,0,-8.966376,339.17854,20.24327)"/>
<use data-text="r" xlink:href="#font_19_183" transform="matrix(8.966376,0,0,-8.966376,341.6622,20.24327)"/>
<use data-text="e" xlink:href="#font_19_170" transform="matrix(8.966376,0,0,-8.966376,344.63905,20.24327)"/>
<use data-text="e" xlink:href="#font_19_170" transform="matrix(8.966376,0,0,-8.966376,348.61116,20.24327)"/>
<use data-text="G" xlink:href="#font_19_139" transform="matrix(8.966376,0,0,-8.966376,354.82487,20.24327)"/>
<use data-text="o" xlink:href="#font_19_180" transform="matrix(8.966376,0,0,-8.966376,361.2896,20.24327)"/>
<use data-text="1" xlink:href="#font_19_203" transform="matrix(8.966376,0,0,-8.966376,365.7728,20.24327)"/>
<use data-text="R" xlink:href="#font_19_150" transform="matrix(8.966376,0,0,-8.966376,131.81966,19.01242)"/>
<use data-text="a" xlink:href="#font_19_166" transform="matrix(8.966376,0,0,-8.966376,137.79126,19.01242)"/>
<use data-text="c" xlink:href="#font_19_168" transform="matrix(8.966376,0,0,-8.966376,141.76337,19.01242)"/>
<use data-text="e" xlink:href="#font_19_170" transform="matrix(8.966376,0,0,-8.966376,145.73548,19.01242)"/>
<use data-text="C" xlink:href="#font_19_135" transform="matrix(8.966376,0,0,-8.966376,149.70758,19.01242)"/>
<use data-text="a" xlink:href="#font_19_166" transform="matrix(8.966376,0,0,-8.966376,155.67919,19.01242)"/>
<use data-text="r" xlink:href="#font_19_183" transform="matrix(8.966376,0,0,-8.966376,159.65129,19.01242)"/>
<path transform="matrix(1,0,0,-1,0,90.82416)" d="M3.88 82.04416H9.48V86.94416H3.88Z" fill="#5f4690" fill-opacity=".7"/>
<path transform="matrix(1,0,0,-1,0,90.82416)" stroke-width="1" stroke-linecap="butt" stroke-miterlimit="10" stroke-linejoin="miter" fill="none" stroke="#5f4690" d="M3.88 82.04416H9.48V86.94416H3.88Z"/>
<use data-text="S" xlink:href="#font_53_151" transform="matrix(6.973848,0,0,-6.973848,12.28,8.779999)"/>
<use data-text="P" xlink:href="#font_53_148" transform="matrix(6.973848,0,0,-6.973848,16.924584,8.779999)"/>
<use data-text="i" xlink:href="#font_53_174" transform="matrix(6.973848,0,0,-6.973848,21.569167,8.779999)"/>
<use data-text="D" xlink:href="#font_53_136" transform="matrix(6.973848,0,0,-6.973848,23.500922,8.779999)"/>
<use data-text="R" xlink:href="#font_53_150" transform="matrix(6.973848,0,0,-6.973848,28.529067,8.779999)"/>
<use data-text="(" xlink:href="#font_19_244" transform="matrix(6.973848,0,0,-6.973848,35.335298,8.779999)"/>
<use data-text="s" xlink:href="#font_19_184" transform="matrix(6.973848,0,0,-6.973848,37.650617,8.779999)"/>
<use data-text="i" xlink:href="#font_19_174" transform="matrix(6.973848,0,0,-6.973848,40.35647,8.779999)"/>
<use data-text="m" xlink:href="#font_19_178" transform="matrix(6.973848,0,0,-6.973848,42.288225,8.779999)"/>
<use data-text="-" xlink:href="#font_19_241" transform="matrix(6.973848,0,0,-6.973848,47.7069,8.779999)"/>
<use data-text="t" xlink:href="#font_19_185" transform="matrix(6.973848,0,0,-6.973848,50.02222,8.779999)"/>
<use data-text="o" xlink:href="#font_19_180" transform="matrix(6.973848,0,0,-6.973848,51.953977,8.779999)"/>
<use data-text="-" xlink:href="#font_19_241" transform="matrix(6.973848,0,0,-6.973848,55.4409,8.779999)"/>
<use data-text="s" xlink:href="#font_19_184" transform="matrix(6.973848,0,0,-6.973848,57.756219,8.779999)"/>
<use data-text="i" xlink:href="#font_19_174" transform="matrix(6.973848,0,0,-6.973848,60.46207,8.779999)"/>
<use data-text="m" xlink:href="#font_19_178" transform="matrix(6.973848,0,0,-6.973848,62.393827,8.779999)"/>
<use data-text=")" xlink:href="#font_19_245" transform="matrix(6.973848,0,0,-6.973848,67.81251,8.779999)"/>
<path transform="matrix(1,0,0,-1,0,90.82416)" d="M75.80387 82.04416H81.40387V86.94416H75.80387Z" fill="#1d6996" fill-opacity=".7"/>
<path transform="matrix(1,0,0,-1,0,90.82416)" stroke-width="1" stroke-linecap="butt" stroke-miterlimit="10" stroke-linejoin="miter" fill="none" stroke="#1d6996" d="M75.80387 82.04416H81.40387V86.94416H75.80387Z"/>
<use data-text="D" xlink:href="#font_36_37" transform="matrix(6.973848,0,0,-6.973848,84.203868,8.779999)"/>
<use data-text="o" xlink:href="#font_36_80" transform="matrix(6.973848,0,0,-6.973848,89.23201,8.779999)"/>
<use data-text="m" xlink:href="#font_36_78" transform="matrix(6.973848,0,0,-6.973848,93.10249,8.779999)"/>
<use data-text="a" xlink:href="#font_36_66" transform="matrix(6.973848,0,0,-6.973848,98.90473,8.779999)"/>
<use data-text="i" xlink:href="#font_36_74" transform="matrix(6.973848,0,0,-6.973848,102.775218,8.779999)"/>
<use data-text="n" xlink:href="#font_36_79" transform="matrix(6.973848,0,0,-6.973848,104.31644,8.779999)"/>
<use data-text="R" xlink:href="#font_36_51" transform="matrix(6.973848,0,0,-6.973848,110.12557,8.779999)"/>
<use data-text="a" xlink:href="#font_36_66" transform="matrix(6.973848,0,0,-6.973848,115.15372,8.779999)"/>
<use data-text="n" xlink:href="#font_36_79" transform="matrix(6.973848,0,0,-6.973848,119.0242,8.779999)"/>
<use data-text="d" xlink:href="#font_36_69" transform="matrix(6.973848,0,0,-6.973848,122.894687,8.779999)"/>
<use data-text="o" xlink:href="#font_36_80" transform="matrix(6.973848,0,0,-6.973848,126.76517,8.779999)"/>
<use data-text="m" xlink:href="#font_36_78" transform="matrix(6.973848,0,0,-6.973848,130.63565,8.779999)"/>
<use data-text="i" xlink:href="#font_36_74" transform="matrix(6.973848,0,0,-6.973848,136.4379,8.779999)"/>
<use data-text="z" xlink:href="#font_36_91" transform="matrix(6.973848,0,0,-6.973848,137.97911,8.779999)"/>
<use data-text="a" xlink:href="#font_36_66" transform="matrix(6.973848,0,0,-6.973848,141.46604,8.779999)"/>
<use data-text="t" xlink:href="#font_36_85" transform="matrix(6.973848,0,0,-6.973848,145.33652,8.779999)"/>
<use data-text="i" xlink:href="#font_36_74" transform="matrix(6.973848,0,0,-6.973848,147.26828,8.779999)"/>
<use data-text="o" xlink:href="#font_36_80" transform="matrix(6.973848,0,0,-6.973848,148.8095,8.779999)"/>
<use data-text="n" xlink:href="#font_36_79" transform="matrix(6.973848,0,0,-6.973848,152.67998,8.779999)"/>
<use data-text="(" xlink:href="#font_19_244" transform="matrix(6.973848,0,0,-6.973848,158.4187,8.779999)"/>
<use data-text="s" xlink:href="#font_19_184" transform="matrix(6.973848,0,0,-6.973848,160.73403,8.779999)"/>
<use data-text="i" xlink:href="#font_19_174" transform="matrix(6.973848,0,0,-6.973848,163.43988,8.779999)"/>
<use data-text="m" xlink:href="#font_19_178" transform="matrix(6.973848,0,0,-6.973848,165.37165,8.779999)"/>
<use data-text="-" xlink:href="#font_19_241" transform="matrix(6.973848,0,0,-6.973848,170.79033,8.779999)"/>
<use data-text="t" xlink:href="#font_19_185" transform="matrix(6.973848,0,0,-6.973848,173.10565,8.779999)"/>
<use data-text="o" xlink:href="#font_19_180" transform="matrix(6.973848,0,0,-6.973848,175.03742,8.779999)"/>
<use data-text="-" xlink:href="#font_19_241" transform="matrix(6.973848,0,0,-6.973848,178.52434,8.779999)"/>
<use data-text="s" xlink:href="#font_19_184" transform="matrix(6.973848,0,0,-6.973848,180.83966,8.779999)"/>
<use data-text="i" xlink:href="#font_19_174" transform="matrix(6.973848,0,0,-6.973848,183.54552,8.779999)"/>
<use data-text="m" xlink:href="#font_19_178" transform="matrix(6.973848,0,0,-6.973848,185.47728,8.779999)"/>
<use data-text=")" xlink:href="#font_19_245" transform="matrix(6.973848,0,0,-6.973848,190.89597,8.779999)"/>
<path transform="matrix(1,0,0,-1,0,90.82416)" d="M198.88729 82.04416H204.48729V86.94416H198.88729Z" fill="#38a6a5" fill-opacity=".7"/>
<path transform="matrix(1,0,0,-1,0,90.82416)" stroke-width="1" stroke-linecap="butt" stroke-miterlimit="10" stroke-linejoin="miter" fill="none" stroke="#38a6a5" d="M198.88729 82.04416H204.48729V86.94416H198.88729Z"/>
<use data-text="S" xlink:href="#font_53_151" transform="matrix(6.973848,0,0,-6.973848,207.28728,8.779999)"/>
<use data-text="P" xlink:href="#font_53_148" transform="matrix(6.973848,0,0,-6.973848,211.93186,8.779999)"/>
<use data-text="i" xlink:href="#font_53_174" transform="matrix(6.973848,0,0,-6.973848,216.57643,8.779999)"/>
<use data-text="D" xlink:href="#font_53_136" transform="matrix(6.973848,0,0,-6.973848,218.5082,8.779999)"/>
<use data-text="R" xlink:href="#font_53_150" transform="matrix(6.973848,0,0,-6.973848,223.53633,8.779999)"/>
<use data-text="(" xlink:href="#font_19_244" transform="matrix(6.973848,0,0,-6.973848,230.34258,8.779999)"/>
<use data-text="s" xlink:href="#font_19_184" transform="matrix(6.973848,0,0,-6.973848,232.6579,8.779999)"/>
<use data-text="i" xlink:href="#font_19_174" transform="matrix(6.973848,0,0,-6.973848,235.36376,8.779999)"/>
<use data-text="m" xlink:href="#font_19_178" transform="matrix(6.973848,0,0,-6.973848,237.29552,8.779999)"/>
<use data-text="-" xlink:href="#font_19_241" transform="matrix(6.973848,0,0,-6.973848,242.7142,8.779999)"/>
<use data-text="t" xlink:href="#font_19_185" transform="matrix(6.973848,0,0,-6.973848,245.02953,8.779999)"/>
<use data-text="o" xlink:href="#font_19_180" transform="matrix(6.973848,0,0,-6.973848,246.96129,8.779999)"/>
<use data-text="-" xlink:href="#font_19_241" transform="matrix(6.973848,0,0,-6.973848,250.44821,8.779999)"/>
<use data-text="r" xlink:href="#font_19_183" transform="matrix(6.973848,0,0,-6.973848,252.76354,8.779999)"/>
<use data-text="e" xlink:href="#font_19_170" transform="matrix(6.973848,0,0,-6.973848,255.07886,8.779999)"/>
<use data-text="a" xlink:href="#font_19_166" transform="matrix(6.973848,0,0,-6.973848,258.16828,8.779999)"/>
<use data-text="l" xlink:href="#font_19_177" transform="matrix(6.973848,0,0,-6.973848,261.2577,8.779999)"/>
<use data-text=")" xlink:href="#font_19_245" transform="matrix(6.973848,0,0,-6.973848,263.18946,8.779999)"/>
<path transform="matrix(1,0,0,-1,0,90.82416)" d="M271.18778 82.04416H276.78776V86.94416H271.18778Z" fill="#0f8554" fill-opacity=".7"/>
<path transform="matrix(1,0,0,-1,0,90.82416)" stroke-width="1" stroke-linecap="butt" stroke-miterlimit="10" stroke-linejoin="miter" fill="none" stroke="#0f8554" d="M271.18778 82.04416H276.78776V86.94416H271.18778Z"/>
<use data-text="D" xlink:href="#font_36_37" transform="matrix(6.973848,0,0,-6.973848,279.58778,8.779999)"/>
<use data-text="o" xlink:href="#font_36_80" transform="matrix(6.973848,0,0,-6.973848,284.6159,8.779999)"/>
<use data-text="m" xlink:href="#font_36_78" transform="matrix(6.973848,0,0,-6.973848,288.4864,8.779999)"/>
<use data-text="a" xlink:href="#font_36_66" transform="matrix(6.973848,0,0,-6.973848,294.28865,8.779999)"/>
<use data-text="i" xlink:href="#font_36_74" transform="matrix(6.973848,0,0,-6.973848,298.15913,8.779999)"/>
<use data-text="n" xlink:href="#font_36_79" transform="matrix(6.973848,0,0,-6.973848,299.70036,8.779999)"/>
<use data-text="R" xlink:href="#font_36_51" transform="matrix(6.973848,0,0,-6.973848,305.5095,8.779999)"/>
<use data-text="a" xlink:href="#font_36_66" transform="matrix(6.973848,0,0,-6.973848,310.53764,8.779999)"/>
<use data-text="n" xlink:href="#font_36_79" transform="matrix(6.973848,0,0,-6.973848,314.4081,8.779999)"/>
<use data-text="d" xlink:href="#font_36_69" transform="matrix(6.973848,0,0,-6.973848,318.2786,8.779999)"/>
<use data-text="o" xlink:href="#font_36_80" transform="matrix(6.973848,0,0,-6.973848,322.14909,8.779999)"/>
<use data-text="m" xlink:href="#font_36_78" transform="matrix(6.973848,0,0,-6.973848,326.01957,8.779999)"/>
<use data-text="i" xlink:href="#font_36_74" transform="matrix(6.973848,0,0,-6.973848,331.8218,8.779999)"/>
<use data-text="z" xlink:href="#font_36_91" transform="matrix(6.973848,0,0,-6.973848,333.36305,8.779999)"/>
<use data-text="a" xlink:href="#font_36_66" transform="matrix(6.973848,0,0,-6.973848,336.84999,8.779999)"/>
<use data-text="t" xlink:href="#font_36_85" transform="matrix(6.973848,0,0,-6.973848,340.72047,8.779999)"/>
<use data-text="i" xlink:href="#font_36_74" transform="matrix(6.973848,0,0,-6.973848,342.65223,8.779999)"/>
<use data-text="o" xlink:href="#font_36_80" transform="matrix(6.973848,0,0,-6.973848,344.19346,8.779999)"/>
<use data-text="n" xlink:href="#font_36_79" transform="matrix(6.973848,0,0,-6.973848,348.06394,8.779999)"/>
<use data-text="(" xlink:href="#font_19_244" transform="matrix(6.973848,0,0,-6.973848,353.8026,8.779999)"/>
<use data-text="s" xlink:href="#font_19_184" transform="matrix(6.973848,0,0,-6.973848,356.11793,8.779999)"/>
<use data-text="i" xlink:href="#font_19_174" transform="matrix(6.973848,0,0,-6.973848,358.82377,8.779999)"/>
<use data-text="m" xlink:href="#font_19_178" transform="matrix(6.973848,0,0,-6.973848,360.75553,8.779999)"/>
<use data-text="-" xlink:href="#font_19_241" transform="matrix(6.973848,0,0,-6.973848,366.1742,8.779999)"/>
<use data-text="t" xlink:href="#font_19_185" transform="matrix(6.973848,0,0,-6.973848,368.4895,8.779999)"/>
<use data-text="o" xlink:href="#font_19_180" transform="matrix(6.973848,0,0,-6.973848,370.42127,8.779999)"/>
<use data-text="-" xlink:href="#font_19_241" transform="matrix(6.973848,0,0,-6.973848,373.9082,8.779999)"/>
<use data-text="r" xlink:href="#font_19_183" transform="matrix(6.973848,0,0,-6.973848,376.2235,8.779999)"/>
<use data-text="e" xlink:href="#font_19_170" transform="matrix(6.973848,0,0,-6.973848,378.53883,8.779999)"/>
<use data-text="a" xlink:href="#font_19_166" transform="matrix(6.973848,0,0,-6.973848,381.62825,8.779999)"/>
<use data-text="l" xlink:href="#font_19_177" transform="matrix(6.973848,0,0,-6.973848,384.71766,8.779999)"/>
<use data-text=")" xlink:href="#font_19_245" transform="matrix(6.973848,0,0,-6.973848,386.6494,8.779999)"/>
</svg>
